%TF.GenerationSoftware,KiCad,Pcbnew,7.0.9*%
%TF.CreationDate,2023-12-18T06:45:05+09:00*%
%TF.ProjectId,WETHAP_PCB,57455448-4150-45f5-9043-422e6b696361,rev?*%
%TF.SameCoordinates,PX6d9c4d8PY8977a68*%
%TF.FileFunction,Copper,L1,Top*%
%TF.FilePolarity,Positive*%
%FSLAX46Y46*%
G04 Gerber Fmt 4.6, Leading zero omitted, Abs format (unit mm)*
G04 Created by KiCad (PCBNEW 7.0.9) date 2023-12-18 06:45:05*
%MOMM*%
%LPD*%
G01*
G04 APERTURE LIST*
%TA.AperFunction,ComponentPad*%
%ADD10C,5.600000*%
%TD*%
%TA.AperFunction,ComponentPad*%
%ADD11R,1.700000X1.700000*%
%TD*%
%TA.AperFunction,ComponentPad*%
%ADD12O,1.700000X1.700000*%
%TD*%
%TA.AperFunction,ComponentPad*%
%ADD13C,1.440000*%
%TD*%
%TA.AperFunction,ViaPad*%
%ADD14C,0.800000*%
%TD*%
%TA.AperFunction,Conductor*%
%ADD15C,0.500000*%
%TD*%
%TA.AperFunction,Conductor*%
%ADD16C,0.250000*%
%TD*%
G04 APERTURE END LIST*
D10*
%TO.P,H4,1,1*%
%TO.N,gnd*%
X45085000Y4445000D03*
%TD*%
%TO.P,H3,1,1*%
%TO.N,gnd*%
X4445000Y4445000D03*
%TD*%
%TO.P,H2,1,1*%
%TO.N,gnd*%
X45085000Y80645000D03*
%TD*%
%TO.P,H1,1,1*%
%TO.N,gnd*%
X4445000Y80645000D03*
%TD*%
D11*
%TO.P,DHT20,1,Pin_1*%
%TO.N,vbus*%
X32385000Y14605000D03*
D12*
%TO.P,DHT20,2,Pin_2*%
%TO.N,sda*%
X32385000Y17145000D03*
%TO.P,DHT20,3,Pin_3*%
%TO.N,gnd*%
X32385000Y19685000D03*
%TO.P,DHT20,4,Pin_4*%
%TO.N,scl*%
X32385000Y22225000D03*
%TD*%
D11*
%TO.P,J1,1,Pin_1*%
%TO.N,unconnected-(J1-Pin_1-Pad1)*%
X14605000Y78105000D03*
D12*
%TO.P,J1,2,Pin_2*%
%TO.N,unconnected-(J1-Pin_2-Pad2)*%
X14605000Y75565000D03*
%TO.P,J1,3,Pin_3*%
%TO.N,gnd*%
X14605000Y73025000D03*
%TO.P,J1,4,Pin_4*%
%TO.N,unconnected-(J1-Pin_4-Pad4)*%
X14605000Y70485000D03*
%TO.P,J1,5,Pin_5*%
%TO.N,unconnected-(J1-Pin_5-Pad5)*%
X14605000Y67945000D03*
%TO.P,J1,6,Pin_6*%
%TO.N,unconnected-(J1-Pin_6-Pad6)*%
X14605000Y65405000D03*
%TO.P,J1,7,Pin_7*%
%TO.N,unconnected-(J1-Pin_7-Pad7)*%
X14605000Y62865000D03*
%TO.P,J1,8,Pin_8*%
%TO.N,gnd*%
X14605000Y60325000D03*
%TO.P,J1,9,Pin_9*%
%TO.N,unconnected-(J1-Pin_9-Pad9)*%
X14605000Y57785000D03*
%TO.P,J1,10,Pin_10*%
%TO.N,unconnected-(J1-Pin_10-Pad10)*%
X14605000Y55245000D03*
%TO.P,J1,11,Pin_11*%
%TO.N,unconnected-(J1-Pin_11-Pad11)*%
X14605000Y52705000D03*
%TO.P,J1,12,Pin_12*%
%TO.N,unconnected-(J1-Pin_12-Pad12)*%
X14605000Y50165000D03*
%TO.P,J1,13,Pin_13*%
%TO.N,gnd*%
X14605000Y47625000D03*
%TO.P,J1,14,Pin_14*%
%TO.N,unconnected-(J1-Pin_14-Pad14)*%
X14605000Y45085000D03*
%TO.P,J1,15,Pin_15*%
%TO.N,unconnected-(J1-Pin_15-Pad15)*%
X14605000Y42545000D03*
%TO.P,J1,16,Pin_16*%
%TO.N,unconnected-(J1-Pin_16-Pad16)*%
X14605000Y40005000D03*
%TO.P,J1,17,Pin_17*%
%TO.N,unconnected-(J1-Pin_17-Pad17)*%
X14605000Y37465000D03*
%TO.P,J1,18,Pin_18*%
%TO.N,gnd*%
X14605000Y34925000D03*
%TO.P,J1,19,Pin_19*%
%TO.N,unconnected-(J1-Pin_19-Pad19)*%
X14605000Y32385000D03*
%TO.P,J1,20,Pin_20*%
%TO.N,unconnected-(J1-Pin_20-Pad20)*%
X14605000Y29845000D03*
%TD*%
D11*
%TO.P,LPS25HB1,1,Pin_1*%
%TO.N,vbus*%
X15935000Y22255000D03*
D12*
%TO.P,LPS25HB1,2,Pin_2*%
%TO.N,scl*%
X15935000Y19715000D03*
%TO.P,LPS25HB1,3,Pin_3*%
%TO.N,sda*%
X15935000Y17175000D03*
%TO.P,LPS25HB1,4,Pin_4*%
%TO.N,gnd*%
X15935000Y14635000D03*
%TD*%
D11*
%TO.P,SSD1306,1,Pin_1*%
%TO.N,gnd*%
X19685000Y6985000D03*
D12*
%TO.P,SSD1306,2,Pin_2*%
%TO.N,vbus*%
X22225000Y6985000D03*
%TO.P,SSD1306,3,Pin_3*%
%TO.N,scl*%
X24765000Y6985000D03*
%TO.P,SSD1306,4,Pin_4*%
%TO.N,sda*%
X27305000Y6985000D03*
%TD*%
D13*
%TO.P,RV1,1,1*%
%TO.N,gnd*%
X42545000Y50165000D03*
%TO.P,RV1,2,2*%
%TO.N,ADC0*%
X42545000Y47625000D03*
%TO.P,RV1,3,3*%
%TO.N,adc_vref*%
X42545000Y45085000D03*
%TD*%
D11*
%TO.P,J2,1,Pin_1*%
%TO.N,sda*%
X32385000Y29845000D03*
D12*
%TO.P,J2,2,Pin_2*%
%TO.N,scl*%
X32385000Y32385000D03*
%TO.P,J2,3,Pin_3*%
%TO.N,gnd*%
X32385000Y34925000D03*
%TO.P,J2,4,Pin_4*%
%TO.N,unconnected-(J2-Pin_4-Pad4)*%
X32385000Y37465000D03*
%TO.P,J2,5,Pin_5*%
%TO.N,unconnected-(J2-Pin_5-Pad5)*%
X32385000Y40005000D03*
%TO.P,J2,6,Pin_6*%
%TO.N,unconnected-(J2-Pin_6-Pad6)*%
X32385000Y42545000D03*
%TO.P,J2,7,Pin_7*%
%TO.N,unconnected-(J2-Pin_7-Pad7)*%
X32385000Y45085000D03*
%TO.P,J2,8,Pin_8*%
%TO.N,gnd*%
X32385000Y47625000D03*
%TO.P,J2,9,Pin_9*%
%TO.N,unconnected-(J2-Pin_9-Pad9)*%
X32385000Y50165000D03*
%TO.P,J2,10,Pin_10*%
%TO.N,unconnected-(J2-Pin_10-Pad10)*%
X32385000Y52705000D03*
%TO.P,J2,11,Pin_11*%
%TO.N,ADC0*%
X32385000Y55245000D03*
%TO.P,J2,12,Pin_12*%
%TO.N,ADC1*%
X32385000Y57785000D03*
%TO.P,J2,13,Pin_13*%
%TO.N,gnd*%
X32385000Y60325000D03*
%TO.P,J2,14,Pin_14*%
%TO.N,unconnected-(J2-Pin_14-Pad14)*%
X32385000Y62865000D03*
%TO.P,J2,15,Pin_15*%
%TO.N,adc_vref*%
X32385000Y65405000D03*
%TO.P,J2,16,Pin_16*%
%TO.N,unconnected-(J2-Pin_16-Pad16)*%
X32385000Y67945000D03*
%TO.P,J2,17,Pin_17*%
%TO.N,unconnected-(J2-Pin_17-Pad17)*%
X32385000Y70485000D03*
%TO.P,J2,18,Pin_18*%
%TO.N,gnd*%
X32385000Y73025000D03*
%TO.P,J2,19,Pin_19*%
%TO.N,unconnected-(J2-Pin_19-Pad19)*%
X32385000Y75565000D03*
%TO.P,J2,20,Pin_20*%
%TO.N,vbus*%
X32385000Y78105000D03*
%TD*%
D13*
%TO.P,RV2,1,1*%
%TO.N,gnd*%
X42545000Y65405000D03*
%TO.P,RV2,2,2*%
%TO.N,ADC1*%
X42545000Y62865000D03*
%TO.P,RV2,3,3*%
%TO.N,adc_vref*%
X42545000Y60325000D03*
%TD*%
D11*
%TO.P,LPS25HB2,1*%
%TO.N,N/C*%
X23555000Y14635000D03*
D12*
%TO.P,LPS25HB2,2*%
X23555000Y17175000D03*
%TO.P,LPS25HB2,3*%
X23555000Y19715000D03*
%TO.P,LPS25HB2,4*%
X23555000Y22255000D03*
%TD*%
D14*
%TO.N,gnd*%
X27940000Y14605000D03*
X46355000Y56515000D03*
X41275000Y64135000D03*
X28575000Y50165000D03*
X18415000Y69215000D03*
X4445000Y75565000D03*
X28575000Y62865000D03*
X10795000Y56515000D03*
X3175000Y37465000D03*
X38735000Y31115000D03*
X38735000Y5715000D03*
X28575000Y81915000D03*
X26035000Y8255000D03*
X31750000Y26035000D03*
X3175000Y62865000D03*
X10795000Y5715000D03*
X45085000Y24765000D03*
X10795000Y69215000D03*
X14605000Y12065000D03*
X36195000Y43815000D03*
X15935000Y24795000D03*
X10795000Y43815000D03*
X38735000Y18415000D03*
X34925000Y12065000D03*
X40640000Y51435000D03*
X38735000Y81915000D03*
X45085000Y37465000D03*
X22225000Y56515000D03*
X10795000Y31115000D03*
X5715000Y12065000D03*
X36195000Y56515000D03*
X20320000Y15875000D03*
X10795000Y18415000D03*
X3175000Y24765000D03*
X38735000Y73025000D03*
X45085000Y12065000D03*
X27305000Y22225000D03*
X10795000Y81915000D03*
X22225000Y43815000D03*
X28575000Y37465000D03*
X18415000Y81915000D03*
X3175000Y50165000D03*
X22225000Y31115000D03*
%TD*%
D15*
%TO.N,vbus*%
X32385000Y78105000D02*
X32385000Y76928100D01*
X32385000Y76928100D02*
X31909622Y76928100D01*
X29845000Y74863478D02*
X29845000Y25400000D01*
X31909622Y76928100D02*
X29845000Y74863478D01*
X29845000Y25400000D02*
X28575000Y24130000D01*
D16*
%TO.N,sda*%
X32385000Y29845000D02*
X33655000Y29845000D01*
X35560000Y18415000D02*
X34290000Y17145000D01*
X33655000Y29845000D02*
X35560000Y27940000D01*
X35560000Y27940000D02*
X35560000Y18415000D01*
X34290000Y17145000D02*
X32385000Y17145000D01*
D15*
%TO.N,adc_vref*%
X40593450Y60278450D02*
X35466900Y65405000D01*
X35466900Y65405000D02*
X32385000Y65405000D01*
X40593450Y60278450D02*
X39370000Y59055000D01*
X39370000Y59055000D02*
X39370000Y48260000D01*
X39370000Y48260000D02*
X42545000Y45085000D01*
X42545000Y60325000D02*
X40640000Y60325000D01*
X40640000Y60325000D02*
X40593450Y60278450D01*
%TO.N,vbus*%
X22225000Y6985000D02*
X29845000Y14605000D01*
X28575000Y24130000D02*
X28575000Y15875000D01*
X28575000Y15875000D02*
X29845000Y14605000D01*
X29845000Y14605000D02*
X32385000Y14605000D01*
X15935000Y22255000D02*
X17175000Y22255000D01*
X17175000Y22255000D02*
X19685000Y24765000D01*
X19685000Y24765000D02*
X27940000Y24765000D01*
X27940000Y24765000D02*
X28575000Y24130000D01*
%TD*%
%TA.AperFunction,Conductor*%
%TO.N,gnd*%
G36*
X31127424Y74982024D02*
G01*
X31183358Y74940153D01*
X31196473Y74918248D01*
X31210966Y74887168D01*
X31346501Y74693605D01*
X31346506Y74693598D01*
X31513597Y74526507D01*
X31513603Y74526502D01*
X31699594Y74396270D01*
X31743219Y74341693D01*
X31750413Y74272195D01*
X31718890Y74209840D01*
X31699595Y74193120D01*
X31513922Y74063110D01*
X31513920Y74063109D01*
X31346891Y73896080D01*
X31346886Y73896074D01*
X31211400Y73702580D01*
X31211399Y73702578D01*
X31111570Y73488493D01*
X31111567Y73488487D01*
X31054364Y73275001D01*
X31054364Y73275000D01*
X31951314Y73275000D01*
X31925507Y73234844D01*
X31885000Y73096889D01*
X31885000Y72953111D01*
X31925507Y72815156D01*
X31951314Y72775000D01*
X31054364Y72775000D01*
X31111567Y72561514D01*
X31111570Y72561508D01*
X31211399Y72347422D01*
X31346894Y72153918D01*
X31513917Y71986895D01*
X31699595Y71856881D01*
X31743219Y71802304D01*
X31750412Y71732805D01*
X31718890Y71670451D01*
X31699595Y71653731D01*
X31513594Y71523492D01*
X31346505Y71356403D01*
X31210965Y71162831D01*
X31210964Y71162829D01*
X31111098Y70948665D01*
X31111094Y70948656D01*
X31049938Y70720414D01*
X31049936Y70720404D01*
X31029341Y70485001D01*
X31029341Y70485000D01*
X31049936Y70249597D01*
X31049938Y70249587D01*
X31111094Y70021345D01*
X31111096Y70021341D01*
X31111097Y70021337D01*
X31210965Y69807170D01*
X31210967Y69807166D01*
X31346501Y69613605D01*
X31346506Y69613598D01*
X31513597Y69446507D01*
X31513603Y69446502D01*
X31699158Y69316575D01*
X31742783Y69261998D01*
X31749977Y69192500D01*
X31718454Y69130145D01*
X31699158Y69113425D01*
X31513597Y68983495D01*
X31346505Y68816403D01*
X31210965Y68622831D01*
X31210964Y68622829D01*
X31111098Y68408665D01*
X31111094Y68408656D01*
X31049938Y68180414D01*
X31049936Y68180404D01*
X31029341Y67945001D01*
X31029341Y67945000D01*
X31049936Y67709597D01*
X31049938Y67709587D01*
X31111094Y67481345D01*
X31111096Y67481341D01*
X31111097Y67481337D01*
X31210965Y67267170D01*
X31210967Y67267166D01*
X31346501Y67073605D01*
X31346506Y67073598D01*
X31513597Y66906507D01*
X31513603Y66906502D01*
X31699158Y66776575D01*
X31742783Y66721998D01*
X31749977Y66652500D01*
X31718454Y66590145D01*
X31699158Y66573425D01*
X31513597Y66443495D01*
X31346505Y66276403D01*
X31210965Y66082831D01*
X31210964Y66082829D01*
X31111098Y65868665D01*
X31111094Y65868656D01*
X31049938Y65640414D01*
X31049936Y65640404D01*
X31029341Y65405001D01*
X31029341Y65405000D01*
X31049936Y65169597D01*
X31049938Y65169587D01*
X31111094Y64941345D01*
X31111096Y64941341D01*
X31111097Y64941337D01*
X31180421Y64792672D01*
X31210965Y64727170D01*
X31210967Y64727166D01*
X31346501Y64533605D01*
X31346506Y64533598D01*
X31513597Y64366507D01*
X31513603Y64366502D01*
X31699158Y64236575D01*
X31742783Y64181998D01*
X31749977Y64112500D01*
X31718454Y64050145D01*
X31699158Y64033425D01*
X31513597Y63903495D01*
X31346505Y63736403D01*
X31210965Y63542831D01*
X31210964Y63542829D01*
X31111098Y63328665D01*
X31111094Y63328656D01*
X31049938Y63100414D01*
X31049936Y63100404D01*
X31029341Y62865001D01*
X31029341Y62865000D01*
X31049936Y62629597D01*
X31049938Y62629587D01*
X31111094Y62401345D01*
X31111096Y62401341D01*
X31111097Y62401337D01*
X31180539Y62252419D01*
X31210965Y62187170D01*
X31210967Y62187166D01*
X31319281Y62032479D01*
X31346505Y61993599D01*
X31513599Y61826505D01*
X31680342Y61709750D01*
X31699594Y61696270D01*
X31743219Y61641693D01*
X31750413Y61572195D01*
X31718890Y61509840D01*
X31699595Y61493120D01*
X31513922Y61363110D01*
X31513920Y61363109D01*
X31346891Y61196080D01*
X31346886Y61196074D01*
X31211400Y61002580D01*
X31211399Y61002578D01*
X31111570Y60788493D01*
X31111567Y60788487D01*
X31054364Y60575001D01*
X31054364Y60575000D01*
X31951314Y60575000D01*
X31925507Y60534844D01*
X31885000Y60396889D01*
X31885000Y60253111D01*
X31925507Y60115156D01*
X31951314Y60075000D01*
X31054364Y60075000D01*
X31111567Y59861514D01*
X31111570Y59861508D01*
X31211399Y59647422D01*
X31346894Y59453918D01*
X31513917Y59286895D01*
X31699595Y59156881D01*
X31743219Y59102304D01*
X31750412Y59032805D01*
X31718890Y58970451D01*
X31699595Y58953731D01*
X31513594Y58823492D01*
X31346505Y58656403D01*
X31210965Y58462831D01*
X31210964Y58462829D01*
X31111098Y58248665D01*
X31111094Y58248656D01*
X31049938Y58020414D01*
X31049936Y58020404D01*
X31029341Y57785001D01*
X31029341Y57785000D01*
X31049936Y57549597D01*
X31049938Y57549587D01*
X31111094Y57321345D01*
X31111096Y57321341D01*
X31111097Y57321337D01*
X31210965Y57107170D01*
X31210967Y57107166D01*
X31346501Y56913605D01*
X31346506Y56913598D01*
X31513597Y56746507D01*
X31513603Y56746502D01*
X31699158Y56616575D01*
X31742783Y56561998D01*
X31749977Y56492500D01*
X31718454Y56430145D01*
X31699158Y56413425D01*
X31513597Y56283495D01*
X31346505Y56116403D01*
X31210965Y55922831D01*
X31210964Y55922829D01*
X31111098Y55708665D01*
X31111094Y55708656D01*
X31049938Y55480414D01*
X31049936Y55480404D01*
X31029341Y55245001D01*
X31029341Y55245000D01*
X31049936Y55009597D01*
X31049938Y55009587D01*
X31111094Y54781345D01*
X31111096Y54781341D01*
X31111097Y54781337D01*
X31210965Y54567170D01*
X31210967Y54567166D01*
X31346501Y54373605D01*
X31346506Y54373598D01*
X31513597Y54206507D01*
X31513603Y54206502D01*
X31699158Y54076575D01*
X31742783Y54021998D01*
X31749977Y53952500D01*
X31718454Y53890145D01*
X31699158Y53873425D01*
X31513597Y53743495D01*
X31346505Y53576403D01*
X31210965Y53382831D01*
X31210964Y53382829D01*
X31111098Y53168665D01*
X31111094Y53168656D01*
X31049938Y52940414D01*
X31049936Y52940404D01*
X31029341Y52705001D01*
X31029341Y52705000D01*
X31049936Y52469597D01*
X31049938Y52469587D01*
X31111094Y52241345D01*
X31111096Y52241341D01*
X31111097Y52241337D01*
X31210965Y52027170D01*
X31210967Y52027166D01*
X31346501Y51833605D01*
X31346506Y51833598D01*
X31513597Y51666507D01*
X31513603Y51666502D01*
X31699158Y51536575D01*
X31742783Y51481998D01*
X31749977Y51412500D01*
X31718454Y51350145D01*
X31699158Y51333425D01*
X31513597Y51203495D01*
X31346505Y51036403D01*
X31210965Y50842831D01*
X31210964Y50842829D01*
X31111098Y50628665D01*
X31111094Y50628656D01*
X31049938Y50400414D01*
X31049936Y50400404D01*
X31029341Y50165001D01*
X31029341Y50165000D01*
X31049936Y49929597D01*
X31049938Y49929587D01*
X31111094Y49701345D01*
X31111096Y49701341D01*
X31111097Y49701337D01*
X31180421Y49552672D01*
X31210965Y49487170D01*
X31210967Y49487166D01*
X31319281Y49332479D01*
X31346505Y49293599D01*
X31513599Y49126505D01*
X31697154Y48997978D01*
X31699594Y48996270D01*
X31743219Y48941693D01*
X31750413Y48872195D01*
X31718890Y48809840D01*
X31699595Y48793120D01*
X31513922Y48663110D01*
X31513920Y48663109D01*
X31346891Y48496080D01*
X31346886Y48496074D01*
X31211400Y48302580D01*
X31211399Y48302578D01*
X31111570Y48088493D01*
X31111567Y48088487D01*
X31054364Y47875001D01*
X31054364Y47875000D01*
X31951314Y47875000D01*
X31925507Y47834844D01*
X31885000Y47696889D01*
X31885000Y47553111D01*
X31925507Y47415156D01*
X31951314Y47375000D01*
X31054364Y47375000D01*
X31111567Y47161514D01*
X31111570Y47161508D01*
X31211399Y46947422D01*
X31346894Y46753918D01*
X31513917Y46586895D01*
X31699595Y46456881D01*
X31743219Y46402304D01*
X31750412Y46332805D01*
X31718890Y46270451D01*
X31699595Y46253731D01*
X31513594Y46123492D01*
X31346505Y45956403D01*
X31210965Y45762831D01*
X31210964Y45762829D01*
X31111098Y45548665D01*
X31111094Y45548656D01*
X31049938Y45320414D01*
X31049936Y45320404D01*
X31029341Y45085001D01*
X31029341Y45085000D01*
X31049936Y44849597D01*
X31049938Y44849587D01*
X31111094Y44621345D01*
X31111096Y44621341D01*
X31111097Y44621337D01*
X31180539Y44472419D01*
X31210965Y44407170D01*
X31210967Y44407166D01*
X31346501Y44213605D01*
X31346506Y44213598D01*
X31513597Y44046507D01*
X31513603Y44046502D01*
X31699158Y43916575D01*
X31742783Y43861998D01*
X31749977Y43792500D01*
X31718454Y43730145D01*
X31699158Y43713425D01*
X31513597Y43583495D01*
X31346505Y43416403D01*
X31210965Y43222831D01*
X31210964Y43222829D01*
X31111098Y43008665D01*
X31111094Y43008656D01*
X31049938Y42780414D01*
X31049936Y42780404D01*
X31029341Y42545001D01*
X31029341Y42545000D01*
X31049936Y42309597D01*
X31049938Y42309587D01*
X31111094Y42081345D01*
X31111096Y42081341D01*
X31111097Y42081337D01*
X31210965Y41867170D01*
X31210967Y41867166D01*
X31346501Y41673605D01*
X31346506Y41673598D01*
X31513597Y41506507D01*
X31513603Y41506502D01*
X31699158Y41376575D01*
X31742783Y41321998D01*
X31749977Y41252500D01*
X31718454Y41190145D01*
X31699158Y41173425D01*
X31513597Y41043495D01*
X31346505Y40876403D01*
X31210965Y40682831D01*
X31210964Y40682829D01*
X31111098Y40468665D01*
X31111094Y40468656D01*
X31049938Y40240414D01*
X31049936Y40240404D01*
X31029341Y40005001D01*
X31029341Y40005000D01*
X31049936Y39769597D01*
X31049938Y39769587D01*
X31111094Y39541345D01*
X31111096Y39541341D01*
X31111097Y39541337D01*
X31210965Y39327170D01*
X31210967Y39327166D01*
X31346501Y39133605D01*
X31346506Y39133598D01*
X31513597Y38966507D01*
X31513603Y38966502D01*
X31699158Y38836575D01*
X31742783Y38781998D01*
X31749977Y38712500D01*
X31718454Y38650145D01*
X31699158Y38633425D01*
X31513597Y38503495D01*
X31346505Y38336403D01*
X31210965Y38142831D01*
X31210964Y38142829D01*
X31111098Y37928665D01*
X31111094Y37928656D01*
X31049938Y37700414D01*
X31049936Y37700404D01*
X31029341Y37465001D01*
X31029341Y37465000D01*
X31049936Y37229597D01*
X31049938Y37229587D01*
X31111094Y37001345D01*
X31111096Y37001341D01*
X31111097Y37001337D01*
X31210965Y36787170D01*
X31210967Y36787166D01*
X31346501Y36593605D01*
X31346506Y36593598D01*
X31513597Y36426507D01*
X31513603Y36426502D01*
X31699594Y36296270D01*
X31743219Y36241693D01*
X31750413Y36172195D01*
X31718890Y36109840D01*
X31699595Y36093120D01*
X31513922Y35963110D01*
X31513920Y35963109D01*
X31346891Y35796080D01*
X31346886Y35796074D01*
X31211400Y35602580D01*
X31211399Y35602578D01*
X31111570Y35388493D01*
X31111567Y35388487D01*
X31054364Y35175001D01*
X31054364Y35175000D01*
X31951314Y35175000D01*
X31925507Y35134844D01*
X31885000Y34996889D01*
X31885000Y34853111D01*
X31925507Y34715156D01*
X31951314Y34675000D01*
X31054364Y34675000D01*
X31111567Y34461514D01*
X31111570Y34461508D01*
X31211399Y34247422D01*
X31346894Y34053918D01*
X31513917Y33886895D01*
X31699595Y33756881D01*
X31743219Y33702304D01*
X31750412Y33632805D01*
X31718890Y33570451D01*
X31699595Y33553731D01*
X31513594Y33423492D01*
X31346505Y33256403D01*
X31210965Y33062831D01*
X31210964Y33062829D01*
X31111098Y32848665D01*
X31111094Y32848656D01*
X31049938Y32620414D01*
X31049936Y32620404D01*
X31029341Y32385001D01*
X31029341Y32385000D01*
X31049936Y32149597D01*
X31049938Y32149587D01*
X31111094Y31921345D01*
X31111096Y31921341D01*
X31111097Y31921337D01*
X31210965Y31707170D01*
X31210967Y31707166D01*
X31319281Y31552479D01*
X31346501Y31513604D01*
X31346506Y31513598D01*
X31468430Y31391674D01*
X31501915Y31330351D01*
X31496931Y31260659D01*
X31455059Y31204726D01*
X31424083Y31187811D01*
X31292669Y31138797D01*
X31292664Y31138794D01*
X31177455Y31052548D01*
X31177452Y31052545D01*
X31091206Y30937336D01*
X31091202Y30937329D01*
X31040908Y30802483D01*
X31034501Y30742884D01*
X31034500Y30742865D01*
X31034500Y28947130D01*
X31034501Y28947124D01*
X31040908Y28887517D01*
X31091202Y28752672D01*
X31091206Y28752665D01*
X31177452Y28637456D01*
X31177455Y28637453D01*
X31292664Y28551207D01*
X31292671Y28551203D01*
X31427517Y28500909D01*
X31427516Y28500909D01*
X31434444Y28500165D01*
X31487127Y28494500D01*
X33196114Y28494501D01*
X33199484Y28494409D01*
X33206879Y28494007D01*
X33206880Y28494008D01*
X33206881Y28494007D01*
X33208115Y28494117D01*
X33209726Y28494259D01*
X33215203Y28494501D01*
X33282871Y28494501D01*
X33282872Y28494501D01*
X33342483Y28500909D01*
X33378339Y28514284D01*
X33382549Y28515683D01*
X33410838Y28523963D01*
X33423814Y28530738D01*
X33430806Y28533853D01*
X33477331Y28551204D01*
X33502262Y28569869D01*
X33519182Y28580520D01*
X33538386Y28590543D01*
X33735685Y28732562D01*
X33801594Y28755750D01*
X33869577Y28739624D01*
X33895807Y28719603D01*
X34898181Y27717229D01*
X34931666Y27655906D01*
X34934500Y27629548D01*
X34934500Y18725454D01*
X34914815Y18658415D01*
X34898181Y18637773D01*
X34151330Y17890923D01*
X34090007Y17857438D01*
X34020315Y17862422D01*
X34009962Y17866829D01*
X33093099Y18307212D01*
X33041191Y18353981D01*
X33022809Y18421390D01*
X33043789Y18488035D01*
X33075662Y18520562D01*
X33256082Y18646895D01*
X33423105Y18813918D01*
X33558600Y19007422D01*
X33658429Y19221508D01*
X33658432Y19221514D01*
X33715636Y19435000D01*
X32818686Y19435000D01*
X32844493Y19475156D01*
X32885000Y19613111D01*
X32885000Y19756889D01*
X32844493Y19894844D01*
X32818686Y19935000D01*
X33715636Y19935000D01*
X33715635Y19935001D01*
X33658432Y20148487D01*
X33658429Y20148493D01*
X33558600Y20362578D01*
X33558599Y20362580D01*
X33423113Y20556074D01*
X33423108Y20556080D01*
X33256078Y20723110D01*
X33070405Y20853121D01*
X33026780Y20907698D01*
X33019588Y20977196D01*
X33051110Y21039551D01*
X33070406Y21056270D01*
X33256401Y21186505D01*
X33423495Y21353599D01*
X33559035Y21547170D01*
X33658903Y21761337D01*
X33720063Y21989592D01*
X33740659Y22225000D01*
X33720063Y22460408D01*
X33658903Y22688663D01*
X33559035Y22902829D01*
X33538028Y22932831D01*
X33423494Y23096403D01*
X33256402Y23263494D01*
X33256395Y23263499D01*
X33062834Y23399033D01*
X33062830Y23399035D01*
X32998495Y23429035D01*
X32848663Y23498903D01*
X32848659Y23498904D01*
X32848655Y23498906D01*
X32620413Y23560062D01*
X32620403Y23560064D01*
X32385001Y23580659D01*
X32384999Y23580659D01*
X32149596Y23560064D01*
X32149586Y23560062D01*
X31921344Y23498906D01*
X31921335Y23498902D01*
X31707171Y23399036D01*
X31707169Y23399035D01*
X31513597Y23263495D01*
X31346505Y23096403D01*
X31210965Y22902831D01*
X31210964Y22902829D01*
X31111098Y22688665D01*
X31111094Y22688656D01*
X31049938Y22460414D01*
X31049936Y22460404D01*
X31029341Y22225001D01*
X31029341Y22225000D01*
X31049936Y21989597D01*
X31049938Y21989587D01*
X31111094Y21761345D01*
X31111096Y21761341D01*
X31111097Y21761337D01*
X31174831Y21624660D01*
X31210965Y21547170D01*
X31210967Y21547166D01*
X31319281Y21392479D01*
X31346505Y21353599D01*
X31513599Y21186505D01*
X31680192Y21069855D01*
X31699594Y21056270D01*
X31743219Y21001693D01*
X31750413Y20932195D01*
X31718890Y20869840D01*
X31699595Y20853120D01*
X31513922Y20723110D01*
X31513920Y20723109D01*
X31346891Y20556080D01*
X31346886Y20556074D01*
X31211400Y20362580D01*
X31211399Y20362578D01*
X31111570Y20148493D01*
X31111567Y20148487D01*
X31054364Y19935001D01*
X31054364Y19935000D01*
X31951314Y19935000D01*
X31925507Y19894844D01*
X31885000Y19756889D01*
X31885000Y19613111D01*
X31925507Y19475156D01*
X31951314Y19435000D01*
X31054364Y19435000D01*
X31111567Y19221514D01*
X31111570Y19221508D01*
X31211399Y19007422D01*
X31346894Y18813918D01*
X31513917Y18646895D01*
X31699595Y18516881D01*
X31743219Y18462304D01*
X31750412Y18392805D01*
X31718890Y18330451D01*
X31699595Y18313731D01*
X31513594Y18183492D01*
X31346505Y18016403D01*
X31210965Y17822831D01*
X31210964Y17822829D01*
X31111098Y17608665D01*
X31111094Y17608656D01*
X31049938Y17380414D01*
X31049936Y17380404D01*
X31029341Y17145001D01*
X31029341Y17145000D01*
X31049936Y16909597D01*
X31049938Y16909587D01*
X31111094Y16681345D01*
X31111096Y16681341D01*
X31111097Y16681337D01*
X31157630Y16581547D01*
X31210965Y16467170D01*
X31210967Y16467166D01*
X31319281Y16312479D01*
X31325499Y16303598D01*
X31346501Y16273605D01*
X31346506Y16273598D01*
X31468430Y16151674D01*
X31501915Y16090351D01*
X31496931Y16020659D01*
X31455059Y15964726D01*
X31424081Y15947811D01*
X31393076Y15936247D01*
X31388272Y15934675D01*
X31363603Y15927703D01*
X31363597Y15927700D01*
X31348943Y15920222D01*
X31342426Y15917355D01*
X31292665Y15898795D01*
X31270557Y15882244D01*
X31252614Y15871063D01*
X31235442Y15862300D01*
X30726251Y15502871D01*
X30565359Y15389300D01*
X30549628Y15378196D01*
X30483507Y15355617D01*
X30478119Y15355500D01*
X30207230Y15355500D01*
X30140191Y15375185D01*
X30119549Y15391819D01*
X29361819Y16149549D01*
X29328334Y16210872D01*
X29325500Y16237230D01*
X29325500Y23767772D01*
X29345185Y23834811D01*
X29361814Y23855449D01*
X30330638Y24824273D01*
X30344267Y24836050D01*
X30363530Y24850390D01*
X30363532Y24850394D01*
X30363534Y24850394D01*
X30381663Y24872001D01*
X30397113Y24890415D01*
X30400767Y24894401D01*
X30406589Y24900222D01*
X30426928Y24925946D01*
X30432162Y24932185D01*
X30476302Y24984786D01*
X30476304Y24984791D01*
X30480272Y24990821D01*
X30480323Y24990788D01*
X30484369Y24997140D01*
X30484317Y24997172D01*
X30488109Y25003321D01*
X30488111Y25003323D01*
X30520569Y25072931D01*
X30555040Y25141567D01*
X30555043Y25141583D01*
X30557510Y25148356D01*
X30557568Y25148335D01*
X30560043Y25155454D01*
X30559985Y25155473D01*
X30562256Y25162328D01*
X30577784Y25237533D01*
X30582405Y25257028D01*
X30595500Y25312279D01*
X30595500Y25312280D01*
X30596339Y25319452D01*
X30596397Y25319446D01*
X30597164Y25326944D01*
X30597104Y25326949D01*
X30597733Y25334140D01*
X30595924Y25396306D01*
X30595500Y25410898D01*
X30595500Y74501250D01*
X30615185Y74568289D01*
X30631815Y74588927D01*
X30996412Y74953525D01*
X31057733Y74987008D01*
X31127424Y74982024D01*
G37*
%TD.AperFunction*%
%TA.AperFunction,Conductor*%
G36*
X46531619Y85089416D02*
G01*
X46663628Y85082497D01*
X46847027Y85072197D01*
X46853212Y85071535D01*
X47005647Y85047392D01*
X47168194Y85019774D01*
X47173811Y85018547D01*
X47326693Y84977582D01*
X47419122Y84950954D01*
X47481724Y84932918D01*
X47486759Y84931231D01*
X47636183Y84873873D01*
X47784007Y84812642D01*
X47788412Y84810612D01*
X47854180Y84777101D01*
X47931921Y84737489D01*
X48007428Y84695759D01*
X48071480Y84660359D01*
X48075215Y84658118D01*
X48149487Y84609885D01*
X48210872Y84570020D01*
X48298357Y84507947D01*
X48340764Y84477858D01*
X48343886Y84475490D01*
X48468748Y84374379D01*
X48471034Y84372433D01*
X48588721Y84267262D01*
X48591248Y84264872D01*
X48704870Y84151250D01*
X48707260Y84148723D01*
X48812431Y84031036D01*
X48814385Y84028740D01*
X48915480Y83903898D01*
X48917862Y83900757D01*
X49010019Y83770873D01*
X49063758Y83688125D01*
X49098106Y83635233D01*
X49100364Y83631469D01*
X49177488Y83491922D01*
X49250604Y83348425D01*
X49252643Y83344003D01*
X49313877Y83196171D01*
X49371221Y83046783D01*
X49372916Y83041727D01*
X49417579Y82886703D01*
X49458541Y82733829D01*
X49459778Y82728165D01*
X49487394Y82565631D01*
X49511530Y82413242D01*
X49512196Y82407015D01*
X49522509Y82223383D01*
X49529415Y82091623D01*
X49529500Y82088377D01*
X49529500Y3001624D01*
X49529415Y2998378D01*
X49522509Y2866618D01*
X49512196Y2682987D01*
X49511530Y2676760D01*
X49487394Y2524370D01*
X49459778Y2361837D01*
X49458541Y2356173D01*
X49417579Y2203298D01*
X49372916Y2048275D01*
X49371221Y2043219D01*
X49313877Y1893830D01*
X49252643Y1745999D01*
X49250604Y1741577D01*
X49177488Y1598079D01*
X49100364Y1458533D01*
X49098097Y1454754D01*
X49010019Y1319128D01*
X48917862Y1189245D01*
X48915480Y1186104D01*
X48814385Y1061262D01*
X48812431Y1058966D01*
X48707260Y941279D01*
X48704870Y938752D01*
X48591248Y825130D01*
X48588721Y822740D01*
X48471034Y717569D01*
X48468738Y715615D01*
X48343896Y614520D01*
X48340755Y612138D01*
X48210872Y519981D01*
X48075246Y431903D01*
X48071467Y429636D01*
X47931921Y352512D01*
X47788423Y279396D01*
X47784001Y277357D01*
X47636170Y216123D01*
X47486781Y158779D01*
X47481725Y157084D01*
X47326702Y112421D01*
X47173827Y71459D01*
X47168163Y70222D01*
X47005630Y42606D01*
X46853240Y18470D01*
X46847013Y17804D01*
X46663382Y7491D01*
X46531622Y585D01*
X46528376Y500D01*
X3001624Y500D01*
X2998378Y585D01*
X2866617Y7491D01*
X2682985Y17804D01*
X2676758Y18470D01*
X2524369Y42606D01*
X2361835Y70222D01*
X2356171Y71459D01*
X2203297Y112421D01*
X2048273Y157084D01*
X2043217Y158779D01*
X1893829Y216123D01*
X1745997Y277357D01*
X1741575Y279396D01*
X1598078Y352512D01*
X1458531Y429636D01*
X1454767Y431894D01*
X1401875Y466242D01*
X1319127Y519981D01*
X1189243Y612138D01*
X1186102Y614520D01*
X1061260Y715615D01*
X1058964Y717569D01*
X941277Y822740D01*
X938750Y825130D01*
X825128Y938752D01*
X822738Y941279D01*
X717567Y1058966D01*
X715613Y1061262D01*
X676848Y1109133D01*
X614510Y1186114D01*
X612136Y1189245D01*
X519980Y1319128D01*
X483775Y1374878D01*
X431882Y1454785D01*
X429641Y1458520D01*
X392831Y1525124D01*
X352511Y1598079D01*
X295681Y1709612D01*
X279388Y1741588D01*
X277358Y1745993D01*
X216122Y1893830D01*
X158769Y2043241D01*
X157082Y2048276D01*
X112420Y2203298D01*
X107316Y2222348D01*
X71453Y2356189D01*
X70226Y2361806D01*
X42601Y2524394D01*
X18465Y2676788D01*
X17803Y2682973D01*
X7490Y2866618D01*
X584Y2998380D01*
X500Y3001623D01*
X500Y4444998D01*
X1140153Y4444998D01*
X1159526Y4087686D01*
X1159527Y4087669D01*
X1217415Y3734569D01*
X1217421Y3734543D01*
X1313147Y3389768D01*
X1313149Y3389761D01*
X1445597Y3057341D01*
X1445606Y3057323D01*
X1613218Y2741173D01*
X1814033Y2444993D01*
X1941441Y2294997D01*
X1941442Y2294996D01*
X3147266Y3500820D01*
X3310130Y3310130D01*
X3500818Y3147268D01*
X2292255Y1938705D01*
X2292256Y1938704D01*
X2305485Y1926172D01*
X2305486Y1926171D01*
X2590367Y1709612D01*
X2590370Y1709610D01*
X2896990Y1525124D01*
X3221739Y1374878D01*
X3221744Y1374877D01*
X3560855Y1260617D01*
X3910339Y1183689D01*
X4266075Y1145001D01*
X4266085Y1145000D01*
X4623915Y1145000D01*
X4623924Y1145001D01*
X4979660Y1183689D01*
X5329144Y1260617D01*
X5668255Y1374877D01*
X5668260Y1374878D01*
X5993009Y1525124D01*
X6299629Y1709610D01*
X6299632Y1709612D01*
X6584504Y1926164D01*
X6597742Y1938706D01*
X5389180Y3147267D01*
X5579870Y3310130D01*
X5742733Y3500820D01*
X6948556Y2294997D01*
X7075964Y2444992D01*
X7075975Y2445006D01*
X7276781Y2741173D01*
X7444393Y3057323D01*
X7444402Y3057341D01*
X7576850Y3389761D01*
X7576852Y3389768D01*
X7672578Y3734543D01*
X7672584Y3734569D01*
X7730472Y4087669D01*
X7730473Y4087686D01*
X7749847Y4444998D01*
X41780153Y4444998D01*
X41799526Y4087686D01*
X41799527Y4087669D01*
X41857415Y3734569D01*
X41857421Y3734543D01*
X41953147Y3389768D01*
X41953149Y3389761D01*
X42085597Y3057341D01*
X42085606Y3057323D01*
X42253218Y2741173D01*
X42454033Y2444993D01*
X42581441Y2294997D01*
X42581442Y2294996D01*
X43787266Y3500820D01*
X43950130Y3310130D01*
X44140818Y3147268D01*
X42932255Y1938705D01*
X42932256Y1938704D01*
X42945485Y1926172D01*
X42945486Y1926171D01*
X43230367Y1709612D01*
X43230370Y1709610D01*
X43536990Y1525124D01*
X43861739Y1374878D01*
X43861744Y1374877D01*
X44200855Y1260617D01*
X44550339Y1183689D01*
X44906075Y1145001D01*
X44906085Y1145000D01*
X45263915Y1145000D01*
X45263924Y1145001D01*
X45619660Y1183689D01*
X45969144Y1260617D01*
X46308255Y1374877D01*
X46308260Y1374878D01*
X46633009Y1525124D01*
X46939629Y1709610D01*
X46939632Y1709612D01*
X47224504Y1926164D01*
X47237742Y1938706D01*
X46029180Y3147267D01*
X46219870Y3310130D01*
X46382733Y3500820D01*
X47588556Y2294997D01*
X47715964Y2444992D01*
X47715975Y2445006D01*
X47916781Y2741173D01*
X48084393Y3057323D01*
X48084402Y3057341D01*
X48216850Y3389761D01*
X48216852Y3389768D01*
X48312578Y3734543D01*
X48312584Y3734569D01*
X48370472Y4087669D01*
X48370473Y4087686D01*
X48389847Y4444998D01*
X48389847Y4445003D01*
X48370473Y4802315D01*
X48370472Y4802332D01*
X48312584Y5155432D01*
X48312578Y5155458D01*
X48216852Y5500233D01*
X48216850Y5500240D01*
X48084402Y5832660D01*
X48084393Y5832678D01*
X47916781Y6148828D01*
X47715966Y6445008D01*
X47588557Y6595005D01*
X47588556Y6595006D01*
X46382732Y5389182D01*
X46219870Y5579870D01*
X46029180Y5742734D01*
X47237743Y6951297D01*
X47237742Y6951298D01*
X47224514Y6963829D01*
X47224513Y6963830D01*
X46939632Y7180389D01*
X46939629Y7180391D01*
X46633009Y7364877D01*
X46308260Y7515123D01*
X46308255Y7515124D01*
X45969144Y7629384D01*
X45619660Y7706312D01*
X45263924Y7745000D01*
X44906075Y7745000D01*
X44550339Y7706312D01*
X44200855Y7629384D01*
X43861744Y7515124D01*
X43861739Y7515123D01*
X43536990Y7364877D01*
X43230370Y7180391D01*
X43230367Y7180389D01*
X42945491Y6963834D01*
X42932256Y6951297D01*
X42932255Y6951297D01*
X44140819Y5742734D01*
X43950130Y5579870D01*
X43787266Y5389182D01*
X42581442Y6595006D01*
X42581441Y6595005D01*
X42454040Y6445017D01*
X42454033Y6445007D01*
X42253218Y6148828D01*
X42085606Y5832678D01*
X42085597Y5832660D01*
X41953149Y5500240D01*
X41953147Y5500233D01*
X41857421Y5155458D01*
X41857415Y5155432D01*
X41799527Y4802332D01*
X41799526Y4802315D01*
X41780153Y4445003D01*
X41780153Y4444998D01*
X7749847Y4444998D01*
X7749847Y4445003D01*
X7730473Y4802315D01*
X7730472Y4802332D01*
X7672584Y5155432D01*
X7672578Y5155458D01*
X7576852Y5500233D01*
X7576850Y5500240D01*
X7444402Y5832660D01*
X7444393Y5832678D01*
X7276781Y6148828D01*
X7075966Y6445008D01*
X6948557Y6595005D01*
X6948556Y6595006D01*
X5742732Y5389182D01*
X5579870Y5579870D01*
X5389180Y5742734D01*
X6597743Y6951297D01*
X6597742Y6951298D01*
X6584514Y6963829D01*
X6584513Y6963830D01*
X6299632Y7180389D01*
X6299629Y7180391D01*
X5993009Y7364877D01*
X5668260Y7515123D01*
X5668255Y7515124D01*
X5329144Y7629384D01*
X4979660Y7706312D01*
X4623924Y7745000D01*
X4266075Y7745000D01*
X3910339Y7706312D01*
X3560855Y7629384D01*
X3221744Y7515124D01*
X3221739Y7515123D01*
X2896990Y7364877D01*
X2590370Y7180391D01*
X2590367Y7180389D01*
X2305491Y6963834D01*
X2292256Y6951297D01*
X2292255Y6951297D01*
X3500819Y5742734D01*
X3310130Y5579870D01*
X3147266Y5389182D01*
X1941442Y6595006D01*
X1941441Y6595005D01*
X1814040Y6445017D01*
X1814033Y6445007D01*
X1613218Y6148828D01*
X1445606Y5832678D01*
X1445597Y5832660D01*
X1313149Y5500240D01*
X1313147Y5500233D01*
X1217421Y5155458D01*
X1217415Y5155432D01*
X1159527Y4802332D01*
X1159526Y4802315D01*
X1140153Y4445003D01*
X1140153Y4444998D01*
X500Y4444998D01*
X500Y17175000D01*
X14579341Y17175000D01*
X14599936Y16939597D01*
X14599938Y16939587D01*
X14661094Y16711345D01*
X14661096Y16711341D01*
X14661097Y16711337D01*
X14735133Y16552567D01*
X14760965Y16497170D01*
X14760967Y16497166D01*
X14869281Y16342479D01*
X14896505Y16303599D01*
X15063599Y16136505D01*
X15230439Y16019682D01*
X15249594Y16006270D01*
X15293219Y15951693D01*
X15300413Y15882195D01*
X15268890Y15819840D01*
X15249595Y15803120D01*
X15063922Y15673110D01*
X15063920Y15673109D01*
X14896891Y15506080D01*
X14896886Y15506074D01*
X14761400Y15312580D01*
X14761399Y15312578D01*
X14661570Y15098493D01*
X14661567Y15098487D01*
X14604364Y14885001D01*
X14604364Y14885000D01*
X15501314Y14885000D01*
X15475507Y14844844D01*
X15435000Y14706889D01*
X15435000Y14563111D01*
X15475507Y14425156D01*
X15501314Y14385000D01*
X14604364Y14385000D01*
X14661567Y14171514D01*
X14661570Y14171508D01*
X14761399Y13957422D01*
X14896894Y13763918D01*
X15063917Y13596895D01*
X15257421Y13461400D01*
X15471507Y13361571D01*
X15471516Y13361567D01*
X15685000Y13304366D01*
X15685000Y14199499D01*
X15792685Y14150320D01*
X15899237Y14135000D01*
X15970763Y14135000D01*
X16077315Y14150320D01*
X16185000Y14199499D01*
X16185000Y13304367D01*
X16398483Y13361567D01*
X16398492Y13361571D01*
X16612578Y13461400D01*
X16806082Y13596895D01*
X16973105Y13763918D01*
X17108600Y13957422D01*
X17208429Y14171508D01*
X17208432Y14171514D01*
X17265636Y14385000D01*
X16368686Y14385000D01*
X16394493Y14425156D01*
X16435000Y14563111D01*
X16435000Y14706889D01*
X16394493Y14844844D01*
X16368686Y14885000D01*
X17265636Y14885000D01*
X17265635Y14885001D01*
X17208432Y15098487D01*
X17208429Y15098493D01*
X17108600Y15312578D01*
X17108599Y15312580D01*
X16973113Y15506074D01*
X16973108Y15506080D01*
X16806078Y15673110D01*
X16620405Y15803121D01*
X16576780Y15857698D01*
X16569588Y15927196D01*
X16601110Y15989551D01*
X16620406Y16006270D01*
X16806401Y16136505D01*
X16973495Y16303599D01*
X17109035Y16497170D01*
X17208903Y16711337D01*
X17270063Y16939592D01*
X17290659Y17175000D01*
X22199341Y17175000D01*
X22219936Y16939597D01*
X22219938Y16939587D01*
X22281094Y16711345D01*
X22281096Y16711341D01*
X22281097Y16711337D01*
X22355133Y16552567D01*
X22380965Y16497170D01*
X22380967Y16497166D01*
X22489281Y16342479D01*
X22516501Y16303604D01*
X22516506Y16303598D01*
X22638430Y16181674D01*
X22671915Y16120351D01*
X22666931Y16050659D01*
X22625059Y15994726D01*
X22594083Y15977811D01*
X22462669Y15928797D01*
X22462664Y15928794D01*
X22347455Y15842548D01*
X22347452Y15842545D01*
X22261206Y15727336D01*
X22261202Y15727329D01*
X22210908Y15592483D01*
X22204501Y15532884D01*
X22204501Y15532877D01*
X22204500Y15532865D01*
X22204500Y13737130D01*
X22204501Y13737124D01*
X22210908Y13677517D01*
X22261202Y13542672D01*
X22261206Y13542665D01*
X22347452Y13427456D01*
X22347455Y13427453D01*
X22462664Y13341207D01*
X22462671Y13341203D01*
X22597517Y13290909D01*
X22597516Y13290909D01*
X22604444Y13290165D01*
X22657127Y13284500D01*
X24452872Y13284501D01*
X24512483Y13290909D01*
X24647331Y13341204D01*
X24762546Y13427454D01*
X24848796Y13542669D01*
X24899091Y13677517D01*
X24905500Y13737127D01*
X24905499Y15532872D01*
X24899091Y15592483D01*
X24885629Y15628576D01*
X24848797Y15727329D01*
X24848793Y15727336D01*
X24762547Y15842545D01*
X24762544Y15842548D01*
X24647335Y15928794D01*
X24647328Y15928798D01*
X24515917Y15977811D01*
X24459983Y16019682D01*
X24435566Y16085147D01*
X24450418Y16153420D01*
X24471563Y16181668D01*
X24593495Y16303599D01*
X24729035Y16497170D01*
X24828903Y16711337D01*
X24890063Y16939592D01*
X24910659Y17175000D01*
X24890063Y17410408D01*
X24828903Y17638663D01*
X24729035Y17852829D01*
X24719233Y17866829D01*
X24593494Y18046403D01*
X24426402Y18213494D01*
X24426396Y18213499D01*
X24240842Y18343425D01*
X24197217Y18398002D01*
X24190023Y18467500D01*
X24221546Y18529855D01*
X24240842Y18546575D01*
X24371086Y18637773D01*
X24426401Y18676505D01*
X24593495Y18843599D01*
X24729035Y19037170D01*
X24828903Y19251337D01*
X24890063Y19479592D01*
X24910659Y19715000D01*
X24890063Y19950408D01*
X24828903Y20178663D01*
X24729035Y20392829D01*
X24614731Y20556074D01*
X24593494Y20586403D01*
X24426402Y20753494D01*
X24426396Y20753499D01*
X24240842Y20883425D01*
X24197217Y20938002D01*
X24190023Y21007500D01*
X24221546Y21069855D01*
X24240842Y21086575D01*
X24263026Y21102109D01*
X24426401Y21216505D01*
X24593495Y21383599D01*
X24729035Y21577170D01*
X24828903Y21791337D01*
X24890063Y22019592D01*
X24910659Y22255000D01*
X24890063Y22490408D01*
X24828903Y22718663D01*
X24729035Y22932829D01*
X24614502Y23096401D01*
X24593494Y23126403D01*
X24426402Y23293494D01*
X24426395Y23293499D01*
X24232834Y23429033D01*
X24232830Y23429035D01*
X24177450Y23454859D01*
X24018663Y23528903D01*
X24018659Y23528904D01*
X24018655Y23528906D01*
X23790413Y23590062D01*
X23790403Y23590064D01*
X23555001Y23610659D01*
X23554999Y23610659D01*
X23319596Y23590064D01*
X23319586Y23590062D01*
X23091344Y23528906D01*
X23091337Y23528904D01*
X23091337Y23528903D01*
X23082536Y23524799D01*
X22877171Y23429036D01*
X22877169Y23429035D01*
X22683597Y23293495D01*
X22516505Y23126403D01*
X22380965Y22932831D01*
X22380964Y22932829D01*
X22281098Y22718665D01*
X22281094Y22718656D01*
X22219938Y22490414D01*
X22219936Y22490404D01*
X22199341Y22255001D01*
X22199341Y22255000D01*
X22219936Y22019597D01*
X22219938Y22019587D01*
X22281094Y21791345D01*
X22281096Y21791341D01*
X22281097Y21791337D01*
X22354784Y21633316D01*
X22380965Y21577170D01*
X22380967Y21577166D01*
X22516501Y21383605D01*
X22516506Y21383598D01*
X22683597Y21216507D01*
X22683603Y21216502D01*
X22869158Y21086575D01*
X22912783Y21031998D01*
X22919977Y20962500D01*
X22888454Y20900145D01*
X22869158Y20883425D01*
X22683597Y20753495D01*
X22516505Y20586403D01*
X22380965Y20392831D01*
X22380964Y20392829D01*
X22281098Y20178665D01*
X22281094Y20178656D01*
X22219938Y19950414D01*
X22219936Y19950404D01*
X22199341Y19715001D01*
X22199341Y19715000D01*
X22219936Y19479597D01*
X22219938Y19479587D01*
X22281094Y19251345D01*
X22281096Y19251341D01*
X22281097Y19251337D01*
X22295004Y19221514D01*
X22380965Y19037170D01*
X22380967Y19037166D01*
X22516501Y18843605D01*
X22516506Y18843598D01*
X22683597Y18676507D01*
X22683603Y18676502D01*
X22869158Y18546575D01*
X22912783Y18491998D01*
X22919977Y18422500D01*
X22888454Y18360145D01*
X22869158Y18343425D01*
X22683597Y18213495D01*
X22516505Y18046403D01*
X22380965Y17852831D01*
X22380964Y17852829D01*
X22281098Y17638665D01*
X22281094Y17638656D01*
X22219938Y17410414D01*
X22219936Y17410404D01*
X22199341Y17175001D01*
X22199341Y17175000D01*
X17290659Y17175000D01*
X17270063Y17410408D01*
X17208903Y17638663D01*
X17109035Y17852829D01*
X17099233Y17866829D01*
X16973494Y18046403D01*
X16806402Y18213494D01*
X16806396Y18213499D01*
X16620842Y18343425D01*
X16577217Y18398002D01*
X16570023Y18467500D01*
X16601546Y18529855D01*
X16620842Y18546575D01*
X16751086Y18637773D01*
X16806401Y18676505D01*
X16973495Y18843599D01*
X17109035Y19037170D01*
X17208903Y19251337D01*
X17270063Y19479592D01*
X17290659Y19715000D01*
X17270063Y19950408D01*
X17208903Y20178663D01*
X17109035Y20392829D01*
X16973495Y20586401D01*
X16851567Y20708329D01*
X16818084Y20769649D01*
X16823068Y20839341D01*
X16864939Y20895275D01*
X16895915Y20912190D01*
X17027331Y20961204D01*
X17142546Y21047454D01*
X17228796Y21162669D01*
X17279091Y21297517D01*
X17279092Y21297528D01*
X17280873Y21305061D01*
X17283451Y21304452D01*
X17305286Y21357210D01*
X17316827Y21369683D01*
X17587500Y21624666D01*
X17607414Y21639936D01*
X17643656Y21662288D01*
X17643660Y21662292D01*
X17649324Y21666770D01*
X17649362Y21666722D01*
X17655200Y21671478D01*
X17655161Y21671525D01*
X17660696Y21676170D01*
X17713385Y21732018D01*
X17907191Y21925824D01*
X18017768Y22029990D01*
X18020852Y22032987D01*
X18039472Y22053424D01*
X18062117Y22078276D01*
X18062121Y22078283D01*
X18063688Y22080399D01*
X18075671Y22094305D01*
X19959549Y23978181D01*
X20020872Y24011666D01*
X20047230Y24014500D01*
X27577770Y24014500D01*
X27644809Y23994815D01*
X27665446Y23978186D01*
X27788182Y23855451D01*
X27821666Y23794130D01*
X27824500Y23767771D01*
X27824500Y15938706D01*
X27823191Y15920737D01*
X27819710Y15896975D01*
X27824264Y15844936D01*
X27824500Y15839530D01*
X27824500Y15831291D01*
X27828306Y15798726D01*
X27835000Y15722209D01*
X27836461Y15715133D01*
X27836403Y15715122D01*
X27838034Y15707763D01*
X27838092Y15707776D01*
X27839757Y15700750D01*
X27866025Y15628576D01*
X27890185Y15555669D01*
X27893236Y15549126D01*
X27893182Y15549102D01*
X27896470Y15542312D01*
X27896521Y15542337D01*
X27899761Y15535887D01*
X27899762Y15535886D01*
X27899763Y15535883D01*
X27921475Y15502871D01*
X27941965Y15471717D01*
X27982287Y15406345D01*
X27986766Y15400681D01*
X27986719Y15400644D01*
X27991482Y15394798D01*
X27991528Y15394836D01*
X27996173Y15389300D01*
X28052018Y15336614D01*
X28695950Y14692682D01*
X28729435Y14631359D01*
X28724451Y14561668D01*
X28695950Y14517320D01*
X22989085Y8810455D01*
X22951295Y8784615D01*
X21706817Y8237686D01*
X21706815Y8237685D01*
X21706807Y8237681D01*
X21696331Y8232465D01*
X21663446Y8216091D01*
X21658421Y8212958D01*
X21658295Y8213160D01*
X21641733Y8203131D01*
X21547168Y8159034D01*
X21353600Y8023497D01*
X21231284Y7901181D01*
X21169961Y7867697D01*
X21100269Y7872681D01*
X21044336Y7914553D01*
X21027421Y7945530D01*
X20978354Y8077087D01*
X20978350Y8077094D01*
X20892190Y8192188D01*
X20892187Y8192191D01*
X20777093Y8278351D01*
X20777086Y8278355D01*
X20642379Y8328597D01*
X20642372Y8328599D01*
X20582844Y8335000D01*
X19935000Y8335000D01*
X19935000Y7420502D01*
X19827315Y7469680D01*
X19720763Y7485000D01*
X19649237Y7485000D01*
X19542685Y7469680D01*
X19435000Y7420502D01*
X19435000Y8335000D01*
X18787155Y8335000D01*
X18727627Y8328599D01*
X18727620Y8328597D01*
X18592913Y8278355D01*
X18592906Y8278351D01*
X18477812Y8192191D01*
X18477809Y8192188D01*
X18391649Y8077094D01*
X18391645Y8077087D01*
X18341403Y7942380D01*
X18341401Y7942373D01*
X18335000Y7882845D01*
X18335000Y7235000D01*
X19251314Y7235000D01*
X19225507Y7194844D01*
X19185000Y7056889D01*
X19185000Y6913111D01*
X19225507Y6775156D01*
X19251314Y6735000D01*
X18335000Y6735000D01*
X18335000Y6087156D01*
X18341401Y6027628D01*
X18341403Y6027621D01*
X18391645Y5892914D01*
X18391649Y5892907D01*
X18477809Y5777813D01*
X18477812Y5777810D01*
X18592906Y5691650D01*
X18592913Y5691646D01*
X18727620Y5641404D01*
X18727627Y5641402D01*
X18787155Y5635001D01*
X18787172Y5635000D01*
X19435000Y5635000D01*
X19435000Y6549499D01*
X19542685Y6500320D01*
X19649237Y6485000D01*
X19720763Y6485000D01*
X19827315Y6500320D01*
X19935000Y6549499D01*
X19935000Y5635000D01*
X20582828Y5635000D01*
X20582844Y5635001D01*
X20642372Y5641402D01*
X20642379Y5641404D01*
X20777086Y5691646D01*
X20777093Y5691650D01*
X20892187Y5777810D01*
X20892190Y5777813D01*
X20978350Y5892907D01*
X20978354Y5892914D01*
X21027422Y6024471D01*
X21069293Y6080405D01*
X21134757Y6104822D01*
X21203030Y6089970D01*
X21231285Y6068819D01*
X21353599Y5946505D01*
X21430135Y5892914D01*
X21547165Y5810968D01*
X21547167Y5810967D01*
X21547170Y5810965D01*
X21761337Y5711097D01*
X21989592Y5649937D01*
X22160319Y5635000D01*
X22224999Y5629341D01*
X22225000Y5629341D01*
X22225001Y5629341D01*
X22289681Y5635000D01*
X22460408Y5649937D01*
X22688663Y5711097D01*
X22902830Y5810965D01*
X23096401Y5946505D01*
X23263495Y6113599D01*
X23393425Y6299158D01*
X23448002Y6342783D01*
X23517500Y6349977D01*
X23579855Y6318454D01*
X23596575Y6299158D01*
X23726500Y6113605D01*
X23726505Y6113599D01*
X23893599Y5946505D01*
X23970135Y5892914D01*
X24087165Y5810968D01*
X24087167Y5810967D01*
X24087170Y5810965D01*
X24301337Y5711097D01*
X24529592Y5649937D01*
X24700319Y5635000D01*
X24764999Y5629341D01*
X24765000Y5629341D01*
X24765001Y5629341D01*
X24829681Y5635000D01*
X25000408Y5649937D01*
X25228663Y5711097D01*
X25442830Y5810965D01*
X25636401Y5946505D01*
X25803495Y6113599D01*
X25933425Y6299158D01*
X25988002Y6342783D01*
X26057500Y6349977D01*
X26119855Y6318454D01*
X26136575Y6299158D01*
X26266500Y6113605D01*
X26266505Y6113599D01*
X26433599Y5946505D01*
X26510135Y5892914D01*
X26627165Y5810968D01*
X26627167Y5810967D01*
X26627170Y5810965D01*
X26841337Y5711097D01*
X27069592Y5649937D01*
X27240319Y5635000D01*
X27304999Y5629341D01*
X27305000Y5629341D01*
X27305001Y5629341D01*
X27369681Y5635000D01*
X27540408Y5649937D01*
X27768663Y5711097D01*
X27982830Y5810965D01*
X28176401Y5946505D01*
X28343495Y6113599D01*
X28479035Y6307170D01*
X28578903Y6521337D01*
X28640063Y6749592D01*
X28660659Y6985000D01*
X28640063Y7220408D01*
X28578903Y7448663D01*
X28479035Y7662829D01*
X28473425Y7670842D01*
X28343494Y7856403D01*
X28176402Y8023494D01*
X28176395Y8023499D01*
X27982834Y8159033D01*
X27982830Y8159035D01*
X27888266Y8203131D01*
X27768663Y8258903D01*
X27768659Y8258904D01*
X27768655Y8258906D01*
X27540413Y8320062D01*
X27540403Y8320064D01*
X27305001Y8340659D01*
X27304999Y8340659D01*
X27069596Y8320064D01*
X27069586Y8320062D01*
X26841344Y8258906D01*
X26841335Y8258902D01*
X26627171Y8159036D01*
X26627169Y8159035D01*
X26433597Y8023495D01*
X26266505Y7856403D01*
X26136575Y7670842D01*
X26081998Y7627217D01*
X26012500Y7620023D01*
X25950145Y7651546D01*
X25933425Y7670842D01*
X25803494Y7856403D01*
X25636402Y8023494D01*
X25636395Y8023499D01*
X25442834Y8159033D01*
X25442830Y8159035D01*
X25348266Y8203131D01*
X25228663Y8258903D01*
X25228659Y8258904D01*
X25228655Y8258906D01*
X25000413Y8320062D01*
X25000403Y8320064D01*
X24916824Y8327376D01*
X24851755Y8352829D01*
X24810777Y8409420D01*
X24806899Y8479182D01*
X24839949Y8538583D01*
X30119548Y13818181D01*
X30180871Y13851666D01*
X30207229Y13854500D01*
X30478121Y13854500D01*
X30545160Y13834815D01*
X30549622Y13831810D01*
X31235439Y13347703D01*
X31244381Y13341534D01*
X31255563Y13336128D01*
X31275900Y13323758D01*
X31292669Y13311204D01*
X31353122Y13288657D01*
X31358424Y13286393D01*
X31373914Y13278903D01*
X31380651Y13276763D01*
X31380653Y13276763D01*
X31380654Y13276762D01*
X31390274Y13274375D01*
X31396978Y13272300D01*
X31427517Y13260909D01*
X31487127Y13254500D01*
X33282872Y13254501D01*
X33342483Y13260909D01*
X33477331Y13311204D01*
X33592546Y13397454D01*
X33678796Y13512669D01*
X33729091Y13647517D01*
X33735500Y13707127D01*
X33735499Y15502872D01*
X33729824Y15555666D01*
X33729091Y15562484D01*
X33678797Y15697329D01*
X33678793Y15697336D01*
X33592547Y15812545D01*
X33592544Y15812548D01*
X33477335Y15898794D01*
X33477326Y15898799D01*
X33435592Y15914364D01*
X33379658Y15956234D01*
X33355240Y16021698D01*
X33370091Y16089972D01*
X33419496Y16139377D01*
X33425221Y16142314D01*
X34180654Y16505159D01*
X34230444Y16517321D01*
X34230663Y16517328D01*
X34230667Y16517327D01*
X34297717Y16519435D01*
X34299815Y16519500D01*
X34329347Y16519500D01*
X34329350Y16519500D01*
X34336228Y16520370D01*
X34342041Y16520828D01*
X34388627Y16522291D01*
X34407869Y16527883D01*
X34426912Y16531826D01*
X34446792Y16534336D01*
X34490122Y16551493D01*
X34495646Y16553383D01*
X34499396Y16554473D01*
X34540390Y16566382D01*
X34557629Y16576578D01*
X34575103Y16585138D01*
X34593727Y16592512D01*
X34593727Y16592513D01*
X34593732Y16592514D01*
X34631449Y16619918D01*
X34636305Y16623108D01*
X34676420Y16646830D01*
X34690589Y16661001D01*
X34705379Y16673632D01*
X34721587Y16685406D01*
X34751299Y16721324D01*
X34755212Y16725624D01*
X35943787Y17914198D01*
X35956042Y17924014D01*
X35955859Y17924236D01*
X35961866Y17929208D01*
X35961877Y17929214D01*
X35992775Y17962118D01*
X36009227Y17979636D01*
X36019671Y17990082D01*
X36030120Y18000529D01*
X36034379Y18006022D01*
X36038152Y18010439D01*
X36070062Y18044418D01*
X36079713Y18061976D01*
X36090396Y18078239D01*
X36102673Y18094064D01*
X36121185Y18136847D01*
X36123738Y18142059D01*
X36146197Y18182908D01*
X36151180Y18202320D01*
X36157481Y18220720D01*
X36165437Y18239104D01*
X36172729Y18285148D01*
X36173906Y18290829D01*
X36185500Y18335981D01*
X36185500Y18356017D01*
X36187027Y18375418D01*
X36190160Y18395196D01*
X36185775Y18441585D01*
X36185500Y18447423D01*
X36185500Y27857258D01*
X36187224Y27872878D01*
X36186939Y27872904D01*
X36187671Y27880660D01*
X36187673Y27880667D01*
X36185500Y27949815D01*
X36185500Y27979350D01*
X36184631Y27986228D01*
X36184172Y27992057D01*
X36182709Y28038628D01*
X36177122Y28057856D01*
X36173174Y28076916D01*
X36170663Y28096796D01*
X36153512Y28140113D01*
X36151619Y28145642D01*
X36138618Y28190391D01*
X36138616Y28190394D01*
X36128423Y28207629D01*
X36119861Y28225106D01*
X36112487Y28243730D01*
X36112486Y28243732D01*
X36085079Y28281455D01*
X36081888Y28286314D01*
X36058172Y28326417D01*
X36058165Y28326426D01*
X36044006Y28340585D01*
X36031368Y28355381D01*
X36019594Y28371587D01*
X35983688Y28401291D01*
X35979376Y28405214D01*
X34440438Y29944152D01*
X34424526Y29963683D01*
X34418601Y29972690D01*
X33931459Y30522829D01*
X33761570Y30714688D01*
X33731865Y30777928D01*
X33731116Y30783642D01*
X33729091Y30802484D01*
X33678797Y30937329D01*
X33678793Y30937336D01*
X33592547Y31052545D01*
X33592544Y31052548D01*
X33477335Y31138794D01*
X33477328Y31138798D01*
X33345917Y31187811D01*
X33289983Y31229682D01*
X33265566Y31295147D01*
X33280418Y31363420D01*
X33301563Y31391668D01*
X33423495Y31513599D01*
X33559035Y31707170D01*
X33658903Y31921337D01*
X33720063Y32149592D01*
X33740659Y32385000D01*
X33720063Y32620408D01*
X33658903Y32848663D01*
X33559035Y33062829D01*
X33423495Y33256401D01*
X33423494Y33256403D01*
X33256402Y33423494D01*
X33256401Y33423495D01*
X33070405Y33553731D01*
X33026781Y33608308D01*
X33019588Y33677807D01*
X33051110Y33740161D01*
X33070405Y33756881D01*
X33256082Y33886895D01*
X33423105Y34053918D01*
X33558600Y34247422D01*
X33658429Y34461508D01*
X33658432Y34461514D01*
X33715636Y34675000D01*
X32818686Y34675000D01*
X32844493Y34715156D01*
X32885000Y34853111D01*
X32885000Y34996889D01*
X32844493Y35134844D01*
X32818686Y35175000D01*
X33715636Y35175000D01*
X33715635Y35175001D01*
X33658432Y35388487D01*
X33658429Y35388493D01*
X33558600Y35602578D01*
X33558599Y35602580D01*
X33423113Y35796074D01*
X33423108Y35796080D01*
X33256078Y35963110D01*
X33070405Y36093121D01*
X33026780Y36147698D01*
X33019588Y36217196D01*
X33051110Y36279551D01*
X33070406Y36296270D01*
X33256401Y36426505D01*
X33423495Y36593599D01*
X33559035Y36787170D01*
X33658903Y37001337D01*
X33720063Y37229592D01*
X33740659Y37465000D01*
X33720063Y37700408D01*
X33658903Y37928663D01*
X33559035Y38142829D01*
X33423495Y38336401D01*
X33423494Y38336403D01*
X33256402Y38503494D01*
X33256396Y38503499D01*
X33070842Y38633425D01*
X33027217Y38688002D01*
X33020023Y38757500D01*
X33051546Y38819855D01*
X33070842Y38836575D01*
X33093026Y38852109D01*
X33256401Y38966505D01*
X33423495Y39133599D01*
X33559035Y39327170D01*
X33658903Y39541337D01*
X33720063Y39769592D01*
X33740659Y40005000D01*
X33720063Y40240408D01*
X33658903Y40468663D01*
X33559035Y40682829D01*
X33423495Y40876401D01*
X33423494Y40876403D01*
X33256402Y41043494D01*
X33256396Y41043499D01*
X33070842Y41173425D01*
X33027217Y41228002D01*
X33020023Y41297500D01*
X33051546Y41359855D01*
X33070842Y41376575D01*
X33093026Y41392109D01*
X33256401Y41506505D01*
X33423495Y41673599D01*
X33559035Y41867170D01*
X33658903Y42081337D01*
X33720063Y42309592D01*
X33740659Y42545000D01*
X33720063Y42780408D01*
X33658903Y43008663D01*
X33559035Y43222829D01*
X33423495Y43416401D01*
X33423494Y43416403D01*
X33256402Y43583494D01*
X33256396Y43583499D01*
X33070842Y43713425D01*
X33027217Y43768002D01*
X33020023Y43837500D01*
X33051546Y43899855D01*
X33070842Y43916575D01*
X33224229Y44023978D01*
X33256401Y44046505D01*
X33423495Y44213599D01*
X33559035Y44407170D01*
X33658903Y44621337D01*
X33720063Y44849592D01*
X33740659Y45085000D01*
X33720063Y45320408D01*
X33658903Y45548663D01*
X33559035Y45762829D01*
X33482228Y45872522D01*
X33423494Y45956403D01*
X33256402Y46123494D01*
X33256401Y46123495D01*
X33070405Y46253731D01*
X33026781Y46308308D01*
X33019588Y46377807D01*
X33051110Y46440161D01*
X33070405Y46456881D01*
X33256082Y46586895D01*
X33423105Y46753918D01*
X33558600Y46947422D01*
X33658429Y47161508D01*
X33658432Y47161514D01*
X33715636Y47375000D01*
X32818686Y47375000D01*
X32844493Y47415156D01*
X32885000Y47553111D01*
X32885000Y47696889D01*
X32844493Y47834844D01*
X32818686Y47875000D01*
X33715636Y47875000D01*
X33715635Y47875001D01*
X33658432Y48088487D01*
X33658429Y48088493D01*
X33558600Y48302578D01*
X33558599Y48302580D01*
X33423113Y48496074D01*
X33423108Y48496080D01*
X33256078Y48663110D01*
X33070405Y48793121D01*
X33026780Y48847698D01*
X33019588Y48917196D01*
X33051110Y48979551D01*
X33070406Y48996270D01*
X33256401Y49126505D01*
X33423495Y49293599D01*
X33559035Y49487170D01*
X33658903Y49701337D01*
X33720063Y49929592D01*
X33740659Y50165000D01*
X33720063Y50400408D01*
X33658903Y50628663D01*
X33559035Y50842829D01*
X33423495Y51036401D01*
X33423494Y51036403D01*
X33256402Y51203494D01*
X33256396Y51203499D01*
X33070842Y51333425D01*
X33027217Y51388002D01*
X33020023Y51457500D01*
X33051546Y51519855D01*
X33070842Y51536575D01*
X33093026Y51552109D01*
X33256401Y51666505D01*
X33423495Y51833599D01*
X33559035Y52027170D01*
X33658903Y52241337D01*
X33720063Y52469592D01*
X33740659Y52705000D01*
X33720063Y52940408D01*
X33658903Y53168663D01*
X33559035Y53382829D01*
X33423495Y53576401D01*
X33423494Y53576403D01*
X33256402Y53743494D01*
X33256396Y53743499D01*
X33070842Y53873425D01*
X33027217Y53928002D01*
X33020023Y53997500D01*
X33051546Y54059855D01*
X33070842Y54076575D01*
X33093026Y54092109D01*
X33256401Y54206505D01*
X33423495Y54373599D01*
X33559035Y54567170D01*
X33658903Y54781337D01*
X33720063Y55009592D01*
X33740659Y55245000D01*
X33720063Y55480408D01*
X33658903Y55708663D01*
X33559035Y55922829D01*
X33423495Y56116401D01*
X33423494Y56116403D01*
X33256402Y56283494D01*
X33256396Y56283499D01*
X33070842Y56413425D01*
X33027217Y56468002D01*
X33020023Y56537500D01*
X33051546Y56599855D01*
X33070842Y56616575D01*
X33093026Y56632109D01*
X33256401Y56746505D01*
X33423495Y56913599D01*
X33559035Y57107170D01*
X33658903Y57321337D01*
X33720063Y57549592D01*
X33740659Y57785000D01*
X33720063Y58020408D01*
X33658903Y58248663D01*
X33559035Y58462829D01*
X33423495Y58656401D01*
X33423494Y58656403D01*
X33256402Y58823494D01*
X33256401Y58823495D01*
X33070405Y58953731D01*
X33026781Y59008308D01*
X33019588Y59077807D01*
X33051110Y59140161D01*
X33070405Y59156881D01*
X33256082Y59286895D01*
X33423105Y59453918D01*
X33558600Y59647422D01*
X33658429Y59861508D01*
X33658432Y59861514D01*
X33715636Y60075000D01*
X32818686Y60075000D01*
X32844493Y60115156D01*
X32885000Y60253111D01*
X32885000Y60396889D01*
X32844493Y60534844D01*
X32818686Y60575000D01*
X33715636Y60575000D01*
X33715635Y60575001D01*
X33658432Y60788487D01*
X33658429Y60788493D01*
X33558600Y61002578D01*
X33558599Y61002580D01*
X33423113Y61196074D01*
X33423108Y61196080D01*
X33256078Y61363110D01*
X33070405Y61493121D01*
X33026780Y61547698D01*
X33019588Y61617196D01*
X33051110Y61679551D01*
X33070406Y61696270D01*
X33072420Y61697680D01*
X33256401Y61826505D01*
X33423495Y61993599D01*
X33559035Y62187170D01*
X33658903Y62401337D01*
X33720063Y62629592D01*
X33740659Y62865000D01*
X33720063Y63100408D01*
X33658903Y63328663D01*
X33559035Y63542829D01*
X33482228Y63652522D01*
X33423494Y63736403D01*
X33256402Y63903494D01*
X33256396Y63903499D01*
X33091716Y64018809D01*
X33048091Y64073386D01*
X33040897Y64142884D01*
X33072420Y64205239D01*
X33117846Y64235933D01*
X34171080Y64646049D01*
X34216073Y64654500D01*
X35104670Y64654500D01*
X35171709Y64634815D01*
X35192351Y64618181D01*
X39444400Y60366132D01*
X39477885Y60304809D01*
X39472901Y60235117D01*
X39444400Y60190770D01*
X38884358Y59630728D01*
X38870729Y59618949D01*
X38851468Y59604610D01*
X38817898Y59564603D01*
X38814253Y59560624D01*
X38808409Y59554778D01*
X38788059Y59529041D01*
X38738695Y59470211D01*
X38734729Y59464181D01*
X38734682Y59464212D01*
X38730630Y59457853D01*
X38730679Y59457823D01*
X38726889Y59451679D01*
X38694424Y59382059D01*
X38659960Y59313434D01*
X38657488Y59306643D01*
X38657432Y59306664D01*
X38654960Y59299550D01*
X38655015Y59299531D01*
X38652742Y59292673D01*
X38644975Y59255054D01*
X38637207Y59217435D01*
X38630089Y59187401D01*
X38619498Y59142714D01*
X38618661Y59135546D01*
X38618601Y59135553D01*
X38617835Y59128055D01*
X38617895Y59128049D01*
X38617265Y59120860D01*
X38619500Y59044084D01*
X38619500Y48323706D01*
X38618191Y48305737D01*
X38614710Y48281975D01*
X38619264Y48229936D01*
X38619500Y48224530D01*
X38619500Y48216291D01*
X38623306Y48183726D01*
X38630000Y48107209D01*
X38631461Y48100133D01*
X38631403Y48100122D01*
X38633034Y48092763D01*
X38633092Y48092776D01*
X38634757Y48085750D01*
X38661025Y48013576D01*
X38685185Y47940669D01*
X38688236Y47934126D01*
X38688182Y47934102D01*
X38691470Y47927312D01*
X38691521Y47927337D01*
X38694761Y47920887D01*
X38694762Y47920886D01*
X38694763Y47920883D01*
X38724940Y47875001D01*
X38736965Y47856717D01*
X38777287Y47791345D01*
X38781766Y47785681D01*
X38781719Y47785644D01*
X38786482Y47779798D01*
X38786528Y47779836D01*
X38791173Y47774300D01*
X38847017Y47721615D01*
X40909184Y45659448D01*
X40933539Y45624908D01*
X41418318Y44602872D01*
X41437424Y44566489D01*
X41440520Y44561716D01*
X41440049Y44561412D01*
X41450088Y44545097D01*
X41483980Y44472417D01*
X41606472Y44297479D01*
X41757478Y44146473D01*
X41757481Y44146471D01*
X41932419Y44023979D01*
X41932421Y44023978D01*
X41932420Y44023978D01*
X41996936Y43993894D01*
X42125970Y43933724D01*
X42332253Y43878451D01*
X42484215Y43865156D01*
X42544998Y43859838D01*
X42545000Y43859838D01*
X42545002Y43859838D01*
X42598186Y43864492D01*
X42757747Y43878451D01*
X42964030Y43933724D01*
X43157581Y44023979D01*
X43332519Y44146471D01*
X43483529Y44297481D01*
X43606021Y44472419D01*
X43696276Y44665970D01*
X43751549Y44872253D01*
X43770162Y45085000D01*
X43751549Y45297747D01*
X43696276Y45504030D01*
X43606021Y45697581D01*
X43483529Y45872519D01*
X43483527Y45872522D01*
X43332521Y46023528D01*
X43157583Y46146020D01*
X43060043Y46191505D01*
X43043909Y46200551D01*
X43027123Y46211685D01*
X42955129Y46245834D01*
X42902994Y46292350D01*
X42884284Y46359668D01*
X42904939Y46426415D01*
X42958401Y46471399D01*
X42962988Y46473239D01*
X42964025Y46473723D01*
X42964030Y46473724D01*
X43157581Y46563979D01*
X43332519Y46686471D01*
X43483529Y46837481D01*
X43606021Y47012419D01*
X43696276Y47205970D01*
X43751549Y47412253D01*
X43770162Y47625000D01*
X43751549Y47837747D01*
X43696276Y48044030D01*
X43606021Y48237581D01*
X43483529Y48412519D01*
X43483527Y48412522D01*
X43332521Y48563528D01*
X43157578Y48686023D01*
X43157579Y48686023D01*
X43028547Y48746191D01*
X42964030Y48776276D01*
X42964023Y48776278D01*
X42958936Y48778130D01*
X42959606Y48779972D01*
X42907293Y48811886D01*
X42876789Y48874745D01*
X42885111Y48944117D01*
X42929617Y48997978D01*
X42959097Y49011426D01*
X42958764Y49012342D01*
X42963859Y49014198D01*
X43157330Y49104414D01*
X43157336Y49104418D01*
X43213031Y49143416D01*
X42589401Y49767047D01*
X42670148Y49779835D01*
X42783045Y49837359D01*
X42872641Y49926955D01*
X42930165Y50039852D01*
X42942953Y50120600D01*
X43566584Y49496969D01*
X43605582Y49552664D01*
X43605586Y49552670D01*
X43695802Y49746141D01*
X43695805Y49746147D01*
X43751054Y49952338D01*
X43751055Y49952346D01*
X43769660Y50164998D01*
X43769660Y50165003D01*
X43751055Y50377655D01*
X43751054Y50377663D01*
X43695805Y50583854D01*
X43695802Y50583860D01*
X43605586Y50777330D01*
X43566583Y50833033D01*
X42942953Y50209402D01*
X42930165Y50290148D01*
X42872641Y50403045D01*
X42783045Y50492641D01*
X42670148Y50550165D01*
X42589401Y50562954D01*
X43213031Y51186584D01*
X43213030Y51186585D01*
X43157330Y51225587D01*
X43157328Y51225588D01*
X42963859Y51315803D01*
X42963853Y51315806D01*
X42757662Y51371055D01*
X42757654Y51371056D01*
X42545002Y51389660D01*
X42544998Y51389660D01*
X42332345Y51371056D01*
X42332337Y51371055D01*
X42126146Y51315806D01*
X42126140Y51315803D01*
X41932667Y51225586D01*
X41876967Y51186586D01*
X42500599Y50562954D01*
X42419852Y50550165D01*
X42306955Y50492641D01*
X42217359Y50403045D01*
X42159835Y50290148D01*
X42147046Y50209401D01*
X41523414Y50833033D01*
X41484414Y50777333D01*
X41394197Y50583860D01*
X41394194Y50583854D01*
X41338945Y50377663D01*
X41338944Y50377655D01*
X41320340Y50165003D01*
X41320340Y50164998D01*
X41338944Y49952346D01*
X41338945Y49952338D01*
X41394194Y49746147D01*
X41394197Y49746141D01*
X41484412Y49552672D01*
X41484413Y49552670D01*
X41523415Y49496970D01*
X41523416Y49496969D01*
X42147046Y50120600D01*
X42159835Y50039852D01*
X42217359Y49926955D01*
X42306955Y49837359D01*
X42419852Y49779835D01*
X42500599Y49767047D01*
X41876967Y49143417D01*
X41932670Y49104414D01*
X42126140Y49014198D01*
X42131236Y49012342D01*
X42130542Y49010437D01*
X42182647Y48978698D01*
X42213196Y48915861D01*
X42204922Y48846482D01*
X42160454Y48792591D01*
X42130744Y48779009D01*
X42131064Y48778130D01*
X42125972Y48776277D01*
X42125970Y48776276D01*
X42125968Y48776275D01*
X41932421Y48686023D01*
X41757478Y48563528D01*
X41606472Y48412522D01*
X41483977Y48237579D01*
X41413176Y48085745D01*
X41396486Y48049952D01*
X41393725Y48044032D01*
X41393721Y48044023D01*
X41338452Y47837753D01*
X41338450Y47837743D01*
X41322622Y47656828D01*
X41297169Y47591760D01*
X41240578Y47550781D01*
X41170816Y47546903D01*
X41111413Y47579955D01*
X40156819Y48534549D01*
X40123334Y48595872D01*
X40120500Y48622230D01*
X40120500Y58692771D01*
X40140185Y58759810D01*
X40156819Y58780452D01*
X40519088Y59142721D01*
X40909261Y59532895D01*
X40970582Y59566378D01*
X41038584Y59562010D01*
X42089229Y59187401D01*
X42089232Y59187400D01*
X42107551Y59181698D01*
X42115309Y59178697D01*
X42125970Y59173724D01*
X42332253Y59118451D01*
X42484215Y59105156D01*
X42544998Y59099838D01*
X42545000Y59099838D01*
X42545002Y59099838D01*
X42598186Y59104492D01*
X42757747Y59118451D01*
X42964030Y59173724D01*
X43157581Y59263979D01*
X43332519Y59386471D01*
X43483529Y59537481D01*
X43606021Y59712419D01*
X43696276Y59905970D01*
X43751549Y60112253D01*
X43770162Y60325000D01*
X43751549Y60537747D01*
X43696276Y60744030D01*
X43606021Y60937581D01*
X43483529Y61112519D01*
X43483527Y61112522D01*
X43332521Y61263528D01*
X43157578Y61386023D01*
X43157579Y61386023D01*
X42993362Y61462598D01*
X42964030Y61476276D01*
X42964023Y61476278D01*
X42958936Y61478130D01*
X42959709Y61480254D01*
X42908305Y61511576D01*
X42877766Y61574419D01*
X42886050Y61643796D01*
X42930528Y61697680D01*
X42959315Y61710828D01*
X42958936Y61711870D01*
X42964013Y61713720D01*
X42964030Y61713724D01*
X43157581Y61803979D01*
X43332519Y61926471D01*
X43483529Y62077481D01*
X43606021Y62252419D01*
X43696276Y62445970D01*
X43751549Y62652253D01*
X43770162Y62865000D01*
X43751549Y63077747D01*
X43696276Y63284030D01*
X43606021Y63477581D01*
X43483529Y63652519D01*
X43483527Y63652522D01*
X43332521Y63803528D01*
X43157578Y63926023D01*
X43157579Y63926023D01*
X43028547Y63986191D01*
X42964030Y64016276D01*
X42964023Y64016278D01*
X42958936Y64018130D01*
X42959606Y64019972D01*
X42907293Y64051886D01*
X42876789Y64114745D01*
X42885111Y64184117D01*
X42929617Y64237978D01*
X42959097Y64251426D01*
X42958764Y64252342D01*
X42963859Y64254198D01*
X43157330Y64344414D01*
X43157336Y64344418D01*
X43213031Y64383416D01*
X42589401Y65007047D01*
X42670148Y65019835D01*
X42783045Y65077359D01*
X42872641Y65166955D01*
X42930165Y65279852D01*
X42942953Y65360600D01*
X43566584Y64736969D01*
X43605582Y64792664D01*
X43605586Y64792670D01*
X43695802Y64986141D01*
X43695805Y64986147D01*
X43751054Y65192338D01*
X43751055Y65192346D01*
X43769660Y65404998D01*
X43769660Y65405003D01*
X43751055Y65617655D01*
X43751054Y65617663D01*
X43695805Y65823854D01*
X43695802Y65823860D01*
X43605586Y66017330D01*
X43566583Y66073033D01*
X42942953Y65449402D01*
X42930165Y65530148D01*
X42872641Y65643045D01*
X42783045Y65732641D01*
X42670148Y65790165D01*
X42589401Y65802954D01*
X43213031Y66426584D01*
X43213030Y66426585D01*
X43157330Y66465587D01*
X43157328Y66465588D01*
X42963859Y66555803D01*
X42963853Y66555806D01*
X42757662Y66611055D01*
X42757654Y66611056D01*
X42545002Y66629660D01*
X42544998Y66629660D01*
X42332345Y66611056D01*
X42332337Y66611055D01*
X42126146Y66555806D01*
X42126140Y66555803D01*
X41932667Y66465586D01*
X41876967Y66426586D01*
X42500599Y65802954D01*
X42419852Y65790165D01*
X42306955Y65732641D01*
X42217359Y65643045D01*
X42159835Y65530148D01*
X42147046Y65449401D01*
X41523414Y66073033D01*
X41484414Y66017333D01*
X41394197Y65823860D01*
X41394194Y65823854D01*
X41338945Y65617663D01*
X41338944Y65617655D01*
X41320340Y65405003D01*
X41320340Y65404998D01*
X41338944Y65192346D01*
X41338945Y65192338D01*
X41394194Y64986147D01*
X41394197Y64986141D01*
X41484412Y64792672D01*
X41484413Y64792670D01*
X41523415Y64736970D01*
X41523416Y64736969D01*
X42147046Y65360600D01*
X42159835Y65279852D01*
X42217359Y65166955D01*
X42306955Y65077359D01*
X42419852Y65019835D01*
X42500599Y65007047D01*
X41876967Y64383417D01*
X41932670Y64344414D01*
X42126140Y64254198D01*
X42131236Y64252342D01*
X42130542Y64250437D01*
X42182647Y64218698D01*
X42213196Y64155861D01*
X42204922Y64086482D01*
X42160454Y64032591D01*
X42130744Y64019009D01*
X42131064Y64018130D01*
X42125972Y64016277D01*
X42125970Y64016276D01*
X42125968Y64016275D01*
X41932421Y63926023D01*
X41757478Y63803528D01*
X41606472Y63652522D01*
X41483977Y63477579D01*
X41393725Y63284032D01*
X41393721Y63284023D01*
X41338452Y63077753D01*
X41338450Y63077742D01*
X41319838Y62865002D01*
X41319838Y62864999D01*
X41338450Y62652259D01*
X41338452Y62652248D01*
X41393721Y62445978D01*
X41393723Y62445974D01*
X41393724Y62445970D01*
X41436171Y62354942D01*
X41483977Y62252422D01*
X41606472Y62077479D01*
X41757478Y61926473D01*
X41757481Y61926471D01*
X41932419Y61803979D01*
X41932421Y61803978D01*
X41932420Y61803978D01*
X41996936Y61773894D01*
X42125970Y61713724D01*
X42125983Y61713721D01*
X42131064Y61711870D01*
X42130292Y61709750D01*
X42181710Y61678406D01*
X42212237Y61615558D01*
X42203939Y61546183D01*
X42159452Y61492307D01*
X42130677Y61479163D01*
X42131054Y61478127D01*
X42125968Y61476277D01*
X42115677Y61471478D01*
X42093392Y61464139D01*
X42093491Y61463784D01*
X42089234Y61462602D01*
X42089232Y61462601D01*
X42089229Y61462600D01*
X42089222Y61462598D01*
X41023750Y61082702D01*
X40982106Y61075500D01*
X40909129Y61075500D01*
X40842090Y61095185D01*
X40821448Y61111819D01*
X36042629Y65890639D01*
X36030849Y65904270D01*
X36023382Y65914299D01*
X36016512Y65923528D01*
X36016510Y65923530D01*
X35976487Y65957114D01*
X35972512Y65960756D01*
X35969590Y65963678D01*
X35966680Y65966589D01*
X35940940Y65986941D01*
X35882109Y66036306D01*
X35876080Y66040271D01*
X35876112Y66040320D01*
X35869753Y66044372D01*
X35869722Y66044321D01*
X35863580Y66048109D01*
X35863578Y66048110D01*
X35863577Y66048111D01*
X35810133Y66073033D01*
X35793958Y66080576D01*
X35759794Y66097733D01*
X35725333Y66115040D01*
X35725331Y66115041D01*
X35725330Y66115041D01*
X35718545Y66117511D01*
X35718565Y66117567D01*
X35711449Y66120041D01*
X35711431Y66119985D01*
X35704571Y66122258D01*
X35676741Y66128004D01*
X35629334Y66137793D01*
X35580372Y66149397D01*
X35554619Y66155501D01*
X35547447Y66156339D01*
X35547453Y66156399D01*
X35539955Y66157165D01*
X35539950Y66157105D01*
X35532760Y66157735D01*
X35455983Y66155500D01*
X34216076Y66155500D01*
X34171083Y66163951D01*
X33117846Y66574068D01*
X33062518Y66616736D01*
X33039041Y66682544D01*
X33054869Y66750597D01*
X33091714Y66791190D01*
X33256401Y66906505D01*
X33423495Y67073599D01*
X33559035Y67267170D01*
X33658903Y67481337D01*
X33720063Y67709592D01*
X33740659Y67945000D01*
X33720063Y68180408D01*
X33658903Y68408663D01*
X33559035Y68622829D01*
X33423495Y68816401D01*
X33423494Y68816403D01*
X33256402Y68983494D01*
X33256396Y68983499D01*
X33070842Y69113425D01*
X33027217Y69168002D01*
X33020023Y69237500D01*
X33051546Y69299855D01*
X33070842Y69316575D01*
X33093026Y69332109D01*
X33256401Y69446505D01*
X33423495Y69613599D01*
X33559035Y69807170D01*
X33658903Y70021337D01*
X33720063Y70249592D01*
X33740659Y70485000D01*
X33720063Y70720408D01*
X33658903Y70948663D01*
X33559035Y71162829D01*
X33423495Y71356401D01*
X33423494Y71356403D01*
X33256402Y71523494D01*
X33256401Y71523495D01*
X33070405Y71653731D01*
X33026781Y71708308D01*
X33019588Y71777807D01*
X33051110Y71840161D01*
X33070405Y71856881D01*
X33256082Y71986895D01*
X33423105Y72153918D01*
X33558600Y72347422D01*
X33658429Y72561508D01*
X33658432Y72561514D01*
X33715636Y72775000D01*
X32818686Y72775000D01*
X32844493Y72815156D01*
X32885000Y72953111D01*
X32885000Y73096889D01*
X32844493Y73234844D01*
X32818686Y73275000D01*
X33715636Y73275000D01*
X33715635Y73275001D01*
X33658432Y73488487D01*
X33658429Y73488493D01*
X33558600Y73702578D01*
X33558599Y73702580D01*
X33423113Y73896074D01*
X33423108Y73896080D01*
X33256078Y74063110D01*
X33070405Y74193121D01*
X33026780Y74247698D01*
X33019588Y74317196D01*
X33051110Y74379551D01*
X33070406Y74396270D01*
X33220333Y74501250D01*
X33256401Y74526505D01*
X33423495Y74693599D01*
X33559035Y74887170D01*
X33658903Y75101337D01*
X33720063Y75329592D01*
X33740659Y75565000D01*
X33720063Y75800408D01*
X33658903Y76028663D01*
X33559035Y76242829D01*
X33423495Y76436401D01*
X33423494Y76436403D01*
X33256404Y76603492D01*
X33256401Y76603495D01*
X33256396Y76603499D01*
X33256393Y76603501D01*
X33176668Y76659326D01*
X33133043Y76713903D01*
X33125851Y76783401D01*
X33129002Y76796463D01*
X33129130Y76796890D01*
X33129781Y76808082D01*
X33132917Y76829483D01*
X33135499Y76840375D01*
X33135500Y76840379D01*
X33135500Y76904459D01*
X33135605Y76908065D01*
X33136599Y76925131D01*
X33160147Y76990913D01*
X33189266Y77019497D01*
X33256401Y77066505D01*
X33287498Y77097604D01*
X33292005Y77101689D01*
X33302501Y77110299D01*
X33309858Y77116750D01*
X33369934Y77179319D01*
X33369936Y77179323D01*
X33370334Y77179737D01*
X33375182Y77185288D01*
X33423495Y77233599D01*
X33559035Y77427170D01*
X33658903Y77641337D01*
X33720063Y77869592D01*
X33740659Y78105000D01*
X33720063Y78340408D01*
X33658903Y78568663D01*
X33559035Y78782829D01*
X33423495Y78976401D01*
X33423494Y78976403D01*
X33256402Y79143494D01*
X33256395Y79143499D01*
X33062834Y79279033D01*
X33062830Y79279035D01*
X33062828Y79279036D01*
X32848663Y79378903D01*
X32848659Y79378904D01*
X32848655Y79378906D01*
X32620413Y79440062D01*
X32620403Y79440064D01*
X32385001Y79460659D01*
X32384999Y79460659D01*
X32149596Y79440064D01*
X32149586Y79440062D01*
X31921344Y79378906D01*
X31921335Y79378902D01*
X31707171Y79279036D01*
X31707169Y79279035D01*
X31513597Y79143495D01*
X31346505Y78976403D01*
X31210965Y78782831D01*
X31210964Y78782829D01*
X31111098Y78568665D01*
X31111094Y78568656D01*
X31049938Y78340414D01*
X31049936Y78340404D01*
X31029341Y78105001D01*
X31029341Y78105000D01*
X31049936Y77869597D01*
X31049938Y77869587D01*
X31111094Y77641345D01*
X31111097Y77641337D01*
X31144347Y77570031D01*
X31146749Y77564097D01*
X31156145Y77536921D01*
X31194554Y77462363D01*
X31210966Y77427168D01*
X31213303Y77423120D01*
X31229773Y77355220D01*
X31206920Y77289193D01*
X31193595Y77273442D01*
X29359358Y75439206D01*
X29345729Y75427427D01*
X29326468Y75413088D01*
X29292898Y75373081D01*
X29289253Y75369102D01*
X29283409Y75363256D01*
X29263059Y75337519D01*
X29213695Y75278689D01*
X29209729Y75272659D01*
X29209682Y75272690D01*
X29205630Y75266331D01*
X29205679Y75266301D01*
X29201889Y75260157D01*
X29169424Y75190537D01*
X29134960Y75121912D01*
X29132488Y75115121D01*
X29132432Y75115142D01*
X29129960Y75108028D01*
X29130015Y75108009D01*
X29127742Y75101151D01*
X29123116Y75078744D01*
X29112207Y75025913D01*
X29099001Y74970194D01*
X29094498Y74951192D01*
X29093661Y74944024D01*
X29093601Y74944031D01*
X29092835Y74936533D01*
X29092895Y74936527D01*
X29092265Y74929338D01*
X29094500Y74852562D01*
X29094500Y25762231D01*
X29074815Y25695192D01*
X29058181Y25674550D01*
X28666072Y25282441D01*
X28604749Y25248956D01*
X28535057Y25253940D01*
X28495968Y25279872D01*
X28495142Y25278887D01*
X28489612Y25283528D01*
X28489610Y25283530D01*
X28449587Y25317114D01*
X28445612Y25320756D01*
X28442690Y25323678D01*
X28439780Y25326589D01*
X28414040Y25346941D01*
X28355209Y25396306D01*
X28349180Y25400271D01*
X28349212Y25400320D01*
X28342853Y25404372D01*
X28342822Y25404321D01*
X28336680Y25408109D01*
X28336678Y25408110D01*
X28336677Y25408111D01*
X28297474Y25426392D01*
X28267058Y25440576D01*
X28232894Y25457733D01*
X28198433Y25475040D01*
X28198431Y25475041D01*
X28198430Y25475041D01*
X28191645Y25477511D01*
X28191665Y25477567D01*
X28184549Y25480041D01*
X28184531Y25479985D01*
X28177671Y25482258D01*
X28149841Y25488004D01*
X28102434Y25497793D01*
X28053472Y25509397D01*
X28027719Y25515501D01*
X28020547Y25516339D01*
X28020553Y25516399D01*
X28013055Y25517165D01*
X28013050Y25517105D01*
X28005860Y25517735D01*
X27929083Y25515500D01*
X19748705Y25515500D01*
X19730735Y25516809D01*
X19706972Y25520290D01*
X19662512Y25516399D01*
X19654931Y25515736D01*
X19649530Y25515500D01*
X19641289Y25515500D01*
X19619579Y25512963D01*
X19608724Y25511694D01*
X19593419Y25510355D01*
X19532199Y25504999D01*
X19525132Y25503540D01*
X19525120Y25503596D01*
X19517763Y25501965D01*
X19517777Y25501908D01*
X19510743Y25500241D01*
X19438575Y25473975D01*
X19365665Y25449815D01*
X19359126Y25446765D01*
X19359101Y25446817D01*
X19352308Y25443529D01*
X19352334Y25443478D01*
X19345884Y25440239D01*
X19281716Y25398036D01*
X19216347Y25357715D01*
X19210677Y25353231D01*
X19210641Y25353277D01*
X19204798Y25348516D01*
X19204835Y25348472D01*
X19199310Y25343836D01*
X19199304Y25343831D01*
X19199304Y25343830D01*
X19175733Y25318847D01*
X19146614Y25287983D01*
X17329957Y23471327D01*
X17268634Y23437842D01*
X17198942Y23442826D01*
X17174979Y23454859D01*
X17067282Y23524448D01*
X17066742Y23524796D01*
X17066737Y23524799D01*
X17059842Y23527958D01*
X17037188Y23541417D01*
X17036741Y23541752D01*
X17027331Y23548796D01*
X17027329Y23548797D01*
X17027326Y23548799D01*
X16959651Y23574040D01*
X16955495Y23575764D01*
X16935935Y23584725D01*
X16935931Y23584726D01*
X16929597Y23586594D01*
X16929586Y23586597D01*
X16923448Y23588053D01*
X16916083Y23590290D01*
X16892480Y23599092D01*
X16832883Y23605499D01*
X16832881Y23605500D01*
X16832873Y23605500D01*
X16832864Y23605500D01*
X15037129Y23605500D01*
X15037123Y23605499D01*
X14977516Y23599092D01*
X14842671Y23548798D01*
X14842664Y23548794D01*
X14727455Y23462548D01*
X14727452Y23462545D01*
X14641206Y23347336D01*
X14641202Y23347329D01*
X14590908Y23212483D01*
X14584501Y23152884D01*
X14584500Y23152865D01*
X14584500Y21357130D01*
X14584501Y21357124D01*
X14590908Y21297517D01*
X14641202Y21162672D01*
X14641206Y21162665D01*
X14727452Y21047456D01*
X14727455Y21047453D01*
X14842664Y20961207D01*
X14842671Y20961203D01*
X14974081Y20912190D01*
X15030015Y20870319D01*
X15054432Y20804855D01*
X15039580Y20736582D01*
X15018430Y20708327D01*
X14896503Y20586400D01*
X14760965Y20392831D01*
X14760964Y20392829D01*
X14661098Y20178665D01*
X14661094Y20178656D01*
X14599938Y19950414D01*
X14599936Y19950404D01*
X14579341Y19715001D01*
X14579341Y19715000D01*
X14599936Y19479597D01*
X14599938Y19479587D01*
X14661094Y19251345D01*
X14661096Y19251341D01*
X14661097Y19251337D01*
X14675004Y19221514D01*
X14760965Y19037170D01*
X14760967Y19037166D01*
X14896501Y18843605D01*
X14896506Y18843598D01*
X15063597Y18676507D01*
X15063603Y18676502D01*
X15249158Y18546575D01*
X15292783Y18491998D01*
X15299977Y18422500D01*
X15268454Y18360145D01*
X15249158Y18343425D01*
X15063597Y18213495D01*
X14896505Y18046403D01*
X14760965Y17852831D01*
X14760964Y17852829D01*
X14661098Y17638665D01*
X14661094Y17638656D01*
X14599938Y17410414D01*
X14599936Y17410404D01*
X14579341Y17175001D01*
X14579341Y17175000D01*
X500Y17175000D01*
X500Y29845000D01*
X13249341Y29845000D01*
X13269936Y29609597D01*
X13269938Y29609587D01*
X13331094Y29381345D01*
X13331096Y29381341D01*
X13331097Y29381337D01*
X13430965Y29167170D01*
X13430967Y29167166D01*
X13539281Y29012479D01*
X13566505Y28973599D01*
X13733599Y28806505D01*
X13829115Y28739624D01*
X13927165Y28670968D01*
X13927167Y28670967D01*
X13927170Y28670965D01*
X14141337Y28571097D01*
X14141343Y28571096D01*
X14141344Y28571095D01*
X14196285Y28556374D01*
X14369592Y28509937D01*
X14546034Y28494500D01*
X14604999Y28489341D01*
X14605000Y28489341D01*
X14605001Y28489341D01*
X14658331Y28494007D01*
X14840408Y28509937D01*
X15068663Y28571097D01*
X15282830Y28670965D01*
X15476401Y28806505D01*
X15643495Y28973599D01*
X15779035Y29167170D01*
X15878903Y29381337D01*
X15940063Y29609592D01*
X15960659Y29845000D01*
X15940063Y30080408D01*
X15878903Y30308663D01*
X15779035Y30522829D01*
X15644696Y30714687D01*
X15643494Y30716403D01*
X15476402Y30883494D01*
X15476396Y30883499D01*
X15290842Y31013425D01*
X15247217Y31068002D01*
X15240023Y31137500D01*
X15271546Y31199855D01*
X15290842Y31216575D01*
X15403054Y31295147D01*
X15476401Y31346505D01*
X15643495Y31513599D01*
X15779035Y31707170D01*
X15878903Y31921337D01*
X15940063Y32149592D01*
X15960659Y32385000D01*
X15940063Y32620408D01*
X15878903Y32848663D01*
X15779035Y33062829D01*
X15643495Y33256401D01*
X15643494Y33256403D01*
X15476402Y33423494D01*
X15476401Y33423495D01*
X15290405Y33553731D01*
X15246781Y33608308D01*
X15239588Y33677807D01*
X15271110Y33740161D01*
X15290405Y33756881D01*
X15476082Y33886895D01*
X15643105Y34053918D01*
X15778600Y34247422D01*
X15878429Y34461508D01*
X15878432Y34461514D01*
X15935636Y34675000D01*
X15038686Y34675000D01*
X15064493Y34715156D01*
X15105000Y34853111D01*
X15105000Y34996889D01*
X15064493Y35134844D01*
X15038686Y35175000D01*
X15935636Y35175000D01*
X15935635Y35175001D01*
X15878432Y35388487D01*
X15878429Y35388493D01*
X15778600Y35602578D01*
X15778599Y35602580D01*
X15643113Y35796074D01*
X15643108Y35796080D01*
X15476078Y35963110D01*
X15290405Y36093121D01*
X15246780Y36147698D01*
X15239588Y36217196D01*
X15271110Y36279551D01*
X15290406Y36296270D01*
X15476401Y36426505D01*
X15643495Y36593599D01*
X15779035Y36787170D01*
X15878903Y37001337D01*
X15940063Y37229592D01*
X15960659Y37465000D01*
X15940063Y37700408D01*
X15878903Y37928663D01*
X15779035Y38142829D01*
X15643495Y38336401D01*
X15643494Y38336403D01*
X15476402Y38503494D01*
X15476396Y38503499D01*
X15290842Y38633425D01*
X15247217Y38688002D01*
X15240023Y38757500D01*
X15271546Y38819855D01*
X15290842Y38836575D01*
X15313026Y38852109D01*
X15476401Y38966505D01*
X15643495Y39133599D01*
X15779035Y39327170D01*
X15878903Y39541337D01*
X15940063Y39769592D01*
X15960659Y40005000D01*
X15940063Y40240408D01*
X15878903Y40468663D01*
X15779035Y40682829D01*
X15643495Y40876401D01*
X15643494Y40876403D01*
X15476402Y41043494D01*
X15476396Y41043499D01*
X15290842Y41173425D01*
X15247217Y41228002D01*
X15240023Y41297500D01*
X15271546Y41359855D01*
X15290842Y41376575D01*
X15313026Y41392109D01*
X15476401Y41506505D01*
X15643495Y41673599D01*
X15779035Y41867170D01*
X15878903Y42081337D01*
X15940063Y42309592D01*
X15960659Y42545000D01*
X15940063Y42780408D01*
X15878903Y43008663D01*
X15779035Y43222829D01*
X15643495Y43416401D01*
X15643494Y43416403D01*
X15476402Y43583494D01*
X15476396Y43583499D01*
X15290842Y43713425D01*
X15247217Y43768002D01*
X15240023Y43837500D01*
X15271546Y43899855D01*
X15290842Y43916575D01*
X15444229Y44023978D01*
X15476401Y44046505D01*
X15643495Y44213599D01*
X15779035Y44407170D01*
X15878903Y44621337D01*
X15940063Y44849592D01*
X15960659Y45085000D01*
X15940063Y45320408D01*
X15878903Y45548663D01*
X15779035Y45762829D01*
X15702228Y45872522D01*
X15643494Y45956403D01*
X15476402Y46123494D01*
X15476401Y46123495D01*
X15290405Y46253731D01*
X15246781Y46308308D01*
X15239588Y46377807D01*
X15271110Y46440161D01*
X15290405Y46456881D01*
X15476082Y46586895D01*
X15643105Y46753918D01*
X15778600Y46947422D01*
X15878429Y47161508D01*
X15878432Y47161514D01*
X15935636Y47375000D01*
X15038686Y47375000D01*
X15064493Y47415156D01*
X15105000Y47553111D01*
X15105000Y47696889D01*
X15064493Y47834844D01*
X15038686Y47875000D01*
X15935636Y47875000D01*
X15935635Y47875001D01*
X15878432Y48088487D01*
X15878429Y48088493D01*
X15778600Y48302578D01*
X15778599Y48302580D01*
X15643113Y48496074D01*
X15643108Y48496080D01*
X15476078Y48663110D01*
X15290405Y48793121D01*
X15246780Y48847698D01*
X15239588Y48917196D01*
X15271110Y48979551D01*
X15290406Y48996270D01*
X15476401Y49126505D01*
X15643495Y49293599D01*
X15779035Y49487170D01*
X15878903Y49701337D01*
X15940063Y49929592D01*
X15960659Y50165000D01*
X15940063Y50400408D01*
X15878903Y50628663D01*
X15779035Y50842829D01*
X15643495Y51036401D01*
X15643494Y51036403D01*
X15476402Y51203494D01*
X15476396Y51203499D01*
X15290842Y51333425D01*
X15247217Y51388002D01*
X15240023Y51457500D01*
X15271546Y51519855D01*
X15290842Y51536575D01*
X15313026Y51552109D01*
X15476401Y51666505D01*
X15643495Y51833599D01*
X15779035Y52027170D01*
X15878903Y52241337D01*
X15940063Y52469592D01*
X15960659Y52705000D01*
X15940063Y52940408D01*
X15878903Y53168663D01*
X15779035Y53382829D01*
X15643495Y53576401D01*
X15643494Y53576403D01*
X15476402Y53743494D01*
X15476396Y53743499D01*
X15290842Y53873425D01*
X15247217Y53928002D01*
X15240023Y53997500D01*
X15271546Y54059855D01*
X15290842Y54076575D01*
X15313026Y54092109D01*
X15476401Y54206505D01*
X15643495Y54373599D01*
X15779035Y54567170D01*
X15878903Y54781337D01*
X15940063Y55009592D01*
X15960659Y55245000D01*
X15940063Y55480408D01*
X15878903Y55708663D01*
X15779035Y55922829D01*
X15643495Y56116401D01*
X15643494Y56116403D01*
X15476402Y56283494D01*
X15476396Y56283499D01*
X15290842Y56413425D01*
X15247217Y56468002D01*
X15240023Y56537500D01*
X15271546Y56599855D01*
X15290842Y56616575D01*
X15313026Y56632109D01*
X15476401Y56746505D01*
X15643495Y56913599D01*
X15779035Y57107170D01*
X15878903Y57321337D01*
X15940063Y57549592D01*
X15960659Y57785000D01*
X15940063Y58020408D01*
X15878903Y58248663D01*
X15779035Y58462829D01*
X15643495Y58656401D01*
X15643494Y58656403D01*
X15476402Y58823494D01*
X15476401Y58823495D01*
X15290405Y58953731D01*
X15246781Y59008308D01*
X15239588Y59077807D01*
X15271110Y59140161D01*
X15290405Y59156881D01*
X15476082Y59286895D01*
X15643105Y59453918D01*
X15778600Y59647422D01*
X15878429Y59861508D01*
X15878432Y59861514D01*
X15935636Y60075000D01*
X15038686Y60075000D01*
X15064493Y60115156D01*
X15105000Y60253111D01*
X15105000Y60396889D01*
X15064493Y60534844D01*
X15038686Y60575000D01*
X15935636Y60575000D01*
X15935635Y60575001D01*
X15878432Y60788487D01*
X15878429Y60788493D01*
X15778600Y61002578D01*
X15778599Y61002580D01*
X15643113Y61196074D01*
X15643108Y61196080D01*
X15476078Y61363110D01*
X15290405Y61493121D01*
X15246780Y61547698D01*
X15239588Y61617196D01*
X15271110Y61679551D01*
X15290406Y61696270D01*
X15292420Y61697680D01*
X15476401Y61826505D01*
X15643495Y61993599D01*
X15779035Y62187170D01*
X15878903Y62401337D01*
X15940063Y62629592D01*
X15960659Y62865000D01*
X15940063Y63100408D01*
X15878903Y63328663D01*
X15779035Y63542829D01*
X15702228Y63652522D01*
X15643494Y63736403D01*
X15476402Y63903494D01*
X15476396Y63903499D01*
X15290842Y64033425D01*
X15247217Y64088002D01*
X15240023Y64157500D01*
X15271546Y64219855D01*
X15290842Y64236575D01*
X15316010Y64254198D01*
X15476401Y64366505D01*
X15643495Y64533599D01*
X15779035Y64727170D01*
X15878903Y64941337D01*
X15940063Y65169592D01*
X15960659Y65405000D01*
X15940063Y65640408D01*
X15878903Y65868663D01*
X15779035Y66082829D01*
X15754712Y66117567D01*
X15643494Y66276403D01*
X15476402Y66443494D01*
X15476396Y66443499D01*
X15290842Y66573425D01*
X15247217Y66628002D01*
X15240023Y66697500D01*
X15271546Y66759855D01*
X15290842Y66776575D01*
X15313026Y66792109D01*
X15476401Y66906505D01*
X15643495Y67073599D01*
X15779035Y67267170D01*
X15878903Y67481337D01*
X15940063Y67709592D01*
X15960659Y67945000D01*
X15940063Y68180408D01*
X15878903Y68408663D01*
X15779035Y68622829D01*
X15643495Y68816401D01*
X15643494Y68816403D01*
X15476402Y68983494D01*
X15476396Y68983499D01*
X15290842Y69113425D01*
X15247217Y69168002D01*
X15240023Y69237500D01*
X15271546Y69299855D01*
X15290842Y69316575D01*
X15313026Y69332109D01*
X15476401Y69446505D01*
X15643495Y69613599D01*
X15779035Y69807170D01*
X15878903Y70021337D01*
X15940063Y70249592D01*
X15960659Y70485000D01*
X15940063Y70720408D01*
X15878903Y70948663D01*
X15779035Y71162829D01*
X15643495Y71356401D01*
X15643494Y71356403D01*
X15476402Y71523494D01*
X15476401Y71523495D01*
X15290405Y71653731D01*
X15246781Y71708308D01*
X15239588Y71777807D01*
X15271110Y71840161D01*
X15290405Y71856881D01*
X15476082Y71986895D01*
X15643105Y72153918D01*
X15778600Y72347422D01*
X15878429Y72561508D01*
X15878432Y72561514D01*
X15935636Y72775000D01*
X15038686Y72775000D01*
X15064493Y72815156D01*
X15105000Y72953111D01*
X15105000Y73096889D01*
X15064493Y73234844D01*
X15038686Y73275000D01*
X15935636Y73275000D01*
X15935635Y73275001D01*
X15878432Y73488487D01*
X15878429Y73488493D01*
X15778600Y73702578D01*
X15778599Y73702580D01*
X15643113Y73896074D01*
X15643108Y73896080D01*
X15476078Y74063110D01*
X15290405Y74193121D01*
X15246780Y74247698D01*
X15239588Y74317196D01*
X15271110Y74379551D01*
X15290406Y74396270D01*
X15440333Y74501250D01*
X15476401Y74526505D01*
X15643495Y74693599D01*
X15779035Y74887170D01*
X15878903Y75101337D01*
X15940063Y75329592D01*
X15960659Y75565000D01*
X15940063Y75800408D01*
X15878903Y76028663D01*
X15779035Y76242829D01*
X15643495Y76436401D01*
X15521567Y76558329D01*
X15488084Y76619649D01*
X15493068Y76689341D01*
X15534939Y76745275D01*
X15565915Y76762190D01*
X15697331Y76811204D01*
X15812546Y76897454D01*
X15898796Y77012669D01*
X15949091Y77147517D01*
X15955500Y77207127D01*
X15955499Y79002872D01*
X15949091Y79062483D01*
X15928159Y79118604D01*
X15898797Y79197329D01*
X15898793Y79197336D01*
X15812547Y79312545D01*
X15812544Y79312548D01*
X15697335Y79398794D01*
X15697328Y79398798D01*
X15562482Y79449092D01*
X15562483Y79449092D01*
X15502883Y79455499D01*
X15502881Y79455500D01*
X15502873Y79455500D01*
X15502864Y79455500D01*
X13707129Y79455500D01*
X13707123Y79455499D01*
X13647516Y79449092D01*
X13512671Y79398798D01*
X13512664Y79398794D01*
X13397455Y79312548D01*
X13397452Y79312545D01*
X13311206Y79197336D01*
X13311202Y79197329D01*
X13260908Y79062483D01*
X13259029Y79045000D01*
X13254501Y79002877D01*
X13254500Y79002865D01*
X13254500Y77207130D01*
X13254501Y77207124D01*
X13260908Y77147517D01*
X13311202Y77012672D01*
X13311206Y77012665D01*
X13397452Y76897456D01*
X13397455Y76897453D01*
X13512664Y76811207D01*
X13512671Y76811203D01*
X13644081Y76762190D01*
X13700015Y76720319D01*
X13724432Y76654855D01*
X13709580Y76586582D01*
X13688430Y76558327D01*
X13566503Y76436400D01*
X13430965Y76242831D01*
X13430964Y76242829D01*
X13331098Y76028665D01*
X13331094Y76028656D01*
X13269938Y75800414D01*
X13269936Y75800404D01*
X13249341Y75565001D01*
X13249341Y75565000D01*
X13269936Y75329597D01*
X13269938Y75329587D01*
X13331094Y75101345D01*
X13331096Y75101341D01*
X13331097Y75101337D01*
X13411302Y74929338D01*
X13430965Y74887170D01*
X13430967Y74887166D01*
X13566501Y74693605D01*
X13566506Y74693598D01*
X13733597Y74526507D01*
X13733603Y74526502D01*
X13919594Y74396270D01*
X13963219Y74341693D01*
X13970413Y74272195D01*
X13938890Y74209840D01*
X13919595Y74193120D01*
X13733922Y74063110D01*
X13733920Y74063109D01*
X13566891Y73896080D01*
X13566886Y73896074D01*
X13431400Y73702580D01*
X13431399Y73702578D01*
X13331570Y73488493D01*
X13331567Y73488487D01*
X13274364Y73275001D01*
X13274364Y73275000D01*
X14171314Y73275000D01*
X14145507Y73234844D01*
X14105000Y73096889D01*
X14105000Y72953111D01*
X14145507Y72815156D01*
X14171314Y72775000D01*
X13274364Y72775000D01*
X13331567Y72561514D01*
X13331570Y72561508D01*
X13431399Y72347422D01*
X13566894Y72153918D01*
X13733917Y71986895D01*
X13919595Y71856881D01*
X13963219Y71802304D01*
X13970412Y71732805D01*
X13938890Y71670451D01*
X13919595Y71653731D01*
X13733594Y71523492D01*
X13566505Y71356403D01*
X13430965Y71162831D01*
X13430964Y71162829D01*
X13331098Y70948665D01*
X13331094Y70948656D01*
X13269938Y70720414D01*
X13269936Y70720404D01*
X13249341Y70485001D01*
X13249341Y70485000D01*
X13269936Y70249597D01*
X13269938Y70249587D01*
X13331094Y70021345D01*
X13331096Y70021341D01*
X13331097Y70021337D01*
X13430965Y69807170D01*
X13430967Y69807166D01*
X13566501Y69613605D01*
X13566506Y69613598D01*
X13733597Y69446507D01*
X13733603Y69446502D01*
X13919158Y69316575D01*
X13962783Y69261998D01*
X13969977Y69192500D01*
X13938454Y69130145D01*
X13919158Y69113425D01*
X13733597Y68983495D01*
X13566505Y68816403D01*
X13430965Y68622831D01*
X13430964Y68622829D01*
X13331098Y68408665D01*
X13331094Y68408656D01*
X13269938Y68180414D01*
X13269936Y68180404D01*
X13249341Y67945001D01*
X13249341Y67945000D01*
X13269936Y67709597D01*
X13269938Y67709587D01*
X13331094Y67481345D01*
X13331096Y67481341D01*
X13331097Y67481337D01*
X13430965Y67267170D01*
X13430967Y67267166D01*
X13566501Y67073605D01*
X13566506Y67073598D01*
X13733597Y66906507D01*
X13733603Y66906502D01*
X13919158Y66776575D01*
X13962783Y66721998D01*
X13969977Y66652500D01*
X13938454Y66590145D01*
X13919158Y66573425D01*
X13733597Y66443495D01*
X13566505Y66276403D01*
X13430965Y66082831D01*
X13430964Y66082829D01*
X13331098Y65868665D01*
X13331094Y65868656D01*
X13269938Y65640414D01*
X13269936Y65640404D01*
X13249341Y65405001D01*
X13249341Y65405000D01*
X13269936Y65169597D01*
X13269938Y65169587D01*
X13331094Y64941345D01*
X13331096Y64941341D01*
X13331097Y64941337D01*
X13400421Y64792672D01*
X13430965Y64727170D01*
X13430967Y64727166D01*
X13566501Y64533605D01*
X13566506Y64533598D01*
X13733597Y64366507D01*
X13733603Y64366502D01*
X13919158Y64236575D01*
X13962783Y64181998D01*
X13969977Y64112500D01*
X13938454Y64050145D01*
X13919158Y64033425D01*
X13733597Y63903495D01*
X13566505Y63736403D01*
X13430965Y63542831D01*
X13430964Y63542829D01*
X13331098Y63328665D01*
X13331094Y63328656D01*
X13269938Y63100414D01*
X13269936Y63100404D01*
X13249341Y62865001D01*
X13249341Y62865000D01*
X13269936Y62629597D01*
X13269938Y62629587D01*
X13331094Y62401345D01*
X13331096Y62401341D01*
X13331097Y62401337D01*
X13400539Y62252419D01*
X13430965Y62187170D01*
X13430967Y62187166D01*
X13539281Y62032479D01*
X13566505Y61993599D01*
X13733599Y61826505D01*
X13900342Y61709750D01*
X13919594Y61696270D01*
X13963219Y61641693D01*
X13970413Y61572195D01*
X13938890Y61509840D01*
X13919595Y61493120D01*
X13733922Y61363110D01*
X13733920Y61363109D01*
X13566891Y61196080D01*
X13566886Y61196074D01*
X13431400Y61002580D01*
X13431399Y61002578D01*
X13331570Y60788493D01*
X13331567Y60788487D01*
X13274364Y60575001D01*
X13274364Y60575000D01*
X14171314Y60575000D01*
X14145507Y60534844D01*
X14105000Y60396889D01*
X14105000Y60253111D01*
X14145507Y60115156D01*
X14171314Y60075000D01*
X13274364Y60075000D01*
X13331567Y59861514D01*
X13331570Y59861508D01*
X13431399Y59647422D01*
X13566894Y59453918D01*
X13733917Y59286895D01*
X13919595Y59156881D01*
X13963219Y59102304D01*
X13970412Y59032805D01*
X13938890Y58970451D01*
X13919595Y58953731D01*
X13733594Y58823492D01*
X13566505Y58656403D01*
X13430965Y58462831D01*
X13430964Y58462829D01*
X13331098Y58248665D01*
X13331094Y58248656D01*
X13269938Y58020414D01*
X13269936Y58020404D01*
X13249341Y57785001D01*
X13249341Y57785000D01*
X13269936Y57549597D01*
X13269938Y57549587D01*
X13331094Y57321345D01*
X13331096Y57321341D01*
X13331097Y57321337D01*
X13430965Y57107170D01*
X13430967Y57107166D01*
X13566501Y56913605D01*
X13566506Y56913598D01*
X13733597Y56746507D01*
X13733603Y56746502D01*
X13919158Y56616575D01*
X13962783Y56561998D01*
X13969977Y56492500D01*
X13938454Y56430145D01*
X13919158Y56413425D01*
X13733597Y56283495D01*
X13566505Y56116403D01*
X13430965Y55922831D01*
X13430964Y55922829D01*
X13331098Y55708665D01*
X13331094Y55708656D01*
X13269938Y55480414D01*
X13269936Y55480404D01*
X13249341Y55245001D01*
X13249341Y55245000D01*
X13269936Y55009597D01*
X13269938Y55009587D01*
X13331094Y54781345D01*
X13331096Y54781341D01*
X13331097Y54781337D01*
X13430965Y54567170D01*
X13430967Y54567166D01*
X13566501Y54373605D01*
X13566506Y54373598D01*
X13733597Y54206507D01*
X13733603Y54206502D01*
X13919158Y54076575D01*
X13962783Y54021998D01*
X13969977Y53952500D01*
X13938454Y53890145D01*
X13919158Y53873425D01*
X13733597Y53743495D01*
X13566505Y53576403D01*
X13430965Y53382831D01*
X13430964Y53382829D01*
X13331098Y53168665D01*
X13331094Y53168656D01*
X13269938Y52940414D01*
X13269936Y52940404D01*
X13249341Y52705001D01*
X13249341Y52705000D01*
X13269936Y52469597D01*
X13269938Y52469587D01*
X13331094Y52241345D01*
X13331096Y52241341D01*
X13331097Y52241337D01*
X13430965Y52027170D01*
X13430967Y52027166D01*
X13566501Y51833605D01*
X13566506Y51833598D01*
X13733597Y51666507D01*
X13733603Y51666502D01*
X13919158Y51536575D01*
X13962783Y51481998D01*
X13969977Y51412500D01*
X13938454Y51350145D01*
X13919158Y51333425D01*
X13733597Y51203495D01*
X13566505Y51036403D01*
X13430965Y50842831D01*
X13430964Y50842829D01*
X13331098Y50628665D01*
X13331094Y50628656D01*
X13269938Y50400414D01*
X13269936Y50400404D01*
X13249341Y50165001D01*
X13249341Y50165000D01*
X13269936Y49929597D01*
X13269938Y49929587D01*
X13331094Y49701345D01*
X13331096Y49701341D01*
X13331097Y49701337D01*
X13400421Y49552672D01*
X13430965Y49487170D01*
X13430967Y49487166D01*
X13539281Y49332479D01*
X13566505Y49293599D01*
X13733599Y49126505D01*
X13917154Y48997978D01*
X13919594Y48996270D01*
X13963219Y48941693D01*
X13970413Y48872195D01*
X13938890Y48809840D01*
X13919595Y48793120D01*
X13733922Y48663110D01*
X13733920Y48663109D01*
X13566891Y48496080D01*
X13566886Y48496074D01*
X13431400Y48302580D01*
X13431399Y48302578D01*
X13331570Y48088493D01*
X13331567Y48088487D01*
X13274364Y47875001D01*
X13274364Y47875000D01*
X14171314Y47875000D01*
X14145507Y47834844D01*
X14105000Y47696889D01*
X14105000Y47553111D01*
X14145507Y47415156D01*
X14171314Y47375000D01*
X13274364Y47375000D01*
X13331567Y47161514D01*
X13331570Y47161508D01*
X13431399Y46947422D01*
X13566894Y46753918D01*
X13733917Y46586895D01*
X13919595Y46456881D01*
X13963219Y46402304D01*
X13970412Y46332805D01*
X13938890Y46270451D01*
X13919595Y46253731D01*
X13733594Y46123492D01*
X13566505Y45956403D01*
X13430965Y45762831D01*
X13430964Y45762829D01*
X13331098Y45548665D01*
X13331094Y45548656D01*
X13269938Y45320414D01*
X13269936Y45320404D01*
X13249341Y45085001D01*
X13249341Y45085000D01*
X13269936Y44849597D01*
X13269938Y44849587D01*
X13331094Y44621345D01*
X13331096Y44621341D01*
X13331097Y44621337D01*
X13400539Y44472419D01*
X13430965Y44407170D01*
X13430967Y44407166D01*
X13566501Y44213605D01*
X13566506Y44213598D01*
X13733597Y44046507D01*
X13733603Y44046502D01*
X13919158Y43916575D01*
X13962783Y43861998D01*
X13969977Y43792500D01*
X13938454Y43730145D01*
X13919158Y43713425D01*
X13733597Y43583495D01*
X13566505Y43416403D01*
X13430965Y43222831D01*
X13430964Y43222829D01*
X13331098Y43008665D01*
X13331094Y43008656D01*
X13269938Y42780414D01*
X13269936Y42780404D01*
X13249341Y42545001D01*
X13249341Y42545000D01*
X13269936Y42309597D01*
X13269938Y42309587D01*
X13331094Y42081345D01*
X13331096Y42081341D01*
X13331097Y42081337D01*
X13430965Y41867170D01*
X13430967Y41867166D01*
X13566501Y41673605D01*
X13566506Y41673598D01*
X13733597Y41506507D01*
X13733603Y41506502D01*
X13919158Y41376575D01*
X13962783Y41321998D01*
X13969977Y41252500D01*
X13938454Y41190145D01*
X13919158Y41173425D01*
X13733597Y41043495D01*
X13566505Y40876403D01*
X13430965Y40682831D01*
X13430964Y40682829D01*
X13331098Y40468665D01*
X13331094Y40468656D01*
X13269938Y40240414D01*
X13269936Y40240404D01*
X13249341Y40005001D01*
X13249341Y40005000D01*
X13269936Y39769597D01*
X13269938Y39769587D01*
X13331094Y39541345D01*
X13331096Y39541341D01*
X13331097Y39541337D01*
X13430965Y39327170D01*
X13430967Y39327166D01*
X13566501Y39133605D01*
X13566506Y39133598D01*
X13733597Y38966507D01*
X13733603Y38966502D01*
X13919158Y38836575D01*
X13962783Y38781998D01*
X13969977Y38712500D01*
X13938454Y38650145D01*
X13919158Y38633425D01*
X13733597Y38503495D01*
X13566505Y38336403D01*
X13430965Y38142831D01*
X13430964Y38142829D01*
X13331098Y37928665D01*
X13331094Y37928656D01*
X13269938Y37700414D01*
X13269936Y37700404D01*
X13249341Y37465001D01*
X13249341Y37465000D01*
X13269936Y37229597D01*
X13269938Y37229587D01*
X13331094Y37001345D01*
X13331096Y37001341D01*
X13331097Y37001337D01*
X13430965Y36787170D01*
X13430967Y36787166D01*
X13566501Y36593605D01*
X13566506Y36593598D01*
X13733597Y36426507D01*
X13733603Y36426502D01*
X13919594Y36296270D01*
X13963219Y36241693D01*
X13970413Y36172195D01*
X13938890Y36109840D01*
X13919595Y36093120D01*
X13733922Y35963110D01*
X13733920Y35963109D01*
X13566891Y35796080D01*
X13566886Y35796074D01*
X13431400Y35602580D01*
X13431399Y35602578D01*
X13331570Y35388493D01*
X13331567Y35388487D01*
X13274364Y35175001D01*
X13274364Y35175000D01*
X14171314Y35175000D01*
X14145507Y35134844D01*
X14105000Y34996889D01*
X14105000Y34853111D01*
X14145507Y34715156D01*
X14171314Y34675000D01*
X13274364Y34675000D01*
X13331567Y34461514D01*
X13331570Y34461508D01*
X13431399Y34247422D01*
X13566894Y34053918D01*
X13733917Y33886895D01*
X13919595Y33756881D01*
X13963219Y33702304D01*
X13970412Y33632805D01*
X13938890Y33570451D01*
X13919595Y33553731D01*
X13733594Y33423492D01*
X13566505Y33256403D01*
X13430965Y33062831D01*
X13430964Y33062829D01*
X13331098Y32848665D01*
X13331094Y32848656D01*
X13269938Y32620414D01*
X13269936Y32620404D01*
X13249341Y32385001D01*
X13249341Y32385000D01*
X13269936Y32149597D01*
X13269938Y32149587D01*
X13331094Y31921345D01*
X13331096Y31921341D01*
X13331097Y31921337D01*
X13430965Y31707170D01*
X13430967Y31707166D01*
X13539281Y31552479D01*
X13566501Y31513604D01*
X13566506Y31513598D01*
X13733597Y31346507D01*
X13733603Y31346502D01*
X13919158Y31216575D01*
X13962783Y31161998D01*
X13969977Y31092500D01*
X13938454Y31030145D01*
X13919158Y31013425D01*
X13733597Y30883495D01*
X13566505Y30716403D01*
X13430965Y30522831D01*
X13430964Y30522829D01*
X13331098Y30308665D01*
X13331094Y30308656D01*
X13269938Y30080414D01*
X13269936Y30080404D01*
X13249341Y29845001D01*
X13249341Y29845000D01*
X500Y29845000D01*
X500Y80644998D01*
X1140153Y80644998D01*
X1159526Y80287686D01*
X1159527Y80287669D01*
X1217415Y79934569D01*
X1217421Y79934543D01*
X1313147Y79589768D01*
X1313149Y79589761D01*
X1445597Y79257341D01*
X1445606Y79257323D01*
X1613218Y78941173D01*
X1814033Y78644993D01*
X1941441Y78494997D01*
X1941442Y78494996D01*
X3147266Y79700820D01*
X3310130Y79510130D01*
X3500818Y79347268D01*
X2292255Y78138705D01*
X2292256Y78138704D01*
X2305485Y78126172D01*
X2305486Y78126171D01*
X2590367Y77909612D01*
X2590370Y77909610D01*
X2896990Y77725124D01*
X3221739Y77574878D01*
X3221744Y77574877D01*
X3560855Y77460617D01*
X3910339Y77383689D01*
X4266075Y77345001D01*
X4266085Y77345000D01*
X4623915Y77345000D01*
X4623924Y77345001D01*
X4979660Y77383689D01*
X5329144Y77460617D01*
X5668255Y77574877D01*
X5668260Y77574878D01*
X5993009Y77725124D01*
X6299629Y77909610D01*
X6299632Y77909612D01*
X6584504Y78126164D01*
X6597742Y78138706D01*
X5389180Y79347267D01*
X5579870Y79510130D01*
X5742733Y79700820D01*
X6948556Y78494997D01*
X7075964Y78644992D01*
X7075975Y78645006D01*
X7276781Y78941173D01*
X7444393Y79257323D01*
X7444402Y79257341D01*
X7576850Y79589761D01*
X7576852Y79589768D01*
X7672578Y79934543D01*
X7672584Y79934569D01*
X7730472Y80287669D01*
X7730473Y80287686D01*
X7749847Y80644998D01*
X41780153Y80644998D01*
X41799526Y80287686D01*
X41799527Y80287669D01*
X41857415Y79934569D01*
X41857421Y79934543D01*
X41953147Y79589768D01*
X41953149Y79589761D01*
X42085597Y79257341D01*
X42085606Y79257323D01*
X42253218Y78941173D01*
X42454033Y78644993D01*
X42581441Y78494997D01*
X42581442Y78494996D01*
X43787266Y79700820D01*
X43950130Y79510130D01*
X44140818Y79347268D01*
X42932255Y78138705D01*
X42932256Y78138704D01*
X42945485Y78126172D01*
X42945486Y78126171D01*
X43230367Y77909612D01*
X43230370Y77909610D01*
X43536990Y77725124D01*
X43861739Y77574878D01*
X43861744Y77574877D01*
X44200855Y77460617D01*
X44550339Y77383689D01*
X44906075Y77345001D01*
X44906085Y77345000D01*
X45263915Y77345000D01*
X45263924Y77345001D01*
X45619660Y77383689D01*
X45969144Y77460617D01*
X46308255Y77574877D01*
X46308260Y77574878D01*
X46633009Y77725124D01*
X46939629Y77909610D01*
X46939632Y77909612D01*
X47224504Y78126164D01*
X47237742Y78138706D01*
X46029180Y79347267D01*
X46219870Y79510130D01*
X46382733Y79700820D01*
X47588556Y78494997D01*
X47715964Y78644992D01*
X47715975Y78645006D01*
X47916781Y78941173D01*
X48084393Y79257323D01*
X48084402Y79257341D01*
X48216850Y79589761D01*
X48216852Y79589768D01*
X48312578Y79934543D01*
X48312584Y79934569D01*
X48370472Y80287669D01*
X48370473Y80287686D01*
X48389847Y80644998D01*
X48389847Y80645003D01*
X48370473Y81002315D01*
X48370472Y81002332D01*
X48312584Y81355432D01*
X48312578Y81355458D01*
X48216852Y81700233D01*
X48216850Y81700240D01*
X48084402Y82032660D01*
X48084393Y82032678D01*
X47916781Y82348828D01*
X47715966Y82645008D01*
X47588557Y82795005D01*
X47588556Y82795006D01*
X46382732Y81589182D01*
X46219870Y81779870D01*
X46029180Y81942734D01*
X47237743Y83151297D01*
X47237742Y83151298D01*
X47224514Y83163829D01*
X47224513Y83163830D01*
X46939632Y83380389D01*
X46939629Y83380391D01*
X46633009Y83564877D01*
X46308260Y83715123D01*
X46308255Y83715124D01*
X45969144Y83829384D01*
X45619660Y83906312D01*
X45263924Y83945000D01*
X44906075Y83945000D01*
X44550339Y83906312D01*
X44200855Y83829384D01*
X43861744Y83715124D01*
X43861739Y83715123D01*
X43536990Y83564877D01*
X43230370Y83380391D01*
X43230367Y83380389D01*
X42945491Y83163834D01*
X42932256Y83151297D01*
X42932255Y83151297D01*
X44140819Y81942734D01*
X43950130Y81779870D01*
X43787266Y81589182D01*
X42581442Y82795006D01*
X42581441Y82795005D01*
X42454040Y82645017D01*
X42454033Y82645007D01*
X42253218Y82348828D01*
X42085606Y82032678D01*
X42085597Y82032660D01*
X41953149Y81700240D01*
X41953147Y81700233D01*
X41857421Y81355458D01*
X41857415Y81355432D01*
X41799527Y81002332D01*
X41799526Y81002315D01*
X41780153Y80645003D01*
X41780153Y80644998D01*
X7749847Y80644998D01*
X7749847Y80645003D01*
X7730473Y81002315D01*
X7730472Y81002332D01*
X7672584Y81355432D01*
X7672578Y81355458D01*
X7576852Y81700233D01*
X7576850Y81700240D01*
X7444402Y82032660D01*
X7444393Y82032678D01*
X7276781Y82348828D01*
X7075966Y82645008D01*
X6948557Y82795005D01*
X6948556Y82795006D01*
X5742732Y81589182D01*
X5579870Y81779870D01*
X5389180Y81942734D01*
X6597743Y83151297D01*
X6597742Y83151298D01*
X6584514Y83163829D01*
X6584513Y83163830D01*
X6299632Y83380389D01*
X6299629Y83380391D01*
X5993009Y83564877D01*
X5668260Y83715123D01*
X5668255Y83715124D01*
X5329144Y83829384D01*
X4979660Y83906312D01*
X4623924Y83945000D01*
X4266075Y83945000D01*
X3910339Y83906312D01*
X3560855Y83829384D01*
X3221744Y83715124D01*
X3221739Y83715123D01*
X2896990Y83564877D01*
X2590370Y83380391D01*
X2590367Y83380389D01*
X2305491Y83163834D01*
X2292256Y83151297D01*
X2292255Y83151297D01*
X3500819Y81942734D01*
X3310130Y81779870D01*
X3147266Y81589182D01*
X1941442Y82795006D01*
X1941441Y82795005D01*
X1814040Y82645017D01*
X1814033Y82645007D01*
X1613218Y82348828D01*
X1445606Y82032678D01*
X1445597Y82032660D01*
X1313149Y81700240D01*
X1313147Y81700233D01*
X1217421Y81355458D01*
X1217415Y81355432D01*
X1159527Y81002332D01*
X1159526Y81002315D01*
X1140153Y80645003D01*
X1140153Y80644998D01*
X500Y80644998D01*
X500Y82088378D01*
X585Y82091624D01*
X7490Y82223383D01*
X17803Y82407032D01*
X18464Y82413209D01*
X42611Y82565669D01*
X70227Y82728204D01*
X71451Y82733804D01*
X112425Y82886721D01*
X157083Y83041732D01*
X158764Y83046746D01*
X216127Y83196185D01*
X277366Y83344028D01*
X279379Y83348394D01*
X352511Y83491922D01*
X359688Y83504910D01*
X429655Y83631506D01*
X431867Y83635192D01*
X519980Y83770873D01*
X534130Y83790818D01*
X612154Y83900780D01*
X614486Y83903857D01*
X715655Y84028791D01*
X717537Y84031002D01*
X822773Y84148761D01*
X825092Y84151213D01*
X938787Y84264908D01*
X941239Y84267227D01*
X1058998Y84372463D01*
X1061209Y84374345D01*
X1186143Y84475514D01*
X1189220Y84477846D01*
X1319127Y84570020D01*
X1329046Y84576463D01*
X1454808Y84658133D01*
X1458494Y84660345D01*
X1598078Y84737489D01*
X1610063Y84743597D01*
X1741606Y84810621D01*
X1745972Y84812634D01*
X1893815Y84873873D01*
X2043254Y84931236D01*
X2048268Y84932917D01*
X2203279Y84977575D01*
X2356196Y85018549D01*
X2361796Y85019773D01*
X2524284Y85047382D01*
X2676791Y85071536D01*
X2682968Y85072197D01*
X2866566Y85082507D01*
X2998380Y85089416D01*
X3001622Y85089500D01*
X46528378Y85089500D01*
X46531619Y85089416D01*
G37*
%TD.AperFunction*%
%TD*%
%TA.AperFunction,Conductor*%
%TO.N,vbus*%
G36*
X32387727Y78102007D02*
G01*
X32391525Y78099466D01*
X32976622Y77513394D01*
X32980042Y77505118D01*
X32976608Y77496848D01*
X32975464Y77495845D01*
X31928444Y76692541D01*
X31919794Y76690224D01*
X31912039Y76694702D01*
X31909622Y76701824D01*
X31909622Y77178100D01*
X31605525Y77768414D01*
X31604784Y77777336D01*
X31610569Y77784171D01*
X31611446Y77784578D01*
X32378774Y78102011D01*
X32387727Y78102007D01*
G37*
%TD.AperFunction*%
%TD*%
%TA.AperFunction,Conductor*%
%TO.N,sda*%
G36*
X33242486Y30538388D02*
G01*
X34040144Y29637577D01*
X34043063Y29629112D01*
X34039658Y29621548D01*
X33871337Y29453227D01*
X33869899Y29452004D01*
X33243073Y29000812D01*
X33234357Y28998760D01*
X33227965Y29002035D01*
X32393401Y29836599D01*
X32389974Y29844872D01*
X32393401Y29853145D01*
X32394213Y29853884D01*
X33226287Y30539662D01*
X33234849Y30542278D01*
X33242486Y30538388D01*
G37*
%TD.AperFunction*%
%TD*%
%TA.AperFunction,Conductor*%
%TO.N,sda*%
G36*
X32720836Y17925209D02*
G01*
X32721413Y17924951D01*
X34078366Y17273186D01*
X34084339Y17266516D01*
X34085000Y17262640D01*
X34085000Y17027361D01*
X34081573Y17019088D01*
X34078366Y17016814D01*
X32721413Y16365050D01*
X32712471Y16364558D01*
X32705800Y16370531D01*
X32705542Y16371108D01*
X32385865Y17140511D01*
X32385856Y17149466D01*
X32385865Y17149489D01*
X32705542Y17918893D01*
X32711881Y17925218D01*
X32720836Y17925209D01*
G37*
%TD.AperFunction*%
%TD*%
%TA.AperFunction,Conductor*%
%TO.N,adc_vref*%
G36*
X34077545Y65657903D02*
G01*
X34084011Y65651707D01*
X34085000Y65647000D01*
X34085000Y65163001D01*
X34081573Y65154728D01*
X34077545Y65152098D01*
X32720941Y64623854D01*
X32711989Y64624046D01*
X32705891Y64630268D01*
X32385865Y65400511D01*
X32385856Y65409466D01*
X32385865Y65409489D01*
X32484548Y65647000D01*
X32705891Y66179734D01*
X32712230Y66186058D01*
X32720941Y66186147D01*
X34077545Y65657903D01*
G37*
%TD.AperFunction*%
%TD*%
%TA.AperFunction,Conductor*%
%TO.N,adc_vref*%
G36*
X41710995Y46276476D02*
G01*
X42810491Y45754956D01*
X42816497Y45748314D01*
X42816292Y45739921D01*
X42547562Y45088789D01*
X42541238Y45082449D01*
X42541211Y45082438D01*
X41890079Y44813708D01*
X41881124Y44813719D01*
X41875044Y44819509D01*
X41433596Y45750193D01*
X41353524Y45919005D01*
X41353076Y45927947D01*
X41355821Y45932289D01*
X41697710Y46274178D01*
X41705982Y46277604D01*
X41710995Y46276476D01*
G37*
%TD.AperFunction*%
%TD*%
%TA.AperFunction,Conductor*%
%TO.N,adc_vref*%
G36*
X42267943Y60986012D02*
G01*
X42273733Y60979932D01*
X42544133Y60329491D01*
X42544144Y60320536D01*
X42544133Y60320509D01*
X42273733Y59670069D01*
X42267393Y59663745D01*
X42259000Y59663540D01*
X41112771Y60072230D01*
X41106129Y60078236D01*
X41105000Y60083250D01*
X41105000Y60566751D01*
X41108427Y60575024D01*
X41112770Y60577771D01*
X42259000Y60986461D01*
X42267943Y60986012D01*
G37*
%TD.AperFunction*%
%TD*%
%TA.AperFunction,Conductor*%
%TO.N,vbus*%
G36*
X23255961Y8358202D02*
G01*
X23598201Y8015962D01*
X23601628Y8007689D01*
X23600639Y8002982D01*
X23014900Y6670193D01*
X23008434Y6663997D01*
X22999723Y6664086D01*
X22228785Y6982438D01*
X22222447Y6988762D01*
X21904085Y7759726D01*
X21904094Y7768679D01*
X21910191Y7774901D01*
X23242982Y8360641D01*
X23251933Y8360832D01*
X23255961Y8358202D01*
G37*
%TD.AperFunction*%
%TD*%
%TA.AperFunction,Conductor*%
%TO.N,vbus*%
G36*
X31541968Y15448040D02*
G01*
X32377712Y14613278D01*
X32381144Y14605007D01*
X32377722Y14596732D01*
X32377712Y14596722D01*
X31541968Y13761961D01*
X31533693Y13758539D01*
X31526953Y13760680D01*
X31525138Y13761961D01*
X30689953Y14351504D01*
X30685170Y14359075D01*
X30685000Y14361063D01*
X30685000Y14848938D01*
X30688427Y14857211D01*
X30689947Y14858493D01*
X31526955Y15449322D01*
X31535688Y15451292D01*
X31541968Y15448040D01*
G37*
%TD.AperFunction*%
%TD*%
%TA.AperFunction,Conductor*%
%TO.N,vbus*%
G36*
X16792936Y23099872D02*
G01*
X17322449Y22757719D01*
X17324372Y22756165D01*
X17668521Y22412016D01*
X17671948Y22403743D01*
X17668521Y22395470D01*
X17668271Y22395227D01*
X16792453Y21570179D01*
X16784081Y21567000D01*
X16777052Y21569614D01*
X16776357Y21570179D01*
X15944360Y22246114D01*
X15940101Y22253990D01*
X15942658Y22262572D01*
X15943456Y22263457D01*
X16778317Y23098318D01*
X16786589Y23101744D01*
X16792936Y23099872D01*
G37*
%TD.AperFunction*%
%TD*%
M02*
