M48
; DRILL file {KiCad 7.0.7} date Mon Sep 18 08:19:36 2023
; FORMAT={-:-/ absolute / inch / decimal}
; #@! TF.CreationDate,2023-09-18T08:19:36+09:00
; #@! TF.GenerationSoftware,Kicad,Pcbnew,7.0.7
; #@! TF.FileFunction,Plated,1,2,PTH
FMAT,2
INCH
; #@! TA.AperFunction,Plated,PTH,ViaDrill
T1C0.0157
; #@! TA.AperFunction,Plated,PTH,ComponentDrill
T2C0.0315
; #@! TA.AperFunction,Plated,PTH,ComponentDrill
T3C0.0394
%
G90
G05
T1
X0.1224Y2.4693
X0.1224Y1.9693
X0.1224Y1.4693
X0.1224Y0.9693
X0.1724Y2.9693
X0.2224Y0.4693
X0.4224Y3.2193
X0.4224Y2.7193
X0.4224Y2.2193
X0.4224Y1.7193
X0.4224Y1.2193
X0.4224Y0.7193
X0.4224Y0.2193
X0.6724Y0.9693
X0.6724Y0.4693
X0.7224Y3.2193
X0.7224Y2.7193
X0.8724Y2.2193
X0.8724Y1.7193
X0.8724Y1.2193
X1.0224Y0.9693
X1.0224Y0.3193
X1.1224Y3.2193
X1.1224Y2.4693
X1.1224Y1.9693
X1.1224Y1.4693
X1.2724Y0.4693
X1.4224Y2.2193
X1.4224Y1.7193
X1.5224Y3.2193
X1.5224Y2.8693
X1.5224Y1.2193
X1.5224Y0.7193
X1.5224Y0.2193
X1.5974Y2.0193
X1.6224Y2.5193
X1.7724Y1.4693
X1.7724Y0.9693
X1.7724Y0.4693
X1.8224Y2.6193
X1.8224Y2.0193
T2
X1.6724Y2.5693
X1.6724Y2.4693
X1.6724Y2.3693
X1.6724Y1.9693
X1.6724Y1.8693
X1.6724Y1.7693
T3
X0.5724Y3.0693
X0.5724Y2.9693
X0.5724Y2.8693
X0.5724Y2.7693
X0.5724Y2.6693
X0.5724Y2.5693
X0.5724Y2.4693
X0.5724Y2.3693
X0.5724Y2.2693
X0.5724Y2.1693
X0.5724Y2.0693
X0.5724Y1.9693
X0.5724Y1.8693
X0.5724Y1.7693
X0.5724Y1.6693
X0.5724Y1.5693
X0.5724Y1.4693
X0.5724Y1.3693
X0.5724Y1.2693
X0.5724Y1.1693
X0.7724Y0.2693
X0.8724Y0.8693
X0.8724Y0.7693
X0.8724Y0.6693
X0.8724Y0.5693
X0.8724Y0.2693
X0.9724Y0.2693
X1.0724Y0.2693
X1.1724Y0.8693
X1.1724Y0.7693
X1.1724Y0.6693
X1.1724Y0.5693
X1.2724Y3.0693
X1.2724Y2.9693
X1.2724Y2.8693
X1.2724Y2.7693
X1.2724Y2.6693
X1.2724Y2.5693
X1.2724Y2.4693
X1.2724Y2.3693
X1.2724Y2.2693
X1.2724Y2.1693
X1.2724Y2.0693
X1.2724Y1.9693
X1.2724Y1.8693
X1.2724Y1.7693
X1.2724Y1.6693
X1.2724Y1.5693
X1.2724Y1.4693
X1.2724Y1.3693
X1.2724Y1.2693
X1.2724Y1.1693
T0
M30
