%TF.GenerationSoftware,KiCad,Pcbnew,7.0.7*%
%TF.CreationDate,2023-08-18T13:44:29+09:00*%
%TF.ProjectId,WETHAP_PCB,57455448-4150-45f5-9043-422e6b696361,rev?*%
%TF.SameCoordinates,PX6dac2c0PY8954400*%
%TF.FileFunction,Copper,L1,Top*%
%TF.FilePolarity,Positive*%
%FSLAX46Y46*%
G04 Gerber Fmt 4.6, Leading zero omitted, Abs format (unit mm)*
G04 Created by KiCad (PCBNEW 7.0.7) date 2023-08-18 13:44:29*
%MOMM*%
%LPD*%
G01*
G04 APERTURE LIST*
%TA.AperFunction,ComponentPad*%
%ADD10R,1.700000X1.700000*%
%TD*%
%TA.AperFunction,ComponentPad*%
%ADD11O,1.700000X1.700000*%
%TD*%
%TA.AperFunction,ComponentPad*%
%ADD12C,1.440000*%
%TD*%
%TA.AperFunction,ViaPad*%
%ADD13C,0.800000*%
%TD*%
%TA.AperFunction,Conductor*%
%ADD14C,0.500000*%
%TD*%
%TA.AperFunction,Conductor*%
%ADD15C,0.250000*%
%TD*%
G04 APERTURE END LIST*
D10*
%TO.P,DHT20,1,Pin_1*%
%TO.N,vbus*%
X22160000Y14460000D03*
D11*
%TO.P,DHT20,2,Pin_2*%
%TO.N,scl*%
X22160000Y17000000D03*
%TO.P,DHT20,3,Pin_3*%
%TO.N,gnd*%
X22160000Y19540000D03*
%TO.P,DHT20,4,Pin_4*%
%TO.N,sda*%
X22160000Y22080000D03*
%TD*%
D10*
%TO.P,J1,1,Pin_1*%
%TO.N,unconnected-(J1-Pin_1-Pad1)*%
X14540000Y77960000D03*
D11*
%TO.P,J1,2,Pin_2*%
%TO.N,unconnected-(J1-Pin_2-Pad2)*%
X14540000Y75420000D03*
%TO.P,J1,3,Pin_3*%
%TO.N,gnd*%
X14540000Y72880000D03*
%TO.P,J1,4,Pin_4*%
%TO.N,unconnected-(J1-Pin_4-Pad4)*%
X14540000Y70340000D03*
%TO.P,J1,5,Pin_5*%
%TO.N,unconnected-(J1-Pin_5-Pad5)*%
X14540000Y67800000D03*
%TO.P,J1,6,Pin_6*%
%TO.N,unconnected-(J1-Pin_6-Pad6)*%
X14540000Y65260000D03*
%TO.P,J1,7,Pin_7*%
%TO.N,unconnected-(J1-Pin_7-Pad7)*%
X14540000Y62720000D03*
%TO.P,J1,8,Pin_8*%
%TO.N,gnd*%
X14540000Y60180000D03*
%TO.P,J1,9,Pin_9*%
%TO.N,unconnected-(J1-Pin_9-Pad9)*%
X14540000Y57640000D03*
%TO.P,J1,10,Pin_10*%
%TO.N,unconnected-(J1-Pin_10-Pad10)*%
X14540000Y55100000D03*
%TO.P,J1,11,Pin_11*%
%TO.N,unconnected-(J1-Pin_11-Pad11)*%
X14540000Y52560000D03*
%TO.P,J1,12,Pin_12*%
%TO.N,unconnected-(J1-Pin_12-Pad12)*%
X14540000Y50020000D03*
%TO.P,J1,13,Pin_13*%
%TO.N,gnd*%
X14540000Y47480000D03*
%TO.P,J1,14,Pin_14*%
%TO.N,unconnected-(J1-Pin_14-Pad14)*%
X14540000Y44940000D03*
%TO.P,J1,15,Pin_15*%
%TO.N,unconnected-(J1-Pin_15-Pad15)*%
X14540000Y42400000D03*
%TO.P,J1,16,Pin_16*%
%TO.N,unconnected-(J1-Pin_16-Pad16)*%
X14540000Y39860000D03*
%TO.P,J1,17,Pin_17*%
%TO.N,unconnected-(J1-Pin_17-Pad17)*%
X14540000Y37320000D03*
%TO.P,J1,18,Pin_18*%
%TO.N,gnd*%
X14540000Y34780000D03*
%TO.P,J1,19,Pin_19*%
%TO.N,unconnected-(J1-Pin_19-Pad19)*%
X14540000Y32240000D03*
%TO.P,J1,20,Pin_20*%
%TO.N,unconnected-(J1-Pin_20-Pad20)*%
X14540000Y29700000D03*
%TD*%
D10*
%TO.P,SSD1306,1,Pin_1*%
%TO.N,gnd*%
X19620000Y6840000D03*
D11*
%TO.P,SSD1306,2,Pin_2*%
%TO.N,vbus*%
X22160000Y6840000D03*
%TO.P,SSD1306,3,Pin_3*%
%TO.N,scl*%
X24700000Y6840000D03*
%TO.P,SSD1306,4,Pin_4*%
%TO.N,sda*%
X27240000Y6840000D03*
%TD*%
D12*
%TO.P,RV1,1,1*%
%TO.N,adc_vref*%
X42480000Y50020000D03*
%TO.P,RV1,2,2*%
%TO.N,Net-(J2-Pin_10)*%
X42480000Y47480000D03*
%TO.P,RV1,3,3*%
%TO.N,gnd*%
X42480000Y44940000D03*
%TD*%
D10*
%TO.P,J2,1,Pin_1*%
%TO.N,vbus*%
X32320000Y77960000D03*
D11*
%TO.P,J2,2,Pin_2*%
%TO.N,unconnected-(J2-Pin_2-Pad2)*%
X32320000Y75420000D03*
%TO.P,J2,3,Pin_3*%
%TO.N,gnd*%
X32320000Y72880000D03*
%TO.P,J2,4,Pin_4*%
%TO.N,unconnected-(J2-Pin_4-Pad4)*%
X32320000Y70340000D03*
%TO.P,J2,5,Pin_5*%
%TO.N,unconnected-(J2-Pin_5-Pad5)*%
X32320000Y67800000D03*
%TO.P,J2,6,Pin_6*%
%TO.N,adc_vref*%
X32320000Y65260000D03*
%TO.P,J2,7,Pin_7*%
%TO.N,unconnected-(J2-Pin_7-Pad7)*%
X32320000Y62720000D03*
%TO.P,J2,8,Pin_8*%
%TO.N,gnd*%
X32320000Y60180000D03*
%TO.P,J2,9,Pin_9*%
%TO.N,Net-(J2-Pin_9)*%
X32320000Y57640000D03*
%TO.P,J2,10,Pin_10*%
%TO.N,Net-(J2-Pin_10)*%
X32320000Y55100000D03*
%TO.P,J2,11,Pin_11*%
%TO.N,unconnected-(J2-Pin_11-Pad11)*%
X32320000Y52560000D03*
%TO.P,J2,12,Pin_12*%
%TO.N,unconnected-(J2-Pin_12-Pad12)*%
X32320000Y50020000D03*
%TO.P,J2,13,Pin_13*%
%TO.N,gnd*%
X32320000Y47480000D03*
%TO.P,J2,14,Pin_14*%
%TO.N,unconnected-(J2-Pin_14-Pad14)*%
X32320000Y44940000D03*
%TO.P,J2,15,Pin_15*%
%TO.N,unconnected-(J2-Pin_15-Pad15)*%
X32320000Y42400000D03*
%TO.P,J2,16,Pin_16*%
%TO.N,unconnected-(J2-Pin_16-Pad16)*%
X32320000Y39860000D03*
%TO.P,J2,17,Pin_17*%
%TO.N,unconnected-(J2-Pin_17-Pad17)*%
X32320000Y37320000D03*
%TO.P,J2,18,Pin_18*%
%TO.N,gnd*%
X32320000Y34780000D03*
%TO.P,J2,19,Pin_19*%
%TO.N,scl*%
X32320000Y32240000D03*
%TO.P,J2,20,Pin_20*%
%TO.N,sda*%
X32320000Y29700000D03*
%TD*%
D12*
%TO.P,RV2,1,1*%
%TO.N,adc_vref*%
X42480000Y65260000D03*
%TO.P,RV2,2,2*%
%TO.N,Net-(J2-Pin_9)*%
X42480000Y62720000D03*
%TO.P,RV2,3,3*%
%TO.N,gnd*%
X42480000Y60180000D03*
%TD*%
D10*
%TO.P,BME680,1,Pin_1*%
%TO.N,vbus*%
X29780000Y14460000D03*
D11*
%TO.P,BME680,2,Pin_2*%
%TO.N,scl*%
X29780000Y17000000D03*
%TO.P,BME680,3,Pin_3*%
%TO.N,sda*%
X29780000Y19540000D03*
%TO.P,BME680,4,Pin_4*%
%TO.N,gnd*%
X29780000Y22080000D03*
%TD*%
D13*
%TO.N,gnd*%
X4380000Y24620000D03*
X17080000Y24620000D03*
X22160000Y56370000D03*
X22160000Y43670000D03*
X10730000Y18270000D03*
X45020000Y24620000D03*
X38670000Y81770000D03*
X36130000Y56370000D03*
X25970000Y24620000D03*
X4380000Y11920000D03*
X38670000Y72880000D03*
X45020000Y11920000D03*
X18350000Y69070000D03*
X10730000Y5570000D03*
X10730000Y56370000D03*
X10730000Y69070000D03*
X10730000Y43670000D03*
X40575000Y51290000D03*
X32320000Y11920000D03*
X28510000Y50020000D03*
X46290000Y51290000D03*
X4380000Y75420000D03*
X4380000Y50020000D03*
X45020000Y37320000D03*
X28510000Y37320000D03*
X4380000Y37320000D03*
X46290000Y66530000D03*
X38670000Y5570000D03*
X25970000Y8110000D03*
X18350000Y81770000D03*
X38670000Y18270000D03*
X28510000Y81770000D03*
X41210000Y63990000D03*
X10730000Y30970000D03*
X28510000Y62720000D03*
X4380000Y62720000D03*
X10730000Y81770000D03*
X38670000Y30970000D03*
X17080000Y11920000D03*
X36130000Y43670000D03*
X22160000Y30970000D03*
%TD*%
D14*
%TO.N,vbus*%
X22160000Y6840000D02*
X22160000Y14460000D01*
D15*
%TO.N,scl*%
X24700000Y14460000D02*
X24700000Y6840000D01*
X29780000Y17000000D02*
X31280450Y17000000D01*
X31280450Y17000000D02*
X33590000Y19309550D01*
X33590000Y30970000D02*
X32320000Y32240000D01*
X33590000Y19309550D02*
X33590000Y30970000D01*
X22160000Y17000000D02*
X24700000Y14460000D01*
%TO.N,sda*%
X32320000Y20985496D02*
X31050504Y19716000D01*
X32320000Y29700000D02*
X32320000Y20985496D01*
X27240000Y18270000D02*
X23430000Y22080000D01*
X29780000Y19716000D02*
X28642000Y19716000D01*
X31050504Y19716000D02*
X29780000Y19716000D01*
X27240000Y18314000D02*
X27240000Y18270000D01*
X23430000Y22080000D02*
X22160000Y22080000D01*
X29780000Y19540000D02*
X29780000Y19716000D01*
X28642000Y19716000D02*
X27240000Y18314000D01*
X27240000Y6840000D02*
X27240000Y18270000D01*
D14*
%TO.N,adc_vref*%
X45020000Y52560000D02*
X42480000Y50020000D01*
X42480000Y65260000D02*
X45020000Y62720000D01*
X45020000Y62720000D02*
X45020000Y52560000D01*
%TD*%
%TA.AperFunction,Conductor*%
%TO.N,gnd*%
G36*
X23390064Y21235257D02*
G01*
X23392899Y21232511D01*
X26578181Y18047230D01*
X26611666Y17985907D01*
X26614500Y17959549D01*
X26614500Y8115227D01*
X26594815Y8048188D01*
X26561623Y8013652D01*
X26368597Y7878495D01*
X26201505Y7711403D01*
X26071575Y7525842D01*
X26016998Y7482217D01*
X25947500Y7475023D01*
X25885145Y7506546D01*
X25868425Y7525842D01*
X25738494Y7711403D01*
X25571402Y7878494D01*
X25571401Y7878495D01*
X25378376Y8013653D01*
X25334751Y8068230D01*
X25325500Y8115228D01*
X25325500Y14377263D01*
X25327224Y14392877D01*
X25326938Y14392904D01*
X25327672Y14400667D01*
X25325500Y14469798D01*
X25325500Y14499349D01*
X25325500Y14499350D01*
X25324629Y14506241D01*
X25324172Y14512055D01*
X25322709Y14558626D01*
X25322709Y14558628D01*
X25317120Y14577863D01*
X25313174Y14596916D01*
X25310664Y14616792D01*
X25293501Y14660141D01*
X25291614Y14665654D01*
X25278617Y14710390D01*
X25278616Y14710392D01*
X25268421Y14727631D01*
X25259860Y14745107D01*
X25252486Y14763731D01*
X25252486Y14763733D01*
X25242474Y14777512D01*
X25225083Y14801450D01*
X25221900Y14806295D01*
X25198170Y14846421D01*
X25198165Y14846427D01*
X25184005Y14860587D01*
X25171370Y14875380D01*
X25159593Y14891588D01*
X25123693Y14921287D01*
X25119381Y14925210D01*
X23500237Y16544354D01*
X23466752Y16605677D01*
X23468142Y16664124D01*
X23495063Y16764592D01*
X23515659Y17000000D01*
X23495063Y17235408D01*
X23433903Y17463663D01*
X23334035Y17677829D01*
X23333591Y17678464D01*
X23198494Y17871403D01*
X23031402Y18038494D01*
X23031401Y18038495D01*
X22845842Y18168425D01*
X22845405Y18168731D01*
X22801781Y18223308D01*
X22794588Y18292807D01*
X22826110Y18355161D01*
X22845405Y18371881D01*
X23031082Y18501895D01*
X23198105Y18668918D01*
X23333600Y18862422D01*
X23433429Y19076508D01*
X23433432Y19076514D01*
X23490636Y19290000D01*
X22773347Y19290000D01*
X22706308Y19309685D01*
X22660553Y19362489D01*
X22650609Y19431647D01*
X22654369Y19448933D01*
X22660000Y19468112D01*
X22660000Y19611889D01*
X22654369Y19631067D01*
X22654370Y19700936D01*
X22692145Y19759714D01*
X22755701Y19788738D01*
X22773347Y19790000D01*
X23490636Y19790000D01*
X23490635Y19790001D01*
X23433432Y20003487D01*
X23433429Y20003493D01*
X23333600Y20217578D01*
X23333599Y20217580D01*
X23198113Y20411074D01*
X23198108Y20411080D01*
X23031078Y20578110D01*
X22845405Y20708121D01*
X22801780Y20762698D01*
X22794588Y20832196D01*
X22826110Y20894551D01*
X22845406Y20911270D01*
X22881111Y20936271D01*
X23031401Y21041505D01*
X23198495Y21208599D01*
X23203638Y21215946D01*
X23258209Y21259574D01*
X23327706Y21266774D01*
X23390064Y21235257D01*
G37*
%TD.AperFunction*%
%TA.AperFunction,Conductor*%
G36*
X48016177Y84979815D02*
G01*
X48036819Y84963181D01*
X48963182Y84036818D01*
X48996666Y83975497D01*
X48999500Y83949139D01*
X48999500Y1050862D01*
X48979815Y983823D01*
X48963181Y963181D01*
X48036819Y36819D01*
X47975496Y3334D01*
X47949138Y500D01*
X1050862Y500D01*
X983823Y20185D01*
X963181Y36819D01*
X36819Y963181D01*
X3334Y1024504D01*
X500Y1050862D01*
X500Y4232237D01*
X2525787Y4232237D01*
X2555413Y3962987D01*
X2555415Y3962976D01*
X2623926Y3700918D01*
X2623928Y3700912D01*
X2729870Y3451610D01*
X2801998Y3333425D01*
X2870979Y3220395D01*
X2870986Y3220385D01*
X3044253Y3012181D01*
X3044259Y3012176D01*
X3245998Y2831418D01*
X3471910Y2681956D01*
X3717176Y2566980D01*
X3717183Y2566978D01*
X3717185Y2566977D01*
X3976557Y2488943D01*
X3976564Y2488942D01*
X3976569Y2488940D01*
X4244561Y2449500D01*
X4244566Y2449500D01*
X4447636Y2449500D01*
X4499133Y2453270D01*
X4650156Y2464323D01*
X4762758Y2489407D01*
X4914546Y2523218D01*
X4914548Y2523219D01*
X4914553Y2523220D01*
X5167558Y2619986D01*
X5403777Y2752559D01*
X5618177Y2918112D01*
X5806186Y3113119D01*
X5963799Y3333421D01*
X6037787Y3477331D01*
X6087649Y3574310D01*
X6087651Y3574316D01*
X6087656Y3574325D01*
X6175118Y3830695D01*
X6224319Y4097067D01*
X6229259Y4232237D01*
X43165787Y4232237D01*
X43195413Y3962987D01*
X43195415Y3962976D01*
X43263926Y3700918D01*
X43263928Y3700912D01*
X43369870Y3451610D01*
X43441998Y3333425D01*
X43510979Y3220395D01*
X43510986Y3220385D01*
X43684253Y3012181D01*
X43684259Y3012176D01*
X43885998Y2831418D01*
X44111910Y2681956D01*
X44357176Y2566980D01*
X44357183Y2566978D01*
X44357185Y2566977D01*
X44616557Y2488943D01*
X44616564Y2488942D01*
X44616569Y2488940D01*
X44884561Y2449500D01*
X44884566Y2449500D01*
X45087636Y2449500D01*
X45139133Y2453270D01*
X45290156Y2464323D01*
X45402758Y2489407D01*
X45554546Y2523218D01*
X45554548Y2523219D01*
X45554553Y2523220D01*
X45807558Y2619986D01*
X46043777Y2752559D01*
X46258177Y2918112D01*
X46446186Y3113119D01*
X46603799Y3333421D01*
X46677787Y3477331D01*
X46727649Y3574310D01*
X46727651Y3574316D01*
X46727656Y3574325D01*
X46815118Y3830695D01*
X46864319Y4097067D01*
X46874212Y4367765D01*
X46844586Y4637018D01*
X46776072Y4899088D01*
X46670130Y5148390D01*
X46529018Y5379610D01*
X46439747Y5486881D01*
X46355746Y5587820D01*
X46355740Y5587825D01*
X46154002Y5768582D01*
X45928092Y5918043D01*
X45915771Y5923819D01*
X45682824Y6033020D01*
X45682819Y6033022D01*
X45682814Y6033024D01*
X45423442Y6111058D01*
X45423428Y6111061D01*
X45307791Y6128079D01*
X45155439Y6150500D01*
X44952369Y6150500D01*
X44952364Y6150500D01*
X44749844Y6135677D01*
X44749831Y6135675D01*
X44485453Y6076783D01*
X44485446Y6076780D01*
X44232439Y5980013D01*
X43996226Y5847443D01*
X43781822Y5681888D01*
X43593822Y5486891D01*
X43593816Y5486884D01*
X43436202Y5266581D01*
X43436199Y5266576D01*
X43312350Y5025691D01*
X43312343Y5025673D01*
X43224884Y4769315D01*
X43224881Y4769301D01*
X43175681Y4502932D01*
X43175680Y4502925D01*
X43165787Y4232237D01*
X6229259Y4232237D01*
X6234212Y4367765D01*
X6204586Y4637018D01*
X6136072Y4899088D01*
X6030130Y5148390D01*
X5889018Y5379610D01*
X5799747Y5486881D01*
X5715746Y5587820D01*
X5715740Y5587825D01*
X5514002Y5768582D01*
X5288092Y5918043D01*
X5275771Y5923819D01*
X5042824Y6033020D01*
X5042819Y6033022D01*
X5042814Y6033024D01*
X4783442Y6111058D01*
X4783428Y6111061D01*
X4667791Y6128079D01*
X4515439Y6150500D01*
X4312369Y6150500D01*
X4312364Y6150500D01*
X4109844Y6135677D01*
X4109831Y6135675D01*
X3845453Y6076783D01*
X3845446Y6076780D01*
X3592439Y5980013D01*
X3356226Y5847443D01*
X3141822Y5681888D01*
X2953822Y5486891D01*
X2953816Y5486884D01*
X2796202Y5266581D01*
X2796199Y5266576D01*
X2672350Y5025691D01*
X2672343Y5025673D01*
X2584884Y4769315D01*
X2584881Y4769301D01*
X2535681Y4502932D01*
X2535680Y4502925D01*
X2525787Y4232237D01*
X500Y4232237D01*
X500Y7090001D01*
X18269999Y7090001D01*
X18270000Y7090000D01*
X19006653Y7090000D01*
X19073692Y7070315D01*
X19119447Y7017511D01*
X19129391Y6948353D01*
X19125631Y6931067D01*
X19120000Y6911889D01*
X19120000Y6768112D01*
X19125631Y6748933D01*
X19125630Y6679064D01*
X19087855Y6620286D01*
X19024299Y6591262D01*
X19006653Y6590000D01*
X18270000Y6590000D01*
X18270000Y5942156D01*
X18276401Y5882628D01*
X18276403Y5882621D01*
X18326645Y5747914D01*
X18326649Y5747907D01*
X18412809Y5632813D01*
X18412812Y5632810D01*
X18527906Y5546650D01*
X18527913Y5546646D01*
X18662620Y5496404D01*
X18662627Y5496402D01*
X18722155Y5490001D01*
X18722172Y5490000D01*
X19370000Y5490000D01*
X19370000Y6227699D01*
X19389685Y6294738D01*
X19442489Y6340493D01*
X19511647Y6350437D01*
X19584237Y6340000D01*
X19584238Y6340000D01*
X19655762Y6340000D01*
X19655763Y6340000D01*
X19728353Y6350437D01*
X19797512Y6340493D01*
X19850315Y6294738D01*
X19870000Y6227699D01*
X19870000Y5490000D01*
X20517828Y5490000D01*
X20517844Y5490001D01*
X20577372Y5496402D01*
X20577379Y5496404D01*
X20712086Y5546646D01*
X20712093Y5546650D01*
X20827187Y5632810D01*
X20827190Y5632813D01*
X20913350Y5747907D01*
X20913354Y5747914D01*
X20962422Y5879471D01*
X21004293Y5935405D01*
X21069757Y5959822D01*
X21138030Y5944970D01*
X21166285Y5923819D01*
X21288599Y5801505D01*
X21335618Y5768582D01*
X21482165Y5665968D01*
X21482167Y5665967D01*
X21482170Y5665965D01*
X21696337Y5566097D01*
X21924592Y5504937D01*
X22095319Y5490000D01*
X22159999Y5484341D01*
X22160000Y5484341D01*
X22160001Y5484341D01*
X22224681Y5490000D01*
X22395408Y5504937D01*
X22623663Y5566097D01*
X22837830Y5665965D01*
X23031401Y5801505D01*
X23198495Y5968599D01*
X23328424Y6154158D01*
X23383002Y6197783D01*
X23452500Y6204977D01*
X23514855Y6173454D01*
X23531575Y6154158D01*
X23661500Y5968605D01*
X23661505Y5968599D01*
X23828599Y5801505D01*
X23875618Y5768582D01*
X24022165Y5665968D01*
X24022167Y5665967D01*
X24022170Y5665965D01*
X24236337Y5566097D01*
X24464592Y5504937D01*
X24635319Y5490000D01*
X24699999Y5484341D01*
X24700000Y5484341D01*
X24700001Y5484341D01*
X24764681Y5490000D01*
X24935408Y5504937D01*
X25163663Y5566097D01*
X25377830Y5665965D01*
X25571401Y5801505D01*
X25738495Y5968599D01*
X25868424Y6154158D01*
X25923002Y6197783D01*
X25992500Y6204977D01*
X26054855Y6173454D01*
X26071575Y6154158D01*
X26201500Y5968605D01*
X26201505Y5968599D01*
X26368599Y5801505D01*
X26415618Y5768582D01*
X26562165Y5665968D01*
X26562167Y5665967D01*
X26562170Y5665965D01*
X26776337Y5566097D01*
X27004592Y5504937D01*
X27175319Y5490000D01*
X27239999Y5484341D01*
X27240000Y5484341D01*
X27240001Y5484341D01*
X27304681Y5490000D01*
X27475408Y5504937D01*
X27703663Y5566097D01*
X27917830Y5665965D01*
X28111401Y5801505D01*
X28278495Y5968599D01*
X28414035Y6162170D01*
X28513903Y6376337D01*
X28575063Y6604592D01*
X28595659Y6840000D01*
X28575063Y7075408D01*
X28513903Y7303663D01*
X28414035Y7517829D01*
X28408425Y7525842D01*
X28278494Y7711403D01*
X28111402Y7878494D01*
X28111401Y7878495D01*
X27918376Y8013653D01*
X27874751Y8068230D01*
X27865500Y8115228D01*
X27865500Y18003549D01*
X27885185Y18070588D01*
X27901815Y18091226D01*
X28528981Y18718393D01*
X28590302Y18751876D01*
X28659993Y18746892D01*
X28715927Y18705021D01*
X28718210Y18701867D01*
X28741282Y18668918D01*
X28741506Y18668598D01*
X28908597Y18501507D01*
X28908603Y18501502D01*
X29094158Y18371575D01*
X29137783Y18316998D01*
X29144977Y18247500D01*
X29113454Y18185145D01*
X29094158Y18168425D01*
X28908597Y18038495D01*
X28741505Y17871403D01*
X28605965Y17677831D01*
X28605964Y17677829D01*
X28506098Y17463665D01*
X28506094Y17463656D01*
X28444938Y17235414D01*
X28444936Y17235404D01*
X28424341Y17000001D01*
X28424341Y17000000D01*
X28444936Y16764597D01*
X28444938Y16764587D01*
X28506094Y16536345D01*
X28506096Y16536341D01*
X28506097Y16536337D01*
X28552630Y16436547D01*
X28605965Y16322170D01*
X28605967Y16322166D01*
X28714281Y16167479D01*
X28741501Y16128604D01*
X28741506Y16128598D01*
X28863430Y16006674D01*
X28896915Y15945351D01*
X28891931Y15875659D01*
X28850059Y15819726D01*
X28819083Y15802811D01*
X28687669Y15753797D01*
X28687664Y15753794D01*
X28572455Y15667548D01*
X28572452Y15667545D01*
X28486206Y15552336D01*
X28486202Y15552329D01*
X28435908Y15417483D01*
X28429501Y15357884D01*
X28429501Y15357877D01*
X28429500Y15357865D01*
X28429500Y13562130D01*
X28429501Y13562124D01*
X28435908Y13502517D01*
X28486202Y13367672D01*
X28486206Y13367665D01*
X28572452Y13252456D01*
X28572455Y13252453D01*
X28687664Y13166207D01*
X28687671Y13166203D01*
X28822517Y13115909D01*
X28822516Y13115909D01*
X28829444Y13115165D01*
X28882127Y13109500D01*
X30677872Y13109501D01*
X30737483Y13115909D01*
X30872331Y13166204D01*
X30987546Y13252454D01*
X31073796Y13367669D01*
X31124091Y13502517D01*
X31130500Y13562127D01*
X31130499Y15357872D01*
X31124091Y15417483D01*
X31073796Y15552331D01*
X31073795Y15552332D01*
X31073793Y15552336D01*
X30987547Y15667545D01*
X30987544Y15667548D01*
X30872335Y15753794D01*
X30872328Y15753798D01*
X30740917Y15802811D01*
X30684983Y15844682D01*
X30660566Y15910147D01*
X30675418Y15978420D01*
X30696563Y16006668D01*
X30818495Y16128599D01*
X30953651Y16321623D01*
X31008229Y16365248D01*
X31055227Y16374500D01*
X31197707Y16374500D01*
X31213327Y16372776D01*
X31213354Y16373061D01*
X31221110Y16372329D01*
X31221117Y16372327D01*
X31290264Y16374500D01*
X31319800Y16374500D01*
X31326678Y16375370D01*
X31332491Y16375828D01*
X31379077Y16377291D01*
X31398319Y16382883D01*
X31417362Y16386826D01*
X31437242Y16389336D01*
X31480572Y16406493D01*
X31486096Y16408383D01*
X31489846Y16409473D01*
X31530840Y16421382D01*
X31548079Y16431578D01*
X31565553Y16440138D01*
X31584177Y16447512D01*
X31584177Y16447513D01*
X31584182Y16447514D01*
X31621899Y16474918D01*
X31626755Y16478108D01*
X31666870Y16501830D01*
X31681039Y16516001D01*
X31695829Y16528632D01*
X31712037Y16540406D01*
X31741749Y16576324D01*
X31745662Y16580624D01*
X33973788Y18808749D01*
X33986042Y18818564D01*
X33985859Y18818786D01*
X33991866Y18823758D01*
X33991877Y18823764D01*
X34027939Y18862166D01*
X34039227Y18874186D01*
X34049671Y18884632D01*
X34060120Y18895079D01*
X34064379Y18900572D01*
X34068152Y18904989D01*
X34100062Y18938968D01*
X34109715Y18956530D01*
X34120389Y18972780D01*
X34132673Y18988614D01*
X34151180Y19031383D01*
X34153749Y19036626D01*
X34174190Y19073808D01*
X34176197Y19077458D01*
X34181177Y19096859D01*
X34187478Y19115262D01*
X34195438Y19133654D01*
X34202730Y19179701D01*
X34203911Y19185398D01*
X34215500Y19230531D01*
X34215500Y19250567D01*
X34217027Y19269968D01*
X34220160Y19289746D01*
X34215775Y19336135D01*
X34215500Y19341973D01*
X34215500Y30887263D01*
X34217224Y30902877D01*
X34216938Y30902904D01*
X34217672Y30910667D01*
X34215500Y30979797D01*
X34215500Y31009349D01*
X34215500Y31009350D01*
X34214629Y31016241D01*
X34214172Y31022055D01*
X34212709Y31068628D01*
X34207122Y31087856D01*
X34203174Y31106916D01*
X34200664Y31126792D01*
X34183507Y31170125D01*
X34181619Y31175641D01*
X34168619Y31220388D01*
X34158418Y31237637D01*
X34149860Y31255106D01*
X34142486Y31273732D01*
X34142483Y31273736D01*
X34142483Y31273737D01*
X34115098Y31311429D01*
X34111890Y31316313D01*
X34088172Y31356418D01*
X34088163Y31356429D01*
X34074005Y31370587D01*
X34061370Y31385380D01*
X34049593Y31401588D01*
X34013693Y31431287D01*
X34009381Y31435210D01*
X33660237Y31784354D01*
X33626752Y31845677D01*
X33628142Y31904124D01*
X33655063Y32004592D01*
X33675659Y32240000D01*
X33655063Y32475408D01*
X33593903Y32703663D01*
X33494035Y32917829D01*
X33358495Y33111401D01*
X33358494Y33111403D01*
X33191402Y33278494D01*
X33191401Y33278495D01*
X33005405Y33408731D01*
X32961781Y33463308D01*
X32954588Y33532807D01*
X32986110Y33595161D01*
X33005405Y33611881D01*
X33191082Y33741895D01*
X33358105Y33908918D01*
X33493600Y34102422D01*
X33593429Y34316508D01*
X33593432Y34316514D01*
X33650636Y34530000D01*
X32933347Y34530000D01*
X32866308Y34549685D01*
X32820553Y34602489D01*
X32810609Y34671647D01*
X32814369Y34688933D01*
X32820000Y34708112D01*
X32820000Y34851889D01*
X32814369Y34871067D01*
X32814370Y34940936D01*
X32852145Y34999714D01*
X32915701Y35028738D01*
X32933347Y35030000D01*
X33650636Y35030000D01*
X33650635Y35030001D01*
X33593432Y35243487D01*
X33593429Y35243493D01*
X33493600Y35457578D01*
X33493599Y35457580D01*
X33358113Y35651074D01*
X33358108Y35651080D01*
X33191078Y35818110D01*
X33005405Y35948121D01*
X32961780Y36002698D01*
X32954588Y36072196D01*
X32986110Y36134551D01*
X33005406Y36151270D01*
X33191401Y36281505D01*
X33358495Y36448599D01*
X33494035Y36642170D01*
X33593903Y36856337D01*
X33655063Y37084592D01*
X33675659Y37320000D01*
X33655063Y37555408D01*
X33593903Y37783663D01*
X33494035Y37997829D01*
X33358495Y38191401D01*
X33358494Y38191403D01*
X33191402Y38358494D01*
X33191401Y38358495D01*
X33005842Y38488425D01*
X33005841Y38488426D01*
X32962216Y38543003D01*
X32955024Y38612502D01*
X32986546Y38674856D01*
X33005836Y38691572D01*
X33191401Y38821505D01*
X33358495Y38988599D01*
X33494035Y39182170D01*
X33593903Y39396337D01*
X33655063Y39624592D01*
X33675659Y39860000D01*
X33655063Y40095408D01*
X33593903Y40323663D01*
X33494035Y40537829D01*
X33358495Y40731401D01*
X33358494Y40731403D01*
X33191402Y40898494D01*
X33191396Y40898499D01*
X33005842Y41028425D01*
X32962217Y41083002D01*
X32955023Y41152500D01*
X32986546Y41214855D01*
X33005842Y41231575D01*
X33028026Y41247109D01*
X33191401Y41361505D01*
X33358495Y41528599D01*
X33494035Y41722170D01*
X33593903Y41936337D01*
X33655063Y42164592D01*
X33675659Y42400000D01*
X33655063Y42635408D01*
X33593903Y42863663D01*
X33494035Y43077829D01*
X33358495Y43271401D01*
X33358494Y43271403D01*
X33191402Y43438494D01*
X33191401Y43438495D01*
X33005842Y43568425D01*
X33005841Y43568426D01*
X32962216Y43623003D01*
X32955024Y43692502D01*
X32986546Y43754856D01*
X33005836Y43771572D01*
X33191401Y43901505D01*
X33358495Y44068599D01*
X33494035Y44262170D01*
X33593903Y44476337D01*
X33655063Y44704592D01*
X33675659Y44940000D01*
X33655063Y45175408D01*
X33593903Y45403663D01*
X33494035Y45617829D01*
X33358495Y45811401D01*
X33358494Y45811403D01*
X33191402Y45978494D01*
X33191401Y45978495D01*
X33005405Y46108731D01*
X32961781Y46163308D01*
X32954588Y46232807D01*
X32986110Y46295161D01*
X33005405Y46311881D01*
X33191082Y46441895D01*
X33358105Y46608918D01*
X33493600Y46802422D01*
X33593429Y47016508D01*
X33593432Y47016514D01*
X33650636Y47230000D01*
X32933347Y47230000D01*
X32866308Y47249685D01*
X32820553Y47302489D01*
X32810609Y47371647D01*
X32814369Y47388933D01*
X32820000Y47408112D01*
X32820000Y47479999D01*
X41254838Y47479999D01*
X41273450Y47267259D01*
X41273452Y47267248D01*
X41328721Y47060978D01*
X41328723Y47060974D01*
X41328724Y47060970D01*
X41349457Y47016508D01*
X41418977Y46867422D01*
X41541472Y46692479D01*
X41692478Y46541473D01*
X41692481Y46541471D01*
X41867419Y46418979D01*
X41867421Y46418978D01*
X41867420Y46418978D01*
X41931936Y46388894D01*
X42060970Y46328724D01*
X42060983Y46328721D01*
X42066064Y46326870D01*
X42065390Y46325022D01*
X42117680Y46293143D01*
X42148204Y46230293D01*
X42139903Y46160918D01*
X42095413Y46107044D01*
X42065904Y46093568D01*
X42066236Y46092658D01*
X42061140Y46090803D01*
X41867667Y46000586D01*
X41811967Y45961586D01*
X42296133Y45477420D01*
X42329618Y45416097D01*
X42324634Y45346405D01*
X42282762Y45290472D01*
X42264748Y45279255D01*
X42241956Y45267642D01*
X42241949Y45267637D01*
X42152363Y45178051D01*
X42152358Y45178044D01*
X42140745Y45155252D01*
X42092770Y45104456D01*
X42024949Y45087662D01*
X41958814Y45110200D01*
X41942580Y45123867D01*
X41458414Y45608033D01*
X41419414Y45552333D01*
X41329197Y45358860D01*
X41329194Y45358854D01*
X41273945Y45152663D01*
X41273944Y45152655D01*
X41255340Y44940003D01*
X41255340Y44939998D01*
X41273944Y44727346D01*
X41273945Y44727338D01*
X41329194Y44521147D01*
X41329197Y44521141D01*
X41419412Y44327672D01*
X41419413Y44327670D01*
X41458415Y44271970D01*
X41458415Y44271969D01*
X41942580Y44756134D01*
X42003903Y44789619D01*
X42073594Y44784635D01*
X42129528Y44742764D01*
X42140742Y44724754D01*
X42152359Y44701955D01*
X42152361Y44701953D01*
X42152363Y44701950D01*
X42241949Y44612364D01*
X42241951Y44612363D01*
X42241955Y44612359D01*
X42264747Y44600746D01*
X42315542Y44552772D01*
X42332337Y44484951D01*
X42309799Y44418816D01*
X42296132Y44402581D01*
X41811967Y43918417D01*
X41867670Y43879414D01*
X42061140Y43789198D01*
X42061146Y43789195D01*
X42267337Y43733946D01*
X42267345Y43733945D01*
X42479998Y43715340D01*
X42480002Y43715340D01*
X42692654Y43733945D01*
X42692662Y43733946D01*
X42898853Y43789195D01*
X42898859Y43789198D01*
X43092330Y43879414D01*
X43092336Y43879418D01*
X43148031Y43918416D01*
X42663866Y44402581D01*
X42630381Y44463904D01*
X42635365Y44533596D01*
X42677237Y44589529D01*
X42695245Y44600742D01*
X42718045Y44612359D01*
X42807641Y44701955D01*
X42819254Y44724748D01*
X42867225Y44775542D01*
X42935046Y44792339D01*
X43001181Y44769803D01*
X43017419Y44756134D01*
X43501584Y44271969D01*
X43540582Y44327664D01*
X43540586Y44327670D01*
X43630802Y44521141D01*
X43630805Y44521147D01*
X43686054Y44727338D01*
X43686055Y44727346D01*
X43704660Y44939998D01*
X43704660Y44940003D01*
X43686055Y45152655D01*
X43686054Y45152663D01*
X43630805Y45358854D01*
X43630802Y45358860D01*
X43540586Y45552330D01*
X43501583Y45608033D01*
X43017419Y45123868D01*
X42956096Y45090383D01*
X42886404Y45095367D01*
X42830471Y45137239D01*
X42819256Y45155249D01*
X42807641Y45178045D01*
X42807637Y45178049D01*
X42807636Y45178051D01*
X42718050Y45267637D01*
X42718047Y45267639D01*
X42718045Y45267641D01*
X42695250Y45279256D01*
X42644456Y45327229D01*
X42627661Y45395050D01*
X42650198Y45461185D01*
X42663866Y45477420D01*
X43148031Y45961585D01*
X43092330Y46000587D01*
X43092328Y46000588D01*
X42898859Y46090803D01*
X42893764Y46092658D01*
X42894455Y46094557D01*
X42842325Y46126333D01*
X42811797Y46189180D01*
X42820093Y46258556D01*
X42864579Y46312433D01*
X42894257Y46325986D01*
X42893936Y46326870D01*
X42899013Y46328720D01*
X42899030Y46328724D01*
X43092581Y46418979D01*
X43267519Y46541471D01*
X43418529Y46692481D01*
X43541021Y46867419D01*
X43631276Y47060970D01*
X43686549Y47267253D01*
X43705162Y47480000D01*
X43686549Y47692747D01*
X43631276Y47899030D01*
X43541021Y48092581D01*
X43418529Y48267519D01*
X43418527Y48267522D01*
X43267521Y48418528D01*
X43092578Y48541023D01*
X43092579Y48541023D01*
X42963547Y48601191D01*
X42899030Y48631276D01*
X42899023Y48631278D01*
X42893936Y48633130D01*
X42894703Y48635238D01*
X42843245Y48666643D01*
X42812751Y48729507D01*
X42821085Y48798878D01*
X42865601Y48852731D01*
X42894318Y48865821D01*
X42893936Y48866870D01*
X42899013Y48868720D01*
X42899030Y48868724D01*
X43092581Y48958979D01*
X43267519Y49081471D01*
X43418529Y49232481D01*
X43541021Y49407419D01*
X43631276Y49600970D01*
X43686549Y49807253D01*
X43705162Y50020000D01*
X43697023Y50113018D01*
X43710789Y50181514D01*
X43732867Y50211501D01*
X45505638Y51984273D01*
X45519267Y51996050D01*
X45538530Y52010390D01*
X45538532Y52010394D01*
X45538534Y52010394D01*
X45556663Y52032001D01*
X45572113Y52050415D01*
X45575767Y52054401D01*
X45581590Y52060223D01*
X45601923Y52085940D01*
X45651302Y52144786D01*
X45651309Y52144802D01*
X45655272Y52150824D01*
X45655324Y52150790D01*
X45659371Y52157142D01*
X45659317Y52157175D01*
X45663104Y52163316D01*
X45663110Y52163323D01*
X45695561Y52232914D01*
X45730036Y52301560D01*
X45730040Y52301567D01*
X45730042Y52301579D01*
X45732510Y52308356D01*
X45732568Y52308335D01*
X45735043Y52315454D01*
X45734985Y52315473D01*
X45737256Y52322328D01*
X45737723Y52324587D01*
X45752784Y52397533D01*
X45770500Y52472279D01*
X45770500Y52472280D01*
X45771339Y52479452D01*
X45771397Y52479446D01*
X45772164Y52486944D01*
X45772104Y52486949D01*
X45772733Y52494140D01*
X45770500Y52570897D01*
X45770500Y62656295D01*
X45771809Y62674265D01*
X45775289Y62698026D01*
X45770736Y62750061D01*
X45770500Y62755468D01*
X45770500Y62763703D01*
X45770500Y62763704D01*
X45770500Y62763709D01*
X45766691Y62796293D01*
X45759998Y62872798D01*
X45759996Y62872803D01*
X45758538Y62879867D01*
X45758597Y62879880D01*
X45756967Y62887236D01*
X45756908Y62887221D01*
X45755242Y62894247D01*
X45755241Y62894255D01*
X45728973Y62966427D01*
X45728972Y62966428D01*
X45704815Y63039334D01*
X45701763Y63045879D01*
X45701817Y63045905D01*
X45698533Y63052688D01*
X45698480Y63052660D01*
X45695238Y63059115D01*
X45695237Y63059117D01*
X45653029Y63123291D01*
X45612711Y63188656D01*
X45612710Y63188657D01*
X45612709Y63188659D01*
X45608233Y63194319D01*
X45608280Y63194357D01*
X45603519Y63200201D01*
X45603474Y63200162D01*
X45598834Y63205692D01*
X45542964Y63258404D01*
X43732870Y65068498D01*
X43699385Y65129821D01*
X43697023Y65166982D01*
X43705162Y65260000D01*
X43686549Y65472747D01*
X43631276Y65679030D01*
X43541021Y65872581D01*
X43418529Y66047519D01*
X43418527Y66047522D01*
X43267521Y66198528D01*
X43092578Y66321023D01*
X43092579Y66321023D01*
X42963547Y66381191D01*
X42899030Y66411276D01*
X42899026Y66411277D01*
X42899022Y66411279D01*
X42692752Y66466548D01*
X42692748Y66466549D01*
X42692747Y66466549D01*
X42692746Y66466550D01*
X42692741Y66466550D01*
X42480002Y66485162D01*
X42479998Y66485162D01*
X42267258Y66466550D01*
X42267247Y66466548D01*
X42060977Y66411279D01*
X42060968Y66411275D01*
X41867421Y66321023D01*
X41692478Y66198528D01*
X41541472Y66047522D01*
X41418977Y65872579D01*
X41328725Y65679032D01*
X41328721Y65679023D01*
X41273452Y65472753D01*
X41273450Y65472742D01*
X41254838Y65260002D01*
X41254838Y65259999D01*
X41273450Y65047259D01*
X41273452Y65047248D01*
X41328721Y64840978D01*
X41328723Y64840974D01*
X41328724Y64840970D01*
X41371171Y64749942D01*
X41418977Y64647422D01*
X41541472Y64472479D01*
X41692478Y64321473D01*
X41692481Y64321471D01*
X41867419Y64198979D01*
X41867421Y64198978D01*
X41867420Y64198978D01*
X41931936Y64168894D01*
X42060970Y64108724D01*
X42060983Y64108721D01*
X42066064Y64106870D01*
X42065292Y64104750D01*
X42116710Y64073406D01*
X42147237Y64010558D01*
X42138939Y63941183D01*
X42094452Y63887307D01*
X42065685Y63874170D01*
X42066064Y63873130D01*
X42060972Y63871277D01*
X42060970Y63871276D01*
X42060967Y63871275D01*
X42060968Y63871275D01*
X41867421Y63781023D01*
X41692478Y63658528D01*
X41541472Y63507522D01*
X41418977Y63332579D01*
X41328725Y63139032D01*
X41328721Y63139023D01*
X41273452Y62932753D01*
X41273450Y62932742D01*
X41254838Y62720002D01*
X41254838Y62719999D01*
X41273450Y62507259D01*
X41273452Y62507248D01*
X41328721Y62300978D01*
X41328723Y62300974D01*
X41328724Y62300970D01*
X41371171Y62209942D01*
X41418977Y62107422D01*
X41541472Y61932479D01*
X41692478Y61781473D01*
X41692481Y61781471D01*
X41867419Y61658979D01*
X41867421Y61658978D01*
X41867420Y61658978D01*
X41931936Y61628894D01*
X42060970Y61568724D01*
X42060983Y61568721D01*
X42066064Y61566870D01*
X42065390Y61565022D01*
X42117680Y61533143D01*
X42148204Y61470293D01*
X42139903Y61400918D01*
X42095413Y61347044D01*
X42065904Y61333568D01*
X42066236Y61332658D01*
X42061140Y61330803D01*
X41867667Y61240586D01*
X41811967Y61201586D01*
X42296133Y60717420D01*
X42329618Y60656097D01*
X42324634Y60586405D01*
X42282762Y60530472D01*
X42264748Y60519255D01*
X42241956Y60507642D01*
X42241949Y60507637D01*
X42152363Y60418051D01*
X42152358Y60418044D01*
X42140745Y60395252D01*
X42092770Y60344456D01*
X42024949Y60327662D01*
X41958814Y60350200D01*
X41942580Y60363867D01*
X41458414Y60848033D01*
X41419414Y60792333D01*
X41329197Y60598860D01*
X41329194Y60598854D01*
X41273945Y60392663D01*
X41273944Y60392655D01*
X41255340Y60180003D01*
X41255340Y60179998D01*
X41273944Y59967346D01*
X41273945Y59967338D01*
X41329194Y59761147D01*
X41329197Y59761141D01*
X41419412Y59567672D01*
X41419413Y59567670D01*
X41458415Y59511970D01*
X41458415Y59511969D01*
X41942580Y59996134D01*
X42003903Y60029619D01*
X42073594Y60024635D01*
X42129528Y59982764D01*
X42140742Y59964754D01*
X42152359Y59941955D01*
X42152361Y59941953D01*
X42152363Y59941950D01*
X42241949Y59852364D01*
X42241951Y59852363D01*
X42241955Y59852359D01*
X42264747Y59840746D01*
X42315542Y59792772D01*
X42332337Y59724951D01*
X42309799Y59658816D01*
X42296132Y59642581D01*
X41811967Y59158417D01*
X41867670Y59119414D01*
X42061140Y59029198D01*
X42061146Y59029195D01*
X42267337Y58973946D01*
X42267345Y58973945D01*
X42479998Y58955340D01*
X42480002Y58955340D01*
X42692654Y58973945D01*
X42692662Y58973946D01*
X42898853Y59029195D01*
X42898859Y59029198D01*
X43092330Y59119414D01*
X43092336Y59119418D01*
X43148031Y59158416D01*
X42663866Y59642581D01*
X42630381Y59703904D01*
X42635365Y59773596D01*
X42677237Y59829529D01*
X42695245Y59840742D01*
X42718045Y59852359D01*
X42807641Y59941955D01*
X42819254Y59964748D01*
X42867225Y60015542D01*
X42935046Y60032339D01*
X43001181Y60009803D01*
X43017419Y59996134D01*
X43501584Y59511969D01*
X43540582Y59567664D01*
X43540586Y59567670D01*
X43630802Y59761141D01*
X43630805Y59761147D01*
X43686054Y59967338D01*
X43686055Y59967346D01*
X43704660Y60179998D01*
X43704660Y60180003D01*
X43686055Y60392655D01*
X43686054Y60392663D01*
X43630805Y60598854D01*
X43630802Y60598860D01*
X43540586Y60792330D01*
X43501583Y60848033D01*
X43017419Y60363868D01*
X42956096Y60330383D01*
X42886404Y60335367D01*
X42830471Y60377239D01*
X42819256Y60395249D01*
X42807641Y60418045D01*
X42807637Y60418049D01*
X42807636Y60418051D01*
X42718050Y60507637D01*
X42718047Y60507639D01*
X42718045Y60507641D01*
X42695250Y60519256D01*
X42644456Y60567229D01*
X42627661Y60635050D01*
X42650198Y60701185D01*
X42663866Y60717420D01*
X43148031Y61201585D01*
X43092330Y61240587D01*
X43092328Y61240588D01*
X42898859Y61330803D01*
X42893764Y61332658D01*
X42894455Y61334557D01*
X42842325Y61366333D01*
X42811797Y61429180D01*
X42820093Y61498556D01*
X42864579Y61552433D01*
X42894257Y61565986D01*
X42893936Y61566870D01*
X42899013Y61568720D01*
X42899030Y61568724D01*
X43092581Y61658979D01*
X43267519Y61781471D01*
X43418529Y61932481D01*
X43541021Y62107419D01*
X43631276Y62300970D01*
X43686549Y62507253D01*
X43702377Y62688175D01*
X43727829Y62753242D01*
X43784420Y62794221D01*
X43854182Y62798099D01*
X43913586Y62765047D01*
X44233181Y62445452D01*
X44266666Y62384129D01*
X44269500Y62357771D01*
X44269500Y52922231D01*
X44249815Y52855192D01*
X44233181Y52834550D01*
X42671502Y51272872D01*
X42610179Y51239387D01*
X42573014Y51237025D01*
X42480002Y51245162D01*
X42479998Y51245162D01*
X42267258Y51226550D01*
X42267247Y51226548D01*
X42060977Y51171279D01*
X42060968Y51171275D01*
X41867421Y51081023D01*
X41692478Y50958528D01*
X41541472Y50807522D01*
X41418977Y50632579D01*
X41328725Y50439032D01*
X41328721Y50439023D01*
X41273452Y50232753D01*
X41273450Y50232742D01*
X41254838Y50020002D01*
X41254838Y50019999D01*
X41273450Y49807259D01*
X41273452Y49807248D01*
X41328721Y49600978D01*
X41328723Y49600974D01*
X41328724Y49600970D01*
X41371171Y49509942D01*
X41418977Y49407422D01*
X41541472Y49232479D01*
X41692478Y49081473D01*
X41692481Y49081471D01*
X41867419Y48958979D01*
X41867421Y48958978D01*
X41867420Y48958978D01*
X41931936Y48928894D01*
X42060970Y48868724D01*
X42060983Y48868721D01*
X42066064Y48866870D01*
X42065292Y48864750D01*
X42116710Y48833406D01*
X42147237Y48770558D01*
X42138939Y48701183D01*
X42094452Y48647307D01*
X42065685Y48634170D01*
X42066064Y48633130D01*
X42060972Y48631277D01*
X42060970Y48631276D01*
X42060967Y48631275D01*
X42060968Y48631275D01*
X41867421Y48541023D01*
X41692478Y48418528D01*
X41541472Y48267522D01*
X41418977Y48092579D01*
X41349455Y47943487D01*
X41331486Y47904952D01*
X41328725Y47899032D01*
X41328721Y47899023D01*
X41273452Y47692753D01*
X41273450Y47692742D01*
X41254838Y47480002D01*
X41254838Y47479999D01*
X32820000Y47479999D01*
X32820000Y47551889D01*
X32814369Y47571067D01*
X32814370Y47640936D01*
X32852145Y47699714D01*
X32915701Y47728738D01*
X32933347Y47730000D01*
X33650636Y47730000D01*
X33650635Y47730001D01*
X33593432Y47943487D01*
X33593429Y47943493D01*
X33493600Y48157578D01*
X33493599Y48157580D01*
X33358113Y48351074D01*
X33358108Y48351080D01*
X33191078Y48518110D01*
X33005405Y48648121D01*
X32961780Y48702698D01*
X32954588Y48772196D01*
X32986110Y48834551D01*
X33005406Y48851270D01*
X33007493Y48852731D01*
X33191401Y48981505D01*
X33358495Y49148599D01*
X33494035Y49342170D01*
X33593903Y49556337D01*
X33655063Y49784592D01*
X33675659Y50020000D01*
X33655063Y50255408D01*
X33593903Y50483663D01*
X33494035Y50697829D01*
X33417228Y50807522D01*
X33358494Y50891403D01*
X33191402Y51058494D01*
X33191396Y51058499D01*
X33005842Y51188425D01*
X32962217Y51243002D01*
X32955023Y51312500D01*
X32986546Y51374855D01*
X33005842Y51391575D01*
X33028026Y51407109D01*
X33191401Y51521505D01*
X33358495Y51688599D01*
X33494035Y51882170D01*
X33593903Y52096337D01*
X33655063Y52324592D01*
X33675659Y52560000D01*
X33655063Y52795408D01*
X33593903Y53023663D01*
X33494035Y53237829D01*
X33358495Y53431401D01*
X33358494Y53431403D01*
X33191402Y53598494D01*
X33191401Y53598495D01*
X33005842Y53728425D01*
X33005841Y53728426D01*
X32962216Y53783003D01*
X32955024Y53852502D01*
X32986546Y53914856D01*
X33005836Y53931572D01*
X33191401Y54061505D01*
X33358495Y54228599D01*
X33494035Y54422170D01*
X33593903Y54636337D01*
X33655063Y54864592D01*
X33675659Y55100000D01*
X33655063Y55335408D01*
X33593903Y55563663D01*
X33494035Y55777829D01*
X33358495Y55971401D01*
X33358494Y55971403D01*
X33191402Y56138494D01*
X33191396Y56138499D01*
X33005842Y56268425D01*
X32962217Y56323002D01*
X32955023Y56392500D01*
X32986546Y56454855D01*
X33005842Y56471575D01*
X33028026Y56487109D01*
X33191401Y56601505D01*
X33358495Y56768599D01*
X33494035Y56962170D01*
X33593903Y57176337D01*
X33655063Y57404592D01*
X33675659Y57640000D01*
X33655063Y57875408D01*
X33593903Y58103663D01*
X33494035Y58317829D01*
X33358495Y58511401D01*
X33358494Y58511403D01*
X33191402Y58678494D01*
X33191401Y58678495D01*
X33005405Y58808731D01*
X32961781Y58863308D01*
X32954588Y58932807D01*
X32986110Y58995161D01*
X33005405Y59011881D01*
X33191082Y59141895D01*
X33358105Y59308918D01*
X33493600Y59502422D01*
X33593429Y59716508D01*
X33593432Y59716514D01*
X33650636Y59930000D01*
X32933347Y59930000D01*
X32866308Y59949685D01*
X32820553Y60002489D01*
X32810609Y60071647D01*
X32814369Y60088933D01*
X32820000Y60108112D01*
X32820000Y60251889D01*
X32814369Y60271067D01*
X32814370Y60340936D01*
X32852145Y60399714D01*
X32915701Y60428738D01*
X32933347Y60430000D01*
X33650636Y60430000D01*
X33650635Y60430001D01*
X33593432Y60643487D01*
X33593429Y60643493D01*
X33493600Y60857578D01*
X33493599Y60857580D01*
X33358113Y61051074D01*
X33358108Y61051080D01*
X33191078Y61218110D01*
X33005405Y61348121D01*
X32961780Y61402698D01*
X32954588Y61472196D01*
X32986110Y61534551D01*
X33005406Y61551270D01*
X33030336Y61568726D01*
X33191401Y61681505D01*
X33358495Y61848599D01*
X33494035Y62042170D01*
X33593903Y62256337D01*
X33655063Y62484592D01*
X33675659Y62720000D01*
X33655063Y62955408D01*
X33593903Y63183663D01*
X33494035Y63397829D01*
X33417228Y63507522D01*
X33358494Y63591403D01*
X33191402Y63758494D01*
X33191401Y63758495D01*
X33030335Y63871275D01*
X33005841Y63888426D01*
X32962216Y63943003D01*
X32955024Y64012502D01*
X32986546Y64074856D01*
X33005836Y64091572D01*
X33191401Y64221505D01*
X33358495Y64388599D01*
X33494035Y64582170D01*
X33593903Y64796337D01*
X33655063Y65024592D01*
X33675659Y65260000D01*
X33655063Y65495408D01*
X33593903Y65723663D01*
X33494035Y65937829D01*
X33417228Y66047522D01*
X33358494Y66131403D01*
X33191402Y66298494D01*
X33191396Y66298499D01*
X33005842Y66428425D01*
X32962217Y66483002D01*
X32955023Y66552500D01*
X32986546Y66614855D01*
X33005842Y66631575D01*
X33028026Y66647109D01*
X33191401Y66761505D01*
X33358495Y66928599D01*
X33494035Y67122170D01*
X33593903Y67336337D01*
X33655063Y67564592D01*
X33675659Y67800000D01*
X33655063Y68035408D01*
X33593903Y68263663D01*
X33494035Y68477829D01*
X33358495Y68671401D01*
X33358494Y68671403D01*
X33191402Y68838494D01*
X33191401Y68838495D01*
X33005842Y68968425D01*
X33005841Y68968426D01*
X32962216Y69023003D01*
X32955024Y69092502D01*
X32986546Y69154856D01*
X33005836Y69171572D01*
X33191401Y69301505D01*
X33358495Y69468599D01*
X33494035Y69662170D01*
X33593903Y69876337D01*
X33655063Y70104592D01*
X33675659Y70340000D01*
X33655063Y70575408D01*
X33593903Y70803663D01*
X33494035Y71017829D01*
X33358495Y71211401D01*
X33358494Y71211403D01*
X33191402Y71378494D01*
X33191401Y71378495D01*
X33005405Y71508731D01*
X32961781Y71563308D01*
X32954588Y71632807D01*
X32986110Y71695161D01*
X33005405Y71711881D01*
X33191082Y71841895D01*
X33358105Y72008918D01*
X33493600Y72202422D01*
X33593429Y72416508D01*
X33593432Y72416514D01*
X33650636Y72630000D01*
X32933347Y72630000D01*
X32866308Y72649685D01*
X32820553Y72702489D01*
X32810609Y72771647D01*
X32814369Y72788933D01*
X32820000Y72808112D01*
X32820000Y72951889D01*
X32814369Y72971067D01*
X32814370Y73040936D01*
X32852145Y73099714D01*
X32915701Y73128738D01*
X32933347Y73130000D01*
X33650636Y73130000D01*
X33650635Y73130001D01*
X33593432Y73343487D01*
X33593429Y73343493D01*
X33493600Y73557578D01*
X33493599Y73557580D01*
X33358113Y73751074D01*
X33358108Y73751080D01*
X33191078Y73918110D01*
X33005405Y74048121D01*
X32961780Y74102698D01*
X32954588Y74172196D01*
X32986110Y74234551D01*
X33005406Y74251270D01*
X33191401Y74381505D01*
X33358495Y74548599D01*
X33494035Y74742170D01*
X33593903Y74956337D01*
X33655063Y75184592D01*
X33675659Y75420000D01*
X33655063Y75655408D01*
X33593903Y75883663D01*
X33494035Y76097829D01*
X33358495Y76291401D01*
X33236567Y76413329D01*
X33203084Y76474649D01*
X33208068Y76544341D01*
X33249939Y76600275D01*
X33280915Y76617190D01*
X33412331Y76666204D01*
X33527546Y76752454D01*
X33613796Y76867669D01*
X33664091Y77002517D01*
X33670500Y77062127D01*
X33670499Y78857872D01*
X33664091Y78917483D01*
X33613796Y79052331D01*
X33613795Y79052332D01*
X33613793Y79052336D01*
X33527547Y79167545D01*
X33527544Y79167548D01*
X33412335Y79253794D01*
X33412328Y79253798D01*
X33277482Y79304092D01*
X33277483Y79304092D01*
X33217883Y79310499D01*
X33217881Y79310500D01*
X33217873Y79310500D01*
X33217864Y79310500D01*
X31422129Y79310500D01*
X31422123Y79310499D01*
X31362516Y79304092D01*
X31227671Y79253798D01*
X31227664Y79253794D01*
X31112455Y79167548D01*
X31112452Y79167545D01*
X31026206Y79052336D01*
X31026202Y79052329D01*
X30975908Y78917483D01*
X30972089Y78881956D01*
X30969501Y78857877D01*
X30969500Y78857865D01*
X30969500Y77062130D01*
X30969501Y77062124D01*
X30975908Y77002517D01*
X31026202Y76867672D01*
X31026206Y76867665D01*
X31112452Y76752456D01*
X31112455Y76752453D01*
X31227664Y76666207D01*
X31227671Y76666203D01*
X31359081Y76617190D01*
X31415015Y76575319D01*
X31439432Y76509855D01*
X31424580Y76441582D01*
X31403430Y76413327D01*
X31281503Y76291400D01*
X31145965Y76097831D01*
X31145964Y76097829D01*
X31046098Y75883665D01*
X31046094Y75883656D01*
X30984938Y75655414D01*
X30984936Y75655404D01*
X30964341Y75420001D01*
X30964341Y75420000D01*
X30984936Y75184597D01*
X30984938Y75184587D01*
X31046094Y74956345D01*
X31046096Y74956341D01*
X31046097Y74956337D01*
X31145965Y74742170D01*
X31145967Y74742166D01*
X31281501Y74548605D01*
X31281506Y74548598D01*
X31448597Y74381507D01*
X31448603Y74381502D01*
X31634594Y74251270D01*
X31678219Y74196693D01*
X31685413Y74127195D01*
X31653890Y74064840D01*
X31634595Y74048120D01*
X31448922Y73918110D01*
X31448920Y73918109D01*
X31281891Y73751080D01*
X31281886Y73751074D01*
X31146400Y73557580D01*
X31146399Y73557578D01*
X31046570Y73343493D01*
X31046567Y73343487D01*
X30989364Y73130001D01*
X30989364Y73130000D01*
X31706653Y73130000D01*
X31773692Y73110315D01*
X31819447Y73057511D01*
X31829391Y72988353D01*
X31825631Y72971067D01*
X31820000Y72951889D01*
X31820000Y72808112D01*
X31825631Y72788933D01*
X31825630Y72719064D01*
X31787855Y72660286D01*
X31724299Y72631262D01*
X31706653Y72630000D01*
X30989364Y72630000D01*
X31046567Y72416514D01*
X31046570Y72416508D01*
X31146399Y72202422D01*
X31281894Y72008918D01*
X31448917Y71841895D01*
X31634595Y71711881D01*
X31678219Y71657304D01*
X31685412Y71587805D01*
X31653890Y71525451D01*
X31634595Y71508731D01*
X31448594Y71378492D01*
X31281505Y71211403D01*
X31145965Y71017831D01*
X31145964Y71017829D01*
X31046098Y70803665D01*
X31046094Y70803656D01*
X30984938Y70575414D01*
X30984936Y70575404D01*
X30964341Y70340001D01*
X30964341Y70340000D01*
X30984936Y70104597D01*
X30984938Y70104587D01*
X31046094Y69876345D01*
X31046096Y69876341D01*
X31046097Y69876337D01*
X31145965Y69662171D01*
X31145965Y69662170D01*
X31145967Y69662166D01*
X31281501Y69468605D01*
X31281506Y69468598D01*
X31448597Y69301507D01*
X31448603Y69301502D01*
X31634158Y69171575D01*
X31677783Y69116998D01*
X31684977Y69047500D01*
X31653454Y68985145D01*
X31634158Y68968425D01*
X31448597Y68838495D01*
X31281505Y68671403D01*
X31145965Y68477831D01*
X31145964Y68477829D01*
X31046098Y68263665D01*
X31046094Y68263656D01*
X30984938Y68035414D01*
X30984936Y68035404D01*
X30964341Y67800001D01*
X30964341Y67800000D01*
X30984936Y67564597D01*
X30984938Y67564587D01*
X31046094Y67336345D01*
X31046096Y67336341D01*
X31046097Y67336337D01*
X31145964Y67122170D01*
X31145965Y67122170D01*
X31145967Y67122166D01*
X31281501Y66928605D01*
X31281506Y66928598D01*
X31448597Y66761507D01*
X31448603Y66761502D01*
X31634158Y66631575D01*
X31677783Y66576998D01*
X31684977Y66507500D01*
X31653454Y66445145D01*
X31634158Y66428425D01*
X31448597Y66298495D01*
X31281505Y66131403D01*
X31145965Y65937831D01*
X31145964Y65937829D01*
X31046098Y65723665D01*
X31046094Y65723656D01*
X30984938Y65495414D01*
X30984936Y65495404D01*
X30964341Y65260001D01*
X30964341Y65260000D01*
X30984936Y65024597D01*
X30984938Y65024587D01*
X31046094Y64796345D01*
X31046096Y64796341D01*
X31046097Y64796337D01*
X31115539Y64647419D01*
X31145965Y64582170D01*
X31145967Y64582166D01*
X31281501Y64388605D01*
X31281506Y64388598D01*
X31448597Y64221507D01*
X31448603Y64221502D01*
X31634158Y64091575D01*
X31677783Y64036998D01*
X31684977Y63967500D01*
X31653454Y63905145D01*
X31634158Y63888425D01*
X31448597Y63758495D01*
X31281505Y63591403D01*
X31145965Y63397831D01*
X31145964Y63397829D01*
X31046098Y63183665D01*
X31046094Y63183656D01*
X30984938Y62955414D01*
X30984936Y62955404D01*
X30964341Y62720001D01*
X30964341Y62720000D01*
X30984936Y62484597D01*
X30984938Y62484587D01*
X31046094Y62256345D01*
X31046096Y62256341D01*
X31046097Y62256337D01*
X31115539Y62107419D01*
X31145965Y62042170D01*
X31145967Y62042166D01*
X31281501Y61848605D01*
X31281506Y61848598D01*
X31448597Y61681507D01*
X31448603Y61681502D01*
X31634594Y61551270D01*
X31678219Y61496693D01*
X31685413Y61427195D01*
X31653890Y61364840D01*
X31634595Y61348120D01*
X31448922Y61218110D01*
X31448920Y61218109D01*
X31281891Y61051080D01*
X31281886Y61051074D01*
X31146400Y60857580D01*
X31146399Y60857578D01*
X31046570Y60643493D01*
X31046567Y60643487D01*
X30989364Y60430001D01*
X30989364Y60430000D01*
X31706653Y60430000D01*
X31773692Y60410315D01*
X31819447Y60357511D01*
X31829391Y60288353D01*
X31825631Y60271067D01*
X31820000Y60251889D01*
X31820000Y60108112D01*
X31825631Y60088933D01*
X31825630Y60019064D01*
X31787855Y59960286D01*
X31724299Y59931262D01*
X31706653Y59930000D01*
X30989364Y59930000D01*
X31046567Y59716514D01*
X31046570Y59716508D01*
X31146399Y59502422D01*
X31281894Y59308918D01*
X31448917Y59141895D01*
X31634595Y59011881D01*
X31678219Y58957304D01*
X31685412Y58887805D01*
X31653890Y58825451D01*
X31634595Y58808731D01*
X31448594Y58678492D01*
X31281505Y58511403D01*
X31145965Y58317831D01*
X31145964Y58317829D01*
X31046098Y58103665D01*
X31046094Y58103656D01*
X30984938Y57875414D01*
X30984936Y57875404D01*
X30964341Y57640001D01*
X30964341Y57640000D01*
X30984936Y57404597D01*
X30984938Y57404587D01*
X31046094Y57176345D01*
X31046096Y57176341D01*
X31046097Y57176337D01*
X31145965Y56962171D01*
X31145965Y56962170D01*
X31145967Y56962166D01*
X31281501Y56768605D01*
X31281506Y56768598D01*
X31448597Y56601507D01*
X31448603Y56601502D01*
X31634158Y56471575D01*
X31677783Y56416998D01*
X31684977Y56347500D01*
X31653454Y56285145D01*
X31634158Y56268425D01*
X31448597Y56138495D01*
X31281505Y55971403D01*
X31145965Y55777831D01*
X31145964Y55777829D01*
X31046098Y55563665D01*
X31046094Y55563656D01*
X30984938Y55335414D01*
X30984936Y55335404D01*
X30964341Y55100001D01*
X30964341Y55100000D01*
X30984936Y54864597D01*
X30984938Y54864587D01*
X31046094Y54636345D01*
X31046096Y54636341D01*
X31046097Y54636337D01*
X31145964Y54422171D01*
X31145965Y54422170D01*
X31145967Y54422166D01*
X31281501Y54228605D01*
X31281506Y54228598D01*
X31448597Y54061507D01*
X31448603Y54061502D01*
X31634158Y53931575D01*
X31677783Y53876998D01*
X31684977Y53807500D01*
X31653454Y53745145D01*
X31634158Y53728425D01*
X31448597Y53598495D01*
X31281505Y53431403D01*
X31145965Y53237831D01*
X31145964Y53237829D01*
X31046098Y53023665D01*
X31046094Y53023656D01*
X30984938Y52795414D01*
X30984936Y52795404D01*
X30964341Y52560001D01*
X30964341Y52560000D01*
X30984936Y52324597D01*
X30984938Y52324587D01*
X31046094Y52096345D01*
X31046096Y52096341D01*
X31046097Y52096337D01*
X31067515Y52050407D01*
X31145965Y51882170D01*
X31145967Y51882166D01*
X31281501Y51688605D01*
X31281506Y51688598D01*
X31448597Y51521507D01*
X31448603Y51521502D01*
X31634158Y51391575D01*
X31677783Y51336998D01*
X31684977Y51267500D01*
X31653454Y51205145D01*
X31634158Y51188425D01*
X31448597Y51058495D01*
X31281505Y50891403D01*
X31145965Y50697831D01*
X31145964Y50697829D01*
X31046098Y50483665D01*
X31046094Y50483656D01*
X30984938Y50255414D01*
X30984936Y50255404D01*
X30964341Y50020001D01*
X30964341Y50020000D01*
X30984936Y49784597D01*
X30984938Y49784587D01*
X31046094Y49556345D01*
X31046096Y49556341D01*
X31046097Y49556337D01*
X31115539Y49407419D01*
X31145965Y49342170D01*
X31145967Y49342166D01*
X31254281Y49187479D01*
X31281505Y49148599D01*
X31448599Y48981505D01*
X31615342Y48864750D01*
X31634594Y48851270D01*
X31678219Y48796693D01*
X31685413Y48727195D01*
X31653890Y48664840D01*
X31634595Y48648120D01*
X31448922Y48518110D01*
X31448920Y48518109D01*
X31281891Y48351080D01*
X31281886Y48351074D01*
X31146400Y48157580D01*
X31146399Y48157578D01*
X31046570Y47943493D01*
X31046567Y47943487D01*
X30989364Y47730001D01*
X30989364Y47730000D01*
X31706653Y47730000D01*
X31773692Y47710315D01*
X31819447Y47657511D01*
X31829391Y47588353D01*
X31825631Y47571067D01*
X31820000Y47551889D01*
X31820000Y47408112D01*
X31825631Y47388933D01*
X31825630Y47319064D01*
X31787855Y47260286D01*
X31724299Y47231262D01*
X31706653Y47230000D01*
X30989364Y47230000D01*
X31046567Y47016514D01*
X31046570Y47016508D01*
X31146399Y46802422D01*
X31281894Y46608918D01*
X31448917Y46441895D01*
X31634595Y46311881D01*
X31678219Y46257304D01*
X31685412Y46187805D01*
X31653890Y46125451D01*
X31634595Y46108731D01*
X31448594Y45978492D01*
X31281505Y45811403D01*
X31145965Y45617831D01*
X31145964Y45617829D01*
X31046098Y45403665D01*
X31046094Y45403656D01*
X30984938Y45175414D01*
X30984936Y45175404D01*
X30964341Y44940001D01*
X30964341Y44940000D01*
X30984936Y44704597D01*
X30984938Y44704587D01*
X31046094Y44476345D01*
X31046096Y44476341D01*
X31046097Y44476337D01*
X31051895Y44463904D01*
X31145965Y44262170D01*
X31145967Y44262166D01*
X31281501Y44068605D01*
X31281506Y44068598D01*
X31448597Y43901507D01*
X31448603Y43901502D01*
X31634158Y43771575D01*
X31677783Y43716998D01*
X31684977Y43647500D01*
X31653454Y43585145D01*
X31634158Y43568425D01*
X31448597Y43438495D01*
X31281505Y43271403D01*
X31145965Y43077831D01*
X31145964Y43077829D01*
X31046098Y42863665D01*
X31046094Y42863656D01*
X30984938Y42635414D01*
X30984936Y42635404D01*
X30964341Y42400001D01*
X30964341Y42400000D01*
X30984936Y42164597D01*
X30984938Y42164587D01*
X31046094Y41936345D01*
X31046096Y41936341D01*
X31046097Y41936337D01*
X31145965Y41722170D01*
X31145967Y41722166D01*
X31281501Y41528605D01*
X31281506Y41528598D01*
X31448597Y41361507D01*
X31448603Y41361502D01*
X31634158Y41231575D01*
X31677783Y41176998D01*
X31684977Y41107500D01*
X31653454Y41045145D01*
X31634158Y41028425D01*
X31448597Y40898495D01*
X31281505Y40731403D01*
X31145965Y40537831D01*
X31145964Y40537829D01*
X31046098Y40323665D01*
X31046094Y40323656D01*
X30984938Y40095414D01*
X30984936Y40095404D01*
X30964341Y39860001D01*
X30964341Y39860000D01*
X30984936Y39624597D01*
X30984938Y39624587D01*
X31046094Y39396345D01*
X31046096Y39396341D01*
X31046097Y39396337D01*
X31145964Y39182171D01*
X31145965Y39182170D01*
X31145967Y39182166D01*
X31281501Y38988605D01*
X31281506Y38988598D01*
X31448597Y38821507D01*
X31448603Y38821502D01*
X31634158Y38691575D01*
X31677783Y38636998D01*
X31684977Y38567500D01*
X31653454Y38505145D01*
X31634158Y38488425D01*
X31448597Y38358495D01*
X31281505Y38191403D01*
X31145965Y37997831D01*
X31145964Y37997829D01*
X31046098Y37783665D01*
X31046094Y37783656D01*
X30984938Y37555414D01*
X30984936Y37555404D01*
X30964341Y37320001D01*
X30964341Y37320000D01*
X30984936Y37084597D01*
X30984938Y37084587D01*
X31046094Y36856345D01*
X31046096Y36856341D01*
X31046097Y36856337D01*
X31145965Y36642171D01*
X31145965Y36642170D01*
X31145967Y36642166D01*
X31281501Y36448605D01*
X31281506Y36448598D01*
X31448597Y36281507D01*
X31448603Y36281502D01*
X31634594Y36151270D01*
X31678219Y36096693D01*
X31685413Y36027195D01*
X31653890Y35964840D01*
X31634595Y35948120D01*
X31448922Y35818110D01*
X31448920Y35818109D01*
X31281891Y35651080D01*
X31281886Y35651074D01*
X31146400Y35457580D01*
X31146399Y35457578D01*
X31046570Y35243493D01*
X31046567Y35243487D01*
X30989364Y35030001D01*
X30989364Y35030000D01*
X31706653Y35030000D01*
X31773692Y35010315D01*
X31819447Y34957511D01*
X31829391Y34888353D01*
X31825631Y34871067D01*
X31820000Y34851889D01*
X31820000Y34708112D01*
X31825631Y34688933D01*
X31825630Y34619064D01*
X31787855Y34560286D01*
X31724299Y34531262D01*
X31706653Y34530000D01*
X30989364Y34530000D01*
X31046567Y34316514D01*
X31046570Y34316508D01*
X31146399Y34102422D01*
X31281894Y33908918D01*
X31448917Y33741895D01*
X31634595Y33611881D01*
X31678219Y33557304D01*
X31685412Y33487805D01*
X31653890Y33425451D01*
X31634595Y33408731D01*
X31448594Y33278492D01*
X31281505Y33111403D01*
X31145965Y32917831D01*
X31145964Y32917829D01*
X31046098Y32703665D01*
X31046094Y32703656D01*
X30984938Y32475414D01*
X30984936Y32475404D01*
X30964341Y32240001D01*
X30964341Y32240000D01*
X30984936Y32004597D01*
X30984938Y32004587D01*
X31046094Y31776345D01*
X31046096Y31776341D01*
X31046097Y31776337D01*
X31145965Y31562170D01*
X31145967Y31562166D01*
X31281501Y31368605D01*
X31281506Y31368598D01*
X31448597Y31201507D01*
X31448603Y31201502D01*
X31634158Y31071575D01*
X31677783Y31016998D01*
X31684977Y30947500D01*
X31653454Y30885145D01*
X31634158Y30868425D01*
X31448597Y30738495D01*
X31281505Y30571403D01*
X31145965Y30377831D01*
X31145964Y30377829D01*
X31046098Y30163665D01*
X31046094Y30163656D01*
X30984938Y29935414D01*
X30984936Y29935404D01*
X30964341Y29700001D01*
X30964341Y29700000D01*
X30984936Y29464597D01*
X30984938Y29464587D01*
X31046094Y29236345D01*
X31046096Y29236341D01*
X31046097Y29236337D01*
X31145964Y29022171D01*
X31145965Y29022170D01*
X31145967Y29022166D01*
X31254281Y28867479D01*
X31281505Y28828599D01*
X31448599Y28661505D01*
X31641624Y28526347D01*
X31685248Y28471772D01*
X31694500Y28424774D01*
X31694500Y21295950D01*
X31674815Y21228911D01*
X31658181Y21208269D01*
X30927585Y20477674D01*
X30866262Y20444189D01*
X30796570Y20449173D01*
X30752223Y20477673D01*
X30707614Y20522282D01*
X30651401Y20578495D01*
X30528488Y20664560D01*
X30465405Y20708731D01*
X30421781Y20763308D01*
X30414588Y20832807D01*
X30446110Y20895161D01*
X30465405Y20911881D01*
X30651082Y21041895D01*
X30818105Y21208918D01*
X30953600Y21402422D01*
X31053429Y21616508D01*
X31053432Y21616514D01*
X31110636Y21830000D01*
X30393347Y21830000D01*
X30326308Y21849685D01*
X30280553Y21902489D01*
X30270609Y21971647D01*
X30274369Y21988933D01*
X30280000Y22008112D01*
X30280000Y22151889D01*
X30274369Y22171067D01*
X30274370Y22240936D01*
X30312145Y22299714D01*
X30375701Y22328738D01*
X30393347Y22330000D01*
X31110636Y22330000D01*
X31110635Y22330001D01*
X31053432Y22543487D01*
X31053429Y22543493D01*
X30953600Y22757578D01*
X30953599Y22757580D01*
X30818113Y22951074D01*
X30818108Y22951080D01*
X30651082Y23118106D01*
X30457578Y23253601D01*
X30243492Y23353430D01*
X30243486Y23353433D01*
X30030000Y23410636D01*
X30030000Y22692302D01*
X30010315Y22625263D01*
X29957511Y22579508D01*
X29888355Y22569564D01*
X29815766Y22580000D01*
X29815763Y22580000D01*
X29744237Y22580000D01*
X29744233Y22580000D01*
X29671645Y22569564D01*
X29602487Y22579508D01*
X29549684Y22625264D01*
X29530000Y22692302D01*
X29530000Y23410636D01*
X29529999Y23410636D01*
X29316513Y23353433D01*
X29316507Y23353430D01*
X29102422Y23253601D01*
X29102420Y23253600D01*
X28908926Y23118114D01*
X28908920Y23118109D01*
X28741891Y22951080D01*
X28741886Y22951074D01*
X28606400Y22757580D01*
X28606399Y22757578D01*
X28506570Y22543493D01*
X28506567Y22543487D01*
X28449364Y22330001D01*
X28449364Y22330000D01*
X29166653Y22330000D01*
X29233692Y22310315D01*
X29279447Y22257511D01*
X29289391Y22188353D01*
X29285631Y22171067D01*
X29280000Y22151889D01*
X29280000Y22008112D01*
X29285631Y21988933D01*
X29285630Y21919064D01*
X29247855Y21860286D01*
X29184299Y21831262D01*
X29166653Y21830000D01*
X28449364Y21830000D01*
X28506567Y21616514D01*
X28506570Y21616508D01*
X28606399Y21402422D01*
X28741894Y21208918D01*
X28908917Y21041895D01*
X29094595Y20911881D01*
X29138219Y20857304D01*
X29145412Y20787805D01*
X29113890Y20725451D01*
X29094595Y20708731D01*
X28908594Y20578492D01*
X28741508Y20411405D01*
X28741503Y20411399D01*
X28729583Y20394375D01*
X28675005Y20350751D01*
X28628009Y20341500D01*
X28602650Y20341500D01*
X28601929Y20341410D01*
X28595757Y20340631D01*
X28589945Y20340174D01*
X28543372Y20338710D01*
X28543369Y20338709D01*
X28524126Y20333119D01*
X28505083Y20329175D01*
X28485204Y20326664D01*
X28485203Y20326663D01*
X28441878Y20309510D01*
X28436352Y20307618D01*
X28391608Y20294617D01*
X28391604Y20294615D01*
X28374365Y20284420D01*
X28356898Y20275863D01*
X28338269Y20268488D01*
X28338267Y20268487D01*
X28300564Y20241094D01*
X28295682Y20237888D01*
X28255580Y20214172D01*
X28241408Y20200000D01*
X28226623Y20187372D01*
X28210412Y20175593D01*
X28180709Y20139690D01*
X28176777Y20135369D01*
X27305680Y19264273D01*
X27244357Y19230788D01*
X27174665Y19235772D01*
X27130318Y19264273D01*
X23930803Y22463788D01*
X23920980Y22476050D01*
X23920759Y22475866D01*
X23915786Y22481877D01*
X23865364Y22529227D01*
X23850926Y22543665D01*
X23844475Y22550117D01*
X23838986Y22554375D01*
X23834561Y22558153D01*
X23800582Y22590062D01*
X23800580Y22590064D01*
X23800577Y22590065D01*
X23783029Y22599712D01*
X23766763Y22610396D01*
X23750933Y22622675D01*
X23708168Y22641182D01*
X23702922Y22643752D01*
X23662093Y22666197D01*
X23662092Y22666198D01*
X23642693Y22671178D01*
X23624281Y22677482D01*
X23605898Y22685438D01*
X23605892Y22685440D01*
X23559874Y22692728D01*
X23554152Y22693913D01*
X23509021Y22705500D01*
X23509019Y22705500D01*
X23488984Y22705500D01*
X23469586Y22707027D01*
X23462162Y22708203D01*
X23449805Y22710160D01*
X23449803Y22710161D01*
X23444376Y22709647D01*
X23375782Y22722936D01*
X23331133Y22761974D01*
X23198494Y22951403D01*
X23031402Y23118494D01*
X23031395Y23118499D01*
X22837834Y23254033D01*
X22837830Y23254035D01*
X22837828Y23254036D01*
X22623663Y23353903D01*
X22623659Y23353904D01*
X22623655Y23353906D01*
X22395413Y23415062D01*
X22395403Y23415064D01*
X22160001Y23435659D01*
X22159999Y23435659D01*
X21924596Y23415064D01*
X21924586Y23415062D01*
X21696344Y23353906D01*
X21696335Y23353902D01*
X21482171Y23254036D01*
X21482169Y23254035D01*
X21288597Y23118495D01*
X21121505Y22951403D01*
X20985965Y22757831D01*
X20985964Y22757829D01*
X20886098Y22543665D01*
X20886094Y22543656D01*
X20824938Y22315414D01*
X20824936Y22315404D01*
X20804341Y22080001D01*
X20804341Y22080000D01*
X20824936Y21844597D01*
X20824938Y21844587D01*
X20886094Y21616345D01*
X20886096Y21616341D01*
X20886097Y21616337D01*
X20985847Y21402422D01*
X20985965Y21402170D01*
X20985967Y21402166D01*
X21121501Y21208605D01*
X21121506Y21208598D01*
X21288597Y21041507D01*
X21288603Y21041502D01*
X21474594Y20911270D01*
X21518219Y20856693D01*
X21525413Y20787195D01*
X21493890Y20724840D01*
X21474595Y20708120D01*
X21288922Y20578110D01*
X21288920Y20578109D01*
X21121891Y20411080D01*
X21121886Y20411074D01*
X20986400Y20217580D01*
X20986399Y20217578D01*
X20886570Y20003493D01*
X20886567Y20003487D01*
X20829364Y19790001D01*
X20829364Y19790000D01*
X21546653Y19790000D01*
X21613692Y19770315D01*
X21659447Y19717511D01*
X21669391Y19648353D01*
X21665631Y19631067D01*
X21660000Y19611889D01*
X21660000Y19468112D01*
X21665631Y19448933D01*
X21665630Y19379064D01*
X21627855Y19320286D01*
X21564299Y19291262D01*
X21546653Y19290000D01*
X20829364Y19290000D01*
X20886567Y19076514D01*
X20886570Y19076508D01*
X20986399Y18862422D01*
X21121894Y18668918D01*
X21288917Y18501895D01*
X21474595Y18371881D01*
X21518219Y18317304D01*
X21525412Y18247805D01*
X21493890Y18185451D01*
X21474595Y18168731D01*
X21288594Y18038492D01*
X21121505Y17871403D01*
X20985965Y17677831D01*
X20985964Y17677829D01*
X20886098Y17463665D01*
X20886094Y17463656D01*
X20824938Y17235414D01*
X20824936Y17235404D01*
X20804341Y17000001D01*
X20804341Y17000000D01*
X20824936Y16764597D01*
X20824938Y16764587D01*
X20886094Y16536345D01*
X20886096Y16536341D01*
X20886097Y16536337D01*
X20932630Y16436547D01*
X20985965Y16322170D01*
X20985967Y16322166D01*
X21094281Y16167479D01*
X21121501Y16128604D01*
X21121506Y16128598D01*
X21243430Y16006674D01*
X21276915Y15945351D01*
X21271931Y15875659D01*
X21230059Y15819726D01*
X21199083Y15802811D01*
X21067669Y15753797D01*
X21067664Y15753794D01*
X20952455Y15667548D01*
X20952452Y15667545D01*
X20866206Y15552336D01*
X20866202Y15552329D01*
X20815908Y15417483D01*
X20809501Y15357884D01*
X20809501Y15357877D01*
X20809500Y15357865D01*
X20809500Y13562130D01*
X20809501Y13562124D01*
X20815908Y13502517D01*
X20866202Y13367672D01*
X20866206Y13367665D01*
X20952452Y13252456D01*
X20952455Y13252453D01*
X21067664Y13166207D01*
X21067671Y13166203D01*
X21112618Y13149440D01*
X21202517Y13115909D01*
X21262127Y13109500D01*
X21285497Y13109501D01*
X21352536Y13089819D01*
X21398292Y13037017D01*
X21409500Y12985501D01*
X21409500Y8027702D01*
X21389815Y7960663D01*
X21356625Y7926128D01*
X21288599Y7878495D01*
X21166284Y7756181D01*
X21104960Y7722697D01*
X21035269Y7727682D01*
X20979335Y7769553D01*
X20962421Y7800530D01*
X20913354Y7932087D01*
X20913350Y7932094D01*
X20827190Y8047188D01*
X20827187Y8047191D01*
X20712093Y8133351D01*
X20712086Y8133355D01*
X20577379Y8183597D01*
X20577372Y8183599D01*
X20517844Y8190000D01*
X19870000Y8190000D01*
X19870000Y7452302D01*
X19850315Y7385263D01*
X19797511Y7339508D01*
X19728355Y7329564D01*
X19655766Y7340000D01*
X19655763Y7340000D01*
X19584237Y7340000D01*
X19584233Y7340000D01*
X19511645Y7329564D01*
X19442487Y7339508D01*
X19389684Y7385264D01*
X19370000Y7452302D01*
X19370000Y8190000D01*
X18722155Y8190000D01*
X18662627Y8183599D01*
X18662620Y8183597D01*
X18527913Y8133355D01*
X18527906Y8133351D01*
X18412812Y8047191D01*
X18412809Y8047188D01*
X18326649Y7932094D01*
X18326645Y7932087D01*
X18276403Y7797380D01*
X18276401Y7797373D01*
X18270000Y7737845D01*
X18270000Y7737828D01*
X18269999Y7090001D01*
X500Y7090001D01*
X500Y29700000D01*
X13184341Y29700000D01*
X13204936Y29464597D01*
X13204938Y29464587D01*
X13266094Y29236345D01*
X13266096Y29236341D01*
X13266097Y29236337D01*
X13365965Y29022171D01*
X13365965Y29022170D01*
X13365967Y29022166D01*
X13474281Y28867479D01*
X13501505Y28828599D01*
X13668599Y28661505D01*
X13765384Y28593736D01*
X13862165Y28525968D01*
X13862167Y28525967D01*
X13862170Y28525965D01*
X14076337Y28426097D01*
X14076343Y28426096D01*
X14076344Y28426095D01*
X14131285Y28411374D01*
X14304592Y28364937D01*
X14492918Y28348461D01*
X14539999Y28344341D01*
X14540000Y28344341D01*
X14540001Y28344341D01*
X14579234Y28347774D01*
X14775408Y28364937D01*
X15003663Y28426097D01*
X15217830Y28525965D01*
X15411401Y28661505D01*
X15578495Y28828599D01*
X15714035Y29022170D01*
X15813903Y29236337D01*
X15875063Y29464592D01*
X15895659Y29700000D01*
X15875063Y29935408D01*
X15813903Y30163663D01*
X15714035Y30377829D01*
X15578495Y30571401D01*
X15578494Y30571403D01*
X15411402Y30738494D01*
X15411396Y30738499D01*
X15225842Y30868425D01*
X15182217Y30923002D01*
X15175023Y30992500D01*
X15206546Y31054855D01*
X15225842Y31071575D01*
X15304700Y31126792D01*
X15411401Y31201505D01*
X15578495Y31368599D01*
X15714035Y31562170D01*
X15813903Y31776337D01*
X15875063Y32004592D01*
X15895659Y32240000D01*
X15875063Y32475408D01*
X15813903Y32703663D01*
X15714035Y32917829D01*
X15578495Y33111401D01*
X15578494Y33111403D01*
X15411402Y33278494D01*
X15411401Y33278495D01*
X15225405Y33408731D01*
X15181781Y33463308D01*
X15174588Y33532807D01*
X15206110Y33595161D01*
X15225405Y33611881D01*
X15411082Y33741895D01*
X15578105Y33908918D01*
X15713600Y34102422D01*
X15813429Y34316508D01*
X15813432Y34316514D01*
X15870636Y34530000D01*
X15153347Y34530000D01*
X15086308Y34549685D01*
X15040553Y34602489D01*
X15030609Y34671647D01*
X15034369Y34688933D01*
X15040000Y34708112D01*
X15040000Y34851889D01*
X15034369Y34871067D01*
X15034370Y34940936D01*
X15072145Y34999714D01*
X15135701Y35028738D01*
X15153347Y35030000D01*
X15870636Y35030000D01*
X15870635Y35030001D01*
X15813432Y35243487D01*
X15813429Y35243493D01*
X15713600Y35457578D01*
X15713599Y35457580D01*
X15578113Y35651074D01*
X15578108Y35651080D01*
X15411078Y35818110D01*
X15225405Y35948121D01*
X15181780Y36002698D01*
X15174588Y36072196D01*
X15206110Y36134551D01*
X15225406Y36151270D01*
X15411401Y36281505D01*
X15578495Y36448599D01*
X15714035Y36642170D01*
X15813903Y36856337D01*
X15875063Y37084592D01*
X15895659Y37320000D01*
X15875063Y37555408D01*
X15813903Y37783663D01*
X15714035Y37997829D01*
X15578495Y38191401D01*
X15578494Y38191403D01*
X15411402Y38358494D01*
X15411401Y38358495D01*
X15225842Y38488425D01*
X15225841Y38488426D01*
X15182216Y38543003D01*
X15175024Y38612502D01*
X15206546Y38674856D01*
X15225836Y38691572D01*
X15411401Y38821505D01*
X15578495Y38988599D01*
X15714035Y39182170D01*
X15813903Y39396337D01*
X15875063Y39624592D01*
X15895659Y39860000D01*
X15875063Y40095408D01*
X15813903Y40323663D01*
X15714035Y40537829D01*
X15578495Y40731401D01*
X15578494Y40731403D01*
X15411402Y40898494D01*
X15411396Y40898499D01*
X15225842Y41028425D01*
X15182217Y41083002D01*
X15175023Y41152500D01*
X15206546Y41214855D01*
X15225842Y41231575D01*
X15248026Y41247109D01*
X15411401Y41361505D01*
X15578495Y41528599D01*
X15714035Y41722170D01*
X15813903Y41936337D01*
X15875063Y42164592D01*
X15895659Y42400000D01*
X15875063Y42635408D01*
X15813903Y42863663D01*
X15714035Y43077829D01*
X15578495Y43271401D01*
X15578494Y43271403D01*
X15411402Y43438494D01*
X15411401Y43438495D01*
X15225842Y43568425D01*
X15225841Y43568426D01*
X15182216Y43623003D01*
X15175024Y43692502D01*
X15206546Y43754856D01*
X15225836Y43771572D01*
X15411401Y43901505D01*
X15578495Y44068599D01*
X15714035Y44262170D01*
X15813903Y44476337D01*
X15875063Y44704592D01*
X15895659Y44940000D01*
X15875063Y45175408D01*
X15813903Y45403663D01*
X15714035Y45617829D01*
X15578495Y45811401D01*
X15578494Y45811403D01*
X15411402Y45978494D01*
X15411401Y45978495D01*
X15225405Y46108731D01*
X15181781Y46163308D01*
X15174588Y46232807D01*
X15206110Y46295161D01*
X15225405Y46311881D01*
X15411082Y46441895D01*
X15578105Y46608918D01*
X15713600Y46802422D01*
X15813429Y47016508D01*
X15813432Y47016514D01*
X15870636Y47230000D01*
X15153347Y47230000D01*
X15086308Y47249685D01*
X15040553Y47302489D01*
X15030609Y47371647D01*
X15034369Y47388933D01*
X15040000Y47408112D01*
X15040000Y47551889D01*
X15034369Y47571067D01*
X15034370Y47640936D01*
X15072145Y47699714D01*
X15135701Y47728738D01*
X15153347Y47730000D01*
X15870636Y47730000D01*
X15870635Y47730001D01*
X15813432Y47943487D01*
X15813429Y47943493D01*
X15713600Y48157578D01*
X15713599Y48157580D01*
X15578113Y48351074D01*
X15578108Y48351080D01*
X15411078Y48518110D01*
X15225405Y48648121D01*
X15181780Y48702698D01*
X15174588Y48772196D01*
X15206110Y48834551D01*
X15225406Y48851270D01*
X15227493Y48852731D01*
X15411401Y48981505D01*
X15578495Y49148599D01*
X15714035Y49342170D01*
X15813903Y49556337D01*
X15875063Y49784592D01*
X15895659Y50020000D01*
X15875063Y50255408D01*
X15813903Y50483663D01*
X15714035Y50697829D01*
X15637228Y50807522D01*
X15578494Y50891403D01*
X15411402Y51058494D01*
X15411396Y51058499D01*
X15225842Y51188425D01*
X15182217Y51243002D01*
X15175023Y51312500D01*
X15206546Y51374855D01*
X15225842Y51391575D01*
X15248026Y51407109D01*
X15411401Y51521505D01*
X15578495Y51688599D01*
X15714035Y51882170D01*
X15813903Y52096337D01*
X15875063Y52324592D01*
X15895659Y52560000D01*
X15875063Y52795408D01*
X15813903Y53023663D01*
X15714035Y53237829D01*
X15578495Y53431401D01*
X15578494Y53431403D01*
X15411402Y53598494D01*
X15411401Y53598495D01*
X15225842Y53728425D01*
X15225841Y53728426D01*
X15182216Y53783003D01*
X15175024Y53852502D01*
X15206546Y53914856D01*
X15225836Y53931572D01*
X15411401Y54061505D01*
X15578495Y54228599D01*
X15714035Y54422170D01*
X15813903Y54636337D01*
X15875063Y54864592D01*
X15895659Y55100000D01*
X15875063Y55335408D01*
X15813903Y55563663D01*
X15714035Y55777829D01*
X15578495Y55971401D01*
X15578494Y55971403D01*
X15411402Y56138494D01*
X15411396Y56138499D01*
X15225842Y56268425D01*
X15182217Y56323002D01*
X15175023Y56392500D01*
X15206546Y56454855D01*
X15225842Y56471575D01*
X15248026Y56487109D01*
X15411401Y56601505D01*
X15578495Y56768599D01*
X15714035Y56962170D01*
X15813903Y57176337D01*
X15875063Y57404592D01*
X15895659Y57640000D01*
X15875063Y57875408D01*
X15813903Y58103663D01*
X15714035Y58317829D01*
X15578495Y58511401D01*
X15578494Y58511403D01*
X15411402Y58678494D01*
X15411401Y58678495D01*
X15225405Y58808731D01*
X15181781Y58863308D01*
X15174588Y58932807D01*
X15206110Y58995161D01*
X15225405Y59011881D01*
X15411082Y59141895D01*
X15578105Y59308918D01*
X15713600Y59502422D01*
X15813429Y59716508D01*
X15813432Y59716514D01*
X15870636Y59930000D01*
X15153347Y59930000D01*
X15086308Y59949685D01*
X15040553Y60002489D01*
X15030609Y60071647D01*
X15034369Y60088933D01*
X15040000Y60108112D01*
X15040000Y60251889D01*
X15034369Y60271067D01*
X15034370Y60340936D01*
X15072145Y60399714D01*
X15135701Y60428738D01*
X15153347Y60430000D01*
X15870636Y60430000D01*
X15870635Y60430001D01*
X15813432Y60643487D01*
X15813429Y60643493D01*
X15713600Y60857578D01*
X15713599Y60857580D01*
X15578113Y61051074D01*
X15578108Y61051080D01*
X15411078Y61218110D01*
X15225405Y61348121D01*
X15181780Y61402698D01*
X15174588Y61472196D01*
X15206110Y61534551D01*
X15225406Y61551270D01*
X15250336Y61568726D01*
X15411401Y61681505D01*
X15578495Y61848599D01*
X15714035Y62042170D01*
X15813903Y62256337D01*
X15875063Y62484592D01*
X15895659Y62720000D01*
X15875063Y62955408D01*
X15813903Y63183663D01*
X15714035Y63397829D01*
X15637228Y63507522D01*
X15578494Y63591403D01*
X15411402Y63758494D01*
X15411396Y63758499D01*
X15225842Y63888425D01*
X15182217Y63943002D01*
X15175023Y64012500D01*
X15206546Y64074855D01*
X15225842Y64091575D01*
X15379229Y64198978D01*
X15411401Y64221505D01*
X15578495Y64388599D01*
X15714035Y64582170D01*
X15813903Y64796337D01*
X15875063Y65024592D01*
X15895659Y65260000D01*
X15875063Y65495408D01*
X15813903Y65723663D01*
X15714035Y65937829D01*
X15637228Y66047522D01*
X15578494Y66131403D01*
X15411402Y66298494D01*
X15411396Y66298499D01*
X15225842Y66428425D01*
X15182217Y66483002D01*
X15175023Y66552500D01*
X15206546Y66614855D01*
X15225842Y66631575D01*
X15248026Y66647109D01*
X15411401Y66761505D01*
X15578495Y66928599D01*
X15714035Y67122170D01*
X15813903Y67336337D01*
X15875063Y67564592D01*
X15895659Y67800000D01*
X15875063Y68035408D01*
X15813903Y68263663D01*
X15714035Y68477829D01*
X15578495Y68671401D01*
X15578494Y68671403D01*
X15411402Y68838494D01*
X15411396Y68838499D01*
X15225842Y68968425D01*
X15182217Y69023002D01*
X15175023Y69092500D01*
X15206546Y69154855D01*
X15225842Y69171575D01*
X15248026Y69187109D01*
X15411401Y69301505D01*
X15578495Y69468599D01*
X15714035Y69662170D01*
X15813903Y69876337D01*
X15875063Y70104592D01*
X15895659Y70340000D01*
X15875063Y70575408D01*
X15813903Y70803663D01*
X15714035Y71017829D01*
X15578495Y71211401D01*
X15578494Y71211403D01*
X15411402Y71378494D01*
X15411401Y71378495D01*
X15225405Y71508731D01*
X15181781Y71563308D01*
X15174588Y71632807D01*
X15206110Y71695161D01*
X15225405Y71711881D01*
X15411082Y71841895D01*
X15578105Y72008918D01*
X15713600Y72202422D01*
X15813429Y72416508D01*
X15813432Y72416514D01*
X15870636Y72630000D01*
X15153347Y72630000D01*
X15086308Y72649685D01*
X15040553Y72702489D01*
X15030609Y72771647D01*
X15034369Y72788933D01*
X15040000Y72808112D01*
X15040000Y72951889D01*
X15034369Y72971067D01*
X15034370Y73040936D01*
X15072145Y73099714D01*
X15135701Y73128738D01*
X15153347Y73130000D01*
X15870636Y73130000D01*
X15870635Y73130001D01*
X15813432Y73343487D01*
X15813429Y73343493D01*
X15713600Y73557578D01*
X15713599Y73557580D01*
X15578113Y73751074D01*
X15578108Y73751080D01*
X15411078Y73918110D01*
X15225405Y74048121D01*
X15181780Y74102698D01*
X15174588Y74172196D01*
X15206110Y74234551D01*
X15225406Y74251270D01*
X15411401Y74381505D01*
X15578495Y74548599D01*
X15714035Y74742170D01*
X15813903Y74956337D01*
X15875063Y75184592D01*
X15895659Y75420000D01*
X15875063Y75655408D01*
X15813903Y75883663D01*
X15714035Y76097829D01*
X15578495Y76291401D01*
X15456567Y76413329D01*
X15423084Y76474649D01*
X15428068Y76544341D01*
X15469939Y76600275D01*
X15500915Y76617190D01*
X15632331Y76666204D01*
X15747546Y76752454D01*
X15833796Y76867669D01*
X15884091Y77002517D01*
X15890500Y77062127D01*
X15890499Y78857872D01*
X15884091Y78917483D01*
X15833796Y79052331D01*
X15833795Y79052332D01*
X15833793Y79052336D01*
X15747547Y79167545D01*
X15747544Y79167548D01*
X15632335Y79253794D01*
X15632328Y79253798D01*
X15497482Y79304092D01*
X15497483Y79304092D01*
X15437883Y79310499D01*
X15437881Y79310500D01*
X15437873Y79310500D01*
X15437864Y79310500D01*
X13642129Y79310500D01*
X13642123Y79310499D01*
X13582516Y79304092D01*
X13447671Y79253798D01*
X13447664Y79253794D01*
X13332455Y79167548D01*
X13332452Y79167545D01*
X13246206Y79052336D01*
X13246202Y79052329D01*
X13195908Y78917483D01*
X13192089Y78881956D01*
X13189501Y78857877D01*
X13189500Y78857865D01*
X13189500Y77062130D01*
X13189501Y77062124D01*
X13195908Y77002517D01*
X13246202Y76867672D01*
X13246206Y76867665D01*
X13332452Y76752456D01*
X13332455Y76752453D01*
X13447664Y76666207D01*
X13447671Y76666203D01*
X13579081Y76617190D01*
X13635015Y76575319D01*
X13659432Y76509855D01*
X13644580Y76441582D01*
X13623430Y76413327D01*
X13501503Y76291400D01*
X13365965Y76097831D01*
X13365964Y76097829D01*
X13266098Y75883665D01*
X13266094Y75883656D01*
X13204938Y75655414D01*
X13204936Y75655404D01*
X13184341Y75420001D01*
X13184341Y75420000D01*
X13204936Y75184597D01*
X13204938Y75184587D01*
X13266094Y74956345D01*
X13266096Y74956341D01*
X13266097Y74956337D01*
X13365965Y74742171D01*
X13365965Y74742170D01*
X13365967Y74742166D01*
X13501501Y74548605D01*
X13501506Y74548598D01*
X13668597Y74381507D01*
X13668603Y74381502D01*
X13854594Y74251270D01*
X13898219Y74196693D01*
X13905413Y74127195D01*
X13873890Y74064840D01*
X13854595Y74048120D01*
X13668922Y73918110D01*
X13668920Y73918109D01*
X13501891Y73751080D01*
X13501886Y73751074D01*
X13366400Y73557580D01*
X13366399Y73557578D01*
X13266570Y73343493D01*
X13266567Y73343487D01*
X13209364Y73130001D01*
X13209364Y73130000D01*
X13926653Y73130000D01*
X13993692Y73110315D01*
X14039447Y73057511D01*
X14049391Y72988353D01*
X14045631Y72971067D01*
X14040000Y72951889D01*
X14040000Y72808112D01*
X14045631Y72788933D01*
X14045630Y72719064D01*
X14007855Y72660286D01*
X13944299Y72631262D01*
X13926653Y72630000D01*
X13209364Y72630000D01*
X13266567Y72416514D01*
X13266570Y72416508D01*
X13366399Y72202422D01*
X13501894Y72008918D01*
X13668917Y71841895D01*
X13854595Y71711881D01*
X13898219Y71657304D01*
X13905412Y71587805D01*
X13873890Y71525451D01*
X13854595Y71508731D01*
X13668594Y71378492D01*
X13501505Y71211403D01*
X13365965Y71017831D01*
X13365964Y71017829D01*
X13266098Y70803665D01*
X13266094Y70803656D01*
X13204938Y70575414D01*
X13204936Y70575404D01*
X13184341Y70340001D01*
X13184341Y70340000D01*
X13204936Y70104597D01*
X13204938Y70104587D01*
X13266094Y69876345D01*
X13266096Y69876341D01*
X13266097Y69876337D01*
X13365965Y69662171D01*
X13365965Y69662170D01*
X13365967Y69662166D01*
X13501501Y69468605D01*
X13501506Y69468598D01*
X13668597Y69301507D01*
X13668603Y69301502D01*
X13854158Y69171575D01*
X13897783Y69116998D01*
X13904977Y69047500D01*
X13873454Y68985145D01*
X13854158Y68968425D01*
X13668597Y68838495D01*
X13501505Y68671403D01*
X13365965Y68477831D01*
X13365964Y68477829D01*
X13266098Y68263665D01*
X13266094Y68263656D01*
X13204938Y68035414D01*
X13204936Y68035404D01*
X13184341Y67800001D01*
X13184341Y67800000D01*
X13204936Y67564597D01*
X13204938Y67564587D01*
X13266094Y67336345D01*
X13266096Y67336341D01*
X13266097Y67336337D01*
X13365965Y67122170D01*
X13365967Y67122166D01*
X13501501Y66928605D01*
X13501506Y66928598D01*
X13668597Y66761507D01*
X13668603Y66761502D01*
X13854158Y66631575D01*
X13897783Y66576998D01*
X13904977Y66507500D01*
X13873454Y66445145D01*
X13854158Y66428425D01*
X13668597Y66298495D01*
X13501505Y66131403D01*
X13365965Y65937831D01*
X13365964Y65937829D01*
X13266098Y65723665D01*
X13266094Y65723656D01*
X13204938Y65495414D01*
X13204936Y65495404D01*
X13184341Y65260001D01*
X13184341Y65260000D01*
X13204936Y65024597D01*
X13204938Y65024587D01*
X13266094Y64796345D01*
X13266096Y64796341D01*
X13266097Y64796337D01*
X13335539Y64647419D01*
X13365965Y64582170D01*
X13365967Y64582166D01*
X13501501Y64388605D01*
X13501506Y64388598D01*
X13668597Y64221507D01*
X13668603Y64221502D01*
X13854158Y64091575D01*
X13897783Y64036998D01*
X13904977Y63967500D01*
X13873454Y63905145D01*
X13854158Y63888425D01*
X13668597Y63758495D01*
X13501505Y63591403D01*
X13365965Y63397831D01*
X13365964Y63397829D01*
X13266098Y63183665D01*
X13266094Y63183656D01*
X13204938Y62955414D01*
X13204936Y62955404D01*
X13184341Y62720001D01*
X13184341Y62720000D01*
X13204936Y62484597D01*
X13204938Y62484587D01*
X13266094Y62256345D01*
X13266096Y62256341D01*
X13266097Y62256337D01*
X13335539Y62107419D01*
X13365965Y62042170D01*
X13365967Y62042166D01*
X13501501Y61848605D01*
X13501506Y61848598D01*
X13668597Y61681507D01*
X13668603Y61681502D01*
X13854594Y61551270D01*
X13898219Y61496693D01*
X13905413Y61427195D01*
X13873890Y61364840D01*
X13854595Y61348120D01*
X13668922Y61218110D01*
X13668920Y61218109D01*
X13501891Y61051080D01*
X13501886Y61051074D01*
X13366400Y60857580D01*
X13366399Y60857578D01*
X13266570Y60643493D01*
X13266567Y60643487D01*
X13209364Y60430001D01*
X13209364Y60430000D01*
X13926653Y60430000D01*
X13993692Y60410315D01*
X14039447Y60357511D01*
X14049391Y60288353D01*
X14045631Y60271067D01*
X14040000Y60251889D01*
X14040000Y60108112D01*
X14045631Y60088933D01*
X14045630Y60019064D01*
X14007855Y59960286D01*
X13944299Y59931262D01*
X13926653Y59930000D01*
X13209364Y59930000D01*
X13266567Y59716514D01*
X13266570Y59716508D01*
X13366399Y59502422D01*
X13501894Y59308918D01*
X13668917Y59141895D01*
X13854595Y59011881D01*
X13898219Y58957304D01*
X13905412Y58887805D01*
X13873890Y58825451D01*
X13854595Y58808731D01*
X13668594Y58678492D01*
X13501505Y58511403D01*
X13365965Y58317831D01*
X13365964Y58317829D01*
X13266098Y58103665D01*
X13266094Y58103656D01*
X13204938Y57875414D01*
X13204936Y57875404D01*
X13184341Y57640001D01*
X13184341Y57640000D01*
X13204936Y57404597D01*
X13204938Y57404587D01*
X13266094Y57176345D01*
X13266096Y57176341D01*
X13266097Y57176337D01*
X13365965Y56962170D01*
X13365967Y56962166D01*
X13501501Y56768605D01*
X13501506Y56768598D01*
X13668597Y56601507D01*
X13668603Y56601502D01*
X13854158Y56471575D01*
X13897783Y56416998D01*
X13904977Y56347500D01*
X13873454Y56285145D01*
X13854158Y56268425D01*
X13668597Y56138495D01*
X13501505Y55971403D01*
X13365965Y55777831D01*
X13365964Y55777829D01*
X13266098Y55563665D01*
X13266094Y55563656D01*
X13204938Y55335414D01*
X13204936Y55335404D01*
X13184341Y55100001D01*
X13184341Y55100000D01*
X13204936Y54864597D01*
X13204938Y54864587D01*
X13266094Y54636345D01*
X13266096Y54636341D01*
X13266097Y54636337D01*
X13365965Y54422171D01*
X13365965Y54422170D01*
X13365967Y54422166D01*
X13501501Y54228605D01*
X13501506Y54228598D01*
X13668597Y54061507D01*
X13668603Y54061502D01*
X13854158Y53931575D01*
X13897783Y53876998D01*
X13904977Y53807500D01*
X13873454Y53745145D01*
X13854158Y53728425D01*
X13668597Y53598495D01*
X13501505Y53431403D01*
X13365965Y53237831D01*
X13365964Y53237829D01*
X13266098Y53023665D01*
X13266094Y53023656D01*
X13204938Y52795414D01*
X13204936Y52795404D01*
X13184341Y52560001D01*
X13184341Y52560000D01*
X13204936Y52324597D01*
X13204938Y52324587D01*
X13266094Y52096345D01*
X13266096Y52096341D01*
X13266097Y52096337D01*
X13287515Y52050407D01*
X13365965Y51882170D01*
X13365967Y51882166D01*
X13501501Y51688605D01*
X13501506Y51688598D01*
X13668597Y51521507D01*
X13668603Y51521502D01*
X13854158Y51391575D01*
X13897783Y51336998D01*
X13904977Y51267500D01*
X13873454Y51205145D01*
X13854158Y51188425D01*
X13668597Y51058495D01*
X13501505Y50891403D01*
X13365965Y50697831D01*
X13365964Y50697829D01*
X13266098Y50483665D01*
X13266094Y50483656D01*
X13204938Y50255414D01*
X13204936Y50255404D01*
X13184341Y50020001D01*
X13184341Y50020000D01*
X13204936Y49784597D01*
X13204938Y49784587D01*
X13266094Y49556345D01*
X13266096Y49556341D01*
X13266097Y49556337D01*
X13335539Y49407419D01*
X13365965Y49342170D01*
X13365967Y49342166D01*
X13474281Y49187479D01*
X13501505Y49148599D01*
X13668599Y48981505D01*
X13835342Y48864750D01*
X13854594Y48851270D01*
X13898219Y48796693D01*
X13905413Y48727195D01*
X13873890Y48664840D01*
X13854595Y48648120D01*
X13668922Y48518110D01*
X13668920Y48518109D01*
X13501891Y48351080D01*
X13501886Y48351074D01*
X13366400Y48157580D01*
X13366399Y48157578D01*
X13266570Y47943493D01*
X13266567Y47943487D01*
X13209364Y47730001D01*
X13209364Y47730000D01*
X13926653Y47730000D01*
X13993692Y47710315D01*
X14039447Y47657511D01*
X14049391Y47588353D01*
X14045631Y47571067D01*
X14040000Y47551889D01*
X14040000Y47408112D01*
X14045631Y47388933D01*
X14045630Y47319064D01*
X14007855Y47260286D01*
X13944299Y47231262D01*
X13926653Y47230000D01*
X13209364Y47230000D01*
X13266567Y47016514D01*
X13266570Y47016508D01*
X13366399Y46802422D01*
X13501894Y46608918D01*
X13668917Y46441895D01*
X13854595Y46311881D01*
X13898219Y46257304D01*
X13905412Y46187805D01*
X13873890Y46125451D01*
X13854595Y46108731D01*
X13668594Y45978492D01*
X13501505Y45811403D01*
X13365965Y45617831D01*
X13365964Y45617829D01*
X13266098Y45403665D01*
X13266094Y45403656D01*
X13204938Y45175414D01*
X13204936Y45175404D01*
X13184341Y44940001D01*
X13184341Y44940000D01*
X13204936Y44704597D01*
X13204938Y44704587D01*
X13266094Y44476345D01*
X13266096Y44476341D01*
X13266097Y44476337D01*
X13271895Y44463904D01*
X13365965Y44262170D01*
X13365967Y44262166D01*
X13501501Y44068605D01*
X13501506Y44068598D01*
X13668597Y43901507D01*
X13668603Y43901502D01*
X13854158Y43771575D01*
X13897783Y43716998D01*
X13904977Y43647500D01*
X13873454Y43585145D01*
X13854158Y43568425D01*
X13668597Y43438495D01*
X13501505Y43271403D01*
X13365965Y43077831D01*
X13365964Y43077829D01*
X13266098Y42863665D01*
X13266094Y42863656D01*
X13204938Y42635414D01*
X13204936Y42635404D01*
X13184341Y42400001D01*
X13184341Y42400000D01*
X13204936Y42164597D01*
X13204938Y42164587D01*
X13266094Y41936345D01*
X13266096Y41936341D01*
X13266097Y41936337D01*
X13365965Y41722170D01*
X13365967Y41722166D01*
X13501501Y41528605D01*
X13501506Y41528598D01*
X13668597Y41361507D01*
X13668603Y41361502D01*
X13854158Y41231575D01*
X13897783Y41176998D01*
X13904977Y41107500D01*
X13873454Y41045145D01*
X13854158Y41028425D01*
X13668597Y40898495D01*
X13501505Y40731403D01*
X13365965Y40537831D01*
X13365964Y40537829D01*
X13266098Y40323665D01*
X13266094Y40323656D01*
X13204938Y40095414D01*
X13204936Y40095404D01*
X13184341Y39860001D01*
X13184341Y39860000D01*
X13204936Y39624597D01*
X13204938Y39624587D01*
X13266094Y39396345D01*
X13266096Y39396341D01*
X13266097Y39396337D01*
X13365965Y39182170D01*
X13365967Y39182166D01*
X13501501Y38988605D01*
X13501506Y38988598D01*
X13668597Y38821507D01*
X13668603Y38821502D01*
X13854158Y38691575D01*
X13897783Y38636998D01*
X13904977Y38567500D01*
X13873454Y38505145D01*
X13854158Y38488425D01*
X13668597Y38358495D01*
X13501505Y38191403D01*
X13365965Y37997831D01*
X13365964Y37997829D01*
X13266098Y37783665D01*
X13266094Y37783656D01*
X13204938Y37555414D01*
X13204936Y37555404D01*
X13184341Y37320001D01*
X13184341Y37320000D01*
X13204936Y37084597D01*
X13204938Y37084587D01*
X13266094Y36856345D01*
X13266096Y36856341D01*
X13266097Y36856337D01*
X13365965Y36642170D01*
X13365967Y36642166D01*
X13501501Y36448605D01*
X13501506Y36448598D01*
X13668597Y36281507D01*
X13668603Y36281502D01*
X13854594Y36151270D01*
X13898219Y36096693D01*
X13905413Y36027195D01*
X13873890Y35964840D01*
X13854595Y35948120D01*
X13668922Y35818110D01*
X13668920Y35818109D01*
X13501891Y35651080D01*
X13501886Y35651074D01*
X13366400Y35457580D01*
X13366399Y35457578D01*
X13266570Y35243493D01*
X13266567Y35243487D01*
X13209364Y35030001D01*
X13209364Y35030000D01*
X13926653Y35030000D01*
X13993692Y35010315D01*
X14039447Y34957511D01*
X14049391Y34888353D01*
X14045631Y34871067D01*
X14040000Y34851889D01*
X14040000Y34708112D01*
X14045631Y34688933D01*
X14045630Y34619064D01*
X14007855Y34560286D01*
X13944299Y34531262D01*
X13926653Y34530000D01*
X13209364Y34530000D01*
X13266567Y34316514D01*
X13266570Y34316508D01*
X13366399Y34102422D01*
X13501894Y33908918D01*
X13668917Y33741895D01*
X13854595Y33611881D01*
X13898219Y33557304D01*
X13905412Y33487805D01*
X13873890Y33425451D01*
X13854595Y33408731D01*
X13668594Y33278492D01*
X13501505Y33111403D01*
X13365965Y32917831D01*
X13365964Y32917829D01*
X13266098Y32703665D01*
X13266094Y32703656D01*
X13204938Y32475414D01*
X13204936Y32475404D01*
X13184341Y32240001D01*
X13184341Y32240000D01*
X13204936Y32004597D01*
X13204938Y32004587D01*
X13266094Y31776345D01*
X13266096Y31776341D01*
X13266097Y31776337D01*
X13365965Y31562170D01*
X13365967Y31562166D01*
X13501501Y31368605D01*
X13501506Y31368598D01*
X13668597Y31201507D01*
X13668603Y31201502D01*
X13854158Y31071575D01*
X13897783Y31016998D01*
X13904977Y30947500D01*
X13873454Y30885145D01*
X13854158Y30868425D01*
X13668597Y30738495D01*
X13501505Y30571403D01*
X13365965Y30377831D01*
X13365964Y30377829D01*
X13266098Y30163665D01*
X13266094Y30163656D01*
X13204938Y29935414D01*
X13204936Y29935404D01*
X13184341Y29700001D01*
X13184341Y29700000D01*
X500Y29700000D01*
X500Y80432237D01*
X2525787Y80432237D01*
X2555413Y80162987D01*
X2555415Y80162976D01*
X2623926Y79900918D01*
X2623928Y79900912D01*
X2729870Y79651610D01*
X2801998Y79533425D01*
X2870979Y79420395D01*
X2870986Y79420385D01*
X3044253Y79212181D01*
X3044259Y79212176D01*
X3149240Y79118113D01*
X3245998Y79031418D01*
X3471910Y78881956D01*
X3717176Y78766980D01*
X3717183Y78766978D01*
X3717185Y78766977D01*
X3976557Y78688943D01*
X3976564Y78688942D01*
X3976569Y78688940D01*
X4244561Y78649500D01*
X4244566Y78649500D01*
X4447636Y78649500D01*
X4499133Y78653270D01*
X4650156Y78664323D01*
X4762758Y78689407D01*
X4914546Y78723218D01*
X4914548Y78723219D01*
X4914553Y78723220D01*
X5167558Y78819986D01*
X5403777Y78952559D01*
X5618177Y79118112D01*
X5806186Y79313119D01*
X5963799Y79533421D01*
X6037787Y79677331D01*
X6087649Y79774310D01*
X6087651Y79774316D01*
X6087656Y79774325D01*
X6175118Y80030695D01*
X6224319Y80297067D01*
X6229259Y80432237D01*
X43165787Y80432237D01*
X43195413Y80162987D01*
X43195415Y80162976D01*
X43263926Y79900918D01*
X43263928Y79900912D01*
X43369870Y79651610D01*
X43441998Y79533425D01*
X43510979Y79420395D01*
X43510986Y79420385D01*
X43684253Y79212181D01*
X43684259Y79212176D01*
X43789240Y79118113D01*
X43885998Y79031418D01*
X44111910Y78881956D01*
X44357176Y78766980D01*
X44357183Y78766978D01*
X44357185Y78766977D01*
X44616557Y78688943D01*
X44616564Y78688942D01*
X44616569Y78688940D01*
X44884561Y78649500D01*
X44884566Y78649500D01*
X45087636Y78649500D01*
X45139133Y78653270D01*
X45290156Y78664323D01*
X45402758Y78689407D01*
X45554546Y78723218D01*
X45554548Y78723219D01*
X45554553Y78723220D01*
X45807558Y78819986D01*
X46043777Y78952559D01*
X46258177Y79118112D01*
X46446186Y79313119D01*
X46603799Y79533421D01*
X46677787Y79677331D01*
X46727649Y79774310D01*
X46727651Y79774316D01*
X46727656Y79774325D01*
X46815118Y80030695D01*
X46864319Y80297067D01*
X46874212Y80567765D01*
X46844586Y80837018D01*
X46776072Y81099088D01*
X46670130Y81348390D01*
X46529018Y81579610D01*
X46439747Y81686881D01*
X46355746Y81787820D01*
X46355740Y81787825D01*
X46154002Y81968582D01*
X45928092Y82118043D01*
X45928090Y82118044D01*
X45682824Y82233020D01*
X45682819Y82233022D01*
X45682814Y82233024D01*
X45423442Y82311058D01*
X45423428Y82311061D01*
X45307791Y82328079D01*
X45155439Y82350500D01*
X44952369Y82350500D01*
X44952364Y82350500D01*
X44749844Y82335677D01*
X44749831Y82335675D01*
X44485453Y82276783D01*
X44485446Y82276780D01*
X44232439Y82180013D01*
X43996226Y82047443D01*
X43781822Y81881888D01*
X43593822Y81686891D01*
X43593816Y81686884D01*
X43436202Y81466581D01*
X43436199Y81466576D01*
X43312350Y81225691D01*
X43312343Y81225673D01*
X43224884Y80969315D01*
X43224881Y80969301D01*
X43175681Y80702932D01*
X43175680Y80702925D01*
X43165787Y80432237D01*
X6229259Y80432237D01*
X6234212Y80567765D01*
X6204586Y80837018D01*
X6136072Y81099088D01*
X6030130Y81348390D01*
X5889018Y81579610D01*
X5799747Y81686881D01*
X5715746Y81787820D01*
X5715740Y81787825D01*
X5514002Y81968582D01*
X5288092Y82118043D01*
X5288090Y82118044D01*
X5042824Y82233020D01*
X5042819Y82233022D01*
X5042814Y82233024D01*
X4783442Y82311058D01*
X4783428Y82311061D01*
X4667791Y82328079D01*
X4515439Y82350500D01*
X4312369Y82350500D01*
X4312364Y82350500D01*
X4109844Y82335677D01*
X4109831Y82335675D01*
X3845453Y82276783D01*
X3845446Y82276780D01*
X3592439Y82180013D01*
X3356226Y82047443D01*
X3141822Y81881888D01*
X2953822Y81686891D01*
X2953816Y81686884D01*
X2796202Y81466581D01*
X2796199Y81466576D01*
X2672350Y81225691D01*
X2672343Y81225673D01*
X2584884Y80969315D01*
X2584881Y80969301D01*
X2535681Y80702932D01*
X2535680Y80702925D01*
X2525787Y80432237D01*
X500Y80432237D01*
X500Y83949139D01*
X20185Y84016178D01*
X36814Y84036815D01*
X963180Y84963181D01*
X1024504Y84996666D01*
X1050862Y84999500D01*
X47949138Y84999500D01*
X48016177Y84979815D01*
G37*
%TD.AperFunction*%
%TD*%
M02*
