%TF.GenerationSoftware,KiCad,Pcbnew,7.0.7*%
%TF.CreationDate,2023-09-25T17:20:32+09:00*%
%TF.ProjectId,WETHAP_PCB,57455448-4150-45f5-9043-422e6b696361,rev?*%
%TF.SameCoordinates,PX6dac2c0PY8954400*%
%TF.FileFunction,Copper,L1,Top*%
%TF.FilePolarity,Positive*%
%FSLAX46Y46*%
G04 Gerber Fmt 4.6, Leading zero omitted, Abs format (unit mm)*
G04 Created by KiCad (PCBNEW 7.0.7) date 2023-09-25 17:20:32*
%MOMM*%
%LPD*%
G01*
G04 APERTURE LIST*
%TA.AperFunction,ComponentPad*%
%ADD10R,1.700000X1.700000*%
%TD*%
%TA.AperFunction,ComponentPad*%
%ADD11O,1.700000X1.700000*%
%TD*%
%TA.AperFunction,ComponentPad*%
%ADD12C,1.440000*%
%TD*%
%TA.AperFunction,ViaPad*%
%ADD13C,0.800000*%
%TD*%
%TA.AperFunction,Conductor*%
%ADD14C,0.250000*%
%TD*%
%TA.AperFunction,Conductor*%
%ADD15C,0.500000*%
%TD*%
G04 APERTURE END LIST*
D10*
%TO.P,DHT20,1,Pin_1*%
%TO.N,vbus*%
X32320000Y14460000D03*
D11*
%TO.P,DHT20,2,Pin_2*%
%TO.N,scl*%
X32320000Y17000000D03*
%TO.P,DHT20,3,Pin_3*%
%TO.N,gnd*%
X32320000Y19540000D03*
%TO.P,DHT20,4,Pin_4*%
%TO.N,sda*%
X32320000Y22080000D03*
%TD*%
D10*
%TO.P,J1,1,Pin_1*%
%TO.N,unconnected-(J1-Pin_1-Pad1)*%
X14540000Y77960000D03*
D11*
%TO.P,J1,2,Pin_2*%
%TO.N,unconnected-(J1-Pin_2-Pad2)*%
X14540000Y75420000D03*
%TO.P,J1,3,Pin_3*%
%TO.N,gnd*%
X14540000Y72880000D03*
%TO.P,J1,4,Pin_4*%
%TO.N,unconnected-(J1-Pin_4-Pad4)*%
X14540000Y70340000D03*
%TO.P,J1,5,Pin_5*%
%TO.N,unconnected-(J1-Pin_5-Pad5)*%
X14540000Y67800000D03*
%TO.P,J1,6,Pin_6*%
%TO.N,unconnected-(J1-Pin_6-Pad6)*%
X14540000Y65260000D03*
%TO.P,J1,7,Pin_7*%
%TO.N,unconnected-(J1-Pin_7-Pad7)*%
X14540000Y62720000D03*
%TO.P,J1,8,Pin_8*%
%TO.N,gnd*%
X14540000Y60180000D03*
%TO.P,J1,9,Pin_9*%
%TO.N,unconnected-(J1-Pin_9-Pad9)*%
X14540000Y57640000D03*
%TO.P,J1,10,Pin_10*%
%TO.N,unconnected-(J1-Pin_10-Pad10)*%
X14540000Y55100000D03*
%TO.P,J1,11,Pin_11*%
%TO.N,unconnected-(J1-Pin_11-Pad11)*%
X14540000Y52560000D03*
%TO.P,J1,12,Pin_12*%
%TO.N,unconnected-(J1-Pin_12-Pad12)*%
X14540000Y50020000D03*
%TO.P,J1,13,Pin_13*%
%TO.N,gnd*%
X14540000Y47480000D03*
%TO.P,J1,14,Pin_14*%
%TO.N,unconnected-(J1-Pin_14-Pad14)*%
X14540000Y44940000D03*
%TO.P,J1,15,Pin_15*%
%TO.N,unconnected-(J1-Pin_15-Pad15)*%
X14540000Y42400000D03*
%TO.P,J1,16,Pin_16*%
%TO.N,unconnected-(J1-Pin_16-Pad16)*%
X14540000Y39860000D03*
%TO.P,J1,17,Pin_17*%
%TO.N,unconnected-(J1-Pin_17-Pad17)*%
X14540000Y37320000D03*
%TO.P,J1,18,Pin_18*%
%TO.N,gnd*%
X14540000Y34780000D03*
%TO.P,J1,19,Pin_19*%
%TO.N,unconnected-(J1-Pin_19-Pad19)*%
X14540000Y32240000D03*
%TO.P,J1,20,Pin_20*%
%TO.N,unconnected-(J1-Pin_20-Pad20)*%
X14540000Y29700000D03*
%TD*%
%TO.P,LPS25HB1,4,Pin_4*%
%TO.N,vbus*%
X15870000Y14490000D03*
%TO.P,LPS25HB1,3,Pin_3*%
%TO.N,scl*%
X15870000Y17030000D03*
%TO.P,LPS25HB1,2,Pin_2*%
%TO.N,sda*%
X15870000Y19570000D03*
D10*
%TO.P,LPS25HB1,1,Pin_1*%
%TO.N,gnd*%
X15870000Y22110000D03*
%TD*%
%TO.P,SSD1306,1,Pin_1*%
%TO.N,gnd*%
X19620000Y6840000D03*
D11*
%TO.P,SSD1306,2,Pin_2*%
%TO.N,vbus*%
X22160000Y6840000D03*
%TO.P,SSD1306,3,Pin_3*%
%TO.N,scl*%
X24700000Y6840000D03*
%TO.P,SSD1306,4,Pin_4*%
%TO.N,sda*%
X27240000Y6840000D03*
%TD*%
D12*
%TO.P,RV1,1,1*%
%TO.N,adc_vref*%
X42480000Y50020000D03*
%TO.P,RV1,2,2*%
%TO.N,Net-(J2-Pin_10)*%
X42480000Y47480000D03*
%TO.P,RV1,3,3*%
%TO.N,gnd*%
X42480000Y44940000D03*
%TD*%
D10*
%TO.P,J2,1,Pin_1*%
%TO.N,vbus*%
X32320000Y77960000D03*
D11*
%TO.P,J2,2,Pin_2*%
%TO.N,unconnected-(J2-Pin_2-Pad2)*%
X32320000Y75420000D03*
%TO.P,J2,3,Pin_3*%
%TO.N,gnd*%
X32320000Y72880000D03*
%TO.P,J2,4,Pin_4*%
%TO.N,unconnected-(J2-Pin_4-Pad4)*%
X32320000Y70340000D03*
%TO.P,J2,5,Pin_5*%
%TO.N,unconnected-(J2-Pin_5-Pad5)*%
X32320000Y67800000D03*
%TO.P,J2,6,Pin_6*%
%TO.N,adc_vref*%
X32320000Y65260000D03*
%TO.P,J2,7,Pin_7*%
%TO.N,unconnected-(J2-Pin_7-Pad7)*%
X32320000Y62720000D03*
%TO.P,J2,8,Pin_8*%
%TO.N,gnd*%
X32320000Y60180000D03*
%TO.P,J2,9,Pin_9*%
%TO.N,Net-(J2-Pin_9)*%
X32320000Y57640000D03*
%TO.P,J2,10,Pin_10*%
%TO.N,Net-(J2-Pin_10)*%
X32320000Y55100000D03*
%TO.P,J2,11,Pin_11*%
%TO.N,unconnected-(J2-Pin_11-Pad11)*%
X32320000Y52560000D03*
%TO.P,J2,12,Pin_12*%
%TO.N,unconnected-(J2-Pin_12-Pad12)*%
X32320000Y50020000D03*
%TO.P,J2,13,Pin_13*%
%TO.N,gnd*%
X32320000Y47480000D03*
%TO.P,J2,14,Pin_14*%
%TO.N,unconnected-(J2-Pin_14-Pad14)*%
X32320000Y44940000D03*
%TO.P,J2,15,Pin_15*%
%TO.N,unconnected-(J2-Pin_15-Pad15)*%
X32320000Y42400000D03*
%TO.P,J2,16,Pin_16*%
%TO.N,unconnected-(J2-Pin_16-Pad16)*%
X32320000Y39860000D03*
%TO.P,J2,17,Pin_17*%
%TO.N,unconnected-(J2-Pin_17-Pad17)*%
X32320000Y37320000D03*
%TO.P,J2,18,Pin_18*%
%TO.N,gnd*%
X32320000Y34780000D03*
%TO.P,J2,19,Pin_19*%
%TO.N,scl*%
X32320000Y32240000D03*
%TO.P,J2,20,Pin_20*%
%TO.N,sda*%
X32320000Y29700000D03*
%TD*%
D12*
%TO.P,RV2,1,1*%
%TO.N,adc_vref*%
X42480000Y65260000D03*
%TO.P,RV2,2,2*%
%TO.N,Net-(J2-Pin_9)*%
X42480000Y62720000D03*
%TO.P,RV2,3,3*%
%TO.N,gnd*%
X42480000Y60180000D03*
%TD*%
D11*
%TO.P,LPS25HB2,4,Pin_4*%
%TO.N,vbus*%
X23490000Y22110000D03*
%TO.P,LPS25HB2,3,Pin_3*%
%TO.N,unconnected-(LPS25HB2-Pin_3-Pad3)*%
X23490000Y19570000D03*
%TO.P,LPS25HB2,2,Pin_2*%
%TO.N,unconnected-(LPS25HB2-Pin_2-Pad2)*%
X23490000Y17030000D03*
D10*
%TO.P,LPS25HB2,1,Pin_1*%
%TO.N,gnd*%
X23490000Y14490000D03*
%TD*%
D13*
%TO.N,gnd*%
X19620000Y15730000D03*
X3110000Y24620000D03*
X15870000Y24650000D03*
X22160000Y56370000D03*
X22160000Y43670000D03*
X10730000Y18270000D03*
X45020000Y24620000D03*
X38670000Y81770000D03*
X36130000Y56370000D03*
X27240000Y22080000D03*
X5650000Y11920000D03*
X38670000Y72880000D03*
X45020000Y11920000D03*
X18350000Y69070000D03*
X10730000Y5570000D03*
X10730000Y56370000D03*
X10730000Y69070000D03*
X10730000Y43670000D03*
X40575000Y51290000D03*
X34860000Y11920000D03*
X28510000Y50020000D03*
X46290000Y51290000D03*
X4380000Y75420000D03*
X3110000Y50020000D03*
X45020000Y37320000D03*
X28510000Y37320000D03*
X3110000Y37320000D03*
X46290000Y66530000D03*
X38670000Y5570000D03*
X25970000Y8110000D03*
X18350000Y81770000D03*
X38670000Y18270000D03*
X28510000Y81770000D03*
X41210000Y63990000D03*
X10730000Y30970000D03*
X28510000Y62720000D03*
X3110000Y62720000D03*
X10730000Y81770000D03*
X38670000Y30970000D03*
X14540000Y11920000D03*
X36130000Y43670000D03*
X22160000Y30970000D03*
%TD*%
D14*
%TO.N,scl*%
X34860000Y19540000D02*
X32320000Y17000000D01*
X34860000Y29700000D02*
X34860000Y19540000D01*
X32320000Y32240000D02*
X34860000Y29700000D01*
D15*
%TO.N,adc_vref*%
X42480000Y50020000D02*
X45020000Y52560000D01*
X45020000Y52560000D02*
X45020000Y62720000D01*
X45020000Y62720000D02*
X42480000Y65260000D01*
%TO.N,vbus*%
X32320000Y77960000D02*
X29780000Y75420000D01*
X29780000Y75420000D02*
X29780000Y28400000D01*
X29780000Y28400000D02*
X23490000Y22110000D01*
D14*
%TO.N,scl*%
X22160000Y11920000D02*
X24700000Y9380000D01*
X20980000Y11920000D02*
X22160000Y11920000D01*
X15870000Y17030000D02*
X20980000Y11920000D01*
X24700000Y9380000D02*
X24700000Y6840000D01*
X32320000Y17000000D02*
X24700000Y9380000D01*
D15*
%TO.N,vbus*%
X22160000Y6840000D02*
X19620000Y9380000D01*
X19620000Y9380000D02*
X19620000Y9563100D01*
X19620000Y9563100D02*
X15870000Y13313100D01*
X15870000Y13313100D02*
X15870000Y14490000D01*
%TD*%
%TA.AperFunction,Conductor*%
%TO.N,gnd*%
G36*
X48016177Y84979815D02*
G01*
X48036819Y84963181D01*
X48963182Y84036818D01*
X48996666Y83975497D01*
X48999500Y83949139D01*
X48999500Y1050862D01*
X48979815Y983823D01*
X48963181Y963181D01*
X48036819Y36819D01*
X47975496Y3334D01*
X47949138Y500D01*
X1050862Y500D01*
X983823Y20185D01*
X963181Y36819D01*
X36819Y963181D01*
X3334Y1024504D01*
X500Y1050862D01*
X500Y4232237D01*
X2525787Y4232237D01*
X2555413Y3962987D01*
X2555415Y3962976D01*
X2623926Y3700918D01*
X2623928Y3700912D01*
X2729870Y3451610D01*
X2801998Y3333425D01*
X2870979Y3220395D01*
X2870986Y3220385D01*
X3044253Y3012181D01*
X3044259Y3012176D01*
X3245998Y2831418D01*
X3471910Y2681956D01*
X3717176Y2566980D01*
X3717183Y2566978D01*
X3717185Y2566977D01*
X3976557Y2488943D01*
X3976564Y2488942D01*
X3976569Y2488940D01*
X4244561Y2449500D01*
X4244566Y2449500D01*
X4447636Y2449500D01*
X4499133Y2453270D01*
X4650156Y2464323D01*
X4762758Y2489407D01*
X4914546Y2523218D01*
X4914548Y2523219D01*
X4914553Y2523220D01*
X5167558Y2619986D01*
X5403777Y2752559D01*
X5618177Y2918112D01*
X5806186Y3113119D01*
X5963799Y3333421D01*
X6037787Y3477331D01*
X6087649Y3574310D01*
X6087651Y3574316D01*
X6087656Y3574325D01*
X6175118Y3830695D01*
X6224319Y4097067D01*
X6229259Y4232237D01*
X43165787Y4232237D01*
X43195413Y3962987D01*
X43195415Y3962976D01*
X43263926Y3700918D01*
X43263928Y3700912D01*
X43369870Y3451610D01*
X43441998Y3333425D01*
X43510979Y3220395D01*
X43510986Y3220385D01*
X43684253Y3012181D01*
X43684259Y3012176D01*
X43885998Y2831418D01*
X44111910Y2681956D01*
X44357176Y2566980D01*
X44357183Y2566978D01*
X44357185Y2566977D01*
X44616557Y2488943D01*
X44616564Y2488942D01*
X44616569Y2488940D01*
X44884561Y2449500D01*
X44884566Y2449500D01*
X45087636Y2449500D01*
X45139133Y2453270D01*
X45290156Y2464323D01*
X45402758Y2489407D01*
X45554546Y2523218D01*
X45554548Y2523219D01*
X45554553Y2523220D01*
X45807558Y2619986D01*
X46043777Y2752559D01*
X46258177Y2918112D01*
X46446186Y3113119D01*
X46603799Y3333421D01*
X46677787Y3477331D01*
X46727649Y3574310D01*
X46727651Y3574316D01*
X46727656Y3574325D01*
X46815118Y3830695D01*
X46864319Y4097067D01*
X46874212Y4367765D01*
X46844586Y4637018D01*
X46776072Y4899088D01*
X46670130Y5148390D01*
X46529018Y5379610D01*
X46439747Y5486881D01*
X46355746Y5587820D01*
X46355740Y5587825D01*
X46154002Y5768582D01*
X45928092Y5918043D01*
X45915771Y5923819D01*
X45682824Y6033020D01*
X45682819Y6033022D01*
X45682814Y6033024D01*
X45423442Y6111058D01*
X45423428Y6111061D01*
X45307791Y6128079D01*
X45155439Y6150500D01*
X44952369Y6150500D01*
X44952364Y6150500D01*
X44749844Y6135677D01*
X44749831Y6135675D01*
X44485453Y6076783D01*
X44485446Y6076780D01*
X44232439Y5980013D01*
X43996226Y5847443D01*
X43781822Y5681888D01*
X43593822Y5486891D01*
X43593816Y5486884D01*
X43436202Y5266581D01*
X43436199Y5266576D01*
X43312350Y5025691D01*
X43312343Y5025673D01*
X43224884Y4769315D01*
X43224881Y4769301D01*
X43175681Y4502932D01*
X43175680Y4502925D01*
X43165787Y4232237D01*
X6229259Y4232237D01*
X6234212Y4367765D01*
X6204586Y4637018D01*
X6136072Y4899088D01*
X6030130Y5148390D01*
X5889018Y5379610D01*
X5799747Y5486881D01*
X5715746Y5587820D01*
X5715740Y5587825D01*
X5514002Y5768582D01*
X5288092Y5918043D01*
X5275771Y5923819D01*
X5042824Y6033020D01*
X5042819Y6033022D01*
X5042814Y6033024D01*
X4783442Y6111058D01*
X4783428Y6111061D01*
X4667791Y6128079D01*
X4515439Y6150500D01*
X4312369Y6150500D01*
X4312364Y6150500D01*
X4109844Y6135677D01*
X4109831Y6135675D01*
X3845453Y6076783D01*
X3845446Y6076780D01*
X3592439Y5980013D01*
X3356226Y5847443D01*
X3141822Y5681888D01*
X2953822Y5486891D01*
X2953816Y5486884D01*
X2796202Y5266581D01*
X2796199Y5266576D01*
X2672350Y5025691D01*
X2672343Y5025673D01*
X2584884Y4769315D01*
X2584881Y4769301D01*
X2535681Y4502932D01*
X2535680Y4502925D01*
X2525787Y4232237D01*
X500Y4232237D01*
X500Y14490000D01*
X14514341Y14490000D01*
X14534936Y14254597D01*
X14534938Y14254587D01*
X14596094Y14026345D01*
X14596096Y14026341D01*
X14596097Y14026337D01*
X14665408Y13877699D01*
X14695965Y13812170D01*
X14695967Y13812166D01*
X14831501Y13618605D01*
X14831506Y13618598D01*
X14998598Y13451506D01*
X15064072Y13405660D01*
X15107697Y13351083D01*
X15116476Y13314896D01*
X15119264Y13283038D01*
X15119500Y13277630D01*
X15119500Y13269391D01*
X15123306Y13236826D01*
X15130000Y13160309D01*
X15131461Y13153233D01*
X15131403Y13153222D01*
X15133034Y13145863D01*
X15133092Y13145876D01*
X15134757Y13138850D01*
X15161025Y13066676D01*
X15185185Y12993769D01*
X15188236Y12987226D01*
X15188182Y12987202D01*
X15191470Y12980412D01*
X15191521Y12980437D01*
X15194761Y12973987D01*
X15194762Y12973986D01*
X15194763Y12973983D01*
X15236965Y12909817D01*
X15277287Y12844445D01*
X15281766Y12838781D01*
X15281719Y12838744D01*
X15286482Y12832898D01*
X15286528Y12832936D01*
X15291173Y12827400D01*
X15347017Y12774715D01*
X18850191Y9271541D01*
X18883164Y9212469D01*
X18884756Y9205755D01*
X18884758Y9205748D01*
X18884759Y9205745D01*
X18901497Y9159754D01*
X18911025Y9133576D01*
X18935185Y9060669D01*
X18938236Y9054126D01*
X18938182Y9054102D01*
X18941470Y9047312D01*
X18941521Y9047337D01*
X18944761Y9040887D01*
X18944762Y9040886D01*
X18944763Y9040883D01*
X18986965Y8976717D01*
X19027287Y8911345D01*
X19031766Y8905681D01*
X19031719Y8905644D01*
X19036482Y8899798D01*
X19036528Y8899836D01*
X19041173Y8894300D01*
X19097018Y8841614D01*
X19536951Y8401681D01*
X19570436Y8340358D01*
X19565452Y8270667D01*
X19523581Y8214733D01*
X19458116Y8190316D01*
X19449270Y8190000D01*
X18722155Y8190000D01*
X18662627Y8183599D01*
X18662620Y8183597D01*
X18527913Y8133355D01*
X18527906Y8133351D01*
X18412812Y8047191D01*
X18412809Y8047188D01*
X18326649Y7932094D01*
X18326645Y7932087D01*
X18276403Y7797380D01*
X18276401Y7797373D01*
X18270000Y7737845D01*
X18270000Y7737828D01*
X18269999Y7090001D01*
X18270000Y7090000D01*
X19006653Y7090000D01*
X19073692Y7070315D01*
X19119447Y7017511D01*
X19129391Y6948353D01*
X19125631Y6931067D01*
X19120000Y6911889D01*
X19120000Y6768112D01*
X19125631Y6748933D01*
X19125630Y6679064D01*
X19087855Y6620286D01*
X19024299Y6591262D01*
X19006653Y6590000D01*
X18270000Y6590000D01*
X18270000Y5942156D01*
X18276401Y5882628D01*
X18276403Y5882621D01*
X18326645Y5747914D01*
X18326649Y5747907D01*
X18412809Y5632813D01*
X18412812Y5632810D01*
X18527906Y5546650D01*
X18527913Y5546646D01*
X18662620Y5496404D01*
X18662627Y5496402D01*
X18722155Y5490001D01*
X18722172Y5490000D01*
X19370000Y5490000D01*
X19370000Y6227699D01*
X19389685Y6294738D01*
X19442489Y6340493D01*
X19511647Y6350437D01*
X19584237Y6340000D01*
X19584238Y6340000D01*
X19655762Y6340000D01*
X19655763Y6340000D01*
X19728353Y6350437D01*
X19797512Y6340493D01*
X19850315Y6294738D01*
X19870000Y6227699D01*
X19870000Y5490000D01*
X20517828Y5490000D01*
X20517844Y5490001D01*
X20577372Y5496402D01*
X20577379Y5496404D01*
X20712086Y5546646D01*
X20712093Y5546650D01*
X20827187Y5632810D01*
X20827190Y5632813D01*
X20913350Y5747907D01*
X20913354Y5747914D01*
X20962422Y5879471D01*
X21004293Y5935405D01*
X21069757Y5959822D01*
X21138030Y5944970D01*
X21166285Y5923819D01*
X21288599Y5801505D01*
X21335618Y5768582D01*
X21482165Y5665968D01*
X21482167Y5665967D01*
X21482170Y5665965D01*
X21696337Y5566097D01*
X21924592Y5504937D01*
X22095319Y5490000D01*
X22159999Y5484341D01*
X22160000Y5484341D01*
X22160001Y5484341D01*
X22224681Y5490000D01*
X22395408Y5504937D01*
X22623663Y5566097D01*
X22837830Y5665965D01*
X23031401Y5801505D01*
X23198495Y5968599D01*
X23328424Y6154158D01*
X23383002Y6197783D01*
X23452500Y6204977D01*
X23514855Y6173454D01*
X23531575Y6154158D01*
X23661500Y5968605D01*
X23661505Y5968599D01*
X23828599Y5801505D01*
X23875618Y5768582D01*
X24022165Y5665968D01*
X24022167Y5665967D01*
X24022170Y5665965D01*
X24236337Y5566097D01*
X24464592Y5504937D01*
X24635319Y5490000D01*
X24699999Y5484341D01*
X24700000Y5484341D01*
X24700001Y5484341D01*
X24764681Y5490000D01*
X24935408Y5504937D01*
X25163663Y5566097D01*
X25377830Y5665965D01*
X25571401Y5801505D01*
X25738495Y5968599D01*
X25868424Y6154158D01*
X25923002Y6197783D01*
X25992500Y6204977D01*
X26054855Y6173454D01*
X26071575Y6154158D01*
X26201500Y5968605D01*
X26201505Y5968599D01*
X26368599Y5801505D01*
X26415618Y5768582D01*
X26562165Y5665968D01*
X26562167Y5665967D01*
X26562170Y5665965D01*
X26776337Y5566097D01*
X27004592Y5504937D01*
X27175319Y5490000D01*
X27239999Y5484341D01*
X27240000Y5484341D01*
X27240001Y5484341D01*
X27304681Y5490000D01*
X27475408Y5504937D01*
X27703663Y5566097D01*
X27917830Y5665965D01*
X28111401Y5801505D01*
X28278495Y5968599D01*
X28414035Y6162170D01*
X28513903Y6376337D01*
X28575063Y6604592D01*
X28595659Y6840000D01*
X28575063Y7075408D01*
X28513903Y7303663D01*
X28414035Y7517829D01*
X28408425Y7525842D01*
X28278494Y7711403D01*
X28111402Y7878494D01*
X28111395Y7878499D01*
X27917834Y8014033D01*
X27917830Y8014035D01*
X27846727Y8047191D01*
X27703663Y8113903D01*
X27703659Y8113904D01*
X27703655Y8113906D01*
X27475413Y8175062D01*
X27475403Y8175064D01*
X27240001Y8195659D01*
X27239999Y8195659D01*
X27004596Y8175064D01*
X27004586Y8175062D01*
X26776344Y8113906D01*
X26776335Y8113902D01*
X26562171Y8014036D01*
X26562169Y8014035D01*
X26368597Y7878495D01*
X26201505Y7711403D01*
X26071575Y7525842D01*
X26016998Y7482217D01*
X25947500Y7475023D01*
X25885145Y7506546D01*
X25868425Y7525842D01*
X25738494Y7711403D01*
X25571402Y7878494D01*
X25571401Y7878495D01*
X25378376Y8013653D01*
X25334751Y8068230D01*
X25325500Y8115228D01*
X25325500Y9069548D01*
X25345185Y9136587D01*
X25361819Y9157229D01*
X27740802Y11536212D01*
X30757821Y14553232D01*
X30819142Y14586715D01*
X30888834Y14581731D01*
X30944767Y14539859D01*
X30969184Y14474395D01*
X30969500Y14465549D01*
X30969500Y13562130D01*
X30969501Y13562124D01*
X30975908Y13502517D01*
X31026202Y13367672D01*
X31026206Y13367665D01*
X31112452Y13252456D01*
X31112455Y13252453D01*
X31227664Y13166207D01*
X31227671Y13166203D01*
X31362517Y13115909D01*
X31362516Y13115909D01*
X31369444Y13115165D01*
X31422127Y13109500D01*
X33217872Y13109501D01*
X33277483Y13115909D01*
X33412331Y13166204D01*
X33527546Y13252454D01*
X33613796Y13367669D01*
X33664091Y13502517D01*
X33670500Y13562127D01*
X33670499Y15357872D01*
X33664091Y15417483D01*
X33622686Y15528495D01*
X33613797Y15552329D01*
X33613793Y15552336D01*
X33527547Y15667545D01*
X33527544Y15667548D01*
X33412335Y15753794D01*
X33412328Y15753798D01*
X33280917Y15802811D01*
X33224983Y15844682D01*
X33200566Y15910147D01*
X33215418Y15978420D01*
X33236563Y16006668D01*
X33358495Y16128599D01*
X33494035Y16322170D01*
X33593903Y16536337D01*
X33655063Y16764592D01*
X33675659Y17000000D01*
X33655063Y17235408D01*
X33628142Y17335875D01*
X33629806Y17405724D01*
X33660235Y17455647D01*
X35243787Y19039199D01*
X35256042Y19049014D01*
X35255859Y19049236D01*
X35261866Y19054208D01*
X35261877Y19054214D01*
X35292775Y19087118D01*
X35309227Y19104636D01*
X35319671Y19115082D01*
X35330120Y19125529D01*
X35334379Y19131022D01*
X35338152Y19135439D01*
X35370062Y19169418D01*
X35379713Y19186976D01*
X35390396Y19203239D01*
X35402673Y19219064D01*
X35421185Y19261847D01*
X35423738Y19267059D01*
X35446197Y19307908D01*
X35451180Y19327320D01*
X35457481Y19345720D01*
X35465437Y19364104D01*
X35472729Y19410148D01*
X35473906Y19415829D01*
X35485500Y19460981D01*
X35485500Y19481018D01*
X35487027Y19500418D01*
X35490160Y19520196D01*
X35485775Y19566585D01*
X35485500Y19572423D01*
X35485500Y29617263D01*
X35487224Y29632877D01*
X35486938Y29632904D01*
X35487672Y29640667D01*
X35485500Y29709798D01*
X35485500Y29739349D01*
X35485500Y29739350D01*
X35484629Y29746241D01*
X35484172Y29752055D01*
X35482709Y29798626D01*
X35482709Y29798628D01*
X35477120Y29817863D01*
X35473174Y29836916D01*
X35470664Y29856792D01*
X35453501Y29900141D01*
X35451614Y29905654D01*
X35438617Y29950390D01*
X35438616Y29950392D01*
X35428421Y29967631D01*
X35419860Y29985107D01*
X35412486Y30003731D01*
X35412486Y30003733D01*
X35402474Y30017512D01*
X35385083Y30041450D01*
X35381900Y30046295D01*
X35358170Y30086421D01*
X35358165Y30086427D01*
X35344005Y30100587D01*
X35331370Y30115380D01*
X35319593Y30131588D01*
X35283693Y30161287D01*
X35279381Y30165210D01*
X33660237Y31784355D01*
X33626752Y31845677D01*
X33628142Y31904124D01*
X33655063Y32004592D01*
X33675659Y32240000D01*
X33655063Y32475408D01*
X33593903Y32703663D01*
X33494035Y32917829D01*
X33358495Y33111401D01*
X33358494Y33111403D01*
X33191402Y33278494D01*
X33191401Y33278495D01*
X33005405Y33408731D01*
X32961781Y33463308D01*
X32954588Y33532807D01*
X32986110Y33595161D01*
X33005405Y33611881D01*
X33191082Y33741895D01*
X33358105Y33908918D01*
X33493600Y34102422D01*
X33593429Y34316508D01*
X33593432Y34316514D01*
X33650636Y34530000D01*
X32933347Y34530000D01*
X32866308Y34549685D01*
X32820553Y34602489D01*
X32810609Y34671647D01*
X32814369Y34688933D01*
X32820000Y34708112D01*
X32820000Y34851889D01*
X32814369Y34871067D01*
X32814370Y34940936D01*
X32852145Y34999714D01*
X32915701Y35028738D01*
X32933347Y35030000D01*
X33650636Y35030000D01*
X33650635Y35030001D01*
X33593432Y35243487D01*
X33593429Y35243493D01*
X33493600Y35457578D01*
X33493599Y35457580D01*
X33358113Y35651074D01*
X33358108Y35651080D01*
X33191078Y35818110D01*
X33005405Y35948121D01*
X32961780Y36002698D01*
X32954588Y36072196D01*
X32986110Y36134551D01*
X33005406Y36151270D01*
X33191401Y36281505D01*
X33358495Y36448599D01*
X33494035Y36642170D01*
X33593903Y36856337D01*
X33655063Y37084592D01*
X33675659Y37320000D01*
X33655063Y37555408D01*
X33593903Y37783663D01*
X33494035Y37997829D01*
X33358495Y38191401D01*
X33358494Y38191403D01*
X33191402Y38358494D01*
X33191401Y38358495D01*
X33005842Y38488425D01*
X33005841Y38488426D01*
X32962216Y38543003D01*
X32955024Y38612502D01*
X32986546Y38674856D01*
X33005836Y38691572D01*
X33191401Y38821505D01*
X33358495Y38988599D01*
X33494035Y39182170D01*
X33593903Y39396337D01*
X33655063Y39624592D01*
X33675659Y39860000D01*
X33655063Y40095408D01*
X33593903Y40323663D01*
X33494035Y40537829D01*
X33358495Y40731401D01*
X33358494Y40731403D01*
X33191402Y40898494D01*
X33191396Y40898499D01*
X33005842Y41028425D01*
X32962217Y41083002D01*
X32955023Y41152500D01*
X32986546Y41214855D01*
X33005842Y41231575D01*
X33028026Y41247109D01*
X33191401Y41361505D01*
X33358495Y41528599D01*
X33494035Y41722170D01*
X33593903Y41936337D01*
X33655063Y42164592D01*
X33675659Y42400000D01*
X33655063Y42635408D01*
X33593903Y42863663D01*
X33494035Y43077829D01*
X33358495Y43271401D01*
X33358494Y43271403D01*
X33191402Y43438494D01*
X33191401Y43438495D01*
X33005842Y43568425D01*
X33005841Y43568426D01*
X32962216Y43623003D01*
X32955024Y43692502D01*
X32986546Y43754856D01*
X33005836Y43771572D01*
X33191401Y43901505D01*
X33358495Y44068599D01*
X33494035Y44262170D01*
X33593903Y44476337D01*
X33655063Y44704592D01*
X33675659Y44940000D01*
X33655063Y45175408D01*
X33593903Y45403663D01*
X33494035Y45617829D01*
X33358495Y45811401D01*
X33358494Y45811403D01*
X33191402Y45978494D01*
X33191401Y45978495D01*
X33005405Y46108731D01*
X32961781Y46163308D01*
X32954588Y46232807D01*
X32986110Y46295161D01*
X33005405Y46311881D01*
X33191082Y46441895D01*
X33358105Y46608918D01*
X33493600Y46802422D01*
X33593429Y47016508D01*
X33593432Y47016514D01*
X33650636Y47230000D01*
X32933347Y47230000D01*
X32866308Y47249685D01*
X32820553Y47302489D01*
X32810609Y47371647D01*
X32814369Y47388933D01*
X32820000Y47408112D01*
X32820000Y47479999D01*
X41254838Y47479999D01*
X41273450Y47267259D01*
X41273452Y47267248D01*
X41328721Y47060978D01*
X41328723Y47060974D01*
X41328724Y47060970D01*
X41349457Y47016508D01*
X41418977Y46867422D01*
X41541472Y46692479D01*
X41692478Y46541473D01*
X41692481Y46541471D01*
X41867419Y46418979D01*
X41867421Y46418978D01*
X41867420Y46418978D01*
X41931936Y46388894D01*
X42060970Y46328724D01*
X42060983Y46328721D01*
X42066064Y46326870D01*
X42065390Y46325022D01*
X42117680Y46293143D01*
X42148204Y46230293D01*
X42139903Y46160918D01*
X42095413Y46107044D01*
X42065904Y46093568D01*
X42066236Y46092658D01*
X42061140Y46090803D01*
X41867667Y46000586D01*
X41811967Y45961586D01*
X42296133Y45477420D01*
X42329618Y45416097D01*
X42324634Y45346405D01*
X42282762Y45290472D01*
X42264748Y45279255D01*
X42241956Y45267642D01*
X42241949Y45267637D01*
X42152363Y45178051D01*
X42152358Y45178044D01*
X42140745Y45155252D01*
X42092770Y45104456D01*
X42024949Y45087662D01*
X41958814Y45110200D01*
X41942580Y45123867D01*
X41458414Y45608033D01*
X41419414Y45552333D01*
X41329197Y45358860D01*
X41329194Y45358854D01*
X41273945Y45152663D01*
X41273944Y45152655D01*
X41255340Y44940003D01*
X41255340Y44939998D01*
X41273944Y44727346D01*
X41273945Y44727338D01*
X41329194Y44521147D01*
X41329197Y44521141D01*
X41419412Y44327672D01*
X41419413Y44327670D01*
X41458415Y44271970D01*
X41458415Y44271969D01*
X41942580Y44756134D01*
X42003903Y44789619D01*
X42073594Y44784635D01*
X42129528Y44742764D01*
X42140742Y44724754D01*
X42152359Y44701955D01*
X42152361Y44701953D01*
X42152363Y44701950D01*
X42241949Y44612364D01*
X42241951Y44612363D01*
X42241955Y44612359D01*
X42264747Y44600746D01*
X42315542Y44552772D01*
X42332337Y44484951D01*
X42309799Y44418816D01*
X42296132Y44402581D01*
X41811967Y43918417D01*
X41867670Y43879414D01*
X42061140Y43789198D01*
X42061146Y43789195D01*
X42267337Y43733946D01*
X42267345Y43733945D01*
X42479998Y43715340D01*
X42480002Y43715340D01*
X42692654Y43733945D01*
X42692662Y43733946D01*
X42898853Y43789195D01*
X42898859Y43789198D01*
X43092330Y43879414D01*
X43092336Y43879418D01*
X43148031Y43918416D01*
X42663866Y44402581D01*
X42630381Y44463904D01*
X42635365Y44533596D01*
X42677237Y44589529D01*
X42695245Y44600742D01*
X42718045Y44612359D01*
X42807641Y44701955D01*
X42819254Y44724748D01*
X42867225Y44775542D01*
X42935046Y44792339D01*
X43001181Y44769803D01*
X43017419Y44756134D01*
X43501584Y44271969D01*
X43540582Y44327664D01*
X43540586Y44327670D01*
X43630802Y44521141D01*
X43630805Y44521147D01*
X43686054Y44727338D01*
X43686055Y44727346D01*
X43704660Y44939998D01*
X43704660Y44940003D01*
X43686055Y45152655D01*
X43686054Y45152663D01*
X43630805Y45358854D01*
X43630802Y45358860D01*
X43540586Y45552330D01*
X43501583Y45608033D01*
X43017419Y45123868D01*
X42956096Y45090383D01*
X42886404Y45095367D01*
X42830471Y45137239D01*
X42819256Y45155249D01*
X42807641Y45178045D01*
X42807637Y45178049D01*
X42807636Y45178051D01*
X42718050Y45267637D01*
X42718047Y45267639D01*
X42718045Y45267641D01*
X42695250Y45279256D01*
X42644456Y45327229D01*
X42627661Y45395050D01*
X42650198Y45461185D01*
X42663866Y45477420D01*
X43148031Y45961585D01*
X43092330Y46000587D01*
X43092328Y46000588D01*
X42898859Y46090803D01*
X42893764Y46092658D01*
X42894455Y46094557D01*
X42842325Y46126333D01*
X42811797Y46189180D01*
X42820093Y46258556D01*
X42864579Y46312433D01*
X42894257Y46325986D01*
X42893936Y46326870D01*
X42899013Y46328720D01*
X42899030Y46328724D01*
X43092581Y46418979D01*
X43267519Y46541471D01*
X43418529Y46692481D01*
X43541021Y46867419D01*
X43631276Y47060970D01*
X43686549Y47267253D01*
X43705162Y47480000D01*
X43686549Y47692747D01*
X43631276Y47899030D01*
X43541021Y48092581D01*
X43418529Y48267519D01*
X43418527Y48267522D01*
X43267521Y48418528D01*
X43092578Y48541023D01*
X43092579Y48541023D01*
X42963547Y48601191D01*
X42899030Y48631276D01*
X42899023Y48631278D01*
X42893936Y48633130D01*
X42894703Y48635238D01*
X42843245Y48666643D01*
X42812751Y48729507D01*
X42821085Y48798878D01*
X42865601Y48852731D01*
X42894318Y48865821D01*
X42893936Y48866870D01*
X42899013Y48868720D01*
X42899030Y48868724D01*
X43092581Y48958979D01*
X43267519Y49081471D01*
X43418529Y49232481D01*
X43541021Y49407419D01*
X43631276Y49600970D01*
X43686549Y49807253D01*
X43705162Y50020000D01*
X43697023Y50113018D01*
X43710789Y50181514D01*
X43732867Y50211501D01*
X45505638Y51984273D01*
X45519267Y51996050D01*
X45538530Y52010390D01*
X45538532Y52010394D01*
X45538534Y52010394D01*
X45556663Y52032001D01*
X45572113Y52050415D01*
X45575767Y52054401D01*
X45581590Y52060223D01*
X45601923Y52085940D01*
X45651302Y52144786D01*
X45651309Y52144802D01*
X45655272Y52150824D01*
X45655324Y52150790D01*
X45659371Y52157142D01*
X45659317Y52157175D01*
X45663104Y52163316D01*
X45663110Y52163323D01*
X45695561Y52232914D01*
X45730036Y52301560D01*
X45730040Y52301567D01*
X45730042Y52301579D01*
X45732510Y52308356D01*
X45732568Y52308335D01*
X45735043Y52315454D01*
X45734985Y52315473D01*
X45737256Y52322328D01*
X45737723Y52324587D01*
X45752784Y52397533D01*
X45770500Y52472279D01*
X45770500Y52472280D01*
X45771339Y52479452D01*
X45771397Y52479446D01*
X45772164Y52486944D01*
X45772104Y52486949D01*
X45772733Y52494140D01*
X45770500Y52570897D01*
X45770500Y62656295D01*
X45771809Y62674265D01*
X45775289Y62698026D01*
X45770736Y62750061D01*
X45770500Y62755468D01*
X45770500Y62763703D01*
X45770500Y62763704D01*
X45770500Y62763709D01*
X45766691Y62796293D01*
X45759998Y62872798D01*
X45759996Y62872803D01*
X45758538Y62879867D01*
X45758597Y62879880D01*
X45756967Y62887236D01*
X45756908Y62887221D01*
X45755242Y62894247D01*
X45755241Y62894255D01*
X45728973Y62966427D01*
X45728972Y62966428D01*
X45704815Y63039334D01*
X45701763Y63045879D01*
X45701817Y63045905D01*
X45698533Y63052688D01*
X45698480Y63052660D01*
X45695238Y63059115D01*
X45695237Y63059117D01*
X45653029Y63123291D01*
X45612711Y63188656D01*
X45612710Y63188657D01*
X45612709Y63188659D01*
X45608233Y63194319D01*
X45608280Y63194357D01*
X45603519Y63200201D01*
X45603474Y63200162D01*
X45598834Y63205692D01*
X45542964Y63258404D01*
X43732870Y65068498D01*
X43699385Y65129821D01*
X43697023Y65166982D01*
X43705162Y65260000D01*
X43686549Y65472747D01*
X43631276Y65679030D01*
X43541021Y65872581D01*
X43418529Y66047519D01*
X43418527Y66047522D01*
X43267521Y66198528D01*
X43092578Y66321023D01*
X43092579Y66321023D01*
X42963547Y66381191D01*
X42899030Y66411276D01*
X42899026Y66411277D01*
X42899022Y66411279D01*
X42692752Y66466548D01*
X42692748Y66466549D01*
X42692747Y66466549D01*
X42692746Y66466550D01*
X42692741Y66466550D01*
X42480002Y66485162D01*
X42479998Y66485162D01*
X42267258Y66466550D01*
X42267247Y66466548D01*
X42060977Y66411279D01*
X42060968Y66411275D01*
X41867421Y66321023D01*
X41692478Y66198528D01*
X41541472Y66047522D01*
X41418977Y65872579D01*
X41328725Y65679032D01*
X41328721Y65679023D01*
X41273452Y65472753D01*
X41273450Y65472742D01*
X41254838Y65260002D01*
X41254838Y65259999D01*
X41273450Y65047259D01*
X41273452Y65047248D01*
X41328721Y64840978D01*
X41328723Y64840974D01*
X41328724Y64840970D01*
X41371171Y64749942D01*
X41418977Y64647422D01*
X41541472Y64472479D01*
X41692478Y64321473D01*
X41692481Y64321471D01*
X41867419Y64198979D01*
X41867421Y64198978D01*
X41867420Y64198978D01*
X41931936Y64168894D01*
X42060970Y64108724D01*
X42060983Y64108721D01*
X42066064Y64106870D01*
X42065292Y64104750D01*
X42116710Y64073406D01*
X42147237Y64010558D01*
X42138939Y63941183D01*
X42094452Y63887307D01*
X42065685Y63874170D01*
X42066064Y63873130D01*
X42060972Y63871277D01*
X42060970Y63871276D01*
X42060967Y63871275D01*
X42060968Y63871275D01*
X41867421Y63781023D01*
X41692478Y63658528D01*
X41541472Y63507522D01*
X41418977Y63332579D01*
X41328725Y63139032D01*
X41328721Y63139023D01*
X41273452Y62932753D01*
X41273450Y62932742D01*
X41254838Y62720002D01*
X41254838Y62719999D01*
X41273450Y62507259D01*
X41273452Y62507248D01*
X41328721Y62300978D01*
X41328723Y62300974D01*
X41328724Y62300970D01*
X41371171Y62209942D01*
X41418977Y62107422D01*
X41541472Y61932479D01*
X41692478Y61781473D01*
X41692481Y61781471D01*
X41867419Y61658979D01*
X41867421Y61658978D01*
X41867420Y61658978D01*
X41931936Y61628894D01*
X42060970Y61568724D01*
X42060983Y61568721D01*
X42066064Y61566870D01*
X42065390Y61565022D01*
X42117680Y61533143D01*
X42148204Y61470293D01*
X42139903Y61400918D01*
X42095413Y61347044D01*
X42065904Y61333568D01*
X42066236Y61332658D01*
X42061140Y61330803D01*
X41867667Y61240586D01*
X41811967Y61201586D01*
X42296133Y60717420D01*
X42329618Y60656097D01*
X42324634Y60586405D01*
X42282762Y60530472D01*
X42264748Y60519255D01*
X42241956Y60507642D01*
X42241949Y60507637D01*
X42152363Y60418051D01*
X42152358Y60418044D01*
X42140745Y60395252D01*
X42092770Y60344456D01*
X42024949Y60327662D01*
X41958814Y60350200D01*
X41942580Y60363867D01*
X41458414Y60848033D01*
X41419414Y60792333D01*
X41329197Y60598860D01*
X41329194Y60598854D01*
X41273945Y60392663D01*
X41273944Y60392655D01*
X41255340Y60180003D01*
X41255340Y60179998D01*
X41273944Y59967346D01*
X41273945Y59967338D01*
X41329194Y59761147D01*
X41329197Y59761141D01*
X41419412Y59567672D01*
X41419413Y59567670D01*
X41458415Y59511970D01*
X41458415Y59511969D01*
X41942580Y59996134D01*
X42003903Y60029619D01*
X42073594Y60024635D01*
X42129528Y59982764D01*
X42140742Y59964754D01*
X42152359Y59941955D01*
X42152361Y59941953D01*
X42152363Y59941950D01*
X42241949Y59852364D01*
X42241951Y59852363D01*
X42241955Y59852359D01*
X42264747Y59840746D01*
X42315542Y59792772D01*
X42332337Y59724951D01*
X42309799Y59658816D01*
X42296132Y59642581D01*
X41811967Y59158417D01*
X41867670Y59119414D01*
X42061140Y59029198D01*
X42061146Y59029195D01*
X42267337Y58973946D01*
X42267345Y58973945D01*
X42479998Y58955340D01*
X42480002Y58955340D01*
X42692654Y58973945D01*
X42692662Y58973946D01*
X42898853Y59029195D01*
X42898859Y59029198D01*
X43092330Y59119414D01*
X43092336Y59119418D01*
X43148031Y59158416D01*
X42663866Y59642581D01*
X42630381Y59703904D01*
X42635365Y59773596D01*
X42677237Y59829529D01*
X42695245Y59840742D01*
X42718045Y59852359D01*
X42807641Y59941955D01*
X42819254Y59964748D01*
X42867225Y60015542D01*
X42935046Y60032339D01*
X43001181Y60009803D01*
X43017419Y59996134D01*
X43501584Y59511969D01*
X43540582Y59567664D01*
X43540586Y59567670D01*
X43630802Y59761141D01*
X43630805Y59761147D01*
X43686054Y59967338D01*
X43686055Y59967346D01*
X43704660Y60179998D01*
X43704660Y60180003D01*
X43686055Y60392655D01*
X43686054Y60392663D01*
X43630805Y60598854D01*
X43630802Y60598860D01*
X43540586Y60792330D01*
X43501583Y60848033D01*
X43017419Y60363868D01*
X42956096Y60330383D01*
X42886404Y60335367D01*
X42830471Y60377239D01*
X42819256Y60395249D01*
X42807641Y60418045D01*
X42807637Y60418049D01*
X42807636Y60418051D01*
X42718050Y60507637D01*
X42718047Y60507639D01*
X42718045Y60507641D01*
X42695250Y60519256D01*
X42644456Y60567229D01*
X42627661Y60635050D01*
X42650198Y60701185D01*
X42663866Y60717420D01*
X43148031Y61201585D01*
X43092330Y61240587D01*
X43092328Y61240588D01*
X42898859Y61330803D01*
X42893764Y61332658D01*
X42894455Y61334557D01*
X42842325Y61366333D01*
X42811797Y61429180D01*
X42820093Y61498556D01*
X42864579Y61552433D01*
X42894257Y61565986D01*
X42893936Y61566870D01*
X42899013Y61568720D01*
X42899030Y61568724D01*
X43092581Y61658979D01*
X43267519Y61781471D01*
X43418529Y61932481D01*
X43541021Y62107419D01*
X43631276Y62300970D01*
X43686549Y62507253D01*
X43702377Y62688175D01*
X43727829Y62753242D01*
X43784420Y62794221D01*
X43854182Y62798099D01*
X43913586Y62765047D01*
X44233181Y62445452D01*
X44266666Y62384129D01*
X44269500Y62357771D01*
X44269500Y52922231D01*
X44249815Y52855192D01*
X44233181Y52834550D01*
X42671502Y51272872D01*
X42610179Y51239387D01*
X42573014Y51237025D01*
X42480002Y51245162D01*
X42479998Y51245162D01*
X42267258Y51226550D01*
X42267247Y51226548D01*
X42060977Y51171279D01*
X42060968Y51171275D01*
X41867421Y51081023D01*
X41692478Y50958528D01*
X41541472Y50807522D01*
X41418977Y50632579D01*
X41328725Y50439032D01*
X41328721Y50439023D01*
X41273452Y50232753D01*
X41273450Y50232742D01*
X41254838Y50020002D01*
X41254838Y50019999D01*
X41273450Y49807259D01*
X41273452Y49807248D01*
X41328721Y49600978D01*
X41328723Y49600974D01*
X41328724Y49600970D01*
X41371171Y49509942D01*
X41418977Y49407422D01*
X41541472Y49232479D01*
X41692478Y49081473D01*
X41692481Y49081471D01*
X41867419Y48958979D01*
X41867421Y48958978D01*
X41867420Y48958978D01*
X41931936Y48928894D01*
X42060970Y48868724D01*
X42060983Y48868721D01*
X42066064Y48866870D01*
X42065292Y48864750D01*
X42116710Y48833406D01*
X42147237Y48770558D01*
X42138939Y48701183D01*
X42094452Y48647307D01*
X42065685Y48634170D01*
X42066064Y48633130D01*
X42060972Y48631277D01*
X42060970Y48631276D01*
X42060967Y48631275D01*
X42060968Y48631275D01*
X41867421Y48541023D01*
X41692478Y48418528D01*
X41541472Y48267522D01*
X41418977Y48092579D01*
X41349455Y47943487D01*
X41331486Y47904952D01*
X41328725Y47899032D01*
X41328721Y47899023D01*
X41273452Y47692753D01*
X41273450Y47692742D01*
X41254838Y47480002D01*
X41254838Y47479999D01*
X32820000Y47479999D01*
X32820000Y47551889D01*
X32814369Y47571067D01*
X32814370Y47640936D01*
X32852145Y47699714D01*
X32915701Y47728738D01*
X32933347Y47730000D01*
X33650636Y47730000D01*
X33650635Y47730001D01*
X33593432Y47943487D01*
X33593429Y47943493D01*
X33493600Y48157578D01*
X33493599Y48157580D01*
X33358113Y48351074D01*
X33358108Y48351080D01*
X33191078Y48518110D01*
X33005405Y48648121D01*
X32961780Y48702698D01*
X32954588Y48772196D01*
X32986110Y48834551D01*
X33005406Y48851270D01*
X33007493Y48852731D01*
X33191401Y48981505D01*
X33358495Y49148599D01*
X33494035Y49342170D01*
X33593903Y49556337D01*
X33655063Y49784592D01*
X33675659Y50020000D01*
X33655063Y50255408D01*
X33593903Y50483663D01*
X33494035Y50697829D01*
X33417228Y50807522D01*
X33358494Y50891403D01*
X33191402Y51058494D01*
X33191396Y51058499D01*
X33005842Y51188425D01*
X32962217Y51243002D01*
X32955023Y51312500D01*
X32986546Y51374855D01*
X33005842Y51391575D01*
X33028026Y51407109D01*
X33191401Y51521505D01*
X33358495Y51688599D01*
X33494035Y51882170D01*
X33593903Y52096337D01*
X33655063Y52324592D01*
X33675659Y52560000D01*
X33655063Y52795408D01*
X33593903Y53023663D01*
X33494035Y53237829D01*
X33358495Y53431401D01*
X33358494Y53431403D01*
X33191402Y53598494D01*
X33191401Y53598495D01*
X33005842Y53728425D01*
X33005841Y53728426D01*
X32962216Y53783003D01*
X32955024Y53852502D01*
X32986546Y53914856D01*
X33005836Y53931572D01*
X33191401Y54061505D01*
X33358495Y54228599D01*
X33494035Y54422170D01*
X33593903Y54636337D01*
X33655063Y54864592D01*
X33675659Y55100000D01*
X33655063Y55335408D01*
X33593903Y55563663D01*
X33494035Y55777829D01*
X33358495Y55971401D01*
X33358494Y55971403D01*
X33191402Y56138494D01*
X33191396Y56138499D01*
X33005842Y56268425D01*
X32962217Y56323002D01*
X32955023Y56392500D01*
X32986546Y56454855D01*
X33005842Y56471575D01*
X33028026Y56487109D01*
X33191401Y56601505D01*
X33358495Y56768599D01*
X33494035Y56962170D01*
X33593903Y57176337D01*
X33655063Y57404592D01*
X33675659Y57640000D01*
X33655063Y57875408D01*
X33593903Y58103663D01*
X33494035Y58317829D01*
X33358495Y58511401D01*
X33358494Y58511403D01*
X33191402Y58678494D01*
X33191401Y58678495D01*
X33005405Y58808731D01*
X32961781Y58863308D01*
X32954588Y58932807D01*
X32986110Y58995161D01*
X33005405Y59011881D01*
X33191082Y59141895D01*
X33358105Y59308918D01*
X33493600Y59502422D01*
X33593429Y59716508D01*
X33593432Y59716514D01*
X33650636Y59930000D01*
X32933347Y59930000D01*
X32866308Y59949685D01*
X32820553Y60002489D01*
X32810609Y60071647D01*
X32814369Y60088933D01*
X32820000Y60108112D01*
X32820000Y60251889D01*
X32814369Y60271067D01*
X32814370Y60340936D01*
X32852145Y60399714D01*
X32915701Y60428738D01*
X32933347Y60430000D01*
X33650636Y60430000D01*
X33650635Y60430001D01*
X33593432Y60643487D01*
X33593429Y60643493D01*
X33493600Y60857578D01*
X33493599Y60857580D01*
X33358113Y61051074D01*
X33358108Y61051080D01*
X33191078Y61218110D01*
X33005405Y61348121D01*
X32961780Y61402698D01*
X32954588Y61472196D01*
X32986110Y61534551D01*
X33005406Y61551270D01*
X33030336Y61568726D01*
X33191401Y61681505D01*
X33358495Y61848599D01*
X33494035Y62042170D01*
X33593903Y62256337D01*
X33655063Y62484592D01*
X33675659Y62720000D01*
X33655063Y62955408D01*
X33593903Y63183663D01*
X33494035Y63397829D01*
X33417228Y63507522D01*
X33358494Y63591403D01*
X33191402Y63758494D01*
X33191401Y63758495D01*
X33030335Y63871275D01*
X33005841Y63888426D01*
X32962216Y63943003D01*
X32955024Y64012502D01*
X32986546Y64074856D01*
X33005836Y64091572D01*
X33191401Y64221505D01*
X33358495Y64388599D01*
X33494035Y64582170D01*
X33593903Y64796337D01*
X33655063Y65024592D01*
X33675659Y65260000D01*
X33655063Y65495408D01*
X33593903Y65723663D01*
X33494035Y65937829D01*
X33417228Y66047522D01*
X33358494Y66131403D01*
X33191402Y66298494D01*
X33191396Y66298499D01*
X33005842Y66428425D01*
X32962217Y66483002D01*
X32955023Y66552500D01*
X32986546Y66614855D01*
X33005842Y66631575D01*
X33028026Y66647109D01*
X33191401Y66761505D01*
X33358495Y66928599D01*
X33494035Y67122170D01*
X33593903Y67336337D01*
X33655063Y67564592D01*
X33675659Y67800000D01*
X33655063Y68035408D01*
X33593903Y68263663D01*
X33494035Y68477829D01*
X33358495Y68671401D01*
X33358494Y68671403D01*
X33191402Y68838494D01*
X33191401Y68838495D01*
X33005842Y68968425D01*
X33005841Y68968426D01*
X32962216Y69023003D01*
X32955024Y69092502D01*
X32986546Y69154856D01*
X33005836Y69171572D01*
X33191401Y69301505D01*
X33358495Y69468599D01*
X33494035Y69662170D01*
X33593903Y69876337D01*
X33655063Y70104592D01*
X33675659Y70340000D01*
X33655063Y70575408D01*
X33593903Y70803663D01*
X33494035Y71017829D01*
X33358495Y71211401D01*
X33358494Y71211403D01*
X33191402Y71378494D01*
X33191401Y71378495D01*
X33005405Y71508731D01*
X32961781Y71563308D01*
X32954588Y71632807D01*
X32986110Y71695161D01*
X33005405Y71711881D01*
X33191082Y71841895D01*
X33358105Y72008918D01*
X33493600Y72202422D01*
X33593429Y72416508D01*
X33593432Y72416514D01*
X33650636Y72630000D01*
X32933347Y72630000D01*
X32866308Y72649685D01*
X32820553Y72702489D01*
X32810609Y72771647D01*
X32814369Y72788933D01*
X32820000Y72808112D01*
X32820000Y72951889D01*
X32814369Y72971067D01*
X32814370Y73040936D01*
X32852145Y73099714D01*
X32915701Y73128738D01*
X32933347Y73130000D01*
X33650636Y73130000D01*
X33650635Y73130001D01*
X33593432Y73343487D01*
X33593429Y73343493D01*
X33493600Y73557578D01*
X33493599Y73557580D01*
X33358113Y73751074D01*
X33358108Y73751080D01*
X33191078Y73918110D01*
X33005405Y74048121D01*
X32961780Y74102698D01*
X32954588Y74172196D01*
X32986110Y74234551D01*
X33005406Y74251270D01*
X33191401Y74381505D01*
X33358495Y74548599D01*
X33494035Y74742170D01*
X33593903Y74956337D01*
X33655063Y75184592D01*
X33675659Y75420000D01*
X33655063Y75655408D01*
X33593903Y75883663D01*
X33494035Y76097829D01*
X33358495Y76291401D01*
X33236567Y76413329D01*
X33203084Y76474649D01*
X33208068Y76544341D01*
X33249939Y76600275D01*
X33280915Y76617190D01*
X33412331Y76666204D01*
X33527546Y76752454D01*
X33613796Y76867669D01*
X33664091Y77002517D01*
X33670500Y77062127D01*
X33670499Y78857872D01*
X33664091Y78917483D01*
X33613796Y79052331D01*
X33613795Y79052332D01*
X33613793Y79052336D01*
X33527547Y79167545D01*
X33527544Y79167548D01*
X33412335Y79253794D01*
X33412328Y79253798D01*
X33277482Y79304092D01*
X33277483Y79304092D01*
X33217883Y79310499D01*
X33217881Y79310500D01*
X33217873Y79310500D01*
X33217864Y79310500D01*
X31422129Y79310500D01*
X31422123Y79310499D01*
X31362516Y79304092D01*
X31227671Y79253798D01*
X31227664Y79253794D01*
X31112455Y79167548D01*
X31112452Y79167545D01*
X31026206Y79052336D01*
X31026202Y79052329D01*
X30975908Y78917483D01*
X30972089Y78881956D01*
X30969501Y78857877D01*
X30969500Y78857865D01*
X30969500Y77722231D01*
X30949815Y77655192D01*
X30933181Y77634550D01*
X29294358Y75995728D01*
X29280729Y75983949D01*
X29261468Y75969610D01*
X29227898Y75929603D01*
X29224253Y75925624D01*
X29218409Y75919778D01*
X29198059Y75894041D01*
X29148695Y75835211D01*
X29144729Y75829181D01*
X29144682Y75829212D01*
X29140630Y75822853D01*
X29140679Y75822823D01*
X29136889Y75816679D01*
X29104424Y75747059D01*
X29069960Y75678434D01*
X29067488Y75671643D01*
X29067432Y75671664D01*
X29064960Y75664550D01*
X29065015Y75664531D01*
X29062742Y75657673D01*
X29062274Y75655404D01*
X29047207Y75582435D01*
X29034001Y75526716D01*
X29029498Y75507714D01*
X29028661Y75500546D01*
X29028601Y75500553D01*
X29027835Y75493055D01*
X29027895Y75493049D01*
X29027265Y75485860D01*
X29029500Y75409084D01*
X29029500Y28762231D01*
X29009815Y28695192D01*
X28993181Y28674550D01*
X23801500Y23482870D01*
X23740177Y23449385D01*
X23703012Y23447023D01*
X23490002Y23465659D01*
X23489999Y23465659D01*
X23254596Y23445064D01*
X23254586Y23445062D01*
X23026344Y23383906D01*
X23026335Y23383902D01*
X22812171Y23284036D01*
X22812169Y23284035D01*
X22618597Y23148495D01*
X22451505Y22981403D01*
X22315965Y22787831D01*
X22315964Y22787829D01*
X22216098Y22573665D01*
X22216094Y22573656D01*
X22154938Y22345414D01*
X22154936Y22345404D01*
X22134341Y22110001D01*
X22134341Y22110000D01*
X22154936Y21874597D01*
X22154938Y21874587D01*
X22216094Y21646345D01*
X22216096Y21646341D01*
X22216097Y21646337D01*
X22315964Y21432171D01*
X22315965Y21432170D01*
X22315967Y21432166D01*
X22451501Y21238605D01*
X22451506Y21238598D01*
X22618597Y21071507D01*
X22618603Y21071502D01*
X22804158Y20941575D01*
X22847783Y20886998D01*
X22854977Y20817500D01*
X22823454Y20755145D01*
X22804158Y20738425D01*
X22618597Y20608495D01*
X22451505Y20441403D01*
X22315965Y20247831D01*
X22315964Y20247829D01*
X22216098Y20033665D01*
X22216094Y20033656D01*
X22154938Y19805414D01*
X22154936Y19805404D01*
X22134341Y19570001D01*
X22134341Y19570000D01*
X22154936Y19334597D01*
X22154938Y19334587D01*
X22216094Y19106345D01*
X22216096Y19106341D01*
X22216097Y19106337D01*
X22315964Y18892171D01*
X22315965Y18892170D01*
X22315967Y18892166D01*
X22451501Y18698605D01*
X22451506Y18698598D01*
X22618597Y18531507D01*
X22618603Y18531502D01*
X22804158Y18401575D01*
X22847783Y18346998D01*
X22854977Y18277500D01*
X22823454Y18215145D01*
X22804158Y18198425D01*
X22618597Y18068495D01*
X22451505Y17901403D01*
X22315965Y17707831D01*
X22315964Y17707829D01*
X22216098Y17493665D01*
X22216094Y17493656D01*
X22154938Y17265414D01*
X22154936Y17265404D01*
X22134341Y17030001D01*
X22134341Y17030000D01*
X22154936Y16794597D01*
X22154938Y16794587D01*
X22216094Y16566345D01*
X22216096Y16566341D01*
X22216097Y16566337D01*
X22230087Y16536336D01*
X22315965Y16352170D01*
X22315967Y16352166D01*
X22424281Y16197479D01*
X22451501Y16158604D01*
X22451506Y16158598D01*
X22573818Y16036286D01*
X22607303Y15974963D01*
X22602319Y15905271D01*
X22560447Y15849338D01*
X22529471Y15832423D01*
X22397912Y15783354D01*
X22397906Y15783351D01*
X22282812Y15697191D01*
X22282809Y15697188D01*
X22196649Y15582094D01*
X22196645Y15582087D01*
X22146403Y15447380D01*
X22146401Y15447373D01*
X22140000Y15387845D01*
X22140000Y14740000D01*
X22876653Y14740000D01*
X22943692Y14720315D01*
X22989447Y14667511D01*
X22999391Y14598353D01*
X22995631Y14581067D01*
X22990000Y14561889D01*
X22990000Y14418112D01*
X22995631Y14398933D01*
X22995630Y14329064D01*
X22957855Y14270286D01*
X22894299Y14241262D01*
X22876653Y14240000D01*
X22140000Y14240000D01*
X22140000Y13592156D01*
X22146401Y13532628D01*
X22146403Y13532621D01*
X22196645Y13397914D01*
X22196649Y13397907D01*
X22282809Y13282813D01*
X22282812Y13282810D01*
X22397906Y13196650D01*
X22397913Y13196646D01*
X22532620Y13146404D01*
X22532627Y13146402D01*
X22592155Y13140001D01*
X22592172Y13140000D01*
X23240000Y13140000D01*
X23240000Y13877699D01*
X23259685Y13944738D01*
X23312489Y13990493D01*
X23381647Y14000437D01*
X23454237Y13990000D01*
X23454238Y13990000D01*
X23525762Y13990000D01*
X23525763Y13990000D01*
X23598353Y14000437D01*
X23667512Y13990493D01*
X23720315Y13944738D01*
X23740000Y13877699D01*
X23740000Y13140000D01*
X24387828Y13140000D01*
X24387844Y13140001D01*
X24447372Y13146402D01*
X24447379Y13146404D01*
X24582086Y13196646D01*
X24582093Y13196650D01*
X24697187Y13282810D01*
X24697190Y13282813D01*
X24783350Y13397907D01*
X24783354Y13397914D01*
X24833596Y13532621D01*
X24833598Y13532628D01*
X24839999Y13592156D01*
X24840000Y13592173D01*
X24840000Y14240000D01*
X24103347Y14240000D01*
X24036308Y14259685D01*
X23990553Y14312489D01*
X23980609Y14381647D01*
X23984369Y14398933D01*
X23990000Y14418112D01*
X23990000Y14561889D01*
X23984369Y14581067D01*
X23984370Y14650936D01*
X24022145Y14709714D01*
X24085701Y14738738D01*
X24103347Y14740000D01*
X24840000Y14740000D01*
X24840000Y15387828D01*
X24839999Y15387845D01*
X24833598Y15447373D01*
X24833596Y15447380D01*
X24783354Y15582087D01*
X24783350Y15582094D01*
X24697190Y15697188D01*
X24697187Y15697191D01*
X24582093Y15783351D01*
X24582088Y15783354D01*
X24450528Y15832423D01*
X24394595Y15874295D01*
X24370178Y15939759D01*
X24385030Y16008032D01*
X24406175Y16036280D01*
X24528495Y16158599D01*
X24664035Y16352170D01*
X24763903Y16566337D01*
X24825063Y16794592D01*
X24845659Y17030000D01*
X24825063Y17265408D01*
X24763903Y17493663D01*
X24664035Y17707829D01*
X24549502Y17871401D01*
X24528494Y17901403D01*
X24361402Y18068494D01*
X24361396Y18068499D01*
X24175842Y18198425D01*
X24132217Y18253002D01*
X24125023Y18322500D01*
X24156546Y18384855D01*
X24175842Y18401575D01*
X24198026Y18417109D01*
X24361401Y18531505D01*
X24528495Y18698599D01*
X24664035Y18892170D01*
X24763903Y19106337D01*
X24825063Y19334592D01*
X24845659Y19570000D01*
X24825063Y19805408D01*
X24763903Y20033663D01*
X24664035Y20247829D01*
X24549731Y20411074D01*
X24528494Y20441403D01*
X24361402Y20608494D01*
X24361396Y20608499D01*
X24175842Y20738425D01*
X24132217Y20793002D01*
X24125023Y20862500D01*
X24156546Y20924855D01*
X24175842Y20941575D01*
X24318552Y21041502D01*
X24361401Y21071505D01*
X24528495Y21238599D01*
X24664035Y21432170D01*
X24763903Y21646337D01*
X24825063Y21874592D01*
X24845659Y22110000D01*
X24827022Y22323015D01*
X24840788Y22391514D01*
X24862866Y22421500D01*
X30265638Y27824273D01*
X30279267Y27836050D01*
X30298530Y27850390D01*
X30298532Y27850394D01*
X30298534Y27850394D01*
X30316663Y27872001D01*
X30332113Y27890415D01*
X30335767Y27894401D01*
X30341589Y27900222D01*
X30361928Y27925946D01*
X30367162Y27932185D01*
X30411302Y27984786D01*
X30411304Y27984791D01*
X30415272Y27990821D01*
X30415323Y27990788D01*
X30419369Y27997140D01*
X30419317Y27997172D01*
X30423109Y28003321D01*
X30423111Y28003323D01*
X30455569Y28072931D01*
X30490040Y28141567D01*
X30490043Y28141583D01*
X30492510Y28148356D01*
X30492568Y28148335D01*
X30495043Y28155454D01*
X30494985Y28155473D01*
X30497256Y28162328D01*
X30512784Y28237533D01*
X30530500Y28312280D01*
X30531339Y28319452D01*
X30531397Y28319446D01*
X30532164Y28326944D01*
X30532104Y28326949D01*
X30532733Y28334140D01*
X30530500Y28410897D01*
X30530500Y75057771D01*
X30550185Y75124810D01*
X30566819Y75145452D01*
X30605964Y75184597D01*
X30766417Y75345051D01*
X30827738Y75378534D01*
X30897429Y75373550D01*
X30953363Y75331679D01*
X30977624Y75268176D01*
X30984936Y75184597D01*
X30984938Y75184587D01*
X31046094Y74956345D01*
X31046096Y74956341D01*
X31046097Y74956337D01*
X31145965Y74742170D01*
X31145967Y74742166D01*
X31281501Y74548605D01*
X31281506Y74548598D01*
X31448597Y74381507D01*
X31448603Y74381502D01*
X31634594Y74251270D01*
X31678219Y74196693D01*
X31685413Y74127195D01*
X31653890Y74064840D01*
X31634595Y74048120D01*
X31448922Y73918110D01*
X31448920Y73918109D01*
X31281891Y73751080D01*
X31281886Y73751074D01*
X31146400Y73557580D01*
X31146399Y73557578D01*
X31046570Y73343493D01*
X31046567Y73343487D01*
X30989364Y73130001D01*
X30989364Y73130000D01*
X31706653Y73130000D01*
X31773692Y73110315D01*
X31819447Y73057511D01*
X31829391Y72988353D01*
X31825631Y72971067D01*
X31820000Y72951889D01*
X31820000Y72808112D01*
X31825631Y72788933D01*
X31825630Y72719064D01*
X31787855Y72660286D01*
X31724299Y72631262D01*
X31706653Y72630000D01*
X30989364Y72630000D01*
X31046567Y72416514D01*
X31046570Y72416508D01*
X31146399Y72202422D01*
X31281894Y72008918D01*
X31448917Y71841895D01*
X31634595Y71711881D01*
X31678219Y71657304D01*
X31685412Y71587805D01*
X31653890Y71525451D01*
X31634595Y71508731D01*
X31448594Y71378492D01*
X31281505Y71211403D01*
X31145965Y71017831D01*
X31145964Y71017829D01*
X31046098Y70803665D01*
X31046094Y70803656D01*
X30984938Y70575414D01*
X30984936Y70575404D01*
X30964341Y70340001D01*
X30964341Y70340000D01*
X30984936Y70104597D01*
X30984938Y70104587D01*
X31046094Y69876345D01*
X31046096Y69876341D01*
X31046097Y69876337D01*
X31145965Y69662171D01*
X31145965Y69662170D01*
X31145967Y69662166D01*
X31281501Y69468605D01*
X31281506Y69468598D01*
X31448597Y69301507D01*
X31448603Y69301502D01*
X31634158Y69171575D01*
X31677783Y69116998D01*
X31684977Y69047500D01*
X31653454Y68985145D01*
X31634158Y68968425D01*
X31448597Y68838495D01*
X31281505Y68671403D01*
X31145965Y68477831D01*
X31145964Y68477829D01*
X31046098Y68263665D01*
X31046094Y68263656D01*
X30984938Y68035414D01*
X30984936Y68035404D01*
X30964341Y67800001D01*
X30964341Y67800000D01*
X30984936Y67564597D01*
X30984938Y67564587D01*
X31046094Y67336345D01*
X31046096Y67336341D01*
X31046097Y67336337D01*
X31145964Y67122170D01*
X31145965Y67122170D01*
X31145967Y67122166D01*
X31281501Y66928605D01*
X31281506Y66928598D01*
X31448597Y66761507D01*
X31448603Y66761502D01*
X31634158Y66631575D01*
X31677783Y66576998D01*
X31684977Y66507500D01*
X31653454Y66445145D01*
X31634158Y66428425D01*
X31448597Y66298495D01*
X31281505Y66131403D01*
X31145965Y65937831D01*
X31145964Y65937829D01*
X31046098Y65723665D01*
X31046094Y65723656D01*
X30984938Y65495414D01*
X30984936Y65495404D01*
X30964341Y65260001D01*
X30964341Y65260000D01*
X30984936Y65024597D01*
X30984938Y65024587D01*
X31046094Y64796345D01*
X31046096Y64796341D01*
X31046097Y64796337D01*
X31115539Y64647419D01*
X31145965Y64582170D01*
X31145967Y64582166D01*
X31281501Y64388605D01*
X31281506Y64388598D01*
X31448597Y64221507D01*
X31448603Y64221502D01*
X31634158Y64091575D01*
X31677783Y64036998D01*
X31684977Y63967500D01*
X31653454Y63905145D01*
X31634158Y63888425D01*
X31448597Y63758495D01*
X31281505Y63591403D01*
X31145965Y63397831D01*
X31145964Y63397829D01*
X31046098Y63183665D01*
X31046094Y63183656D01*
X30984938Y62955414D01*
X30984936Y62955404D01*
X30964341Y62720001D01*
X30964341Y62720000D01*
X30984936Y62484597D01*
X30984938Y62484587D01*
X31046094Y62256345D01*
X31046096Y62256341D01*
X31046097Y62256337D01*
X31115539Y62107419D01*
X31145965Y62042170D01*
X31145967Y62042166D01*
X31281501Y61848605D01*
X31281506Y61848598D01*
X31448597Y61681507D01*
X31448603Y61681502D01*
X31634594Y61551270D01*
X31678219Y61496693D01*
X31685413Y61427195D01*
X31653890Y61364840D01*
X31634595Y61348120D01*
X31448922Y61218110D01*
X31448920Y61218109D01*
X31281891Y61051080D01*
X31281886Y61051074D01*
X31146400Y60857580D01*
X31146399Y60857578D01*
X31046570Y60643493D01*
X31046567Y60643487D01*
X30989364Y60430001D01*
X30989364Y60430000D01*
X31706653Y60430000D01*
X31773692Y60410315D01*
X31819447Y60357511D01*
X31829391Y60288353D01*
X31825631Y60271067D01*
X31820000Y60251889D01*
X31820000Y60108112D01*
X31825631Y60088933D01*
X31825630Y60019064D01*
X31787855Y59960286D01*
X31724299Y59931262D01*
X31706653Y59930000D01*
X30989364Y59930000D01*
X31046567Y59716514D01*
X31046570Y59716508D01*
X31146399Y59502422D01*
X31281894Y59308918D01*
X31448917Y59141895D01*
X31634595Y59011881D01*
X31678219Y58957304D01*
X31685412Y58887805D01*
X31653890Y58825451D01*
X31634595Y58808731D01*
X31448594Y58678492D01*
X31281505Y58511403D01*
X31145965Y58317831D01*
X31145964Y58317829D01*
X31046098Y58103665D01*
X31046094Y58103656D01*
X30984938Y57875414D01*
X30984936Y57875404D01*
X30964341Y57640001D01*
X30964341Y57640000D01*
X30984936Y57404597D01*
X30984938Y57404587D01*
X31046094Y57176345D01*
X31046096Y57176341D01*
X31046097Y57176337D01*
X31145965Y56962171D01*
X31145965Y56962170D01*
X31145967Y56962166D01*
X31281501Y56768605D01*
X31281506Y56768598D01*
X31448597Y56601507D01*
X31448603Y56601502D01*
X31634158Y56471575D01*
X31677783Y56416998D01*
X31684977Y56347500D01*
X31653454Y56285145D01*
X31634158Y56268425D01*
X31448597Y56138495D01*
X31281505Y55971403D01*
X31145965Y55777831D01*
X31145964Y55777829D01*
X31046098Y55563665D01*
X31046094Y55563656D01*
X30984938Y55335414D01*
X30984936Y55335404D01*
X30964341Y55100001D01*
X30964341Y55100000D01*
X30984936Y54864597D01*
X30984938Y54864587D01*
X31046094Y54636345D01*
X31046096Y54636341D01*
X31046097Y54636337D01*
X31145964Y54422171D01*
X31145965Y54422170D01*
X31145967Y54422166D01*
X31281501Y54228605D01*
X31281506Y54228598D01*
X31448597Y54061507D01*
X31448603Y54061502D01*
X31634158Y53931575D01*
X31677783Y53876998D01*
X31684977Y53807500D01*
X31653454Y53745145D01*
X31634158Y53728425D01*
X31448597Y53598495D01*
X31281505Y53431403D01*
X31145965Y53237831D01*
X31145964Y53237829D01*
X31046098Y53023665D01*
X31046094Y53023656D01*
X30984938Y52795414D01*
X30984936Y52795404D01*
X30964341Y52560001D01*
X30964341Y52560000D01*
X30984936Y52324597D01*
X30984938Y52324587D01*
X31046094Y52096345D01*
X31046096Y52096341D01*
X31046097Y52096337D01*
X31067515Y52050407D01*
X31145965Y51882170D01*
X31145967Y51882166D01*
X31281501Y51688605D01*
X31281506Y51688598D01*
X31448597Y51521507D01*
X31448603Y51521502D01*
X31634158Y51391575D01*
X31677783Y51336998D01*
X31684977Y51267500D01*
X31653454Y51205145D01*
X31634158Y51188425D01*
X31448597Y51058495D01*
X31281505Y50891403D01*
X31145965Y50697831D01*
X31145964Y50697829D01*
X31046098Y50483665D01*
X31046094Y50483656D01*
X30984938Y50255414D01*
X30984936Y50255404D01*
X30964341Y50020001D01*
X30964341Y50020000D01*
X30984936Y49784597D01*
X30984938Y49784587D01*
X31046094Y49556345D01*
X31046096Y49556341D01*
X31046097Y49556337D01*
X31115539Y49407419D01*
X31145965Y49342170D01*
X31145967Y49342166D01*
X31254281Y49187479D01*
X31281505Y49148599D01*
X31448599Y48981505D01*
X31615342Y48864750D01*
X31634594Y48851270D01*
X31678219Y48796693D01*
X31685413Y48727195D01*
X31653890Y48664840D01*
X31634595Y48648120D01*
X31448922Y48518110D01*
X31448920Y48518109D01*
X31281891Y48351080D01*
X31281886Y48351074D01*
X31146400Y48157580D01*
X31146399Y48157578D01*
X31046570Y47943493D01*
X31046567Y47943487D01*
X30989364Y47730001D01*
X30989364Y47730000D01*
X31706653Y47730000D01*
X31773692Y47710315D01*
X31819447Y47657511D01*
X31829391Y47588353D01*
X31825631Y47571067D01*
X31820000Y47551889D01*
X31820000Y47408112D01*
X31825631Y47388933D01*
X31825630Y47319064D01*
X31787855Y47260286D01*
X31724299Y47231262D01*
X31706653Y47230000D01*
X30989364Y47230000D01*
X31046567Y47016514D01*
X31046570Y47016508D01*
X31146399Y46802422D01*
X31281894Y46608918D01*
X31448917Y46441895D01*
X31634595Y46311881D01*
X31678219Y46257304D01*
X31685412Y46187805D01*
X31653890Y46125451D01*
X31634595Y46108731D01*
X31448594Y45978492D01*
X31281505Y45811403D01*
X31145965Y45617831D01*
X31145964Y45617829D01*
X31046098Y45403665D01*
X31046094Y45403656D01*
X30984938Y45175414D01*
X30984936Y45175404D01*
X30964341Y44940001D01*
X30964341Y44940000D01*
X30984936Y44704597D01*
X30984938Y44704587D01*
X31046094Y44476345D01*
X31046096Y44476341D01*
X31046097Y44476337D01*
X31051895Y44463904D01*
X31145965Y44262170D01*
X31145967Y44262166D01*
X31281501Y44068605D01*
X31281506Y44068598D01*
X31448597Y43901507D01*
X31448603Y43901502D01*
X31634158Y43771575D01*
X31677783Y43716998D01*
X31684977Y43647500D01*
X31653454Y43585145D01*
X31634158Y43568425D01*
X31448597Y43438495D01*
X31281505Y43271403D01*
X31145965Y43077831D01*
X31145964Y43077829D01*
X31046098Y42863665D01*
X31046094Y42863656D01*
X30984938Y42635414D01*
X30984936Y42635404D01*
X30964341Y42400001D01*
X30964341Y42400000D01*
X30984936Y42164597D01*
X30984938Y42164587D01*
X31046094Y41936345D01*
X31046096Y41936341D01*
X31046097Y41936337D01*
X31145965Y41722170D01*
X31145967Y41722166D01*
X31281501Y41528605D01*
X31281506Y41528598D01*
X31448597Y41361507D01*
X31448603Y41361502D01*
X31634158Y41231575D01*
X31677783Y41176998D01*
X31684977Y41107500D01*
X31653454Y41045145D01*
X31634158Y41028425D01*
X31448597Y40898495D01*
X31281505Y40731403D01*
X31145965Y40537831D01*
X31145964Y40537829D01*
X31046098Y40323665D01*
X31046094Y40323656D01*
X30984938Y40095414D01*
X30984936Y40095404D01*
X30964341Y39860001D01*
X30964341Y39860000D01*
X30984936Y39624597D01*
X30984938Y39624587D01*
X31046094Y39396345D01*
X31046096Y39396341D01*
X31046097Y39396337D01*
X31145964Y39182171D01*
X31145965Y39182170D01*
X31145967Y39182166D01*
X31281501Y38988605D01*
X31281506Y38988598D01*
X31448597Y38821507D01*
X31448603Y38821502D01*
X31634158Y38691575D01*
X31677783Y38636998D01*
X31684977Y38567500D01*
X31653454Y38505145D01*
X31634158Y38488425D01*
X31448597Y38358495D01*
X31281505Y38191403D01*
X31145965Y37997831D01*
X31145964Y37997829D01*
X31046098Y37783665D01*
X31046094Y37783656D01*
X30984938Y37555414D01*
X30984936Y37555404D01*
X30964341Y37320001D01*
X30964341Y37320000D01*
X30984936Y37084597D01*
X30984938Y37084587D01*
X31046094Y36856345D01*
X31046096Y36856341D01*
X31046097Y36856337D01*
X31145965Y36642171D01*
X31145965Y36642170D01*
X31145967Y36642166D01*
X31281501Y36448605D01*
X31281506Y36448598D01*
X31448597Y36281507D01*
X31448603Y36281502D01*
X31634594Y36151270D01*
X31678219Y36096693D01*
X31685413Y36027195D01*
X31653890Y35964840D01*
X31634595Y35948120D01*
X31448922Y35818110D01*
X31448920Y35818109D01*
X31281891Y35651080D01*
X31281886Y35651074D01*
X31146400Y35457580D01*
X31146399Y35457578D01*
X31046570Y35243493D01*
X31046567Y35243487D01*
X30989364Y35030001D01*
X30989364Y35030000D01*
X31706653Y35030000D01*
X31773692Y35010315D01*
X31819447Y34957511D01*
X31829391Y34888353D01*
X31825631Y34871067D01*
X31820000Y34851889D01*
X31820000Y34708112D01*
X31825631Y34688933D01*
X31825630Y34619064D01*
X31787855Y34560286D01*
X31724299Y34531262D01*
X31706653Y34530000D01*
X30989364Y34530000D01*
X31046567Y34316514D01*
X31046570Y34316508D01*
X31146399Y34102422D01*
X31281894Y33908918D01*
X31448917Y33741895D01*
X31634595Y33611881D01*
X31678219Y33557304D01*
X31685412Y33487805D01*
X31653890Y33425451D01*
X31634595Y33408731D01*
X31448594Y33278492D01*
X31281505Y33111403D01*
X31145965Y32917831D01*
X31145964Y32917829D01*
X31046098Y32703665D01*
X31046094Y32703656D01*
X30984938Y32475414D01*
X30984936Y32475404D01*
X30964341Y32240001D01*
X30964341Y32240000D01*
X30984936Y32004597D01*
X30984938Y32004587D01*
X31046094Y31776345D01*
X31046096Y31776341D01*
X31046097Y31776337D01*
X31145965Y31562170D01*
X31145967Y31562166D01*
X31281501Y31368605D01*
X31281506Y31368598D01*
X31448597Y31201507D01*
X31448603Y31201502D01*
X31634158Y31071575D01*
X31677783Y31016998D01*
X31684977Y30947500D01*
X31653454Y30885145D01*
X31634158Y30868425D01*
X31448597Y30738495D01*
X31281505Y30571403D01*
X31145965Y30377831D01*
X31145964Y30377829D01*
X31046098Y30163665D01*
X31046094Y30163656D01*
X30984938Y29935414D01*
X30984936Y29935404D01*
X30964341Y29700001D01*
X30964341Y29700000D01*
X30984936Y29464597D01*
X30984938Y29464587D01*
X31046094Y29236345D01*
X31046096Y29236341D01*
X31046097Y29236337D01*
X31145964Y29022171D01*
X31145965Y29022170D01*
X31145967Y29022166D01*
X31254281Y28867479D01*
X31281505Y28828599D01*
X31448599Y28661505D01*
X31545384Y28593736D01*
X31642165Y28525968D01*
X31642167Y28525967D01*
X31642170Y28525965D01*
X31856337Y28426097D01*
X32084592Y28364937D01*
X32272918Y28348461D01*
X32319999Y28344341D01*
X32320000Y28344341D01*
X32320001Y28344341D01*
X32359234Y28347774D01*
X32555408Y28364937D01*
X32783663Y28426097D01*
X32997830Y28525965D01*
X33191401Y28661505D01*
X33358495Y28828599D01*
X33494035Y29022170D01*
X33593903Y29236337D01*
X33655063Y29464592D01*
X33675659Y29700000D01*
X33675659Y29700001D01*
X33675659Y29700389D01*
X33675707Y29700555D01*
X33676131Y29705394D01*
X33677103Y29705309D01*
X33695344Y29767428D01*
X33748148Y29813183D01*
X33817306Y29823127D01*
X33880862Y29794102D01*
X33887331Y29788078D01*
X33936060Y29739350D01*
X34198181Y29477229D01*
X34231666Y29415906D01*
X34234500Y29389548D01*
X34234500Y19850455D01*
X34214815Y19783416D01*
X34198181Y19762774D01*
X33761726Y19326319D01*
X33700403Y19292834D01*
X33674045Y19290000D01*
X32933347Y19290000D01*
X32866308Y19309685D01*
X32820553Y19362489D01*
X32810609Y19431647D01*
X32814369Y19448933D01*
X32820000Y19468112D01*
X32820000Y19611889D01*
X32814369Y19631067D01*
X32814370Y19700936D01*
X32852145Y19759714D01*
X32915701Y19788738D01*
X32933347Y19790000D01*
X33650636Y19790000D01*
X33650635Y19790001D01*
X33593432Y20003487D01*
X33593429Y20003493D01*
X33493600Y20217578D01*
X33493599Y20217580D01*
X33358113Y20411074D01*
X33358108Y20411080D01*
X33191078Y20578110D01*
X33005405Y20708121D01*
X32961780Y20762698D01*
X32954588Y20832196D01*
X32986110Y20894551D01*
X33005406Y20911270D01*
X33191401Y21041505D01*
X33358495Y21208599D01*
X33494035Y21402170D01*
X33593903Y21616337D01*
X33655063Y21844592D01*
X33675659Y22080000D01*
X33655063Y22315408D01*
X33593903Y22543663D01*
X33494035Y22757829D01*
X33473028Y22787831D01*
X33358494Y22951403D01*
X33191402Y23118494D01*
X33191395Y23118499D01*
X32997834Y23254033D01*
X32997830Y23254035D01*
X32933495Y23284035D01*
X32783663Y23353903D01*
X32783659Y23353904D01*
X32783655Y23353906D01*
X32555413Y23415062D01*
X32555403Y23415064D01*
X32320001Y23435659D01*
X32319999Y23435659D01*
X32084596Y23415064D01*
X32084586Y23415062D01*
X31856344Y23353906D01*
X31856335Y23353902D01*
X31642171Y23254036D01*
X31642169Y23254035D01*
X31448597Y23118495D01*
X31281505Y22951403D01*
X31145965Y22757831D01*
X31145964Y22757829D01*
X31046098Y22543665D01*
X31046094Y22543656D01*
X30984938Y22315414D01*
X30984936Y22315404D01*
X30964341Y22080001D01*
X30964341Y22080000D01*
X30984936Y21844597D01*
X30984938Y21844587D01*
X31046094Y21616345D01*
X31046096Y21616341D01*
X31046097Y21616337D01*
X31131976Y21432170D01*
X31145965Y21402170D01*
X31145967Y21402166D01*
X31254281Y21247479D01*
X31281505Y21208599D01*
X31448599Y21041505D01*
X31615192Y20924855D01*
X31634594Y20911270D01*
X31678219Y20856693D01*
X31685413Y20787195D01*
X31653890Y20724840D01*
X31634595Y20708120D01*
X31448922Y20578110D01*
X31448920Y20578109D01*
X31281891Y20411080D01*
X31281886Y20411074D01*
X31146400Y20217580D01*
X31146399Y20217578D01*
X31046570Y20003493D01*
X31046567Y20003487D01*
X30989364Y19790001D01*
X30989364Y19790000D01*
X31706653Y19790000D01*
X31773692Y19770315D01*
X31819447Y19717511D01*
X31829391Y19648353D01*
X31825631Y19631067D01*
X31820000Y19611889D01*
X31820000Y19468112D01*
X31825631Y19448933D01*
X31825630Y19379064D01*
X31787855Y19320286D01*
X31724299Y19291262D01*
X31706653Y19290000D01*
X30989364Y19290000D01*
X31046567Y19076514D01*
X31046570Y19076508D01*
X31146399Y18862422D01*
X31281894Y18668918D01*
X31448917Y18501895D01*
X31634595Y18371881D01*
X31678219Y18317304D01*
X31685412Y18247805D01*
X31653890Y18185451D01*
X31634595Y18168731D01*
X31448594Y18038492D01*
X31281505Y17871403D01*
X31145965Y17677831D01*
X31145964Y17677829D01*
X31046098Y17463665D01*
X31046094Y17463656D01*
X30984938Y17235414D01*
X30984936Y17235404D01*
X30964341Y17000001D01*
X30964341Y17000000D01*
X30984937Y16764592D01*
X31011855Y16664127D01*
X31010192Y16594277D01*
X30979761Y16544354D01*
X24787680Y10352273D01*
X24726357Y10318788D01*
X24656665Y10323772D01*
X24612320Y10352272D01*
X22660802Y12303789D01*
X22650980Y12316050D01*
X22650759Y12315866D01*
X22645786Y12321877D01*
X22595364Y12369227D01*
X22584919Y12379672D01*
X22574475Y12390117D01*
X22568986Y12394375D01*
X22564561Y12398153D01*
X22530582Y12430062D01*
X22530580Y12430064D01*
X22530577Y12430065D01*
X22513029Y12439712D01*
X22496763Y12450396D01*
X22480933Y12462675D01*
X22438168Y12481182D01*
X22432922Y12483752D01*
X22392093Y12506197D01*
X22392092Y12506198D01*
X22372693Y12511178D01*
X22354281Y12517482D01*
X22335898Y12525438D01*
X22335892Y12525440D01*
X22289874Y12532728D01*
X22284152Y12533913D01*
X22239021Y12545500D01*
X22239019Y12545500D01*
X22218984Y12545500D01*
X22199586Y12547027D01*
X22192162Y12548203D01*
X22179805Y12550160D01*
X22179804Y12550160D01*
X22133416Y12545775D01*
X22127578Y12545500D01*
X21290453Y12545500D01*
X21223414Y12565185D01*
X21202772Y12581819D01*
X17210237Y16574354D01*
X17176752Y16635677D01*
X17178142Y16694124D01*
X17205063Y16794592D01*
X17225659Y17030000D01*
X17205063Y17265408D01*
X17143903Y17493663D01*
X17044035Y17707829D01*
X16929502Y17871401D01*
X16908494Y17901403D01*
X16741402Y18068494D01*
X16741396Y18068499D01*
X16555842Y18198425D01*
X16512217Y18253002D01*
X16505023Y18322500D01*
X16536546Y18384855D01*
X16555842Y18401575D01*
X16578026Y18417109D01*
X16741401Y18531505D01*
X16908495Y18698599D01*
X17044035Y18892170D01*
X17143903Y19106337D01*
X17205063Y19334592D01*
X17225659Y19570000D01*
X17205063Y19805408D01*
X17143903Y20033663D01*
X17044035Y20247829D01*
X16908495Y20441401D01*
X16786179Y20563717D01*
X16752696Y20625037D01*
X16757680Y20694729D01*
X16799551Y20750663D01*
X16830529Y20767578D01*
X16962086Y20816646D01*
X16962093Y20816650D01*
X17077187Y20902810D01*
X17077190Y20902813D01*
X17163350Y21017907D01*
X17163354Y21017914D01*
X17213596Y21152621D01*
X17213598Y21152628D01*
X17219999Y21212156D01*
X17220000Y21212173D01*
X17220000Y21860000D01*
X16483347Y21860000D01*
X16416308Y21879685D01*
X16370553Y21932489D01*
X16360609Y22001647D01*
X16364369Y22018933D01*
X16370000Y22038112D01*
X16370000Y22181889D01*
X16364369Y22201067D01*
X16364370Y22270936D01*
X16402145Y22329714D01*
X16465701Y22358738D01*
X16483347Y22360000D01*
X17220000Y22360000D01*
X17220000Y23007828D01*
X17219999Y23007845D01*
X17213598Y23067373D01*
X17213596Y23067380D01*
X17163354Y23202087D01*
X17163350Y23202094D01*
X17077190Y23317188D01*
X17077187Y23317191D01*
X16962093Y23403351D01*
X16962086Y23403355D01*
X16827379Y23453597D01*
X16827372Y23453599D01*
X16767844Y23460000D01*
X16120000Y23460000D01*
X16120000Y22722302D01*
X16100315Y22655263D01*
X16047511Y22609508D01*
X15978355Y22599564D01*
X15905766Y22610000D01*
X15905763Y22610000D01*
X15834237Y22610000D01*
X15834233Y22610000D01*
X15761645Y22599564D01*
X15692487Y22609508D01*
X15639684Y22655264D01*
X15620000Y22722302D01*
X15620000Y23460000D01*
X14972155Y23460000D01*
X14912627Y23453599D01*
X14912620Y23453597D01*
X14777913Y23403355D01*
X14777906Y23403351D01*
X14662812Y23317191D01*
X14662809Y23317188D01*
X14576649Y23202094D01*
X14576645Y23202087D01*
X14526403Y23067380D01*
X14526401Y23067373D01*
X14520000Y23007845D01*
X14520000Y22360000D01*
X15256653Y22360000D01*
X15323692Y22340315D01*
X15369447Y22287511D01*
X15379391Y22218353D01*
X15375631Y22201067D01*
X15370000Y22181889D01*
X15370000Y22038112D01*
X15375631Y22018933D01*
X15375630Y21949064D01*
X15337855Y21890286D01*
X15274299Y21861262D01*
X15256653Y21860000D01*
X14520000Y21860000D01*
X14520000Y21212156D01*
X14526401Y21152628D01*
X14526403Y21152621D01*
X14576645Y21017914D01*
X14576649Y21017907D01*
X14662809Y20902813D01*
X14662812Y20902810D01*
X14777906Y20816650D01*
X14777913Y20816646D01*
X14909470Y20767579D01*
X14965403Y20725708D01*
X14989821Y20660244D01*
X14974970Y20591971D01*
X14953819Y20563716D01*
X14831503Y20441400D01*
X14695965Y20247831D01*
X14695964Y20247829D01*
X14596098Y20033665D01*
X14596094Y20033656D01*
X14534938Y19805414D01*
X14534936Y19805404D01*
X14514341Y19570001D01*
X14514341Y19570000D01*
X14534936Y19334597D01*
X14534938Y19334587D01*
X14596094Y19106345D01*
X14596096Y19106341D01*
X14596097Y19106337D01*
X14695964Y18892171D01*
X14695965Y18892170D01*
X14695967Y18892166D01*
X14831501Y18698605D01*
X14831506Y18698598D01*
X14998597Y18531507D01*
X14998603Y18531502D01*
X15184158Y18401575D01*
X15227783Y18346998D01*
X15234977Y18277500D01*
X15203454Y18215145D01*
X15184158Y18198425D01*
X14998597Y18068495D01*
X14831505Y17901403D01*
X14695965Y17707831D01*
X14695964Y17707829D01*
X14596098Y17493665D01*
X14596094Y17493656D01*
X14534938Y17265414D01*
X14534936Y17265404D01*
X14514341Y17030001D01*
X14514341Y17030000D01*
X14534936Y16794597D01*
X14534938Y16794587D01*
X14596094Y16566345D01*
X14596096Y16566341D01*
X14596097Y16566337D01*
X14610087Y16536336D01*
X14695965Y16352170D01*
X14695967Y16352166D01*
X14804281Y16197479D01*
X14831501Y16158604D01*
X14831506Y16158598D01*
X14998597Y15991507D01*
X14998603Y15991502D01*
X15184158Y15861575D01*
X15227783Y15806998D01*
X15234977Y15737500D01*
X15203454Y15675145D01*
X15184158Y15658425D01*
X14998597Y15528495D01*
X14831505Y15361403D01*
X14695965Y15167831D01*
X14695964Y15167829D01*
X14596098Y14953665D01*
X14596094Y14953656D01*
X14534938Y14725414D01*
X14534936Y14725404D01*
X14514341Y14490001D01*
X14514341Y14490000D01*
X500Y14490000D01*
X500Y29700000D01*
X13184341Y29700000D01*
X13204936Y29464597D01*
X13204938Y29464587D01*
X13266094Y29236345D01*
X13266096Y29236341D01*
X13266097Y29236337D01*
X13365965Y29022171D01*
X13365965Y29022170D01*
X13365967Y29022166D01*
X13474281Y28867479D01*
X13501505Y28828599D01*
X13668599Y28661505D01*
X13765384Y28593736D01*
X13862165Y28525968D01*
X13862167Y28525967D01*
X13862170Y28525965D01*
X14076337Y28426097D01*
X14304592Y28364937D01*
X14492918Y28348461D01*
X14539999Y28344341D01*
X14540000Y28344341D01*
X14540001Y28344341D01*
X14579234Y28347774D01*
X14775408Y28364937D01*
X15003663Y28426097D01*
X15217830Y28525965D01*
X15411401Y28661505D01*
X15578495Y28828599D01*
X15714035Y29022170D01*
X15813903Y29236337D01*
X15875063Y29464592D01*
X15895659Y29700000D01*
X15895610Y29700555D01*
X15887030Y29798628D01*
X15875063Y29935408D01*
X15813903Y30163663D01*
X15714035Y30377829D01*
X15578495Y30571401D01*
X15578494Y30571403D01*
X15411402Y30738494D01*
X15411396Y30738499D01*
X15225842Y30868425D01*
X15182217Y30923002D01*
X15175023Y30992500D01*
X15206546Y31054855D01*
X15225842Y31071575D01*
X15248026Y31087109D01*
X15411401Y31201505D01*
X15578495Y31368599D01*
X15714035Y31562170D01*
X15813903Y31776337D01*
X15875063Y32004592D01*
X15895659Y32240000D01*
X15875063Y32475408D01*
X15813903Y32703663D01*
X15714035Y32917829D01*
X15578495Y33111401D01*
X15578494Y33111403D01*
X15411402Y33278494D01*
X15411401Y33278495D01*
X15225405Y33408731D01*
X15181781Y33463308D01*
X15174588Y33532807D01*
X15206110Y33595161D01*
X15225405Y33611881D01*
X15411082Y33741895D01*
X15578105Y33908918D01*
X15713600Y34102422D01*
X15813429Y34316508D01*
X15813432Y34316514D01*
X15870636Y34530000D01*
X15153347Y34530000D01*
X15086308Y34549685D01*
X15040553Y34602489D01*
X15030609Y34671647D01*
X15034369Y34688933D01*
X15040000Y34708112D01*
X15040000Y34851889D01*
X15034369Y34871067D01*
X15034370Y34940936D01*
X15072145Y34999714D01*
X15135701Y35028738D01*
X15153347Y35030000D01*
X15870636Y35030000D01*
X15870635Y35030001D01*
X15813432Y35243487D01*
X15813429Y35243493D01*
X15713600Y35457578D01*
X15713599Y35457580D01*
X15578113Y35651074D01*
X15578108Y35651080D01*
X15411078Y35818110D01*
X15225405Y35948121D01*
X15181780Y36002698D01*
X15174588Y36072196D01*
X15206110Y36134551D01*
X15225406Y36151270D01*
X15411401Y36281505D01*
X15578495Y36448599D01*
X15714035Y36642170D01*
X15813903Y36856337D01*
X15875063Y37084592D01*
X15895659Y37320000D01*
X15875063Y37555408D01*
X15813903Y37783663D01*
X15714035Y37997829D01*
X15578495Y38191401D01*
X15578494Y38191403D01*
X15411402Y38358494D01*
X15411401Y38358495D01*
X15225842Y38488425D01*
X15225841Y38488426D01*
X15182216Y38543003D01*
X15175024Y38612502D01*
X15206546Y38674856D01*
X15225836Y38691572D01*
X15411401Y38821505D01*
X15578495Y38988599D01*
X15714035Y39182170D01*
X15813903Y39396337D01*
X15875063Y39624592D01*
X15895659Y39860000D01*
X15875063Y40095408D01*
X15813903Y40323663D01*
X15714035Y40537829D01*
X15578495Y40731401D01*
X15578494Y40731403D01*
X15411402Y40898494D01*
X15411396Y40898499D01*
X15225842Y41028425D01*
X15182217Y41083002D01*
X15175023Y41152500D01*
X15206546Y41214855D01*
X15225842Y41231575D01*
X15248026Y41247109D01*
X15411401Y41361505D01*
X15578495Y41528599D01*
X15714035Y41722170D01*
X15813903Y41936337D01*
X15875063Y42164592D01*
X15895659Y42400000D01*
X15875063Y42635408D01*
X15813903Y42863663D01*
X15714035Y43077829D01*
X15578495Y43271401D01*
X15578494Y43271403D01*
X15411402Y43438494D01*
X15411401Y43438495D01*
X15225842Y43568425D01*
X15225841Y43568426D01*
X15182216Y43623003D01*
X15175024Y43692502D01*
X15206546Y43754856D01*
X15225836Y43771572D01*
X15411401Y43901505D01*
X15578495Y44068599D01*
X15714035Y44262170D01*
X15813903Y44476337D01*
X15875063Y44704592D01*
X15895659Y44940000D01*
X15875063Y45175408D01*
X15813903Y45403663D01*
X15714035Y45617829D01*
X15578495Y45811401D01*
X15578494Y45811403D01*
X15411402Y45978494D01*
X15411401Y45978495D01*
X15225405Y46108731D01*
X15181781Y46163308D01*
X15174588Y46232807D01*
X15206110Y46295161D01*
X15225405Y46311881D01*
X15411082Y46441895D01*
X15578105Y46608918D01*
X15713600Y46802422D01*
X15813429Y47016508D01*
X15813432Y47016514D01*
X15870636Y47230000D01*
X15153347Y47230000D01*
X15086308Y47249685D01*
X15040553Y47302489D01*
X15030609Y47371647D01*
X15034369Y47388933D01*
X15040000Y47408112D01*
X15040000Y47551889D01*
X15034369Y47571067D01*
X15034370Y47640936D01*
X15072145Y47699714D01*
X15135701Y47728738D01*
X15153347Y47730000D01*
X15870636Y47730000D01*
X15870635Y47730001D01*
X15813432Y47943487D01*
X15813429Y47943493D01*
X15713600Y48157578D01*
X15713599Y48157580D01*
X15578113Y48351074D01*
X15578108Y48351080D01*
X15411078Y48518110D01*
X15225405Y48648121D01*
X15181780Y48702698D01*
X15174588Y48772196D01*
X15206110Y48834551D01*
X15225406Y48851270D01*
X15227493Y48852731D01*
X15411401Y48981505D01*
X15578495Y49148599D01*
X15714035Y49342170D01*
X15813903Y49556337D01*
X15875063Y49784592D01*
X15895659Y50020000D01*
X15875063Y50255408D01*
X15813903Y50483663D01*
X15714035Y50697829D01*
X15637228Y50807522D01*
X15578494Y50891403D01*
X15411402Y51058494D01*
X15411396Y51058499D01*
X15225842Y51188425D01*
X15182217Y51243002D01*
X15175023Y51312500D01*
X15206546Y51374855D01*
X15225842Y51391575D01*
X15248026Y51407109D01*
X15411401Y51521505D01*
X15578495Y51688599D01*
X15714035Y51882170D01*
X15813903Y52096337D01*
X15875063Y52324592D01*
X15895659Y52560000D01*
X15875063Y52795408D01*
X15813903Y53023663D01*
X15714035Y53237829D01*
X15578495Y53431401D01*
X15578494Y53431403D01*
X15411402Y53598494D01*
X15411401Y53598495D01*
X15225842Y53728425D01*
X15225841Y53728426D01*
X15182216Y53783003D01*
X15175024Y53852502D01*
X15206546Y53914856D01*
X15225836Y53931572D01*
X15411401Y54061505D01*
X15578495Y54228599D01*
X15714035Y54422170D01*
X15813903Y54636337D01*
X15875063Y54864592D01*
X15895659Y55100000D01*
X15875063Y55335408D01*
X15813903Y55563663D01*
X15714035Y55777829D01*
X15578495Y55971401D01*
X15578494Y55971403D01*
X15411402Y56138494D01*
X15411396Y56138499D01*
X15225842Y56268425D01*
X15182217Y56323002D01*
X15175023Y56392500D01*
X15206546Y56454855D01*
X15225842Y56471575D01*
X15248026Y56487109D01*
X15411401Y56601505D01*
X15578495Y56768599D01*
X15714035Y56962170D01*
X15813903Y57176337D01*
X15875063Y57404592D01*
X15895659Y57640000D01*
X15875063Y57875408D01*
X15813903Y58103663D01*
X15714035Y58317829D01*
X15578495Y58511401D01*
X15578494Y58511403D01*
X15411402Y58678494D01*
X15411401Y58678495D01*
X15225405Y58808731D01*
X15181781Y58863308D01*
X15174588Y58932807D01*
X15206110Y58995161D01*
X15225405Y59011881D01*
X15411082Y59141895D01*
X15578105Y59308918D01*
X15713600Y59502422D01*
X15813429Y59716508D01*
X15813432Y59716514D01*
X15870636Y59930000D01*
X15153347Y59930000D01*
X15086308Y59949685D01*
X15040553Y60002489D01*
X15030609Y60071647D01*
X15034369Y60088933D01*
X15040000Y60108112D01*
X15040000Y60251889D01*
X15034369Y60271067D01*
X15034370Y60340936D01*
X15072145Y60399714D01*
X15135701Y60428738D01*
X15153347Y60430000D01*
X15870636Y60430000D01*
X15870635Y60430001D01*
X15813432Y60643487D01*
X15813429Y60643493D01*
X15713600Y60857578D01*
X15713599Y60857580D01*
X15578113Y61051074D01*
X15578108Y61051080D01*
X15411078Y61218110D01*
X15225405Y61348121D01*
X15181780Y61402698D01*
X15174588Y61472196D01*
X15206110Y61534551D01*
X15225406Y61551270D01*
X15250336Y61568726D01*
X15411401Y61681505D01*
X15578495Y61848599D01*
X15714035Y62042170D01*
X15813903Y62256337D01*
X15875063Y62484592D01*
X15895659Y62720000D01*
X15875063Y62955408D01*
X15813903Y63183663D01*
X15714035Y63397829D01*
X15637228Y63507522D01*
X15578494Y63591403D01*
X15411402Y63758494D01*
X15411396Y63758499D01*
X15225842Y63888425D01*
X15182217Y63943002D01*
X15175023Y64012500D01*
X15206546Y64074855D01*
X15225842Y64091575D01*
X15379229Y64198978D01*
X15411401Y64221505D01*
X15578495Y64388599D01*
X15714035Y64582170D01*
X15813903Y64796337D01*
X15875063Y65024592D01*
X15895659Y65260000D01*
X15875063Y65495408D01*
X15813903Y65723663D01*
X15714035Y65937829D01*
X15637228Y66047522D01*
X15578494Y66131403D01*
X15411402Y66298494D01*
X15411396Y66298499D01*
X15225842Y66428425D01*
X15182217Y66483002D01*
X15175023Y66552500D01*
X15206546Y66614855D01*
X15225842Y66631575D01*
X15248026Y66647109D01*
X15411401Y66761505D01*
X15578495Y66928599D01*
X15714035Y67122170D01*
X15813903Y67336337D01*
X15875063Y67564592D01*
X15895659Y67800000D01*
X15875063Y68035408D01*
X15813903Y68263663D01*
X15714035Y68477829D01*
X15578495Y68671401D01*
X15578494Y68671403D01*
X15411402Y68838494D01*
X15411396Y68838499D01*
X15225842Y68968425D01*
X15182217Y69023002D01*
X15175023Y69092500D01*
X15206546Y69154855D01*
X15225842Y69171575D01*
X15248026Y69187109D01*
X15411401Y69301505D01*
X15578495Y69468599D01*
X15714035Y69662170D01*
X15813903Y69876337D01*
X15875063Y70104592D01*
X15895659Y70340000D01*
X15875063Y70575408D01*
X15813903Y70803663D01*
X15714035Y71017829D01*
X15578495Y71211401D01*
X15578494Y71211403D01*
X15411402Y71378494D01*
X15411401Y71378495D01*
X15225405Y71508731D01*
X15181781Y71563308D01*
X15174588Y71632807D01*
X15206110Y71695161D01*
X15225405Y71711881D01*
X15411082Y71841895D01*
X15578105Y72008918D01*
X15713600Y72202422D01*
X15813429Y72416508D01*
X15813432Y72416514D01*
X15870636Y72630000D01*
X15153347Y72630000D01*
X15086308Y72649685D01*
X15040553Y72702489D01*
X15030609Y72771647D01*
X15034369Y72788933D01*
X15040000Y72808112D01*
X15040000Y72951889D01*
X15034369Y72971067D01*
X15034370Y73040936D01*
X15072145Y73099714D01*
X15135701Y73128738D01*
X15153347Y73130000D01*
X15870636Y73130000D01*
X15870635Y73130001D01*
X15813432Y73343487D01*
X15813429Y73343493D01*
X15713600Y73557578D01*
X15713599Y73557580D01*
X15578113Y73751074D01*
X15578108Y73751080D01*
X15411078Y73918110D01*
X15225405Y74048121D01*
X15181780Y74102698D01*
X15174588Y74172196D01*
X15206110Y74234551D01*
X15225406Y74251270D01*
X15411401Y74381505D01*
X15578495Y74548599D01*
X15714035Y74742170D01*
X15813903Y74956337D01*
X15875063Y75184592D01*
X15895659Y75420000D01*
X15875063Y75655408D01*
X15813903Y75883663D01*
X15714035Y76097829D01*
X15578495Y76291401D01*
X15456567Y76413329D01*
X15423084Y76474649D01*
X15428068Y76544341D01*
X15469939Y76600275D01*
X15500915Y76617190D01*
X15632331Y76666204D01*
X15747546Y76752454D01*
X15833796Y76867669D01*
X15884091Y77002517D01*
X15890500Y77062127D01*
X15890499Y78857872D01*
X15884091Y78917483D01*
X15833796Y79052331D01*
X15833795Y79052332D01*
X15833793Y79052336D01*
X15747547Y79167545D01*
X15747544Y79167548D01*
X15632335Y79253794D01*
X15632328Y79253798D01*
X15497482Y79304092D01*
X15497483Y79304092D01*
X15437883Y79310499D01*
X15437881Y79310500D01*
X15437873Y79310500D01*
X15437864Y79310500D01*
X13642129Y79310500D01*
X13642123Y79310499D01*
X13582516Y79304092D01*
X13447671Y79253798D01*
X13447664Y79253794D01*
X13332455Y79167548D01*
X13332452Y79167545D01*
X13246206Y79052336D01*
X13246202Y79052329D01*
X13195908Y78917483D01*
X13192089Y78881956D01*
X13189501Y78857877D01*
X13189500Y78857865D01*
X13189500Y77062130D01*
X13189501Y77062124D01*
X13195908Y77002517D01*
X13246202Y76867672D01*
X13246206Y76867665D01*
X13332452Y76752456D01*
X13332455Y76752453D01*
X13447664Y76666207D01*
X13447671Y76666203D01*
X13579081Y76617190D01*
X13635015Y76575319D01*
X13659432Y76509855D01*
X13644580Y76441582D01*
X13623430Y76413327D01*
X13501503Y76291400D01*
X13365965Y76097831D01*
X13365964Y76097829D01*
X13266098Y75883665D01*
X13266094Y75883656D01*
X13204938Y75655414D01*
X13204936Y75655404D01*
X13184341Y75420001D01*
X13184341Y75420000D01*
X13204936Y75184597D01*
X13204938Y75184587D01*
X13266094Y74956345D01*
X13266096Y74956341D01*
X13266097Y74956337D01*
X13365965Y74742171D01*
X13365965Y74742170D01*
X13365967Y74742166D01*
X13501501Y74548605D01*
X13501506Y74548598D01*
X13668597Y74381507D01*
X13668603Y74381502D01*
X13854594Y74251270D01*
X13898219Y74196693D01*
X13905413Y74127195D01*
X13873890Y74064840D01*
X13854595Y74048120D01*
X13668922Y73918110D01*
X13668920Y73918109D01*
X13501891Y73751080D01*
X13501886Y73751074D01*
X13366400Y73557580D01*
X13366399Y73557578D01*
X13266570Y73343493D01*
X13266567Y73343487D01*
X13209364Y73130001D01*
X13209364Y73130000D01*
X13926653Y73130000D01*
X13993692Y73110315D01*
X14039447Y73057511D01*
X14049391Y72988353D01*
X14045631Y72971067D01*
X14040000Y72951889D01*
X14040000Y72808112D01*
X14045631Y72788933D01*
X14045630Y72719064D01*
X14007855Y72660286D01*
X13944299Y72631262D01*
X13926653Y72630000D01*
X13209364Y72630000D01*
X13266567Y72416514D01*
X13266570Y72416508D01*
X13366399Y72202422D01*
X13501894Y72008918D01*
X13668917Y71841895D01*
X13854595Y71711881D01*
X13898219Y71657304D01*
X13905412Y71587805D01*
X13873890Y71525451D01*
X13854595Y71508731D01*
X13668594Y71378492D01*
X13501505Y71211403D01*
X13365965Y71017831D01*
X13365964Y71017829D01*
X13266098Y70803665D01*
X13266094Y70803656D01*
X13204938Y70575414D01*
X13204936Y70575404D01*
X13184341Y70340001D01*
X13184341Y70340000D01*
X13204936Y70104597D01*
X13204938Y70104587D01*
X13266094Y69876345D01*
X13266096Y69876341D01*
X13266097Y69876337D01*
X13365965Y69662171D01*
X13365965Y69662170D01*
X13365967Y69662166D01*
X13501501Y69468605D01*
X13501506Y69468598D01*
X13668597Y69301507D01*
X13668603Y69301502D01*
X13854158Y69171575D01*
X13897783Y69116998D01*
X13904977Y69047500D01*
X13873454Y68985145D01*
X13854158Y68968425D01*
X13668597Y68838495D01*
X13501505Y68671403D01*
X13365965Y68477831D01*
X13365964Y68477829D01*
X13266098Y68263665D01*
X13266094Y68263656D01*
X13204938Y68035414D01*
X13204936Y68035404D01*
X13184341Y67800001D01*
X13184341Y67800000D01*
X13204936Y67564597D01*
X13204938Y67564587D01*
X13266094Y67336345D01*
X13266096Y67336341D01*
X13266097Y67336337D01*
X13365965Y67122170D01*
X13365967Y67122166D01*
X13501501Y66928605D01*
X13501506Y66928598D01*
X13668597Y66761507D01*
X13668603Y66761502D01*
X13854158Y66631575D01*
X13897783Y66576998D01*
X13904977Y66507500D01*
X13873454Y66445145D01*
X13854158Y66428425D01*
X13668597Y66298495D01*
X13501505Y66131403D01*
X13365965Y65937831D01*
X13365964Y65937829D01*
X13266098Y65723665D01*
X13266094Y65723656D01*
X13204938Y65495414D01*
X13204936Y65495404D01*
X13184341Y65260001D01*
X13184341Y65260000D01*
X13204936Y65024597D01*
X13204938Y65024587D01*
X13266094Y64796345D01*
X13266096Y64796341D01*
X13266097Y64796337D01*
X13335539Y64647419D01*
X13365965Y64582170D01*
X13365967Y64582166D01*
X13501501Y64388605D01*
X13501506Y64388598D01*
X13668597Y64221507D01*
X13668603Y64221502D01*
X13854158Y64091575D01*
X13897783Y64036998D01*
X13904977Y63967500D01*
X13873454Y63905145D01*
X13854158Y63888425D01*
X13668597Y63758495D01*
X13501505Y63591403D01*
X13365965Y63397831D01*
X13365964Y63397829D01*
X13266098Y63183665D01*
X13266094Y63183656D01*
X13204938Y62955414D01*
X13204936Y62955404D01*
X13184341Y62720001D01*
X13184341Y62720000D01*
X13204936Y62484597D01*
X13204938Y62484587D01*
X13266094Y62256345D01*
X13266096Y62256341D01*
X13266097Y62256337D01*
X13335539Y62107419D01*
X13365965Y62042170D01*
X13365967Y62042166D01*
X13501501Y61848605D01*
X13501506Y61848598D01*
X13668597Y61681507D01*
X13668603Y61681502D01*
X13854594Y61551270D01*
X13898219Y61496693D01*
X13905413Y61427195D01*
X13873890Y61364840D01*
X13854595Y61348120D01*
X13668922Y61218110D01*
X13668920Y61218109D01*
X13501891Y61051080D01*
X13501886Y61051074D01*
X13366400Y60857580D01*
X13366399Y60857578D01*
X13266570Y60643493D01*
X13266567Y60643487D01*
X13209364Y60430001D01*
X13209364Y60430000D01*
X13926653Y60430000D01*
X13993692Y60410315D01*
X14039447Y60357511D01*
X14049391Y60288353D01*
X14045631Y60271067D01*
X14040000Y60251889D01*
X14040000Y60108112D01*
X14045631Y60088933D01*
X14045630Y60019064D01*
X14007855Y59960286D01*
X13944299Y59931262D01*
X13926653Y59930000D01*
X13209364Y59930000D01*
X13266567Y59716514D01*
X13266570Y59716508D01*
X13366399Y59502422D01*
X13501894Y59308918D01*
X13668917Y59141895D01*
X13854595Y59011881D01*
X13898219Y58957304D01*
X13905412Y58887805D01*
X13873890Y58825451D01*
X13854595Y58808731D01*
X13668594Y58678492D01*
X13501505Y58511403D01*
X13365965Y58317831D01*
X13365964Y58317829D01*
X13266098Y58103665D01*
X13266094Y58103656D01*
X13204938Y57875414D01*
X13204936Y57875404D01*
X13184341Y57640001D01*
X13184341Y57640000D01*
X13204936Y57404597D01*
X13204938Y57404587D01*
X13266094Y57176345D01*
X13266096Y57176341D01*
X13266097Y57176337D01*
X13365965Y56962170D01*
X13365967Y56962166D01*
X13501501Y56768605D01*
X13501506Y56768598D01*
X13668597Y56601507D01*
X13668603Y56601502D01*
X13854158Y56471575D01*
X13897783Y56416998D01*
X13904977Y56347500D01*
X13873454Y56285145D01*
X13854158Y56268425D01*
X13668597Y56138495D01*
X13501505Y55971403D01*
X13365965Y55777831D01*
X13365964Y55777829D01*
X13266098Y55563665D01*
X13266094Y55563656D01*
X13204938Y55335414D01*
X13204936Y55335404D01*
X13184341Y55100001D01*
X13184341Y55100000D01*
X13204936Y54864597D01*
X13204938Y54864587D01*
X13266094Y54636345D01*
X13266096Y54636341D01*
X13266097Y54636337D01*
X13365965Y54422171D01*
X13365965Y54422170D01*
X13365967Y54422166D01*
X13501501Y54228605D01*
X13501506Y54228598D01*
X13668597Y54061507D01*
X13668603Y54061502D01*
X13854158Y53931575D01*
X13897783Y53876998D01*
X13904977Y53807500D01*
X13873454Y53745145D01*
X13854158Y53728425D01*
X13668597Y53598495D01*
X13501505Y53431403D01*
X13365965Y53237831D01*
X13365964Y53237829D01*
X13266098Y53023665D01*
X13266094Y53023656D01*
X13204938Y52795414D01*
X13204936Y52795404D01*
X13184341Y52560001D01*
X13184341Y52560000D01*
X13204936Y52324597D01*
X13204938Y52324587D01*
X13266094Y52096345D01*
X13266096Y52096341D01*
X13266097Y52096337D01*
X13287515Y52050407D01*
X13365965Y51882170D01*
X13365967Y51882166D01*
X13501501Y51688605D01*
X13501506Y51688598D01*
X13668597Y51521507D01*
X13668603Y51521502D01*
X13854158Y51391575D01*
X13897783Y51336998D01*
X13904977Y51267500D01*
X13873454Y51205145D01*
X13854158Y51188425D01*
X13668597Y51058495D01*
X13501505Y50891403D01*
X13365965Y50697831D01*
X13365964Y50697829D01*
X13266098Y50483665D01*
X13266094Y50483656D01*
X13204938Y50255414D01*
X13204936Y50255404D01*
X13184341Y50020001D01*
X13184341Y50020000D01*
X13204936Y49784597D01*
X13204938Y49784587D01*
X13266094Y49556345D01*
X13266096Y49556341D01*
X13266097Y49556337D01*
X13335539Y49407419D01*
X13365965Y49342170D01*
X13365967Y49342166D01*
X13474281Y49187479D01*
X13501505Y49148599D01*
X13668599Y48981505D01*
X13835342Y48864750D01*
X13854594Y48851270D01*
X13898219Y48796693D01*
X13905413Y48727195D01*
X13873890Y48664840D01*
X13854595Y48648120D01*
X13668922Y48518110D01*
X13668920Y48518109D01*
X13501891Y48351080D01*
X13501886Y48351074D01*
X13366400Y48157580D01*
X13366399Y48157578D01*
X13266570Y47943493D01*
X13266567Y47943487D01*
X13209364Y47730001D01*
X13209364Y47730000D01*
X13926653Y47730000D01*
X13993692Y47710315D01*
X14039447Y47657511D01*
X14049391Y47588353D01*
X14045631Y47571067D01*
X14040000Y47551889D01*
X14040000Y47408112D01*
X14045631Y47388933D01*
X14045630Y47319064D01*
X14007855Y47260286D01*
X13944299Y47231262D01*
X13926653Y47230000D01*
X13209364Y47230000D01*
X13266567Y47016514D01*
X13266570Y47016508D01*
X13366399Y46802422D01*
X13501894Y46608918D01*
X13668917Y46441895D01*
X13854595Y46311881D01*
X13898219Y46257304D01*
X13905412Y46187805D01*
X13873890Y46125451D01*
X13854595Y46108731D01*
X13668594Y45978492D01*
X13501505Y45811403D01*
X13365965Y45617831D01*
X13365964Y45617829D01*
X13266098Y45403665D01*
X13266094Y45403656D01*
X13204938Y45175414D01*
X13204936Y45175404D01*
X13184341Y44940001D01*
X13184341Y44940000D01*
X13204936Y44704597D01*
X13204938Y44704587D01*
X13266094Y44476345D01*
X13266096Y44476341D01*
X13266097Y44476337D01*
X13271895Y44463904D01*
X13365965Y44262170D01*
X13365967Y44262166D01*
X13501501Y44068605D01*
X13501506Y44068598D01*
X13668597Y43901507D01*
X13668603Y43901502D01*
X13854158Y43771575D01*
X13897783Y43716998D01*
X13904977Y43647500D01*
X13873454Y43585145D01*
X13854158Y43568425D01*
X13668597Y43438495D01*
X13501505Y43271403D01*
X13365965Y43077831D01*
X13365964Y43077829D01*
X13266098Y42863665D01*
X13266094Y42863656D01*
X13204938Y42635414D01*
X13204936Y42635404D01*
X13184341Y42400001D01*
X13184341Y42400000D01*
X13204936Y42164597D01*
X13204938Y42164587D01*
X13266094Y41936345D01*
X13266096Y41936341D01*
X13266097Y41936337D01*
X13365965Y41722170D01*
X13365967Y41722166D01*
X13501501Y41528605D01*
X13501506Y41528598D01*
X13668597Y41361507D01*
X13668603Y41361502D01*
X13854158Y41231575D01*
X13897783Y41176998D01*
X13904977Y41107500D01*
X13873454Y41045145D01*
X13854158Y41028425D01*
X13668597Y40898495D01*
X13501505Y40731403D01*
X13365965Y40537831D01*
X13365964Y40537829D01*
X13266098Y40323665D01*
X13266094Y40323656D01*
X13204938Y40095414D01*
X13204936Y40095404D01*
X13184341Y39860001D01*
X13184341Y39860000D01*
X13204936Y39624597D01*
X13204938Y39624587D01*
X13266094Y39396345D01*
X13266096Y39396341D01*
X13266097Y39396337D01*
X13365965Y39182170D01*
X13365967Y39182166D01*
X13501501Y38988605D01*
X13501506Y38988598D01*
X13668597Y38821507D01*
X13668603Y38821502D01*
X13854158Y38691575D01*
X13897783Y38636998D01*
X13904977Y38567500D01*
X13873454Y38505145D01*
X13854158Y38488425D01*
X13668597Y38358495D01*
X13501505Y38191403D01*
X13365965Y37997831D01*
X13365964Y37997829D01*
X13266098Y37783665D01*
X13266094Y37783656D01*
X13204938Y37555414D01*
X13204936Y37555404D01*
X13184341Y37320001D01*
X13184341Y37320000D01*
X13204936Y37084597D01*
X13204938Y37084587D01*
X13266094Y36856345D01*
X13266096Y36856341D01*
X13266097Y36856337D01*
X13365965Y36642170D01*
X13365967Y36642166D01*
X13501501Y36448605D01*
X13501506Y36448598D01*
X13668597Y36281507D01*
X13668603Y36281502D01*
X13854594Y36151270D01*
X13898219Y36096693D01*
X13905413Y36027195D01*
X13873890Y35964840D01*
X13854595Y35948120D01*
X13668922Y35818110D01*
X13668920Y35818109D01*
X13501891Y35651080D01*
X13501886Y35651074D01*
X13366400Y35457580D01*
X13366399Y35457578D01*
X13266570Y35243493D01*
X13266567Y35243487D01*
X13209364Y35030001D01*
X13209364Y35030000D01*
X13926653Y35030000D01*
X13993692Y35010315D01*
X14039447Y34957511D01*
X14049391Y34888353D01*
X14045631Y34871067D01*
X14040000Y34851889D01*
X14040000Y34708112D01*
X14045631Y34688933D01*
X14045630Y34619064D01*
X14007855Y34560286D01*
X13944299Y34531262D01*
X13926653Y34530000D01*
X13209364Y34530000D01*
X13266567Y34316514D01*
X13266570Y34316508D01*
X13366399Y34102422D01*
X13501894Y33908918D01*
X13668917Y33741895D01*
X13854595Y33611881D01*
X13898219Y33557304D01*
X13905412Y33487805D01*
X13873890Y33425451D01*
X13854595Y33408731D01*
X13668594Y33278492D01*
X13501505Y33111403D01*
X13365965Y32917831D01*
X13365964Y32917829D01*
X13266098Y32703665D01*
X13266094Y32703656D01*
X13204938Y32475414D01*
X13204936Y32475404D01*
X13184341Y32240001D01*
X13184341Y32240000D01*
X13204936Y32004597D01*
X13204938Y32004587D01*
X13266094Y31776345D01*
X13266096Y31776341D01*
X13266097Y31776337D01*
X13365965Y31562170D01*
X13365967Y31562166D01*
X13501501Y31368605D01*
X13501506Y31368598D01*
X13668597Y31201507D01*
X13668603Y31201502D01*
X13854158Y31071575D01*
X13897783Y31016998D01*
X13904977Y30947500D01*
X13873454Y30885145D01*
X13854158Y30868425D01*
X13668597Y30738495D01*
X13501505Y30571403D01*
X13365965Y30377831D01*
X13365964Y30377829D01*
X13266098Y30163665D01*
X13266094Y30163656D01*
X13204938Y29935414D01*
X13204936Y29935404D01*
X13184341Y29700001D01*
X13184341Y29700000D01*
X500Y29700000D01*
X500Y80432237D01*
X2525787Y80432237D01*
X2555413Y80162987D01*
X2555415Y80162976D01*
X2623926Y79900918D01*
X2623928Y79900912D01*
X2729870Y79651610D01*
X2801998Y79533425D01*
X2870979Y79420395D01*
X2870986Y79420385D01*
X3044253Y79212181D01*
X3044259Y79212176D01*
X3149240Y79118113D01*
X3245998Y79031418D01*
X3471910Y78881956D01*
X3717176Y78766980D01*
X3717183Y78766978D01*
X3717185Y78766977D01*
X3976557Y78688943D01*
X3976564Y78688942D01*
X3976569Y78688940D01*
X4244561Y78649500D01*
X4244566Y78649500D01*
X4447636Y78649500D01*
X4499133Y78653270D01*
X4650156Y78664323D01*
X4762758Y78689407D01*
X4914546Y78723218D01*
X4914548Y78723219D01*
X4914553Y78723220D01*
X5167558Y78819986D01*
X5403777Y78952559D01*
X5618177Y79118112D01*
X5806186Y79313119D01*
X5963799Y79533421D01*
X6037787Y79677331D01*
X6087649Y79774310D01*
X6087651Y79774316D01*
X6087656Y79774325D01*
X6175118Y80030695D01*
X6224319Y80297067D01*
X6229259Y80432237D01*
X43165787Y80432237D01*
X43195413Y80162987D01*
X43195415Y80162976D01*
X43263926Y79900918D01*
X43263928Y79900912D01*
X43369870Y79651610D01*
X43441998Y79533425D01*
X43510979Y79420395D01*
X43510986Y79420385D01*
X43684253Y79212181D01*
X43684259Y79212176D01*
X43789240Y79118113D01*
X43885998Y79031418D01*
X44111910Y78881956D01*
X44357176Y78766980D01*
X44357183Y78766978D01*
X44357185Y78766977D01*
X44616557Y78688943D01*
X44616564Y78688942D01*
X44616569Y78688940D01*
X44884561Y78649500D01*
X44884566Y78649500D01*
X45087636Y78649500D01*
X45139133Y78653270D01*
X45290156Y78664323D01*
X45402758Y78689407D01*
X45554546Y78723218D01*
X45554548Y78723219D01*
X45554553Y78723220D01*
X45807558Y78819986D01*
X46043777Y78952559D01*
X46258177Y79118112D01*
X46446186Y79313119D01*
X46603799Y79533421D01*
X46677787Y79677331D01*
X46727649Y79774310D01*
X46727651Y79774316D01*
X46727656Y79774325D01*
X46815118Y80030695D01*
X46864319Y80297067D01*
X46874212Y80567765D01*
X46844586Y80837018D01*
X46776072Y81099088D01*
X46670130Y81348390D01*
X46529018Y81579610D01*
X46439747Y81686881D01*
X46355746Y81787820D01*
X46355740Y81787825D01*
X46154002Y81968582D01*
X45928092Y82118043D01*
X45928090Y82118044D01*
X45682824Y82233020D01*
X45682819Y82233022D01*
X45682814Y82233024D01*
X45423442Y82311058D01*
X45423428Y82311061D01*
X45307791Y82328079D01*
X45155439Y82350500D01*
X44952369Y82350500D01*
X44952364Y82350500D01*
X44749844Y82335677D01*
X44749831Y82335675D01*
X44485453Y82276783D01*
X44485446Y82276780D01*
X44232439Y82180013D01*
X43996226Y82047443D01*
X43781822Y81881888D01*
X43593822Y81686891D01*
X43593816Y81686884D01*
X43436202Y81466581D01*
X43436199Y81466576D01*
X43312350Y81225691D01*
X43312343Y81225673D01*
X43224884Y80969315D01*
X43224881Y80969301D01*
X43175681Y80702932D01*
X43175680Y80702925D01*
X43165787Y80432237D01*
X6229259Y80432237D01*
X6234212Y80567765D01*
X6204586Y80837018D01*
X6136072Y81099088D01*
X6030130Y81348390D01*
X5889018Y81579610D01*
X5799747Y81686881D01*
X5715746Y81787820D01*
X5715740Y81787825D01*
X5514002Y81968582D01*
X5288092Y82118043D01*
X5288090Y82118044D01*
X5042824Y82233020D01*
X5042819Y82233022D01*
X5042814Y82233024D01*
X4783442Y82311058D01*
X4783428Y82311061D01*
X4667791Y82328079D01*
X4515439Y82350500D01*
X4312369Y82350500D01*
X4312364Y82350500D01*
X4109844Y82335677D01*
X4109831Y82335675D01*
X3845453Y82276783D01*
X3845446Y82276780D01*
X3592439Y82180013D01*
X3356226Y82047443D01*
X3141822Y81881888D01*
X2953822Y81686891D01*
X2953816Y81686884D01*
X2796202Y81466581D01*
X2796199Y81466576D01*
X2672350Y81225691D01*
X2672343Y81225673D01*
X2584884Y80969315D01*
X2584881Y80969301D01*
X2535681Y80702932D01*
X2535680Y80702925D01*
X2525787Y80432237D01*
X500Y80432237D01*
X500Y83949139D01*
X20185Y84016178D01*
X36814Y84036815D01*
X963180Y84963181D01*
X1024504Y84996666D01*
X1050862Y84999500D01*
X47949138Y84999500D01*
X48016177Y84979815D01*
G37*
%TD.AperFunction*%
%TD*%
M02*
