%TF.GenerationSoftware,KiCad,Pcbnew,7.0.8*%
%TF.CreationDate,2023-10-25T17:55:18+09:00*%
%TF.ProjectId,WETHAP_PCB,57455448-4150-45f5-9043-422e6b696361,rev?*%
%TF.SameCoordinates,PX6d9c4d8PY8977a68*%
%TF.FileFunction,Copper,L1,Top*%
%TF.FilePolarity,Positive*%
%FSLAX46Y46*%
G04 Gerber Fmt 4.6, Leading zero omitted, Abs format (unit mm)*
G04 Created by KiCad (PCBNEW 7.0.8) date 2023-10-25 17:55:18*
%MOMM*%
%LPD*%
G01*
G04 APERTURE LIST*
%TA.AperFunction,ComponentPad*%
%ADD10R,1.700000X1.700000*%
%TD*%
%TA.AperFunction,ComponentPad*%
%ADD11O,1.700000X1.700000*%
%TD*%
%TA.AperFunction,ComponentPad*%
%ADD12C,1.440000*%
%TD*%
%TA.AperFunction,ViaPad*%
%ADD13C,0.800000*%
%TD*%
%TA.AperFunction,Conductor*%
%ADD14C,0.250000*%
%TD*%
%TA.AperFunction,Conductor*%
%ADD15C,0.500000*%
%TD*%
G04 APERTURE END LIST*
D10*
%TO.P,DHT20,1,Pin_1*%
%TO.N,vbus*%
X32385000Y14605000D03*
D11*
%TO.P,DHT20,2,Pin_2*%
%TO.N,sda*%
X32385000Y17145000D03*
%TO.P,DHT20,3,Pin_3*%
%TO.N,gnd*%
X32385000Y19685000D03*
%TO.P,DHT20,4,Pin_4*%
%TO.N,scl*%
X32385000Y22225000D03*
%TD*%
D10*
%TO.P,J1,1,Pin_1*%
%TO.N,unconnected-(J1-Pin_1-Pad1)*%
X14605000Y78105000D03*
D11*
%TO.P,J1,2,Pin_2*%
%TO.N,unconnected-(J1-Pin_2-Pad2)*%
X14605000Y75565000D03*
%TO.P,J1,3,Pin_3*%
%TO.N,gnd*%
X14605000Y73025000D03*
%TO.P,J1,4,Pin_4*%
%TO.N,unconnected-(J1-Pin_4-Pad4)*%
X14605000Y70485000D03*
%TO.P,J1,5,Pin_5*%
%TO.N,unconnected-(J1-Pin_5-Pad5)*%
X14605000Y67945000D03*
%TO.P,J1,6,Pin_6*%
%TO.N,unconnected-(J1-Pin_6-Pad6)*%
X14605000Y65405000D03*
%TO.P,J1,7,Pin_7*%
%TO.N,unconnected-(J1-Pin_7-Pad7)*%
X14605000Y62865000D03*
%TO.P,J1,8,Pin_8*%
%TO.N,gnd*%
X14605000Y60325000D03*
%TO.P,J1,9,Pin_9*%
%TO.N,unconnected-(J1-Pin_9-Pad9)*%
X14605000Y57785000D03*
%TO.P,J1,10,Pin_10*%
%TO.N,unconnected-(J1-Pin_10-Pad10)*%
X14605000Y55245000D03*
%TO.P,J1,11,Pin_11*%
%TO.N,unconnected-(J1-Pin_11-Pad11)*%
X14605000Y52705000D03*
%TO.P,J1,12,Pin_12*%
%TO.N,unconnected-(J1-Pin_12-Pad12)*%
X14605000Y50165000D03*
%TO.P,J1,13,Pin_13*%
%TO.N,gnd*%
X14605000Y47625000D03*
%TO.P,J1,14,Pin_14*%
%TO.N,unconnected-(J1-Pin_14-Pad14)*%
X14605000Y45085000D03*
%TO.P,J1,15,Pin_15*%
%TO.N,unconnected-(J1-Pin_15-Pad15)*%
X14605000Y42545000D03*
%TO.P,J1,16,Pin_16*%
%TO.N,unconnected-(J1-Pin_16-Pad16)*%
X14605000Y40005000D03*
%TO.P,J1,17,Pin_17*%
%TO.N,unconnected-(J1-Pin_17-Pad17)*%
X14605000Y37465000D03*
%TO.P,J1,18,Pin_18*%
%TO.N,gnd*%
X14605000Y34925000D03*
%TO.P,J1,19,Pin_19*%
%TO.N,unconnected-(J1-Pin_19-Pad19)*%
X14605000Y32385000D03*
%TO.P,J1,20,Pin_20*%
%TO.N,unconnected-(J1-Pin_20-Pad20)*%
X14605000Y29845000D03*
%TD*%
D10*
%TO.P,LPS25HB1,1,Pin_1*%
%TO.N,vbus*%
X15935000Y22255000D03*
D11*
%TO.P,LPS25HB1,2,Pin_2*%
%TO.N,scl*%
X15935000Y19715000D03*
%TO.P,LPS25HB1,3,Pin_3*%
%TO.N,sda*%
X15935000Y17175000D03*
%TO.P,LPS25HB1,4,Pin_4*%
%TO.N,gnd*%
X15935000Y14635000D03*
%TD*%
D10*
%TO.P,SSD1306,1,Pin_1*%
%TO.N,gnd*%
X19685000Y6985000D03*
D11*
%TO.P,SSD1306,2,Pin_2*%
%TO.N,vbus*%
X22225000Y6985000D03*
%TO.P,SSD1306,3,Pin_3*%
%TO.N,scl*%
X24765000Y6985000D03*
%TO.P,SSD1306,4,Pin_4*%
%TO.N,sda*%
X27305000Y6985000D03*
%TD*%
D12*
%TO.P,RV1,1,1*%
%TO.N,adc_vref*%
X42545000Y50165000D03*
%TO.P,RV1,2,2*%
%TO.N,Net-(J2-Pin_10)*%
X42545000Y47625000D03*
%TO.P,RV1,3,3*%
%TO.N,gnd*%
X42545000Y45085000D03*
%TD*%
D10*
%TO.P,J2,1,Pin_1*%
%TO.N,vbus*%
X32385000Y78105000D03*
D11*
%TO.P,J2,2,Pin_2*%
%TO.N,unconnected-(J2-Pin_2-Pad2)*%
X32385000Y75565000D03*
%TO.P,J2,3,Pin_3*%
%TO.N,gnd*%
X32385000Y73025000D03*
%TO.P,J2,4,Pin_4*%
%TO.N,unconnected-(J2-Pin_4-Pad4)*%
X32385000Y70485000D03*
%TO.P,J2,5,Pin_5*%
%TO.N,unconnected-(J2-Pin_5-Pad5)*%
X32385000Y67945000D03*
%TO.P,J2,6,Pin_6*%
%TO.N,adc_vref*%
X32385000Y65405000D03*
%TO.P,J2,7,Pin_7*%
%TO.N,unconnected-(J2-Pin_7-Pad7)*%
X32385000Y62865000D03*
%TO.P,J2,8,Pin_8*%
%TO.N,gnd*%
X32385000Y60325000D03*
%TO.P,J2,9,Pin_9*%
%TO.N,Net-(J2-Pin_9)*%
X32385000Y57785000D03*
%TO.P,J2,10,Pin_10*%
%TO.N,Net-(J2-Pin_10)*%
X32385000Y55245000D03*
%TO.P,J2,11,Pin_11*%
%TO.N,unconnected-(J2-Pin_11-Pad11)*%
X32385000Y52705000D03*
%TO.P,J2,12,Pin_12*%
%TO.N,unconnected-(J2-Pin_12-Pad12)*%
X32385000Y50165000D03*
%TO.P,J2,13,Pin_13*%
%TO.N,gnd*%
X32385000Y47625000D03*
%TO.P,J2,14,Pin_14*%
%TO.N,unconnected-(J2-Pin_14-Pad14)*%
X32385000Y45085000D03*
%TO.P,J2,15,Pin_15*%
%TO.N,unconnected-(J2-Pin_15-Pad15)*%
X32385000Y42545000D03*
%TO.P,J2,16,Pin_16*%
%TO.N,unconnected-(J2-Pin_16-Pad16)*%
X32385000Y40005000D03*
%TO.P,J2,17,Pin_17*%
%TO.N,unconnected-(J2-Pin_17-Pad17)*%
X32385000Y37465000D03*
%TO.P,J2,18,Pin_18*%
%TO.N,gnd*%
X32385000Y34925000D03*
%TO.P,J2,19,Pin_19*%
%TO.N,scl*%
X32385000Y32385000D03*
%TO.P,J2,20,Pin_20*%
%TO.N,sda*%
X32385000Y29845000D03*
%TD*%
D12*
%TO.P,RV2,1,1*%
%TO.N,adc_vref*%
X42545000Y65405000D03*
%TO.P,RV2,2,2*%
%TO.N,Net-(J2-Pin_9)*%
X42545000Y62865000D03*
%TO.P,RV2,3,3*%
%TO.N,gnd*%
X42545000Y60325000D03*
%TD*%
D10*
%TO.P,LPS25HB2,1*%
%TO.N,N/C*%
X23555000Y14635000D03*
D11*
%TO.P,LPS25HB2,2*%
X23555000Y17175000D03*
%TO.P,LPS25HB2,3*%
X23555000Y19715000D03*
%TO.P,LPS25HB2,4*%
X23555000Y22255000D03*
%TD*%
D13*
%TO.N,gnd*%
X31750000Y26035000D03*
X34925000Y12065000D03*
X22225000Y31115000D03*
X38735000Y73025000D03*
X45085000Y24765000D03*
X28575000Y50165000D03*
X3175000Y37465000D03*
X38735000Y5715000D03*
X36195000Y43815000D03*
X28575000Y81915000D03*
X3175000Y62865000D03*
X38735000Y18415000D03*
X10795000Y31115000D03*
X18415000Y69215000D03*
X19685000Y15875000D03*
X36195000Y56515000D03*
X10795000Y69215000D03*
X38735000Y31115000D03*
X41275000Y64135000D03*
X10795000Y81915000D03*
X4445000Y75565000D03*
X45085000Y37465000D03*
X15935000Y24795000D03*
X10795000Y18415000D03*
X10795000Y5715000D03*
X14605000Y12065000D03*
X18415000Y81915000D03*
X46355000Y51435000D03*
X22225000Y43815000D03*
X10795000Y43815000D03*
X27305000Y22225000D03*
X46355000Y66675000D03*
X10795000Y56515000D03*
X3175000Y24765000D03*
X28575000Y62865000D03*
X26035000Y8255000D03*
X28575000Y37465000D03*
X22225000Y56515000D03*
X38735000Y81915000D03*
X3175000Y50165000D03*
X40640000Y51435000D03*
X45085000Y12065000D03*
X5715000Y12065000D03*
%TD*%
D14*
%TO.N,sda*%
X32385000Y17145000D02*
X32385000Y18322000D01*
X32385000Y18322000D02*
X32751000Y18322000D01*
X32751000Y18322000D02*
X33576000Y19147000D01*
X33576000Y19147000D02*
X33576000Y28654000D01*
X33576000Y28654000D02*
X32385000Y29845000D01*
D15*
%TO.N,vbus*%
X27305000Y24765000D02*
X28575000Y24765000D01*
X28575000Y24765000D02*
X29845000Y23495000D01*
X29845000Y23495000D02*
X29845000Y17145000D01*
X29845000Y17145000D02*
X32385000Y14605000D01*
X32385000Y78105000D02*
X29845000Y75565000D01*
X29845000Y75565000D02*
X29845000Y26035000D01*
X29845000Y26035000D02*
X28575000Y24765000D01*
X18415000Y24765000D02*
X15935000Y22285000D01*
X28575000Y24765000D02*
X18415000Y24765000D01*
X15935000Y22285000D02*
X15935000Y22255000D01*
D14*
%TO.N,scl*%
X24765000Y6985000D02*
X18415000Y13335000D01*
X15968000Y19715000D02*
X15935000Y19715000D01*
X18415000Y13335000D02*
X18415000Y17268000D01*
X18415000Y17268000D02*
X15968000Y19715000D01*
D15*
%TO.N,adc_vref*%
X42545000Y50165000D02*
X45085000Y52705000D01*
X45085000Y52705000D02*
X45085000Y62865000D01*
X45085000Y62865000D02*
X42545000Y65405000D01*
%TD*%
%TA.AperFunction,Conductor*%
%TO.N,gnd*%
G36*
X30962429Y75518550D02*
G01*
X31018363Y75476679D01*
X31042624Y75413176D01*
X31049936Y75329597D01*
X31049938Y75329587D01*
X31111094Y75101345D01*
X31111096Y75101341D01*
X31111097Y75101337D01*
X31210965Y74887170D01*
X31210967Y74887166D01*
X31346501Y74693605D01*
X31346506Y74693598D01*
X31513597Y74526507D01*
X31513603Y74526502D01*
X31699594Y74396270D01*
X31743219Y74341693D01*
X31750413Y74272195D01*
X31718890Y74209840D01*
X31699595Y74193120D01*
X31513922Y74063110D01*
X31513920Y74063109D01*
X31346891Y73896080D01*
X31346886Y73896074D01*
X31211400Y73702580D01*
X31211399Y73702578D01*
X31111570Y73488493D01*
X31111567Y73488487D01*
X31054364Y73275001D01*
X31054364Y73275000D01*
X31951314Y73275000D01*
X31925507Y73234844D01*
X31885000Y73096889D01*
X31885000Y72953111D01*
X31925507Y72815156D01*
X31951314Y72775000D01*
X31054364Y72775000D01*
X31111567Y72561514D01*
X31111570Y72561508D01*
X31211399Y72347422D01*
X31346894Y72153918D01*
X31513917Y71986895D01*
X31699595Y71856881D01*
X31743219Y71802304D01*
X31750412Y71732805D01*
X31718890Y71670451D01*
X31699595Y71653731D01*
X31513594Y71523492D01*
X31346505Y71356403D01*
X31210965Y71162831D01*
X31210964Y71162829D01*
X31111098Y70948665D01*
X31111094Y70948656D01*
X31049938Y70720414D01*
X31049936Y70720404D01*
X31029341Y70485001D01*
X31029341Y70485000D01*
X31049936Y70249597D01*
X31049938Y70249587D01*
X31111094Y70021345D01*
X31111096Y70021341D01*
X31111097Y70021337D01*
X31210965Y69807170D01*
X31210967Y69807166D01*
X31346501Y69613605D01*
X31346506Y69613598D01*
X31513597Y69446507D01*
X31513603Y69446502D01*
X31699158Y69316575D01*
X31742783Y69261998D01*
X31749977Y69192500D01*
X31718454Y69130145D01*
X31699158Y69113425D01*
X31513597Y68983495D01*
X31346505Y68816403D01*
X31210965Y68622831D01*
X31210964Y68622829D01*
X31111098Y68408665D01*
X31111094Y68408656D01*
X31049938Y68180414D01*
X31049936Y68180404D01*
X31029341Y67945001D01*
X31029341Y67945000D01*
X31049936Y67709597D01*
X31049938Y67709587D01*
X31111094Y67481345D01*
X31111096Y67481341D01*
X31111097Y67481337D01*
X31210965Y67267170D01*
X31210967Y67267166D01*
X31346501Y67073605D01*
X31346506Y67073598D01*
X31513597Y66906507D01*
X31513603Y66906502D01*
X31699158Y66776575D01*
X31742783Y66721998D01*
X31749977Y66652500D01*
X31718454Y66590145D01*
X31699158Y66573425D01*
X31513597Y66443495D01*
X31346505Y66276403D01*
X31210965Y66082831D01*
X31210964Y66082829D01*
X31111098Y65868665D01*
X31111094Y65868656D01*
X31049938Y65640414D01*
X31049936Y65640404D01*
X31029341Y65405001D01*
X31029341Y65405000D01*
X31049936Y65169597D01*
X31049938Y65169587D01*
X31111094Y64941345D01*
X31111096Y64941341D01*
X31111097Y64941337D01*
X31180539Y64792419D01*
X31210965Y64727170D01*
X31210967Y64727166D01*
X31346501Y64533605D01*
X31346506Y64533598D01*
X31513597Y64366507D01*
X31513603Y64366502D01*
X31699158Y64236575D01*
X31742783Y64181998D01*
X31749977Y64112500D01*
X31718454Y64050145D01*
X31699158Y64033425D01*
X31513597Y63903495D01*
X31346505Y63736403D01*
X31210965Y63542831D01*
X31210964Y63542829D01*
X31111098Y63328665D01*
X31111094Y63328656D01*
X31049938Y63100414D01*
X31049936Y63100404D01*
X31029341Y62865001D01*
X31029341Y62865000D01*
X31049936Y62629597D01*
X31049938Y62629587D01*
X31111094Y62401345D01*
X31111096Y62401341D01*
X31111097Y62401337D01*
X31180539Y62252419D01*
X31210965Y62187170D01*
X31210967Y62187166D01*
X31346501Y61993605D01*
X31346506Y61993598D01*
X31513597Y61826507D01*
X31513603Y61826502D01*
X31699594Y61696270D01*
X31743219Y61641693D01*
X31750413Y61572195D01*
X31718890Y61509840D01*
X31699595Y61493120D01*
X31513922Y61363110D01*
X31513920Y61363109D01*
X31346891Y61196080D01*
X31346886Y61196074D01*
X31211400Y61002580D01*
X31211399Y61002578D01*
X31111570Y60788493D01*
X31111567Y60788487D01*
X31054364Y60575001D01*
X31054364Y60575000D01*
X31951314Y60575000D01*
X31925507Y60534844D01*
X31885000Y60396889D01*
X31885000Y60253111D01*
X31925507Y60115156D01*
X31951314Y60075000D01*
X31054364Y60075000D01*
X31111567Y59861514D01*
X31111570Y59861508D01*
X31211399Y59647422D01*
X31346894Y59453918D01*
X31513917Y59286895D01*
X31699595Y59156881D01*
X31743219Y59102304D01*
X31750412Y59032805D01*
X31718890Y58970451D01*
X31699595Y58953731D01*
X31513594Y58823492D01*
X31346505Y58656403D01*
X31210965Y58462831D01*
X31210964Y58462829D01*
X31111098Y58248665D01*
X31111094Y58248656D01*
X31049938Y58020414D01*
X31049936Y58020404D01*
X31029341Y57785001D01*
X31029341Y57785000D01*
X31049936Y57549597D01*
X31049938Y57549587D01*
X31111094Y57321345D01*
X31111096Y57321341D01*
X31111097Y57321337D01*
X31210965Y57107170D01*
X31210967Y57107166D01*
X31346501Y56913605D01*
X31346506Y56913598D01*
X31513597Y56746507D01*
X31513603Y56746502D01*
X31699158Y56616575D01*
X31742783Y56561998D01*
X31749977Y56492500D01*
X31718454Y56430145D01*
X31699158Y56413425D01*
X31513597Y56283495D01*
X31346505Y56116403D01*
X31210965Y55922831D01*
X31210964Y55922829D01*
X31111098Y55708665D01*
X31111094Y55708656D01*
X31049938Y55480414D01*
X31049936Y55480404D01*
X31029341Y55245001D01*
X31029341Y55245000D01*
X31049936Y55009597D01*
X31049938Y55009587D01*
X31111094Y54781345D01*
X31111096Y54781341D01*
X31111097Y54781337D01*
X31210965Y54567170D01*
X31210967Y54567166D01*
X31346501Y54373605D01*
X31346506Y54373598D01*
X31513597Y54206507D01*
X31513603Y54206502D01*
X31699158Y54076575D01*
X31742783Y54021998D01*
X31749977Y53952500D01*
X31718454Y53890145D01*
X31699158Y53873425D01*
X31513597Y53743495D01*
X31346505Y53576403D01*
X31210965Y53382831D01*
X31210964Y53382829D01*
X31111098Y53168665D01*
X31111094Y53168656D01*
X31049938Y52940414D01*
X31049936Y52940404D01*
X31029341Y52705001D01*
X31029341Y52705000D01*
X31049936Y52469597D01*
X31049938Y52469587D01*
X31111094Y52241345D01*
X31111096Y52241341D01*
X31111097Y52241337D01*
X31132515Y52195407D01*
X31210965Y52027170D01*
X31210967Y52027166D01*
X31346501Y51833605D01*
X31346506Y51833598D01*
X31513597Y51666507D01*
X31513603Y51666502D01*
X31699158Y51536575D01*
X31742783Y51481998D01*
X31749977Y51412500D01*
X31718454Y51350145D01*
X31699158Y51333425D01*
X31513597Y51203495D01*
X31346505Y51036403D01*
X31210965Y50842831D01*
X31210964Y50842829D01*
X31111098Y50628665D01*
X31111094Y50628656D01*
X31049938Y50400414D01*
X31049936Y50400404D01*
X31029341Y50165001D01*
X31029341Y50165000D01*
X31049936Y49929597D01*
X31049938Y49929587D01*
X31111094Y49701345D01*
X31111096Y49701341D01*
X31111097Y49701337D01*
X31180539Y49552419D01*
X31210965Y49487170D01*
X31210967Y49487166D01*
X31319281Y49332479D01*
X31346505Y49293599D01*
X31513599Y49126505D01*
X31680342Y49009750D01*
X31699594Y48996270D01*
X31743219Y48941693D01*
X31750413Y48872195D01*
X31718890Y48809840D01*
X31699595Y48793120D01*
X31513922Y48663110D01*
X31513920Y48663109D01*
X31346891Y48496080D01*
X31346886Y48496074D01*
X31211400Y48302580D01*
X31211399Y48302578D01*
X31111570Y48088493D01*
X31111567Y48088487D01*
X31054364Y47875001D01*
X31054364Y47875000D01*
X31951314Y47875000D01*
X31925507Y47834844D01*
X31885000Y47696889D01*
X31885000Y47553111D01*
X31925507Y47415156D01*
X31951314Y47375000D01*
X31054364Y47375000D01*
X31111567Y47161514D01*
X31111570Y47161508D01*
X31211399Y46947422D01*
X31346894Y46753918D01*
X31513917Y46586895D01*
X31699595Y46456881D01*
X31743219Y46402304D01*
X31750412Y46332805D01*
X31718890Y46270451D01*
X31699595Y46253731D01*
X31513594Y46123492D01*
X31346505Y45956403D01*
X31210965Y45762831D01*
X31210964Y45762829D01*
X31111098Y45548665D01*
X31111094Y45548656D01*
X31049938Y45320414D01*
X31049936Y45320404D01*
X31029341Y45085001D01*
X31029341Y45085000D01*
X31049936Y44849597D01*
X31049938Y44849587D01*
X31111094Y44621345D01*
X31111096Y44621341D01*
X31111097Y44621337D01*
X31180421Y44472672D01*
X31210965Y44407170D01*
X31210967Y44407166D01*
X31346501Y44213605D01*
X31346506Y44213598D01*
X31513597Y44046507D01*
X31513603Y44046502D01*
X31699158Y43916575D01*
X31742783Y43861998D01*
X31749977Y43792500D01*
X31718454Y43730145D01*
X31699158Y43713425D01*
X31513597Y43583495D01*
X31346505Y43416403D01*
X31210965Y43222831D01*
X31210964Y43222829D01*
X31111098Y43008665D01*
X31111094Y43008656D01*
X31049938Y42780414D01*
X31049936Y42780404D01*
X31029341Y42545001D01*
X31029341Y42545000D01*
X31049936Y42309597D01*
X31049938Y42309587D01*
X31111094Y42081345D01*
X31111096Y42081341D01*
X31111097Y42081337D01*
X31210965Y41867170D01*
X31210967Y41867166D01*
X31346501Y41673605D01*
X31346506Y41673598D01*
X31513597Y41506507D01*
X31513603Y41506502D01*
X31699158Y41376575D01*
X31742783Y41321998D01*
X31749977Y41252500D01*
X31718454Y41190145D01*
X31699158Y41173425D01*
X31513597Y41043495D01*
X31346505Y40876403D01*
X31210965Y40682831D01*
X31210964Y40682829D01*
X31111098Y40468665D01*
X31111094Y40468656D01*
X31049938Y40240414D01*
X31049936Y40240404D01*
X31029341Y40005001D01*
X31029341Y40005000D01*
X31049936Y39769597D01*
X31049938Y39769587D01*
X31111094Y39541345D01*
X31111096Y39541341D01*
X31111097Y39541337D01*
X31210965Y39327170D01*
X31210967Y39327166D01*
X31346501Y39133605D01*
X31346506Y39133598D01*
X31513597Y38966507D01*
X31513603Y38966502D01*
X31699158Y38836575D01*
X31742783Y38781998D01*
X31749977Y38712500D01*
X31718454Y38650145D01*
X31699158Y38633425D01*
X31513597Y38503495D01*
X31346505Y38336403D01*
X31210965Y38142831D01*
X31210964Y38142829D01*
X31111098Y37928665D01*
X31111094Y37928656D01*
X31049938Y37700414D01*
X31049936Y37700404D01*
X31029341Y37465001D01*
X31029341Y37465000D01*
X31049936Y37229597D01*
X31049938Y37229587D01*
X31111094Y37001345D01*
X31111096Y37001341D01*
X31111097Y37001337D01*
X31210965Y36787170D01*
X31210967Y36787166D01*
X31346501Y36593605D01*
X31346506Y36593598D01*
X31513597Y36426507D01*
X31513603Y36426502D01*
X31699594Y36296270D01*
X31743219Y36241693D01*
X31750413Y36172195D01*
X31718890Y36109840D01*
X31699595Y36093120D01*
X31513922Y35963110D01*
X31513920Y35963109D01*
X31346891Y35796080D01*
X31346886Y35796074D01*
X31211400Y35602580D01*
X31211399Y35602578D01*
X31111570Y35388493D01*
X31111567Y35388487D01*
X31054364Y35175001D01*
X31054364Y35175000D01*
X31951314Y35175000D01*
X31925507Y35134844D01*
X31885000Y34996889D01*
X31885000Y34853111D01*
X31925507Y34715156D01*
X31951314Y34675000D01*
X31054364Y34675000D01*
X31111567Y34461514D01*
X31111570Y34461508D01*
X31211399Y34247422D01*
X31346894Y34053918D01*
X31513917Y33886895D01*
X31699595Y33756881D01*
X31743219Y33702304D01*
X31750412Y33632805D01*
X31718890Y33570451D01*
X31699595Y33553731D01*
X31513594Y33423492D01*
X31346505Y33256403D01*
X31210965Y33062831D01*
X31210964Y33062829D01*
X31111098Y32848665D01*
X31111094Y32848656D01*
X31049938Y32620414D01*
X31049936Y32620404D01*
X31029341Y32385001D01*
X31029341Y32385000D01*
X31049936Y32149597D01*
X31049938Y32149587D01*
X31111094Y31921345D01*
X31111096Y31921341D01*
X31111097Y31921337D01*
X31210965Y31707170D01*
X31210967Y31707166D01*
X31346501Y31513605D01*
X31346506Y31513598D01*
X31513597Y31346507D01*
X31513603Y31346502D01*
X31699158Y31216575D01*
X31742783Y31161998D01*
X31749977Y31092500D01*
X31718454Y31030145D01*
X31699158Y31013425D01*
X31513597Y30883495D01*
X31346505Y30716403D01*
X31210965Y30522831D01*
X31210964Y30522829D01*
X31111098Y30308665D01*
X31111094Y30308656D01*
X31049938Y30080414D01*
X31049936Y30080404D01*
X31029341Y29845001D01*
X31029341Y29845000D01*
X31049936Y29609597D01*
X31049938Y29609587D01*
X31111094Y29381345D01*
X31111096Y29381341D01*
X31111097Y29381337D01*
X31210965Y29167170D01*
X31210967Y29167166D01*
X31319281Y29012479D01*
X31346505Y28973599D01*
X31513599Y28806505D01*
X31563086Y28771854D01*
X31707165Y28670968D01*
X31707167Y28670967D01*
X31707170Y28670965D01*
X31921337Y28571097D01*
X31988365Y28553137D01*
X32862444Y28288408D01*
X32920899Y28250137D01*
X32949383Y28186337D01*
X32950500Y28169732D01*
X32950500Y23633216D01*
X32930815Y23566177D01*
X32878011Y23520422D01*
X32808853Y23510478D01*
X32794407Y23513441D01*
X32620413Y23560062D01*
X32620403Y23560064D01*
X32385001Y23580659D01*
X32384999Y23580659D01*
X32149596Y23560064D01*
X32149586Y23560062D01*
X31921344Y23498906D01*
X31921335Y23498902D01*
X31707171Y23399036D01*
X31707169Y23399035D01*
X31513597Y23263495D01*
X31346505Y23096403D01*
X31210965Y22902831D01*
X31210964Y22902829D01*
X31111098Y22688665D01*
X31111094Y22688656D01*
X31049938Y22460414D01*
X31049936Y22460404D01*
X31029341Y22225001D01*
X31029341Y22225000D01*
X31049936Y21989597D01*
X31049938Y21989587D01*
X31111094Y21761345D01*
X31111096Y21761341D01*
X31111097Y21761337D01*
X31196976Y21577170D01*
X31210965Y21547170D01*
X31210967Y21547166D01*
X31319281Y21392479D01*
X31346505Y21353599D01*
X31513599Y21186505D01*
X31680192Y21069855D01*
X31699594Y21056270D01*
X31743219Y21001693D01*
X31750413Y20932195D01*
X31718890Y20869840D01*
X31699595Y20853120D01*
X31513922Y20723110D01*
X31513920Y20723109D01*
X31346891Y20556080D01*
X31346886Y20556074D01*
X31211400Y20362580D01*
X31211399Y20362578D01*
X31111570Y20148493D01*
X31111567Y20148487D01*
X31054364Y19935001D01*
X31054364Y19935000D01*
X31951314Y19935000D01*
X31925507Y19894844D01*
X31885000Y19756889D01*
X31885000Y19613111D01*
X31925507Y19475156D01*
X31951314Y19435000D01*
X31054364Y19435000D01*
X31111567Y19221514D01*
X31111570Y19221508D01*
X31211399Y19007422D01*
X31346894Y18813918D01*
X31513921Y18646891D01*
X31699595Y18516879D01*
X31743220Y18462302D01*
X31750412Y18392804D01*
X31718890Y18330449D01*
X31699594Y18313730D01*
X31513604Y18183500D01*
X31513601Y18183497D01*
X31480892Y18150790D01*
X31477308Y18147477D01*
X31465452Y18137357D01*
X31397593Y18067609D01*
X31396725Y18066622D01*
X31346502Y18016398D01*
X31346500Y18016396D01*
X31210965Y17822831D01*
X31210964Y17822829D01*
X31111098Y17608665D01*
X31111094Y17608656D01*
X31049938Y17380414D01*
X31049936Y17380404D01*
X31042624Y17296826D01*
X31017171Y17231757D01*
X30960580Y17190779D01*
X30890818Y17186901D01*
X30831415Y17219953D01*
X30631819Y17419549D01*
X30598334Y17480872D01*
X30595500Y17507230D01*
X30595500Y23431295D01*
X30596809Y23449265D01*
X30598754Y23462546D01*
X30600289Y23473023D01*
X30595735Y23525067D01*
X30595500Y23530468D01*
X30595500Y23538704D01*
X30595500Y23538709D01*
X30591691Y23571295D01*
X30584998Y23647797D01*
X30584995Y23647806D01*
X30583538Y23654865D01*
X30583598Y23654878D01*
X30581965Y23662243D01*
X30581906Y23662228D01*
X30580241Y23669251D01*
X30580241Y23669255D01*
X30553971Y23741432D01*
X30529814Y23814335D01*
X30529812Y23814338D01*
X30526761Y23820882D01*
X30526815Y23820908D01*
X30523533Y23827688D01*
X30523480Y23827660D01*
X30520238Y23834114D01*
X30520237Y23834117D01*
X30478038Y23898277D01*
X30437712Y23963656D01*
X30437711Y23963657D01*
X30437710Y23963659D01*
X30433234Y23969319D01*
X30433280Y23969357D01*
X30428519Y23975201D01*
X30428474Y23975162D01*
X30423834Y23980692D01*
X30367982Y24033387D01*
X29724048Y24677321D01*
X29690563Y24738644D01*
X29695547Y24808336D01*
X29724046Y24852681D01*
X30330638Y25459273D01*
X30344267Y25471050D01*
X30348196Y25473975D01*
X30363530Y25485390D01*
X30363532Y25485394D01*
X30363534Y25485394D01*
X30389893Y25516809D01*
X30397113Y25525415D01*
X30400767Y25529401D01*
X30406589Y25535222D01*
X30426928Y25560946D01*
X30432162Y25567185D01*
X30476302Y25619786D01*
X30476304Y25619791D01*
X30480272Y25625821D01*
X30480323Y25625788D01*
X30484369Y25632140D01*
X30484317Y25632172D01*
X30488109Y25638321D01*
X30488111Y25638323D01*
X30520569Y25707931D01*
X30555040Y25776567D01*
X30555043Y25776583D01*
X30557510Y25783356D01*
X30557568Y25783335D01*
X30560043Y25790454D01*
X30559985Y25790473D01*
X30562256Y25797328D01*
X30577784Y25872533D01*
X30595500Y25947280D01*
X30596339Y25954452D01*
X30596397Y25954446D01*
X30597164Y25961944D01*
X30597104Y25961949D01*
X30597733Y25969140D01*
X30595500Y26045897D01*
X30595500Y75202771D01*
X30615185Y75269810D01*
X30631819Y75290452D01*
X30670964Y75329597D01*
X30831417Y75490051D01*
X30892738Y75523534D01*
X30962429Y75518550D01*
G37*
%TD.AperFunction*%
%TA.AperFunction,Conductor*%
G36*
X46531619Y85089416D02*
G01*
X46663628Y85082497D01*
X46847027Y85072197D01*
X46853212Y85071535D01*
X47005647Y85047392D01*
X47168194Y85019774D01*
X47173811Y85018547D01*
X47326693Y84977582D01*
X47419122Y84950954D01*
X47481724Y84932918D01*
X47486759Y84931231D01*
X47636183Y84873873D01*
X47784007Y84812642D01*
X47788412Y84810612D01*
X47854180Y84777101D01*
X47931921Y84737489D01*
X48007428Y84695759D01*
X48071480Y84660359D01*
X48075215Y84658118D01*
X48149487Y84609885D01*
X48210872Y84570020D01*
X48298357Y84507947D01*
X48340764Y84477858D01*
X48343886Y84475490D01*
X48468748Y84374379D01*
X48471034Y84372433D01*
X48588721Y84267262D01*
X48591248Y84264872D01*
X48704870Y84151250D01*
X48707260Y84148723D01*
X48812431Y84031036D01*
X48814385Y84028740D01*
X48915480Y83903898D01*
X48917862Y83900757D01*
X49010019Y83770873D01*
X49063758Y83688125D01*
X49098106Y83635233D01*
X49100364Y83631469D01*
X49177488Y83491922D01*
X49250604Y83348425D01*
X49252643Y83344003D01*
X49313877Y83196171D01*
X49371221Y83046783D01*
X49372916Y83041727D01*
X49417579Y82886703D01*
X49458541Y82733829D01*
X49459778Y82728165D01*
X49487394Y82565631D01*
X49511530Y82413242D01*
X49512196Y82407015D01*
X49522509Y82223383D01*
X49529415Y82091623D01*
X49529500Y82088377D01*
X49529500Y3001624D01*
X49529415Y2998378D01*
X49522509Y2866618D01*
X49512196Y2682987D01*
X49511530Y2676760D01*
X49487394Y2524370D01*
X49459778Y2361837D01*
X49458541Y2356173D01*
X49417579Y2203298D01*
X49372916Y2048275D01*
X49371221Y2043219D01*
X49313877Y1893830D01*
X49252643Y1745999D01*
X49250604Y1741577D01*
X49177488Y1598079D01*
X49100364Y1458533D01*
X49098097Y1454754D01*
X49010019Y1319128D01*
X48917862Y1189245D01*
X48915480Y1186104D01*
X48814385Y1061262D01*
X48812431Y1058966D01*
X48707260Y941279D01*
X48704870Y938752D01*
X48591248Y825130D01*
X48588721Y822740D01*
X48471034Y717569D01*
X48468738Y715615D01*
X48343896Y614520D01*
X48340755Y612138D01*
X48210872Y519981D01*
X48075246Y431903D01*
X48071467Y429636D01*
X47931921Y352512D01*
X47788423Y279396D01*
X47784001Y277357D01*
X47636170Y216123D01*
X47486781Y158779D01*
X47481725Y157084D01*
X47326702Y112421D01*
X47173827Y71459D01*
X47168163Y70222D01*
X47005630Y42606D01*
X46853240Y18470D01*
X46847013Y17804D01*
X46663382Y7491D01*
X46531622Y585D01*
X46528376Y500D01*
X3001624Y500D01*
X2998378Y585D01*
X2866617Y7491D01*
X2682985Y17804D01*
X2676758Y18470D01*
X2524369Y42606D01*
X2361835Y70222D01*
X2356171Y71459D01*
X2203297Y112421D01*
X2048273Y157084D01*
X2043217Y158779D01*
X1893829Y216123D01*
X1745997Y277357D01*
X1741575Y279396D01*
X1598078Y352512D01*
X1458531Y429636D01*
X1454767Y431894D01*
X1401875Y466242D01*
X1319127Y519981D01*
X1189243Y612138D01*
X1186102Y614520D01*
X1061260Y715615D01*
X1058964Y717569D01*
X941277Y822740D01*
X938750Y825130D01*
X825128Y938752D01*
X822738Y941279D01*
X717567Y1058966D01*
X715613Y1061262D01*
X676848Y1109133D01*
X614510Y1186114D01*
X612136Y1189245D01*
X519980Y1319128D01*
X487406Y1369285D01*
X431882Y1454785D01*
X429641Y1458520D01*
X394241Y1522572D01*
X352511Y1598079D01*
X312899Y1675820D01*
X279388Y1741588D01*
X277358Y1745993D01*
X216122Y1893830D01*
X158769Y2043241D01*
X157082Y2048276D01*
X112420Y2203298D01*
X107316Y2222348D01*
X71453Y2356189D01*
X70226Y2361806D01*
X42601Y2524394D01*
X18465Y2676788D01*
X17803Y2682973D01*
X7490Y2866618D01*
X584Y2998380D01*
X500Y3001623D01*
X500Y4377237D01*
X2590787Y4377237D01*
X2620413Y4107987D01*
X2620415Y4107976D01*
X2688926Y3845918D01*
X2688928Y3845912D01*
X2794870Y3596610D01*
X2866998Y3478425D01*
X2935979Y3365395D01*
X2935986Y3365385D01*
X3109253Y3157181D01*
X3109259Y3157176D01*
X3310998Y2976418D01*
X3536910Y2826956D01*
X3782176Y2711980D01*
X3782183Y2711978D01*
X3782185Y2711977D01*
X4041557Y2633943D01*
X4041564Y2633942D01*
X4041569Y2633940D01*
X4309561Y2594500D01*
X4309566Y2594500D01*
X4512636Y2594500D01*
X4564133Y2598270D01*
X4715156Y2609323D01*
X4827758Y2634407D01*
X4979546Y2668218D01*
X4979548Y2668219D01*
X4979553Y2668220D01*
X5232558Y2764986D01*
X5468777Y2897559D01*
X5683177Y3063112D01*
X5871186Y3258119D01*
X6028799Y3478421D01*
X6102787Y3622331D01*
X6152649Y3719310D01*
X6152651Y3719316D01*
X6152656Y3719325D01*
X6240118Y3975695D01*
X6289319Y4242067D01*
X6294259Y4377237D01*
X43230787Y4377237D01*
X43260413Y4107987D01*
X43260415Y4107976D01*
X43328926Y3845918D01*
X43328928Y3845912D01*
X43434870Y3596610D01*
X43506998Y3478425D01*
X43575979Y3365395D01*
X43575986Y3365385D01*
X43749253Y3157181D01*
X43749259Y3157176D01*
X43950998Y2976418D01*
X44176910Y2826956D01*
X44422176Y2711980D01*
X44422183Y2711978D01*
X44422185Y2711977D01*
X44681557Y2633943D01*
X44681564Y2633942D01*
X44681569Y2633940D01*
X44949561Y2594500D01*
X44949566Y2594500D01*
X45152636Y2594500D01*
X45204133Y2598270D01*
X45355156Y2609323D01*
X45467758Y2634407D01*
X45619546Y2668218D01*
X45619548Y2668219D01*
X45619553Y2668220D01*
X45872558Y2764986D01*
X46108777Y2897559D01*
X46323177Y3063112D01*
X46511186Y3258119D01*
X46668799Y3478421D01*
X46742787Y3622331D01*
X46792649Y3719310D01*
X46792651Y3719316D01*
X46792656Y3719325D01*
X46880118Y3975695D01*
X46929319Y4242067D01*
X46939212Y4512765D01*
X46909586Y4782018D01*
X46841072Y5044088D01*
X46735130Y5293390D01*
X46594018Y5524610D01*
X46504747Y5631881D01*
X46420746Y5732820D01*
X46420740Y5732825D01*
X46219002Y5913582D01*
X45993092Y6063043D01*
X45980771Y6068819D01*
X45747824Y6178020D01*
X45747819Y6178022D01*
X45747814Y6178024D01*
X45488442Y6256058D01*
X45488428Y6256061D01*
X45372791Y6273079D01*
X45220439Y6295500D01*
X45017369Y6295500D01*
X45017364Y6295500D01*
X44814844Y6280677D01*
X44814831Y6280675D01*
X44550453Y6221783D01*
X44550446Y6221780D01*
X44297439Y6125013D01*
X44061226Y5992443D01*
X43846822Y5826888D01*
X43658822Y5631891D01*
X43658816Y5631884D01*
X43501202Y5411581D01*
X43501199Y5411576D01*
X43377350Y5170691D01*
X43377343Y5170673D01*
X43289884Y4914315D01*
X43289881Y4914301D01*
X43240681Y4647932D01*
X43240680Y4647925D01*
X43230787Y4377237D01*
X6294259Y4377237D01*
X6299212Y4512765D01*
X6269586Y4782018D01*
X6201072Y5044088D01*
X6095130Y5293390D01*
X5954018Y5524610D01*
X5864747Y5631881D01*
X5780746Y5732820D01*
X5780740Y5732825D01*
X5579002Y5913582D01*
X5353092Y6063043D01*
X5340771Y6068819D01*
X5107824Y6178020D01*
X5107819Y6178022D01*
X5107814Y6178024D01*
X4848442Y6256058D01*
X4848428Y6256061D01*
X4732791Y6273079D01*
X4580439Y6295500D01*
X4377369Y6295500D01*
X4377364Y6295500D01*
X4174844Y6280677D01*
X4174831Y6280675D01*
X3910453Y6221783D01*
X3910446Y6221780D01*
X3657439Y6125013D01*
X3421226Y5992443D01*
X3206822Y5826888D01*
X3018822Y5631891D01*
X3018816Y5631884D01*
X2861202Y5411581D01*
X2861199Y5411576D01*
X2737350Y5170691D01*
X2737343Y5170673D01*
X2649884Y4914315D01*
X2649881Y4914301D01*
X2600681Y4647932D01*
X2600680Y4647925D01*
X2590787Y4377237D01*
X500Y4377237D01*
X500Y17175000D01*
X14579341Y17175000D01*
X14599936Y16939597D01*
X14599938Y16939587D01*
X14661094Y16711345D01*
X14661096Y16711341D01*
X14661097Y16711337D01*
X14760965Y16497170D01*
X14760967Y16497166D01*
X14869281Y16342479D01*
X14896505Y16303599D01*
X15063599Y16136505D01*
X15230439Y16019682D01*
X15249594Y16006270D01*
X15293219Y15951693D01*
X15300413Y15882195D01*
X15268890Y15819840D01*
X15249595Y15803120D01*
X15063922Y15673110D01*
X15063920Y15673109D01*
X14896891Y15506080D01*
X14896886Y15506074D01*
X14761400Y15312580D01*
X14761399Y15312578D01*
X14661570Y15098493D01*
X14661567Y15098487D01*
X14604364Y14885001D01*
X14604364Y14885000D01*
X15501314Y14885000D01*
X15475507Y14844844D01*
X15435000Y14706889D01*
X15435000Y14563111D01*
X15475507Y14425156D01*
X15501314Y14385000D01*
X14604364Y14385000D01*
X14661567Y14171514D01*
X14661570Y14171508D01*
X14761399Y13957422D01*
X14896894Y13763918D01*
X15063917Y13596895D01*
X15257421Y13461400D01*
X15471507Y13361571D01*
X15471516Y13361567D01*
X15685000Y13304366D01*
X15685000Y14199499D01*
X15792685Y14150320D01*
X15899237Y14135000D01*
X15970763Y14135000D01*
X16077315Y14150320D01*
X16185000Y14199499D01*
X16185000Y13304367D01*
X16398483Y13361567D01*
X16398492Y13361571D01*
X16612578Y13461400D01*
X16806082Y13596895D01*
X16973105Y13763918D01*
X17108600Y13957422D01*
X17208429Y14171508D01*
X17208432Y14171514D01*
X17265636Y14385000D01*
X16368686Y14385000D01*
X16394493Y14425156D01*
X16435000Y14563111D01*
X16435000Y14706889D01*
X16394493Y14844844D01*
X16368686Y14885000D01*
X17265636Y14885000D01*
X17265635Y14885001D01*
X17208432Y15098487D01*
X17208429Y15098493D01*
X17108600Y15312578D01*
X17108599Y15312580D01*
X16973113Y15506074D01*
X16973108Y15506080D01*
X16806078Y15673110D01*
X16620405Y15803121D01*
X16576780Y15857698D01*
X16569588Y15927196D01*
X16601110Y15989551D01*
X16620406Y16006270D01*
X16806401Y16136505D01*
X16973495Y16303599D01*
X17109035Y16497170D01*
X17208903Y16711337D01*
X17270063Y16939592D01*
X17290659Y17175000D01*
X17288448Y17200265D01*
X17302213Y17268762D01*
X17350827Y17318946D01*
X17418855Y17334881D01*
X17484700Y17311507D01*
X17499657Y17298753D01*
X17753181Y17045229D01*
X17786666Y16983906D01*
X17789500Y16957548D01*
X17789500Y13417745D01*
X17787775Y13402128D01*
X17788061Y13402101D01*
X17787326Y13394335D01*
X17789500Y13325186D01*
X17789500Y13295657D01*
X17789501Y13295640D01*
X17790368Y13288769D01*
X17790826Y13282950D01*
X17792290Y13236376D01*
X17792291Y13236373D01*
X17797880Y13217133D01*
X17801824Y13198089D01*
X17804336Y13178209D01*
X17821490Y13134881D01*
X17823382Y13129353D01*
X17836381Y13084612D01*
X17846580Y13067366D01*
X17855138Y13049897D01*
X17862514Y13031268D01*
X17889898Y12993577D01*
X17893106Y12988693D01*
X17916827Y12948584D01*
X17916833Y12948576D01*
X17930990Y12934420D01*
X17943628Y12919624D01*
X17955405Y12903414D01*
X17955406Y12903413D01*
X17991309Y12873712D01*
X17995620Y12869790D01*
X22078540Y8786869D01*
X22313069Y8552340D01*
X22346554Y8491017D01*
X22341570Y8421325D01*
X22299698Y8365392D01*
X22234234Y8340975D01*
X22225388Y8340659D01*
X22224999Y8340659D01*
X21989596Y8320064D01*
X21989586Y8320062D01*
X21761344Y8258906D01*
X21761335Y8258902D01*
X21547171Y8159036D01*
X21547169Y8159035D01*
X21353600Y8023497D01*
X21231284Y7901181D01*
X21169961Y7867697D01*
X21100269Y7872681D01*
X21044336Y7914553D01*
X21027421Y7945530D01*
X20978354Y8077087D01*
X20978350Y8077094D01*
X20892190Y8192188D01*
X20892187Y8192191D01*
X20777093Y8278351D01*
X20777086Y8278355D01*
X20642379Y8328597D01*
X20642372Y8328599D01*
X20582844Y8335000D01*
X19935000Y8335000D01*
X19935000Y7420502D01*
X19827315Y7469680D01*
X19720763Y7485000D01*
X19649237Y7485000D01*
X19542685Y7469680D01*
X19435000Y7420502D01*
X19435000Y8335000D01*
X18787155Y8335000D01*
X18727627Y8328599D01*
X18727620Y8328597D01*
X18592913Y8278355D01*
X18592906Y8278351D01*
X18477812Y8192191D01*
X18477809Y8192188D01*
X18391649Y8077094D01*
X18391645Y8077087D01*
X18341403Y7942380D01*
X18341401Y7942373D01*
X18335000Y7882845D01*
X18335000Y7235000D01*
X19251314Y7235000D01*
X19225507Y7194844D01*
X19185000Y7056889D01*
X19185000Y6913111D01*
X19225507Y6775156D01*
X19251314Y6735000D01*
X18335000Y6735000D01*
X18335000Y6087156D01*
X18341401Y6027628D01*
X18341403Y6027621D01*
X18391645Y5892914D01*
X18391649Y5892907D01*
X18477809Y5777813D01*
X18477812Y5777810D01*
X18592906Y5691650D01*
X18592913Y5691646D01*
X18727620Y5641404D01*
X18727627Y5641402D01*
X18787155Y5635001D01*
X18787172Y5635000D01*
X19435000Y5635000D01*
X19435000Y6549499D01*
X19542685Y6500320D01*
X19649237Y6485000D01*
X19720763Y6485000D01*
X19827315Y6500320D01*
X19935000Y6549499D01*
X19935000Y5635000D01*
X20582828Y5635000D01*
X20582844Y5635001D01*
X20642372Y5641402D01*
X20642379Y5641404D01*
X20777086Y5691646D01*
X20777093Y5691650D01*
X20892187Y5777810D01*
X20892190Y5777813D01*
X20978350Y5892907D01*
X20978354Y5892914D01*
X21027422Y6024471D01*
X21069293Y6080405D01*
X21134757Y6104822D01*
X21203030Y6089970D01*
X21231285Y6068819D01*
X21353599Y5946505D01*
X21400618Y5913582D01*
X21547165Y5810968D01*
X21547167Y5810967D01*
X21547170Y5810965D01*
X21761337Y5711097D01*
X21989592Y5649937D01*
X22160319Y5635000D01*
X22224999Y5629341D01*
X22225000Y5629341D01*
X22225001Y5629341D01*
X22289681Y5635000D01*
X22460408Y5649937D01*
X22688663Y5711097D01*
X22902830Y5810965D01*
X23096401Y5946505D01*
X23263495Y6113599D01*
X23393425Y6299158D01*
X23448002Y6342783D01*
X23517500Y6349977D01*
X23579855Y6318454D01*
X23596575Y6299158D01*
X23726500Y6113605D01*
X23726505Y6113599D01*
X23893599Y5946505D01*
X23940618Y5913582D01*
X24087165Y5810968D01*
X24087167Y5810967D01*
X24087170Y5810965D01*
X24301337Y5711097D01*
X24529592Y5649937D01*
X24700319Y5635000D01*
X24764999Y5629341D01*
X24765000Y5629341D01*
X24765001Y5629341D01*
X24829681Y5635000D01*
X25000408Y5649937D01*
X25228663Y5711097D01*
X25442830Y5810965D01*
X25636401Y5946505D01*
X25803495Y6113599D01*
X25933425Y6299158D01*
X25988002Y6342783D01*
X26057500Y6349977D01*
X26119855Y6318454D01*
X26136575Y6299158D01*
X26266500Y6113605D01*
X26266505Y6113599D01*
X26433599Y5946505D01*
X26480618Y5913582D01*
X26627165Y5810968D01*
X26627167Y5810967D01*
X26627170Y5810965D01*
X26841337Y5711097D01*
X27069592Y5649937D01*
X27240319Y5635000D01*
X27304999Y5629341D01*
X27305000Y5629341D01*
X27305001Y5629341D01*
X27369681Y5635000D01*
X27540408Y5649937D01*
X27768663Y5711097D01*
X27982830Y5810965D01*
X28176401Y5946505D01*
X28343495Y6113599D01*
X28479035Y6307170D01*
X28578903Y6521337D01*
X28640063Y6749592D01*
X28660659Y6985000D01*
X28640063Y7220408D01*
X28578903Y7448663D01*
X28479035Y7662829D01*
X28473425Y7670842D01*
X28343494Y7856403D01*
X28176402Y8023494D01*
X28176395Y8023499D01*
X27982834Y8159033D01*
X27982830Y8159035D01*
X27911727Y8192191D01*
X27768663Y8258903D01*
X27768659Y8258904D01*
X27768655Y8258906D01*
X27540413Y8320062D01*
X27540403Y8320064D01*
X27305001Y8340659D01*
X27304999Y8340659D01*
X27069596Y8320064D01*
X27069586Y8320062D01*
X26841344Y8258906D01*
X26841335Y8258902D01*
X26627171Y8159036D01*
X26627169Y8159035D01*
X26433597Y8023495D01*
X26266505Y7856403D01*
X26136575Y7670842D01*
X26081998Y7627217D01*
X26012500Y7620023D01*
X25950145Y7651546D01*
X25933425Y7670842D01*
X25803494Y7856403D01*
X25636402Y8023494D01*
X25636395Y8023499D01*
X25442831Y8159035D01*
X25442829Y8159036D01*
X25336144Y8208784D01*
X25256401Y8245969D01*
X25251424Y8248563D01*
X25246078Y8251349D01*
X25246074Y8251351D01*
X25246073Y8251351D01*
X25244045Y8252063D01*
X25238389Y8254368D01*
X25232266Y8257223D01*
X25228664Y8258903D01*
X25213614Y8262936D01*
X25209126Y8264323D01*
X23943101Y8708778D01*
X23896494Y8738097D01*
X19076819Y13557772D01*
X19043334Y13619095D01*
X19040500Y13645453D01*
X19040500Y17175000D01*
X22199341Y17175000D01*
X22219936Y16939597D01*
X22219938Y16939587D01*
X22281094Y16711345D01*
X22281096Y16711341D01*
X22281097Y16711337D01*
X22380965Y16497170D01*
X22380967Y16497166D01*
X22489281Y16342479D01*
X22516501Y16303604D01*
X22516506Y16303598D01*
X22638430Y16181674D01*
X22671915Y16120351D01*
X22666931Y16050659D01*
X22625059Y15994726D01*
X22594083Y15977811D01*
X22462669Y15928797D01*
X22462664Y15928794D01*
X22347455Y15842548D01*
X22347452Y15842545D01*
X22261206Y15727336D01*
X22261202Y15727329D01*
X22210908Y15592483D01*
X22204501Y15532884D01*
X22204501Y15532877D01*
X22204500Y15532865D01*
X22204500Y13737130D01*
X22204501Y13737124D01*
X22210908Y13677517D01*
X22261202Y13542672D01*
X22261206Y13542665D01*
X22347452Y13427456D01*
X22347455Y13427453D01*
X22462664Y13341207D01*
X22462671Y13341203D01*
X22597517Y13290909D01*
X22597516Y13290909D01*
X22604444Y13290165D01*
X22657127Y13284500D01*
X24452872Y13284501D01*
X24512483Y13290909D01*
X24647331Y13341204D01*
X24762546Y13427454D01*
X24848796Y13542669D01*
X24899091Y13677517D01*
X24905500Y13737127D01*
X24905499Y15532872D01*
X24899091Y15592483D01*
X24897554Y15596603D01*
X24848797Y15727329D01*
X24848793Y15727336D01*
X24762547Y15842545D01*
X24762544Y15842548D01*
X24647335Y15928794D01*
X24647328Y15928798D01*
X24515917Y15977811D01*
X24459983Y16019682D01*
X24435566Y16085147D01*
X24450418Y16153420D01*
X24471563Y16181668D01*
X24593495Y16303599D01*
X24729035Y16497170D01*
X24828903Y16711337D01*
X24890063Y16939592D01*
X24910659Y17175000D01*
X24909278Y17190779D01*
X24902456Y17268762D01*
X24890063Y17410408D01*
X24828903Y17638663D01*
X24729035Y17852829D01*
X24701505Y17892147D01*
X24593494Y18046403D01*
X24426402Y18213494D01*
X24426396Y18213499D01*
X24240842Y18343425D01*
X24197217Y18398002D01*
X24190023Y18467500D01*
X24221546Y18529855D01*
X24240842Y18546575D01*
X24263026Y18562109D01*
X24426401Y18676505D01*
X24593495Y18843599D01*
X24729035Y19037170D01*
X24828903Y19251337D01*
X24890063Y19479592D01*
X24910659Y19715000D01*
X24890063Y19950408D01*
X24828903Y20178663D01*
X24729035Y20392829D01*
X24614731Y20556074D01*
X24593494Y20586403D01*
X24426402Y20753494D01*
X24426396Y20753499D01*
X24240842Y20883425D01*
X24197217Y20938002D01*
X24190023Y21007500D01*
X24221546Y21069855D01*
X24240842Y21086575D01*
X24263026Y21102109D01*
X24426401Y21216505D01*
X24593495Y21383599D01*
X24729035Y21577170D01*
X24828903Y21791337D01*
X24890063Y22019592D01*
X24910659Y22255000D01*
X24890063Y22490408D01*
X24828903Y22718663D01*
X24729035Y22932829D01*
X24614502Y23096401D01*
X24593494Y23126403D01*
X24426402Y23293494D01*
X24426395Y23293499D01*
X24232834Y23429033D01*
X24232830Y23429035D01*
X24184834Y23451416D01*
X24018663Y23528903D01*
X24018659Y23528904D01*
X24018655Y23528906D01*
X23790413Y23590062D01*
X23790403Y23590064D01*
X23555001Y23610659D01*
X23554999Y23610659D01*
X23319596Y23590064D01*
X23319586Y23590062D01*
X23091344Y23528906D01*
X23091335Y23528902D01*
X22877171Y23429036D01*
X22877169Y23429035D01*
X22683597Y23293495D01*
X22516505Y23126403D01*
X22380965Y22932831D01*
X22380964Y22932829D01*
X22281098Y22718665D01*
X22281094Y22718656D01*
X22219938Y22490414D01*
X22219936Y22490404D01*
X22199341Y22255001D01*
X22199341Y22255000D01*
X22219936Y22019597D01*
X22219938Y22019587D01*
X22281094Y21791345D01*
X22281096Y21791341D01*
X22281097Y21791337D01*
X22295087Y21761336D01*
X22380965Y21577170D01*
X22380967Y21577166D01*
X22516501Y21383605D01*
X22516506Y21383598D01*
X22683597Y21216507D01*
X22683603Y21216502D01*
X22869158Y21086575D01*
X22912783Y21031998D01*
X22919977Y20962500D01*
X22888454Y20900145D01*
X22869158Y20883425D01*
X22683597Y20753495D01*
X22516505Y20586403D01*
X22380965Y20392831D01*
X22380964Y20392829D01*
X22281098Y20178665D01*
X22281094Y20178656D01*
X22219938Y19950414D01*
X22219936Y19950404D01*
X22199341Y19715001D01*
X22199341Y19715000D01*
X22219936Y19479597D01*
X22219938Y19479587D01*
X22281094Y19251345D01*
X22281096Y19251341D01*
X22281097Y19251337D01*
X22338985Y19127196D01*
X22380965Y19037170D01*
X22380967Y19037166D01*
X22516501Y18843605D01*
X22516506Y18843598D01*
X22683597Y18676507D01*
X22683603Y18676502D01*
X22869158Y18546575D01*
X22912783Y18491998D01*
X22919977Y18422500D01*
X22888454Y18360145D01*
X22869158Y18343425D01*
X22683597Y18213495D01*
X22516505Y18046403D01*
X22380965Y17852831D01*
X22380964Y17852829D01*
X22281098Y17638665D01*
X22281094Y17638656D01*
X22219938Y17410414D01*
X22219936Y17410404D01*
X22199341Y17175001D01*
X22199341Y17175000D01*
X19040500Y17175000D01*
X19040500Y17185258D01*
X19042224Y17200878D01*
X19041939Y17200905D01*
X19042673Y17208667D01*
X19040500Y17277828D01*
X19040500Y17307344D01*
X19040500Y17307350D01*
X19039631Y17314221D01*
X19039173Y17320048D01*
X19038707Y17334881D01*
X19037710Y17366627D01*
X19032119Y17385870D01*
X19028173Y17404922D01*
X19025664Y17424792D01*
X19008504Y17468133D01*
X19006624Y17473621D01*
X18993618Y17518390D01*
X18983422Y17535630D01*
X18974861Y17553106D01*
X18967487Y17571730D01*
X18967486Y17571732D01*
X18940079Y17609455D01*
X18936888Y17614314D01*
X18913172Y17654417D01*
X18913165Y17654426D01*
X18899006Y17668585D01*
X18886368Y17683381D01*
X18874594Y17699587D01*
X18853037Y17717420D01*
X18838688Y17729291D01*
X18834376Y17733214D01*
X17698612Y18868979D01*
X17669821Y18914115D01*
X17212553Y20165972D01*
X17210902Y20171202D01*
X17210109Y20174160D01*
X17208903Y20178663D01*
X17205478Y20186007D01*
X17203444Y20190912D01*
X17197468Y20207274D01*
X17195356Y20212697D01*
X17168240Y20271049D01*
X17164955Y20276552D01*
X17165127Y20276656D01*
X17156409Y20291236D01*
X17109037Y20392825D01*
X17109034Y20392831D01*
X16973496Y20586400D01*
X16973493Y20586403D01*
X16851567Y20708329D01*
X16818084Y20769649D01*
X16823068Y20839341D01*
X16864939Y20895275D01*
X16895915Y20912190D01*
X17027331Y20961204D01*
X17142546Y21047454D01*
X17228796Y21162669D01*
X17279091Y21297517D01*
X17285500Y21357127D01*
X17285499Y21759090D01*
X17296901Y21811029D01*
X17393111Y22019597D01*
X17950833Y23228646D01*
X17975745Y23264380D01*
X18689548Y23978181D01*
X18750871Y24011666D01*
X18777229Y24014500D01*
X27217279Y24014500D01*
X28212770Y24014500D01*
X28279809Y23994815D01*
X28300451Y23978181D01*
X29058181Y23220452D01*
X29091666Y23159129D01*
X29094500Y23132771D01*
X29094500Y17208706D01*
X29093191Y17190737D01*
X29089710Y17166975D01*
X29094264Y17114936D01*
X29094500Y17109530D01*
X29094500Y17101291D01*
X29098306Y17068726D01*
X29105000Y16992209D01*
X29106461Y16985133D01*
X29106403Y16985122D01*
X29108034Y16977763D01*
X29108092Y16977776D01*
X29109757Y16970750D01*
X29136025Y16898576D01*
X29160185Y16825669D01*
X29163236Y16819126D01*
X29163182Y16819102D01*
X29166470Y16812312D01*
X29166521Y16812337D01*
X29169761Y16805887D01*
X29169762Y16805886D01*
X29169763Y16805883D01*
X29211965Y16741717D01*
X29252287Y16676345D01*
X29256766Y16670681D01*
X29256719Y16670644D01*
X29261482Y16664798D01*
X29261528Y16664836D01*
X29266173Y16659300D01*
X29322018Y16606614D01*
X29822127Y16106505D01*
X30317009Y15611624D01*
X30341192Y15577445D01*
X31022365Y14153173D01*
X31034500Y14099675D01*
X31034500Y13707130D01*
X31034501Y13707124D01*
X31040908Y13647517D01*
X31091202Y13512672D01*
X31091206Y13512665D01*
X31177452Y13397456D01*
X31177455Y13397453D01*
X31292664Y13311207D01*
X31292671Y13311203D01*
X31427517Y13260909D01*
X31427516Y13260909D01*
X31434444Y13260165D01*
X31487127Y13254500D01*
X33282872Y13254501D01*
X33342483Y13260909D01*
X33477331Y13311204D01*
X33592546Y13397454D01*
X33678796Y13512669D01*
X33729091Y13647517D01*
X33735500Y13707127D01*
X33735499Y15502872D01*
X33729091Y15562483D01*
X33717901Y15592484D01*
X33678797Y15697329D01*
X33678793Y15697336D01*
X33592547Y15812545D01*
X33592544Y15812548D01*
X33477335Y15898794D01*
X33477328Y15898798D01*
X33345917Y15947811D01*
X33289983Y15989682D01*
X33265566Y16055147D01*
X33280418Y16123420D01*
X33301563Y16151668D01*
X33423495Y16273599D01*
X33559035Y16467170D01*
X33658903Y16681337D01*
X33720063Y16909592D01*
X33740659Y17145000D01*
X33720063Y17380408D01*
X33658903Y17608663D01*
X33609657Y17714271D01*
X33608301Y17717403D01*
X33601476Y17734466D01*
X33596373Y17743310D01*
X33593884Y17748094D01*
X33559036Y17822826D01*
X33559035Y17822829D01*
X33559033Y17822832D01*
X33559032Y17822834D01*
X33512060Y17889916D01*
X33509144Y17894495D01*
X33446531Y18003014D01*
X33430077Y18070918D01*
X33452947Y18136939D01*
X33466248Y18152659D01*
X33959788Y18646199D01*
X33972042Y18656014D01*
X33971859Y18656236D01*
X33977866Y18661208D01*
X33977877Y18661214D01*
X34008775Y18694118D01*
X34025227Y18711636D01*
X34035671Y18722082D01*
X34046120Y18732529D01*
X34050379Y18738022D01*
X34054152Y18742439D01*
X34086062Y18776418D01*
X34095713Y18793976D01*
X34106396Y18810239D01*
X34118673Y18826064D01*
X34137185Y18868847D01*
X34139738Y18874059D01*
X34162197Y18914908D01*
X34167180Y18934320D01*
X34173481Y18952720D01*
X34181437Y18971104D01*
X34188729Y19017148D01*
X34189906Y19022829D01*
X34201500Y19067981D01*
X34201500Y19088017D01*
X34203027Y19107418D01*
X34206160Y19127196D01*
X34201775Y19173585D01*
X34201500Y19179423D01*
X34201500Y28571263D01*
X34203224Y28586877D01*
X34202938Y28586904D01*
X34203672Y28594667D01*
X34201500Y28663798D01*
X34201500Y28693349D01*
X34201500Y28693350D01*
X34200629Y28700241D01*
X34200172Y28706055D01*
X34198709Y28752626D01*
X34198709Y28752628D01*
X34193120Y28771863D01*
X34189174Y28790916D01*
X34186664Y28810792D01*
X34169501Y28854141D01*
X34167614Y28859654D01*
X34154617Y28904390D01*
X34154616Y28904392D01*
X34144421Y28921631D01*
X34135863Y28939098D01*
X34128486Y28957732D01*
X34128482Y28957738D01*
X34125004Y28964065D01*
X34116498Y28983211D01*
X34052772Y29167166D01*
X33664986Y30286566D01*
X33663692Y30290786D01*
X33658903Y30308663D01*
X33654136Y30318884D01*
X33651746Y30324787D01*
X33649631Y30330894D01*
X33649628Y30330902D01*
X33646819Y30338317D01*
X33646819Y30338315D01*
X33646817Y30338321D01*
X33618050Y30400970D01*
X33618050Y30400971D01*
X33614704Y30406604D01*
X33614953Y30406753D01*
X33606819Y30420355D01*
X33559037Y30522824D01*
X33559034Y30522830D01*
X33559033Y30522831D01*
X33423495Y30716401D01*
X33423494Y30716403D01*
X33256402Y30883494D01*
X33256396Y30883499D01*
X33070842Y31013425D01*
X33027217Y31068002D01*
X33020023Y31137500D01*
X33051546Y31199855D01*
X33070842Y31216575D01*
X33093026Y31232109D01*
X33256401Y31346505D01*
X33423495Y31513599D01*
X33559035Y31707170D01*
X33658903Y31921337D01*
X33720063Y32149592D01*
X33740659Y32385000D01*
X33720063Y32620408D01*
X33658903Y32848663D01*
X33559035Y33062829D01*
X33423495Y33256401D01*
X33423494Y33256403D01*
X33256402Y33423494D01*
X33256401Y33423495D01*
X33070405Y33553731D01*
X33026781Y33608308D01*
X33019588Y33677807D01*
X33051110Y33740161D01*
X33070405Y33756881D01*
X33256082Y33886895D01*
X33423105Y34053918D01*
X33558600Y34247422D01*
X33658429Y34461508D01*
X33658432Y34461514D01*
X33715636Y34675000D01*
X32818686Y34675000D01*
X32844493Y34715156D01*
X32885000Y34853111D01*
X32885000Y34996889D01*
X32844493Y35134844D01*
X32818686Y35175000D01*
X33715636Y35175000D01*
X33715635Y35175001D01*
X33658432Y35388487D01*
X33658429Y35388493D01*
X33558600Y35602578D01*
X33558599Y35602580D01*
X33423113Y35796074D01*
X33423108Y35796080D01*
X33256078Y35963110D01*
X33070405Y36093121D01*
X33026780Y36147698D01*
X33019588Y36217196D01*
X33051110Y36279551D01*
X33070406Y36296270D01*
X33256401Y36426505D01*
X33423495Y36593599D01*
X33559035Y36787170D01*
X33658903Y37001337D01*
X33720063Y37229592D01*
X33740659Y37465000D01*
X33720063Y37700408D01*
X33658903Y37928663D01*
X33559035Y38142829D01*
X33423495Y38336401D01*
X33423494Y38336403D01*
X33256402Y38503494D01*
X33256396Y38503499D01*
X33070842Y38633425D01*
X33027217Y38688002D01*
X33020023Y38757500D01*
X33051546Y38819855D01*
X33070842Y38836575D01*
X33093026Y38852109D01*
X33256401Y38966505D01*
X33423495Y39133599D01*
X33559035Y39327170D01*
X33658903Y39541337D01*
X33720063Y39769592D01*
X33740659Y40005000D01*
X33720063Y40240408D01*
X33658903Y40468663D01*
X33559035Y40682829D01*
X33423495Y40876401D01*
X33423494Y40876403D01*
X33256402Y41043494D01*
X33256396Y41043499D01*
X33070842Y41173425D01*
X33027217Y41228002D01*
X33020023Y41297500D01*
X33051546Y41359855D01*
X33070842Y41376575D01*
X33093026Y41392109D01*
X33256401Y41506505D01*
X33423495Y41673599D01*
X33559035Y41867170D01*
X33658903Y42081337D01*
X33720063Y42309592D01*
X33740659Y42545000D01*
X33720063Y42780408D01*
X33658903Y43008663D01*
X33559035Y43222829D01*
X33423495Y43416401D01*
X33423494Y43416403D01*
X33256402Y43583494D01*
X33256396Y43583499D01*
X33070842Y43713425D01*
X33027217Y43768002D01*
X33020023Y43837500D01*
X33051546Y43899855D01*
X33070842Y43916575D01*
X33096010Y43934198D01*
X33256401Y44046505D01*
X33423495Y44213599D01*
X33559035Y44407170D01*
X33658903Y44621337D01*
X33720063Y44849592D01*
X33740659Y45085000D01*
X33720063Y45320408D01*
X33658903Y45548663D01*
X33559035Y45762829D01*
X33423495Y45956401D01*
X33423494Y45956403D01*
X33256402Y46123494D01*
X33256401Y46123495D01*
X33070405Y46253731D01*
X33026781Y46308308D01*
X33019588Y46377807D01*
X33051110Y46440161D01*
X33070405Y46456881D01*
X33256082Y46586895D01*
X33423105Y46753918D01*
X33558600Y46947422D01*
X33658429Y47161508D01*
X33658432Y47161514D01*
X33715636Y47375000D01*
X32818686Y47375000D01*
X32844493Y47415156D01*
X32885000Y47553111D01*
X32885000Y47624999D01*
X41319838Y47624999D01*
X41338450Y47412259D01*
X41338452Y47412248D01*
X41393721Y47205978D01*
X41393723Y47205974D01*
X41393724Y47205970D01*
X41414457Y47161508D01*
X41483977Y47012422D01*
X41606472Y46837479D01*
X41757478Y46686473D01*
X41757481Y46686471D01*
X41932419Y46563979D01*
X41932421Y46563978D01*
X41932420Y46563978D01*
X41996936Y46533894D01*
X42125970Y46473724D01*
X42125983Y46473721D01*
X42131064Y46471870D01*
X42130390Y46470022D01*
X42182680Y46438143D01*
X42213204Y46375293D01*
X42204903Y46305918D01*
X42160413Y46252044D01*
X42130904Y46238568D01*
X42131236Y46237658D01*
X42126140Y46235803D01*
X41932667Y46145586D01*
X41876967Y46106586D01*
X42500599Y45482954D01*
X42419852Y45470165D01*
X42306955Y45412641D01*
X42217359Y45323045D01*
X42159835Y45210148D01*
X42147046Y45129401D01*
X41523414Y45753033D01*
X41484414Y45697333D01*
X41394197Y45503860D01*
X41394194Y45503854D01*
X41338945Y45297663D01*
X41338944Y45297655D01*
X41320340Y45085003D01*
X41320340Y45084998D01*
X41338944Y44872346D01*
X41338945Y44872338D01*
X41394194Y44666147D01*
X41394197Y44666141D01*
X41484412Y44472672D01*
X41484413Y44472670D01*
X41523415Y44416970D01*
X41523416Y44416969D01*
X42147046Y45040600D01*
X42159835Y44959852D01*
X42217359Y44846955D01*
X42306955Y44757359D01*
X42419852Y44699835D01*
X42500599Y44687047D01*
X41876967Y44063417D01*
X41932670Y44024414D01*
X42126140Y43934198D01*
X42126146Y43934195D01*
X42332337Y43878946D01*
X42332345Y43878945D01*
X42544998Y43860340D01*
X42545002Y43860340D01*
X42757654Y43878945D01*
X42757662Y43878946D01*
X42963853Y43934195D01*
X42963859Y43934198D01*
X43157330Y44024414D01*
X43157336Y44024418D01*
X43213031Y44063416D01*
X42589401Y44687047D01*
X42670148Y44699835D01*
X42783045Y44757359D01*
X42872641Y44846955D01*
X42930165Y44959852D01*
X42942953Y45040600D01*
X43566584Y44416969D01*
X43605582Y44472664D01*
X43605586Y44472670D01*
X43695802Y44666141D01*
X43695805Y44666147D01*
X43751054Y44872338D01*
X43751055Y44872346D01*
X43769660Y45084998D01*
X43769660Y45085003D01*
X43751055Y45297655D01*
X43751054Y45297663D01*
X43695805Y45503854D01*
X43695802Y45503860D01*
X43605586Y45697330D01*
X43566583Y45753033D01*
X42942953Y45129402D01*
X42930165Y45210148D01*
X42872641Y45323045D01*
X42783045Y45412641D01*
X42670148Y45470165D01*
X42589401Y45482954D01*
X43213031Y46106584D01*
X43213030Y46106585D01*
X43157330Y46145587D01*
X43157328Y46145588D01*
X42963859Y46235803D01*
X42958764Y46237658D01*
X42959455Y46239557D01*
X42907325Y46271333D01*
X42876797Y46334180D01*
X42885093Y46403556D01*
X42929579Y46457433D01*
X42959257Y46470986D01*
X42958936Y46471870D01*
X42964013Y46473720D01*
X42964030Y46473724D01*
X43157581Y46563979D01*
X43332519Y46686471D01*
X43483529Y46837481D01*
X43606021Y47012419D01*
X43696276Y47205970D01*
X43751549Y47412253D01*
X43770162Y47625000D01*
X43751549Y47837747D01*
X43696276Y48044030D01*
X43606021Y48237581D01*
X43483529Y48412519D01*
X43483527Y48412522D01*
X43332521Y48563528D01*
X43157578Y48686023D01*
X43157579Y48686023D01*
X43028547Y48746191D01*
X42964030Y48776276D01*
X42964023Y48776278D01*
X42958936Y48778130D01*
X42959709Y48780254D01*
X42908305Y48811576D01*
X42877766Y48874419D01*
X42886050Y48943796D01*
X42930528Y48997680D01*
X42959315Y49010828D01*
X42958936Y49011870D01*
X42964013Y49013720D01*
X42964030Y49013724D01*
X43157581Y49103979D01*
X43332519Y49226471D01*
X43483529Y49377481D01*
X43606021Y49552419D01*
X43651509Y49649970D01*
X43660548Y49666091D01*
X43671681Y49682872D01*
X44156459Y50704911D01*
X44180809Y50739443D01*
X45570638Y52129273D01*
X45584267Y52141050D01*
X45603530Y52155390D01*
X45603532Y52155394D01*
X45603534Y52155394D01*
X45621663Y52177001D01*
X45637113Y52195415D01*
X45640767Y52199401D01*
X45646590Y52205223D01*
X45666923Y52230940D01*
X45716302Y52289786D01*
X45716309Y52289802D01*
X45720272Y52295824D01*
X45720324Y52295790D01*
X45724371Y52302142D01*
X45724317Y52302175D01*
X45728104Y52308316D01*
X45728110Y52308323D01*
X45760561Y52377914D01*
X45795036Y52446560D01*
X45795040Y52446567D01*
X45795042Y52446579D01*
X45797510Y52453356D01*
X45797568Y52453335D01*
X45800043Y52460454D01*
X45799985Y52460473D01*
X45802256Y52467328D01*
X45802723Y52469587D01*
X45817784Y52542533D01*
X45835500Y52617279D01*
X45835500Y52617280D01*
X45836339Y52624452D01*
X45836397Y52624446D01*
X45837164Y52631944D01*
X45837104Y52631949D01*
X45837733Y52639140D01*
X45835500Y52715897D01*
X45835500Y62801295D01*
X45836809Y62819265D01*
X45840289Y62843026D01*
X45835736Y62895061D01*
X45835500Y62900468D01*
X45835500Y62908703D01*
X45835500Y62908709D01*
X45831691Y62941293D01*
X45824998Y63017798D01*
X45824996Y63017803D01*
X45823538Y63024867D01*
X45823597Y63024880D01*
X45821967Y63032236D01*
X45821908Y63032221D01*
X45820242Y63039247D01*
X45820241Y63039255D01*
X45793973Y63111427D01*
X45769815Y63184334D01*
X45766763Y63190879D01*
X45766817Y63190905D01*
X45763533Y63197688D01*
X45763480Y63197660D01*
X45760238Y63204115D01*
X45760237Y63204117D01*
X45718029Y63268291D01*
X45677711Y63333656D01*
X45677710Y63333657D01*
X45677709Y63333659D01*
X45673233Y63339319D01*
X45673280Y63339357D01*
X45668519Y63345201D01*
X45668474Y63345162D01*
X45663834Y63350692D01*
X45607964Y63403404D01*
X44180812Y64830555D01*
X44156457Y64865095D01*
X44099123Y64985969D01*
X43671681Y65887129D01*
X43652572Y65923516D01*
X43652571Y65923518D01*
X43649477Y65928289D01*
X43649946Y65928594D01*
X43639908Y65944910D01*
X43606023Y66017576D01*
X43606021Y66017581D01*
X43483529Y66192519D01*
X43483527Y66192522D01*
X43332521Y66343528D01*
X43157578Y66466023D01*
X43157579Y66466023D01*
X43028547Y66526191D01*
X42964030Y66556276D01*
X42964026Y66556277D01*
X42964022Y66556279D01*
X42757752Y66611548D01*
X42757748Y66611549D01*
X42757747Y66611549D01*
X42757746Y66611550D01*
X42757741Y66611550D01*
X42545002Y66630162D01*
X42544998Y66630162D01*
X42332258Y66611550D01*
X42332247Y66611548D01*
X42125977Y66556279D01*
X42125968Y66556275D01*
X41932421Y66466023D01*
X41757478Y66343528D01*
X41606472Y66192522D01*
X41483977Y66017579D01*
X41393725Y65824032D01*
X41393721Y65824023D01*
X41338452Y65617753D01*
X41338450Y65617742D01*
X41319838Y65405002D01*
X41319838Y65404999D01*
X41338450Y65192259D01*
X41338452Y65192248D01*
X41393721Y64985978D01*
X41393723Y64985974D01*
X41393724Y64985970D01*
X41436171Y64894942D01*
X41483977Y64792422D01*
X41606472Y64617479D01*
X41757478Y64466473D01*
X41900253Y64366502D01*
X41932419Y64343979D01*
X42029965Y64298493D01*
X42046095Y64289448D01*
X42062864Y64278323D01*
X42062867Y64278322D01*
X42062871Y64278319D01*
X42134874Y64244167D01*
X42187006Y64197654D01*
X42205717Y64130336D01*
X42185063Y64063589D01*
X42131602Y64018604D01*
X42127019Y64016766D01*
X41932421Y63926023D01*
X41757478Y63803528D01*
X41606472Y63652522D01*
X41483977Y63477579D01*
X41393725Y63284032D01*
X41393721Y63284023D01*
X41338452Y63077753D01*
X41338450Y63077742D01*
X41319838Y62865002D01*
X41319838Y62864999D01*
X41338450Y62652259D01*
X41338452Y62652248D01*
X41393721Y62445978D01*
X41393723Y62445974D01*
X41393724Y62445970D01*
X41436171Y62354942D01*
X41483977Y62252422D01*
X41606472Y62077479D01*
X41757478Y61926473D01*
X41757481Y61926471D01*
X41932419Y61803979D01*
X41932421Y61803978D01*
X41932420Y61803978D01*
X41996936Y61773894D01*
X42125970Y61713724D01*
X42125983Y61713721D01*
X42131064Y61711870D01*
X42130390Y61710022D01*
X42182680Y61678143D01*
X42213204Y61615293D01*
X42204903Y61545918D01*
X42160413Y61492044D01*
X42130904Y61478568D01*
X42131236Y61477658D01*
X42126140Y61475803D01*
X41932667Y61385586D01*
X41876967Y61346586D01*
X42500599Y60722954D01*
X42419852Y60710165D01*
X42306955Y60652641D01*
X42217359Y60563045D01*
X42159835Y60450148D01*
X42147046Y60369401D01*
X41523414Y60993033D01*
X41484414Y60937333D01*
X41394197Y60743860D01*
X41394194Y60743854D01*
X41338945Y60537663D01*
X41338944Y60537655D01*
X41320340Y60325003D01*
X41320340Y60324998D01*
X41338944Y60112346D01*
X41338945Y60112338D01*
X41394194Y59906147D01*
X41394197Y59906141D01*
X41484412Y59712672D01*
X41484413Y59712670D01*
X41523415Y59656970D01*
X41523416Y59656969D01*
X42147046Y60280600D01*
X42159835Y60199852D01*
X42217359Y60086955D01*
X42306955Y59997359D01*
X42419852Y59939835D01*
X42500599Y59927047D01*
X41876967Y59303417D01*
X41932670Y59264414D01*
X42126140Y59174198D01*
X42126146Y59174195D01*
X42332337Y59118946D01*
X42332345Y59118945D01*
X42544998Y59100340D01*
X42545002Y59100340D01*
X42757654Y59118945D01*
X42757662Y59118946D01*
X42963853Y59174195D01*
X42963859Y59174198D01*
X43157330Y59264414D01*
X43157336Y59264418D01*
X43213031Y59303416D01*
X42589401Y59927047D01*
X42670148Y59939835D01*
X42783045Y59997359D01*
X42872641Y60086955D01*
X42930165Y60199852D01*
X42942953Y60280600D01*
X43566584Y59656969D01*
X43605582Y59712664D01*
X43605586Y59712670D01*
X43695802Y59906141D01*
X43695805Y59906147D01*
X43751054Y60112338D01*
X43751055Y60112346D01*
X43769660Y60324998D01*
X43769660Y60325003D01*
X43751055Y60537655D01*
X43751054Y60537663D01*
X43695805Y60743854D01*
X43695802Y60743860D01*
X43605586Y60937330D01*
X43566583Y60993033D01*
X42942953Y60369402D01*
X42930165Y60450148D01*
X42872641Y60563045D01*
X42783045Y60652641D01*
X42670148Y60710165D01*
X42589401Y60722954D01*
X43213031Y61346584D01*
X43213030Y61346585D01*
X43157330Y61385587D01*
X43157328Y61385588D01*
X42963859Y61475803D01*
X42958764Y61477658D01*
X42959455Y61479557D01*
X42907325Y61511333D01*
X42876797Y61574180D01*
X42885093Y61643556D01*
X42929579Y61697433D01*
X42959257Y61710986D01*
X42958936Y61711870D01*
X42964013Y61713720D01*
X42964030Y61713724D01*
X43157581Y61803979D01*
X43332519Y61926471D01*
X43483529Y62077481D01*
X43606021Y62252419D01*
X43696276Y62445970D01*
X43751549Y62652253D01*
X43767377Y62833175D01*
X43792829Y62898242D01*
X43849420Y62939221D01*
X43919182Y62943099D01*
X43978586Y62910047D01*
X44298181Y62590452D01*
X44331666Y62529129D01*
X44334500Y62502771D01*
X44334500Y53067230D01*
X44314815Y53000191D01*
X44298181Y52979549D01*
X43119448Y51800817D01*
X43084909Y51776462D01*
X42062869Y51291681D01*
X42026438Y51272549D01*
X42021666Y51269453D01*
X42021361Y51269923D01*
X42005062Y51259897D01*
X41932420Y51226023D01*
X41932417Y51226021D01*
X41757478Y51103528D01*
X41606472Y50952522D01*
X41483977Y50777579D01*
X41393725Y50584032D01*
X41393721Y50584023D01*
X41338452Y50377753D01*
X41338450Y50377742D01*
X41319838Y50165002D01*
X41319838Y50164999D01*
X41338450Y49952259D01*
X41338452Y49952248D01*
X41393721Y49745978D01*
X41393723Y49745974D01*
X41393724Y49745970D01*
X41423147Y49682872D01*
X41483977Y49552422D01*
X41606472Y49377479D01*
X41757478Y49226473D01*
X41757481Y49226471D01*
X41932419Y49103979D01*
X41932421Y49103978D01*
X41932420Y49103978D01*
X41996936Y49073894D01*
X42125970Y49013724D01*
X42125983Y49013721D01*
X42131064Y49011870D01*
X42130292Y49009750D01*
X42181710Y48978406D01*
X42212237Y48915558D01*
X42203939Y48846183D01*
X42159452Y48792307D01*
X42130685Y48779170D01*
X42131064Y48778130D01*
X42125972Y48776277D01*
X42125970Y48776276D01*
X42125968Y48776275D01*
X41932421Y48686023D01*
X41757478Y48563528D01*
X41606472Y48412522D01*
X41483977Y48237579D01*
X41414455Y48088487D01*
X41396486Y48049952D01*
X41393725Y48044032D01*
X41393721Y48044023D01*
X41338452Y47837753D01*
X41338450Y47837742D01*
X41319838Y47625002D01*
X41319838Y47624999D01*
X32885000Y47624999D01*
X32885000Y47696889D01*
X32844493Y47834844D01*
X32818686Y47875000D01*
X33715636Y47875000D01*
X33715635Y47875001D01*
X33658432Y48088487D01*
X33658429Y48088493D01*
X33558600Y48302578D01*
X33558599Y48302580D01*
X33423113Y48496074D01*
X33423108Y48496080D01*
X33256078Y48663110D01*
X33070405Y48793121D01*
X33026780Y48847698D01*
X33019588Y48917196D01*
X33051110Y48979551D01*
X33070406Y48996270D01*
X33072420Y48997680D01*
X33256401Y49126505D01*
X33423495Y49293599D01*
X33559035Y49487170D01*
X33658903Y49701337D01*
X33720063Y49929592D01*
X33740659Y50165000D01*
X33720063Y50400408D01*
X33658903Y50628663D01*
X33559035Y50842829D01*
X33482228Y50952522D01*
X33423494Y51036403D01*
X33256402Y51203494D01*
X33256396Y51203499D01*
X33070842Y51333425D01*
X33027217Y51388002D01*
X33020023Y51457500D01*
X33051546Y51519855D01*
X33070842Y51536575D01*
X33093026Y51552109D01*
X33256401Y51666505D01*
X33423495Y51833599D01*
X33559035Y52027170D01*
X33658903Y52241337D01*
X33720063Y52469592D01*
X33740659Y52705000D01*
X33720063Y52940408D01*
X33658903Y53168663D01*
X33559035Y53382829D01*
X33423495Y53576401D01*
X33423494Y53576403D01*
X33256402Y53743494D01*
X33256396Y53743499D01*
X33070842Y53873425D01*
X33027217Y53928002D01*
X33020023Y53997500D01*
X33051546Y54059855D01*
X33070842Y54076575D01*
X33093026Y54092109D01*
X33256401Y54206505D01*
X33423495Y54373599D01*
X33559035Y54567170D01*
X33658903Y54781337D01*
X33720063Y55009592D01*
X33740659Y55245000D01*
X33720063Y55480408D01*
X33658903Y55708663D01*
X33559035Y55922829D01*
X33423495Y56116401D01*
X33423494Y56116403D01*
X33256402Y56283494D01*
X33256396Y56283499D01*
X33070842Y56413425D01*
X33027217Y56468002D01*
X33020023Y56537500D01*
X33051546Y56599855D01*
X33070842Y56616575D01*
X33093026Y56632109D01*
X33256401Y56746505D01*
X33423495Y56913599D01*
X33559035Y57107170D01*
X33658903Y57321337D01*
X33720063Y57549592D01*
X33740659Y57785000D01*
X33720063Y58020408D01*
X33658903Y58248663D01*
X33559035Y58462829D01*
X33423495Y58656401D01*
X33423494Y58656403D01*
X33256402Y58823494D01*
X33256401Y58823495D01*
X33070405Y58953731D01*
X33026781Y59008308D01*
X33019588Y59077807D01*
X33051110Y59140161D01*
X33070405Y59156881D01*
X33256082Y59286895D01*
X33423105Y59453918D01*
X33558600Y59647422D01*
X33658429Y59861508D01*
X33658432Y59861514D01*
X33715636Y60075000D01*
X32818686Y60075000D01*
X32844493Y60115156D01*
X32885000Y60253111D01*
X32885000Y60396889D01*
X32844493Y60534844D01*
X32818686Y60575000D01*
X33715636Y60575000D01*
X33715635Y60575001D01*
X33658432Y60788487D01*
X33658429Y60788493D01*
X33558600Y61002578D01*
X33558599Y61002580D01*
X33423113Y61196074D01*
X33423108Y61196080D01*
X33256078Y61363110D01*
X33070405Y61493121D01*
X33026780Y61547698D01*
X33019588Y61617196D01*
X33051110Y61679551D01*
X33070406Y61696270D01*
X33095336Y61713726D01*
X33256401Y61826505D01*
X33423495Y61993599D01*
X33559035Y62187170D01*
X33658903Y62401337D01*
X33720063Y62629592D01*
X33740659Y62865000D01*
X33720063Y63100408D01*
X33658903Y63328663D01*
X33559035Y63542829D01*
X33482228Y63652522D01*
X33423494Y63736403D01*
X33256402Y63903494D01*
X33256396Y63903499D01*
X33070842Y64033425D01*
X33027217Y64088002D01*
X33020023Y64157500D01*
X33051546Y64219855D01*
X33070842Y64236575D01*
X33153677Y64294577D01*
X33256401Y64366505D01*
X33423495Y64533599D01*
X33559035Y64727170D01*
X33658903Y64941337D01*
X33720063Y65169592D01*
X33740659Y65405000D01*
X33720063Y65640408D01*
X33658903Y65868663D01*
X33559035Y66082829D01*
X33482228Y66192522D01*
X33423494Y66276403D01*
X33256402Y66443494D01*
X33256396Y66443499D01*
X33070842Y66573425D01*
X33027217Y66628002D01*
X33020023Y66697500D01*
X33051546Y66759855D01*
X33070842Y66776575D01*
X33093026Y66792109D01*
X33256401Y66906505D01*
X33423495Y67073599D01*
X33559035Y67267170D01*
X33658903Y67481337D01*
X33720063Y67709592D01*
X33740659Y67945000D01*
X33720063Y68180408D01*
X33658903Y68408663D01*
X33559035Y68622829D01*
X33423495Y68816401D01*
X33423494Y68816403D01*
X33256402Y68983494D01*
X33256396Y68983499D01*
X33070842Y69113425D01*
X33027217Y69168002D01*
X33020023Y69237500D01*
X33051546Y69299855D01*
X33070842Y69316575D01*
X33093026Y69332109D01*
X33256401Y69446505D01*
X33423495Y69613599D01*
X33559035Y69807170D01*
X33658903Y70021337D01*
X33720063Y70249592D01*
X33740659Y70485000D01*
X33720063Y70720408D01*
X33658903Y70948663D01*
X33559035Y71162829D01*
X33423495Y71356401D01*
X33423494Y71356403D01*
X33256402Y71523494D01*
X33256401Y71523495D01*
X33070405Y71653731D01*
X33026781Y71708308D01*
X33019588Y71777807D01*
X33051110Y71840161D01*
X33070405Y71856881D01*
X33256082Y71986895D01*
X33423105Y72153918D01*
X33558600Y72347422D01*
X33658429Y72561508D01*
X33658432Y72561514D01*
X33715636Y72775000D01*
X32818686Y72775000D01*
X32844493Y72815156D01*
X32885000Y72953111D01*
X32885000Y73096889D01*
X32844493Y73234844D01*
X32818686Y73275000D01*
X33715636Y73275000D01*
X33715635Y73275001D01*
X33658432Y73488487D01*
X33658429Y73488493D01*
X33558600Y73702578D01*
X33558599Y73702580D01*
X33423113Y73896074D01*
X33423108Y73896080D01*
X33256078Y74063110D01*
X33070405Y74193121D01*
X33026780Y74247698D01*
X33019588Y74317196D01*
X33051110Y74379551D01*
X33070406Y74396270D01*
X33256401Y74526505D01*
X33423495Y74693599D01*
X33559035Y74887170D01*
X33658903Y75101337D01*
X33720063Y75329592D01*
X33740659Y75565000D01*
X33720063Y75800408D01*
X33658903Y76028663D01*
X33559035Y76242829D01*
X33423495Y76436401D01*
X33301567Y76558329D01*
X33268084Y76619649D01*
X33273068Y76689341D01*
X33314939Y76745275D01*
X33345915Y76762190D01*
X33477331Y76811204D01*
X33592546Y76897454D01*
X33678796Y77012669D01*
X33729091Y77147517D01*
X33735500Y77207127D01*
X33735499Y79002872D01*
X33729091Y79062483D01*
X33678796Y79197331D01*
X33678795Y79197332D01*
X33678793Y79197336D01*
X33592547Y79312545D01*
X33592544Y79312548D01*
X33477335Y79398794D01*
X33477328Y79398798D01*
X33342482Y79449092D01*
X33342483Y79449092D01*
X33282883Y79455499D01*
X33282881Y79455500D01*
X33282873Y79455500D01*
X33282864Y79455500D01*
X31487129Y79455500D01*
X31487123Y79455499D01*
X31427516Y79449092D01*
X31292671Y79398798D01*
X31292664Y79398794D01*
X31177455Y79312548D01*
X31177452Y79312545D01*
X31091206Y79197336D01*
X31091202Y79197329D01*
X31040908Y79062483D01*
X31037089Y79026956D01*
X31034501Y79002877D01*
X31034500Y79002865D01*
X31034500Y78610328D01*
X31022365Y78556828D01*
X30341193Y77132559D01*
X30317009Y77098378D01*
X29359358Y76140728D01*
X29345729Y76128949D01*
X29326468Y76114610D01*
X29292898Y76074603D01*
X29289253Y76070624D01*
X29283409Y76064778D01*
X29263059Y76039041D01*
X29213695Y75980211D01*
X29209729Y75974181D01*
X29209682Y75974212D01*
X29205630Y75967853D01*
X29205679Y75967823D01*
X29201889Y75961679D01*
X29169424Y75892059D01*
X29134960Y75823434D01*
X29132488Y75816643D01*
X29132432Y75816664D01*
X29129960Y75809550D01*
X29130015Y75809531D01*
X29127742Y75802673D01*
X29127274Y75800404D01*
X29112207Y75727435D01*
X29099001Y75671716D01*
X29094498Y75652714D01*
X29093661Y75645546D01*
X29093601Y75645553D01*
X29092835Y75638055D01*
X29092895Y75638049D01*
X29092265Y75630860D01*
X29094500Y75554084D01*
X29094500Y26397230D01*
X29074815Y26330191D01*
X29058181Y26309549D01*
X28300451Y25551819D01*
X28239128Y25518334D01*
X28212770Y25515500D01*
X18478705Y25515500D01*
X18460735Y25516809D01*
X18436972Y25520290D01*
X18391533Y25516314D01*
X18384931Y25515736D01*
X18379530Y25515500D01*
X18371289Y25515500D01*
X18349579Y25512963D01*
X18338724Y25511694D01*
X18323419Y25510355D01*
X18262199Y25504999D01*
X18255132Y25503540D01*
X18255120Y25503596D01*
X18247763Y25501965D01*
X18247777Y25501908D01*
X18240743Y25500241D01*
X18168575Y25473975D01*
X18095675Y25449819D01*
X18089126Y25446764D01*
X18089101Y25446817D01*
X18082308Y25443529D01*
X18082334Y25443477D01*
X18075880Y25440236D01*
X18011708Y25398029D01*
X17946347Y25357715D01*
X17940683Y25353235D01*
X17940647Y25353281D01*
X17934798Y25348516D01*
X17934835Y25348472D01*
X17929310Y25343836D01*
X17876597Y25287965D01*
X16910441Y24321810D01*
X16876931Y24297950D01*
X15476791Y23617959D01*
X15422620Y23605500D01*
X15037129Y23605500D01*
X15037123Y23605499D01*
X14977516Y23599092D01*
X14842671Y23548798D01*
X14842664Y23548794D01*
X14727455Y23462548D01*
X14727452Y23462545D01*
X14641206Y23347336D01*
X14641202Y23347329D01*
X14590908Y23212483D01*
X14584501Y23152884D01*
X14584500Y23152865D01*
X14584500Y21357130D01*
X14584501Y21357124D01*
X14590908Y21297517D01*
X14641202Y21162672D01*
X14641206Y21162665D01*
X14727452Y21047456D01*
X14727455Y21047453D01*
X14842664Y20961207D01*
X14842671Y20961203D01*
X14974081Y20912190D01*
X15030015Y20870319D01*
X15054432Y20804855D01*
X15039580Y20736582D01*
X15018430Y20708327D01*
X14896503Y20586400D01*
X14760965Y20392831D01*
X14760964Y20392829D01*
X14661098Y20178665D01*
X14661094Y20178656D01*
X14599938Y19950414D01*
X14599936Y19950404D01*
X14579341Y19715001D01*
X14579341Y19715000D01*
X14599936Y19479597D01*
X14599938Y19479587D01*
X14661094Y19251345D01*
X14661096Y19251341D01*
X14661097Y19251337D01*
X14718985Y19127196D01*
X14760965Y19037170D01*
X14760967Y19037166D01*
X14896501Y18843605D01*
X14896506Y18843598D01*
X15063597Y18676507D01*
X15063603Y18676502D01*
X15249158Y18546575D01*
X15292783Y18491998D01*
X15299977Y18422500D01*
X15268454Y18360145D01*
X15249158Y18343425D01*
X15063597Y18213495D01*
X14896505Y18046403D01*
X14760965Y17852831D01*
X14760964Y17852829D01*
X14661098Y17638665D01*
X14661094Y17638656D01*
X14599938Y17410414D01*
X14599936Y17410404D01*
X14579341Y17175001D01*
X14579341Y17175000D01*
X500Y17175000D01*
X500Y29845000D01*
X13249341Y29845000D01*
X13269936Y29609597D01*
X13269938Y29609587D01*
X13331094Y29381345D01*
X13331096Y29381341D01*
X13331097Y29381337D01*
X13430965Y29167170D01*
X13430967Y29167166D01*
X13539281Y29012479D01*
X13566505Y28973599D01*
X13733599Y28806505D01*
X13783086Y28771854D01*
X13927165Y28670968D01*
X13927167Y28670967D01*
X13927170Y28670965D01*
X14141337Y28571097D01*
X14369592Y28509937D01*
X14557918Y28493461D01*
X14604999Y28489341D01*
X14605000Y28489341D01*
X14605001Y28489341D01*
X14644234Y28492774D01*
X14840408Y28509937D01*
X15068663Y28571097D01*
X15282830Y28670965D01*
X15476401Y28806505D01*
X15643495Y28973599D01*
X15779035Y29167170D01*
X15878903Y29381337D01*
X15940063Y29609592D01*
X15960659Y29845000D01*
X15940063Y30080408D01*
X15884266Y30288649D01*
X15878905Y30308656D01*
X15878904Y30308657D01*
X15878903Y30308663D01*
X15779035Y30522829D01*
X15779034Y30522831D01*
X15643494Y30716403D01*
X15476402Y30883494D01*
X15476396Y30883499D01*
X15290842Y31013425D01*
X15247217Y31068002D01*
X15240023Y31137500D01*
X15271546Y31199855D01*
X15290842Y31216575D01*
X15313026Y31232109D01*
X15476401Y31346505D01*
X15643495Y31513599D01*
X15779035Y31707170D01*
X15878903Y31921337D01*
X15940063Y32149592D01*
X15960659Y32385000D01*
X15940063Y32620408D01*
X15878903Y32848663D01*
X15779035Y33062829D01*
X15643495Y33256401D01*
X15643494Y33256403D01*
X15476402Y33423494D01*
X15476401Y33423495D01*
X15290405Y33553731D01*
X15246781Y33608308D01*
X15239588Y33677807D01*
X15271110Y33740161D01*
X15290405Y33756881D01*
X15476082Y33886895D01*
X15643105Y34053918D01*
X15778600Y34247422D01*
X15878429Y34461508D01*
X15878432Y34461514D01*
X15935636Y34675000D01*
X15038686Y34675000D01*
X15064493Y34715156D01*
X15105000Y34853111D01*
X15105000Y34996889D01*
X15064493Y35134844D01*
X15038686Y35175000D01*
X15935636Y35175000D01*
X15935635Y35175001D01*
X15878432Y35388487D01*
X15878429Y35388493D01*
X15778600Y35602578D01*
X15778599Y35602580D01*
X15643113Y35796074D01*
X15643108Y35796080D01*
X15476078Y35963110D01*
X15290405Y36093121D01*
X15246780Y36147698D01*
X15239588Y36217196D01*
X15271110Y36279551D01*
X15290406Y36296270D01*
X15476401Y36426505D01*
X15643495Y36593599D01*
X15779035Y36787170D01*
X15878903Y37001337D01*
X15940063Y37229592D01*
X15960659Y37465000D01*
X15940063Y37700408D01*
X15878903Y37928663D01*
X15779035Y38142829D01*
X15643495Y38336401D01*
X15643494Y38336403D01*
X15476402Y38503494D01*
X15476396Y38503499D01*
X15290842Y38633425D01*
X15247217Y38688002D01*
X15240023Y38757500D01*
X15271546Y38819855D01*
X15290842Y38836575D01*
X15313026Y38852109D01*
X15476401Y38966505D01*
X15643495Y39133599D01*
X15779035Y39327170D01*
X15878903Y39541337D01*
X15940063Y39769592D01*
X15960659Y40005000D01*
X15940063Y40240408D01*
X15878903Y40468663D01*
X15779035Y40682829D01*
X15643495Y40876401D01*
X15643494Y40876403D01*
X15476402Y41043494D01*
X15476396Y41043499D01*
X15290842Y41173425D01*
X15247217Y41228002D01*
X15240023Y41297500D01*
X15271546Y41359855D01*
X15290842Y41376575D01*
X15313026Y41392109D01*
X15476401Y41506505D01*
X15643495Y41673599D01*
X15779035Y41867170D01*
X15878903Y42081337D01*
X15940063Y42309592D01*
X15960659Y42545000D01*
X15940063Y42780408D01*
X15878903Y43008663D01*
X15779035Y43222829D01*
X15643495Y43416401D01*
X15643494Y43416403D01*
X15476402Y43583494D01*
X15476396Y43583499D01*
X15290842Y43713425D01*
X15247217Y43768002D01*
X15240023Y43837500D01*
X15271546Y43899855D01*
X15290842Y43916575D01*
X15316010Y43934198D01*
X15476401Y44046505D01*
X15643495Y44213599D01*
X15779035Y44407170D01*
X15878903Y44621337D01*
X15940063Y44849592D01*
X15960659Y45085000D01*
X15940063Y45320408D01*
X15878903Y45548663D01*
X15779035Y45762829D01*
X15643495Y45956401D01*
X15643494Y45956403D01*
X15476402Y46123494D01*
X15476401Y46123495D01*
X15290405Y46253731D01*
X15246781Y46308308D01*
X15239588Y46377807D01*
X15271110Y46440161D01*
X15290405Y46456881D01*
X15476082Y46586895D01*
X15643105Y46753918D01*
X15778600Y46947422D01*
X15878429Y47161508D01*
X15878432Y47161514D01*
X15935636Y47375000D01*
X15038686Y47375000D01*
X15064493Y47415156D01*
X15105000Y47553111D01*
X15105000Y47696889D01*
X15064493Y47834844D01*
X15038686Y47875000D01*
X15935636Y47875000D01*
X15935635Y47875001D01*
X15878432Y48088487D01*
X15878429Y48088493D01*
X15778600Y48302578D01*
X15778599Y48302580D01*
X15643113Y48496074D01*
X15643108Y48496080D01*
X15476078Y48663110D01*
X15290405Y48793121D01*
X15246780Y48847698D01*
X15239588Y48917196D01*
X15271110Y48979551D01*
X15290406Y48996270D01*
X15292420Y48997680D01*
X15476401Y49126505D01*
X15643495Y49293599D01*
X15779035Y49487170D01*
X15878903Y49701337D01*
X15940063Y49929592D01*
X15960659Y50165000D01*
X15940063Y50400408D01*
X15878903Y50628663D01*
X15779035Y50842829D01*
X15702228Y50952522D01*
X15643494Y51036403D01*
X15476402Y51203494D01*
X15476396Y51203499D01*
X15290842Y51333425D01*
X15247217Y51388002D01*
X15240023Y51457500D01*
X15271546Y51519855D01*
X15290842Y51536575D01*
X15313026Y51552109D01*
X15476401Y51666505D01*
X15643495Y51833599D01*
X15779035Y52027170D01*
X15878903Y52241337D01*
X15940063Y52469592D01*
X15960659Y52705000D01*
X15940063Y52940408D01*
X15878903Y53168663D01*
X15779035Y53382829D01*
X15643495Y53576401D01*
X15643494Y53576403D01*
X15476402Y53743494D01*
X15476396Y53743499D01*
X15290842Y53873425D01*
X15247217Y53928002D01*
X15240023Y53997500D01*
X15271546Y54059855D01*
X15290842Y54076575D01*
X15313026Y54092109D01*
X15476401Y54206505D01*
X15643495Y54373599D01*
X15779035Y54567170D01*
X15878903Y54781337D01*
X15940063Y55009592D01*
X15960659Y55245000D01*
X15940063Y55480408D01*
X15878903Y55708663D01*
X15779035Y55922829D01*
X15643495Y56116401D01*
X15643494Y56116403D01*
X15476402Y56283494D01*
X15476396Y56283499D01*
X15290842Y56413425D01*
X15247217Y56468002D01*
X15240023Y56537500D01*
X15271546Y56599855D01*
X15290842Y56616575D01*
X15313026Y56632109D01*
X15476401Y56746505D01*
X15643495Y56913599D01*
X15779035Y57107170D01*
X15878903Y57321337D01*
X15940063Y57549592D01*
X15960659Y57785000D01*
X15940063Y58020408D01*
X15878903Y58248663D01*
X15779035Y58462829D01*
X15643495Y58656401D01*
X15643494Y58656403D01*
X15476402Y58823494D01*
X15476401Y58823495D01*
X15290405Y58953731D01*
X15246781Y59008308D01*
X15239588Y59077807D01*
X15271110Y59140161D01*
X15290405Y59156881D01*
X15476082Y59286895D01*
X15643105Y59453918D01*
X15778600Y59647422D01*
X15878429Y59861508D01*
X15878432Y59861514D01*
X15935636Y60075000D01*
X15038686Y60075000D01*
X15064493Y60115156D01*
X15105000Y60253111D01*
X15105000Y60396889D01*
X15064493Y60534844D01*
X15038686Y60575000D01*
X15935636Y60575000D01*
X15935635Y60575001D01*
X15878432Y60788487D01*
X15878429Y60788493D01*
X15778600Y61002578D01*
X15778599Y61002580D01*
X15643113Y61196074D01*
X15643108Y61196080D01*
X15476078Y61363110D01*
X15290405Y61493121D01*
X15246780Y61547698D01*
X15239588Y61617196D01*
X15271110Y61679551D01*
X15290406Y61696270D01*
X15315336Y61713726D01*
X15476401Y61826505D01*
X15643495Y61993599D01*
X15779035Y62187170D01*
X15878903Y62401337D01*
X15940063Y62629592D01*
X15960659Y62865000D01*
X15940063Y63100408D01*
X15878903Y63328663D01*
X15779035Y63542829D01*
X15702228Y63652522D01*
X15643494Y63736403D01*
X15476402Y63903494D01*
X15476396Y63903499D01*
X15290842Y64033425D01*
X15247217Y64088002D01*
X15240023Y64157500D01*
X15271546Y64219855D01*
X15290842Y64236575D01*
X15373677Y64294577D01*
X15476401Y64366505D01*
X15643495Y64533599D01*
X15779035Y64727170D01*
X15878903Y64941337D01*
X15940063Y65169592D01*
X15960659Y65405000D01*
X15940063Y65640408D01*
X15878903Y65868663D01*
X15779035Y66082829D01*
X15702228Y66192522D01*
X15643494Y66276403D01*
X15476402Y66443494D01*
X15476396Y66443499D01*
X15290842Y66573425D01*
X15247217Y66628002D01*
X15240023Y66697500D01*
X15271546Y66759855D01*
X15290842Y66776575D01*
X15313026Y66792109D01*
X15476401Y66906505D01*
X15643495Y67073599D01*
X15779035Y67267170D01*
X15878903Y67481337D01*
X15940063Y67709592D01*
X15960659Y67945000D01*
X15940063Y68180408D01*
X15878903Y68408663D01*
X15779035Y68622829D01*
X15643495Y68816401D01*
X15643494Y68816403D01*
X15476402Y68983494D01*
X15476396Y68983499D01*
X15290842Y69113425D01*
X15247217Y69168002D01*
X15240023Y69237500D01*
X15271546Y69299855D01*
X15290842Y69316575D01*
X15313026Y69332109D01*
X15476401Y69446505D01*
X15643495Y69613599D01*
X15779035Y69807170D01*
X15878903Y70021337D01*
X15940063Y70249592D01*
X15960659Y70485000D01*
X15940063Y70720408D01*
X15878903Y70948663D01*
X15779035Y71162829D01*
X15643495Y71356401D01*
X15643494Y71356403D01*
X15476402Y71523494D01*
X15476401Y71523495D01*
X15290405Y71653731D01*
X15246781Y71708308D01*
X15239588Y71777807D01*
X15271110Y71840161D01*
X15290405Y71856881D01*
X15476082Y71986895D01*
X15643105Y72153918D01*
X15778600Y72347422D01*
X15878429Y72561508D01*
X15878432Y72561514D01*
X15935636Y72775000D01*
X15038686Y72775000D01*
X15064493Y72815156D01*
X15105000Y72953111D01*
X15105000Y73096889D01*
X15064493Y73234844D01*
X15038686Y73275000D01*
X15935636Y73275000D01*
X15935635Y73275001D01*
X15878432Y73488487D01*
X15878429Y73488493D01*
X15778600Y73702578D01*
X15778599Y73702580D01*
X15643113Y73896074D01*
X15643108Y73896080D01*
X15476078Y74063110D01*
X15290405Y74193121D01*
X15246780Y74247698D01*
X15239588Y74317196D01*
X15271110Y74379551D01*
X15290406Y74396270D01*
X15476401Y74526505D01*
X15643495Y74693599D01*
X15779035Y74887170D01*
X15878903Y75101337D01*
X15940063Y75329592D01*
X15960659Y75565000D01*
X15940063Y75800408D01*
X15878903Y76028663D01*
X15779035Y76242829D01*
X15643495Y76436401D01*
X15521567Y76558329D01*
X15488084Y76619649D01*
X15493068Y76689341D01*
X15534939Y76745275D01*
X15565915Y76762190D01*
X15697331Y76811204D01*
X15812546Y76897454D01*
X15898796Y77012669D01*
X15949091Y77147517D01*
X15955500Y77207127D01*
X15955499Y79002872D01*
X15949091Y79062483D01*
X15898796Y79197331D01*
X15898795Y79197332D01*
X15898793Y79197336D01*
X15812547Y79312545D01*
X15812544Y79312548D01*
X15697335Y79398794D01*
X15697328Y79398798D01*
X15562482Y79449092D01*
X15562483Y79449092D01*
X15502883Y79455499D01*
X15502881Y79455500D01*
X15502873Y79455500D01*
X15502864Y79455500D01*
X13707129Y79455500D01*
X13707123Y79455499D01*
X13647516Y79449092D01*
X13512671Y79398798D01*
X13512664Y79398794D01*
X13397455Y79312548D01*
X13397452Y79312545D01*
X13311206Y79197336D01*
X13311202Y79197329D01*
X13260908Y79062483D01*
X13257089Y79026956D01*
X13254501Y79002877D01*
X13254500Y79002865D01*
X13254500Y77207130D01*
X13254501Y77207124D01*
X13260908Y77147517D01*
X13311202Y77012672D01*
X13311206Y77012665D01*
X13397452Y76897456D01*
X13397455Y76897453D01*
X13512664Y76811207D01*
X13512671Y76811203D01*
X13644081Y76762190D01*
X13700015Y76720319D01*
X13724432Y76654855D01*
X13709580Y76586582D01*
X13688430Y76558327D01*
X13566503Y76436400D01*
X13430965Y76242831D01*
X13430964Y76242829D01*
X13331098Y76028665D01*
X13331094Y76028656D01*
X13269938Y75800414D01*
X13269936Y75800404D01*
X13249341Y75565001D01*
X13249341Y75565000D01*
X13269936Y75329597D01*
X13269938Y75329587D01*
X13331094Y75101345D01*
X13331096Y75101341D01*
X13331097Y75101337D01*
X13430965Y74887170D01*
X13430967Y74887166D01*
X13566501Y74693605D01*
X13566506Y74693598D01*
X13733597Y74526507D01*
X13733603Y74526502D01*
X13919594Y74396270D01*
X13963219Y74341693D01*
X13970413Y74272195D01*
X13938890Y74209840D01*
X13919595Y74193120D01*
X13733922Y74063110D01*
X13733920Y74063109D01*
X13566891Y73896080D01*
X13566886Y73896074D01*
X13431400Y73702580D01*
X13431399Y73702578D01*
X13331570Y73488493D01*
X13331567Y73488487D01*
X13274364Y73275001D01*
X13274364Y73275000D01*
X14171314Y73275000D01*
X14145507Y73234844D01*
X14105000Y73096889D01*
X14105000Y72953111D01*
X14145507Y72815156D01*
X14171314Y72775000D01*
X13274364Y72775000D01*
X13331567Y72561514D01*
X13331570Y72561508D01*
X13431399Y72347422D01*
X13566894Y72153918D01*
X13733917Y71986895D01*
X13919595Y71856881D01*
X13963219Y71802304D01*
X13970412Y71732805D01*
X13938890Y71670451D01*
X13919595Y71653731D01*
X13733594Y71523492D01*
X13566505Y71356403D01*
X13430965Y71162831D01*
X13430964Y71162829D01*
X13331098Y70948665D01*
X13331094Y70948656D01*
X13269938Y70720414D01*
X13269936Y70720404D01*
X13249341Y70485001D01*
X13249341Y70485000D01*
X13269936Y70249597D01*
X13269938Y70249587D01*
X13331094Y70021345D01*
X13331096Y70021341D01*
X13331097Y70021337D01*
X13430965Y69807170D01*
X13430967Y69807166D01*
X13566501Y69613605D01*
X13566506Y69613598D01*
X13733597Y69446507D01*
X13733603Y69446502D01*
X13919158Y69316575D01*
X13962783Y69261998D01*
X13969977Y69192500D01*
X13938454Y69130145D01*
X13919158Y69113425D01*
X13733597Y68983495D01*
X13566505Y68816403D01*
X13430965Y68622831D01*
X13430964Y68622829D01*
X13331098Y68408665D01*
X13331094Y68408656D01*
X13269938Y68180414D01*
X13269936Y68180404D01*
X13249341Y67945001D01*
X13249341Y67945000D01*
X13269936Y67709597D01*
X13269938Y67709587D01*
X13331094Y67481345D01*
X13331096Y67481341D01*
X13331097Y67481337D01*
X13430965Y67267170D01*
X13430967Y67267166D01*
X13566501Y67073605D01*
X13566506Y67073598D01*
X13733597Y66906507D01*
X13733603Y66906502D01*
X13919158Y66776575D01*
X13962783Y66721998D01*
X13969977Y66652500D01*
X13938454Y66590145D01*
X13919158Y66573425D01*
X13733597Y66443495D01*
X13566505Y66276403D01*
X13430965Y66082831D01*
X13430964Y66082829D01*
X13331098Y65868665D01*
X13331094Y65868656D01*
X13269938Y65640414D01*
X13269936Y65640404D01*
X13249341Y65405001D01*
X13249341Y65405000D01*
X13269936Y65169597D01*
X13269938Y65169587D01*
X13331094Y64941345D01*
X13331096Y64941341D01*
X13331097Y64941337D01*
X13400539Y64792419D01*
X13430965Y64727170D01*
X13430967Y64727166D01*
X13566501Y64533605D01*
X13566506Y64533598D01*
X13733597Y64366507D01*
X13733603Y64366502D01*
X13919158Y64236575D01*
X13962783Y64181998D01*
X13969977Y64112500D01*
X13938454Y64050145D01*
X13919158Y64033425D01*
X13733597Y63903495D01*
X13566505Y63736403D01*
X13430965Y63542831D01*
X13430964Y63542829D01*
X13331098Y63328665D01*
X13331094Y63328656D01*
X13269938Y63100414D01*
X13269936Y63100404D01*
X13249341Y62865001D01*
X13249341Y62865000D01*
X13269936Y62629597D01*
X13269938Y62629587D01*
X13331094Y62401345D01*
X13331096Y62401341D01*
X13331097Y62401337D01*
X13400539Y62252419D01*
X13430965Y62187170D01*
X13430967Y62187166D01*
X13566501Y61993605D01*
X13566506Y61993598D01*
X13733597Y61826507D01*
X13733603Y61826502D01*
X13919594Y61696270D01*
X13963219Y61641693D01*
X13970413Y61572195D01*
X13938890Y61509840D01*
X13919595Y61493120D01*
X13733922Y61363110D01*
X13733920Y61363109D01*
X13566891Y61196080D01*
X13566886Y61196074D01*
X13431400Y61002580D01*
X13431399Y61002578D01*
X13331570Y60788493D01*
X13331567Y60788487D01*
X13274364Y60575001D01*
X13274364Y60575000D01*
X14171314Y60575000D01*
X14145507Y60534844D01*
X14105000Y60396889D01*
X14105000Y60253111D01*
X14145507Y60115156D01*
X14171314Y60075000D01*
X13274364Y60075000D01*
X13331567Y59861514D01*
X13331570Y59861508D01*
X13431399Y59647422D01*
X13566894Y59453918D01*
X13733917Y59286895D01*
X13919595Y59156881D01*
X13963219Y59102304D01*
X13970412Y59032805D01*
X13938890Y58970451D01*
X13919595Y58953731D01*
X13733594Y58823492D01*
X13566505Y58656403D01*
X13430965Y58462831D01*
X13430964Y58462829D01*
X13331098Y58248665D01*
X13331094Y58248656D01*
X13269938Y58020414D01*
X13269936Y58020404D01*
X13249341Y57785001D01*
X13249341Y57785000D01*
X13269936Y57549597D01*
X13269938Y57549587D01*
X13331094Y57321345D01*
X13331096Y57321341D01*
X13331097Y57321337D01*
X13430965Y57107170D01*
X13430967Y57107166D01*
X13566501Y56913605D01*
X13566506Y56913598D01*
X13733597Y56746507D01*
X13733603Y56746502D01*
X13919158Y56616575D01*
X13962783Y56561998D01*
X13969977Y56492500D01*
X13938454Y56430145D01*
X13919158Y56413425D01*
X13733597Y56283495D01*
X13566505Y56116403D01*
X13430965Y55922831D01*
X13430964Y55922829D01*
X13331098Y55708665D01*
X13331094Y55708656D01*
X13269938Y55480414D01*
X13269936Y55480404D01*
X13249341Y55245001D01*
X13249341Y55245000D01*
X13269936Y55009597D01*
X13269938Y55009587D01*
X13331094Y54781345D01*
X13331096Y54781341D01*
X13331097Y54781337D01*
X13430965Y54567170D01*
X13430967Y54567166D01*
X13566501Y54373605D01*
X13566506Y54373598D01*
X13733597Y54206507D01*
X13733603Y54206502D01*
X13919158Y54076575D01*
X13962783Y54021998D01*
X13969977Y53952500D01*
X13938454Y53890145D01*
X13919158Y53873425D01*
X13733597Y53743495D01*
X13566505Y53576403D01*
X13430965Y53382831D01*
X13430964Y53382829D01*
X13331098Y53168665D01*
X13331094Y53168656D01*
X13269938Y52940414D01*
X13269936Y52940404D01*
X13249341Y52705001D01*
X13249341Y52705000D01*
X13269936Y52469597D01*
X13269938Y52469587D01*
X13331094Y52241345D01*
X13331096Y52241341D01*
X13331097Y52241337D01*
X13352515Y52195407D01*
X13430965Y52027170D01*
X13430967Y52027166D01*
X13566501Y51833605D01*
X13566506Y51833598D01*
X13733597Y51666507D01*
X13733603Y51666502D01*
X13919158Y51536575D01*
X13962783Y51481998D01*
X13969977Y51412500D01*
X13938454Y51350145D01*
X13919158Y51333425D01*
X13733597Y51203495D01*
X13566505Y51036403D01*
X13430965Y50842831D01*
X13430964Y50842829D01*
X13331098Y50628665D01*
X13331094Y50628656D01*
X13269938Y50400414D01*
X13269936Y50400404D01*
X13249341Y50165001D01*
X13249341Y50165000D01*
X13269936Y49929597D01*
X13269938Y49929587D01*
X13331094Y49701345D01*
X13331096Y49701341D01*
X13331097Y49701337D01*
X13400539Y49552419D01*
X13430965Y49487170D01*
X13430967Y49487166D01*
X13539281Y49332479D01*
X13566505Y49293599D01*
X13733599Y49126505D01*
X13900342Y49009750D01*
X13919594Y48996270D01*
X13963219Y48941693D01*
X13970413Y48872195D01*
X13938890Y48809840D01*
X13919595Y48793120D01*
X13733922Y48663110D01*
X13733920Y48663109D01*
X13566891Y48496080D01*
X13566886Y48496074D01*
X13431400Y48302580D01*
X13431399Y48302578D01*
X13331570Y48088493D01*
X13331567Y48088487D01*
X13274364Y47875001D01*
X13274364Y47875000D01*
X14171314Y47875000D01*
X14145507Y47834844D01*
X14105000Y47696889D01*
X14105000Y47553111D01*
X14145507Y47415156D01*
X14171314Y47375000D01*
X13274364Y47375000D01*
X13331567Y47161514D01*
X13331570Y47161508D01*
X13431399Y46947422D01*
X13566894Y46753918D01*
X13733917Y46586895D01*
X13919595Y46456881D01*
X13963219Y46402304D01*
X13970412Y46332805D01*
X13938890Y46270451D01*
X13919595Y46253731D01*
X13733594Y46123492D01*
X13566505Y45956403D01*
X13430965Y45762831D01*
X13430964Y45762829D01*
X13331098Y45548665D01*
X13331094Y45548656D01*
X13269938Y45320414D01*
X13269936Y45320404D01*
X13249341Y45085001D01*
X13249341Y45085000D01*
X13269936Y44849597D01*
X13269938Y44849587D01*
X13331094Y44621345D01*
X13331096Y44621341D01*
X13331097Y44621337D01*
X13400421Y44472672D01*
X13430965Y44407170D01*
X13430967Y44407166D01*
X13566501Y44213605D01*
X13566506Y44213598D01*
X13733597Y44046507D01*
X13733603Y44046502D01*
X13919158Y43916575D01*
X13962783Y43861998D01*
X13969977Y43792500D01*
X13938454Y43730145D01*
X13919158Y43713425D01*
X13733597Y43583495D01*
X13566505Y43416403D01*
X13430965Y43222831D01*
X13430964Y43222829D01*
X13331098Y43008665D01*
X13331094Y43008656D01*
X13269938Y42780414D01*
X13269936Y42780404D01*
X13249341Y42545001D01*
X13249341Y42545000D01*
X13269936Y42309597D01*
X13269938Y42309587D01*
X13331094Y42081345D01*
X13331096Y42081341D01*
X13331097Y42081337D01*
X13430965Y41867170D01*
X13430967Y41867166D01*
X13566501Y41673605D01*
X13566506Y41673598D01*
X13733597Y41506507D01*
X13733603Y41506502D01*
X13919158Y41376575D01*
X13962783Y41321998D01*
X13969977Y41252500D01*
X13938454Y41190145D01*
X13919158Y41173425D01*
X13733597Y41043495D01*
X13566505Y40876403D01*
X13430965Y40682831D01*
X13430964Y40682829D01*
X13331098Y40468665D01*
X13331094Y40468656D01*
X13269938Y40240414D01*
X13269936Y40240404D01*
X13249341Y40005001D01*
X13249341Y40005000D01*
X13269936Y39769597D01*
X13269938Y39769587D01*
X13331094Y39541345D01*
X13331096Y39541341D01*
X13331097Y39541337D01*
X13430965Y39327170D01*
X13430967Y39327166D01*
X13566501Y39133605D01*
X13566506Y39133598D01*
X13733597Y38966507D01*
X13733603Y38966502D01*
X13919158Y38836575D01*
X13962783Y38781998D01*
X13969977Y38712500D01*
X13938454Y38650145D01*
X13919158Y38633425D01*
X13733597Y38503495D01*
X13566505Y38336403D01*
X13430965Y38142831D01*
X13430964Y38142829D01*
X13331098Y37928665D01*
X13331094Y37928656D01*
X13269938Y37700414D01*
X13269936Y37700404D01*
X13249341Y37465001D01*
X13249341Y37465000D01*
X13269936Y37229597D01*
X13269938Y37229587D01*
X13331094Y37001345D01*
X13331096Y37001341D01*
X13331097Y37001337D01*
X13430965Y36787170D01*
X13430967Y36787166D01*
X13566501Y36593605D01*
X13566506Y36593598D01*
X13733597Y36426507D01*
X13733603Y36426502D01*
X13919594Y36296270D01*
X13963219Y36241693D01*
X13970413Y36172195D01*
X13938890Y36109840D01*
X13919595Y36093120D01*
X13733922Y35963110D01*
X13733920Y35963109D01*
X13566891Y35796080D01*
X13566886Y35796074D01*
X13431400Y35602580D01*
X13431399Y35602578D01*
X13331570Y35388493D01*
X13331567Y35388487D01*
X13274364Y35175001D01*
X13274364Y35175000D01*
X14171314Y35175000D01*
X14145507Y35134844D01*
X14105000Y34996889D01*
X14105000Y34853111D01*
X14145507Y34715156D01*
X14171314Y34675000D01*
X13274364Y34675000D01*
X13331567Y34461514D01*
X13331570Y34461508D01*
X13431399Y34247422D01*
X13566894Y34053918D01*
X13733917Y33886895D01*
X13919595Y33756881D01*
X13963219Y33702304D01*
X13970412Y33632805D01*
X13938890Y33570451D01*
X13919595Y33553731D01*
X13733594Y33423492D01*
X13566505Y33256403D01*
X13430965Y33062831D01*
X13430964Y33062829D01*
X13331098Y32848665D01*
X13331094Y32848656D01*
X13269938Y32620414D01*
X13269936Y32620404D01*
X13249341Y32385001D01*
X13249341Y32385000D01*
X13269936Y32149597D01*
X13269938Y32149587D01*
X13331094Y31921345D01*
X13331096Y31921341D01*
X13331097Y31921337D01*
X13430965Y31707170D01*
X13430967Y31707166D01*
X13566501Y31513605D01*
X13566506Y31513598D01*
X13733597Y31346507D01*
X13733603Y31346502D01*
X13919158Y31216575D01*
X13962783Y31161998D01*
X13969977Y31092500D01*
X13938454Y31030145D01*
X13919158Y31013425D01*
X13733597Y30883495D01*
X13566505Y30716403D01*
X13430965Y30522831D01*
X13430964Y30522829D01*
X13331098Y30308665D01*
X13331094Y30308656D01*
X13269938Y30080414D01*
X13269936Y30080404D01*
X13249341Y29845001D01*
X13249341Y29845000D01*
X500Y29845000D01*
X500Y80577237D01*
X2590787Y80577237D01*
X2620413Y80307987D01*
X2620415Y80307976D01*
X2688926Y80045918D01*
X2688928Y80045912D01*
X2794870Y79796610D01*
X2866998Y79678425D01*
X2935979Y79565395D01*
X2935986Y79565385D01*
X3109253Y79357181D01*
X3109259Y79357176D01*
X3214240Y79263113D01*
X3310998Y79176418D01*
X3536910Y79026956D01*
X3782176Y78911980D01*
X3782183Y78911978D01*
X3782185Y78911977D01*
X4041557Y78833943D01*
X4041564Y78833942D01*
X4041569Y78833940D01*
X4309561Y78794500D01*
X4309566Y78794500D01*
X4512636Y78794500D01*
X4564133Y78798270D01*
X4715156Y78809323D01*
X4827758Y78834407D01*
X4979546Y78868218D01*
X4979548Y78868219D01*
X4979553Y78868220D01*
X5232558Y78964986D01*
X5468777Y79097559D01*
X5683177Y79263112D01*
X5871186Y79458119D01*
X6028799Y79678421D01*
X6102787Y79822331D01*
X6152649Y79919310D01*
X6152651Y79919316D01*
X6152656Y79919325D01*
X6240118Y80175695D01*
X6289319Y80442067D01*
X6294259Y80577237D01*
X43230787Y80577237D01*
X43260413Y80307987D01*
X43260415Y80307976D01*
X43328926Y80045918D01*
X43328928Y80045912D01*
X43434870Y79796610D01*
X43506998Y79678425D01*
X43575979Y79565395D01*
X43575986Y79565385D01*
X43749253Y79357181D01*
X43749259Y79357176D01*
X43854240Y79263113D01*
X43950998Y79176418D01*
X44176910Y79026956D01*
X44422176Y78911980D01*
X44422183Y78911978D01*
X44422185Y78911977D01*
X44681557Y78833943D01*
X44681564Y78833942D01*
X44681569Y78833940D01*
X44949561Y78794500D01*
X44949566Y78794500D01*
X45152636Y78794500D01*
X45204133Y78798270D01*
X45355156Y78809323D01*
X45467758Y78834407D01*
X45619546Y78868218D01*
X45619548Y78868219D01*
X45619553Y78868220D01*
X45872558Y78964986D01*
X46108777Y79097559D01*
X46323177Y79263112D01*
X46511186Y79458119D01*
X46668799Y79678421D01*
X46742787Y79822331D01*
X46792649Y79919310D01*
X46792651Y79919316D01*
X46792656Y79919325D01*
X46880118Y80175695D01*
X46929319Y80442067D01*
X46939212Y80712765D01*
X46909586Y80982018D01*
X46841072Y81244088D01*
X46735130Y81493390D01*
X46594018Y81724610D01*
X46504747Y81831881D01*
X46420746Y81932820D01*
X46420740Y81932825D01*
X46219002Y82113582D01*
X45993092Y82263043D01*
X45993090Y82263044D01*
X45747824Y82378020D01*
X45747819Y82378022D01*
X45747814Y82378024D01*
X45488442Y82456058D01*
X45488428Y82456061D01*
X45372791Y82473079D01*
X45220439Y82495500D01*
X45017369Y82495500D01*
X45017364Y82495500D01*
X44814844Y82480677D01*
X44814831Y82480675D01*
X44550453Y82421783D01*
X44550446Y82421780D01*
X44297439Y82325013D01*
X44061226Y82192443D01*
X43846822Y82026888D01*
X43658822Y81831891D01*
X43658816Y81831884D01*
X43501202Y81611581D01*
X43501199Y81611576D01*
X43377350Y81370691D01*
X43377343Y81370673D01*
X43289884Y81114315D01*
X43289881Y81114301D01*
X43240681Y80847932D01*
X43240680Y80847925D01*
X43230787Y80577237D01*
X6294259Y80577237D01*
X6299212Y80712765D01*
X6269586Y80982018D01*
X6201072Y81244088D01*
X6095130Y81493390D01*
X5954018Y81724610D01*
X5864747Y81831881D01*
X5780746Y81932820D01*
X5780740Y81932825D01*
X5579002Y82113582D01*
X5353092Y82263043D01*
X5353090Y82263044D01*
X5107824Y82378020D01*
X5107819Y82378022D01*
X5107814Y82378024D01*
X4848442Y82456058D01*
X4848428Y82456061D01*
X4732791Y82473079D01*
X4580439Y82495500D01*
X4377369Y82495500D01*
X4377364Y82495500D01*
X4174844Y82480677D01*
X4174831Y82480675D01*
X3910453Y82421783D01*
X3910446Y82421780D01*
X3657439Y82325013D01*
X3421226Y82192443D01*
X3206822Y82026888D01*
X3018822Y81831891D01*
X3018816Y81831884D01*
X2861202Y81611581D01*
X2861199Y81611576D01*
X2737350Y81370691D01*
X2737343Y81370673D01*
X2649884Y81114315D01*
X2649881Y81114301D01*
X2600681Y80847932D01*
X2600680Y80847925D01*
X2590787Y80577237D01*
X500Y80577237D01*
X500Y82088378D01*
X585Y82091624D01*
X1736Y82113582D01*
X7497Y82223514D01*
X17803Y82407032D01*
X18464Y82413209D01*
X42611Y82565669D01*
X70227Y82728204D01*
X71451Y82733804D01*
X112425Y82886721D01*
X157083Y83041732D01*
X158764Y83046746D01*
X216127Y83196185D01*
X277366Y83344028D01*
X279379Y83348394D01*
X352511Y83491922D01*
X359688Y83504910D01*
X429655Y83631506D01*
X431867Y83635192D01*
X519980Y83770873D01*
X534130Y83790818D01*
X612154Y83900780D01*
X614486Y83903857D01*
X715655Y84028791D01*
X717537Y84031002D01*
X822773Y84148761D01*
X825092Y84151213D01*
X938787Y84264908D01*
X941239Y84267227D01*
X1058998Y84372463D01*
X1061209Y84374345D01*
X1186143Y84475514D01*
X1189220Y84477846D01*
X1319127Y84570020D01*
X1329046Y84576463D01*
X1454808Y84658133D01*
X1458494Y84660345D01*
X1598078Y84737489D01*
X1610063Y84743597D01*
X1741606Y84810621D01*
X1745972Y84812634D01*
X1893815Y84873873D01*
X2043254Y84931236D01*
X2048268Y84932917D01*
X2203279Y84977575D01*
X2356196Y85018549D01*
X2361796Y85019773D01*
X2524284Y85047382D01*
X2676791Y85071536D01*
X2682968Y85072197D01*
X2866566Y85082507D01*
X2998380Y85089416D01*
X3001622Y85089500D01*
X46528378Y85089500D01*
X46531619Y85089416D01*
G37*
%TD.AperFunction*%
%TD*%
%TA.AperFunction,Conductor*%
%TO.N,adc_vref*%
G36*
X43208875Y65676282D02*
G01*
X43214955Y65670492D01*
X43736474Y64570997D01*
X43736923Y64562054D01*
X43734176Y64557710D01*
X43392290Y64215824D01*
X43384017Y64212397D01*
X43379003Y64213526D01*
X42279508Y64735045D01*
X42273502Y64741687D01*
X42273706Y64750078D01*
X42542438Y65401214D01*
X42548759Y65407551D01*
X43199921Y65676293D01*
X43208875Y65676282D01*
G37*
%TD.AperFunction*%
%TD*%
%TA.AperFunction,Conductor*%
%TO.N,adc_vref*%
G36*
X43392290Y51354177D02*
G01*
X43734176Y51012291D01*
X43737603Y51004018D01*
X43736474Y50999004D01*
X43214955Y49899509D01*
X43208313Y49893503D01*
X43199920Y49893708D01*
X42548788Y50162438D01*
X42542449Y50168762D01*
X42273707Y50819922D01*
X42273718Y50828876D01*
X42279506Y50834955D01*
X43379004Y51356476D01*
X43387946Y51356924D01*
X43392290Y51354177D01*
G37*
%TD.AperFunction*%
%TD*%
%TA.AperFunction,Conductor*%
%TO.N,scl*%
G36*
X16717981Y20035618D02*
G01*
X16724306Y20029279D01*
X16724482Y20028827D01*
X17236127Y18628099D01*
X17235746Y18619153D01*
X17233410Y18615812D01*
X17067029Y18449431D01*
X17058756Y18446004D01*
X17055047Y18446607D01*
X15621609Y18925728D01*
X15614849Y18931601D01*
X15614221Y18940534D01*
X15614498Y18941277D01*
X15932438Y19711217D01*
X15938759Y19717552D01*
X16709027Y20035627D01*
X16717981Y20035618D01*
G37*
%TD.AperFunction*%
%TD*%
%TA.AperFunction,Conductor*%
%TO.N,scl*%
G36*
X23658251Y8273032D02*
G01*
X24140027Y8103898D01*
X25078629Y7774389D01*
X25085300Y7768416D01*
X25085792Y7759474D01*
X25085567Y7758884D01*
X24767562Y6988786D01*
X24761237Y6982447D01*
X24761214Y6982438D01*
X23991116Y6664433D01*
X23982161Y6664442D01*
X23975836Y6670781D01*
X23975611Y6671371D01*
X23865755Y6984293D01*
X23589818Y7770298D01*
X23476968Y8091749D01*
X23477460Y8100691D01*
X23479731Y8103895D01*
X23646103Y8270267D01*
X23654375Y8273693D01*
X23658251Y8273032D01*
G37*
%TD.AperFunction*%
%TD*%
%TA.AperFunction,Conductor*%
%TO.N,vbus*%
G36*
X17185154Y23876927D02*
G01*
X17527049Y23535032D01*
X17530476Y23526759D01*
X17529400Y23521858D01*
X16789681Y21918270D01*
X16783104Y21912193D01*
X16774647Y21912334D01*
X15938794Y22252462D01*
X15932423Y22258754D01*
X15932414Y22258776D01*
X15869729Y22408318D01*
X15581973Y23094792D01*
X15581936Y23103745D01*
X15587651Y23109836D01*
X17171771Y23879179D01*
X17180709Y23879710D01*
X17185154Y23876927D01*
G37*
%TD.AperFunction*%
%TD*%
%TA.AperFunction,Conductor*%
%TO.N,vbus*%
G36*
X31545241Y78452852D02*
G01*
X32381216Y78107562D01*
X32387553Y78101237D01*
X32387562Y78101216D01*
X32732851Y77265242D01*
X32732842Y77256287D01*
X32727085Y77250220D01*
X31118203Y76480755D01*
X31109261Y76480277D01*
X31104882Y76483037D01*
X30763036Y76824883D01*
X30759609Y76833156D01*
X30760753Y76838202D01*
X31530219Y78447087D01*
X31536880Y78453071D01*
X31545241Y78452852D01*
G37*
%TD.AperFunction*%
%TD*%
%TA.AperFunction,Conductor*%
%TO.N,vbus*%
G36*
X31118203Y16229246D02*
G01*
X32727085Y15459781D01*
X32733070Y15453120D01*
X32732851Y15444759D01*
X32387562Y14608785D01*
X32381236Y14602447D01*
X32381215Y14602438D01*
X31545241Y14257149D01*
X31536286Y14257158D01*
X31530219Y14262915D01*
X31146631Y15064962D01*
X30760753Y15871798D01*
X30760276Y15880739D01*
X30763034Y15885116D01*
X31104883Y16226965D01*
X31113155Y16230391D01*
X31118203Y16229246D01*
G37*
%TD.AperFunction*%
%TD*%
%TA.AperFunction,Conductor*%
%TO.N,sda*%
G36*
X33167791Y30165539D02*
G01*
X33174116Y30159200D01*
X33174357Y30158564D01*
X33695620Y28653858D01*
X33695090Y28644919D01*
X33688395Y28638973D01*
X33684565Y28638328D01*
X33452734Y28638328D01*
X33449343Y28638830D01*
X32072073Y29055961D01*
X32065148Y29061639D01*
X32064266Y29070550D01*
X32064644Y29071610D01*
X32383144Y29841515D01*
X32389471Y29847847D01*
X33158836Y30165548D01*
X33167791Y30165539D01*
G37*
%TD.AperFunction*%
%TD*%
%TA.AperFunction,Conductor*%
%TO.N,sda*%
G36*
X32748773Y18430936D02*
G01*
X32751000Y18424069D01*
X32751000Y18196999D01*
X33163629Y17481839D01*
X33164795Y17472961D01*
X33159342Y17465858D01*
X33157968Y17465181D01*
X32391227Y17147990D01*
X32382272Y17147994D01*
X32378474Y17150535D01*
X31793640Y17736344D01*
X31790220Y17744620D01*
X31793654Y17752890D01*
X31795048Y17754080D01*
X32732433Y18433543D01*
X32741143Y18435623D01*
X32748773Y18430936D01*
G37*
%TD.AperFunction*%
%TD*%
M02*
