%TF.GenerationSoftware,KiCad,Pcbnew,7.0.9*%
%TF.CreationDate,2023-12-18T06:45:05+09:00*%
%TF.ProjectId,WETHAP_PCB,57455448-4150-45f5-9043-422e6b696361,rev?*%
%TF.SameCoordinates,PX6d9c4d8PY8977a68*%
%TF.FileFunction,Copper,L2,Bot*%
%TF.FilePolarity,Positive*%
%FSLAX46Y46*%
G04 Gerber Fmt 4.6, Leading zero omitted, Abs format (unit mm)*
G04 Created by KiCad (PCBNEW 7.0.9) date 2023-12-18 06:45:05*
%MOMM*%
%LPD*%
G01*
G04 APERTURE LIST*
%TA.AperFunction,ComponentPad*%
%ADD10C,5.600000*%
%TD*%
%TA.AperFunction,ComponentPad*%
%ADD11R,1.700000X1.700000*%
%TD*%
%TA.AperFunction,ComponentPad*%
%ADD12O,1.700000X1.700000*%
%TD*%
%TA.AperFunction,ComponentPad*%
%ADD13C,1.440000*%
%TD*%
%TA.AperFunction,ViaPad*%
%ADD14C,0.800000*%
%TD*%
%TA.AperFunction,Conductor*%
%ADD15C,0.250000*%
%TD*%
G04 APERTURE END LIST*
D10*
%TO.P,H4,1,1*%
%TO.N,gnd*%
X45085000Y4445000D03*
%TD*%
%TO.P,H3,1,1*%
%TO.N,gnd*%
X4445000Y4445000D03*
%TD*%
%TO.P,H2,1,1*%
%TO.N,gnd*%
X45085000Y80645000D03*
%TD*%
%TO.P,H1,1,1*%
%TO.N,gnd*%
X4445000Y80645000D03*
%TD*%
D11*
%TO.P,DHT20,1,Pin_1*%
%TO.N,vbus*%
X32385000Y14605000D03*
D12*
%TO.P,DHT20,2,Pin_2*%
%TO.N,sda*%
X32385000Y17145000D03*
%TO.P,DHT20,3,Pin_3*%
%TO.N,gnd*%
X32385000Y19685000D03*
%TO.P,DHT20,4,Pin_4*%
%TO.N,scl*%
X32385000Y22225000D03*
%TD*%
D11*
%TO.P,J1,1,Pin_1*%
%TO.N,unconnected-(J1-Pin_1-Pad1)*%
X14605000Y78105000D03*
D12*
%TO.P,J1,2,Pin_2*%
%TO.N,unconnected-(J1-Pin_2-Pad2)*%
X14605000Y75565000D03*
%TO.P,J1,3,Pin_3*%
%TO.N,gnd*%
X14605000Y73025000D03*
%TO.P,J1,4,Pin_4*%
%TO.N,unconnected-(J1-Pin_4-Pad4)*%
X14605000Y70485000D03*
%TO.P,J1,5,Pin_5*%
%TO.N,unconnected-(J1-Pin_5-Pad5)*%
X14605000Y67945000D03*
%TO.P,J1,6,Pin_6*%
%TO.N,unconnected-(J1-Pin_6-Pad6)*%
X14605000Y65405000D03*
%TO.P,J1,7,Pin_7*%
%TO.N,unconnected-(J1-Pin_7-Pad7)*%
X14605000Y62865000D03*
%TO.P,J1,8,Pin_8*%
%TO.N,gnd*%
X14605000Y60325000D03*
%TO.P,J1,9,Pin_9*%
%TO.N,unconnected-(J1-Pin_9-Pad9)*%
X14605000Y57785000D03*
%TO.P,J1,10,Pin_10*%
%TO.N,unconnected-(J1-Pin_10-Pad10)*%
X14605000Y55245000D03*
%TO.P,J1,11,Pin_11*%
%TO.N,unconnected-(J1-Pin_11-Pad11)*%
X14605000Y52705000D03*
%TO.P,J1,12,Pin_12*%
%TO.N,unconnected-(J1-Pin_12-Pad12)*%
X14605000Y50165000D03*
%TO.P,J1,13,Pin_13*%
%TO.N,gnd*%
X14605000Y47625000D03*
%TO.P,J1,14,Pin_14*%
%TO.N,unconnected-(J1-Pin_14-Pad14)*%
X14605000Y45085000D03*
%TO.P,J1,15,Pin_15*%
%TO.N,unconnected-(J1-Pin_15-Pad15)*%
X14605000Y42545000D03*
%TO.P,J1,16,Pin_16*%
%TO.N,unconnected-(J1-Pin_16-Pad16)*%
X14605000Y40005000D03*
%TO.P,J1,17,Pin_17*%
%TO.N,unconnected-(J1-Pin_17-Pad17)*%
X14605000Y37465000D03*
%TO.P,J1,18,Pin_18*%
%TO.N,gnd*%
X14605000Y34925000D03*
%TO.P,J1,19,Pin_19*%
%TO.N,unconnected-(J1-Pin_19-Pad19)*%
X14605000Y32385000D03*
%TO.P,J1,20,Pin_20*%
%TO.N,unconnected-(J1-Pin_20-Pad20)*%
X14605000Y29845000D03*
%TD*%
D11*
%TO.P,LPS25HB1,1,Pin_1*%
%TO.N,vbus*%
X15935000Y22255000D03*
D12*
%TO.P,LPS25HB1,2,Pin_2*%
%TO.N,scl*%
X15935000Y19715000D03*
%TO.P,LPS25HB1,3,Pin_3*%
%TO.N,sda*%
X15935000Y17175000D03*
%TO.P,LPS25HB1,4,Pin_4*%
%TO.N,gnd*%
X15935000Y14635000D03*
%TD*%
D11*
%TO.P,SSD1306,1,Pin_1*%
%TO.N,gnd*%
X19685000Y6985000D03*
D12*
%TO.P,SSD1306,2,Pin_2*%
%TO.N,vbus*%
X22225000Y6985000D03*
%TO.P,SSD1306,3,Pin_3*%
%TO.N,scl*%
X24765000Y6985000D03*
%TO.P,SSD1306,4,Pin_4*%
%TO.N,sda*%
X27305000Y6985000D03*
%TD*%
D13*
%TO.P,RV1,1,1*%
%TO.N,gnd*%
X42545000Y50165000D03*
%TO.P,RV1,2,2*%
%TO.N,ADC0*%
X42545000Y47625000D03*
%TO.P,RV1,3,3*%
%TO.N,adc_vref*%
X42545000Y45085000D03*
%TD*%
D11*
%TO.P,J2,1,Pin_1*%
%TO.N,sda*%
X32385000Y29845000D03*
D12*
%TO.P,J2,2,Pin_2*%
%TO.N,scl*%
X32385000Y32385000D03*
%TO.P,J2,3,Pin_3*%
%TO.N,gnd*%
X32385000Y34925000D03*
%TO.P,J2,4,Pin_4*%
%TO.N,unconnected-(J2-Pin_4-Pad4)*%
X32385000Y37465000D03*
%TO.P,J2,5,Pin_5*%
%TO.N,unconnected-(J2-Pin_5-Pad5)*%
X32385000Y40005000D03*
%TO.P,J2,6,Pin_6*%
%TO.N,unconnected-(J2-Pin_6-Pad6)*%
X32385000Y42545000D03*
%TO.P,J2,7,Pin_7*%
%TO.N,unconnected-(J2-Pin_7-Pad7)*%
X32385000Y45085000D03*
%TO.P,J2,8,Pin_8*%
%TO.N,gnd*%
X32385000Y47625000D03*
%TO.P,J2,9,Pin_9*%
%TO.N,unconnected-(J2-Pin_9-Pad9)*%
X32385000Y50165000D03*
%TO.P,J2,10,Pin_10*%
%TO.N,unconnected-(J2-Pin_10-Pad10)*%
X32385000Y52705000D03*
%TO.P,J2,11,Pin_11*%
%TO.N,ADC0*%
X32385000Y55245000D03*
%TO.P,J2,12,Pin_12*%
%TO.N,ADC1*%
X32385000Y57785000D03*
%TO.P,J2,13,Pin_13*%
%TO.N,gnd*%
X32385000Y60325000D03*
%TO.P,J2,14,Pin_14*%
%TO.N,unconnected-(J2-Pin_14-Pad14)*%
X32385000Y62865000D03*
%TO.P,J2,15,Pin_15*%
%TO.N,adc_vref*%
X32385000Y65405000D03*
%TO.P,J2,16,Pin_16*%
%TO.N,unconnected-(J2-Pin_16-Pad16)*%
X32385000Y67945000D03*
%TO.P,J2,17,Pin_17*%
%TO.N,unconnected-(J2-Pin_17-Pad17)*%
X32385000Y70485000D03*
%TO.P,J2,18,Pin_18*%
%TO.N,gnd*%
X32385000Y73025000D03*
%TO.P,J2,19,Pin_19*%
%TO.N,unconnected-(J2-Pin_19-Pad19)*%
X32385000Y75565000D03*
%TO.P,J2,20,Pin_20*%
%TO.N,vbus*%
X32385000Y78105000D03*
%TD*%
D13*
%TO.P,RV2,1,1*%
%TO.N,gnd*%
X42545000Y65405000D03*
%TO.P,RV2,2,2*%
%TO.N,ADC1*%
X42545000Y62865000D03*
%TO.P,RV2,3,3*%
%TO.N,adc_vref*%
X42545000Y60325000D03*
%TD*%
D11*
%TO.P,LPS25HB2,1*%
%TO.N,N/C*%
X23555000Y14635000D03*
D12*
%TO.P,LPS25HB2,2*%
X23555000Y17175000D03*
%TO.P,LPS25HB2,3*%
X23555000Y19715000D03*
%TO.P,LPS25HB2,4*%
X23555000Y22255000D03*
%TD*%
D14*
%TO.N,gnd*%
X27940000Y14605000D03*
X46355000Y56515000D03*
X41275000Y64135000D03*
X28575000Y50165000D03*
X18415000Y69215000D03*
X4445000Y75565000D03*
X28575000Y62865000D03*
X10795000Y56515000D03*
X3175000Y37465000D03*
X38735000Y31115000D03*
X38735000Y5715000D03*
X28575000Y81915000D03*
X26035000Y8255000D03*
X31750000Y26035000D03*
X3175000Y62865000D03*
X10795000Y5715000D03*
X45085000Y24765000D03*
X10795000Y69215000D03*
X14605000Y12065000D03*
X36195000Y43815000D03*
X15935000Y24795000D03*
X10795000Y43815000D03*
X38735000Y18415000D03*
X34925000Y12065000D03*
X40640000Y51435000D03*
X38735000Y81915000D03*
X45085000Y37465000D03*
X22225000Y56515000D03*
X10795000Y31115000D03*
X5715000Y12065000D03*
X36195000Y56515000D03*
X20320000Y15875000D03*
X10795000Y18415000D03*
X3175000Y24765000D03*
X38735000Y73025000D03*
X45085000Y12065000D03*
X27305000Y22225000D03*
X10795000Y81915000D03*
X22225000Y43815000D03*
X28575000Y37465000D03*
X18415000Y81915000D03*
X3175000Y50165000D03*
X22225000Y31115000D03*
%TD*%
D15*
%TO.N,scl*%
X14605000Y10795000D02*
X13335000Y12065000D01*
X13335000Y12065000D02*
X13335000Y17115000D01*
X13335000Y17115000D02*
X15935000Y19715000D01*
X24765000Y6985000D02*
X20955000Y10795000D01*
X20955000Y10795000D02*
X14605000Y10795000D01*
%TO.N,sda*%
X27305000Y12065000D02*
X26670000Y12700000D01*
X26670000Y12700000D02*
X21586900Y12700000D01*
X21586900Y12700000D02*
X17111900Y17175000D01*
X17111900Y17175000D02*
X15935000Y17175000D01*
X32385000Y17145000D02*
X27305000Y12065000D01*
X27305000Y12065000D02*
X27305000Y11720400D01*
%TO.N,scl*%
X32385000Y32385000D02*
X33655000Y31115000D01*
X33655000Y31115000D02*
X33655000Y24671900D01*
X33655000Y24671900D02*
X32385000Y23401900D01*
X32385000Y23401900D02*
X32385000Y22225000D01*
%TO.N,ADC0*%
X41181900Y47625000D02*
X33561900Y55245000D01*
X42545000Y47625000D02*
X41181900Y47625000D01*
X32385000Y55245000D02*
X33561900Y55245000D01*
%TO.N,ADC1*%
X37465000Y57785000D02*
X32385000Y57785000D01*
X42545000Y62865000D02*
X37465000Y57785000D01*
%TO.N,sda*%
X27305000Y6985000D02*
X27305000Y11720400D01*
%TO.N,scl*%
X18445000Y21048100D02*
X17111900Y19715000D01*
X30031200Y21048100D02*
X18445000Y21048100D01*
X31208100Y22225000D02*
X30031200Y21048100D01*
X32385000Y22225000D02*
X31208100Y22225000D01*
X15935000Y19715000D02*
X17111900Y19715000D01*
%TD*%
%TA.AperFunction,Conductor*%
%TO.N,gnd*%
G36*
X14498675Y17291571D02*
G01*
X14554608Y17249699D01*
X14579025Y17184235D01*
X14579341Y17175389D01*
X14579341Y17175000D01*
X14599936Y16939597D01*
X14599938Y16939587D01*
X14661094Y16711345D01*
X14661096Y16711341D01*
X14661097Y16711337D01*
X14675087Y16681336D01*
X14760965Y16497170D01*
X14760967Y16497166D01*
X14869281Y16342479D01*
X14896501Y16303604D01*
X14896506Y16303598D01*
X15063597Y16136507D01*
X15063603Y16136502D01*
X15073907Y16129287D01*
X15230439Y16019682D01*
X15249594Y16006270D01*
X15293219Y15951693D01*
X15300413Y15882195D01*
X15268890Y15819840D01*
X15249595Y15803120D01*
X15063922Y15673110D01*
X15063920Y15673109D01*
X14896891Y15506080D01*
X14896886Y15506074D01*
X14761400Y15312580D01*
X14761399Y15312578D01*
X14661570Y15098493D01*
X14661567Y15098487D01*
X14604364Y14885001D01*
X14604364Y14885000D01*
X15501314Y14885000D01*
X15475507Y14844844D01*
X15435000Y14706889D01*
X15435000Y14563111D01*
X15475507Y14425156D01*
X15501314Y14385000D01*
X14604364Y14385000D01*
X14661567Y14171514D01*
X14661570Y14171508D01*
X14761399Y13957422D01*
X14896894Y13763918D01*
X15063917Y13596895D01*
X15257421Y13461400D01*
X15471507Y13361571D01*
X15471516Y13361567D01*
X15685000Y13304366D01*
X15685000Y14199499D01*
X15792685Y14150320D01*
X15899237Y14135000D01*
X15970763Y14135000D01*
X16077315Y14150320D01*
X16185000Y14199499D01*
X16185000Y13304367D01*
X16398483Y13361567D01*
X16398492Y13361571D01*
X16612578Y13461400D01*
X16806082Y13596895D01*
X16973105Y13763918D01*
X17108600Y13957422D01*
X17208429Y14171508D01*
X17208432Y14171514D01*
X17265636Y14385000D01*
X16368686Y14385000D01*
X16394493Y14425156D01*
X16435000Y14563111D01*
X16435000Y14706889D01*
X16394493Y14844844D01*
X16368686Y14885000D01*
X17265636Y14885000D01*
X17265635Y14885001D01*
X17208432Y15098487D01*
X17208429Y15098493D01*
X17108600Y15312578D01*
X17108599Y15312580D01*
X16973113Y15506074D01*
X16973108Y15506080D01*
X16806078Y15673110D01*
X16666645Y15770743D01*
X16623020Y15825320D01*
X16615828Y15894818D01*
X16647350Y15957173D01*
X16703383Y15991454D01*
X17182092Y16129611D01*
X17251960Y16129287D01*
X17304156Y16098154D01*
X21086094Y12316216D01*
X21095919Y12303952D01*
X21096140Y12304134D01*
X21101110Y12298127D01*
X21101113Y12298124D01*
X21101114Y12298123D01*
X21151551Y12250759D01*
X21172430Y12229880D01*
X21177904Y12225634D01*
X21182342Y12221844D01*
X21216318Y12189938D01*
X21216322Y12189936D01*
X21233873Y12180287D01*
X21250131Y12169608D01*
X21265964Y12157326D01*
X21287915Y12147828D01*
X21308737Y12138817D01*
X21313981Y12136248D01*
X21354808Y12113803D01*
X21374212Y12108821D01*
X21392610Y12102522D01*
X21411005Y12094562D01*
X21457029Y12087274D01*
X21462732Y12086093D01*
X21507881Y12074500D01*
X21527916Y12074500D01*
X21547313Y12072974D01*
X21567096Y12069840D01*
X21613484Y12074225D01*
X21619322Y12074500D01*
X26359548Y12074500D01*
X26426587Y12054815D01*
X26447229Y12038181D01*
X26643181Y11842229D01*
X26676666Y11780906D01*
X26679500Y11754548D01*
X26679500Y8838750D01*
X26667275Y8785063D01*
X26143036Y7693617D01*
X26096267Y7641709D01*
X26028858Y7623327D01*
X25962213Y7644307D01*
X25929686Y7676181D01*
X25803494Y7856403D01*
X25636402Y8023494D01*
X25636395Y8023499D01*
X25442831Y8159035D01*
X25442829Y8159036D01*
X25336144Y8208784D01*
X25256401Y8245969D01*
X25251424Y8248563D01*
X25246078Y8251349D01*
X25246074Y8251351D01*
X25246073Y8251351D01*
X25244045Y8252063D01*
X25238389Y8254368D01*
X25232266Y8257223D01*
X25228664Y8258903D01*
X25213614Y8262936D01*
X25209126Y8264323D01*
X23943100Y8708778D01*
X23896493Y8738097D01*
X21455803Y11178788D01*
X21445980Y11191050D01*
X21445759Y11190866D01*
X21440786Y11196877D01*
X21390364Y11244227D01*
X21379919Y11254672D01*
X21369475Y11265117D01*
X21363986Y11269375D01*
X21359561Y11273153D01*
X21325582Y11305062D01*
X21325580Y11305064D01*
X21325577Y11305065D01*
X21308029Y11314712D01*
X21291763Y11325396D01*
X21275933Y11337675D01*
X21233168Y11356182D01*
X21227922Y11358752D01*
X21187093Y11381197D01*
X21187092Y11381198D01*
X21167693Y11386178D01*
X21149281Y11392482D01*
X21130898Y11400438D01*
X21130892Y11400440D01*
X21084874Y11407728D01*
X21079152Y11408913D01*
X21034021Y11420500D01*
X21034019Y11420500D01*
X21013984Y11420500D01*
X20994586Y11422027D01*
X20987162Y11423203D01*
X20974805Y11425160D01*
X20974804Y11425160D01*
X20928416Y11420775D01*
X20922578Y11420500D01*
X14915453Y11420500D01*
X14848414Y11440185D01*
X14827772Y11456819D01*
X13996819Y12287772D01*
X13963334Y12349095D01*
X13960500Y12375453D01*
X13960500Y16804548D01*
X13980185Y16871587D01*
X13996819Y16892229D01*
X14367660Y17263070D01*
X14428983Y17296555D01*
X14498675Y17291571D01*
G37*
%TD.AperFunction*%
%TA.AperFunction,Conductor*%
G36*
X31137903Y21179612D02*
G01*
X31616615Y21041454D01*
X31675566Y21003953D01*
X31704885Y20940532D01*
X31695262Y20871328D01*
X31653354Y20820742D01*
X31513922Y20723110D01*
X31513920Y20723109D01*
X31346891Y20556080D01*
X31346886Y20556074D01*
X31211400Y20362580D01*
X31211399Y20362578D01*
X31111570Y20148493D01*
X31111567Y20148487D01*
X31054364Y19935001D01*
X31054364Y19935000D01*
X31951314Y19935000D01*
X31925507Y19894844D01*
X31885000Y19756889D01*
X31885000Y19613111D01*
X31925507Y19475156D01*
X31951314Y19435000D01*
X31054364Y19435000D01*
X31111567Y19221514D01*
X31111570Y19221508D01*
X31211399Y19007422D01*
X31346894Y18813918D01*
X31513917Y18646895D01*
X31699595Y18516881D01*
X31743219Y18462304D01*
X31750412Y18392805D01*
X31718890Y18330451D01*
X31699595Y18313731D01*
X31513594Y18183492D01*
X31346505Y18016403D01*
X31210965Y17822831D01*
X31210964Y17822829D01*
X31124036Y17636413D01*
X31118649Y17626076D01*
X31118645Y17626067D01*
X31117930Y17624031D01*
X31115629Y17618386D01*
X31111097Y17608666D01*
X31111097Y17608664D01*
X31107064Y17593615D01*
X31105677Y17589126D01*
X30661222Y16323102D01*
X30631903Y16276495D01*
X27392680Y13037273D01*
X27331357Y13003788D01*
X27261665Y13008772D01*
X27217317Y13037274D01*
X27170801Y13083791D01*
X27160980Y13096050D01*
X27160759Y13095866D01*
X27155786Y13101877D01*
X27105364Y13149227D01*
X27094919Y13159672D01*
X27084475Y13170117D01*
X27078986Y13174375D01*
X27074561Y13178153D01*
X27040582Y13210062D01*
X27040580Y13210064D01*
X27040577Y13210065D01*
X27023029Y13219712D01*
X27006763Y13230396D01*
X26990933Y13242675D01*
X26948168Y13261182D01*
X26942922Y13263752D01*
X26902093Y13286197D01*
X26902092Y13286198D01*
X26882693Y13291178D01*
X26864281Y13297482D01*
X26845898Y13305438D01*
X26845892Y13305440D01*
X26799874Y13312728D01*
X26794152Y13313913D01*
X26749021Y13325500D01*
X26749019Y13325500D01*
X26728984Y13325500D01*
X26709586Y13327027D01*
X26702162Y13328203D01*
X26689805Y13330160D01*
X26689804Y13330160D01*
X26643416Y13325775D01*
X26637578Y13325500D01*
X24933946Y13325500D01*
X24866907Y13345185D01*
X24821152Y13397989D01*
X24811208Y13467147D01*
X24834679Y13523811D01*
X24836045Y13525637D01*
X24848796Y13542669D01*
X24899091Y13677517D01*
X24905500Y13737127D01*
X24905499Y15532872D01*
X24899091Y15592483D01*
X24869019Y15673109D01*
X24848797Y15727329D01*
X24848793Y15727336D01*
X24762547Y15842545D01*
X24762544Y15842548D01*
X24647335Y15928794D01*
X24647328Y15928798D01*
X24515917Y15977811D01*
X24459983Y16019682D01*
X24435566Y16085147D01*
X24450418Y16153420D01*
X24471563Y16181668D01*
X24593495Y16303599D01*
X24729035Y16497170D01*
X24828903Y16711337D01*
X24890063Y16939592D01*
X24910659Y17175000D01*
X24890063Y17410408D01*
X24839052Y17600787D01*
X24828905Y17638656D01*
X24828904Y17638657D01*
X24828903Y17638663D01*
X24729035Y17852829D01*
X24614502Y18016401D01*
X24593494Y18046403D01*
X24426402Y18213494D01*
X24426396Y18213499D01*
X24240842Y18343425D01*
X24197217Y18398002D01*
X24190023Y18467500D01*
X24221546Y18529855D01*
X24240842Y18546575D01*
X24263026Y18562109D01*
X24426401Y18676505D01*
X24593495Y18843599D01*
X24729035Y19037170D01*
X24828903Y19251337D01*
X24890063Y19479592D01*
X24910659Y19715000D01*
X24890063Y19950408D01*
X24828903Y20178663D01*
X24797411Y20246196D01*
X24786920Y20315273D01*
X24815440Y20379057D01*
X24873916Y20417296D01*
X24909794Y20422600D01*
X29948457Y20422600D01*
X29964077Y20420876D01*
X29964104Y20421161D01*
X29971860Y20420429D01*
X29971867Y20420427D01*
X30041014Y20422600D01*
X30070550Y20422600D01*
X30077428Y20423470D01*
X30083241Y20423928D01*
X30129827Y20425391D01*
X30149069Y20430983D01*
X30168112Y20434926D01*
X30187992Y20437436D01*
X30231322Y20454593D01*
X30236846Y20456483D01*
X30240596Y20457573D01*
X30281590Y20469482D01*
X30298829Y20479678D01*
X30316303Y20488238D01*
X30334927Y20495612D01*
X30334927Y20495613D01*
X30334932Y20495614D01*
X30372649Y20523018D01*
X30377505Y20526208D01*
X30417620Y20549930D01*
X30431789Y20564101D01*
X30446579Y20576732D01*
X30462787Y20588506D01*
X30492499Y20624424D01*
X30496412Y20628724D01*
X31015845Y21148156D01*
X31077166Y21181639D01*
X31137903Y21179612D01*
G37*
%TD.AperFunction*%
%TA.AperFunction,Conductor*%
G36*
X22267245Y20402915D02*
G01*
X22313000Y20350111D01*
X22322944Y20280953D01*
X22312588Y20246196D01*
X22281098Y20178664D01*
X22281094Y20178656D01*
X22219938Y19950414D01*
X22219936Y19950404D01*
X22199341Y19715001D01*
X22199341Y19715000D01*
X22219936Y19479597D01*
X22219938Y19479587D01*
X22281094Y19251345D01*
X22281096Y19251341D01*
X22281097Y19251337D01*
X22347144Y19109700D01*
X22380965Y19037170D01*
X22380967Y19037166D01*
X22481842Y18893103D01*
X22514476Y18846496D01*
X22516501Y18843605D01*
X22516506Y18843598D01*
X22683597Y18676507D01*
X22683603Y18676502D01*
X22869158Y18546575D01*
X22912783Y18491998D01*
X22919977Y18422500D01*
X22888454Y18360145D01*
X22869158Y18343425D01*
X22683597Y18213495D01*
X22516505Y18046403D01*
X22380965Y17852831D01*
X22380964Y17852829D01*
X22281098Y17638665D01*
X22281094Y17638656D01*
X22219938Y17410414D01*
X22219936Y17410404D01*
X22199341Y17175001D01*
X22199341Y17175000D01*
X22219936Y16939597D01*
X22219938Y16939587D01*
X22281094Y16711345D01*
X22281096Y16711341D01*
X22281097Y16711337D01*
X22295087Y16681336D01*
X22380965Y16497170D01*
X22380967Y16497166D01*
X22489281Y16342479D01*
X22516501Y16303604D01*
X22516506Y16303598D01*
X22638430Y16181674D01*
X22671915Y16120351D01*
X22666931Y16050659D01*
X22625059Y15994726D01*
X22594083Y15977811D01*
X22462669Y15928797D01*
X22462664Y15928794D01*
X22347455Y15842548D01*
X22347452Y15842545D01*
X22261206Y15727336D01*
X22261202Y15727329D01*
X22210908Y15592483D01*
X22204501Y15532884D01*
X22204501Y15532877D01*
X22204500Y15532865D01*
X22204500Y13737130D01*
X22204501Y13737124D01*
X22210908Y13677517D01*
X22261202Y13542672D01*
X22261204Y13542669D01*
X22275321Y13523811D01*
X22299738Y13458346D01*
X22284886Y13390073D01*
X22235481Y13340668D01*
X22176054Y13325500D01*
X21897352Y13325500D01*
X21830313Y13345185D01*
X21809671Y13361819D01*
X20036490Y15135000D01*
X17915199Y17256291D01*
X17912505Y17259163D01*
X17909068Y17263070D01*
X17888690Y17286234D01*
X17867118Y17304644D01*
X17863551Y17307940D01*
X17612703Y17558788D01*
X17602880Y17571050D01*
X17602659Y17570866D01*
X17597686Y17576877D01*
X17584642Y17589126D01*
X17547264Y17624227D01*
X17532826Y17638665D01*
X17526375Y17645117D01*
X17520886Y17649375D01*
X17516461Y17653153D01*
X17482482Y17685062D01*
X17482480Y17685064D01*
X17482477Y17685065D01*
X17464929Y17694712D01*
X17448663Y17705396D01*
X17432834Y17717675D01*
X17403046Y17730565D01*
X17390060Y17736185D01*
X17384830Y17738747D01*
X17360046Y17752371D01*
X17343989Y17761199D01*
X17341056Y17762360D01*
X17306207Y17783330D01*
X16872401Y18153545D01*
X16845894Y18174672D01*
X16845895Y18174672D01*
X16845321Y18175129D01*
X16840120Y18179776D01*
X16806401Y18213495D01*
X16655674Y18319035D01*
X16620839Y18343427D01*
X16577216Y18398003D01*
X16570023Y18467502D01*
X16601545Y18529856D01*
X16620831Y18546568D01*
X16806401Y18676505D01*
X16846195Y18716301D01*
X16867632Y18733442D01*
X16872401Y18736456D01*
X17309757Y19109702D01*
X17355661Y19134457D01*
X17362290Y19136382D01*
X17379529Y19146578D01*
X17397003Y19155138D01*
X17415627Y19162512D01*
X17415627Y19162513D01*
X17415632Y19162514D01*
X17453349Y19189918D01*
X17458205Y19193108D01*
X17498320Y19216830D01*
X17512489Y19231001D01*
X17527279Y19243632D01*
X17543487Y19255406D01*
X17573199Y19291324D01*
X17577112Y19295624D01*
X17863546Y19582057D01*
X17867128Y19585366D01*
X17896356Y19610309D01*
X17904426Y19617773D01*
X17904426Y19617774D01*
X17904432Y19617779D01*
X17954817Y19671713D01*
X17954818Y19671716D01*
X17955813Y19672780D01*
X17965888Y19684400D01*
X18667772Y20386281D01*
X18729095Y20419766D01*
X18755453Y20422600D01*
X22200206Y20422600D01*
X22267245Y20402915D01*
G37*
%TD.AperFunction*%
%TA.AperFunction,Conductor*%
G36*
X46531619Y85089416D02*
G01*
X46663628Y85082497D01*
X46847027Y85072197D01*
X46853212Y85071535D01*
X47005647Y85047392D01*
X47168194Y85019774D01*
X47173811Y85018547D01*
X47326693Y84977582D01*
X47419122Y84950954D01*
X47481724Y84932918D01*
X47486759Y84931231D01*
X47636183Y84873873D01*
X47784007Y84812642D01*
X47788412Y84810612D01*
X47854180Y84777101D01*
X47931921Y84737489D01*
X48007428Y84695759D01*
X48071480Y84660359D01*
X48075215Y84658118D01*
X48149487Y84609885D01*
X48210872Y84570020D01*
X48298357Y84507947D01*
X48340764Y84477858D01*
X48343886Y84475490D01*
X48468748Y84374379D01*
X48471034Y84372433D01*
X48588721Y84267262D01*
X48591248Y84264872D01*
X48704870Y84151250D01*
X48707260Y84148723D01*
X48812431Y84031036D01*
X48814385Y84028740D01*
X48915480Y83903898D01*
X48917862Y83900757D01*
X49010019Y83770873D01*
X49063758Y83688125D01*
X49098106Y83635233D01*
X49100364Y83631469D01*
X49177488Y83491922D01*
X49250604Y83348425D01*
X49252643Y83344003D01*
X49313877Y83196171D01*
X49371221Y83046783D01*
X49372916Y83041727D01*
X49417579Y82886703D01*
X49458541Y82733829D01*
X49459778Y82728165D01*
X49487394Y82565631D01*
X49511530Y82413242D01*
X49512196Y82407015D01*
X49522509Y82223383D01*
X49529415Y82091623D01*
X49529500Y82088377D01*
X49529500Y3001624D01*
X49529415Y2998378D01*
X49522509Y2866618D01*
X49512196Y2682987D01*
X49511530Y2676760D01*
X49487394Y2524370D01*
X49459778Y2361837D01*
X49458541Y2356173D01*
X49417579Y2203298D01*
X49372916Y2048275D01*
X49371221Y2043219D01*
X49313877Y1893830D01*
X49252643Y1745999D01*
X49250604Y1741577D01*
X49177488Y1598079D01*
X49100364Y1458533D01*
X49098097Y1454754D01*
X49010019Y1319128D01*
X48917862Y1189245D01*
X48915480Y1186104D01*
X48814385Y1061262D01*
X48812431Y1058966D01*
X48707260Y941279D01*
X48704870Y938752D01*
X48591248Y825130D01*
X48588721Y822740D01*
X48471034Y717569D01*
X48468738Y715615D01*
X48343896Y614520D01*
X48340755Y612138D01*
X48210872Y519981D01*
X48075246Y431903D01*
X48071467Y429636D01*
X47931921Y352512D01*
X47788423Y279396D01*
X47784001Y277357D01*
X47636170Y216123D01*
X47486781Y158779D01*
X47481725Y157084D01*
X47326702Y112421D01*
X47173827Y71459D01*
X47168163Y70222D01*
X47005630Y42606D01*
X46853240Y18470D01*
X46847013Y17804D01*
X46663382Y7491D01*
X46531622Y585D01*
X46528376Y500D01*
X3001624Y500D01*
X2998378Y585D01*
X2866617Y7491D01*
X2682985Y17804D01*
X2676758Y18470D01*
X2524369Y42606D01*
X2361835Y70222D01*
X2356171Y71459D01*
X2203297Y112421D01*
X2048273Y157084D01*
X2043217Y158779D01*
X1893829Y216123D01*
X1745997Y277357D01*
X1741575Y279396D01*
X1598078Y352512D01*
X1458531Y429636D01*
X1454767Y431894D01*
X1401875Y466242D01*
X1319127Y519981D01*
X1189243Y612138D01*
X1186102Y614520D01*
X1061260Y715615D01*
X1058964Y717569D01*
X941277Y822740D01*
X938750Y825130D01*
X825128Y938752D01*
X822738Y941279D01*
X717567Y1058966D01*
X715613Y1061262D01*
X676848Y1109133D01*
X614510Y1186114D01*
X612136Y1189245D01*
X519980Y1319128D01*
X483775Y1374878D01*
X431882Y1454785D01*
X429641Y1458520D01*
X392831Y1525124D01*
X352511Y1598079D01*
X295681Y1709612D01*
X279388Y1741588D01*
X277358Y1745993D01*
X216122Y1893830D01*
X158769Y2043241D01*
X157082Y2048276D01*
X112420Y2203298D01*
X107316Y2222348D01*
X71453Y2356189D01*
X70226Y2361806D01*
X42601Y2524394D01*
X18465Y2676788D01*
X17803Y2682973D01*
X7490Y2866618D01*
X584Y2998380D01*
X500Y3001623D01*
X500Y4444998D01*
X1140153Y4444998D01*
X1159526Y4087686D01*
X1159527Y4087669D01*
X1217415Y3734569D01*
X1217421Y3734543D01*
X1313147Y3389768D01*
X1313149Y3389761D01*
X1445597Y3057341D01*
X1445606Y3057323D01*
X1613218Y2741173D01*
X1814033Y2444993D01*
X1941441Y2294997D01*
X1941442Y2294996D01*
X3147266Y3500820D01*
X3310130Y3310130D01*
X3500818Y3147268D01*
X2292255Y1938705D01*
X2292256Y1938704D01*
X2305485Y1926172D01*
X2305486Y1926171D01*
X2590367Y1709612D01*
X2590370Y1709610D01*
X2896990Y1525124D01*
X3221739Y1374878D01*
X3221744Y1374877D01*
X3560855Y1260617D01*
X3910339Y1183689D01*
X4266075Y1145001D01*
X4266085Y1145000D01*
X4623915Y1145000D01*
X4623924Y1145001D01*
X4979660Y1183689D01*
X5329144Y1260617D01*
X5668255Y1374877D01*
X5668260Y1374878D01*
X5993009Y1525124D01*
X6299629Y1709610D01*
X6299632Y1709612D01*
X6584504Y1926164D01*
X6597742Y1938706D01*
X5389180Y3147267D01*
X5579870Y3310130D01*
X5742733Y3500820D01*
X6948556Y2294997D01*
X7075964Y2444992D01*
X7075975Y2445006D01*
X7276781Y2741173D01*
X7444393Y3057323D01*
X7444402Y3057341D01*
X7576850Y3389761D01*
X7576852Y3389768D01*
X7672578Y3734543D01*
X7672584Y3734569D01*
X7730472Y4087669D01*
X7730473Y4087686D01*
X7749847Y4444998D01*
X41780153Y4444998D01*
X41799526Y4087686D01*
X41799527Y4087669D01*
X41857415Y3734569D01*
X41857421Y3734543D01*
X41953147Y3389768D01*
X41953149Y3389761D01*
X42085597Y3057341D01*
X42085606Y3057323D01*
X42253218Y2741173D01*
X42454033Y2444993D01*
X42581441Y2294997D01*
X42581442Y2294996D01*
X43787266Y3500820D01*
X43950130Y3310130D01*
X44140818Y3147268D01*
X42932255Y1938705D01*
X42932256Y1938704D01*
X42945485Y1926172D01*
X42945486Y1926171D01*
X43230367Y1709612D01*
X43230370Y1709610D01*
X43536990Y1525124D01*
X43861739Y1374878D01*
X43861744Y1374877D01*
X44200855Y1260617D01*
X44550339Y1183689D01*
X44906075Y1145001D01*
X44906085Y1145000D01*
X45263915Y1145000D01*
X45263924Y1145001D01*
X45619660Y1183689D01*
X45969144Y1260617D01*
X46308255Y1374877D01*
X46308260Y1374878D01*
X46633009Y1525124D01*
X46939629Y1709610D01*
X46939632Y1709612D01*
X47224504Y1926164D01*
X47237742Y1938706D01*
X46029180Y3147267D01*
X46219870Y3310130D01*
X46382733Y3500820D01*
X47588556Y2294997D01*
X47715964Y2444992D01*
X47715975Y2445006D01*
X47916781Y2741173D01*
X48084393Y3057323D01*
X48084402Y3057341D01*
X48216850Y3389761D01*
X48216852Y3389768D01*
X48312578Y3734543D01*
X48312584Y3734569D01*
X48370472Y4087669D01*
X48370473Y4087686D01*
X48389847Y4444998D01*
X48389847Y4445003D01*
X48370473Y4802315D01*
X48370472Y4802332D01*
X48312584Y5155432D01*
X48312578Y5155458D01*
X48216852Y5500233D01*
X48216850Y5500240D01*
X48084402Y5832660D01*
X48084393Y5832678D01*
X47916781Y6148828D01*
X47715966Y6445008D01*
X47588557Y6595005D01*
X47588556Y6595006D01*
X46382732Y5389182D01*
X46219870Y5579870D01*
X46029180Y5742734D01*
X47237743Y6951297D01*
X47237742Y6951298D01*
X47224514Y6963829D01*
X47224513Y6963830D01*
X46939632Y7180389D01*
X46939629Y7180391D01*
X46633009Y7364877D01*
X46308260Y7515123D01*
X46308255Y7515124D01*
X45969144Y7629384D01*
X45619660Y7706312D01*
X45263924Y7745000D01*
X44906075Y7745000D01*
X44550339Y7706312D01*
X44200855Y7629384D01*
X43861744Y7515124D01*
X43861739Y7515123D01*
X43536990Y7364877D01*
X43230370Y7180391D01*
X43230367Y7180389D01*
X42945491Y6963834D01*
X42932256Y6951297D01*
X42932255Y6951297D01*
X44140819Y5742734D01*
X43950130Y5579870D01*
X43787266Y5389182D01*
X42581442Y6595006D01*
X42581441Y6595005D01*
X42454040Y6445017D01*
X42454033Y6445007D01*
X42253218Y6148828D01*
X42085606Y5832678D01*
X42085597Y5832660D01*
X41953149Y5500240D01*
X41953147Y5500233D01*
X41857421Y5155458D01*
X41857415Y5155432D01*
X41799527Y4802332D01*
X41799526Y4802315D01*
X41780153Y4445003D01*
X41780153Y4444998D01*
X7749847Y4444998D01*
X7749847Y4445003D01*
X7730473Y4802315D01*
X7730472Y4802332D01*
X7672584Y5155432D01*
X7672578Y5155458D01*
X7576852Y5500233D01*
X7576850Y5500240D01*
X7444402Y5832660D01*
X7444393Y5832678D01*
X7276781Y6148828D01*
X7075966Y6445008D01*
X6948557Y6595005D01*
X6948556Y6595006D01*
X5742732Y5389182D01*
X5579870Y5579870D01*
X5389180Y5742734D01*
X6597743Y6951297D01*
X6597742Y6951298D01*
X6584514Y6963829D01*
X6584513Y6963830D01*
X6299632Y7180389D01*
X6299629Y7180391D01*
X5993009Y7364877D01*
X5668260Y7515123D01*
X5668255Y7515124D01*
X5329144Y7629384D01*
X4979660Y7706312D01*
X4623924Y7745000D01*
X4266075Y7745000D01*
X3910339Y7706312D01*
X3560855Y7629384D01*
X3221744Y7515124D01*
X3221739Y7515123D01*
X2896990Y7364877D01*
X2590370Y7180391D01*
X2590367Y7180389D01*
X2305491Y6963834D01*
X2292256Y6951297D01*
X2292255Y6951297D01*
X3500819Y5742734D01*
X3310130Y5579870D01*
X3147266Y5389182D01*
X1941442Y6595006D01*
X1941441Y6595005D01*
X1814040Y6445017D01*
X1814033Y6445007D01*
X1613218Y6148828D01*
X1445606Y5832678D01*
X1445597Y5832660D01*
X1313149Y5500240D01*
X1313147Y5500233D01*
X1217421Y5155458D01*
X1217415Y5155432D01*
X1159527Y4802332D01*
X1159526Y4802315D01*
X1140153Y4445003D01*
X1140153Y4444998D01*
X500Y4444998D01*
X500Y17134805D01*
X12704840Y17134805D01*
X12709225Y17088417D01*
X12709500Y17082579D01*
X12709500Y12147745D01*
X12707775Y12132128D01*
X12708061Y12132101D01*
X12707326Y12124335D01*
X12709500Y12055186D01*
X12709500Y12025657D01*
X12709501Y12025640D01*
X12710368Y12018769D01*
X12710826Y12012950D01*
X12712290Y11966376D01*
X12712291Y11966373D01*
X12717880Y11947133D01*
X12721824Y11928089D01*
X12724336Y11908209D01*
X12741490Y11864881D01*
X12743382Y11859353D01*
X12756381Y11814612D01*
X12766580Y11797366D01*
X12775138Y11779897D01*
X12782514Y11761268D01*
X12809898Y11723577D01*
X12813106Y11718693D01*
X12836827Y11678584D01*
X12836833Y11678576D01*
X12850990Y11664420D01*
X12863628Y11649624D01*
X12875405Y11633414D01*
X12875406Y11633413D01*
X12911309Y11603712D01*
X12915620Y11599790D01*
X13242240Y11273170D01*
X14104197Y10411212D01*
X14114022Y10398949D01*
X14114243Y10399131D01*
X14119214Y10393122D01*
X14145217Y10368705D01*
X14169635Y10345774D01*
X14190529Y10324880D01*
X14196011Y10320627D01*
X14200443Y10316843D01*
X14234418Y10284938D01*
X14251976Y10275286D01*
X14268235Y10264605D01*
X14284064Y10252327D01*
X14326838Y10233818D01*
X14332056Y10231262D01*
X14372908Y10208803D01*
X14392316Y10203820D01*
X14410717Y10197520D01*
X14429104Y10189563D01*
X14472488Y10182692D01*
X14475119Y10182275D01*
X14480839Y10181091D01*
X14525981Y10169500D01*
X14546016Y10169500D01*
X14565414Y10167974D01*
X14585194Y10164841D01*
X14585195Y10164840D01*
X14585195Y10164841D01*
X14585196Y10164840D01*
X14631584Y10169225D01*
X14637422Y10169500D01*
X20644548Y10169500D01*
X20711587Y10149815D01*
X20732229Y10133181D01*
X22313070Y8552340D01*
X22346555Y8491017D01*
X22341571Y8421325D01*
X22299699Y8365392D01*
X22234235Y8340975D01*
X22225389Y8340659D01*
X22224999Y8340659D01*
X21989596Y8320064D01*
X21989586Y8320062D01*
X21761344Y8258906D01*
X21761335Y8258902D01*
X21547171Y8159036D01*
X21547169Y8159035D01*
X21353600Y8023497D01*
X21231284Y7901181D01*
X21169961Y7867697D01*
X21100269Y7872681D01*
X21044336Y7914553D01*
X21027421Y7945530D01*
X20978354Y8077087D01*
X20978350Y8077094D01*
X20892190Y8192188D01*
X20892187Y8192191D01*
X20777093Y8278351D01*
X20777086Y8278355D01*
X20642379Y8328597D01*
X20642372Y8328599D01*
X20582844Y8335000D01*
X19935000Y8335000D01*
X19935000Y7420502D01*
X19827315Y7469680D01*
X19720763Y7485000D01*
X19649237Y7485000D01*
X19542685Y7469680D01*
X19435000Y7420502D01*
X19435000Y8335000D01*
X18787155Y8335000D01*
X18727627Y8328599D01*
X18727620Y8328597D01*
X18592913Y8278355D01*
X18592906Y8278351D01*
X18477812Y8192191D01*
X18477809Y8192188D01*
X18391649Y8077094D01*
X18391645Y8077087D01*
X18341403Y7942380D01*
X18341401Y7942373D01*
X18335000Y7882845D01*
X18335000Y7235000D01*
X19251314Y7235000D01*
X19225507Y7194844D01*
X19185000Y7056889D01*
X19185000Y6913111D01*
X19225507Y6775156D01*
X19251314Y6735000D01*
X18335000Y6735000D01*
X18335000Y6087156D01*
X18341401Y6027628D01*
X18341403Y6027621D01*
X18391645Y5892914D01*
X18391649Y5892907D01*
X18477809Y5777813D01*
X18477812Y5777810D01*
X18592906Y5691650D01*
X18592913Y5691646D01*
X18727620Y5641404D01*
X18727627Y5641402D01*
X18787155Y5635001D01*
X18787172Y5635000D01*
X19435000Y5635000D01*
X19435000Y6549499D01*
X19542685Y6500320D01*
X19649237Y6485000D01*
X19720763Y6485000D01*
X19827315Y6500320D01*
X19935000Y6549499D01*
X19935000Y5635000D01*
X20582828Y5635000D01*
X20582844Y5635001D01*
X20642372Y5641402D01*
X20642379Y5641404D01*
X20777086Y5691646D01*
X20777093Y5691650D01*
X20892187Y5777810D01*
X20892190Y5777813D01*
X20978350Y5892907D01*
X20978354Y5892914D01*
X21027422Y6024471D01*
X21069293Y6080405D01*
X21134757Y6104822D01*
X21203030Y6089970D01*
X21231285Y6068819D01*
X21353599Y5946505D01*
X21430135Y5892914D01*
X21547165Y5810968D01*
X21547167Y5810967D01*
X21547170Y5810965D01*
X21761337Y5711097D01*
X21989592Y5649937D01*
X22160319Y5635000D01*
X22224999Y5629341D01*
X22225000Y5629341D01*
X22225001Y5629341D01*
X22289681Y5635000D01*
X22460408Y5649937D01*
X22688663Y5711097D01*
X22902830Y5810965D01*
X23096401Y5946505D01*
X23263495Y6113599D01*
X23393425Y6299158D01*
X23448002Y6342783D01*
X23517500Y6349977D01*
X23579855Y6318454D01*
X23596575Y6299158D01*
X23726500Y6113605D01*
X23726505Y6113599D01*
X23893599Y5946505D01*
X23970135Y5892914D01*
X24087165Y5810968D01*
X24087167Y5810967D01*
X24087170Y5810965D01*
X24301337Y5711097D01*
X24529592Y5649937D01*
X24700319Y5635000D01*
X24764999Y5629341D01*
X24765000Y5629341D01*
X24765001Y5629341D01*
X24829681Y5635000D01*
X25000408Y5649937D01*
X25228663Y5711097D01*
X25442830Y5810965D01*
X25636401Y5946505D01*
X25803495Y6113599D01*
X25933425Y6299158D01*
X25988002Y6342783D01*
X26057500Y6349977D01*
X26119855Y6318454D01*
X26136575Y6299158D01*
X26266500Y6113605D01*
X26266505Y6113599D01*
X26433599Y5946505D01*
X26510135Y5892914D01*
X26627165Y5810968D01*
X26627167Y5810967D01*
X26627170Y5810965D01*
X26841337Y5711097D01*
X27069592Y5649937D01*
X27240319Y5635000D01*
X27304999Y5629341D01*
X27305000Y5629341D01*
X27305001Y5629341D01*
X27369681Y5635000D01*
X27540408Y5649937D01*
X27768663Y5711097D01*
X27982830Y5810965D01*
X28176401Y5946505D01*
X28343495Y6113599D01*
X28479035Y6307170D01*
X28578903Y6521337D01*
X28640063Y6749592D01*
X28660659Y6985000D01*
X28640063Y7220408D01*
X28578903Y7448663D01*
X28551539Y7507344D01*
X28548596Y7514920D01*
X28540614Y7540276D01*
X27942725Y8785063D01*
X27930500Y8838750D01*
X27930500Y11754548D01*
X27950185Y11821587D01*
X27966819Y11842229D01*
X29388342Y13263752D01*
X30822821Y14698232D01*
X30884142Y14731715D01*
X30953834Y14726731D01*
X31009767Y14684859D01*
X31034184Y14619395D01*
X31034500Y14610549D01*
X31034500Y13707130D01*
X31034501Y13707124D01*
X31040908Y13647517D01*
X31091202Y13512672D01*
X31091206Y13512665D01*
X31177452Y13397456D01*
X31177455Y13397453D01*
X31292664Y13311207D01*
X31292671Y13311203D01*
X31427517Y13260909D01*
X31427516Y13260909D01*
X31434444Y13260165D01*
X31487127Y13254500D01*
X33282872Y13254501D01*
X33342483Y13260909D01*
X33477331Y13311204D01*
X33592546Y13397454D01*
X33678796Y13512669D01*
X33729091Y13647517D01*
X33735500Y13707127D01*
X33735499Y15502872D01*
X33729091Y15562483D01*
X33717901Y15592484D01*
X33678797Y15697329D01*
X33678793Y15697336D01*
X33592547Y15812545D01*
X33592544Y15812548D01*
X33477335Y15898794D01*
X33477328Y15898798D01*
X33345917Y15947811D01*
X33289983Y15989682D01*
X33265566Y16055147D01*
X33280418Y16123420D01*
X33301563Y16151668D01*
X33423495Y16273599D01*
X33559035Y16467170D01*
X33658903Y16681337D01*
X33720063Y16909592D01*
X33740659Y17145000D01*
X33720063Y17380408D01*
X33658903Y17608663D01*
X33559035Y17822829D01*
X33538028Y17852831D01*
X33423494Y18016403D01*
X33256402Y18183494D01*
X33256401Y18183495D01*
X33070405Y18313731D01*
X33026781Y18368308D01*
X33019588Y18437807D01*
X33051110Y18500161D01*
X33070405Y18516881D01*
X33256082Y18646895D01*
X33423105Y18813918D01*
X33558600Y19007422D01*
X33658429Y19221508D01*
X33658432Y19221514D01*
X33715636Y19435000D01*
X32818686Y19435000D01*
X32844493Y19475156D01*
X32885000Y19613111D01*
X32885000Y19756889D01*
X32844493Y19894844D01*
X32818686Y19935000D01*
X33715636Y19935000D01*
X33715635Y19935001D01*
X33658432Y20148487D01*
X33658429Y20148493D01*
X33558600Y20362578D01*
X33558599Y20362580D01*
X33423113Y20556074D01*
X33423108Y20556080D01*
X33256078Y20723110D01*
X33070405Y20853121D01*
X33026780Y20907698D01*
X33019588Y20977196D01*
X33051110Y21039551D01*
X33070406Y21056270D01*
X33201630Y21148154D01*
X33256401Y21186505D01*
X33423495Y21353599D01*
X33559035Y21547170D01*
X33658903Y21761337D01*
X33720063Y21989592D01*
X33740659Y22225000D01*
X33720063Y22460408D01*
X33658903Y22688663D01*
X33658900Y22688670D01*
X33658899Y22688673D01*
X33656655Y22693484D01*
X33649897Y22711506D01*
X33430389Y23472096D01*
X33430713Y23541961D01*
X33461844Y23594155D01*
X34038788Y24171099D01*
X34051042Y24180914D01*
X34050859Y24181136D01*
X34056866Y24186108D01*
X34056877Y24186114D01*
X34087775Y24219018D01*
X34104227Y24236536D01*
X34114671Y24246982D01*
X34125120Y24257429D01*
X34129379Y24262922D01*
X34133152Y24267339D01*
X34165062Y24301318D01*
X34174713Y24318876D01*
X34185396Y24335139D01*
X34197673Y24350964D01*
X34216185Y24393747D01*
X34218738Y24398959D01*
X34241197Y24439808D01*
X34246180Y24459220D01*
X34252481Y24477620D01*
X34260437Y24496004D01*
X34267729Y24542048D01*
X34268906Y24547729D01*
X34280500Y24592881D01*
X34280500Y24612917D01*
X34282027Y24632318D01*
X34285160Y24652096D01*
X34280775Y24698485D01*
X34280500Y24704323D01*
X34280500Y31032263D01*
X34282224Y31047877D01*
X34281938Y31047904D01*
X34282672Y31055667D01*
X34280500Y31124797D01*
X34280500Y31154349D01*
X34280500Y31154350D01*
X34279629Y31161241D01*
X34279172Y31167055D01*
X34278278Y31195499D01*
X34277709Y31213627D01*
X34276852Y31216575D01*
X34272122Y31232856D01*
X34268174Y31251916D01*
X34267070Y31260659D01*
X34265664Y31271792D01*
X34248507Y31315125D01*
X34246619Y31320641D01*
X34233619Y31365388D01*
X34223418Y31382637D01*
X34214860Y31400106D01*
X34207486Y31418732D01*
X34207483Y31418736D01*
X34207483Y31418737D01*
X34180098Y31456429D01*
X34176890Y31461313D01*
X34153172Y31501418D01*
X34153171Y31501419D01*
X34153170Y31501421D01*
X34139007Y31515584D01*
X34126367Y31530383D01*
X34125222Y31531959D01*
X34108541Y31563769D01*
X34058198Y31707170D01*
X33664323Y32829121D01*
X33662935Y32833614D01*
X33658903Y32848663D01*
X33654371Y32858382D01*
X33652059Y32864054D01*
X33649113Y32872447D01*
X33646483Y32879342D01*
X33618093Y32940999D01*
X33614768Y32946590D01*
X33614996Y32946727D01*
X33606720Y32960569D01*
X33559035Y33062829D01*
X33559034Y33062831D01*
X33423494Y33256403D01*
X33256402Y33423494D01*
X33256401Y33423495D01*
X33070405Y33553731D01*
X33026781Y33608308D01*
X33019588Y33677807D01*
X33051110Y33740161D01*
X33070405Y33756881D01*
X33256082Y33886895D01*
X33423105Y34053918D01*
X33558600Y34247422D01*
X33658429Y34461508D01*
X33658432Y34461514D01*
X33715636Y34675000D01*
X32818686Y34675000D01*
X32844493Y34715156D01*
X32885000Y34853111D01*
X32885000Y34996889D01*
X32844493Y35134844D01*
X32818686Y35175000D01*
X33715636Y35175000D01*
X33715635Y35175001D01*
X33658432Y35388487D01*
X33658429Y35388493D01*
X33558600Y35602578D01*
X33558599Y35602580D01*
X33423113Y35796074D01*
X33423108Y35796080D01*
X33256078Y35963110D01*
X33070405Y36093121D01*
X33026780Y36147698D01*
X33019588Y36217196D01*
X33051110Y36279551D01*
X33070406Y36296270D01*
X33256401Y36426505D01*
X33423495Y36593599D01*
X33559035Y36787170D01*
X33658903Y37001337D01*
X33720063Y37229592D01*
X33740659Y37465000D01*
X33720063Y37700408D01*
X33658903Y37928663D01*
X33559035Y38142829D01*
X33423495Y38336401D01*
X33423494Y38336403D01*
X33256402Y38503494D01*
X33256396Y38503499D01*
X33070842Y38633425D01*
X33027217Y38688002D01*
X33020023Y38757500D01*
X33051546Y38819855D01*
X33070842Y38836575D01*
X33093026Y38852109D01*
X33256401Y38966505D01*
X33423495Y39133599D01*
X33559035Y39327170D01*
X33658903Y39541337D01*
X33720063Y39769592D01*
X33740659Y40005000D01*
X33720063Y40240408D01*
X33658903Y40468663D01*
X33559035Y40682829D01*
X33423495Y40876401D01*
X33423494Y40876403D01*
X33256402Y41043494D01*
X33256396Y41043499D01*
X33070842Y41173425D01*
X33027217Y41228002D01*
X33020023Y41297500D01*
X33051546Y41359855D01*
X33070842Y41376575D01*
X33093026Y41392109D01*
X33256401Y41506505D01*
X33423495Y41673599D01*
X33559035Y41867170D01*
X33658903Y42081337D01*
X33720063Y42309592D01*
X33740659Y42545000D01*
X33720063Y42780408D01*
X33658903Y43008663D01*
X33559035Y43222829D01*
X33423495Y43416401D01*
X33423494Y43416403D01*
X33256402Y43583494D01*
X33256396Y43583499D01*
X33070842Y43713425D01*
X33027217Y43768002D01*
X33020023Y43837500D01*
X33051546Y43899855D01*
X33070842Y43916575D01*
X33224229Y44023978D01*
X33256401Y44046505D01*
X33423495Y44213599D01*
X33559035Y44407170D01*
X33658903Y44621337D01*
X33720063Y44849592D01*
X33740659Y45085000D01*
X33720063Y45320408D01*
X33658903Y45548663D01*
X33559035Y45762829D01*
X33482228Y45872522D01*
X33423494Y45956403D01*
X33256402Y46123494D01*
X33256401Y46123495D01*
X33070405Y46253731D01*
X33026781Y46308308D01*
X33019588Y46377807D01*
X33051110Y46440161D01*
X33070405Y46456881D01*
X33256082Y46586895D01*
X33423105Y46753918D01*
X33558600Y46947422D01*
X33658429Y47161508D01*
X33658432Y47161514D01*
X33715636Y47375000D01*
X32818686Y47375000D01*
X32844493Y47415156D01*
X32885000Y47553111D01*
X32885000Y47696889D01*
X32844493Y47834844D01*
X32818686Y47875000D01*
X33715636Y47875000D01*
X33715635Y47875001D01*
X33658432Y48088487D01*
X33658429Y48088493D01*
X33558600Y48302578D01*
X33558599Y48302580D01*
X33423113Y48496074D01*
X33423108Y48496080D01*
X33256078Y48663110D01*
X33070405Y48793121D01*
X33026780Y48847698D01*
X33019588Y48917196D01*
X33051110Y48979551D01*
X33070406Y48996270D01*
X33256401Y49126505D01*
X33423495Y49293599D01*
X33559035Y49487170D01*
X33658903Y49701337D01*
X33720063Y49929592D01*
X33740659Y50165000D01*
X33720063Y50400408D01*
X33658903Y50628663D01*
X33559035Y50842829D01*
X33423495Y51036401D01*
X33423494Y51036403D01*
X33256402Y51203494D01*
X33256396Y51203499D01*
X33070842Y51333425D01*
X33027217Y51388002D01*
X33020023Y51457500D01*
X33051546Y51519855D01*
X33070842Y51536575D01*
X33093026Y51552109D01*
X33256401Y51666505D01*
X33423495Y51833599D01*
X33559035Y52027170D01*
X33658903Y52241337D01*
X33720063Y52469592D01*
X33740659Y52705000D01*
X33720063Y52940408D01*
X33658903Y53168663D01*
X33559035Y53382829D01*
X33423495Y53576401D01*
X33423494Y53576403D01*
X33256402Y53743494D01*
X33256401Y53743495D01*
X33117264Y53840920D01*
X33073640Y53895497D01*
X33066447Y53964996D01*
X33097969Y54027350D01*
X33154002Y54061632D01*
X33632091Y54199611D01*
X33701960Y54199287D01*
X33754156Y54168154D01*
X40681097Y47241212D01*
X40690922Y47228949D01*
X40691143Y47229131D01*
X40696114Y47223122D01*
X40714371Y47205978D01*
X40746535Y47175774D01*
X40767429Y47154880D01*
X40772911Y47150627D01*
X40777343Y47146843D01*
X40811318Y47114938D01*
X40828876Y47105286D01*
X40845135Y47094605D01*
X40860964Y47082327D01*
X40903738Y47063818D01*
X40908956Y47061262D01*
X40949808Y47038803D01*
X40969216Y47033820D01*
X40987617Y47027520D01*
X41006004Y47019563D01*
X41043633Y47013604D01*
X41080832Y47001460D01*
X41925416Y46568173D01*
X41931339Y46564603D01*
X41932414Y46563983D01*
X41932419Y46563979D01*
X41945298Y46557974D01*
X42036438Y46511217D01*
X42043554Y46507919D01*
X42046459Y46506572D01*
X42065915Y46499240D01*
X42091573Y46489570D01*
X42095864Y46487763D01*
X42125970Y46473724D01*
X42125979Y46473722D01*
X42131050Y46471876D01*
X42130276Y46469751D01*
X42181681Y46438442D01*
X42212231Y46375606D01*
X42203960Y46306227D01*
X42159493Y46252334D01*
X42130686Y46239167D01*
X42131064Y46238130D01*
X42125972Y46236277D01*
X42125970Y46236276D01*
X42125968Y46236275D01*
X41932421Y46146023D01*
X41757478Y46023528D01*
X41606472Y45872522D01*
X41483977Y45697579D01*
X41393725Y45504032D01*
X41393721Y45504023D01*
X41338452Y45297753D01*
X41338450Y45297742D01*
X41319838Y45085002D01*
X41319838Y45084999D01*
X41338450Y44872259D01*
X41338452Y44872248D01*
X41393721Y44665978D01*
X41393723Y44665974D01*
X41393724Y44665970D01*
X41436171Y44574942D01*
X41483977Y44472422D01*
X41606472Y44297479D01*
X41757478Y44146473D01*
X41757481Y44146471D01*
X41932419Y44023979D01*
X41932421Y44023978D01*
X41932420Y44023978D01*
X41996936Y43993894D01*
X42125970Y43933724D01*
X42332253Y43878451D01*
X42484215Y43865156D01*
X42544998Y43859838D01*
X42545000Y43859838D01*
X42545002Y43859838D01*
X42598186Y43864492D01*
X42757747Y43878451D01*
X42964030Y43933724D01*
X43157581Y44023979D01*
X43332519Y44146471D01*
X43483529Y44297481D01*
X43606021Y44472419D01*
X43696276Y44665970D01*
X43751549Y44872253D01*
X43770162Y45085000D01*
X43751549Y45297747D01*
X43696276Y45504030D01*
X43606021Y45697581D01*
X43483529Y45872519D01*
X43483527Y45872522D01*
X43332521Y46023528D01*
X43157578Y46146023D01*
X43157579Y46146023D01*
X43028547Y46206191D01*
X42964030Y46236276D01*
X42964023Y46236278D01*
X42958936Y46238130D01*
X42959709Y46240254D01*
X42908305Y46271576D01*
X42877766Y46334419D01*
X42886050Y46403796D01*
X42930528Y46457680D01*
X42959315Y46470828D01*
X42958936Y46471870D01*
X42964013Y46473720D01*
X42964030Y46473724D01*
X43157581Y46563979D01*
X43332519Y46686471D01*
X43483529Y46837481D01*
X43606021Y47012419D01*
X43696276Y47205970D01*
X43751549Y47412253D01*
X43770162Y47625000D01*
X43751549Y47837747D01*
X43696276Y48044030D01*
X43606021Y48237581D01*
X43483529Y48412519D01*
X43483527Y48412522D01*
X43332521Y48563528D01*
X43157578Y48686023D01*
X43157579Y48686023D01*
X43021946Y48749269D01*
X42964030Y48776276D01*
X42964023Y48776278D01*
X42958936Y48778130D01*
X42959606Y48779972D01*
X42907293Y48811886D01*
X42876789Y48874745D01*
X42885111Y48944117D01*
X42929617Y48997978D01*
X42959097Y49011426D01*
X42958764Y49012342D01*
X42963859Y49014198D01*
X43157330Y49104414D01*
X43157336Y49104418D01*
X43213031Y49143416D01*
X42589401Y49767047D01*
X42670148Y49779835D01*
X42783045Y49837359D01*
X42872641Y49926955D01*
X42930165Y50039852D01*
X42942953Y50120600D01*
X43566584Y49496969D01*
X43605582Y49552664D01*
X43605586Y49552670D01*
X43695802Y49746141D01*
X43695805Y49746147D01*
X43751054Y49952338D01*
X43751055Y49952346D01*
X43769660Y50164998D01*
X43769660Y50165003D01*
X43751055Y50377655D01*
X43751054Y50377663D01*
X43695805Y50583854D01*
X43695802Y50583860D01*
X43605586Y50777330D01*
X43566583Y50833033D01*
X42942953Y50209402D01*
X42930165Y50290148D01*
X42872641Y50403045D01*
X42783045Y50492641D01*
X42670148Y50550165D01*
X42589401Y50562954D01*
X43213031Y51186584D01*
X43213030Y51186585D01*
X43157330Y51225587D01*
X43157328Y51225588D01*
X42963859Y51315803D01*
X42963853Y51315806D01*
X42757662Y51371055D01*
X42757654Y51371056D01*
X42545002Y51389660D01*
X42544998Y51389660D01*
X42332345Y51371056D01*
X42332337Y51371055D01*
X42126146Y51315806D01*
X42126140Y51315803D01*
X41932667Y51225586D01*
X41876967Y51186586D01*
X42500599Y50562954D01*
X42419852Y50550165D01*
X42306955Y50492641D01*
X42217359Y50403045D01*
X42159835Y50290148D01*
X42147046Y50209401D01*
X41523414Y50833033D01*
X41484414Y50777333D01*
X41394197Y50583860D01*
X41394194Y50583854D01*
X41338945Y50377663D01*
X41338944Y50377655D01*
X41320340Y50165003D01*
X41320340Y50164998D01*
X41338944Y49952346D01*
X41338945Y49952338D01*
X41394194Y49746147D01*
X41394197Y49746141D01*
X41484412Y49552672D01*
X41484413Y49552670D01*
X41523415Y49496970D01*
X41523416Y49496969D01*
X42147046Y50120600D01*
X42159835Y50039852D01*
X42217359Y49926955D01*
X42306955Y49837359D01*
X42419852Y49779835D01*
X42500599Y49767047D01*
X41876967Y49143417D01*
X41932670Y49104414D01*
X42126140Y49014198D01*
X42131236Y49012342D01*
X42130542Y49010437D01*
X42182647Y48978698D01*
X42213196Y48915861D01*
X42204922Y48846482D01*
X42160454Y48792591D01*
X42130747Y48779010D01*
X42131067Y48778132D01*
X42125979Y48776280D01*
X42125970Y48776277D01*
X42125970Y48776276D01*
X42068049Y48749268D01*
X42061210Y48746560D01*
X42052887Y48743825D01*
X42033690Y48737515D01*
X42033686Y48737513D01*
X41391684Y48419164D01*
X41322878Y48407017D01*
X41258428Y48433998D01*
X41248916Y48442575D01*
X34365214Y55326277D01*
X34362504Y55329165D01*
X34338690Y55356234D01*
X34317118Y55374644D01*
X34313551Y55377940D01*
X34062703Y55628788D01*
X34052880Y55641050D01*
X34052659Y55640866D01*
X34047686Y55646877D01*
X33997264Y55694227D01*
X33982826Y55708665D01*
X33976375Y55715117D01*
X33970886Y55719375D01*
X33966461Y55723153D01*
X33932482Y55755062D01*
X33932480Y55755064D01*
X33932477Y55755065D01*
X33914929Y55764712D01*
X33898663Y55775396D01*
X33882834Y55787675D01*
X33853046Y55800565D01*
X33840060Y55806185D01*
X33834830Y55808747D01*
X33810046Y55822371D01*
X33793989Y55831199D01*
X33791056Y55832360D01*
X33756207Y55853330D01*
X33322401Y56223545D01*
X33295894Y56244672D01*
X33295895Y56244672D01*
X33295321Y56245129D01*
X33290120Y56249776D01*
X33256402Y56283494D01*
X33256401Y56283495D01*
X33076179Y56409688D01*
X33032555Y56464265D01*
X33025362Y56533764D01*
X33056884Y56596118D01*
X33093616Y56623038D01*
X33350665Y56746502D01*
X34185062Y57147275D01*
X34238749Y57159500D01*
X37382257Y57159500D01*
X37397877Y57157776D01*
X37397904Y57158061D01*
X37405660Y57157329D01*
X37405667Y57157327D01*
X37474814Y57159500D01*
X37504350Y57159500D01*
X37511228Y57160370D01*
X37517041Y57160828D01*
X37563627Y57162291D01*
X37582869Y57167883D01*
X37601912Y57171826D01*
X37621792Y57174336D01*
X37665122Y57191493D01*
X37670646Y57193383D01*
X37674396Y57194473D01*
X37715390Y57206382D01*
X37732629Y57216578D01*
X37750103Y57225138D01*
X37768727Y57232512D01*
X37768727Y57232513D01*
X37768732Y57232514D01*
X37806449Y57259918D01*
X37811305Y57263108D01*
X37851420Y57286830D01*
X37865589Y57301001D01*
X37880379Y57313632D01*
X37896587Y57325406D01*
X37926299Y57361324D01*
X37930212Y57365624D01*
X41120188Y60555600D01*
X41181510Y60589083D01*
X41251202Y60584099D01*
X41307135Y60542227D01*
X41331552Y60476763D01*
X41331396Y60457110D01*
X41319838Y60325002D01*
X41319838Y60324999D01*
X41338450Y60112259D01*
X41338452Y60112248D01*
X41393721Y59905978D01*
X41393723Y59905974D01*
X41393724Y59905970D01*
X41414457Y59861508D01*
X41483977Y59712422D01*
X41606472Y59537479D01*
X41757478Y59386473D01*
X41757481Y59386471D01*
X41932419Y59263979D01*
X41932421Y59263978D01*
X41932420Y59263978D01*
X41996936Y59233894D01*
X42125970Y59173724D01*
X42332253Y59118451D01*
X42484215Y59105156D01*
X42544998Y59099838D01*
X42545000Y59099838D01*
X42545002Y59099838D01*
X42598186Y59104492D01*
X42757747Y59118451D01*
X42964030Y59173724D01*
X43157581Y59263979D01*
X43332519Y59386471D01*
X43483529Y59537481D01*
X43606021Y59712419D01*
X43696276Y59905970D01*
X43751549Y60112253D01*
X43770162Y60325000D01*
X43751549Y60537747D01*
X43696276Y60744030D01*
X43606021Y60937581D01*
X43483529Y61112519D01*
X43483527Y61112522D01*
X43332521Y61263528D01*
X43157578Y61386023D01*
X43157579Y61386023D01*
X43028547Y61446191D01*
X42964030Y61476276D01*
X42964023Y61476278D01*
X42958936Y61478130D01*
X42959707Y61480251D01*
X42908290Y61511594D01*
X42877763Y61574442D01*
X42886061Y61643817D01*
X42930548Y61697693D01*
X42959307Y61710821D01*
X42958927Y61711866D01*
X42964019Y61713720D01*
X42964024Y61713723D01*
X42964030Y61713724D01*
X42964657Y61714017D01*
X42969538Y61716046D01*
X42987400Y61722586D01*
X42989395Y61723360D01*
X42992291Y61724482D01*
X42992290Y61724482D01*
X43004520Y61730155D01*
X43051233Y61751817D01*
X43051237Y61751821D01*
X43051239Y61751821D01*
X43056757Y61755111D01*
X43056822Y61755002D01*
X43071956Y61764053D01*
X43157581Y61803979D01*
X43332519Y61926471D01*
X43483529Y62077481D01*
X43606021Y62252419D01*
X43696276Y62445970D01*
X43751549Y62652253D01*
X43770162Y62865000D01*
X43751549Y63077747D01*
X43696276Y63284030D01*
X43606021Y63477581D01*
X43483529Y63652519D01*
X43483527Y63652522D01*
X43332521Y63803528D01*
X43157578Y63926023D01*
X43157579Y63926023D01*
X43028547Y63986191D01*
X42964030Y64016276D01*
X42964023Y64016278D01*
X42958936Y64018130D01*
X42959606Y64019972D01*
X42907293Y64051886D01*
X42876789Y64114745D01*
X42885111Y64184117D01*
X42929617Y64237978D01*
X42959097Y64251426D01*
X42958764Y64252342D01*
X42963859Y64254198D01*
X43157330Y64344414D01*
X43157336Y64344418D01*
X43213031Y64383416D01*
X42589401Y65007047D01*
X42670148Y65019835D01*
X42783045Y65077359D01*
X42872641Y65166955D01*
X42930165Y65279852D01*
X42942953Y65360600D01*
X43566584Y64736969D01*
X43605582Y64792664D01*
X43605586Y64792670D01*
X43695802Y64986141D01*
X43695805Y64986147D01*
X43751054Y65192338D01*
X43751055Y65192346D01*
X43769660Y65404998D01*
X43769660Y65405003D01*
X43751055Y65617655D01*
X43751054Y65617663D01*
X43695805Y65823854D01*
X43695802Y65823860D01*
X43605586Y66017330D01*
X43566583Y66073033D01*
X42942953Y65449402D01*
X42930165Y65530148D01*
X42872641Y65643045D01*
X42783045Y65732641D01*
X42670148Y65790165D01*
X42589401Y65802954D01*
X43213031Y66426584D01*
X43213030Y66426585D01*
X43157330Y66465587D01*
X43157328Y66465588D01*
X42963859Y66555803D01*
X42963853Y66555806D01*
X42757662Y66611055D01*
X42757654Y66611056D01*
X42545002Y66629660D01*
X42544998Y66629660D01*
X42332345Y66611056D01*
X42332337Y66611055D01*
X42126146Y66555806D01*
X42126140Y66555803D01*
X41932667Y66465586D01*
X41876967Y66426586D01*
X42500599Y65802954D01*
X42419852Y65790165D01*
X42306955Y65732641D01*
X42217359Y65643045D01*
X42159835Y65530148D01*
X42147046Y65449401D01*
X41523414Y66073033D01*
X41484414Y66017333D01*
X41394197Y65823860D01*
X41394194Y65823854D01*
X41338945Y65617663D01*
X41338944Y65617655D01*
X41320340Y65405003D01*
X41320340Y65404998D01*
X41338944Y65192346D01*
X41338945Y65192338D01*
X41394194Y64986147D01*
X41394197Y64986141D01*
X41484412Y64792672D01*
X41484413Y64792670D01*
X41523415Y64736970D01*
X41523416Y64736969D01*
X42147046Y65360600D01*
X42159835Y65279852D01*
X42217359Y65166955D01*
X42306955Y65077359D01*
X42419852Y65019835D01*
X42500599Y65007047D01*
X41876967Y64383417D01*
X41932670Y64344414D01*
X42126140Y64254198D01*
X42131236Y64252342D01*
X42130542Y64250437D01*
X42182647Y64218698D01*
X42213196Y64155861D01*
X42204922Y64086482D01*
X42160454Y64032591D01*
X42130744Y64019009D01*
X42131064Y64018130D01*
X42125972Y64016277D01*
X42125970Y64016276D01*
X42125968Y64016275D01*
X41932421Y63926023D01*
X41757478Y63803528D01*
X41606472Y63652522D01*
X41483979Y63477583D01*
X41483977Y63477580D01*
X41413572Y63326600D01*
X41411976Y63323419D01*
X41400948Y63302931D01*
X41396041Y63289535D01*
X41394025Y63284679D01*
X41393727Y63284041D01*
X41393721Y63284024D01*
X41393608Y63283601D01*
X41391947Y63278358D01*
X41007385Y62228260D01*
X40978628Y62183220D01*
X37242228Y58446819D01*
X37180905Y58413334D01*
X37154547Y58410500D01*
X34238749Y58410500D01*
X34185062Y58422725D01*
X33093098Y58947212D01*
X33041190Y58993981D01*
X33022808Y59061390D01*
X33043788Y59128035D01*
X33075662Y59160562D01*
X33256079Y59286892D01*
X33423105Y59453918D01*
X33558600Y59647422D01*
X33658429Y59861508D01*
X33658432Y59861514D01*
X33715636Y60075000D01*
X32818686Y60075000D01*
X32844493Y60115156D01*
X32885000Y60253111D01*
X32885000Y60396889D01*
X32844493Y60534844D01*
X32818686Y60575000D01*
X33715636Y60575000D01*
X33715635Y60575001D01*
X33658432Y60788487D01*
X33658429Y60788493D01*
X33558600Y61002578D01*
X33558599Y61002580D01*
X33423113Y61196074D01*
X33423108Y61196080D01*
X33256078Y61363110D01*
X33070405Y61493121D01*
X33026780Y61547698D01*
X33019588Y61617196D01*
X33051110Y61679551D01*
X33070406Y61696270D01*
X33256401Y61826505D01*
X33423495Y61993599D01*
X33559035Y62187170D01*
X33658903Y62401337D01*
X33720063Y62629592D01*
X33740659Y62865000D01*
X33720063Y63100408D01*
X33658903Y63328663D01*
X33559035Y63542829D01*
X33482228Y63652522D01*
X33423494Y63736403D01*
X33256402Y63903494D01*
X33256396Y63903499D01*
X33070842Y64033425D01*
X33027217Y64088002D01*
X33020023Y64157500D01*
X33051546Y64219855D01*
X33070842Y64236575D01*
X33096010Y64254198D01*
X33256401Y64366505D01*
X33423495Y64533599D01*
X33559035Y64727170D01*
X33658903Y64941337D01*
X33720063Y65169592D01*
X33740659Y65405000D01*
X33720063Y65640408D01*
X33658903Y65868663D01*
X33559035Y66082829D01*
X33423495Y66276401D01*
X33423494Y66276403D01*
X33256402Y66443494D01*
X33256396Y66443499D01*
X33070842Y66573425D01*
X33027217Y66628002D01*
X33020023Y66697500D01*
X33051546Y66759855D01*
X33070842Y66776575D01*
X33093026Y66792109D01*
X33256401Y66906505D01*
X33423495Y67073599D01*
X33559035Y67267170D01*
X33658903Y67481337D01*
X33720063Y67709592D01*
X33740659Y67945000D01*
X33720063Y68180408D01*
X33658903Y68408663D01*
X33559035Y68622829D01*
X33423495Y68816401D01*
X33423494Y68816403D01*
X33256402Y68983494D01*
X33256396Y68983499D01*
X33070842Y69113425D01*
X33027217Y69168002D01*
X33020023Y69237500D01*
X33051546Y69299855D01*
X33070842Y69316575D01*
X33093026Y69332109D01*
X33256401Y69446505D01*
X33423495Y69613599D01*
X33559035Y69807170D01*
X33658903Y70021337D01*
X33720063Y70249592D01*
X33740659Y70485000D01*
X33720063Y70720408D01*
X33658903Y70948663D01*
X33559035Y71162829D01*
X33423495Y71356401D01*
X33423494Y71356403D01*
X33256402Y71523494D01*
X33256401Y71523495D01*
X33070405Y71653731D01*
X33026781Y71708308D01*
X33019588Y71777807D01*
X33051110Y71840161D01*
X33070405Y71856881D01*
X33256082Y71986895D01*
X33423105Y72153918D01*
X33558600Y72347422D01*
X33658429Y72561508D01*
X33658432Y72561514D01*
X33715636Y72775000D01*
X32818686Y72775000D01*
X32844493Y72815156D01*
X32885000Y72953111D01*
X32885000Y73096889D01*
X32844493Y73234844D01*
X32818686Y73275000D01*
X33715636Y73275000D01*
X33715635Y73275001D01*
X33658432Y73488487D01*
X33658429Y73488493D01*
X33558600Y73702578D01*
X33558599Y73702580D01*
X33423113Y73896074D01*
X33423108Y73896080D01*
X33256078Y74063110D01*
X33070405Y74193121D01*
X33026780Y74247698D01*
X33019588Y74317196D01*
X33051110Y74379551D01*
X33070406Y74396270D01*
X33256401Y74526505D01*
X33423495Y74693599D01*
X33559035Y74887170D01*
X33658903Y75101337D01*
X33720063Y75329592D01*
X33740659Y75565000D01*
X33720063Y75800408D01*
X33658903Y76028663D01*
X33559035Y76242829D01*
X33423495Y76436401D01*
X33423494Y76436403D01*
X33256402Y76603494D01*
X33256396Y76603499D01*
X33070842Y76733425D01*
X33027217Y76788002D01*
X33020023Y76857500D01*
X33051546Y76919855D01*
X33070842Y76936575D01*
X33093026Y76952109D01*
X33256401Y77066505D01*
X33423495Y77233599D01*
X33559035Y77427170D01*
X33658903Y77641337D01*
X33720063Y77869592D01*
X33740659Y78105000D01*
X33720063Y78340408D01*
X33658903Y78568663D01*
X33559035Y78782829D01*
X33423495Y78976401D01*
X33423494Y78976403D01*
X33256402Y79143494D01*
X33256395Y79143499D01*
X33062834Y79279033D01*
X33062830Y79279035D01*
X33062828Y79279036D01*
X32848663Y79378903D01*
X32848659Y79378904D01*
X32848655Y79378906D01*
X32620413Y79440062D01*
X32620403Y79440064D01*
X32385001Y79460659D01*
X32384999Y79460659D01*
X32149596Y79440064D01*
X32149586Y79440062D01*
X31921344Y79378906D01*
X31921335Y79378902D01*
X31707171Y79279036D01*
X31707169Y79279035D01*
X31513597Y79143495D01*
X31346505Y78976403D01*
X31210965Y78782831D01*
X31210964Y78782829D01*
X31111098Y78568665D01*
X31111094Y78568656D01*
X31049938Y78340414D01*
X31049936Y78340404D01*
X31029341Y78105001D01*
X31029341Y78105000D01*
X31049936Y77869597D01*
X31049938Y77869587D01*
X31111094Y77641345D01*
X31111096Y77641341D01*
X31111097Y77641337D01*
X31142088Y77574877D01*
X31210965Y77427170D01*
X31210967Y77427166D01*
X31346501Y77233605D01*
X31346506Y77233598D01*
X31513597Y77066507D01*
X31513603Y77066502D01*
X31699158Y76936575D01*
X31742783Y76881998D01*
X31749977Y76812500D01*
X31718454Y76750145D01*
X31699158Y76733425D01*
X31513597Y76603495D01*
X31346505Y76436403D01*
X31210965Y76242831D01*
X31210964Y76242829D01*
X31111098Y76028665D01*
X31111094Y76028656D01*
X31049938Y75800414D01*
X31049936Y75800404D01*
X31029341Y75565001D01*
X31029341Y75565000D01*
X31049936Y75329597D01*
X31049938Y75329587D01*
X31111094Y75101345D01*
X31111096Y75101341D01*
X31111097Y75101337D01*
X31210965Y74887170D01*
X31210967Y74887166D01*
X31346501Y74693605D01*
X31346506Y74693598D01*
X31513597Y74526507D01*
X31513603Y74526502D01*
X31699594Y74396270D01*
X31743219Y74341693D01*
X31750413Y74272195D01*
X31718890Y74209840D01*
X31699595Y74193120D01*
X31513922Y74063110D01*
X31513920Y74063109D01*
X31346891Y73896080D01*
X31346886Y73896074D01*
X31211400Y73702580D01*
X31211399Y73702578D01*
X31111570Y73488493D01*
X31111567Y73488487D01*
X31054364Y73275001D01*
X31054364Y73275000D01*
X31951314Y73275000D01*
X31925507Y73234844D01*
X31885000Y73096889D01*
X31885000Y72953111D01*
X31925507Y72815156D01*
X31951314Y72775000D01*
X31054364Y72775000D01*
X31111567Y72561514D01*
X31111570Y72561508D01*
X31211399Y72347422D01*
X31346894Y72153918D01*
X31513917Y71986895D01*
X31699595Y71856881D01*
X31743219Y71802304D01*
X31750412Y71732805D01*
X31718890Y71670451D01*
X31699595Y71653731D01*
X31513594Y71523492D01*
X31346505Y71356403D01*
X31210965Y71162831D01*
X31210964Y71162829D01*
X31111098Y70948665D01*
X31111094Y70948656D01*
X31049938Y70720414D01*
X31049936Y70720404D01*
X31029341Y70485001D01*
X31029341Y70485000D01*
X31049936Y70249597D01*
X31049938Y70249587D01*
X31111094Y70021345D01*
X31111096Y70021341D01*
X31111097Y70021337D01*
X31210965Y69807170D01*
X31210967Y69807166D01*
X31346501Y69613605D01*
X31346506Y69613598D01*
X31513597Y69446507D01*
X31513603Y69446502D01*
X31699158Y69316575D01*
X31742783Y69261998D01*
X31749977Y69192500D01*
X31718454Y69130145D01*
X31699158Y69113425D01*
X31513597Y68983495D01*
X31346505Y68816403D01*
X31210965Y68622831D01*
X31210964Y68622829D01*
X31111098Y68408665D01*
X31111094Y68408656D01*
X31049938Y68180414D01*
X31049936Y68180404D01*
X31029341Y67945001D01*
X31029341Y67945000D01*
X31049936Y67709597D01*
X31049938Y67709587D01*
X31111094Y67481345D01*
X31111096Y67481341D01*
X31111097Y67481337D01*
X31210965Y67267170D01*
X31210967Y67267166D01*
X31346501Y67073605D01*
X31346506Y67073598D01*
X31513597Y66906507D01*
X31513603Y66906502D01*
X31699158Y66776575D01*
X31742783Y66721998D01*
X31749977Y66652500D01*
X31718454Y66590145D01*
X31699158Y66573425D01*
X31513597Y66443495D01*
X31346505Y66276403D01*
X31210965Y66082831D01*
X31210964Y66082829D01*
X31111098Y65868665D01*
X31111094Y65868656D01*
X31049938Y65640414D01*
X31049936Y65640404D01*
X31029341Y65405001D01*
X31029341Y65405000D01*
X31049936Y65169597D01*
X31049938Y65169587D01*
X31111094Y64941345D01*
X31111096Y64941341D01*
X31111097Y64941337D01*
X31180421Y64792672D01*
X31210965Y64727170D01*
X31210967Y64727166D01*
X31346501Y64533605D01*
X31346506Y64533598D01*
X31513597Y64366507D01*
X31513603Y64366502D01*
X31699158Y64236575D01*
X31742783Y64181998D01*
X31749977Y64112500D01*
X31718454Y64050145D01*
X31699158Y64033425D01*
X31513597Y63903495D01*
X31346505Y63736403D01*
X31210965Y63542831D01*
X31210964Y63542829D01*
X31111098Y63328665D01*
X31111094Y63328656D01*
X31049938Y63100414D01*
X31049936Y63100404D01*
X31029341Y62865001D01*
X31029341Y62865000D01*
X31049936Y62629597D01*
X31049938Y62629587D01*
X31111094Y62401345D01*
X31111096Y62401341D01*
X31111097Y62401337D01*
X31180539Y62252419D01*
X31210965Y62187170D01*
X31210967Y62187166D01*
X31319281Y62032479D01*
X31346505Y61993599D01*
X31513599Y61826505D01*
X31697561Y61697693D01*
X31699594Y61696270D01*
X31743219Y61641693D01*
X31750413Y61572195D01*
X31718890Y61509840D01*
X31699595Y61493120D01*
X31513922Y61363110D01*
X31513920Y61363109D01*
X31346891Y61196080D01*
X31346886Y61196074D01*
X31211400Y61002580D01*
X31211399Y61002578D01*
X31111570Y60788493D01*
X31111567Y60788487D01*
X31054364Y60575001D01*
X31054364Y60575000D01*
X31951314Y60575000D01*
X31925507Y60534844D01*
X31885000Y60396889D01*
X31885000Y60253111D01*
X31925507Y60115156D01*
X31951314Y60075000D01*
X31054364Y60075000D01*
X31111567Y59861514D01*
X31111570Y59861508D01*
X31211399Y59647422D01*
X31346894Y59453918D01*
X31513917Y59286895D01*
X31699595Y59156881D01*
X31743219Y59102304D01*
X31750412Y59032805D01*
X31718890Y58970451D01*
X31699595Y58953731D01*
X31513594Y58823492D01*
X31346505Y58656403D01*
X31210965Y58462831D01*
X31210964Y58462829D01*
X31111098Y58248665D01*
X31111094Y58248656D01*
X31049938Y58020414D01*
X31049936Y58020404D01*
X31029341Y57785001D01*
X31029341Y57785000D01*
X31049936Y57549597D01*
X31049938Y57549587D01*
X31111094Y57321345D01*
X31111096Y57321341D01*
X31111097Y57321337D01*
X31157630Y57221547D01*
X31210965Y57107170D01*
X31210967Y57107166D01*
X31346501Y56913605D01*
X31346506Y56913598D01*
X31513597Y56746507D01*
X31513603Y56746502D01*
X31699158Y56616575D01*
X31742783Y56561998D01*
X31749977Y56492500D01*
X31718454Y56430145D01*
X31699158Y56413425D01*
X31513597Y56283495D01*
X31346505Y56116403D01*
X31210965Y55922831D01*
X31210964Y55922829D01*
X31111098Y55708665D01*
X31111094Y55708656D01*
X31049938Y55480414D01*
X31049936Y55480404D01*
X31029341Y55245001D01*
X31029341Y55245000D01*
X31049936Y55009597D01*
X31049938Y55009587D01*
X31111094Y54781345D01*
X31111096Y54781341D01*
X31111097Y54781337D01*
X31210965Y54567170D01*
X31210967Y54567166D01*
X31346501Y54373605D01*
X31346506Y54373598D01*
X31513597Y54206507D01*
X31513603Y54206502D01*
X31699158Y54076575D01*
X31742783Y54021998D01*
X31749977Y53952500D01*
X31718454Y53890145D01*
X31699158Y53873425D01*
X31513597Y53743495D01*
X31346505Y53576403D01*
X31210965Y53382831D01*
X31210964Y53382829D01*
X31111098Y53168665D01*
X31111094Y53168656D01*
X31049938Y52940414D01*
X31049936Y52940404D01*
X31029341Y52705001D01*
X31029341Y52705000D01*
X31049936Y52469597D01*
X31049938Y52469587D01*
X31111094Y52241345D01*
X31111096Y52241341D01*
X31111097Y52241337D01*
X31210965Y52027170D01*
X31210967Y52027166D01*
X31346501Y51833605D01*
X31346506Y51833598D01*
X31513597Y51666507D01*
X31513603Y51666502D01*
X31699158Y51536575D01*
X31742783Y51481998D01*
X31749977Y51412500D01*
X31718454Y51350145D01*
X31699158Y51333425D01*
X31513597Y51203495D01*
X31346505Y51036403D01*
X31210965Y50842831D01*
X31210964Y50842829D01*
X31111098Y50628665D01*
X31111094Y50628656D01*
X31049938Y50400414D01*
X31049936Y50400404D01*
X31029341Y50165001D01*
X31029341Y50165000D01*
X31049936Y49929597D01*
X31049938Y49929587D01*
X31111094Y49701345D01*
X31111096Y49701341D01*
X31111097Y49701337D01*
X31180421Y49552672D01*
X31210965Y49487170D01*
X31210967Y49487166D01*
X31319281Y49332479D01*
X31346505Y49293599D01*
X31513599Y49126505D01*
X31697154Y48997978D01*
X31699594Y48996270D01*
X31743219Y48941693D01*
X31750413Y48872195D01*
X31718890Y48809840D01*
X31699595Y48793120D01*
X31513922Y48663110D01*
X31513920Y48663109D01*
X31346891Y48496080D01*
X31346886Y48496074D01*
X31211400Y48302580D01*
X31211399Y48302578D01*
X31111570Y48088493D01*
X31111567Y48088487D01*
X31054364Y47875001D01*
X31054364Y47875000D01*
X31951314Y47875000D01*
X31925507Y47834844D01*
X31885000Y47696889D01*
X31885000Y47553111D01*
X31925507Y47415156D01*
X31951314Y47375000D01*
X31054364Y47375000D01*
X31111567Y47161514D01*
X31111570Y47161508D01*
X31211399Y46947422D01*
X31346894Y46753918D01*
X31513917Y46586895D01*
X31699595Y46456881D01*
X31743219Y46402304D01*
X31750412Y46332805D01*
X31718890Y46270451D01*
X31699595Y46253731D01*
X31513594Y46123492D01*
X31346505Y45956403D01*
X31210965Y45762831D01*
X31210964Y45762829D01*
X31111098Y45548665D01*
X31111094Y45548656D01*
X31049938Y45320414D01*
X31049936Y45320404D01*
X31029341Y45085001D01*
X31029341Y45085000D01*
X31049936Y44849597D01*
X31049938Y44849587D01*
X31111094Y44621345D01*
X31111096Y44621341D01*
X31111097Y44621337D01*
X31180539Y44472419D01*
X31210965Y44407170D01*
X31210967Y44407166D01*
X31346501Y44213605D01*
X31346506Y44213598D01*
X31513597Y44046507D01*
X31513603Y44046502D01*
X31699158Y43916575D01*
X31742783Y43861998D01*
X31749977Y43792500D01*
X31718454Y43730145D01*
X31699158Y43713425D01*
X31513597Y43583495D01*
X31346505Y43416403D01*
X31210965Y43222831D01*
X31210964Y43222829D01*
X31111098Y43008665D01*
X31111094Y43008656D01*
X31049938Y42780414D01*
X31049936Y42780404D01*
X31029341Y42545001D01*
X31029341Y42545000D01*
X31049936Y42309597D01*
X31049938Y42309587D01*
X31111094Y42081345D01*
X31111096Y42081341D01*
X31111097Y42081337D01*
X31210965Y41867170D01*
X31210967Y41867166D01*
X31346501Y41673605D01*
X31346506Y41673598D01*
X31513597Y41506507D01*
X31513603Y41506502D01*
X31699158Y41376575D01*
X31742783Y41321998D01*
X31749977Y41252500D01*
X31718454Y41190145D01*
X31699158Y41173425D01*
X31513597Y41043495D01*
X31346505Y40876403D01*
X31210965Y40682831D01*
X31210964Y40682829D01*
X31111098Y40468665D01*
X31111094Y40468656D01*
X31049938Y40240414D01*
X31049936Y40240404D01*
X31029341Y40005001D01*
X31029341Y40005000D01*
X31049936Y39769597D01*
X31049938Y39769587D01*
X31111094Y39541345D01*
X31111096Y39541341D01*
X31111097Y39541337D01*
X31210965Y39327170D01*
X31210967Y39327166D01*
X31346501Y39133605D01*
X31346506Y39133598D01*
X31513597Y38966507D01*
X31513603Y38966502D01*
X31699158Y38836575D01*
X31742783Y38781998D01*
X31749977Y38712500D01*
X31718454Y38650145D01*
X31699158Y38633425D01*
X31513597Y38503495D01*
X31346505Y38336403D01*
X31210965Y38142831D01*
X31210964Y38142829D01*
X31111098Y37928665D01*
X31111094Y37928656D01*
X31049938Y37700414D01*
X31049936Y37700404D01*
X31029341Y37465001D01*
X31029341Y37465000D01*
X31049936Y37229597D01*
X31049938Y37229587D01*
X31111094Y37001345D01*
X31111096Y37001341D01*
X31111097Y37001337D01*
X31210965Y36787170D01*
X31210967Y36787166D01*
X31346501Y36593605D01*
X31346506Y36593598D01*
X31513597Y36426507D01*
X31513603Y36426502D01*
X31699594Y36296270D01*
X31743219Y36241693D01*
X31750413Y36172195D01*
X31718890Y36109840D01*
X31699595Y36093120D01*
X31513922Y35963110D01*
X31513920Y35963109D01*
X31346891Y35796080D01*
X31346886Y35796074D01*
X31211400Y35602580D01*
X31211399Y35602578D01*
X31111570Y35388493D01*
X31111567Y35388487D01*
X31054364Y35175001D01*
X31054364Y35175000D01*
X31951314Y35175000D01*
X31925507Y35134844D01*
X31885000Y34996889D01*
X31885000Y34853111D01*
X31925507Y34715156D01*
X31951314Y34675000D01*
X31054364Y34675000D01*
X31111567Y34461514D01*
X31111570Y34461508D01*
X31211399Y34247422D01*
X31346894Y34053918D01*
X31513917Y33886895D01*
X31699595Y33756881D01*
X31743219Y33702304D01*
X31750412Y33632805D01*
X31718890Y33570451D01*
X31699595Y33553731D01*
X31513594Y33423492D01*
X31346505Y33256403D01*
X31210965Y33062831D01*
X31210964Y33062829D01*
X31163280Y32960569D01*
X31111098Y32848664D01*
X31111094Y32848656D01*
X31049938Y32620414D01*
X31049936Y32620404D01*
X31029341Y32385001D01*
X31029341Y32385000D01*
X31049936Y32149597D01*
X31049938Y32149587D01*
X31111094Y31921345D01*
X31111096Y31921341D01*
X31111097Y31921337D01*
X31210965Y31707170D01*
X31210967Y31707166D01*
X31346501Y31513605D01*
X31346506Y31513598D01*
X31468430Y31391674D01*
X31501915Y31330351D01*
X31496931Y31260659D01*
X31455059Y31204726D01*
X31424083Y31187811D01*
X31292669Y31138797D01*
X31292664Y31138794D01*
X31177455Y31052548D01*
X31177452Y31052545D01*
X31091206Y30937336D01*
X31091202Y30937329D01*
X31040908Y30802483D01*
X31034501Y30742884D01*
X31034500Y30742865D01*
X31034500Y28947130D01*
X31034501Y28947124D01*
X31040908Y28887517D01*
X31091202Y28752672D01*
X31091206Y28752665D01*
X31177452Y28637456D01*
X31177455Y28637453D01*
X31292664Y28551207D01*
X31292671Y28551203D01*
X31427517Y28500909D01*
X31427516Y28500909D01*
X31434444Y28500165D01*
X31487127Y28494500D01*
X32905500Y28494501D01*
X32972539Y28474816D01*
X33018294Y28422013D01*
X33029500Y28370501D01*
X33029500Y24982354D01*
X33009815Y24915315D01*
X32993181Y24894673D01*
X32303730Y24205222D01*
X32300843Y24202514D01*
X32285966Y24189426D01*
X32273767Y24178692D01*
X32273764Y24178690D01*
X32273762Y24178687D01*
X32273760Y24178685D01*
X32255359Y24157124D01*
X32252039Y24153531D01*
X32001208Y23902701D01*
X31988951Y23892880D01*
X31989134Y23892659D01*
X31983123Y23887687D01*
X31935772Y23837264D01*
X31914889Y23816381D01*
X31914877Y23816368D01*
X31910621Y23810883D01*
X31906837Y23806453D01*
X31874937Y23772482D01*
X31874936Y23772480D01*
X31865284Y23754924D01*
X31854610Y23738674D01*
X31842329Y23722839D01*
X31842324Y23722832D01*
X31823815Y23680062D01*
X31821245Y23674816D01*
X31798801Y23633990D01*
X31797637Y23631049D01*
X31776671Y23596212D01*
X31431765Y23192062D01*
X31417938Y23178235D01*
X31010236Y22830298D01*
X30964344Y22805546D01*
X30957714Y22803620D01*
X30957707Y22803617D01*
X30940466Y22793421D01*
X30923005Y22784867D01*
X30904374Y22777490D01*
X30904362Y22777483D01*
X30866670Y22750098D01*
X30861787Y22746891D01*
X30821680Y22723171D01*
X30807514Y22709005D01*
X30792724Y22696373D01*
X30776514Y22684596D01*
X30776511Y22684593D01*
X30746810Y22648691D01*
X30742877Y22644369D01*
X30456471Y22357963D01*
X30452878Y22354643D01*
X30423463Y22329538D01*
X30423461Y22329536D01*
X30415237Y22321917D01*
X30365182Y22268288D01*
X30364176Y22267210D01*
X30354105Y22255597D01*
X29808428Y21709919D01*
X29747105Y21676434D01*
X29720747Y21673600D01*
X24958956Y21673600D01*
X24891917Y21693285D01*
X24846162Y21746089D01*
X24836218Y21815247D01*
X24839181Y21829693D01*
X24882023Y21989587D01*
X24890063Y22019592D01*
X24910659Y22255000D01*
X24890063Y22490408D01*
X24828903Y22718663D01*
X24729035Y22932829D01*
X24593495Y23126401D01*
X24593494Y23126403D01*
X24426402Y23293494D01*
X24426395Y23293499D01*
X24232834Y23429033D01*
X24232830Y23429035D01*
X24232828Y23429036D01*
X24018663Y23528903D01*
X24018659Y23528904D01*
X24018655Y23528906D01*
X23790413Y23590062D01*
X23790403Y23590064D01*
X23555001Y23610659D01*
X23554999Y23610659D01*
X23319596Y23590064D01*
X23319586Y23590062D01*
X23091344Y23528906D01*
X23091335Y23528902D01*
X22877171Y23429036D01*
X22877169Y23429035D01*
X22683597Y23293495D01*
X22516505Y23126403D01*
X22380965Y22932831D01*
X22380964Y22932829D01*
X22281098Y22718665D01*
X22281094Y22718656D01*
X22219938Y22490414D01*
X22219936Y22490404D01*
X22199341Y22255001D01*
X22199341Y22255000D01*
X22219936Y22019597D01*
X22219938Y22019587D01*
X22270819Y21829693D01*
X22269156Y21759843D01*
X22229993Y21701981D01*
X22165764Y21674477D01*
X22151044Y21673600D01*
X18527738Y21673600D01*
X18512121Y21675324D01*
X18512094Y21675038D01*
X18504332Y21675773D01*
X18435204Y21673600D01*
X18405650Y21673600D01*
X18404929Y21673510D01*
X18398757Y21672731D01*
X18392945Y21672274D01*
X18346373Y21670810D01*
X18346372Y21670810D01*
X18327129Y21665219D01*
X18308079Y21661275D01*
X18288211Y21658766D01*
X18244884Y21641612D01*
X18239358Y21639721D01*
X18194614Y21626721D01*
X18194610Y21626719D01*
X18177366Y21616521D01*
X18159905Y21607967D01*
X18141274Y21600590D01*
X18141262Y21600583D01*
X18103570Y21573198D01*
X18098687Y21569991D01*
X18058580Y21546271D01*
X18044414Y21532105D01*
X18029624Y21519473D01*
X18013414Y21507696D01*
X18013411Y21507693D01*
X17983710Y21471791D01*
X17979777Y21467469D01*
X17304156Y20791849D01*
X17242833Y20758364D01*
X17182093Y20760392D01*
X17116173Y20779416D01*
X17057220Y20816917D01*
X17027900Y20880338D01*
X17037523Y20949541D01*
X17076242Y20997820D01*
X17142546Y21047454D01*
X17228796Y21162669D01*
X17279091Y21297517D01*
X17285500Y21357127D01*
X17285499Y23152872D01*
X17279091Y23212483D01*
X17228796Y23347331D01*
X17228795Y23347332D01*
X17228793Y23347336D01*
X17142547Y23462545D01*
X17142544Y23462548D01*
X17027335Y23548794D01*
X17027328Y23548798D01*
X16892482Y23599092D01*
X16892483Y23599092D01*
X16832883Y23605499D01*
X16832881Y23605500D01*
X16832873Y23605500D01*
X16832864Y23605500D01*
X15037129Y23605500D01*
X15037123Y23605499D01*
X14977516Y23599092D01*
X14842671Y23548798D01*
X14842664Y23548794D01*
X14727455Y23462548D01*
X14727452Y23462545D01*
X14641206Y23347336D01*
X14641202Y23347329D01*
X14590908Y23212483D01*
X14584501Y23152884D01*
X14584501Y23152877D01*
X14584500Y23152865D01*
X14584500Y21357130D01*
X14584501Y21357124D01*
X14590908Y21297517D01*
X14641202Y21162672D01*
X14641206Y21162665D01*
X14727452Y21047456D01*
X14727455Y21047453D01*
X14842664Y20961207D01*
X14842671Y20961203D01*
X14974081Y20912190D01*
X15030015Y20870319D01*
X15054432Y20804855D01*
X15039580Y20736582D01*
X15018430Y20708327D01*
X14896503Y20586400D01*
X14760965Y20392831D01*
X14760964Y20392829D01*
X14674036Y20206413D01*
X14668649Y20196076D01*
X14668645Y20196067D01*
X14667930Y20194031D01*
X14665629Y20188386D01*
X14661097Y20178666D01*
X14661097Y20178664D01*
X14657064Y20163615D01*
X14655677Y20159126D01*
X14211222Y18893103D01*
X14181903Y18846496D01*
X12951208Y17615801D01*
X12938951Y17605980D01*
X12939134Y17605759D01*
X12933123Y17600787D01*
X12885772Y17550364D01*
X12864889Y17529481D01*
X12864877Y17529468D01*
X12860621Y17523983D01*
X12856837Y17519553D01*
X12824937Y17485582D01*
X12824936Y17485580D01*
X12815284Y17468024D01*
X12804610Y17451774D01*
X12792329Y17435939D01*
X12792324Y17435932D01*
X12773815Y17393162D01*
X12771245Y17387916D01*
X12748803Y17347094D01*
X12743822Y17327693D01*
X12737521Y17309290D01*
X12729562Y17290898D01*
X12729561Y17290895D01*
X12722271Y17244873D01*
X12721087Y17239154D01*
X12709501Y17194028D01*
X12709500Y17194018D01*
X12709500Y17173984D01*
X12707973Y17154585D01*
X12704840Y17134806D01*
X12704840Y17134805D01*
X500Y17134805D01*
X500Y29845000D01*
X13249341Y29845000D01*
X13269936Y29609597D01*
X13269938Y29609587D01*
X13331094Y29381345D01*
X13331096Y29381341D01*
X13331097Y29381337D01*
X13430965Y29167170D01*
X13430967Y29167166D01*
X13539281Y29012479D01*
X13566505Y28973599D01*
X13733599Y28806505D01*
X13830384Y28738735D01*
X13927165Y28670968D01*
X13927167Y28670967D01*
X13927170Y28670965D01*
X14141337Y28571097D01*
X14369592Y28509937D01*
X14546034Y28494500D01*
X14604999Y28489341D01*
X14605000Y28489341D01*
X14605001Y28489341D01*
X14663966Y28494500D01*
X14840408Y28509937D01*
X15068663Y28571097D01*
X15282830Y28670965D01*
X15476401Y28806505D01*
X15643495Y28973599D01*
X15779035Y29167170D01*
X15878903Y29381337D01*
X15940063Y29609592D01*
X15960659Y29845000D01*
X15940063Y30080408D01*
X15878903Y30308663D01*
X15779035Y30522829D01*
X15643495Y30716401D01*
X15643494Y30716403D01*
X15476402Y30883494D01*
X15476396Y30883499D01*
X15290842Y31013425D01*
X15247217Y31068002D01*
X15240023Y31137500D01*
X15271546Y31199855D01*
X15290842Y31216575D01*
X15369700Y31271792D01*
X15476401Y31346505D01*
X15643495Y31513599D01*
X15779035Y31707170D01*
X15878903Y31921337D01*
X15940063Y32149592D01*
X15960659Y32385000D01*
X15940063Y32620408D01*
X15878903Y32848663D01*
X15779035Y33062829D01*
X15643495Y33256401D01*
X15643494Y33256403D01*
X15476402Y33423494D01*
X15476401Y33423495D01*
X15290405Y33553731D01*
X15246781Y33608308D01*
X15239588Y33677807D01*
X15271110Y33740161D01*
X15290405Y33756881D01*
X15476082Y33886895D01*
X15643105Y34053918D01*
X15778600Y34247422D01*
X15878429Y34461508D01*
X15878432Y34461514D01*
X15935636Y34675000D01*
X15038686Y34675000D01*
X15064493Y34715156D01*
X15105000Y34853111D01*
X15105000Y34996889D01*
X15064493Y35134844D01*
X15038686Y35175000D01*
X15935636Y35175000D01*
X15935635Y35175001D01*
X15878432Y35388487D01*
X15878429Y35388493D01*
X15778600Y35602578D01*
X15778599Y35602580D01*
X15643113Y35796074D01*
X15643108Y35796080D01*
X15476078Y35963110D01*
X15290405Y36093121D01*
X15246780Y36147698D01*
X15239588Y36217196D01*
X15271110Y36279551D01*
X15290406Y36296270D01*
X15476401Y36426505D01*
X15643495Y36593599D01*
X15779035Y36787170D01*
X15878903Y37001337D01*
X15940063Y37229592D01*
X15960659Y37465000D01*
X15940063Y37700408D01*
X15878903Y37928663D01*
X15779035Y38142829D01*
X15643495Y38336401D01*
X15643494Y38336403D01*
X15476402Y38503494D01*
X15476396Y38503499D01*
X15290842Y38633425D01*
X15247217Y38688002D01*
X15240023Y38757500D01*
X15271546Y38819855D01*
X15290842Y38836575D01*
X15313026Y38852109D01*
X15476401Y38966505D01*
X15643495Y39133599D01*
X15779035Y39327170D01*
X15878903Y39541337D01*
X15940063Y39769592D01*
X15960659Y40005000D01*
X15940063Y40240408D01*
X15878903Y40468663D01*
X15779035Y40682829D01*
X15643495Y40876401D01*
X15643494Y40876403D01*
X15476402Y41043494D01*
X15476396Y41043499D01*
X15290842Y41173425D01*
X15247217Y41228002D01*
X15240023Y41297500D01*
X15271546Y41359855D01*
X15290842Y41376575D01*
X15313026Y41392109D01*
X15476401Y41506505D01*
X15643495Y41673599D01*
X15779035Y41867170D01*
X15878903Y42081337D01*
X15940063Y42309592D01*
X15960659Y42545000D01*
X15940063Y42780408D01*
X15878903Y43008663D01*
X15779035Y43222829D01*
X15643495Y43416401D01*
X15643494Y43416403D01*
X15476402Y43583494D01*
X15476396Y43583499D01*
X15290842Y43713425D01*
X15247217Y43768002D01*
X15240023Y43837500D01*
X15271546Y43899855D01*
X15290842Y43916575D01*
X15444229Y44023978D01*
X15476401Y44046505D01*
X15643495Y44213599D01*
X15779035Y44407170D01*
X15878903Y44621337D01*
X15940063Y44849592D01*
X15960659Y45085000D01*
X15940063Y45320408D01*
X15878903Y45548663D01*
X15779035Y45762829D01*
X15702228Y45872522D01*
X15643494Y45956403D01*
X15476402Y46123494D01*
X15476401Y46123495D01*
X15290405Y46253731D01*
X15246781Y46308308D01*
X15239588Y46377807D01*
X15271110Y46440161D01*
X15290405Y46456881D01*
X15476082Y46586895D01*
X15643105Y46753918D01*
X15778600Y46947422D01*
X15878429Y47161508D01*
X15878432Y47161514D01*
X15935636Y47375000D01*
X15038686Y47375000D01*
X15064493Y47415156D01*
X15105000Y47553111D01*
X15105000Y47696889D01*
X15064493Y47834844D01*
X15038686Y47875000D01*
X15935636Y47875000D01*
X15935635Y47875001D01*
X15878432Y48088487D01*
X15878429Y48088493D01*
X15778600Y48302578D01*
X15778599Y48302580D01*
X15643113Y48496074D01*
X15643108Y48496080D01*
X15476078Y48663110D01*
X15290405Y48793121D01*
X15246780Y48847698D01*
X15239588Y48917196D01*
X15271110Y48979551D01*
X15290406Y48996270D01*
X15476401Y49126505D01*
X15643495Y49293599D01*
X15779035Y49487170D01*
X15878903Y49701337D01*
X15940063Y49929592D01*
X15960659Y50165000D01*
X15940063Y50400408D01*
X15878903Y50628663D01*
X15779035Y50842829D01*
X15643495Y51036401D01*
X15643494Y51036403D01*
X15476402Y51203494D01*
X15476396Y51203499D01*
X15290842Y51333425D01*
X15247217Y51388002D01*
X15240023Y51457500D01*
X15271546Y51519855D01*
X15290842Y51536575D01*
X15313026Y51552109D01*
X15476401Y51666505D01*
X15643495Y51833599D01*
X15779035Y52027170D01*
X15878903Y52241337D01*
X15940063Y52469592D01*
X15960659Y52705000D01*
X15940063Y52940408D01*
X15878903Y53168663D01*
X15779035Y53382829D01*
X15643495Y53576401D01*
X15643494Y53576403D01*
X15476402Y53743494D01*
X15476396Y53743499D01*
X15290842Y53873425D01*
X15247217Y53928002D01*
X15240023Y53997500D01*
X15271546Y54059855D01*
X15290842Y54076575D01*
X15421630Y54168154D01*
X15476401Y54206505D01*
X15643495Y54373599D01*
X15779035Y54567170D01*
X15878903Y54781337D01*
X15940063Y55009592D01*
X15960659Y55245000D01*
X15940063Y55480408D01*
X15878903Y55708663D01*
X15779035Y55922829D01*
X15643495Y56116401D01*
X15643494Y56116403D01*
X15476402Y56283494D01*
X15476396Y56283499D01*
X15290842Y56413425D01*
X15247217Y56468002D01*
X15240023Y56537500D01*
X15271546Y56599855D01*
X15290842Y56616575D01*
X15313026Y56632109D01*
X15476401Y56746505D01*
X15643495Y56913599D01*
X15779035Y57107170D01*
X15878903Y57321337D01*
X15940063Y57549592D01*
X15960659Y57785000D01*
X15940063Y58020408D01*
X15878903Y58248663D01*
X15779035Y58462829D01*
X15643495Y58656401D01*
X15643494Y58656403D01*
X15476402Y58823494D01*
X15476401Y58823495D01*
X15290405Y58953731D01*
X15246781Y59008308D01*
X15239588Y59077807D01*
X15271110Y59140161D01*
X15290405Y59156881D01*
X15476082Y59286895D01*
X15643105Y59453918D01*
X15778600Y59647422D01*
X15878429Y59861508D01*
X15878432Y59861514D01*
X15935636Y60075000D01*
X15038686Y60075000D01*
X15064493Y60115156D01*
X15105000Y60253111D01*
X15105000Y60396889D01*
X15064493Y60534844D01*
X15038686Y60575000D01*
X15935636Y60575000D01*
X15935635Y60575001D01*
X15878432Y60788487D01*
X15878429Y60788493D01*
X15778600Y61002578D01*
X15778599Y61002580D01*
X15643113Y61196074D01*
X15643108Y61196080D01*
X15476078Y61363110D01*
X15290405Y61493121D01*
X15246780Y61547698D01*
X15239588Y61617196D01*
X15271110Y61679551D01*
X15290406Y61696270D01*
X15476401Y61826505D01*
X15643495Y61993599D01*
X15779035Y62187170D01*
X15878903Y62401337D01*
X15940063Y62629592D01*
X15960659Y62865000D01*
X15940063Y63100408D01*
X15878903Y63328663D01*
X15779035Y63542829D01*
X15702228Y63652522D01*
X15643494Y63736403D01*
X15476402Y63903494D01*
X15476396Y63903499D01*
X15290842Y64033425D01*
X15247217Y64088002D01*
X15240023Y64157500D01*
X15271546Y64219855D01*
X15290842Y64236575D01*
X15316010Y64254198D01*
X15476401Y64366505D01*
X15643495Y64533599D01*
X15779035Y64727170D01*
X15878903Y64941337D01*
X15940063Y65169592D01*
X15960659Y65405000D01*
X15940063Y65640408D01*
X15878903Y65868663D01*
X15779035Y66082829D01*
X15643495Y66276401D01*
X15643494Y66276403D01*
X15476402Y66443494D01*
X15476396Y66443499D01*
X15290842Y66573425D01*
X15247217Y66628002D01*
X15240023Y66697500D01*
X15271546Y66759855D01*
X15290842Y66776575D01*
X15313026Y66792109D01*
X15476401Y66906505D01*
X15643495Y67073599D01*
X15779035Y67267170D01*
X15878903Y67481337D01*
X15940063Y67709592D01*
X15960659Y67945000D01*
X15940063Y68180408D01*
X15878903Y68408663D01*
X15779035Y68622829D01*
X15643495Y68816401D01*
X15643494Y68816403D01*
X15476402Y68983494D01*
X15476396Y68983499D01*
X15290842Y69113425D01*
X15247217Y69168002D01*
X15240023Y69237500D01*
X15271546Y69299855D01*
X15290842Y69316575D01*
X15313026Y69332109D01*
X15476401Y69446505D01*
X15643495Y69613599D01*
X15779035Y69807170D01*
X15878903Y70021337D01*
X15940063Y70249592D01*
X15960659Y70485000D01*
X15940063Y70720408D01*
X15878903Y70948663D01*
X15779035Y71162829D01*
X15643495Y71356401D01*
X15643494Y71356403D01*
X15476402Y71523494D01*
X15476401Y71523495D01*
X15290405Y71653731D01*
X15246781Y71708308D01*
X15239588Y71777807D01*
X15271110Y71840161D01*
X15290405Y71856881D01*
X15476082Y71986895D01*
X15643105Y72153918D01*
X15778600Y72347422D01*
X15878429Y72561508D01*
X15878432Y72561514D01*
X15935636Y72775000D01*
X15038686Y72775000D01*
X15064493Y72815156D01*
X15105000Y72953111D01*
X15105000Y73096889D01*
X15064493Y73234844D01*
X15038686Y73275000D01*
X15935636Y73275000D01*
X15935635Y73275001D01*
X15878432Y73488487D01*
X15878429Y73488493D01*
X15778600Y73702578D01*
X15778599Y73702580D01*
X15643113Y73896074D01*
X15643108Y73896080D01*
X15476078Y74063110D01*
X15290405Y74193121D01*
X15246780Y74247698D01*
X15239588Y74317196D01*
X15271110Y74379551D01*
X15290406Y74396270D01*
X15476401Y74526505D01*
X15643495Y74693599D01*
X15779035Y74887170D01*
X15878903Y75101337D01*
X15940063Y75329592D01*
X15960659Y75565000D01*
X15940063Y75800408D01*
X15878903Y76028663D01*
X15779035Y76242829D01*
X15643495Y76436401D01*
X15521567Y76558329D01*
X15488084Y76619649D01*
X15493068Y76689341D01*
X15534939Y76745275D01*
X15565915Y76762190D01*
X15697331Y76811204D01*
X15812546Y76897454D01*
X15898796Y77012669D01*
X15949091Y77147517D01*
X15955500Y77207127D01*
X15955499Y79002872D01*
X15949091Y79062483D01*
X15928159Y79118604D01*
X15898797Y79197329D01*
X15898793Y79197336D01*
X15812547Y79312545D01*
X15812544Y79312548D01*
X15697335Y79398794D01*
X15697328Y79398798D01*
X15562482Y79449092D01*
X15562483Y79449092D01*
X15502883Y79455499D01*
X15502881Y79455500D01*
X15502873Y79455500D01*
X15502864Y79455500D01*
X13707129Y79455500D01*
X13707123Y79455499D01*
X13647516Y79449092D01*
X13512671Y79398798D01*
X13512664Y79398794D01*
X13397455Y79312548D01*
X13397452Y79312545D01*
X13311206Y79197336D01*
X13311202Y79197329D01*
X13260908Y79062483D01*
X13259029Y79045000D01*
X13254501Y79002877D01*
X13254500Y79002865D01*
X13254500Y77207130D01*
X13254501Y77207124D01*
X13260908Y77147517D01*
X13311202Y77012672D01*
X13311206Y77012665D01*
X13397452Y76897456D01*
X13397455Y76897453D01*
X13512664Y76811207D01*
X13512671Y76811203D01*
X13644081Y76762190D01*
X13700015Y76720319D01*
X13724432Y76654855D01*
X13709580Y76586582D01*
X13688430Y76558327D01*
X13566503Y76436400D01*
X13430965Y76242831D01*
X13430964Y76242829D01*
X13331098Y76028665D01*
X13331094Y76028656D01*
X13269938Y75800414D01*
X13269936Y75800404D01*
X13249341Y75565001D01*
X13249341Y75565000D01*
X13269936Y75329597D01*
X13269938Y75329587D01*
X13331094Y75101345D01*
X13331096Y75101341D01*
X13331097Y75101337D01*
X13430965Y74887170D01*
X13430967Y74887166D01*
X13566501Y74693605D01*
X13566506Y74693598D01*
X13733597Y74526507D01*
X13733603Y74526502D01*
X13919594Y74396270D01*
X13963219Y74341693D01*
X13970413Y74272195D01*
X13938890Y74209840D01*
X13919595Y74193120D01*
X13733922Y74063110D01*
X13733920Y74063109D01*
X13566891Y73896080D01*
X13566886Y73896074D01*
X13431400Y73702580D01*
X13431399Y73702578D01*
X13331570Y73488493D01*
X13331567Y73488487D01*
X13274364Y73275001D01*
X13274364Y73275000D01*
X14171314Y73275000D01*
X14145507Y73234844D01*
X14105000Y73096889D01*
X14105000Y72953111D01*
X14145507Y72815156D01*
X14171314Y72775000D01*
X13274364Y72775000D01*
X13331567Y72561514D01*
X13331570Y72561508D01*
X13431399Y72347422D01*
X13566894Y72153918D01*
X13733917Y71986895D01*
X13919595Y71856881D01*
X13963219Y71802304D01*
X13970412Y71732805D01*
X13938890Y71670451D01*
X13919595Y71653731D01*
X13733594Y71523492D01*
X13566505Y71356403D01*
X13430965Y71162831D01*
X13430964Y71162829D01*
X13331098Y70948665D01*
X13331094Y70948656D01*
X13269938Y70720414D01*
X13269936Y70720404D01*
X13249341Y70485001D01*
X13249341Y70485000D01*
X13269936Y70249597D01*
X13269938Y70249587D01*
X13331094Y70021345D01*
X13331096Y70021341D01*
X13331097Y70021337D01*
X13430965Y69807170D01*
X13430967Y69807166D01*
X13566501Y69613605D01*
X13566506Y69613598D01*
X13733597Y69446507D01*
X13733603Y69446502D01*
X13919158Y69316575D01*
X13962783Y69261998D01*
X13969977Y69192500D01*
X13938454Y69130145D01*
X13919158Y69113425D01*
X13733597Y68983495D01*
X13566505Y68816403D01*
X13430965Y68622831D01*
X13430964Y68622829D01*
X13331098Y68408665D01*
X13331094Y68408656D01*
X13269938Y68180414D01*
X13269936Y68180404D01*
X13249341Y67945001D01*
X13249341Y67945000D01*
X13269936Y67709597D01*
X13269938Y67709587D01*
X13331094Y67481345D01*
X13331096Y67481341D01*
X13331097Y67481337D01*
X13430965Y67267170D01*
X13430967Y67267166D01*
X13566501Y67073605D01*
X13566506Y67073598D01*
X13733597Y66906507D01*
X13733603Y66906502D01*
X13919158Y66776575D01*
X13962783Y66721998D01*
X13969977Y66652500D01*
X13938454Y66590145D01*
X13919158Y66573425D01*
X13733597Y66443495D01*
X13566505Y66276403D01*
X13430965Y66082831D01*
X13430964Y66082829D01*
X13331098Y65868665D01*
X13331094Y65868656D01*
X13269938Y65640414D01*
X13269936Y65640404D01*
X13249341Y65405001D01*
X13249341Y65405000D01*
X13269936Y65169597D01*
X13269938Y65169587D01*
X13331094Y64941345D01*
X13331096Y64941341D01*
X13331097Y64941337D01*
X13400421Y64792672D01*
X13430965Y64727170D01*
X13430967Y64727166D01*
X13566501Y64533605D01*
X13566506Y64533598D01*
X13733597Y64366507D01*
X13733603Y64366502D01*
X13919158Y64236575D01*
X13962783Y64181998D01*
X13969977Y64112500D01*
X13938454Y64050145D01*
X13919158Y64033425D01*
X13733597Y63903495D01*
X13566505Y63736403D01*
X13430965Y63542831D01*
X13430964Y63542829D01*
X13331098Y63328665D01*
X13331094Y63328656D01*
X13269938Y63100414D01*
X13269936Y63100404D01*
X13249341Y62865001D01*
X13249341Y62865000D01*
X13269936Y62629597D01*
X13269938Y62629587D01*
X13331094Y62401345D01*
X13331096Y62401341D01*
X13331097Y62401337D01*
X13400539Y62252419D01*
X13430965Y62187170D01*
X13430967Y62187166D01*
X13539281Y62032479D01*
X13566505Y61993599D01*
X13733599Y61826505D01*
X13917561Y61697693D01*
X13919594Y61696270D01*
X13963219Y61641693D01*
X13970413Y61572195D01*
X13938890Y61509840D01*
X13919595Y61493120D01*
X13733922Y61363110D01*
X13733920Y61363109D01*
X13566891Y61196080D01*
X13566886Y61196074D01*
X13431400Y61002580D01*
X13431399Y61002578D01*
X13331570Y60788493D01*
X13331567Y60788487D01*
X13274364Y60575001D01*
X13274364Y60575000D01*
X14171314Y60575000D01*
X14145507Y60534844D01*
X14105000Y60396889D01*
X14105000Y60253111D01*
X14145507Y60115156D01*
X14171314Y60075000D01*
X13274364Y60075000D01*
X13331567Y59861514D01*
X13331570Y59861508D01*
X13431399Y59647422D01*
X13566894Y59453918D01*
X13733917Y59286895D01*
X13919595Y59156881D01*
X13963219Y59102304D01*
X13970412Y59032805D01*
X13938890Y58970451D01*
X13919595Y58953731D01*
X13733594Y58823492D01*
X13566505Y58656403D01*
X13430965Y58462831D01*
X13430964Y58462829D01*
X13331098Y58248665D01*
X13331094Y58248656D01*
X13269938Y58020414D01*
X13269936Y58020404D01*
X13249341Y57785001D01*
X13249341Y57785000D01*
X13269936Y57549597D01*
X13269938Y57549587D01*
X13331094Y57321345D01*
X13331096Y57321341D01*
X13331097Y57321337D01*
X13377630Y57221547D01*
X13430965Y57107170D01*
X13430967Y57107166D01*
X13566501Y56913605D01*
X13566506Y56913598D01*
X13733597Y56746507D01*
X13733603Y56746502D01*
X13919158Y56616575D01*
X13962783Y56561998D01*
X13969977Y56492500D01*
X13938454Y56430145D01*
X13919158Y56413425D01*
X13733597Y56283495D01*
X13566505Y56116403D01*
X13430965Y55922831D01*
X13430964Y55922829D01*
X13331098Y55708665D01*
X13331094Y55708656D01*
X13269938Y55480414D01*
X13269936Y55480404D01*
X13249341Y55245001D01*
X13249341Y55245000D01*
X13269936Y55009597D01*
X13269938Y55009587D01*
X13331094Y54781345D01*
X13331096Y54781341D01*
X13331097Y54781337D01*
X13430965Y54567170D01*
X13430967Y54567166D01*
X13566501Y54373605D01*
X13566506Y54373598D01*
X13733597Y54206507D01*
X13733603Y54206502D01*
X13919158Y54076575D01*
X13962783Y54021998D01*
X13969977Y53952500D01*
X13938454Y53890145D01*
X13919158Y53873425D01*
X13733597Y53743495D01*
X13566505Y53576403D01*
X13430965Y53382831D01*
X13430964Y53382829D01*
X13331098Y53168665D01*
X13331094Y53168656D01*
X13269938Y52940414D01*
X13269936Y52940404D01*
X13249341Y52705001D01*
X13249341Y52705000D01*
X13269936Y52469597D01*
X13269938Y52469587D01*
X13331094Y52241345D01*
X13331096Y52241341D01*
X13331097Y52241337D01*
X13430965Y52027170D01*
X13430967Y52027166D01*
X13566501Y51833605D01*
X13566506Y51833598D01*
X13733597Y51666507D01*
X13733603Y51666502D01*
X13919158Y51536575D01*
X13962783Y51481998D01*
X13969977Y51412500D01*
X13938454Y51350145D01*
X13919158Y51333425D01*
X13733597Y51203495D01*
X13566505Y51036403D01*
X13430965Y50842831D01*
X13430964Y50842829D01*
X13331098Y50628665D01*
X13331094Y50628656D01*
X13269938Y50400414D01*
X13269936Y50400404D01*
X13249341Y50165001D01*
X13249341Y50165000D01*
X13269936Y49929597D01*
X13269938Y49929587D01*
X13331094Y49701345D01*
X13331096Y49701341D01*
X13331097Y49701337D01*
X13400421Y49552672D01*
X13430965Y49487170D01*
X13430967Y49487166D01*
X13539281Y49332479D01*
X13566505Y49293599D01*
X13733599Y49126505D01*
X13917154Y48997978D01*
X13919594Y48996270D01*
X13963219Y48941693D01*
X13970413Y48872195D01*
X13938890Y48809840D01*
X13919595Y48793120D01*
X13733922Y48663110D01*
X13733920Y48663109D01*
X13566891Y48496080D01*
X13566886Y48496074D01*
X13431400Y48302580D01*
X13431399Y48302578D01*
X13331570Y48088493D01*
X13331567Y48088487D01*
X13274364Y47875001D01*
X13274364Y47875000D01*
X14171314Y47875000D01*
X14145507Y47834844D01*
X14105000Y47696889D01*
X14105000Y47553111D01*
X14145507Y47415156D01*
X14171314Y47375000D01*
X13274364Y47375000D01*
X13331567Y47161514D01*
X13331570Y47161508D01*
X13431399Y46947422D01*
X13566894Y46753918D01*
X13733917Y46586895D01*
X13919595Y46456881D01*
X13963219Y46402304D01*
X13970412Y46332805D01*
X13938890Y46270451D01*
X13919595Y46253731D01*
X13733594Y46123492D01*
X13566505Y45956403D01*
X13430965Y45762831D01*
X13430964Y45762829D01*
X13331098Y45548665D01*
X13331094Y45548656D01*
X13269938Y45320414D01*
X13269936Y45320404D01*
X13249341Y45085001D01*
X13249341Y45085000D01*
X13269936Y44849597D01*
X13269938Y44849587D01*
X13331094Y44621345D01*
X13331096Y44621341D01*
X13331097Y44621337D01*
X13400539Y44472419D01*
X13430965Y44407170D01*
X13430967Y44407166D01*
X13566501Y44213605D01*
X13566506Y44213598D01*
X13733597Y44046507D01*
X13733603Y44046502D01*
X13919158Y43916575D01*
X13962783Y43861998D01*
X13969977Y43792500D01*
X13938454Y43730145D01*
X13919158Y43713425D01*
X13733597Y43583495D01*
X13566505Y43416403D01*
X13430965Y43222831D01*
X13430964Y43222829D01*
X13331098Y43008665D01*
X13331094Y43008656D01*
X13269938Y42780414D01*
X13269936Y42780404D01*
X13249341Y42545001D01*
X13249341Y42545000D01*
X13269936Y42309597D01*
X13269938Y42309587D01*
X13331094Y42081345D01*
X13331096Y42081341D01*
X13331097Y42081337D01*
X13430965Y41867170D01*
X13430967Y41867166D01*
X13566501Y41673605D01*
X13566506Y41673598D01*
X13733597Y41506507D01*
X13733603Y41506502D01*
X13919158Y41376575D01*
X13962783Y41321998D01*
X13969977Y41252500D01*
X13938454Y41190145D01*
X13919158Y41173425D01*
X13733597Y41043495D01*
X13566505Y40876403D01*
X13430965Y40682831D01*
X13430964Y40682829D01*
X13331098Y40468665D01*
X13331094Y40468656D01*
X13269938Y40240414D01*
X13269936Y40240404D01*
X13249341Y40005001D01*
X13249341Y40005000D01*
X13269936Y39769597D01*
X13269938Y39769587D01*
X13331094Y39541345D01*
X13331096Y39541341D01*
X13331097Y39541337D01*
X13430965Y39327170D01*
X13430967Y39327166D01*
X13566501Y39133605D01*
X13566506Y39133598D01*
X13733597Y38966507D01*
X13733603Y38966502D01*
X13919158Y38836575D01*
X13962783Y38781998D01*
X13969977Y38712500D01*
X13938454Y38650145D01*
X13919158Y38633425D01*
X13733597Y38503495D01*
X13566505Y38336403D01*
X13430965Y38142831D01*
X13430964Y38142829D01*
X13331098Y37928665D01*
X13331094Y37928656D01*
X13269938Y37700414D01*
X13269936Y37700404D01*
X13249341Y37465001D01*
X13249341Y37465000D01*
X13269936Y37229597D01*
X13269938Y37229587D01*
X13331094Y37001345D01*
X13331096Y37001341D01*
X13331097Y37001337D01*
X13430965Y36787170D01*
X13430967Y36787166D01*
X13566501Y36593605D01*
X13566506Y36593598D01*
X13733597Y36426507D01*
X13733603Y36426502D01*
X13919594Y36296270D01*
X13963219Y36241693D01*
X13970413Y36172195D01*
X13938890Y36109840D01*
X13919595Y36093120D01*
X13733922Y35963110D01*
X13733920Y35963109D01*
X13566891Y35796080D01*
X13566886Y35796074D01*
X13431400Y35602580D01*
X13431399Y35602578D01*
X13331570Y35388493D01*
X13331567Y35388487D01*
X13274364Y35175001D01*
X13274364Y35175000D01*
X14171314Y35175000D01*
X14145507Y35134844D01*
X14105000Y34996889D01*
X14105000Y34853111D01*
X14145507Y34715156D01*
X14171314Y34675000D01*
X13274364Y34675000D01*
X13331567Y34461514D01*
X13331570Y34461508D01*
X13431399Y34247422D01*
X13566894Y34053918D01*
X13733917Y33886895D01*
X13919595Y33756881D01*
X13963219Y33702304D01*
X13970412Y33632805D01*
X13938890Y33570451D01*
X13919595Y33553731D01*
X13733594Y33423492D01*
X13566505Y33256403D01*
X13430965Y33062831D01*
X13430964Y33062829D01*
X13383280Y32960569D01*
X13331098Y32848664D01*
X13331094Y32848656D01*
X13269938Y32620414D01*
X13269936Y32620404D01*
X13249341Y32385001D01*
X13249341Y32385000D01*
X13269936Y32149597D01*
X13269938Y32149587D01*
X13331094Y31921345D01*
X13331096Y31921341D01*
X13331097Y31921337D01*
X13430965Y31707170D01*
X13430967Y31707166D01*
X13566501Y31513605D01*
X13566506Y31513598D01*
X13733597Y31346507D01*
X13733603Y31346502D01*
X13919158Y31216575D01*
X13962783Y31161998D01*
X13969977Y31092500D01*
X13938454Y31030145D01*
X13919158Y31013425D01*
X13733597Y30883495D01*
X13566505Y30716403D01*
X13430965Y30522831D01*
X13430964Y30522829D01*
X13331098Y30308665D01*
X13331094Y30308656D01*
X13269938Y30080414D01*
X13269936Y30080404D01*
X13249341Y29845001D01*
X13249341Y29845000D01*
X500Y29845000D01*
X500Y80644998D01*
X1140153Y80644998D01*
X1159526Y80287686D01*
X1159527Y80287669D01*
X1217415Y79934569D01*
X1217421Y79934543D01*
X1313147Y79589768D01*
X1313149Y79589761D01*
X1445597Y79257341D01*
X1445606Y79257323D01*
X1613218Y78941173D01*
X1814033Y78644993D01*
X1941441Y78494997D01*
X1941442Y78494996D01*
X3147266Y79700820D01*
X3310130Y79510130D01*
X3500818Y79347268D01*
X2292255Y78138705D01*
X2292256Y78138704D01*
X2305485Y78126172D01*
X2305486Y78126171D01*
X2590367Y77909612D01*
X2590370Y77909610D01*
X2896990Y77725124D01*
X3221739Y77574878D01*
X3221744Y77574877D01*
X3560855Y77460617D01*
X3910339Y77383689D01*
X4266075Y77345001D01*
X4266085Y77345000D01*
X4623915Y77345000D01*
X4623924Y77345001D01*
X4979660Y77383689D01*
X5329144Y77460617D01*
X5668255Y77574877D01*
X5668260Y77574878D01*
X5993009Y77725124D01*
X6299629Y77909610D01*
X6299632Y77909612D01*
X6584504Y78126164D01*
X6597742Y78138706D01*
X5389180Y79347267D01*
X5579870Y79510130D01*
X5742733Y79700820D01*
X6948556Y78494997D01*
X7075964Y78644992D01*
X7075975Y78645006D01*
X7276781Y78941173D01*
X7444393Y79257323D01*
X7444402Y79257341D01*
X7576850Y79589761D01*
X7576852Y79589768D01*
X7672578Y79934543D01*
X7672584Y79934569D01*
X7730472Y80287669D01*
X7730473Y80287686D01*
X7749847Y80644998D01*
X41780153Y80644998D01*
X41799526Y80287686D01*
X41799527Y80287669D01*
X41857415Y79934569D01*
X41857421Y79934543D01*
X41953147Y79589768D01*
X41953149Y79589761D01*
X42085597Y79257341D01*
X42085606Y79257323D01*
X42253218Y78941173D01*
X42454033Y78644993D01*
X42581441Y78494997D01*
X42581442Y78494996D01*
X43787266Y79700820D01*
X43950130Y79510130D01*
X44140818Y79347268D01*
X42932255Y78138705D01*
X42932256Y78138704D01*
X42945485Y78126172D01*
X42945486Y78126171D01*
X43230367Y77909612D01*
X43230370Y77909610D01*
X43536990Y77725124D01*
X43861739Y77574878D01*
X43861744Y77574877D01*
X44200855Y77460617D01*
X44550339Y77383689D01*
X44906075Y77345001D01*
X44906085Y77345000D01*
X45263915Y77345000D01*
X45263924Y77345001D01*
X45619660Y77383689D01*
X45969144Y77460617D01*
X46308255Y77574877D01*
X46308260Y77574878D01*
X46633009Y77725124D01*
X46939629Y77909610D01*
X46939632Y77909612D01*
X47224504Y78126164D01*
X47237742Y78138706D01*
X46029180Y79347267D01*
X46219870Y79510130D01*
X46382733Y79700820D01*
X47588556Y78494997D01*
X47715964Y78644992D01*
X47715975Y78645006D01*
X47916781Y78941173D01*
X48084393Y79257323D01*
X48084402Y79257341D01*
X48216850Y79589761D01*
X48216852Y79589768D01*
X48312578Y79934543D01*
X48312584Y79934569D01*
X48370472Y80287669D01*
X48370473Y80287686D01*
X48389847Y80644998D01*
X48389847Y80645003D01*
X48370473Y81002315D01*
X48370472Y81002332D01*
X48312584Y81355432D01*
X48312578Y81355458D01*
X48216852Y81700233D01*
X48216850Y81700240D01*
X48084402Y82032660D01*
X48084393Y82032678D01*
X47916781Y82348828D01*
X47715966Y82645008D01*
X47588557Y82795005D01*
X47588556Y82795006D01*
X46382732Y81589182D01*
X46219870Y81779870D01*
X46029180Y81942734D01*
X47237743Y83151297D01*
X47237742Y83151298D01*
X47224514Y83163829D01*
X47224513Y83163830D01*
X46939632Y83380389D01*
X46939629Y83380391D01*
X46633009Y83564877D01*
X46308260Y83715123D01*
X46308255Y83715124D01*
X45969144Y83829384D01*
X45619660Y83906312D01*
X45263924Y83945000D01*
X44906075Y83945000D01*
X44550339Y83906312D01*
X44200855Y83829384D01*
X43861744Y83715124D01*
X43861739Y83715123D01*
X43536990Y83564877D01*
X43230370Y83380391D01*
X43230367Y83380389D01*
X42945491Y83163834D01*
X42932256Y83151297D01*
X42932255Y83151297D01*
X44140819Y81942734D01*
X43950130Y81779870D01*
X43787266Y81589182D01*
X42581442Y82795006D01*
X42581441Y82795005D01*
X42454040Y82645017D01*
X42454033Y82645007D01*
X42253218Y82348828D01*
X42085606Y82032678D01*
X42085597Y82032660D01*
X41953149Y81700240D01*
X41953147Y81700233D01*
X41857421Y81355458D01*
X41857415Y81355432D01*
X41799527Y81002332D01*
X41799526Y81002315D01*
X41780153Y80645003D01*
X41780153Y80644998D01*
X7749847Y80644998D01*
X7749847Y80645003D01*
X7730473Y81002315D01*
X7730472Y81002332D01*
X7672584Y81355432D01*
X7672578Y81355458D01*
X7576852Y81700233D01*
X7576850Y81700240D01*
X7444402Y82032660D01*
X7444393Y82032678D01*
X7276781Y82348828D01*
X7075966Y82645008D01*
X6948557Y82795005D01*
X6948556Y82795006D01*
X5742732Y81589182D01*
X5579870Y81779870D01*
X5389180Y81942734D01*
X6597743Y83151297D01*
X6597742Y83151298D01*
X6584514Y83163829D01*
X6584513Y83163830D01*
X6299632Y83380389D01*
X6299629Y83380391D01*
X5993009Y83564877D01*
X5668260Y83715123D01*
X5668255Y83715124D01*
X5329144Y83829384D01*
X4979660Y83906312D01*
X4623924Y83945000D01*
X4266075Y83945000D01*
X3910339Y83906312D01*
X3560855Y83829384D01*
X3221744Y83715124D01*
X3221739Y83715123D01*
X2896990Y83564877D01*
X2590370Y83380391D01*
X2590367Y83380389D01*
X2305491Y83163834D01*
X2292256Y83151297D01*
X2292255Y83151297D01*
X3500819Y81942734D01*
X3310130Y81779870D01*
X3147266Y81589182D01*
X1941442Y82795006D01*
X1941441Y82795005D01*
X1814040Y82645017D01*
X1814033Y82645007D01*
X1613218Y82348828D01*
X1445606Y82032678D01*
X1445597Y82032660D01*
X1313149Y81700240D01*
X1313147Y81700233D01*
X1217421Y81355458D01*
X1217415Y81355432D01*
X1159527Y81002332D01*
X1159526Y81002315D01*
X1140153Y80645003D01*
X1140153Y80644998D01*
X500Y80644998D01*
X500Y82088378D01*
X585Y82091624D01*
X7490Y82223383D01*
X17803Y82407032D01*
X18464Y82413209D01*
X42611Y82565669D01*
X70227Y82728204D01*
X71451Y82733804D01*
X112425Y82886721D01*
X157083Y83041732D01*
X158764Y83046746D01*
X216127Y83196185D01*
X277366Y83344028D01*
X279379Y83348394D01*
X352511Y83491922D01*
X359688Y83504910D01*
X429655Y83631506D01*
X431867Y83635192D01*
X519980Y83770873D01*
X534130Y83790818D01*
X612154Y83900780D01*
X614486Y83903857D01*
X715655Y84028791D01*
X717537Y84031002D01*
X822773Y84148761D01*
X825092Y84151213D01*
X938787Y84264908D01*
X941239Y84267227D01*
X1058998Y84372463D01*
X1061209Y84374345D01*
X1186143Y84475514D01*
X1189220Y84477846D01*
X1319127Y84570020D01*
X1329046Y84576463D01*
X1454808Y84658133D01*
X1458494Y84660345D01*
X1598078Y84737489D01*
X1610063Y84743597D01*
X1741606Y84810621D01*
X1745972Y84812634D01*
X1893815Y84873873D01*
X2043254Y84931236D01*
X2048268Y84932917D01*
X2203279Y84977575D01*
X2356196Y85018549D01*
X2361796Y85019773D01*
X2524284Y85047382D01*
X2676791Y85071536D01*
X2682968Y85072197D01*
X2866566Y85082507D01*
X2998380Y85089416D01*
X3001622Y85089500D01*
X46528378Y85089500D01*
X46531619Y85089416D01*
G37*
%TD.AperFunction*%
%TD*%
%TA.AperFunction,Conductor*%
%TO.N,scl*%
G36*
X15161106Y20035572D02*
G01*
X15931215Y19717562D01*
X15937552Y19711239D01*
X15937562Y19711215D01*
X16255567Y18941117D01*
X16255558Y18932162D01*
X16249219Y18925837D01*
X16248629Y18925612D01*
X14828251Y18426969D01*
X14819309Y18427461D01*
X14816102Y18429735D01*
X14649734Y18596103D01*
X14646307Y18604376D01*
X14646968Y18608252D01*
X14758461Y18925837D01*
X15145612Y20028632D01*
X15151584Y20035301D01*
X15160526Y20035793D01*
X15161106Y20035572D01*
G37*
%TD.AperFunction*%
%TD*%
%TA.AperFunction,Conductor*%
%TO.N,scl*%
G36*
X23658251Y8273032D02*
G01*
X24140027Y8103898D01*
X25078629Y7774389D01*
X25085300Y7768416D01*
X25085792Y7759474D01*
X25085567Y7758884D01*
X24767562Y6988786D01*
X24761237Y6982447D01*
X24761214Y6982438D01*
X23991116Y6664433D01*
X23982161Y6664442D01*
X23975836Y6670781D01*
X23975611Y6671371D01*
X23865755Y6984293D01*
X23589818Y7770298D01*
X23476968Y8091749D01*
X23477460Y8100691D01*
X23479731Y8103895D01*
X23646103Y8270267D01*
X23654375Y8273693D01*
X23658251Y8273032D01*
G37*
%TD.AperFunction*%
%TD*%
%TA.AperFunction,Conductor*%
%TO.N,sda*%
G36*
X16544254Y17769032D02*
G01*
X17560543Y16901721D01*
X17564612Y16893743D01*
X17561848Y16885226D01*
X17561221Y16884548D01*
X17395530Y16718857D01*
X17390501Y16715889D01*
X16270326Y16392602D01*
X16261427Y16393600D01*
X16256275Y16399361D01*
X15937293Y17168474D01*
X15937289Y17177429D01*
X15939834Y17181236D01*
X16528397Y17768416D01*
X16536673Y17771832D01*
X16544254Y17769032D01*
G37*
%TD.AperFunction*%
%TD*%
%TA.AperFunction,Conductor*%
%TO.N,sda*%
G36*
X31611106Y17465572D02*
G01*
X32381215Y17147562D01*
X32387552Y17141239D01*
X32387562Y17141215D01*
X32705567Y16371117D01*
X32705558Y16362162D01*
X32699219Y16355837D01*
X32698629Y16355612D01*
X31278251Y15856969D01*
X31269309Y15857461D01*
X31266102Y15859735D01*
X31099734Y16026103D01*
X31096307Y16034376D01*
X31096968Y16038252D01*
X31208461Y16355837D01*
X31595612Y17458632D01*
X31601584Y17465301D01*
X31610526Y17465793D01*
X31611106Y17465572D01*
G37*
%TD.AperFunction*%
%TD*%
%TA.AperFunction,Conductor*%
%TO.N,scl*%
G36*
X33167838Y32705559D02*
G01*
X33174163Y32699220D01*
X33174388Y32698630D01*
X33673031Y31278252D01*
X33672539Y31269310D01*
X33670265Y31266103D01*
X33503897Y31099735D01*
X33495624Y31096308D01*
X33491748Y31096969D01*
X32071370Y31595612D01*
X32064699Y31601585D01*
X32064207Y31610527D01*
X32064423Y31611095D01*
X32382438Y32381217D01*
X32388759Y32387552D01*
X33158884Y32705568D01*
X33167838Y32705559D01*
G37*
%TD.AperFunction*%
%TD*%
%TA.AperFunction,Conductor*%
%TO.N,scl*%
G36*
X32674774Y23851849D02*
G01*
X32675452Y23851222D01*
X32841143Y23685531D01*
X32844111Y23680502D01*
X33167398Y22560327D01*
X33166400Y22551428D01*
X33160639Y22546276D01*
X32391526Y22227294D01*
X32382571Y22227290D01*
X32378761Y22229838D01*
X31791585Y22818397D01*
X31788168Y22826674D01*
X31790967Y22834254D01*
X32658280Y23850545D01*
X32666257Y23854613D01*
X32674774Y23851849D01*
G37*
%TD.AperFunction*%
%TD*%
%TA.AperFunction,Conductor*%
%TO.N,ADC0*%
G36*
X42273937Y48279351D02*
G01*
X42274262Y48278636D01*
X42543845Y47628782D01*
X42543850Y47619827D01*
X42543842Y47619808D01*
X42274334Y46971513D01*
X42267994Y46965189D01*
X42259039Y46965200D01*
X42258189Y46965594D01*
X41053422Y47583661D01*
X41047626Y47590486D01*
X41048353Y47599412D01*
X41050487Y47602341D01*
X41214556Y47766410D01*
X41217625Y47768615D01*
X42258259Y48284636D01*
X42267192Y48285240D01*
X42273937Y48279351D01*
G37*
%TD.AperFunction*%
%TD*%
%TA.AperFunction,Conductor*%
%TO.N,ADC0*%
G36*
X32994254Y55839032D02*
G01*
X34010543Y54971721D01*
X34014612Y54963743D01*
X34011848Y54955226D01*
X34011221Y54954548D01*
X33845530Y54788857D01*
X33840501Y54785889D01*
X32720326Y54462602D01*
X32711427Y54463600D01*
X32706275Y54469361D01*
X32387293Y55238474D01*
X32387289Y55247429D01*
X32389834Y55251236D01*
X32978397Y55838416D01*
X32986673Y55841832D01*
X32994254Y55839032D01*
G37*
%TD.AperFunction*%
%TD*%
%TA.AperFunction,Conductor*%
%TO.N,ADC1*%
G36*
X32720836Y58565209D02*
G01*
X32721413Y58564951D01*
X34078366Y57913186D01*
X34084339Y57906516D01*
X34085000Y57902640D01*
X34085000Y57667361D01*
X34081573Y57659088D01*
X34078366Y57656814D01*
X32721413Y57005050D01*
X32712471Y57004558D01*
X32705800Y57010531D01*
X32705542Y57011108D01*
X32385865Y57780511D01*
X32385856Y57789466D01*
X32385865Y57789489D01*
X32705542Y58558893D01*
X32711881Y58565218D01*
X32720836Y58565209D01*
G37*
%TD.AperFunction*%
%TD*%
%TA.AperFunction,Conductor*%
%TO.N,ADC1*%
G36*
X41891061Y63135888D02*
G01*
X42541211Y62867563D01*
X42547551Y62861239D01*
X42547562Y62861212D01*
X42815884Y62211068D01*
X42815873Y62202113D01*
X42809533Y62195789D01*
X42809092Y62195618D01*
X41622169Y61760947D01*
X41613222Y61761319D01*
X41609873Y61763660D01*
X41443659Y61929874D01*
X41440232Y61938147D01*
X41440945Y61942165D01*
X41875618Y63129095D01*
X41881679Y63135684D01*
X41890626Y63136056D01*
X41891061Y63135888D01*
G37*
%TD.AperFunction*%
%TD*%
%TA.AperFunction,Conductor*%
%TO.N,sda*%
G36*
X27430912Y8681573D02*
G01*
X27433186Y8678366D01*
X28084950Y7321414D01*
X28085442Y7312472D01*
X28079469Y7305801D01*
X28078892Y7305543D01*
X27309489Y6985866D01*
X27300534Y6985857D01*
X27300511Y6985866D01*
X26531107Y7305543D01*
X26524782Y7311882D01*
X26524791Y7320837D01*
X26525049Y7321414D01*
X27176814Y8678366D01*
X27183485Y8684339D01*
X27187361Y8685000D01*
X27422639Y8685000D01*
X27430912Y8681573D01*
G37*
%TD.AperFunction*%
%TD*%
%TA.AperFunction,Conductor*%
%TO.N,scl*%
G36*
X31791603Y22818415D02*
G01*
X32380162Y22231239D01*
X32383599Y22222970D01*
X32382706Y22218474D01*
X32063724Y21449361D01*
X32057390Y21443032D01*
X32049673Y21442602D01*
X30929498Y21765889D01*
X30924469Y21768857D01*
X30758778Y21934548D01*
X30755351Y21942821D01*
X30758778Y21951094D01*
X30759444Y21951711D01*
X31775746Y22819033D01*
X31784262Y22821796D01*
X31791603Y22818415D01*
G37*
%TD.AperFunction*%
%TD*%
%TA.AperFunction,Conductor*%
%TO.N,scl*%
G36*
X17390503Y20174111D02*
G01*
X17395530Y20171144D01*
X17561221Y20005453D01*
X17564648Y19997180D01*
X17561221Y19988907D01*
X17560543Y19988280D01*
X16544254Y19120969D01*
X16535737Y19118205D01*
X16528396Y19121586D01*
X15939837Y19708762D01*
X15936400Y19717031D01*
X15937293Y19721527D01*
X16047926Y19988280D01*
X16256275Y20490641D01*
X16262609Y20496969D01*
X16270326Y20497399D01*
X17390503Y20174111D01*
G37*
%TD.AperFunction*%
%TD*%
M02*
