M48
; DRILL file {KiCad 7.0.9} date Tue Dec 19 03:36:13 2023
; FORMAT={-:-/ absolute / inch / decimal}
; #@! TF.CreationDate,2023-12-19T03:36:13+09:00
; #@! TF.GenerationSoftware,Kicad,Pcbnew,7.0.9
; #@! TF.FileFunction,Plated,1,2,PTH
FMAT,2
INCH
; #@! TA.AperFunction,Plated,PTH,ViaDrill
T1C0.0157
; #@! TA.AperFunction,Plated,PTH,ComponentDrill
T2C0.0315
; #@! TA.AperFunction,Plated,PTH,ComponentDrill
T3C0.0394
; #@! TA.AperFunction,Plated,PTH,ComponentDrill
T4C0.1260
%
G90
G05
T1
X0.125Y2.475
X0.125Y1.975
X0.125Y1.475
X0.125Y0.975
X0.175Y2.975
X0.225Y0.475
X0.425Y3.225
X0.425Y2.725
X0.425Y2.225
X0.425Y1.725
X0.425Y1.225
X0.425Y0.725
X0.425Y0.225
X0.595Y0.475
X0.6274Y0.9762
X0.725Y3.225
X0.725Y2.725
X0.8Y0.625
X0.875Y2.225
X0.875Y1.725
X0.875Y1.225
X1.015Y0.335
X1.075Y0.875
X1.125Y3.225
X1.125Y2.475
X1.125Y1.975
X1.125Y1.475
X1.175Y0.645
X1.25Y1.025
X1.375Y0.475
X1.425Y2.225
X1.425Y1.725
X1.525Y3.225
X1.525Y2.875
X1.525Y1.225
X1.525Y0.725
X1.525Y0.225
X1.6Y2.025
X1.625Y2.525
X1.775Y1.475
X1.775Y0.975
X1.775Y0.475
X1.825Y2.225
T2
X1.675Y2.575
X1.675Y2.475
X1.675Y2.375
X1.675Y1.975
X1.675Y1.875
X1.675Y1.775
T3
X0.575Y3.075
X0.575Y2.975
X0.575Y2.875
X0.575Y2.775
X0.575Y2.675
X0.575Y2.575
X0.575Y2.475
X0.575Y2.375
X0.575Y2.275
X0.575Y2.175
X0.575Y2.075
X0.575Y1.975
X0.575Y1.875
X0.575Y1.775
X0.575Y1.675
X0.575Y1.575
X0.575Y1.475
X0.575Y1.375
X0.575Y1.275
X0.575Y1.175
X0.625Y0.875
X0.625Y0.775
X0.625Y0.675
X0.625Y0.575
X0.775Y0.275
X0.875Y0.275
X0.924Y0.8754
X0.924Y0.7754
X0.924Y0.6754
X0.924Y0.5754
X0.975Y0.275
X1.075Y0.275
X1.275Y3.075
X1.275Y2.975
X1.275Y2.875
X1.275Y2.775
X1.275Y2.675
X1.275Y2.575
X1.275Y2.475
X1.275Y2.375
X1.275Y2.275
X1.275Y2.175
X1.275Y2.075
X1.275Y1.975
X1.275Y1.875
X1.275Y1.775
X1.275Y1.675
X1.275Y1.575
X1.275Y1.475
X1.275Y1.375
X1.275Y1.275
X1.275Y1.175
X1.275Y0.875
X1.275Y0.775
X1.275Y0.675
X1.275Y0.575
T4
X0.175Y3.175
X0.175Y0.175
X1.775Y3.175
X1.775Y0.175
T0
M30
