%TF.GenerationSoftware,KiCad,Pcbnew,7.0.8*%
%TF.CreationDate,2023-10-25T17:55:18+09:00*%
%TF.ProjectId,WETHAP_PCB,57455448-4150-45f5-9043-422e6b696361,rev?*%
%TF.SameCoordinates,PX6d9c4d8PY8977a68*%
%TF.FileFunction,Copper,L2,Bot*%
%TF.FilePolarity,Positive*%
%FSLAX46Y46*%
G04 Gerber Fmt 4.6, Leading zero omitted, Abs format (unit mm)*
G04 Created by KiCad (PCBNEW 7.0.8) date 2023-10-25 17:55:18*
%MOMM*%
%LPD*%
G01*
G04 APERTURE LIST*
%TA.AperFunction,ComponentPad*%
%ADD10R,1.700000X1.700000*%
%TD*%
%TA.AperFunction,ComponentPad*%
%ADD11O,1.700000X1.700000*%
%TD*%
%TA.AperFunction,ComponentPad*%
%ADD12C,1.440000*%
%TD*%
%TA.AperFunction,ViaPad*%
%ADD13C,0.800000*%
%TD*%
%TA.AperFunction,Conductor*%
%ADD14C,0.250000*%
%TD*%
%TA.AperFunction,Conductor*%
%ADD15C,0.500000*%
%TD*%
G04 APERTURE END LIST*
D10*
%TO.P,DHT20,1,Pin_1*%
%TO.N,vbus*%
X32385000Y14605000D03*
D11*
%TO.P,DHT20,2,Pin_2*%
%TO.N,sda*%
X32385000Y17145000D03*
%TO.P,DHT20,3,Pin_3*%
%TO.N,gnd*%
X32385000Y19685000D03*
%TO.P,DHT20,4,Pin_4*%
%TO.N,scl*%
X32385000Y22225000D03*
%TD*%
D10*
%TO.P,J1,1,Pin_1*%
%TO.N,unconnected-(J1-Pin_1-Pad1)*%
X14605000Y78105000D03*
D11*
%TO.P,J1,2,Pin_2*%
%TO.N,unconnected-(J1-Pin_2-Pad2)*%
X14605000Y75565000D03*
%TO.P,J1,3,Pin_3*%
%TO.N,gnd*%
X14605000Y73025000D03*
%TO.P,J1,4,Pin_4*%
%TO.N,unconnected-(J1-Pin_4-Pad4)*%
X14605000Y70485000D03*
%TO.P,J1,5,Pin_5*%
%TO.N,unconnected-(J1-Pin_5-Pad5)*%
X14605000Y67945000D03*
%TO.P,J1,6,Pin_6*%
%TO.N,unconnected-(J1-Pin_6-Pad6)*%
X14605000Y65405000D03*
%TO.P,J1,7,Pin_7*%
%TO.N,unconnected-(J1-Pin_7-Pad7)*%
X14605000Y62865000D03*
%TO.P,J1,8,Pin_8*%
%TO.N,gnd*%
X14605000Y60325000D03*
%TO.P,J1,9,Pin_9*%
%TO.N,unconnected-(J1-Pin_9-Pad9)*%
X14605000Y57785000D03*
%TO.P,J1,10,Pin_10*%
%TO.N,unconnected-(J1-Pin_10-Pad10)*%
X14605000Y55245000D03*
%TO.P,J1,11,Pin_11*%
%TO.N,unconnected-(J1-Pin_11-Pad11)*%
X14605000Y52705000D03*
%TO.P,J1,12,Pin_12*%
%TO.N,unconnected-(J1-Pin_12-Pad12)*%
X14605000Y50165000D03*
%TO.P,J1,13,Pin_13*%
%TO.N,gnd*%
X14605000Y47625000D03*
%TO.P,J1,14,Pin_14*%
%TO.N,unconnected-(J1-Pin_14-Pad14)*%
X14605000Y45085000D03*
%TO.P,J1,15,Pin_15*%
%TO.N,unconnected-(J1-Pin_15-Pad15)*%
X14605000Y42545000D03*
%TO.P,J1,16,Pin_16*%
%TO.N,unconnected-(J1-Pin_16-Pad16)*%
X14605000Y40005000D03*
%TO.P,J1,17,Pin_17*%
%TO.N,unconnected-(J1-Pin_17-Pad17)*%
X14605000Y37465000D03*
%TO.P,J1,18,Pin_18*%
%TO.N,gnd*%
X14605000Y34925000D03*
%TO.P,J1,19,Pin_19*%
%TO.N,unconnected-(J1-Pin_19-Pad19)*%
X14605000Y32385000D03*
%TO.P,J1,20,Pin_20*%
%TO.N,unconnected-(J1-Pin_20-Pad20)*%
X14605000Y29845000D03*
%TD*%
D10*
%TO.P,LPS25HB1,1,Pin_1*%
%TO.N,vbus*%
X15935000Y22255000D03*
D11*
%TO.P,LPS25HB1,2,Pin_2*%
%TO.N,scl*%
X15935000Y19715000D03*
%TO.P,LPS25HB1,3,Pin_3*%
%TO.N,sda*%
X15935000Y17175000D03*
%TO.P,LPS25HB1,4,Pin_4*%
%TO.N,gnd*%
X15935000Y14635000D03*
%TD*%
D10*
%TO.P,SSD1306,1,Pin_1*%
%TO.N,gnd*%
X19685000Y6985000D03*
D11*
%TO.P,SSD1306,2,Pin_2*%
%TO.N,vbus*%
X22225000Y6985000D03*
%TO.P,SSD1306,3,Pin_3*%
%TO.N,scl*%
X24765000Y6985000D03*
%TO.P,SSD1306,4,Pin_4*%
%TO.N,sda*%
X27305000Y6985000D03*
%TD*%
D12*
%TO.P,RV1,1,1*%
%TO.N,adc_vref*%
X42545000Y50165000D03*
%TO.P,RV1,2,2*%
%TO.N,Net-(J2-Pin_10)*%
X42545000Y47625000D03*
%TO.P,RV1,3,3*%
%TO.N,gnd*%
X42545000Y45085000D03*
%TD*%
D10*
%TO.P,J2,1,Pin_1*%
%TO.N,vbus*%
X32385000Y78105000D03*
D11*
%TO.P,J2,2,Pin_2*%
%TO.N,unconnected-(J2-Pin_2-Pad2)*%
X32385000Y75565000D03*
%TO.P,J2,3,Pin_3*%
%TO.N,gnd*%
X32385000Y73025000D03*
%TO.P,J2,4,Pin_4*%
%TO.N,unconnected-(J2-Pin_4-Pad4)*%
X32385000Y70485000D03*
%TO.P,J2,5,Pin_5*%
%TO.N,unconnected-(J2-Pin_5-Pad5)*%
X32385000Y67945000D03*
%TO.P,J2,6,Pin_6*%
%TO.N,adc_vref*%
X32385000Y65405000D03*
%TO.P,J2,7,Pin_7*%
%TO.N,unconnected-(J2-Pin_7-Pad7)*%
X32385000Y62865000D03*
%TO.P,J2,8,Pin_8*%
%TO.N,gnd*%
X32385000Y60325000D03*
%TO.P,J2,9,Pin_9*%
%TO.N,Net-(J2-Pin_9)*%
X32385000Y57785000D03*
%TO.P,J2,10,Pin_10*%
%TO.N,Net-(J2-Pin_10)*%
X32385000Y55245000D03*
%TO.P,J2,11,Pin_11*%
%TO.N,unconnected-(J2-Pin_11-Pad11)*%
X32385000Y52705000D03*
%TO.P,J2,12,Pin_12*%
%TO.N,unconnected-(J2-Pin_12-Pad12)*%
X32385000Y50165000D03*
%TO.P,J2,13,Pin_13*%
%TO.N,gnd*%
X32385000Y47625000D03*
%TO.P,J2,14,Pin_14*%
%TO.N,unconnected-(J2-Pin_14-Pad14)*%
X32385000Y45085000D03*
%TO.P,J2,15,Pin_15*%
%TO.N,unconnected-(J2-Pin_15-Pad15)*%
X32385000Y42545000D03*
%TO.P,J2,16,Pin_16*%
%TO.N,unconnected-(J2-Pin_16-Pad16)*%
X32385000Y40005000D03*
%TO.P,J2,17,Pin_17*%
%TO.N,unconnected-(J2-Pin_17-Pad17)*%
X32385000Y37465000D03*
%TO.P,J2,18,Pin_18*%
%TO.N,gnd*%
X32385000Y34925000D03*
%TO.P,J2,19,Pin_19*%
%TO.N,scl*%
X32385000Y32385000D03*
%TO.P,J2,20,Pin_20*%
%TO.N,sda*%
X32385000Y29845000D03*
%TD*%
D12*
%TO.P,RV2,1,1*%
%TO.N,adc_vref*%
X42545000Y65405000D03*
%TO.P,RV2,2,2*%
%TO.N,Net-(J2-Pin_9)*%
X42545000Y62865000D03*
%TO.P,RV2,3,3*%
%TO.N,gnd*%
X42545000Y60325000D03*
%TD*%
D10*
%TO.P,LPS25HB2,1*%
%TO.N,N/C*%
X23555000Y14635000D03*
D11*
%TO.P,LPS25HB2,2*%
X23555000Y17175000D03*
%TO.P,LPS25HB2,3*%
X23555000Y19715000D03*
%TO.P,LPS25HB2,4*%
X23555000Y22255000D03*
%TD*%
D13*
%TO.N,gnd*%
X31750000Y26035000D03*
X34925000Y12065000D03*
X22225000Y31115000D03*
X38735000Y73025000D03*
X45085000Y24765000D03*
X28575000Y50165000D03*
X3175000Y37465000D03*
X38735000Y5715000D03*
X36195000Y43815000D03*
X28575000Y81915000D03*
X3175000Y62865000D03*
X38735000Y18415000D03*
X10795000Y31115000D03*
X18415000Y69215000D03*
X19685000Y15875000D03*
X36195000Y56515000D03*
X10795000Y69215000D03*
X38735000Y31115000D03*
X41275000Y64135000D03*
X10795000Y81915000D03*
X4445000Y75565000D03*
X45085000Y37465000D03*
X15935000Y24795000D03*
X10795000Y18415000D03*
X10795000Y5715000D03*
X14605000Y12065000D03*
X18415000Y81915000D03*
X46355000Y51435000D03*
X22225000Y43815000D03*
X10795000Y43815000D03*
X27305000Y22225000D03*
X46355000Y66675000D03*
X10795000Y56515000D03*
X3175000Y24765000D03*
X28575000Y62865000D03*
X26035000Y8255000D03*
X28575000Y37465000D03*
X22225000Y56515000D03*
X38735000Y81915000D03*
X3175000Y50165000D03*
X40640000Y51435000D03*
X45085000Y12065000D03*
X5715000Y12065000D03*
%TD*%
D14*
%TO.N,sda*%
X27305000Y10795000D02*
X27305000Y12065000D01*
X27305000Y12065000D02*
X26035000Y13335000D01*
X26035000Y13335000D02*
X19685000Y13335000D01*
X19685000Y13335000D02*
X15935000Y17085000D01*
X15935000Y17085000D02*
X15935000Y17175000D01*
%TO.N,scl*%
X32385000Y22225000D02*
X33599000Y23439000D01*
X33655000Y31208000D02*
X32478000Y32385000D01*
X33599000Y23439000D02*
X33599000Y31152000D01*
X33599000Y31152000D02*
X33655000Y31208000D01*
X32478000Y32385000D02*
X32385000Y32385000D01*
X32385000Y22225000D02*
X31052000Y20892000D01*
X31052000Y20892000D02*
X17112000Y20892000D01*
X17112000Y20892000D02*
X15935000Y19715000D01*
%TO.N,sda*%
X27305000Y11720000D02*
X27305000Y12065000D01*
X27305000Y12065000D02*
X32385000Y17145000D01*
X27305000Y6985000D02*
X27305000Y11720000D01*
D15*
%TO.N,vbus*%
X22225000Y6985000D02*
X22225000Y6892000D01*
X22225000Y6892000D02*
X24672000Y4445000D01*
X24672000Y4445000D02*
X27305000Y4445000D01*
X32385000Y9525000D02*
X32385000Y14605000D01*
X27305000Y4445000D02*
X32385000Y9525000D01*
D14*
%TO.N,Net-(J2-Pin_10)*%
X41182000Y47625000D02*
X42545000Y47625000D01*
X33562000Y55245000D02*
X41182000Y47625000D01*
X32385000Y55245000D02*
X33562000Y55245000D01*
%TO.N,Net-(J2-Pin_9)*%
X37465000Y57785000D02*
X32385000Y57785000D01*
X42545000Y62865000D02*
X37465000Y57785000D01*
D15*
%TO.N,adc_vref*%
X42545000Y65405000D02*
X32385000Y65405000D01*
%TD*%
%TA.AperFunction,Conductor*%
%TO.N,gnd*%
G36*
X30984877Y20264776D02*
G01*
X30984905Y20265061D01*
X30992825Y20264312D01*
X30994257Y20263741D01*
X30996305Y20263514D01*
X31000278Y20262626D01*
X31000013Y20261442D01*
X31057713Y20238403D01*
X31098293Y20181526D01*
X31101681Y20111739D01*
X31100925Y20108770D01*
X31054363Y19935001D01*
X31054364Y19935000D01*
X31951314Y19935000D01*
X31925507Y19894844D01*
X31885000Y19756889D01*
X31885000Y19613111D01*
X31925507Y19475156D01*
X31951314Y19435000D01*
X31054364Y19435000D01*
X31111567Y19221514D01*
X31111570Y19221508D01*
X31211399Y19007422D01*
X31346894Y18813918D01*
X31513917Y18646895D01*
X31699595Y18516881D01*
X31743219Y18462304D01*
X31750412Y18392805D01*
X31718890Y18330451D01*
X31699595Y18313731D01*
X31513594Y18183492D01*
X31346505Y18016403D01*
X31210965Y17822831D01*
X31210964Y17822829D01*
X31124036Y17636413D01*
X31118649Y17626076D01*
X31118645Y17626067D01*
X31117930Y17624031D01*
X31115629Y17618386D01*
X31111097Y17608666D01*
X31111097Y17608664D01*
X31107064Y17593615D01*
X31105677Y17589126D01*
X30661222Y16323102D01*
X30631903Y16276495D01*
X27392681Y13037272D01*
X27331358Y13003787D01*
X27261666Y13008771D01*
X27217319Y13037272D01*
X26535803Y13718788D01*
X26525980Y13731050D01*
X26525759Y13730866D01*
X26520786Y13736877D01*
X26470364Y13784227D01*
X26459919Y13794672D01*
X26449475Y13805117D01*
X26443986Y13809375D01*
X26439561Y13813153D01*
X26405582Y13845062D01*
X26405580Y13845064D01*
X26405577Y13845065D01*
X26388029Y13854712D01*
X26371763Y13865396D01*
X26355933Y13877675D01*
X26313168Y13896182D01*
X26307922Y13898752D01*
X26267093Y13921197D01*
X26267092Y13921198D01*
X26247693Y13926178D01*
X26229281Y13932482D01*
X26210898Y13940438D01*
X26210892Y13940440D01*
X26164874Y13947728D01*
X26159152Y13948913D01*
X26114021Y13960500D01*
X26114019Y13960500D01*
X26093984Y13960500D01*
X26074586Y13962027D01*
X26067162Y13963203D01*
X26054805Y13965160D01*
X26054804Y13965160D01*
X26008416Y13960775D01*
X26002578Y13960500D01*
X25029500Y13960500D01*
X24962461Y13980185D01*
X24916706Y14032989D01*
X24905500Y14084500D01*
X24905499Y15532871D01*
X24905498Y15532877D01*
X24905497Y15532884D01*
X24899091Y15592483D01*
X24869019Y15673109D01*
X24848797Y15727329D01*
X24848793Y15727336D01*
X24762547Y15842545D01*
X24762544Y15842548D01*
X24647335Y15928794D01*
X24647328Y15928798D01*
X24515917Y15977811D01*
X24459983Y16019682D01*
X24435566Y16085147D01*
X24450418Y16153420D01*
X24471563Y16181668D01*
X24593495Y16303599D01*
X24729035Y16497170D01*
X24828903Y16711337D01*
X24890063Y16939592D01*
X24910659Y17175000D01*
X24890063Y17410408D01*
X24828903Y17638663D01*
X24729035Y17852829D01*
X24729034Y17852831D01*
X24593494Y18046403D01*
X24426402Y18213494D01*
X24426396Y18213499D01*
X24240842Y18343425D01*
X24197217Y18398002D01*
X24190023Y18467500D01*
X24221546Y18529855D01*
X24240842Y18546575D01*
X24263026Y18562109D01*
X24426401Y18676505D01*
X24593495Y18843599D01*
X24729035Y19037170D01*
X24828903Y19251337D01*
X24890063Y19479592D01*
X24910659Y19715000D01*
X24890063Y19950408D01*
X24847192Y20110407D01*
X24848855Y20180257D01*
X24888018Y20238119D01*
X24952246Y20265623D01*
X24966967Y20266500D01*
X30969257Y20266500D01*
X30984877Y20264776D01*
G37*
%TD.AperFunction*%
%TA.AperFunction,Conductor*%
G36*
X22210072Y20246815D02*
G01*
X22255827Y20194011D01*
X22265771Y20124853D01*
X22262808Y20110407D01*
X22219938Y19950414D01*
X22219936Y19950404D01*
X22199341Y19715001D01*
X22199341Y19715000D01*
X22219936Y19479597D01*
X22219938Y19479587D01*
X22281094Y19251345D01*
X22281096Y19251341D01*
X22281097Y19251337D01*
X22295004Y19221514D01*
X22380965Y19037170D01*
X22380967Y19037166D01*
X22516501Y18843605D01*
X22516506Y18843598D01*
X22683597Y18676507D01*
X22683603Y18676502D01*
X22869158Y18546575D01*
X22912783Y18491998D01*
X22919977Y18422500D01*
X22888454Y18360145D01*
X22869158Y18343425D01*
X22683597Y18213495D01*
X22516505Y18046403D01*
X22380965Y17852831D01*
X22380964Y17852829D01*
X22281098Y17638665D01*
X22281094Y17638656D01*
X22219938Y17410414D01*
X22219936Y17410404D01*
X22199341Y17175001D01*
X22199341Y17175000D01*
X22219936Y16939597D01*
X22219938Y16939587D01*
X22281094Y16711345D01*
X22281096Y16711341D01*
X22281097Y16711337D01*
X22295087Y16681336D01*
X22380965Y16497170D01*
X22380967Y16497166D01*
X22489281Y16342479D01*
X22516501Y16303604D01*
X22516506Y16303598D01*
X22638430Y16181674D01*
X22671915Y16120351D01*
X22666931Y16050659D01*
X22625059Y15994726D01*
X22594083Y15977811D01*
X22462669Y15928797D01*
X22462664Y15928794D01*
X22347455Y15842548D01*
X22347452Y15842545D01*
X22261206Y15727336D01*
X22261202Y15727329D01*
X22210908Y15592483D01*
X22204501Y15532884D01*
X22204501Y15532877D01*
X22204500Y15532865D01*
X22204501Y14084500D01*
X22184816Y14017461D01*
X22132013Y13971706D01*
X22080501Y13960500D01*
X19995452Y13960500D01*
X19928413Y13980185D01*
X19907771Y13996819D01*
X17643021Y16261569D01*
X17612126Y16312977D01*
X17564958Y16467166D01*
X17225235Y17577707D01*
X17208903Y17638663D01*
X17208901Y17638667D01*
X17208900Y17638671D01*
X17202065Y17653328D01*
X17199883Y17658633D01*
X17199611Y17659393D01*
X17199611Y17659394D01*
X17167621Y17730792D01*
X17167621Y17730793D01*
X17167618Y17730797D01*
X17164157Y17736686D01*
X17164579Y17736935D01*
X17157755Y17748349D01*
X17109035Y17852828D01*
X17109034Y17852830D01*
X17109033Y17852831D01*
X16973495Y18046401D01*
X16973494Y18046403D01*
X16806402Y18213494D01*
X16806396Y18213499D01*
X16620842Y18343425D01*
X16577217Y18398002D01*
X16570023Y18467500D01*
X16601546Y18529855D01*
X16620842Y18546575D01*
X16643026Y18562109D01*
X16806401Y18676505D01*
X16973495Y18843599D01*
X17109035Y19037170D01*
X17208903Y19251337D01*
X17223309Y19305104D01*
X17350442Y19715001D01*
X17494427Y20179233D01*
X17533087Y20237432D01*
X17597075Y20265491D01*
X17612861Y20266500D01*
X22143033Y20266500D01*
X22210072Y20246815D01*
G37*
%TD.AperFunction*%
%TA.AperFunction,Conductor*%
G36*
X41023754Y64647298D02*
G01*
X42089232Y64267400D01*
X42107551Y64261698D01*
X42115309Y64258697D01*
X42125970Y64253724D01*
X42125972Y64253724D01*
X42125973Y64253723D01*
X42131061Y64251871D01*
X42130285Y64249740D01*
X42181664Y64218460D01*
X42212226Y64155629D01*
X42203968Y64086249D01*
X42159512Y64032347D01*
X42130687Y64019165D01*
X42131064Y64018130D01*
X42125972Y64016277D01*
X42125970Y64016276D01*
X42125968Y64016275D01*
X41932421Y63926023D01*
X41757478Y63803528D01*
X41606472Y63652522D01*
X41483979Y63477583D01*
X41483977Y63477580D01*
X41413572Y63326600D01*
X41411976Y63323419D01*
X41400948Y63302931D01*
X41396041Y63289535D01*
X41394025Y63284679D01*
X41393727Y63284041D01*
X41393721Y63284024D01*
X41393608Y63283601D01*
X41391947Y63278358D01*
X41007385Y62228260D01*
X40978628Y62183220D01*
X37242228Y58446819D01*
X37180905Y58413334D01*
X37154547Y58410500D01*
X34238749Y58410500D01*
X34185062Y58422725D01*
X33093098Y58947212D01*
X33041190Y58993981D01*
X33022808Y59061390D01*
X33043788Y59128035D01*
X33075662Y59160562D01*
X33256079Y59286892D01*
X33423105Y59453918D01*
X33558600Y59647422D01*
X33658429Y59861508D01*
X33658432Y59861514D01*
X33715636Y60075000D01*
X32818686Y60075000D01*
X32844493Y60115156D01*
X32885000Y60253111D01*
X32885000Y60396889D01*
X32844493Y60534844D01*
X32818686Y60575000D01*
X33715636Y60575000D01*
X33715635Y60575001D01*
X33658432Y60788487D01*
X33658429Y60788493D01*
X33558600Y61002578D01*
X33558599Y61002580D01*
X33423113Y61196074D01*
X33423108Y61196080D01*
X33256078Y61363110D01*
X33070405Y61493121D01*
X33026780Y61547698D01*
X33019588Y61617196D01*
X33051110Y61679551D01*
X33070406Y61696270D01*
X33091413Y61710979D01*
X33256401Y61826505D01*
X33423495Y61993599D01*
X33559035Y62187170D01*
X33658903Y62401337D01*
X33720063Y62629592D01*
X33740659Y62865000D01*
X33720063Y63100408D01*
X33658903Y63328663D01*
X33559035Y63542829D01*
X33482228Y63652522D01*
X33423494Y63736403D01*
X33256402Y63903494D01*
X33256396Y63903499D01*
X33091716Y64018809D01*
X33048091Y64073386D01*
X33040897Y64142884D01*
X33072420Y64205239D01*
X33117846Y64235933D01*
X34171080Y64646049D01*
X34216073Y64654500D01*
X40982110Y64654500D01*
X41023754Y64647298D01*
G37*
%TD.AperFunction*%
%TA.AperFunction,Conductor*%
G36*
X46531619Y85089416D02*
G01*
X46663628Y85082497D01*
X46847027Y85072197D01*
X46853212Y85071535D01*
X47005647Y85047392D01*
X47168194Y85019774D01*
X47173811Y85018547D01*
X47326693Y84977582D01*
X47419122Y84950954D01*
X47481724Y84932918D01*
X47486759Y84931231D01*
X47636183Y84873873D01*
X47784007Y84812642D01*
X47788412Y84810612D01*
X47854180Y84777101D01*
X47931921Y84737489D01*
X48007428Y84695759D01*
X48071480Y84660359D01*
X48075215Y84658118D01*
X48149487Y84609885D01*
X48210872Y84570020D01*
X48298357Y84507947D01*
X48340764Y84477858D01*
X48343886Y84475490D01*
X48468748Y84374379D01*
X48471034Y84372433D01*
X48588721Y84267262D01*
X48591248Y84264872D01*
X48704870Y84151250D01*
X48707260Y84148723D01*
X48812431Y84031036D01*
X48814385Y84028740D01*
X48915480Y83903898D01*
X48917862Y83900757D01*
X49010019Y83770873D01*
X49063758Y83688125D01*
X49098106Y83635233D01*
X49100364Y83631469D01*
X49177488Y83491922D01*
X49250604Y83348425D01*
X49252643Y83344003D01*
X49313877Y83196171D01*
X49371221Y83046783D01*
X49372916Y83041727D01*
X49417579Y82886703D01*
X49458541Y82733829D01*
X49459778Y82728165D01*
X49487394Y82565631D01*
X49511530Y82413242D01*
X49512196Y82407015D01*
X49522509Y82223383D01*
X49529415Y82091623D01*
X49529500Y82088377D01*
X49529500Y3001624D01*
X49529415Y2998378D01*
X49522509Y2866618D01*
X49512196Y2682987D01*
X49511530Y2676760D01*
X49487394Y2524370D01*
X49459778Y2361837D01*
X49458541Y2356173D01*
X49417579Y2203298D01*
X49372916Y2048275D01*
X49371221Y2043219D01*
X49313877Y1893830D01*
X49252643Y1745999D01*
X49250604Y1741577D01*
X49177488Y1598079D01*
X49100364Y1458533D01*
X49098097Y1454754D01*
X49010019Y1319128D01*
X48917862Y1189245D01*
X48915480Y1186104D01*
X48814385Y1061262D01*
X48812431Y1058966D01*
X48707260Y941279D01*
X48704870Y938752D01*
X48591248Y825130D01*
X48588721Y822740D01*
X48471034Y717569D01*
X48468738Y715615D01*
X48343896Y614520D01*
X48340755Y612138D01*
X48210872Y519981D01*
X48075246Y431903D01*
X48071467Y429636D01*
X47931921Y352512D01*
X47788423Y279396D01*
X47784001Y277357D01*
X47636170Y216123D01*
X47486781Y158779D01*
X47481725Y157084D01*
X47326702Y112421D01*
X47173827Y71459D01*
X47168163Y70222D01*
X47005630Y42606D01*
X46853240Y18470D01*
X46847013Y17804D01*
X46663382Y7491D01*
X46531622Y585D01*
X46528376Y500D01*
X3001624Y500D01*
X2998378Y585D01*
X2866617Y7491D01*
X2682985Y17804D01*
X2676758Y18470D01*
X2524369Y42606D01*
X2361835Y70222D01*
X2356171Y71459D01*
X2203297Y112421D01*
X2048273Y157084D01*
X2043217Y158779D01*
X1893829Y216123D01*
X1745997Y277357D01*
X1741575Y279396D01*
X1598078Y352512D01*
X1458531Y429636D01*
X1454767Y431894D01*
X1401875Y466242D01*
X1319127Y519981D01*
X1189243Y612138D01*
X1186102Y614520D01*
X1061260Y715615D01*
X1058964Y717569D01*
X941277Y822740D01*
X938750Y825130D01*
X825128Y938752D01*
X822738Y941279D01*
X717567Y1058966D01*
X715613Y1061262D01*
X676848Y1109133D01*
X614510Y1186114D01*
X612136Y1189245D01*
X519980Y1319128D01*
X487406Y1369285D01*
X431882Y1454785D01*
X429641Y1458520D01*
X394241Y1522572D01*
X352511Y1598079D01*
X312899Y1675820D01*
X279388Y1741588D01*
X277358Y1745993D01*
X216122Y1893830D01*
X158769Y2043241D01*
X157082Y2048276D01*
X112420Y2203298D01*
X107316Y2222348D01*
X71453Y2356189D01*
X70226Y2361806D01*
X42601Y2524394D01*
X18465Y2676788D01*
X17803Y2682973D01*
X7490Y2866618D01*
X584Y2998380D01*
X500Y3001623D01*
X500Y4377237D01*
X2590787Y4377237D01*
X2620413Y4107987D01*
X2620415Y4107976D01*
X2687261Y3852288D01*
X2688928Y3845912D01*
X2794870Y3596610D01*
X2866998Y3478425D01*
X2935979Y3365395D01*
X2935986Y3365385D01*
X3109253Y3157181D01*
X3109259Y3157176D01*
X3310998Y2976418D01*
X3536910Y2826956D01*
X3782176Y2711980D01*
X3782183Y2711978D01*
X3782185Y2711977D01*
X4041557Y2633943D01*
X4041564Y2633942D01*
X4041569Y2633940D01*
X4309561Y2594500D01*
X4309566Y2594500D01*
X4512636Y2594500D01*
X4564133Y2598270D01*
X4715156Y2609323D01*
X4827758Y2634407D01*
X4979546Y2668218D01*
X4979548Y2668219D01*
X4979553Y2668220D01*
X5232558Y2764986D01*
X5468777Y2897559D01*
X5683177Y3063112D01*
X5871186Y3258119D01*
X6028799Y3478421D01*
X6102787Y3622331D01*
X6152649Y3719310D01*
X6152651Y3719316D01*
X6152656Y3719325D01*
X6240118Y3975695D01*
X6289319Y4242067D01*
X6299212Y4512765D01*
X6269586Y4782018D01*
X6201072Y5044088D01*
X6095130Y5293390D01*
X5954018Y5524610D01*
X5924082Y5560582D01*
X5780746Y5732820D01*
X5780740Y5732825D01*
X5579002Y5913582D01*
X5353092Y6063043D01*
X5340771Y6068819D01*
X5107824Y6178020D01*
X5107819Y6178022D01*
X5107814Y6178024D01*
X4848442Y6256058D01*
X4848428Y6256061D01*
X4732791Y6273079D01*
X4580439Y6295500D01*
X4377369Y6295500D01*
X4377364Y6295500D01*
X4174844Y6280677D01*
X4174831Y6280675D01*
X3910453Y6221783D01*
X3910446Y6221780D01*
X3657439Y6125013D01*
X3421226Y5992443D01*
X3206822Y5826888D01*
X3018822Y5631891D01*
X3018816Y5631884D01*
X2861202Y5411581D01*
X2861199Y5411576D01*
X2737350Y5170691D01*
X2737343Y5170673D01*
X2649884Y4914315D01*
X2649881Y4914301D01*
X2600681Y4647932D01*
X2600680Y4647925D01*
X2590787Y4377237D01*
X500Y4377237D01*
X500Y17175000D01*
X14579341Y17175000D01*
X14599936Y16939597D01*
X14599938Y16939587D01*
X14661094Y16711345D01*
X14661096Y16711341D01*
X14661097Y16711337D01*
X14675087Y16681336D01*
X14760965Y16497170D01*
X14760967Y16497166D01*
X14869281Y16342479D01*
X14896505Y16303599D01*
X15063599Y16136505D01*
X15230439Y16019682D01*
X15249594Y16006270D01*
X15293219Y15951693D01*
X15300413Y15882195D01*
X15268890Y15819840D01*
X15249595Y15803120D01*
X15063922Y15673110D01*
X15063920Y15673109D01*
X14896891Y15506080D01*
X14896886Y15506074D01*
X14761400Y15312580D01*
X14761399Y15312578D01*
X14661570Y15098493D01*
X14661567Y15098487D01*
X14604364Y14885001D01*
X14604364Y14885000D01*
X15501314Y14885000D01*
X15475507Y14844844D01*
X15435000Y14706889D01*
X15435000Y14563111D01*
X15475507Y14425156D01*
X15501314Y14385000D01*
X14604364Y14385000D01*
X14661567Y14171514D01*
X14661570Y14171508D01*
X14761399Y13957422D01*
X14896894Y13763918D01*
X15063917Y13596895D01*
X15257421Y13461400D01*
X15471507Y13361571D01*
X15471516Y13361567D01*
X15685000Y13304366D01*
X15685000Y14199499D01*
X15792685Y14150320D01*
X15899237Y14135000D01*
X15970763Y14135000D01*
X16077315Y14150320D01*
X16185000Y14199499D01*
X16185000Y13304367D01*
X16398483Y13361567D01*
X16398492Y13361571D01*
X16612578Y13461400D01*
X16806082Y13596895D01*
X16973105Y13763918D01*
X17108600Y13957422D01*
X17208429Y14171508D01*
X17208432Y14171514D01*
X17265636Y14385000D01*
X16368686Y14385000D01*
X16394493Y14425156D01*
X16435000Y14563111D01*
X16435000Y14706889D01*
X16394493Y14844844D01*
X16368686Y14885000D01*
X17199047Y14885000D01*
X17266086Y14865315D01*
X17286728Y14848681D01*
X19184197Y12951212D01*
X19194022Y12938949D01*
X19194243Y12939131D01*
X19199214Y12933122D01*
X19225217Y12908705D01*
X19249635Y12885774D01*
X19270529Y12864880D01*
X19276011Y12860627D01*
X19280443Y12856843D01*
X19314418Y12824938D01*
X19331976Y12815286D01*
X19348233Y12804607D01*
X19364064Y12792327D01*
X19383737Y12783814D01*
X19406833Y12773818D01*
X19412077Y12771250D01*
X19452908Y12748803D01*
X19465523Y12745565D01*
X19472305Y12743823D01*
X19490719Y12737519D01*
X19509104Y12729562D01*
X19555157Y12722268D01*
X19560826Y12721094D01*
X19605981Y12709500D01*
X19626016Y12709500D01*
X19645413Y12707974D01*
X19665196Y12704840D01*
X19711584Y12709225D01*
X19717422Y12709500D01*
X25724548Y12709500D01*
X25791587Y12689815D01*
X25812229Y12673181D01*
X26643181Y11842229D01*
X26676666Y11780906D01*
X26679500Y11754548D01*
X26679500Y8838750D01*
X26667275Y8785063D01*
X26143036Y7693617D01*
X26096267Y7641709D01*
X26028858Y7623327D01*
X25962213Y7644307D01*
X25929686Y7676181D01*
X25803494Y7856403D01*
X25636402Y8023494D01*
X25636395Y8023499D01*
X25442834Y8159033D01*
X25442830Y8159035D01*
X25371727Y8192191D01*
X25228663Y8258903D01*
X25228659Y8258904D01*
X25228655Y8258906D01*
X25000413Y8320062D01*
X25000403Y8320064D01*
X24765001Y8340659D01*
X24764999Y8340659D01*
X24529596Y8320064D01*
X24529586Y8320062D01*
X24301344Y8258906D01*
X24301335Y8258902D01*
X24087171Y8159036D01*
X24087169Y8159035D01*
X23893597Y8023495D01*
X23726508Y7856406D01*
X23596574Y7670840D01*
X23541997Y7627216D01*
X23472498Y7620023D01*
X23410144Y7651545D01*
X23393429Y7670836D01*
X23263495Y7856401D01*
X23263493Y7856404D01*
X23096402Y8023494D01*
X23096395Y8023499D01*
X22902834Y8159033D01*
X22902830Y8159035D01*
X22831727Y8192191D01*
X22688663Y8258903D01*
X22688659Y8258904D01*
X22688655Y8258906D01*
X22460413Y8320062D01*
X22460403Y8320064D01*
X22225001Y8340659D01*
X22224999Y8340659D01*
X21989596Y8320064D01*
X21989586Y8320062D01*
X21761344Y8258906D01*
X21761335Y8258902D01*
X21547171Y8159036D01*
X21547169Y8159035D01*
X21353600Y8023497D01*
X21231284Y7901181D01*
X21169961Y7867697D01*
X21100269Y7872681D01*
X21044336Y7914553D01*
X21027421Y7945530D01*
X20978354Y8077087D01*
X20978350Y8077094D01*
X20892190Y8192188D01*
X20892187Y8192191D01*
X20777093Y8278351D01*
X20777086Y8278355D01*
X20642379Y8328597D01*
X20642372Y8328599D01*
X20582844Y8335000D01*
X19935000Y8335000D01*
X19935000Y7420502D01*
X19827315Y7469680D01*
X19720763Y7485000D01*
X19649237Y7485000D01*
X19542685Y7469680D01*
X19435000Y7420502D01*
X19435000Y8335000D01*
X18787155Y8335000D01*
X18727627Y8328599D01*
X18727620Y8328597D01*
X18592913Y8278355D01*
X18592906Y8278351D01*
X18477812Y8192191D01*
X18477809Y8192188D01*
X18391649Y8077094D01*
X18391645Y8077087D01*
X18341403Y7942380D01*
X18341401Y7942373D01*
X18335000Y7882845D01*
X18335000Y7235000D01*
X19251314Y7235000D01*
X19225507Y7194844D01*
X19185000Y7056889D01*
X19185000Y6913111D01*
X19225507Y6775156D01*
X19251314Y6735000D01*
X18335000Y6735000D01*
X18335000Y6087156D01*
X18341401Y6027628D01*
X18341403Y6027621D01*
X18391645Y5892914D01*
X18391649Y5892907D01*
X18477809Y5777813D01*
X18477812Y5777810D01*
X18592906Y5691650D01*
X18592913Y5691646D01*
X18727620Y5641404D01*
X18727627Y5641402D01*
X18787155Y5635001D01*
X18787172Y5635000D01*
X19435000Y5635000D01*
X19435000Y6549499D01*
X19542685Y6500320D01*
X19649237Y6485000D01*
X19720763Y6485000D01*
X19827315Y6500320D01*
X19935000Y6549499D01*
X19935000Y5635000D01*
X20582828Y5635000D01*
X20582844Y5635001D01*
X20642372Y5641402D01*
X20642379Y5641404D01*
X20777086Y5691646D01*
X20777093Y5691650D01*
X20892187Y5777810D01*
X20892190Y5777813D01*
X20978350Y5892907D01*
X20978354Y5892914D01*
X21027422Y6024471D01*
X21069293Y6080405D01*
X21134757Y6104822D01*
X21203030Y6089970D01*
X21231285Y6068819D01*
X21353599Y5946505D01*
X21400618Y5913582D01*
X21547165Y5810968D01*
X21547167Y5810967D01*
X21547170Y5810965D01*
X21656832Y5759829D01*
X21674047Y5750058D01*
X21688211Y5740448D01*
X21688213Y5740448D01*
X21688216Y5740445D01*
X22857762Y5170673D01*
X22892117Y5153936D01*
X22925490Y5130142D01*
X24096267Y3959366D01*
X24108048Y3945734D01*
X24122390Y3926470D01*
X24162420Y3892881D01*
X24166392Y3889241D01*
X24172224Y3883409D01*
X24172227Y3883406D01*
X24197947Y3863069D01*
X24256788Y3813696D01*
X24262818Y3809730D01*
X24262785Y3809681D01*
X24269143Y3805631D01*
X24269175Y3805681D01*
X24275320Y3801891D01*
X24275323Y3801889D01*
X24344936Y3769428D01*
X24413567Y3734960D01*
X24413572Y3734959D01*
X24420361Y3732487D01*
X24420340Y3732430D01*
X24427455Y3729957D01*
X24427475Y3730014D01*
X24434330Y3727742D01*
X24509558Y3712210D01*
X24584279Y3694500D01*
X24584289Y3694500D01*
X24591452Y3693662D01*
X24591444Y3693603D01*
X24598945Y3692836D01*
X24598951Y3692895D01*
X24606140Y3692266D01*
X24606144Y3692267D01*
X24606145Y3692266D01*
X24682918Y3694500D01*
X27241295Y3694500D01*
X27259265Y3693191D01*
X27283023Y3689711D01*
X27335068Y3694265D01*
X27340470Y3694500D01*
X27348704Y3694500D01*
X27348709Y3694500D01*
X27360327Y3695859D01*
X27381276Y3698307D01*
X27394028Y3699423D01*
X27457797Y3705001D01*
X27457805Y3705004D01*
X27464866Y3706461D01*
X27464878Y3706402D01*
X27472243Y3708035D01*
X27472229Y3708094D01*
X27479246Y3709759D01*
X27479255Y3709759D01*
X27551423Y3736026D01*
X27624334Y3760186D01*
X27624343Y3760193D01*
X27630882Y3763240D01*
X27630908Y3763184D01*
X27637690Y3766468D01*
X27637663Y3766522D01*
X27644106Y3769760D01*
X27644117Y3769763D01*
X27708283Y3811966D01*
X27773656Y3852288D01*
X27773662Y3852295D01*
X27779325Y3856771D01*
X27779363Y3856723D01*
X27785200Y3861478D01*
X27785161Y3861525D01*
X27790696Y3866170D01*
X27843385Y3922017D01*
X28298605Y4377237D01*
X43230787Y4377237D01*
X43260413Y4107987D01*
X43260415Y4107976D01*
X43327261Y3852288D01*
X43328928Y3845912D01*
X43434870Y3596610D01*
X43506998Y3478425D01*
X43575979Y3365395D01*
X43575986Y3365385D01*
X43749253Y3157181D01*
X43749259Y3157176D01*
X43950998Y2976418D01*
X44176910Y2826956D01*
X44422176Y2711980D01*
X44422183Y2711978D01*
X44422185Y2711977D01*
X44681557Y2633943D01*
X44681564Y2633942D01*
X44681569Y2633940D01*
X44949561Y2594500D01*
X44949566Y2594500D01*
X45152636Y2594500D01*
X45204133Y2598270D01*
X45355156Y2609323D01*
X45467758Y2634407D01*
X45619546Y2668218D01*
X45619548Y2668219D01*
X45619553Y2668220D01*
X45872558Y2764986D01*
X46108777Y2897559D01*
X46323177Y3063112D01*
X46511186Y3258119D01*
X46668799Y3478421D01*
X46742787Y3622331D01*
X46792649Y3719310D01*
X46792651Y3719316D01*
X46792656Y3719325D01*
X46880118Y3975695D01*
X46929319Y4242067D01*
X46939212Y4512765D01*
X46909586Y4782018D01*
X46841072Y5044088D01*
X46735130Y5293390D01*
X46594018Y5524610D01*
X46564082Y5560582D01*
X46420746Y5732820D01*
X46420740Y5732825D01*
X46219002Y5913582D01*
X45993092Y6063043D01*
X45980771Y6068819D01*
X45747824Y6178020D01*
X45747819Y6178022D01*
X45747814Y6178024D01*
X45488442Y6256058D01*
X45488428Y6256061D01*
X45372791Y6273079D01*
X45220439Y6295500D01*
X45017369Y6295500D01*
X45017364Y6295500D01*
X44814844Y6280677D01*
X44814831Y6280675D01*
X44550453Y6221783D01*
X44550446Y6221780D01*
X44297439Y6125013D01*
X44061226Y5992443D01*
X43846822Y5826888D01*
X43658822Y5631891D01*
X43658816Y5631884D01*
X43501202Y5411581D01*
X43501199Y5411576D01*
X43377350Y5170691D01*
X43377343Y5170673D01*
X43289884Y4914315D01*
X43289881Y4914301D01*
X43240681Y4647932D01*
X43240680Y4647925D01*
X43230787Y4377237D01*
X28298605Y4377237D01*
X31597548Y7676181D01*
X32870642Y8949276D01*
X32884271Y8961053D01*
X32903530Y8975390D01*
X32937101Y9015399D01*
X32940761Y9019394D01*
X32946590Y9025222D01*
X32966941Y9050961D01*
X32972948Y9058121D01*
X33016302Y9109786D01*
X33016306Y9109795D01*
X33020274Y9115825D01*
X33020325Y9115792D01*
X33024372Y9122144D01*
X33024320Y9122176D01*
X33028112Y9128325D01*
X33060575Y9197942D01*
X33095036Y9266560D01*
X33095040Y9266567D01*
X33095042Y9266579D01*
X33097509Y9273354D01*
X33097567Y9273333D01*
X33100043Y9280454D01*
X33099986Y9280472D01*
X33102257Y9287327D01*
X33117792Y9362566D01*
X33135498Y9437272D01*
X33135500Y9437279D01*
X33135500Y9437290D01*
X33136338Y9444452D01*
X33136398Y9444445D01*
X33137164Y9451945D01*
X33137105Y9451950D01*
X33137734Y9459140D01*
X33135500Y9535918D01*
X33135500Y12698123D01*
X33155185Y12765162D01*
X33158190Y12769625D01*
X33535656Y13304366D01*
X33642296Y13455439D01*
X33644084Y13458032D01*
X33648466Y13464382D01*
X33653874Y13475568D01*
X33666238Y13495896D01*
X33678796Y13512669D01*
X33701351Y13573144D01*
X33703609Y13578430D01*
X33711097Y13593915D01*
X33713238Y13600655D01*
X33715622Y13610263D01*
X33717700Y13616981D01*
X33729091Y13647517D01*
X33735500Y13707127D01*
X33735499Y15502872D01*
X33729091Y15562483D01*
X33717901Y15592484D01*
X33678797Y15697329D01*
X33678793Y15697336D01*
X33592547Y15812545D01*
X33592544Y15812548D01*
X33477335Y15898794D01*
X33477328Y15898798D01*
X33345917Y15947811D01*
X33289983Y15989682D01*
X33265566Y16055147D01*
X33280418Y16123420D01*
X33301563Y16151668D01*
X33423495Y16273599D01*
X33559035Y16467170D01*
X33658903Y16681337D01*
X33720063Y16909592D01*
X33740659Y17145000D01*
X33720063Y17380408D01*
X33658903Y17608663D01*
X33559035Y17822829D01*
X33538029Y17852830D01*
X33423494Y18016403D01*
X33256402Y18183494D01*
X33256401Y18183495D01*
X33070405Y18313731D01*
X33026781Y18368308D01*
X33019588Y18437807D01*
X33051110Y18500161D01*
X33070405Y18516881D01*
X33256082Y18646895D01*
X33423105Y18813918D01*
X33558600Y19007422D01*
X33658429Y19221508D01*
X33658432Y19221514D01*
X33715636Y19435000D01*
X32818686Y19435000D01*
X32844493Y19475156D01*
X32885000Y19613111D01*
X32885000Y19756889D01*
X32844493Y19894844D01*
X32818686Y19935000D01*
X33715636Y19935000D01*
X33715635Y19935001D01*
X33658432Y20148487D01*
X33658429Y20148493D01*
X33558600Y20362578D01*
X33558599Y20362580D01*
X33423113Y20556074D01*
X33423108Y20556080D01*
X33256082Y20723106D01*
X33070404Y20853120D01*
X33026779Y20907697D01*
X33019587Y20977196D01*
X33051109Y21039550D01*
X33070399Y21056266D01*
X33256401Y21186505D01*
X33423495Y21353599D01*
X33559035Y21547170D01*
X33645976Y21733617D01*
X33651350Y21743927D01*
X33652059Y21745950D01*
X33654369Y21751615D01*
X33658901Y21761332D01*
X33658901Y21761333D01*
X33658900Y21761333D01*
X33658903Y21761337D01*
X33662943Y21776419D01*
X33664319Y21780871D01*
X34120543Y23080422D01*
X34139563Y23115345D01*
X34141673Y23118064D01*
X34160185Y23160847D01*
X34162738Y23166059D01*
X34185197Y23206908D01*
X34190180Y23226320D01*
X34196481Y23244720D01*
X34204437Y23263104D01*
X34211729Y23309148D01*
X34212906Y23314829D01*
X34224500Y23359981D01*
X34224500Y23380017D01*
X34226027Y23399418D01*
X34229160Y23419196D01*
X34224775Y23465585D01*
X34224500Y23471423D01*
X34224500Y30918158D01*
X34238015Y30974453D01*
X34248195Y30994433D01*
X34248197Y30994436D01*
X34249978Y31002405D01*
X34257189Y31024599D01*
X34260438Y31032104D01*
X34269426Y31088864D01*
X34270148Y31092647D01*
X34282672Y31148668D01*
X34282415Y31156830D01*
X34283882Y31180129D01*
X34285160Y31188196D01*
X34279755Y31245366D01*
X34279512Y31249230D01*
X34277709Y31306628D01*
X34275430Y31314472D01*
X34271055Y31337405D01*
X34270287Y31345533D01*
X34250833Y31399566D01*
X34249631Y31403268D01*
X34233617Y31458390D01*
X34229463Y31465414D01*
X34219521Y31486541D01*
X34216754Y31494227D01*
X34216752Y31494231D01*
X34184484Y31541712D01*
X34182397Y31545001D01*
X34151365Y31597473D01*
X34142656Y31615324D01*
X33645178Y32883932D01*
X33618503Y32941155D01*
X33615230Y32946630D01*
X33615284Y32946663D01*
X33605838Y32962459D01*
X33559035Y33062828D01*
X33559034Y33062830D01*
X33559033Y33062831D01*
X33423495Y33256401D01*
X33423494Y33256403D01*
X33256402Y33423494D01*
X33256401Y33423495D01*
X33070405Y33553731D01*
X33026781Y33608308D01*
X33019588Y33677807D01*
X33051110Y33740161D01*
X33070405Y33756881D01*
X33256082Y33886895D01*
X33423105Y34053918D01*
X33558600Y34247422D01*
X33658429Y34461508D01*
X33658432Y34461514D01*
X33715636Y34675000D01*
X32818686Y34675000D01*
X32844493Y34715156D01*
X32885000Y34853111D01*
X32885000Y34996889D01*
X32844493Y35134844D01*
X32818686Y35175000D01*
X33715636Y35175000D01*
X33715635Y35175001D01*
X33658432Y35388487D01*
X33658429Y35388493D01*
X33558600Y35602578D01*
X33558599Y35602580D01*
X33423113Y35796074D01*
X33423108Y35796080D01*
X33256078Y35963110D01*
X33070405Y36093121D01*
X33026780Y36147698D01*
X33019588Y36217196D01*
X33051110Y36279551D01*
X33070406Y36296270D01*
X33256401Y36426505D01*
X33423495Y36593599D01*
X33559035Y36787170D01*
X33658903Y37001337D01*
X33720063Y37229592D01*
X33740659Y37465000D01*
X33720063Y37700408D01*
X33658903Y37928663D01*
X33559035Y38142829D01*
X33423495Y38336401D01*
X33423494Y38336403D01*
X33256402Y38503494D01*
X33256396Y38503499D01*
X33070842Y38633425D01*
X33027217Y38688002D01*
X33020023Y38757500D01*
X33051546Y38819855D01*
X33070842Y38836575D01*
X33093026Y38852109D01*
X33256401Y38966505D01*
X33423495Y39133599D01*
X33559035Y39327170D01*
X33658903Y39541337D01*
X33720063Y39769592D01*
X33740659Y40005000D01*
X33720063Y40240408D01*
X33658903Y40468663D01*
X33559035Y40682829D01*
X33423495Y40876401D01*
X33423494Y40876403D01*
X33256402Y41043494D01*
X33256396Y41043499D01*
X33070842Y41173425D01*
X33027217Y41228002D01*
X33020023Y41297500D01*
X33051546Y41359855D01*
X33070842Y41376575D01*
X33093026Y41392109D01*
X33256401Y41506505D01*
X33423495Y41673599D01*
X33559035Y41867170D01*
X33658903Y42081337D01*
X33720063Y42309592D01*
X33740659Y42545000D01*
X33720063Y42780408D01*
X33658903Y43008663D01*
X33559035Y43222829D01*
X33423495Y43416401D01*
X33423494Y43416403D01*
X33256402Y43583494D01*
X33256396Y43583499D01*
X33070842Y43713425D01*
X33027217Y43768002D01*
X33020023Y43837500D01*
X33051546Y43899855D01*
X33070842Y43916575D01*
X33096010Y43934198D01*
X33256401Y44046505D01*
X33423495Y44213599D01*
X33559035Y44407170D01*
X33658903Y44621337D01*
X33720063Y44849592D01*
X33740659Y45085000D01*
X33720063Y45320408D01*
X33658903Y45548663D01*
X33559035Y45762829D01*
X33423495Y45956401D01*
X33423494Y45956403D01*
X33256402Y46123494D01*
X33256401Y46123495D01*
X33070405Y46253731D01*
X33026781Y46308308D01*
X33019588Y46377807D01*
X33051110Y46440161D01*
X33070405Y46456881D01*
X33256082Y46586895D01*
X33423105Y46753918D01*
X33558600Y46947422D01*
X33658429Y47161508D01*
X33658432Y47161514D01*
X33715636Y47375000D01*
X32818686Y47375000D01*
X32844493Y47415156D01*
X32885000Y47553111D01*
X32885000Y47696889D01*
X32844493Y47834844D01*
X32818686Y47875000D01*
X33715636Y47875000D01*
X33715635Y47875001D01*
X33658432Y48088487D01*
X33658429Y48088493D01*
X33558600Y48302578D01*
X33558599Y48302580D01*
X33423113Y48496074D01*
X33423108Y48496080D01*
X33256078Y48663110D01*
X33070405Y48793121D01*
X33026780Y48847698D01*
X33019588Y48917196D01*
X33051110Y48979551D01*
X33070406Y48996270D01*
X33072420Y48997680D01*
X33256401Y49126505D01*
X33423495Y49293599D01*
X33559035Y49487170D01*
X33658903Y49701337D01*
X33720063Y49929592D01*
X33740659Y50165000D01*
X33720063Y50400408D01*
X33658903Y50628663D01*
X33559035Y50842829D01*
X33482228Y50952522D01*
X33423494Y51036403D01*
X33256402Y51203494D01*
X33256396Y51203499D01*
X33070842Y51333425D01*
X33027217Y51388002D01*
X33020023Y51457500D01*
X33051546Y51519855D01*
X33070842Y51536575D01*
X33093026Y51552109D01*
X33256401Y51666505D01*
X33423495Y51833599D01*
X33559035Y52027170D01*
X33658903Y52241337D01*
X33720063Y52469592D01*
X33740659Y52705000D01*
X33720063Y52940408D01*
X33658903Y53168663D01*
X33559035Y53382829D01*
X33423495Y53576401D01*
X33423494Y53576403D01*
X33256402Y53743494D01*
X33256396Y53743499D01*
X33117248Y53840931D01*
X33073623Y53895508D01*
X33066429Y53965006D01*
X33097952Y54027361D01*
X33153979Y54061641D01*
X33632129Y54199664D01*
X33701998Y54199344D01*
X33754200Y54168209D01*
X40681197Y47241212D01*
X40691022Y47228949D01*
X40691243Y47229131D01*
X40696214Y47223122D01*
X40714471Y47205978D01*
X40746635Y47175774D01*
X40767529Y47154880D01*
X40773011Y47150627D01*
X40777443Y47146843D01*
X40811418Y47114938D01*
X40828976Y47105286D01*
X40845235Y47094605D01*
X40861064Y47082327D01*
X40903838Y47063818D01*
X40909056Y47061262D01*
X40949908Y47038803D01*
X40969316Y47033820D01*
X40987717Y47027520D01*
X41006104Y47019563D01*
X41043775Y47013597D01*
X41080982Y47001449D01*
X41925388Y46568194D01*
X41931563Y46564473D01*
X41932414Y46563983D01*
X41932419Y46563979D01*
X41945409Y46557922D01*
X42036426Y46511222D01*
X42046453Y46506575D01*
X42089227Y46490454D01*
X42091551Y46489578D01*
X42095883Y46487755D01*
X42125970Y46473724D01*
X42125977Y46473722D01*
X42131050Y46471876D01*
X42130376Y46470026D01*
X42182664Y46438164D01*
X42213201Y46375321D01*
X42204916Y46305944D01*
X42160437Y46252061D01*
X42130905Y46238566D01*
X42131236Y46237658D01*
X42126140Y46235803D01*
X41932667Y46145586D01*
X41876967Y46106586D01*
X42500599Y45482954D01*
X42419852Y45470165D01*
X42306955Y45412641D01*
X42217359Y45323045D01*
X42159835Y45210148D01*
X42147046Y45129401D01*
X41523414Y45753033D01*
X41484414Y45697333D01*
X41394197Y45503860D01*
X41394194Y45503854D01*
X41338945Y45297663D01*
X41338944Y45297655D01*
X41320340Y45085003D01*
X41320340Y45084998D01*
X41338944Y44872346D01*
X41338945Y44872338D01*
X41394194Y44666147D01*
X41394197Y44666141D01*
X41484412Y44472672D01*
X41484413Y44472670D01*
X41523415Y44416970D01*
X41523416Y44416969D01*
X42147046Y45040600D01*
X42159835Y44959852D01*
X42217359Y44846955D01*
X42306955Y44757359D01*
X42419852Y44699835D01*
X42500599Y44687047D01*
X41876967Y44063417D01*
X41932670Y44024414D01*
X42126140Y43934198D01*
X42126146Y43934195D01*
X42332337Y43878946D01*
X42332345Y43878945D01*
X42544998Y43860340D01*
X42545002Y43860340D01*
X42757654Y43878945D01*
X42757662Y43878946D01*
X42963853Y43934195D01*
X42963859Y43934198D01*
X43157330Y44024414D01*
X43157336Y44024418D01*
X43213031Y44063416D01*
X42589401Y44687047D01*
X42670148Y44699835D01*
X42783045Y44757359D01*
X42872641Y44846955D01*
X42930165Y44959852D01*
X42942953Y45040600D01*
X43566584Y44416969D01*
X43605582Y44472664D01*
X43605586Y44472670D01*
X43695802Y44666141D01*
X43695805Y44666147D01*
X43751054Y44872338D01*
X43751055Y44872346D01*
X43769660Y45084998D01*
X43769660Y45085003D01*
X43751055Y45297655D01*
X43751054Y45297663D01*
X43695805Y45503854D01*
X43695802Y45503860D01*
X43605586Y45697330D01*
X43566583Y45753033D01*
X42942953Y45129402D01*
X42930165Y45210148D01*
X42872641Y45323045D01*
X42783045Y45412641D01*
X42670148Y45470165D01*
X42589401Y45482954D01*
X43213031Y46106584D01*
X43213030Y46106585D01*
X43157330Y46145587D01*
X43157328Y46145588D01*
X42963859Y46235803D01*
X42958764Y46237658D01*
X42959455Y46239557D01*
X42907325Y46271333D01*
X42876797Y46334180D01*
X42885093Y46403556D01*
X42929579Y46457433D01*
X42959257Y46470986D01*
X42958936Y46471870D01*
X42964013Y46473720D01*
X42964030Y46473724D01*
X43157581Y46563979D01*
X43332519Y46686471D01*
X43483529Y46837481D01*
X43606021Y47012419D01*
X43696276Y47205970D01*
X43751549Y47412253D01*
X43770162Y47625000D01*
X43751549Y47837747D01*
X43696276Y48044030D01*
X43606021Y48237581D01*
X43483529Y48412519D01*
X43483527Y48412522D01*
X43332521Y48563528D01*
X43157578Y48686023D01*
X43157579Y48686023D01*
X43021927Y48749278D01*
X42964030Y48776276D01*
X42964023Y48776278D01*
X42958936Y48778130D01*
X42959709Y48780254D01*
X42908305Y48811576D01*
X42877766Y48874419D01*
X42886050Y48943796D01*
X42930528Y48997680D01*
X42959315Y49010828D01*
X42958936Y49011870D01*
X42964013Y49013720D01*
X42964030Y49013724D01*
X43157581Y49103979D01*
X43332519Y49226471D01*
X43483529Y49377481D01*
X43606021Y49552419D01*
X43696276Y49745970D01*
X43751549Y49952253D01*
X43770162Y50165000D01*
X43751549Y50377747D01*
X43696276Y50584030D01*
X43606021Y50777581D01*
X43483529Y50952519D01*
X43483527Y50952522D01*
X43332521Y51103528D01*
X43157578Y51226023D01*
X43157579Y51226023D01*
X43028547Y51286191D01*
X42964030Y51316276D01*
X42964026Y51316277D01*
X42964022Y51316279D01*
X42757752Y51371548D01*
X42757748Y51371549D01*
X42757747Y51371549D01*
X42757746Y51371550D01*
X42757741Y51371550D01*
X42545002Y51390162D01*
X42544998Y51390162D01*
X42332258Y51371550D01*
X42332247Y51371548D01*
X42125977Y51316279D01*
X42125968Y51316275D01*
X41932421Y51226023D01*
X41757478Y51103528D01*
X41606472Y50952522D01*
X41483977Y50777579D01*
X41393725Y50584032D01*
X41393721Y50584023D01*
X41338452Y50377753D01*
X41338450Y50377742D01*
X41319838Y50165002D01*
X41319838Y50164999D01*
X41338450Y49952259D01*
X41338452Y49952248D01*
X41393721Y49745978D01*
X41393723Y49745974D01*
X41393724Y49745970D01*
X41436171Y49654942D01*
X41483977Y49552422D01*
X41606472Y49377479D01*
X41757478Y49226473D01*
X41757481Y49226471D01*
X41932419Y49103979D01*
X41932421Y49103978D01*
X41932420Y49103978D01*
X41996936Y49073894D01*
X42125970Y49013724D01*
X42125983Y49013721D01*
X42131064Y49011870D01*
X42130292Y49009750D01*
X42181710Y48978406D01*
X42212237Y48915558D01*
X42203939Y48846183D01*
X42159452Y48792307D01*
X42130688Y48779172D01*
X42131067Y48778132D01*
X42125974Y48776279D01*
X42068068Y48749278D01*
X42061221Y48746568D01*
X42033711Y48737526D01*
X42033706Y48737524D01*
X41391724Y48419217D01*
X41322918Y48407073D01*
X41258469Y48434056D01*
X41248961Y48442630D01*
X34365213Y55326378D01*
X34362515Y55329254D01*
X34338699Y55356321D01*
X34338692Y55356327D01*
X34338689Y55356330D01*
X34317181Y55374683D01*
X34313597Y55377994D01*
X34062803Y55628788D01*
X34052980Y55641050D01*
X34052759Y55640866D01*
X34047786Y55646877D01*
X33997364Y55694227D01*
X33982926Y55708665D01*
X33976475Y55715117D01*
X33970986Y55719375D01*
X33966561Y55723153D01*
X33932582Y55755062D01*
X33932580Y55755064D01*
X33932577Y55755065D01*
X33915029Y55764712D01*
X33898763Y55775396D01*
X33882936Y55787673D01*
X33840168Y55806181D01*
X33834922Y55808752D01*
X33794097Y55831195D01*
X33791057Y55832398D01*
X33756215Y55853364D01*
X33322380Y56223562D01*
X33295894Y56244672D01*
X33295895Y56244672D01*
X33295321Y56245129D01*
X33290120Y56249776D01*
X33256402Y56283494D01*
X33256401Y56283495D01*
X33076179Y56409688D01*
X33032555Y56464265D01*
X33025362Y56533764D01*
X33056884Y56596118D01*
X33093616Y56623038D01*
X33350665Y56746502D01*
X34185062Y57147275D01*
X34238749Y57159500D01*
X37382257Y57159500D01*
X37397877Y57157776D01*
X37397904Y57158061D01*
X37405660Y57157329D01*
X37405667Y57157327D01*
X37474814Y57159500D01*
X37504350Y57159500D01*
X37511228Y57160370D01*
X37517041Y57160828D01*
X37563627Y57162291D01*
X37582869Y57167883D01*
X37601912Y57171826D01*
X37621792Y57174336D01*
X37665122Y57191493D01*
X37670646Y57193383D01*
X37674396Y57194473D01*
X37715390Y57206382D01*
X37732629Y57216578D01*
X37750103Y57225138D01*
X37768727Y57232512D01*
X37768727Y57232513D01*
X37768732Y57232514D01*
X37806449Y57259918D01*
X37811305Y57263108D01*
X37851420Y57286830D01*
X37865589Y57301001D01*
X37880379Y57313632D01*
X37896587Y57325406D01*
X37926299Y57361324D01*
X37930212Y57365624D01*
X41120740Y60556152D01*
X41182060Y60589634D01*
X41251752Y60584650D01*
X41307685Y60542778D01*
X41332102Y60477314D01*
X41331946Y60457661D01*
X41320340Y60325003D01*
X41320340Y60324998D01*
X41338944Y60112346D01*
X41338945Y60112338D01*
X41394194Y59906147D01*
X41394197Y59906141D01*
X41484412Y59712672D01*
X41484413Y59712670D01*
X41523415Y59656970D01*
X41523415Y59656969D01*
X42147046Y60280601D01*
X42159835Y60199852D01*
X42217359Y60086955D01*
X42306955Y59997359D01*
X42419852Y59939835D01*
X42500599Y59927047D01*
X41876967Y59303417D01*
X41932670Y59264414D01*
X42126140Y59174198D01*
X42126146Y59174195D01*
X42332337Y59118946D01*
X42332345Y59118945D01*
X42544998Y59100340D01*
X42545002Y59100340D01*
X42757654Y59118945D01*
X42757662Y59118946D01*
X42963853Y59174195D01*
X42963859Y59174198D01*
X43157330Y59264414D01*
X43157336Y59264418D01*
X43213031Y59303416D01*
X42589401Y59927047D01*
X42670148Y59939835D01*
X42783045Y59997359D01*
X42872641Y60086955D01*
X42930165Y60199852D01*
X42942953Y60280600D01*
X43566584Y59656969D01*
X43605582Y59712664D01*
X43605586Y59712670D01*
X43695802Y59906141D01*
X43695805Y59906147D01*
X43751054Y60112338D01*
X43751055Y60112346D01*
X43769660Y60324998D01*
X43769660Y60325003D01*
X43751055Y60537655D01*
X43751054Y60537663D01*
X43695805Y60743854D01*
X43695802Y60743860D01*
X43605586Y60937330D01*
X43566583Y60993033D01*
X42942953Y60369402D01*
X42930165Y60450148D01*
X42872641Y60563045D01*
X42783045Y60652641D01*
X42670148Y60710165D01*
X42589399Y60722954D01*
X43213031Y61346585D01*
X43157330Y61385587D01*
X43157328Y61385588D01*
X42963859Y61475803D01*
X42958764Y61477658D01*
X42959455Y61479557D01*
X42907325Y61511333D01*
X42876797Y61574180D01*
X42885093Y61643556D01*
X42929579Y61697433D01*
X42959250Y61710979D01*
X42958927Y61711866D01*
X42964019Y61713720D01*
X42964024Y61713723D01*
X42964030Y61713724D01*
X42964657Y61714017D01*
X42969538Y61716046D01*
X42987400Y61722586D01*
X42989395Y61723360D01*
X42992291Y61724482D01*
X42992290Y61724482D01*
X43004520Y61730155D01*
X43051233Y61751817D01*
X43051237Y61751821D01*
X43051239Y61751821D01*
X43056757Y61755111D01*
X43056822Y61755002D01*
X43071956Y61764053D01*
X43157581Y61803979D01*
X43332519Y61926471D01*
X43483529Y62077481D01*
X43606021Y62252419D01*
X43696276Y62445970D01*
X43751549Y62652253D01*
X43770162Y62865000D01*
X43751549Y63077747D01*
X43696276Y63284030D01*
X43606021Y63477581D01*
X43483529Y63652519D01*
X43483527Y63652522D01*
X43332521Y63803528D01*
X43157578Y63926023D01*
X43157579Y63926023D01*
X43028547Y63986191D01*
X42964030Y64016276D01*
X42964023Y64016278D01*
X42958936Y64018130D01*
X42959709Y64020254D01*
X42908305Y64051576D01*
X42877766Y64114419D01*
X42886050Y64183796D01*
X42930528Y64237680D01*
X42959315Y64250828D01*
X42958936Y64251870D01*
X42964013Y64253720D01*
X42964030Y64253724D01*
X43157581Y64343979D01*
X43332519Y64466471D01*
X43483529Y64617481D01*
X43606021Y64792419D01*
X43696276Y64985970D01*
X43751549Y65192253D01*
X43770162Y65405000D01*
X43751549Y65617747D01*
X43696276Y65824030D01*
X43606021Y66017581D01*
X43483529Y66192519D01*
X43483527Y66192522D01*
X43332521Y66343528D01*
X43157578Y66466023D01*
X43157579Y66466023D01*
X42993362Y66542598D01*
X42964030Y66556276D01*
X42964026Y66556277D01*
X42964022Y66556279D01*
X42757752Y66611548D01*
X42757748Y66611549D01*
X42757747Y66611549D01*
X42757746Y66611550D01*
X42757741Y66611550D01*
X42545002Y66630162D01*
X42544998Y66630162D01*
X42332258Y66611550D01*
X42332247Y66611548D01*
X42125965Y66556275D01*
X42115677Y66551478D01*
X42093392Y66544139D01*
X42093491Y66543784D01*
X42089234Y66542602D01*
X42089232Y66542601D01*
X42089229Y66542600D01*
X42089222Y66542598D01*
X41023750Y66162702D01*
X40982106Y66155500D01*
X34216076Y66155500D01*
X34171083Y66163951D01*
X33117846Y66574068D01*
X33062518Y66616736D01*
X33039041Y66682544D01*
X33054869Y66750597D01*
X33091714Y66791190D01*
X33256401Y66906505D01*
X33423495Y67073599D01*
X33559035Y67267170D01*
X33658903Y67481337D01*
X33720063Y67709592D01*
X33740659Y67945000D01*
X33720063Y68180408D01*
X33658903Y68408663D01*
X33559035Y68622829D01*
X33423495Y68816401D01*
X33423494Y68816403D01*
X33256402Y68983494D01*
X33256396Y68983499D01*
X33070842Y69113425D01*
X33027217Y69168002D01*
X33020023Y69237500D01*
X33051546Y69299855D01*
X33070842Y69316575D01*
X33093026Y69332109D01*
X33256401Y69446505D01*
X33423495Y69613599D01*
X33559035Y69807170D01*
X33658903Y70021337D01*
X33720063Y70249592D01*
X33740659Y70485000D01*
X33720063Y70720408D01*
X33658903Y70948663D01*
X33559035Y71162829D01*
X33423495Y71356401D01*
X33423494Y71356403D01*
X33256402Y71523494D01*
X33256401Y71523495D01*
X33070405Y71653731D01*
X33026781Y71708308D01*
X33019588Y71777807D01*
X33051110Y71840161D01*
X33070405Y71856881D01*
X33256082Y71986895D01*
X33423105Y72153918D01*
X33558600Y72347422D01*
X33658429Y72561508D01*
X33658432Y72561514D01*
X33715636Y72775000D01*
X32818686Y72775000D01*
X32844493Y72815156D01*
X32885000Y72953111D01*
X32885000Y73096889D01*
X32844493Y73234844D01*
X32818686Y73275000D01*
X33715636Y73275000D01*
X33715635Y73275001D01*
X33658432Y73488487D01*
X33658429Y73488493D01*
X33558600Y73702578D01*
X33558599Y73702580D01*
X33423113Y73896074D01*
X33423108Y73896080D01*
X33256078Y74063110D01*
X33070405Y74193121D01*
X33026780Y74247698D01*
X33019588Y74317196D01*
X33051110Y74379551D01*
X33070406Y74396270D01*
X33256401Y74526505D01*
X33423495Y74693599D01*
X33559035Y74887170D01*
X33658903Y75101337D01*
X33720063Y75329592D01*
X33740659Y75565000D01*
X33720063Y75800408D01*
X33658903Y76028663D01*
X33559035Y76242829D01*
X33423495Y76436401D01*
X33301567Y76558329D01*
X33268084Y76619649D01*
X33273068Y76689341D01*
X33314939Y76745275D01*
X33345915Y76762190D01*
X33477331Y76811204D01*
X33592546Y76897454D01*
X33678796Y77012669D01*
X33729091Y77147517D01*
X33735500Y77207127D01*
X33735499Y79002872D01*
X33729091Y79062483D01*
X33678796Y79197331D01*
X33678795Y79197332D01*
X33678793Y79197336D01*
X33592547Y79312545D01*
X33592544Y79312548D01*
X33477335Y79398794D01*
X33477328Y79398798D01*
X33342482Y79449092D01*
X33342483Y79449092D01*
X33282883Y79455499D01*
X33282881Y79455500D01*
X33282873Y79455500D01*
X33282864Y79455500D01*
X31487129Y79455500D01*
X31487123Y79455499D01*
X31427516Y79449092D01*
X31292671Y79398798D01*
X31292664Y79398794D01*
X31177455Y79312548D01*
X31177452Y79312545D01*
X31091206Y79197336D01*
X31091202Y79197329D01*
X31040908Y79062483D01*
X31037089Y79026956D01*
X31034501Y79002877D01*
X31034500Y79002865D01*
X31034500Y77207130D01*
X31034501Y77207124D01*
X31040908Y77147517D01*
X31091202Y77012672D01*
X31091206Y77012665D01*
X31177452Y76897456D01*
X31177455Y76897453D01*
X31292664Y76811207D01*
X31292671Y76811203D01*
X31424081Y76762190D01*
X31480015Y76720319D01*
X31504432Y76654855D01*
X31489580Y76586582D01*
X31468430Y76558327D01*
X31346503Y76436400D01*
X31210965Y76242831D01*
X31210964Y76242829D01*
X31111098Y76028665D01*
X31111094Y76028656D01*
X31049938Y75800414D01*
X31049936Y75800404D01*
X31029341Y75565001D01*
X31029341Y75565000D01*
X31049936Y75329597D01*
X31049938Y75329587D01*
X31111094Y75101345D01*
X31111096Y75101341D01*
X31111097Y75101337D01*
X31210965Y74887170D01*
X31210967Y74887166D01*
X31346501Y74693605D01*
X31346506Y74693598D01*
X31513597Y74526507D01*
X31513603Y74526502D01*
X31699594Y74396270D01*
X31743219Y74341693D01*
X31750413Y74272195D01*
X31718890Y74209840D01*
X31699595Y74193120D01*
X31513922Y74063110D01*
X31513920Y74063109D01*
X31346891Y73896080D01*
X31346886Y73896074D01*
X31211400Y73702580D01*
X31211399Y73702578D01*
X31111570Y73488493D01*
X31111567Y73488487D01*
X31054364Y73275001D01*
X31054364Y73275000D01*
X31951314Y73275000D01*
X31925507Y73234844D01*
X31885000Y73096889D01*
X31885000Y72953111D01*
X31925507Y72815156D01*
X31951314Y72775000D01*
X31054364Y72775000D01*
X31111567Y72561514D01*
X31111570Y72561508D01*
X31211399Y72347422D01*
X31346894Y72153918D01*
X31513917Y71986895D01*
X31699595Y71856881D01*
X31743219Y71802304D01*
X31750412Y71732805D01*
X31718890Y71670451D01*
X31699595Y71653731D01*
X31513594Y71523492D01*
X31346505Y71356403D01*
X31210965Y71162831D01*
X31210964Y71162829D01*
X31111098Y70948665D01*
X31111094Y70948656D01*
X31049938Y70720414D01*
X31049936Y70720404D01*
X31029341Y70485001D01*
X31029341Y70485000D01*
X31049936Y70249597D01*
X31049938Y70249587D01*
X31111094Y70021345D01*
X31111096Y70021341D01*
X31111097Y70021337D01*
X31210965Y69807170D01*
X31210967Y69807166D01*
X31346501Y69613605D01*
X31346506Y69613598D01*
X31513597Y69446507D01*
X31513603Y69446502D01*
X31699158Y69316575D01*
X31742783Y69261998D01*
X31749977Y69192500D01*
X31718454Y69130145D01*
X31699158Y69113425D01*
X31513597Y68983495D01*
X31346505Y68816403D01*
X31210965Y68622831D01*
X31210964Y68622829D01*
X31111098Y68408665D01*
X31111094Y68408656D01*
X31049938Y68180414D01*
X31049936Y68180404D01*
X31029341Y67945001D01*
X31029341Y67945000D01*
X31049936Y67709597D01*
X31049938Y67709587D01*
X31111094Y67481345D01*
X31111096Y67481341D01*
X31111097Y67481337D01*
X31210965Y67267170D01*
X31210967Y67267166D01*
X31346501Y67073605D01*
X31346506Y67073598D01*
X31513597Y66906507D01*
X31513603Y66906502D01*
X31699158Y66776575D01*
X31742783Y66721998D01*
X31749977Y66652500D01*
X31718454Y66590145D01*
X31699158Y66573425D01*
X31513597Y66443495D01*
X31346505Y66276403D01*
X31210965Y66082831D01*
X31210964Y66082829D01*
X31111098Y65868665D01*
X31111094Y65868656D01*
X31049938Y65640414D01*
X31049936Y65640404D01*
X31029341Y65405001D01*
X31029341Y65405000D01*
X31049936Y65169597D01*
X31049938Y65169587D01*
X31111094Y64941345D01*
X31111096Y64941341D01*
X31111097Y64941337D01*
X31180539Y64792419D01*
X31210965Y64727170D01*
X31210967Y64727166D01*
X31346501Y64533605D01*
X31346506Y64533598D01*
X31513597Y64366507D01*
X31513603Y64366502D01*
X31699158Y64236575D01*
X31742783Y64181998D01*
X31749977Y64112500D01*
X31718454Y64050145D01*
X31699158Y64033425D01*
X31513597Y63903495D01*
X31346505Y63736403D01*
X31210965Y63542831D01*
X31210964Y63542829D01*
X31111098Y63328665D01*
X31111094Y63328656D01*
X31049938Y63100414D01*
X31049936Y63100404D01*
X31029341Y62865001D01*
X31029341Y62865000D01*
X31049936Y62629597D01*
X31049938Y62629587D01*
X31111094Y62401345D01*
X31111096Y62401341D01*
X31111097Y62401337D01*
X31180539Y62252419D01*
X31210965Y62187170D01*
X31210967Y62187166D01*
X31319281Y62032479D01*
X31346505Y61993599D01*
X31513599Y61826505D01*
X31677320Y61711866D01*
X31699594Y61696270D01*
X31743219Y61641693D01*
X31750413Y61572195D01*
X31718890Y61509840D01*
X31699595Y61493120D01*
X31513922Y61363110D01*
X31513920Y61363109D01*
X31346891Y61196080D01*
X31346886Y61196074D01*
X31211400Y61002580D01*
X31211399Y61002578D01*
X31111570Y60788493D01*
X31111567Y60788487D01*
X31054364Y60575001D01*
X31054364Y60575000D01*
X31951314Y60575000D01*
X31925507Y60534844D01*
X31885000Y60396889D01*
X31885000Y60253111D01*
X31925507Y60115156D01*
X31951314Y60075000D01*
X31054364Y60075000D01*
X31111567Y59861514D01*
X31111570Y59861508D01*
X31211399Y59647422D01*
X31346894Y59453918D01*
X31513917Y59286895D01*
X31699595Y59156881D01*
X31743219Y59102304D01*
X31750412Y59032805D01*
X31718890Y58970451D01*
X31699595Y58953731D01*
X31513594Y58823492D01*
X31346505Y58656403D01*
X31210965Y58462831D01*
X31210964Y58462829D01*
X31111098Y58248665D01*
X31111094Y58248656D01*
X31049938Y58020414D01*
X31049936Y58020404D01*
X31029341Y57785001D01*
X31029341Y57785000D01*
X31049936Y57549597D01*
X31049938Y57549587D01*
X31111094Y57321345D01*
X31111096Y57321341D01*
X31111097Y57321337D01*
X31157630Y57221547D01*
X31210965Y57107170D01*
X31210967Y57107166D01*
X31346501Y56913605D01*
X31346506Y56913598D01*
X31513597Y56746507D01*
X31513603Y56746502D01*
X31699158Y56616575D01*
X31742783Y56561998D01*
X31749977Y56492500D01*
X31718454Y56430145D01*
X31699158Y56413425D01*
X31513597Y56283495D01*
X31346505Y56116403D01*
X31210965Y55922831D01*
X31210964Y55922829D01*
X31111098Y55708665D01*
X31111094Y55708656D01*
X31049938Y55480414D01*
X31049936Y55480404D01*
X31029341Y55245001D01*
X31029341Y55245000D01*
X31049936Y55009597D01*
X31049938Y55009587D01*
X31111094Y54781345D01*
X31111096Y54781341D01*
X31111097Y54781337D01*
X31210965Y54567170D01*
X31210967Y54567166D01*
X31346501Y54373605D01*
X31346506Y54373598D01*
X31513597Y54206507D01*
X31513603Y54206502D01*
X31699158Y54076575D01*
X31742783Y54021998D01*
X31749977Y53952500D01*
X31718454Y53890145D01*
X31699158Y53873425D01*
X31513597Y53743495D01*
X31346505Y53576403D01*
X31210965Y53382831D01*
X31210964Y53382829D01*
X31111098Y53168665D01*
X31111094Y53168656D01*
X31049938Y52940414D01*
X31049936Y52940404D01*
X31029341Y52705001D01*
X31029341Y52705000D01*
X31049936Y52469597D01*
X31049938Y52469587D01*
X31111094Y52241345D01*
X31111096Y52241341D01*
X31111097Y52241337D01*
X31210965Y52027170D01*
X31210967Y52027166D01*
X31346501Y51833605D01*
X31346506Y51833598D01*
X31513597Y51666507D01*
X31513603Y51666502D01*
X31699158Y51536575D01*
X31742783Y51481998D01*
X31749977Y51412500D01*
X31718454Y51350145D01*
X31699158Y51333425D01*
X31513597Y51203495D01*
X31346505Y51036403D01*
X31210965Y50842831D01*
X31210964Y50842829D01*
X31111098Y50628665D01*
X31111094Y50628656D01*
X31049938Y50400414D01*
X31049936Y50400404D01*
X31029341Y50165001D01*
X31029341Y50165000D01*
X31049936Y49929597D01*
X31049938Y49929587D01*
X31111094Y49701345D01*
X31111096Y49701341D01*
X31111097Y49701337D01*
X31180539Y49552419D01*
X31210965Y49487170D01*
X31210967Y49487166D01*
X31319281Y49332479D01*
X31346505Y49293599D01*
X31513599Y49126505D01*
X31680342Y49009750D01*
X31699594Y48996270D01*
X31743219Y48941693D01*
X31750413Y48872195D01*
X31718890Y48809840D01*
X31699595Y48793120D01*
X31513922Y48663110D01*
X31513920Y48663109D01*
X31346891Y48496080D01*
X31346886Y48496074D01*
X31211400Y48302580D01*
X31211399Y48302578D01*
X31111570Y48088493D01*
X31111567Y48088487D01*
X31054364Y47875001D01*
X31054364Y47875000D01*
X31951314Y47875000D01*
X31925507Y47834844D01*
X31885000Y47696889D01*
X31885000Y47553111D01*
X31925507Y47415156D01*
X31951314Y47375000D01*
X31054364Y47375000D01*
X31111567Y47161514D01*
X31111570Y47161508D01*
X31211399Y46947422D01*
X31346894Y46753918D01*
X31513917Y46586895D01*
X31699595Y46456881D01*
X31743219Y46402304D01*
X31750412Y46332805D01*
X31718890Y46270451D01*
X31699595Y46253731D01*
X31513594Y46123492D01*
X31346505Y45956403D01*
X31210965Y45762831D01*
X31210964Y45762829D01*
X31111098Y45548665D01*
X31111094Y45548656D01*
X31049938Y45320414D01*
X31049936Y45320404D01*
X31029341Y45085001D01*
X31029341Y45085000D01*
X31049936Y44849597D01*
X31049938Y44849587D01*
X31111094Y44621345D01*
X31111096Y44621341D01*
X31111097Y44621337D01*
X31180421Y44472672D01*
X31210965Y44407170D01*
X31210967Y44407166D01*
X31346501Y44213605D01*
X31346506Y44213598D01*
X31513597Y44046507D01*
X31513603Y44046502D01*
X31699158Y43916575D01*
X31742783Y43861998D01*
X31749977Y43792500D01*
X31718454Y43730145D01*
X31699158Y43713425D01*
X31513597Y43583495D01*
X31346505Y43416403D01*
X31210965Y43222831D01*
X31210964Y43222829D01*
X31111098Y43008665D01*
X31111094Y43008656D01*
X31049938Y42780414D01*
X31049936Y42780404D01*
X31029341Y42545001D01*
X31029341Y42545000D01*
X31049936Y42309597D01*
X31049938Y42309587D01*
X31111094Y42081345D01*
X31111096Y42081341D01*
X31111097Y42081337D01*
X31210965Y41867170D01*
X31210967Y41867166D01*
X31346501Y41673605D01*
X31346506Y41673598D01*
X31513597Y41506507D01*
X31513603Y41506502D01*
X31699158Y41376575D01*
X31742783Y41321998D01*
X31749977Y41252500D01*
X31718454Y41190145D01*
X31699158Y41173425D01*
X31513597Y41043495D01*
X31346505Y40876403D01*
X31210965Y40682831D01*
X31210964Y40682829D01*
X31111098Y40468665D01*
X31111094Y40468656D01*
X31049938Y40240414D01*
X31049936Y40240404D01*
X31029341Y40005001D01*
X31029341Y40005000D01*
X31049936Y39769597D01*
X31049938Y39769587D01*
X31111094Y39541345D01*
X31111096Y39541341D01*
X31111097Y39541337D01*
X31210965Y39327170D01*
X31210967Y39327166D01*
X31346501Y39133605D01*
X31346506Y39133598D01*
X31513597Y38966507D01*
X31513603Y38966502D01*
X31699158Y38836575D01*
X31742783Y38781998D01*
X31749977Y38712500D01*
X31718454Y38650145D01*
X31699158Y38633425D01*
X31513597Y38503495D01*
X31346505Y38336403D01*
X31210965Y38142831D01*
X31210964Y38142829D01*
X31111098Y37928665D01*
X31111094Y37928656D01*
X31049938Y37700414D01*
X31049936Y37700404D01*
X31029341Y37465001D01*
X31029341Y37465000D01*
X31049936Y37229597D01*
X31049938Y37229587D01*
X31111094Y37001345D01*
X31111096Y37001341D01*
X31111097Y37001337D01*
X31210965Y36787170D01*
X31210967Y36787166D01*
X31346501Y36593605D01*
X31346506Y36593598D01*
X31513597Y36426507D01*
X31513603Y36426502D01*
X31699594Y36296270D01*
X31743219Y36241693D01*
X31750413Y36172195D01*
X31718890Y36109840D01*
X31699595Y36093120D01*
X31513922Y35963110D01*
X31513920Y35963109D01*
X31346891Y35796080D01*
X31346886Y35796074D01*
X31211400Y35602580D01*
X31211399Y35602578D01*
X31111570Y35388493D01*
X31111567Y35388487D01*
X31054364Y35175001D01*
X31054364Y35175000D01*
X31951314Y35175000D01*
X31925507Y35134844D01*
X31885000Y34996889D01*
X31885000Y34853111D01*
X31925507Y34715156D01*
X31951314Y34675000D01*
X31054364Y34675000D01*
X31111567Y34461514D01*
X31111570Y34461508D01*
X31211399Y34247422D01*
X31346894Y34053918D01*
X31513917Y33886895D01*
X31699595Y33756881D01*
X31743219Y33702304D01*
X31750412Y33632805D01*
X31718890Y33570451D01*
X31699595Y33553731D01*
X31513594Y33423492D01*
X31346505Y33256403D01*
X31210965Y33062831D01*
X31210964Y33062829D01*
X31111098Y32848665D01*
X31111094Y32848656D01*
X31049938Y32620414D01*
X31049936Y32620404D01*
X31029341Y32385001D01*
X31029341Y32385000D01*
X31049936Y32149597D01*
X31049938Y32149587D01*
X31111094Y31921345D01*
X31111096Y31921341D01*
X31111097Y31921337D01*
X31210965Y31707170D01*
X31210967Y31707166D01*
X31346501Y31513605D01*
X31346506Y31513598D01*
X31513597Y31346507D01*
X31513603Y31346502D01*
X31699158Y31216575D01*
X31742783Y31161998D01*
X31749977Y31092500D01*
X31718454Y31030145D01*
X31699158Y31013425D01*
X31513597Y30883495D01*
X31346505Y30716403D01*
X31210965Y30522831D01*
X31210964Y30522829D01*
X31111098Y30308665D01*
X31111094Y30308656D01*
X31049938Y30080414D01*
X31049936Y30080404D01*
X31029341Y29845001D01*
X31029341Y29845000D01*
X31049936Y29609597D01*
X31049938Y29609587D01*
X31111094Y29381345D01*
X31111096Y29381341D01*
X31111097Y29381337D01*
X31210965Y29167170D01*
X31210967Y29167166D01*
X31319281Y29012479D01*
X31346505Y28973599D01*
X31513599Y28806505D01*
X31610384Y28738735D01*
X31707165Y28670968D01*
X31707167Y28670967D01*
X31707170Y28670965D01*
X31921337Y28571097D01*
X32149592Y28509937D01*
X32337918Y28493461D01*
X32384999Y28489341D01*
X32385000Y28489341D01*
X32385001Y28489341D01*
X32424234Y28492774D01*
X32620408Y28509937D01*
X32817407Y28562722D01*
X32887257Y28561059D01*
X32945119Y28521896D01*
X32972623Y28457668D01*
X32973500Y28442947D01*
X32973500Y23954728D01*
X32953815Y23887689D01*
X32901011Y23841934D01*
X32890574Y23837728D01*
X31940868Y23504323D01*
X31936383Y23502937D01*
X31921345Y23498906D01*
X31921329Y23498900D01*
X31911621Y23494373D01*
X31905961Y23492066D01*
X31900144Y23490024D01*
X31897334Y23489037D01*
X31890268Y23486335D01*
X31890260Y23486332D01*
X31890259Y23486331D01*
X31890257Y23486330D01*
X31829014Y23458101D01*
X31823425Y23454775D01*
X31823288Y23455005D01*
X31809433Y23446723D01*
X31707172Y23399037D01*
X31707169Y23399035D01*
X31513597Y23263495D01*
X31346505Y23096403D01*
X31210965Y22902831D01*
X31210964Y22902829D01*
X31124036Y22716413D01*
X31118649Y22706076D01*
X31118645Y22706067D01*
X31117930Y22704031D01*
X31115629Y22698386D01*
X31111097Y22688666D01*
X31111097Y22688664D01*
X31107064Y22673615D01*
X31105677Y22669126D01*
X30730496Y21600426D01*
X30689716Y21543691D01*
X30624737Y21518011D01*
X30613496Y21517500D01*
X24895851Y21517500D01*
X24828812Y21537185D01*
X24783057Y21589989D01*
X24773113Y21659147D01*
X24783467Y21693902D01*
X24828903Y21791337D01*
X24890063Y22019592D01*
X24910659Y22255000D01*
X24890063Y22490408D01*
X24828903Y22718663D01*
X24729035Y22932829D01*
X24614502Y23096401D01*
X24593494Y23126403D01*
X24426402Y23293494D01*
X24426395Y23293499D01*
X24232834Y23429033D01*
X24232830Y23429035D01*
X24183337Y23452114D01*
X24018663Y23528903D01*
X24018659Y23528904D01*
X24018655Y23528906D01*
X23790413Y23590062D01*
X23790403Y23590064D01*
X23555001Y23610659D01*
X23554999Y23610659D01*
X23319596Y23590064D01*
X23319586Y23590062D01*
X23091344Y23528906D01*
X23091335Y23528902D01*
X22877171Y23429036D01*
X22877169Y23429035D01*
X22683597Y23293495D01*
X22516505Y23126403D01*
X22380965Y22932831D01*
X22380964Y22932829D01*
X22281098Y22718665D01*
X22281094Y22718656D01*
X22219938Y22490414D01*
X22219936Y22490404D01*
X22199341Y22255001D01*
X22199341Y22255000D01*
X22219936Y22019597D01*
X22219938Y22019587D01*
X22281094Y21791345D01*
X22281097Y21791336D01*
X22299620Y21751615D01*
X22326531Y21693904D01*
X22337023Y21624828D01*
X22308504Y21561044D01*
X22250027Y21522804D01*
X22214149Y21517500D01*
X17409500Y21517500D01*
X17342461Y21537185D01*
X17296706Y21589989D01*
X17285500Y21641500D01*
X17285499Y23152871D01*
X17285498Y23152877D01*
X17285497Y23152884D01*
X17279091Y23212483D01*
X17273933Y23226311D01*
X17228797Y23347329D01*
X17228793Y23347336D01*
X17142547Y23462545D01*
X17142544Y23462548D01*
X17027335Y23548794D01*
X17027328Y23548798D01*
X16892482Y23599092D01*
X16892483Y23599092D01*
X16832883Y23605499D01*
X16832881Y23605500D01*
X16832873Y23605500D01*
X16832864Y23605500D01*
X15037129Y23605500D01*
X15037123Y23605499D01*
X14977516Y23599092D01*
X14842671Y23548798D01*
X14842664Y23548794D01*
X14727455Y23462548D01*
X14727452Y23462545D01*
X14641206Y23347336D01*
X14641202Y23347329D01*
X14590908Y23212483D01*
X14584501Y23152884D01*
X14584501Y23152877D01*
X14584500Y23152865D01*
X14584500Y21357130D01*
X14584501Y21357124D01*
X14590908Y21297517D01*
X14641202Y21162672D01*
X14641206Y21162665D01*
X14727452Y21047456D01*
X14727455Y21047453D01*
X14842664Y20961207D01*
X14842671Y20961203D01*
X14974081Y20912190D01*
X15030015Y20870319D01*
X15054432Y20804855D01*
X15039580Y20736582D01*
X15018430Y20708327D01*
X14896503Y20586400D01*
X14760965Y20392831D01*
X14760964Y20392829D01*
X14661098Y20178665D01*
X14661094Y20178656D01*
X14599938Y19950414D01*
X14599936Y19950404D01*
X14579341Y19715001D01*
X14579341Y19715000D01*
X14599936Y19479597D01*
X14599938Y19479587D01*
X14661094Y19251345D01*
X14661096Y19251341D01*
X14661097Y19251337D01*
X14675004Y19221514D01*
X14760965Y19037170D01*
X14760967Y19037166D01*
X14896501Y18843605D01*
X14896506Y18843598D01*
X15063597Y18676507D01*
X15063603Y18676502D01*
X15249158Y18546575D01*
X15292783Y18491998D01*
X15299977Y18422500D01*
X15268454Y18360145D01*
X15249158Y18343425D01*
X15063597Y18213495D01*
X14896505Y18046403D01*
X14760965Y17852831D01*
X14760964Y17852829D01*
X14661098Y17638665D01*
X14661094Y17638656D01*
X14599938Y17410414D01*
X14599936Y17410404D01*
X14579341Y17175001D01*
X14579341Y17175000D01*
X500Y17175000D01*
X500Y29845000D01*
X13249341Y29845000D01*
X13269936Y29609597D01*
X13269938Y29609587D01*
X13331094Y29381345D01*
X13331096Y29381341D01*
X13331097Y29381337D01*
X13430965Y29167170D01*
X13430967Y29167166D01*
X13539281Y29012479D01*
X13566505Y28973599D01*
X13733599Y28806505D01*
X13830384Y28738735D01*
X13927165Y28670968D01*
X13927167Y28670967D01*
X13927170Y28670965D01*
X14141337Y28571097D01*
X14369592Y28509937D01*
X14557918Y28493461D01*
X14604999Y28489341D01*
X14605000Y28489341D01*
X14605001Y28489341D01*
X14644234Y28492774D01*
X14840408Y28509937D01*
X15068663Y28571097D01*
X15282830Y28670965D01*
X15476401Y28806505D01*
X15643495Y28973599D01*
X15779035Y29167170D01*
X15878903Y29381337D01*
X15940063Y29609592D01*
X15960659Y29845000D01*
X15940063Y30080408D01*
X15878903Y30308663D01*
X15779035Y30522829D01*
X15643495Y30716401D01*
X15643494Y30716403D01*
X15476402Y30883494D01*
X15476396Y30883499D01*
X15290842Y31013425D01*
X15247217Y31068002D01*
X15240023Y31137500D01*
X15271546Y31199855D01*
X15290842Y31216575D01*
X15337508Y31249251D01*
X15476401Y31346505D01*
X15643495Y31513599D01*
X15779035Y31707170D01*
X15878903Y31921337D01*
X15940063Y32149592D01*
X15960659Y32385000D01*
X15940063Y32620408D01*
X15878903Y32848663D01*
X15779035Y33062829D01*
X15779034Y33062831D01*
X15643494Y33256403D01*
X15476402Y33423494D01*
X15476401Y33423495D01*
X15290405Y33553731D01*
X15246781Y33608308D01*
X15239588Y33677807D01*
X15271110Y33740161D01*
X15290405Y33756881D01*
X15476082Y33886895D01*
X15643105Y34053918D01*
X15778600Y34247422D01*
X15878429Y34461508D01*
X15878432Y34461514D01*
X15935636Y34675000D01*
X15038686Y34675000D01*
X15064493Y34715156D01*
X15105000Y34853111D01*
X15105000Y34996889D01*
X15064493Y35134844D01*
X15038686Y35175000D01*
X15935636Y35175000D01*
X15935635Y35175001D01*
X15878432Y35388487D01*
X15878429Y35388493D01*
X15778600Y35602578D01*
X15778599Y35602580D01*
X15643113Y35796074D01*
X15643108Y35796080D01*
X15476078Y35963110D01*
X15290405Y36093121D01*
X15246780Y36147698D01*
X15239588Y36217196D01*
X15271110Y36279551D01*
X15290406Y36296270D01*
X15476401Y36426505D01*
X15643495Y36593599D01*
X15779035Y36787170D01*
X15878903Y37001337D01*
X15940063Y37229592D01*
X15960659Y37465000D01*
X15940063Y37700408D01*
X15878903Y37928663D01*
X15779035Y38142829D01*
X15643495Y38336401D01*
X15643494Y38336403D01*
X15476402Y38503494D01*
X15476396Y38503499D01*
X15290842Y38633425D01*
X15247217Y38688002D01*
X15240023Y38757500D01*
X15271546Y38819855D01*
X15290842Y38836575D01*
X15313026Y38852109D01*
X15476401Y38966505D01*
X15643495Y39133599D01*
X15779035Y39327170D01*
X15878903Y39541337D01*
X15940063Y39769592D01*
X15960659Y40005000D01*
X15940063Y40240408D01*
X15878903Y40468663D01*
X15779035Y40682829D01*
X15643495Y40876401D01*
X15643494Y40876403D01*
X15476402Y41043494D01*
X15476396Y41043499D01*
X15290842Y41173425D01*
X15247217Y41228002D01*
X15240023Y41297500D01*
X15271546Y41359855D01*
X15290842Y41376575D01*
X15313026Y41392109D01*
X15476401Y41506505D01*
X15643495Y41673599D01*
X15779035Y41867170D01*
X15878903Y42081337D01*
X15940063Y42309592D01*
X15960659Y42545000D01*
X15940063Y42780408D01*
X15878903Y43008663D01*
X15779035Y43222829D01*
X15643495Y43416401D01*
X15643494Y43416403D01*
X15476402Y43583494D01*
X15476396Y43583499D01*
X15290842Y43713425D01*
X15247217Y43768002D01*
X15240023Y43837500D01*
X15271546Y43899855D01*
X15290842Y43916575D01*
X15316010Y43934198D01*
X15476401Y44046505D01*
X15643495Y44213599D01*
X15779035Y44407170D01*
X15878903Y44621337D01*
X15940063Y44849592D01*
X15960659Y45085000D01*
X15940063Y45320408D01*
X15878903Y45548663D01*
X15779035Y45762829D01*
X15643495Y45956401D01*
X15643494Y45956403D01*
X15476402Y46123494D01*
X15476401Y46123495D01*
X15290405Y46253731D01*
X15246781Y46308308D01*
X15239588Y46377807D01*
X15271110Y46440161D01*
X15290405Y46456881D01*
X15476082Y46586895D01*
X15643105Y46753918D01*
X15778600Y46947422D01*
X15878429Y47161508D01*
X15878432Y47161514D01*
X15935636Y47375000D01*
X15038686Y47375000D01*
X15064493Y47415156D01*
X15105000Y47553111D01*
X15105000Y47696889D01*
X15064493Y47834844D01*
X15038686Y47875000D01*
X15935636Y47875000D01*
X15935635Y47875001D01*
X15878432Y48088487D01*
X15878429Y48088493D01*
X15778600Y48302578D01*
X15778599Y48302580D01*
X15643113Y48496074D01*
X15643108Y48496080D01*
X15476078Y48663110D01*
X15290405Y48793121D01*
X15246780Y48847698D01*
X15239588Y48917196D01*
X15271110Y48979551D01*
X15290406Y48996270D01*
X15292420Y48997680D01*
X15476401Y49126505D01*
X15643495Y49293599D01*
X15779035Y49487170D01*
X15878903Y49701337D01*
X15940063Y49929592D01*
X15960659Y50165000D01*
X15940063Y50400408D01*
X15878903Y50628663D01*
X15779035Y50842829D01*
X15702228Y50952522D01*
X15643494Y51036403D01*
X15476402Y51203494D01*
X15476396Y51203499D01*
X15290842Y51333425D01*
X15247217Y51388002D01*
X15240023Y51457500D01*
X15271546Y51519855D01*
X15290842Y51536575D01*
X15313026Y51552109D01*
X15476401Y51666505D01*
X15643495Y51833599D01*
X15779035Y52027170D01*
X15878903Y52241337D01*
X15940063Y52469592D01*
X15960659Y52705000D01*
X15940063Y52940408D01*
X15878903Y53168663D01*
X15779035Y53382829D01*
X15643495Y53576401D01*
X15643494Y53576403D01*
X15476402Y53743494D01*
X15476396Y53743499D01*
X15290842Y53873425D01*
X15247217Y53928002D01*
X15240023Y53997500D01*
X15271546Y54059855D01*
X15290842Y54076575D01*
X15313026Y54092109D01*
X15476401Y54206505D01*
X15643495Y54373599D01*
X15779035Y54567170D01*
X15878903Y54781337D01*
X15940063Y55009592D01*
X15960659Y55245000D01*
X15940063Y55480408D01*
X15878903Y55708663D01*
X15779035Y55922829D01*
X15643495Y56116401D01*
X15643494Y56116403D01*
X15476402Y56283494D01*
X15476396Y56283499D01*
X15290842Y56413425D01*
X15247217Y56468002D01*
X15240023Y56537500D01*
X15271546Y56599855D01*
X15290842Y56616575D01*
X15313026Y56632109D01*
X15476401Y56746505D01*
X15643495Y56913599D01*
X15779035Y57107170D01*
X15878903Y57321337D01*
X15940063Y57549592D01*
X15960659Y57785000D01*
X15940063Y58020408D01*
X15878903Y58248663D01*
X15779035Y58462829D01*
X15643495Y58656401D01*
X15643494Y58656403D01*
X15476402Y58823494D01*
X15476401Y58823495D01*
X15290405Y58953731D01*
X15246781Y59008308D01*
X15239588Y59077807D01*
X15271110Y59140161D01*
X15290405Y59156881D01*
X15476082Y59286895D01*
X15643105Y59453918D01*
X15778600Y59647422D01*
X15878429Y59861508D01*
X15878432Y59861514D01*
X15935636Y60075000D01*
X15038686Y60075000D01*
X15064493Y60115156D01*
X15105000Y60253111D01*
X15105000Y60396889D01*
X15064493Y60534844D01*
X15038686Y60575000D01*
X15935636Y60575000D01*
X15935635Y60575001D01*
X15878432Y60788487D01*
X15878429Y60788493D01*
X15778600Y61002578D01*
X15778599Y61002580D01*
X15643113Y61196074D01*
X15643108Y61196080D01*
X15476078Y61363110D01*
X15290405Y61493121D01*
X15246780Y61547698D01*
X15239588Y61617196D01*
X15271110Y61679551D01*
X15290406Y61696270D01*
X15311413Y61710979D01*
X15476401Y61826505D01*
X15643495Y61993599D01*
X15779035Y62187170D01*
X15878903Y62401337D01*
X15940063Y62629592D01*
X15960659Y62865000D01*
X15940063Y63100408D01*
X15878903Y63328663D01*
X15779035Y63542829D01*
X15702228Y63652522D01*
X15643494Y63736403D01*
X15476402Y63903494D01*
X15476396Y63903499D01*
X15290842Y64033425D01*
X15247217Y64088002D01*
X15240023Y64157500D01*
X15271546Y64219855D01*
X15290842Y64236575D01*
X15326730Y64261704D01*
X15476401Y64366505D01*
X15643495Y64533599D01*
X15779035Y64727170D01*
X15878903Y64941337D01*
X15940063Y65169592D01*
X15960659Y65405000D01*
X15940063Y65640408D01*
X15878903Y65868663D01*
X15779035Y66082829D01*
X15728151Y66155500D01*
X15643494Y66276403D01*
X15476402Y66443494D01*
X15476396Y66443499D01*
X15290842Y66573425D01*
X15247217Y66628002D01*
X15240023Y66697500D01*
X15271546Y66759855D01*
X15290842Y66776575D01*
X15313026Y66792109D01*
X15476401Y66906505D01*
X15643495Y67073599D01*
X15779035Y67267170D01*
X15878903Y67481337D01*
X15940063Y67709592D01*
X15960659Y67945000D01*
X15940063Y68180408D01*
X15878903Y68408663D01*
X15779035Y68622829D01*
X15643495Y68816401D01*
X15643494Y68816403D01*
X15476402Y68983494D01*
X15476396Y68983499D01*
X15290842Y69113425D01*
X15247217Y69168002D01*
X15240023Y69237500D01*
X15271546Y69299855D01*
X15290842Y69316575D01*
X15313026Y69332109D01*
X15476401Y69446505D01*
X15643495Y69613599D01*
X15779035Y69807170D01*
X15878903Y70021337D01*
X15940063Y70249592D01*
X15960659Y70485000D01*
X15940063Y70720408D01*
X15878903Y70948663D01*
X15779035Y71162829D01*
X15643495Y71356401D01*
X15643494Y71356403D01*
X15476402Y71523494D01*
X15476401Y71523495D01*
X15290405Y71653731D01*
X15246781Y71708308D01*
X15239588Y71777807D01*
X15271110Y71840161D01*
X15290405Y71856881D01*
X15476082Y71986895D01*
X15643105Y72153918D01*
X15778600Y72347422D01*
X15878429Y72561508D01*
X15878432Y72561514D01*
X15935636Y72775000D01*
X15038686Y72775000D01*
X15064493Y72815156D01*
X15105000Y72953111D01*
X15105000Y73096889D01*
X15064493Y73234844D01*
X15038686Y73275000D01*
X15935636Y73275000D01*
X15935635Y73275001D01*
X15878432Y73488487D01*
X15878429Y73488493D01*
X15778600Y73702578D01*
X15778599Y73702580D01*
X15643113Y73896074D01*
X15643108Y73896080D01*
X15476078Y74063110D01*
X15290405Y74193121D01*
X15246780Y74247698D01*
X15239588Y74317196D01*
X15271110Y74379551D01*
X15290406Y74396270D01*
X15476401Y74526505D01*
X15643495Y74693599D01*
X15779035Y74887170D01*
X15878903Y75101337D01*
X15940063Y75329592D01*
X15960659Y75565000D01*
X15940063Y75800408D01*
X15878903Y76028663D01*
X15779035Y76242829D01*
X15643495Y76436401D01*
X15521567Y76558329D01*
X15488084Y76619649D01*
X15493068Y76689341D01*
X15534939Y76745275D01*
X15565915Y76762190D01*
X15697331Y76811204D01*
X15812546Y76897454D01*
X15898796Y77012669D01*
X15949091Y77147517D01*
X15955500Y77207127D01*
X15955499Y79002872D01*
X15949091Y79062483D01*
X15898796Y79197331D01*
X15898795Y79197332D01*
X15898793Y79197336D01*
X15812547Y79312545D01*
X15812544Y79312548D01*
X15697335Y79398794D01*
X15697328Y79398798D01*
X15562482Y79449092D01*
X15562483Y79449092D01*
X15502883Y79455499D01*
X15502881Y79455500D01*
X15502873Y79455500D01*
X15502864Y79455500D01*
X13707129Y79455500D01*
X13707123Y79455499D01*
X13647516Y79449092D01*
X13512671Y79398798D01*
X13512664Y79398794D01*
X13397455Y79312548D01*
X13397452Y79312545D01*
X13311206Y79197336D01*
X13311202Y79197329D01*
X13260908Y79062483D01*
X13257089Y79026956D01*
X13254501Y79002877D01*
X13254500Y79002865D01*
X13254500Y77207130D01*
X13254501Y77207124D01*
X13260908Y77147517D01*
X13311202Y77012672D01*
X13311206Y77012665D01*
X13397452Y76897456D01*
X13397455Y76897453D01*
X13512664Y76811207D01*
X13512671Y76811203D01*
X13644081Y76762190D01*
X13700015Y76720319D01*
X13724432Y76654855D01*
X13709580Y76586582D01*
X13688430Y76558327D01*
X13566503Y76436400D01*
X13430965Y76242831D01*
X13430964Y76242829D01*
X13331098Y76028665D01*
X13331094Y76028656D01*
X13269938Y75800414D01*
X13269936Y75800404D01*
X13249341Y75565001D01*
X13249341Y75565000D01*
X13269936Y75329597D01*
X13269938Y75329587D01*
X13331094Y75101345D01*
X13331096Y75101341D01*
X13331097Y75101337D01*
X13430965Y74887170D01*
X13430967Y74887166D01*
X13566501Y74693605D01*
X13566506Y74693598D01*
X13733597Y74526507D01*
X13733603Y74526502D01*
X13919594Y74396270D01*
X13963219Y74341693D01*
X13970413Y74272195D01*
X13938890Y74209840D01*
X13919595Y74193120D01*
X13733922Y74063110D01*
X13733920Y74063109D01*
X13566891Y73896080D01*
X13566886Y73896074D01*
X13431400Y73702580D01*
X13431399Y73702578D01*
X13331570Y73488493D01*
X13331567Y73488487D01*
X13274364Y73275001D01*
X13274364Y73275000D01*
X14171314Y73275000D01*
X14145507Y73234844D01*
X14105000Y73096889D01*
X14105000Y72953111D01*
X14145507Y72815156D01*
X14171314Y72775000D01*
X13274364Y72775000D01*
X13331567Y72561514D01*
X13331570Y72561508D01*
X13431399Y72347422D01*
X13566894Y72153918D01*
X13733917Y71986895D01*
X13919595Y71856881D01*
X13963219Y71802304D01*
X13970412Y71732805D01*
X13938890Y71670451D01*
X13919595Y71653731D01*
X13733594Y71523492D01*
X13566505Y71356403D01*
X13430965Y71162831D01*
X13430964Y71162829D01*
X13331098Y70948665D01*
X13331094Y70948656D01*
X13269938Y70720414D01*
X13269936Y70720404D01*
X13249341Y70485001D01*
X13249341Y70485000D01*
X13269936Y70249597D01*
X13269938Y70249587D01*
X13331094Y70021345D01*
X13331096Y70021341D01*
X13331097Y70021337D01*
X13430965Y69807170D01*
X13430967Y69807166D01*
X13566501Y69613605D01*
X13566506Y69613598D01*
X13733597Y69446507D01*
X13733603Y69446502D01*
X13919158Y69316575D01*
X13962783Y69261998D01*
X13969977Y69192500D01*
X13938454Y69130145D01*
X13919158Y69113425D01*
X13733597Y68983495D01*
X13566505Y68816403D01*
X13430965Y68622831D01*
X13430964Y68622829D01*
X13331098Y68408665D01*
X13331094Y68408656D01*
X13269938Y68180414D01*
X13269936Y68180404D01*
X13249341Y67945001D01*
X13249341Y67945000D01*
X13269936Y67709597D01*
X13269938Y67709587D01*
X13331094Y67481345D01*
X13331096Y67481341D01*
X13331097Y67481337D01*
X13430965Y67267170D01*
X13430967Y67267166D01*
X13566501Y67073605D01*
X13566506Y67073598D01*
X13733597Y66906507D01*
X13733603Y66906502D01*
X13919158Y66776575D01*
X13962783Y66721998D01*
X13969977Y66652500D01*
X13938454Y66590145D01*
X13919158Y66573425D01*
X13733597Y66443495D01*
X13566505Y66276403D01*
X13430965Y66082831D01*
X13430964Y66082829D01*
X13331098Y65868665D01*
X13331094Y65868656D01*
X13269938Y65640414D01*
X13269936Y65640404D01*
X13249341Y65405001D01*
X13249341Y65405000D01*
X13269936Y65169597D01*
X13269938Y65169587D01*
X13331094Y64941345D01*
X13331096Y64941341D01*
X13331097Y64941337D01*
X13400539Y64792419D01*
X13430965Y64727170D01*
X13430967Y64727166D01*
X13566501Y64533605D01*
X13566506Y64533598D01*
X13733597Y64366507D01*
X13733603Y64366502D01*
X13919158Y64236575D01*
X13962783Y64181998D01*
X13969977Y64112500D01*
X13938454Y64050145D01*
X13919158Y64033425D01*
X13733597Y63903495D01*
X13566505Y63736403D01*
X13430965Y63542831D01*
X13430964Y63542829D01*
X13331098Y63328665D01*
X13331094Y63328656D01*
X13269938Y63100414D01*
X13269936Y63100404D01*
X13249341Y62865001D01*
X13249341Y62865000D01*
X13269936Y62629597D01*
X13269938Y62629587D01*
X13331094Y62401345D01*
X13331096Y62401341D01*
X13331097Y62401337D01*
X13400539Y62252419D01*
X13430965Y62187170D01*
X13430967Y62187166D01*
X13539281Y62032479D01*
X13566505Y61993599D01*
X13733599Y61826505D01*
X13897320Y61711866D01*
X13919594Y61696270D01*
X13963219Y61641693D01*
X13970413Y61572195D01*
X13938890Y61509840D01*
X13919595Y61493120D01*
X13733922Y61363110D01*
X13733920Y61363109D01*
X13566891Y61196080D01*
X13566886Y61196074D01*
X13431400Y61002580D01*
X13431399Y61002578D01*
X13331570Y60788493D01*
X13331567Y60788487D01*
X13274364Y60575001D01*
X13274364Y60575000D01*
X14171314Y60575000D01*
X14145507Y60534844D01*
X14105000Y60396889D01*
X14105000Y60253111D01*
X14145507Y60115156D01*
X14171314Y60075000D01*
X13274364Y60075000D01*
X13331567Y59861514D01*
X13331570Y59861508D01*
X13431399Y59647422D01*
X13566894Y59453918D01*
X13733917Y59286895D01*
X13919595Y59156881D01*
X13963219Y59102304D01*
X13970412Y59032805D01*
X13938890Y58970451D01*
X13919595Y58953731D01*
X13733594Y58823492D01*
X13566505Y58656403D01*
X13430965Y58462831D01*
X13430964Y58462829D01*
X13331098Y58248665D01*
X13331094Y58248656D01*
X13269938Y58020414D01*
X13269936Y58020404D01*
X13249341Y57785001D01*
X13249341Y57785000D01*
X13269936Y57549597D01*
X13269938Y57549587D01*
X13331094Y57321345D01*
X13331096Y57321341D01*
X13331097Y57321337D01*
X13377630Y57221547D01*
X13430965Y57107170D01*
X13430967Y57107166D01*
X13566501Y56913605D01*
X13566506Y56913598D01*
X13733597Y56746507D01*
X13733603Y56746502D01*
X13919158Y56616575D01*
X13962783Y56561998D01*
X13969977Y56492500D01*
X13938454Y56430145D01*
X13919158Y56413425D01*
X13733597Y56283495D01*
X13566505Y56116403D01*
X13430965Y55922831D01*
X13430964Y55922829D01*
X13331098Y55708665D01*
X13331094Y55708656D01*
X13269938Y55480414D01*
X13269936Y55480404D01*
X13249341Y55245001D01*
X13249341Y55245000D01*
X13269936Y55009597D01*
X13269938Y55009587D01*
X13331094Y54781345D01*
X13331096Y54781341D01*
X13331097Y54781337D01*
X13430965Y54567170D01*
X13430967Y54567166D01*
X13566501Y54373605D01*
X13566506Y54373598D01*
X13733597Y54206507D01*
X13733603Y54206502D01*
X13919158Y54076575D01*
X13962783Y54021998D01*
X13969977Y53952500D01*
X13938454Y53890145D01*
X13919158Y53873425D01*
X13733597Y53743495D01*
X13566505Y53576403D01*
X13430965Y53382831D01*
X13430964Y53382829D01*
X13331098Y53168665D01*
X13331094Y53168656D01*
X13269938Y52940414D01*
X13269936Y52940404D01*
X13249341Y52705001D01*
X13249341Y52705000D01*
X13269936Y52469597D01*
X13269938Y52469587D01*
X13331094Y52241345D01*
X13331096Y52241341D01*
X13331097Y52241337D01*
X13430965Y52027170D01*
X13430967Y52027166D01*
X13566501Y51833605D01*
X13566506Y51833598D01*
X13733597Y51666507D01*
X13733603Y51666502D01*
X13919158Y51536575D01*
X13962783Y51481998D01*
X13969977Y51412500D01*
X13938454Y51350145D01*
X13919158Y51333425D01*
X13733597Y51203495D01*
X13566505Y51036403D01*
X13430965Y50842831D01*
X13430964Y50842829D01*
X13331098Y50628665D01*
X13331094Y50628656D01*
X13269938Y50400414D01*
X13269936Y50400404D01*
X13249341Y50165001D01*
X13249341Y50165000D01*
X13269936Y49929597D01*
X13269938Y49929587D01*
X13331094Y49701345D01*
X13331096Y49701341D01*
X13331097Y49701337D01*
X13400539Y49552419D01*
X13430965Y49487170D01*
X13430967Y49487166D01*
X13539281Y49332479D01*
X13566505Y49293599D01*
X13733599Y49126505D01*
X13900342Y49009750D01*
X13919594Y48996270D01*
X13963219Y48941693D01*
X13970413Y48872195D01*
X13938890Y48809840D01*
X13919595Y48793120D01*
X13733922Y48663110D01*
X13733920Y48663109D01*
X13566891Y48496080D01*
X13566886Y48496074D01*
X13431400Y48302580D01*
X13431399Y48302578D01*
X13331570Y48088493D01*
X13331567Y48088487D01*
X13274364Y47875001D01*
X13274364Y47875000D01*
X14171314Y47875000D01*
X14145507Y47834844D01*
X14105000Y47696889D01*
X14105000Y47553111D01*
X14145507Y47415156D01*
X14171314Y47375000D01*
X13274364Y47375000D01*
X13331567Y47161514D01*
X13331570Y47161508D01*
X13431399Y46947422D01*
X13566894Y46753918D01*
X13733917Y46586895D01*
X13919595Y46456881D01*
X13963219Y46402304D01*
X13970412Y46332805D01*
X13938890Y46270451D01*
X13919595Y46253731D01*
X13733594Y46123492D01*
X13566505Y45956403D01*
X13430965Y45762831D01*
X13430964Y45762829D01*
X13331098Y45548665D01*
X13331094Y45548656D01*
X13269938Y45320414D01*
X13269936Y45320404D01*
X13249341Y45085001D01*
X13249341Y45085000D01*
X13269936Y44849597D01*
X13269938Y44849587D01*
X13331094Y44621345D01*
X13331096Y44621341D01*
X13331097Y44621337D01*
X13400421Y44472672D01*
X13430965Y44407170D01*
X13430967Y44407166D01*
X13566501Y44213605D01*
X13566506Y44213598D01*
X13733597Y44046507D01*
X13733603Y44046502D01*
X13919158Y43916575D01*
X13962783Y43861998D01*
X13969977Y43792500D01*
X13938454Y43730145D01*
X13919158Y43713425D01*
X13733597Y43583495D01*
X13566505Y43416403D01*
X13430965Y43222831D01*
X13430964Y43222829D01*
X13331098Y43008665D01*
X13331094Y43008656D01*
X13269938Y42780414D01*
X13269936Y42780404D01*
X13249341Y42545001D01*
X13249341Y42545000D01*
X13269936Y42309597D01*
X13269938Y42309587D01*
X13331094Y42081345D01*
X13331096Y42081341D01*
X13331097Y42081337D01*
X13430965Y41867170D01*
X13430967Y41867166D01*
X13566501Y41673605D01*
X13566506Y41673598D01*
X13733597Y41506507D01*
X13733603Y41506502D01*
X13919158Y41376575D01*
X13962783Y41321998D01*
X13969977Y41252500D01*
X13938454Y41190145D01*
X13919158Y41173425D01*
X13733597Y41043495D01*
X13566505Y40876403D01*
X13430965Y40682831D01*
X13430964Y40682829D01*
X13331098Y40468665D01*
X13331094Y40468656D01*
X13269938Y40240414D01*
X13269936Y40240404D01*
X13249341Y40005001D01*
X13249341Y40005000D01*
X13269936Y39769597D01*
X13269938Y39769587D01*
X13331094Y39541345D01*
X13331096Y39541341D01*
X13331097Y39541337D01*
X13430965Y39327170D01*
X13430967Y39327166D01*
X13566501Y39133605D01*
X13566506Y39133598D01*
X13733597Y38966507D01*
X13733603Y38966502D01*
X13919158Y38836575D01*
X13962783Y38781998D01*
X13969977Y38712500D01*
X13938454Y38650145D01*
X13919158Y38633425D01*
X13733597Y38503495D01*
X13566505Y38336403D01*
X13430965Y38142831D01*
X13430964Y38142829D01*
X13331098Y37928665D01*
X13331094Y37928656D01*
X13269938Y37700414D01*
X13269936Y37700404D01*
X13249341Y37465001D01*
X13249341Y37465000D01*
X13269936Y37229597D01*
X13269938Y37229587D01*
X13331094Y37001345D01*
X13331096Y37001341D01*
X13331097Y37001337D01*
X13430965Y36787170D01*
X13430967Y36787166D01*
X13566501Y36593605D01*
X13566506Y36593598D01*
X13733597Y36426507D01*
X13733603Y36426502D01*
X13919594Y36296270D01*
X13963219Y36241693D01*
X13970413Y36172195D01*
X13938890Y36109840D01*
X13919595Y36093120D01*
X13733922Y35963110D01*
X13733920Y35963109D01*
X13566891Y35796080D01*
X13566886Y35796074D01*
X13431400Y35602580D01*
X13431399Y35602578D01*
X13331570Y35388493D01*
X13331567Y35388487D01*
X13274364Y35175001D01*
X13274364Y35175000D01*
X14171314Y35175000D01*
X14145507Y35134844D01*
X14105000Y34996889D01*
X14105000Y34853111D01*
X14145507Y34715156D01*
X14171314Y34675000D01*
X13274364Y34675000D01*
X13331567Y34461514D01*
X13331570Y34461508D01*
X13431399Y34247422D01*
X13566894Y34053918D01*
X13733917Y33886895D01*
X13919595Y33756881D01*
X13963219Y33702304D01*
X13970412Y33632805D01*
X13938890Y33570451D01*
X13919595Y33553731D01*
X13733594Y33423492D01*
X13566505Y33256403D01*
X13430965Y33062831D01*
X13430964Y33062829D01*
X13331098Y32848665D01*
X13331094Y32848656D01*
X13269938Y32620414D01*
X13269936Y32620404D01*
X13249341Y32385001D01*
X13249341Y32385000D01*
X13269936Y32149597D01*
X13269938Y32149587D01*
X13331094Y31921345D01*
X13331096Y31921341D01*
X13331097Y31921337D01*
X13430965Y31707170D01*
X13430967Y31707166D01*
X13566501Y31513605D01*
X13566506Y31513598D01*
X13733597Y31346507D01*
X13733603Y31346502D01*
X13919158Y31216575D01*
X13962783Y31161998D01*
X13969977Y31092500D01*
X13938454Y31030145D01*
X13919158Y31013425D01*
X13733597Y30883495D01*
X13566505Y30716403D01*
X13430965Y30522831D01*
X13430964Y30522829D01*
X13331098Y30308665D01*
X13331094Y30308656D01*
X13269938Y30080414D01*
X13269936Y30080404D01*
X13249341Y29845001D01*
X13249341Y29845000D01*
X500Y29845000D01*
X500Y80577237D01*
X2590787Y80577237D01*
X2620413Y80307987D01*
X2620415Y80307976D01*
X2688926Y80045918D01*
X2688928Y80045912D01*
X2794870Y79796610D01*
X2866998Y79678425D01*
X2935979Y79565395D01*
X2935986Y79565385D01*
X3109253Y79357181D01*
X3109259Y79357176D01*
X3214240Y79263113D01*
X3310998Y79176418D01*
X3536910Y79026956D01*
X3782176Y78911980D01*
X3782183Y78911978D01*
X3782185Y78911977D01*
X4041557Y78833943D01*
X4041564Y78833942D01*
X4041569Y78833940D01*
X4309561Y78794500D01*
X4309566Y78794500D01*
X4512636Y78794500D01*
X4564133Y78798270D01*
X4715156Y78809323D01*
X4827758Y78834407D01*
X4979546Y78868218D01*
X4979548Y78868219D01*
X4979553Y78868220D01*
X5232558Y78964986D01*
X5468777Y79097559D01*
X5683177Y79263112D01*
X5871186Y79458119D01*
X6028799Y79678421D01*
X6102787Y79822331D01*
X6152649Y79919310D01*
X6152651Y79919316D01*
X6152656Y79919325D01*
X6240118Y80175695D01*
X6289319Y80442067D01*
X6294259Y80577237D01*
X43230787Y80577237D01*
X43260413Y80307987D01*
X43260415Y80307976D01*
X43328926Y80045918D01*
X43328928Y80045912D01*
X43434870Y79796610D01*
X43506998Y79678425D01*
X43575979Y79565395D01*
X43575986Y79565385D01*
X43749253Y79357181D01*
X43749259Y79357176D01*
X43854240Y79263113D01*
X43950998Y79176418D01*
X44176910Y79026956D01*
X44422176Y78911980D01*
X44422183Y78911978D01*
X44422185Y78911977D01*
X44681557Y78833943D01*
X44681564Y78833942D01*
X44681569Y78833940D01*
X44949561Y78794500D01*
X44949566Y78794500D01*
X45152636Y78794500D01*
X45204133Y78798270D01*
X45355156Y78809323D01*
X45467758Y78834407D01*
X45619546Y78868218D01*
X45619548Y78868219D01*
X45619553Y78868220D01*
X45872558Y78964986D01*
X46108777Y79097559D01*
X46323177Y79263112D01*
X46511186Y79458119D01*
X46668799Y79678421D01*
X46742787Y79822331D01*
X46792649Y79919310D01*
X46792651Y79919316D01*
X46792656Y79919325D01*
X46880118Y80175695D01*
X46929319Y80442067D01*
X46939212Y80712765D01*
X46909586Y80982018D01*
X46841072Y81244088D01*
X46735130Y81493390D01*
X46594018Y81724610D01*
X46504747Y81831881D01*
X46420746Y81932820D01*
X46420740Y81932825D01*
X46219002Y82113582D01*
X45993092Y82263043D01*
X45993090Y82263044D01*
X45747824Y82378020D01*
X45747819Y82378022D01*
X45747814Y82378024D01*
X45488442Y82456058D01*
X45488428Y82456061D01*
X45372791Y82473079D01*
X45220439Y82495500D01*
X45017369Y82495500D01*
X45017364Y82495500D01*
X44814844Y82480677D01*
X44814831Y82480675D01*
X44550453Y82421783D01*
X44550446Y82421780D01*
X44297439Y82325013D01*
X44061226Y82192443D01*
X43846822Y82026888D01*
X43658822Y81831891D01*
X43658816Y81831884D01*
X43501202Y81611581D01*
X43501199Y81611576D01*
X43377350Y81370691D01*
X43377343Y81370673D01*
X43289884Y81114315D01*
X43289881Y81114301D01*
X43240681Y80847932D01*
X43240680Y80847925D01*
X43230787Y80577237D01*
X6294259Y80577237D01*
X6299212Y80712765D01*
X6269586Y80982018D01*
X6201072Y81244088D01*
X6095130Y81493390D01*
X5954018Y81724610D01*
X5864747Y81831881D01*
X5780746Y81932820D01*
X5780740Y81932825D01*
X5579002Y82113582D01*
X5353092Y82263043D01*
X5353090Y82263044D01*
X5107824Y82378020D01*
X5107819Y82378022D01*
X5107814Y82378024D01*
X4848442Y82456058D01*
X4848428Y82456061D01*
X4732791Y82473079D01*
X4580439Y82495500D01*
X4377369Y82495500D01*
X4377364Y82495500D01*
X4174844Y82480677D01*
X4174831Y82480675D01*
X3910453Y82421783D01*
X3910446Y82421780D01*
X3657439Y82325013D01*
X3421226Y82192443D01*
X3206822Y82026888D01*
X3018822Y81831891D01*
X3018816Y81831884D01*
X2861202Y81611581D01*
X2861199Y81611576D01*
X2737350Y81370691D01*
X2737343Y81370673D01*
X2649884Y81114315D01*
X2649881Y81114301D01*
X2600681Y80847932D01*
X2600680Y80847925D01*
X2590787Y80577237D01*
X500Y80577237D01*
X500Y82088378D01*
X585Y82091624D01*
X1736Y82113582D01*
X7497Y82223514D01*
X17803Y82407032D01*
X18464Y82413209D01*
X42611Y82565669D01*
X70227Y82728204D01*
X71451Y82733804D01*
X112425Y82886721D01*
X157083Y83041732D01*
X158764Y83046746D01*
X216127Y83196185D01*
X277366Y83344028D01*
X279379Y83348394D01*
X352511Y83491922D01*
X359688Y83504910D01*
X429655Y83631506D01*
X431867Y83635192D01*
X519980Y83770873D01*
X534130Y83790818D01*
X612154Y83900780D01*
X614486Y83903857D01*
X715655Y84028791D01*
X717537Y84031002D01*
X822773Y84148761D01*
X825092Y84151213D01*
X938787Y84264908D01*
X941239Y84267227D01*
X1058998Y84372463D01*
X1061209Y84374345D01*
X1186143Y84475514D01*
X1189220Y84477846D01*
X1319127Y84570020D01*
X1329046Y84576463D01*
X1454808Y84658133D01*
X1458494Y84660345D01*
X1598078Y84737489D01*
X1610063Y84743597D01*
X1741606Y84810621D01*
X1745972Y84812634D01*
X1893815Y84873873D01*
X2043254Y84931236D01*
X2048268Y84932917D01*
X2203279Y84977575D01*
X2356196Y85018549D01*
X2361796Y85019773D01*
X2524284Y85047382D01*
X2676791Y85071536D01*
X2682968Y85072197D01*
X2866566Y85082507D01*
X2998380Y85089416D01*
X3001622Y85089500D01*
X46528378Y85089500D01*
X46531619Y85089416D01*
G37*
%TD.AperFunction*%
%TD*%
%TA.AperFunction,Conductor*%
%TO.N,adc_vref*%
G36*
X42267943Y66066012D02*
G01*
X42273733Y66059932D01*
X42544133Y65409491D01*
X42544144Y65400536D01*
X42544133Y65400509D01*
X42273733Y64750069D01*
X42267393Y64743745D01*
X42259000Y64743540D01*
X41112771Y65152230D01*
X41106129Y65158236D01*
X41105000Y65163250D01*
X41105000Y65646751D01*
X41108427Y65655024D01*
X41112770Y65657771D01*
X42259000Y66066461D01*
X42267943Y66066012D01*
G37*
%TD.AperFunction*%
%TD*%
%TA.AperFunction,Conductor*%
%TO.N,adc_vref*%
G36*
X34077545Y65657903D02*
G01*
X34084011Y65651707D01*
X34085000Y65647000D01*
X34085000Y65163001D01*
X34081573Y65154728D01*
X34077545Y65152098D01*
X32720941Y64623854D01*
X32711989Y64624046D01*
X32705891Y64630268D01*
X32385865Y65400511D01*
X32385856Y65409466D01*
X32385865Y65409489D01*
X32484548Y65647000D01*
X32705891Y66179734D01*
X32712230Y66186058D01*
X32720941Y66186147D01*
X34077545Y65657903D01*
G37*
%TD.AperFunction*%
%TD*%
%TA.AperFunction,Conductor*%
%TO.N,Net-(J2-Pin_9)*%
G36*
X41891061Y63135888D02*
G01*
X42541211Y62867563D01*
X42547551Y62861239D01*
X42547562Y62861212D01*
X42815884Y62211068D01*
X42815873Y62202113D01*
X42809533Y62195789D01*
X42809092Y62195618D01*
X41622169Y61760947D01*
X41613222Y61761319D01*
X41609873Y61763660D01*
X41443659Y61929874D01*
X41440232Y61938147D01*
X41440945Y61942165D01*
X41875618Y63129095D01*
X41881679Y63135684D01*
X41890626Y63136056D01*
X41891061Y63135888D01*
G37*
%TD.AperFunction*%
%TD*%
%TA.AperFunction,Conductor*%
%TO.N,Net-(J2-Pin_9)*%
G36*
X32720836Y58565209D02*
G01*
X32721413Y58564951D01*
X34078366Y57913186D01*
X34084339Y57906516D01*
X34085000Y57902640D01*
X34085000Y57667361D01*
X34081573Y57659088D01*
X34078366Y57656814D01*
X32721413Y57005050D01*
X32712471Y57004558D01*
X32705800Y57010531D01*
X32705542Y57011108D01*
X32385865Y57780511D01*
X32385856Y57789466D01*
X32385865Y57789489D01*
X32705542Y58558893D01*
X32711881Y58565218D01*
X32720836Y58565209D01*
G37*
%TD.AperFunction*%
%TD*%
%TA.AperFunction,Conductor*%
%TO.N,Net-(J2-Pin_10)*%
G36*
X32994254Y55839032D02*
G01*
X33455768Y55445215D01*
X34010573Y54971791D01*
X34014642Y54963815D01*
X34011878Y54955297D01*
X34011251Y54954619D01*
X33845560Y54788928D01*
X33840532Y54785960D01*
X32720327Y54462602D01*
X32711428Y54463600D01*
X32706275Y54469361D01*
X32387293Y55238474D01*
X32387289Y55247429D01*
X32389834Y55251236D01*
X32978397Y55838416D01*
X32986673Y55841832D01*
X32994254Y55839032D01*
G37*
%TD.AperFunction*%
%TD*%
%TA.AperFunction,Conductor*%
%TO.N,Net-(J2-Pin_10)*%
G36*
X42273937Y48279351D02*
G01*
X42274262Y48278637D01*
X42543845Y47628782D01*
X42543850Y47619827D01*
X42543842Y47619808D01*
X42274334Y46971513D01*
X42267994Y46965189D01*
X42259039Y46965200D01*
X42258189Y46965594D01*
X41053450Y47583730D01*
X41047653Y47590556D01*
X41048381Y47599481D01*
X41050515Y47602410D01*
X41214587Y47766482D01*
X41217656Y47768686D01*
X42258260Y48284637D01*
X42267192Y48285241D01*
X42273937Y48279351D01*
G37*
%TD.AperFunction*%
%TD*%
%TA.AperFunction,Conductor*%
%TO.N,vbus*%
G36*
X32393266Y14597724D02*
G01*
X33057701Y13932508D01*
X33228039Y13761969D01*
X33231461Y13753694D01*
X33229320Y13746954D01*
X32638496Y12909953D01*
X32630925Y12905170D01*
X32628937Y12905000D01*
X32141063Y12905000D01*
X32132790Y12908427D01*
X32131504Y12909953D01*
X31949711Y13167492D01*
X31540678Y13746956D01*
X31538708Y13755689D01*
X31541959Y13761968D01*
X32376723Y14597714D01*
X32384993Y14601145D01*
X32393266Y14597724D01*
G37*
%TD.AperFunction*%
%TD*%
%TA.AperFunction,Conductor*%
%TO.N,vbus*%
G36*
X23008198Y7305708D02*
G01*
X23014523Y7299369D01*
X23014614Y7299143D01*
X23442533Y6194885D01*
X23545354Y5929554D01*
X23545148Y5920601D01*
X23542717Y5917053D01*
X23200454Y5574790D01*
X23192181Y5571363D01*
X23187057Y5572545D01*
X21909607Y6194885D01*
X21903670Y6201589D01*
X21903917Y6209869D01*
X22222438Y6981217D01*
X22228759Y6987552D01*
X22999245Y7305717D01*
X23008198Y7305708D01*
G37*
%TD.AperFunction*%
%TD*%
%TA.AperFunction,Conductor*%
%TO.N,sda*%
G36*
X27430912Y8681573D02*
G01*
X27433186Y8678366D01*
X28084950Y7321414D01*
X28085442Y7312472D01*
X28079469Y7305801D01*
X28078892Y7305543D01*
X27309489Y6985866D01*
X27300534Y6985857D01*
X27300511Y6985866D01*
X26531107Y7305543D01*
X26524782Y7311882D01*
X26524791Y7320837D01*
X26525049Y7321414D01*
X27176814Y8678366D01*
X27183485Y8684339D01*
X27187361Y8685000D01*
X27422639Y8685000D01*
X27430912Y8681573D01*
G37*
%TD.AperFunction*%
%TD*%
%TA.AperFunction,Conductor*%
%TO.N,sda*%
G36*
X31611106Y17465572D02*
G01*
X32381215Y17147562D01*
X32387552Y17141239D01*
X32387562Y17141215D01*
X32705567Y16371117D01*
X32705558Y16362162D01*
X32699219Y16355837D01*
X32698629Y16355612D01*
X31278251Y15856969D01*
X31269309Y15857461D01*
X31266102Y15859735D01*
X31099734Y16026103D01*
X31096307Y16034376D01*
X31096968Y16038252D01*
X31208461Y16355837D01*
X31595612Y17458632D01*
X31601584Y17465301D01*
X31610526Y17465793D01*
X31611106Y17465572D01*
G37*
%TD.AperFunction*%
%TD*%
%TA.AperFunction,Conductor*%
%TO.N,scl*%
G36*
X17140978Y21011203D02*
G01*
X17146862Y21004453D01*
X17147471Y21000726D01*
X17147471Y20768774D01*
X17146946Y20765308D01*
X16724096Y19401966D01*
X16718372Y19395079D01*
X16709455Y19394257D01*
X16708448Y19394621D01*
X15938487Y19713144D01*
X15932153Y19719473D01*
X15932146Y19719489D01*
X15614496Y20488730D01*
X15614505Y20497683D01*
X15620844Y20504008D01*
X15621568Y20504280D01*
X17132045Y21011817D01*
X17140978Y21011203D01*
G37*
%TD.AperFunction*%
%TD*%
%TA.AperFunction,Conductor*%
%TO.N,scl*%
G36*
X31611106Y22545572D02*
G01*
X32381215Y22227562D01*
X32387552Y22221239D01*
X32387562Y22221215D01*
X32705567Y21451117D01*
X32705558Y21442162D01*
X32699219Y21435837D01*
X32698629Y21435612D01*
X31278251Y20936969D01*
X31269309Y20937461D01*
X31266102Y20939735D01*
X31099734Y21106103D01*
X31096307Y21114376D01*
X31096968Y21118252D01*
X31208461Y21435837D01*
X31595612Y22538632D01*
X31601584Y22545301D01*
X31610526Y22545793D01*
X31611106Y22545572D01*
G37*
%TD.AperFunction*%
%TD*%
%TA.AperFunction,Conductor*%
%TO.N,scl*%
G36*
X33168243Y32705726D02*
G01*
X33174568Y32699387D01*
X33174646Y32699192D01*
X33709925Y31334186D01*
X33709755Y31325233D01*
X33707306Y31321642D01*
X33540908Y31155244D01*
X33532635Y31151817D01*
X33529227Y31152324D01*
X32072042Y31595951D01*
X32065126Y31601639D01*
X32064257Y31610552D01*
X32064636Y31611610D01*
X32382438Y32381217D01*
X32388759Y32387552D01*
X33159289Y32705735D01*
X33168243Y32705726D01*
G37*
%TD.AperFunction*%
%TD*%
%TA.AperFunction,Conductor*%
%TO.N,scl*%
G36*
X33500690Y23512540D02*
G01*
X33503897Y23510266D01*
X33670265Y23343898D01*
X33673692Y23335625D01*
X33673031Y23331749D01*
X33174388Y21911371D01*
X33168415Y21904700D01*
X33159473Y21904208D01*
X33158883Y21904433D01*
X32388785Y22222438D01*
X32382447Y22228762D01*
X32064432Y22998885D01*
X32064441Y23007839D01*
X32070780Y23014164D01*
X32071345Y23014380D01*
X33491748Y23513032D01*
X33500690Y23512540D01*
G37*
%TD.AperFunction*%
%TD*%
%TA.AperFunction,Conductor*%
%TO.N,sda*%
G36*
X16717362Y17495362D02*
G01*
X16723687Y17489023D01*
X16724060Y17487981D01*
X17061360Y16385362D01*
X17169462Y16031983D01*
X17168605Y16023069D01*
X17166547Y16020287D01*
X17000150Y15853890D01*
X16991877Y15850463D01*
X16987619Y15851265D01*
X15620827Y16385362D01*
X15614368Y16391565D01*
X15614187Y16400518D01*
X15614271Y16400726D01*
X15932438Y17171217D01*
X15938759Y17177552D01*
X16708407Y17495371D01*
X16717362Y17495362D01*
G37*
%TD.AperFunction*%
%TD*%
M02*
