%TF.GenerationSoftware,KiCad,Pcbnew,8.0.3*%
%TF.CreationDate,2024-07-17T23:21:38+09:00*%
%TF.ProjectId,WETHAP_PCB,57455448-4150-45f5-9043-422e6b696361,rev?*%
%TF.SameCoordinates,PX6d9c4d8PY8977a68*%
%TF.FileFunction,Soldermask,Bot*%
%TF.FilePolarity,Negative*%
%FSLAX46Y46*%
G04 Gerber Fmt 4.6, Leading zero omitted, Abs format (unit mm)*
G04 Created by KiCad (PCBNEW 8.0.3) date 2024-07-17 23:21:38*
%MOMM*%
%LPD*%
G01*
G04 APERTURE LIST*
%ADD10R,1.700000X1.700000*%
%ADD11O,1.700000X1.700000*%
%ADD12C,5.600000*%
%ADD13C,1.440000*%
G04 APERTURE END LIST*
D10*
%TO.C,DHT20*%
X32385000Y14605000D03*
D11*
X32385000Y17145000D03*
X32385000Y19685000D03*
X32385000Y22225000D03*
%TD*%
D10*
%TO.C,J1*%
X14605000Y78105000D03*
D11*
X14605000Y75565000D03*
X14605000Y73025000D03*
X14605000Y70485000D03*
X14605000Y67945000D03*
X14605000Y65405000D03*
X14605000Y62865000D03*
X14605000Y60325000D03*
X14605000Y57785000D03*
X14605000Y55245000D03*
X14605000Y52705000D03*
X14605000Y50165000D03*
X14605000Y47625000D03*
X14605000Y45085000D03*
X14605000Y42545000D03*
X14605000Y40005000D03*
X14605000Y37465000D03*
X14605000Y34925000D03*
X14605000Y32385000D03*
X14605000Y29845000D03*
%TD*%
D12*
%TO.C,H2*%
X45085000Y80645000D03*
%TD*%
D10*
%TO.C,LPS25HB1*%
X15875000Y22225000D03*
D11*
X15875000Y19685000D03*
X15875000Y17145000D03*
X15875000Y14605000D03*
%TD*%
D10*
%TO.C,SSD1306*%
X19685000Y6985000D03*
D11*
X22225000Y6985000D03*
X24765000Y6985000D03*
X27305000Y6985000D03*
%TD*%
D13*
%TO.C,RV1*%
X42545000Y50165000D03*
X42545000Y47625000D03*
X42545000Y45085000D03*
%TD*%
D10*
%TO.C,J2*%
X32385000Y29845000D03*
D11*
X32385000Y32385000D03*
X32385000Y34925000D03*
X32385000Y37465000D03*
X32385000Y40005000D03*
X32385000Y42545000D03*
X32385000Y45085000D03*
X32385000Y47625000D03*
X32385000Y50165000D03*
X32385000Y52705000D03*
X32385000Y55245000D03*
X32385000Y57785000D03*
X32385000Y60325000D03*
X32385000Y62865000D03*
X32385000Y65405000D03*
X32385000Y67945000D03*
X32385000Y70485000D03*
X32385000Y73025000D03*
X32385000Y75565000D03*
X32385000Y78105000D03*
%TD*%
D13*
%TO.C,RV2*%
X42545000Y65405000D03*
X42545000Y62865000D03*
X42545000Y60325000D03*
%TD*%
D12*
%TO.C,H4*%
X45085000Y4445000D03*
%TD*%
D10*
%TO.C,LPS25HB2*%
X23470000Y14615000D03*
D11*
X23470000Y17155000D03*
X23470000Y19695000D03*
X23470000Y22235000D03*
%TD*%
D12*
%TO.C,H1*%
X4445000Y80645000D03*
%TD*%
%TO.C,H3*%
X4445000Y4445000D03*
%TD*%
M02*
