<?xml version="1.0" encoding="UTF-8" standalone="no"?>
<!-- Created with Inkscape (http://www.inkscape.org/) -->

<svg
   version="1.1"
   id="svg48"
   width="1742.4941"
   height="327.3382"
   viewBox="0 0 580831.39 109112.73"
   xml:space="preserve"
   xmlns="http://www.w3.org/2000/svg"
   xmlns:svg="http://www.w3.org/2000/svg"><defs
     id="defs52" /><g
     id="g54"
     transform="translate(-157929.38,-53549.268)"
     style="fill:#ffffff"><path
       style="fill:#ffffff;stroke-width:96"
       d="m 322153.08,144644 c -133.61,-474.04 -22402.77,-73542.306 -22455.59,-73680 -36.55,-95.291 1328.38,-120 6628.8,-120 h 6674.82 l 98.43,312 c 54.13,171.6 3838.47,13725.6 8409.64,30120 4571.16,16394.4 8348.85,29894.4 8394.86,30000 67.89,155.82 94.8,164.86 142.81,48 32.55,-79.2 4157.05,-13708.8 9165.58,-30288 l 9106.42,-30144 7495.95,-24.584 7495.95,-24.584 274.58,888.584 c 151.03,488.721 4245.01,14118.584 9097.73,30288.584 4852.73,16170 8848.01,29400 8878.4,29400 30.39,0 3873.64,-13585.9 8540.55,-30190.89 4666.91,-16604.997 8512.5,-30234.908 8545.73,-30288.696 40.3,-65.204 2174.07,-89.567 6402.62,-73.105 l 6342.17,24.691 -11219.18,37008 c -6170.54,20354.4 -11219.66,37018.8 -11220.26,37032 -2.3,50.35 -15265.09,21.34 -15265.09,-29.01 0,-56.06 -17757.33,-58799.853 -18014.81,-59595.611 -82.7,-255.542 -184.15,-428.342 -225.47,-384 -51.29,55.053 -15970.7,53250.411 -17915.27,59864.621 -46.5,158.17 -495.11,168 -7670.41,168 h -7621.02 z M 416792,107900 V 70844 h 25728 25728 v 5184 5184 h -19488 -19488 v 10416 10416 h 17712 17712 v 5087.75 5087.74 l -17688,24.25 -17688,24.26 -24.4,11160 -24.4,11160 h 19488.4 19488.4 v 5184 5184 h -25728 -25728 z m 78336,5184 V 81212 h -10656 -10656 v -5184 -5184 h 27504 27504 v 5184 5184 h -10704 -10704 v 31872 31872 h -6144 -6144 z m 39264,-5184 V 70844 h 6336 6336 v 15600 15600 h 18240 18240 V 86444 70844 h 6384 6384 v 37056 37056 h -6384 -6384 v -16368 -16368 h -18240 -18240 v 16368 16368 h -6336 -6336 z m 67584,37002.62 c 0,-30.07 6355.51,-16586.77 14123.35,-36792.66 C 623867.19,87904.085 630265.01,71253.2 630316.74,71108 l 94.05,-264 8606.6,1.709 8606.61,1.709 13665.45,36454.292 c 7515.99,20049.86 13767.32,36724.58 13891.84,37054.93 l 226.41,600.66 -6735.07,-24.66 -6735.06,-24.64 -1850.31,-5376 c -1017.68,-2956.8 -2137.31,-6207.72 -2488.07,-7224.25 l -637.76,-1848.24 -18243.25,24.24 -18243.25,24.25 -2650,7200 -2650,7200 -6599.46,24.66 c -3629.71,13.57 -6599.47,0 -6599.47,-30.04 z M 653695.86,121124 c -24.58,-66 -3380.69,-9537.6 -7458.02,-21048 -4077.34,-11510.4 -7444.01,-20959.994 -7481.48,-20999.098 -55.18,-57.551 -14861.85,41211.518 -15051.39,41951.098 l -55.37,216 h 15045.48 c 11996.2,0 15036.4,-24.32 15000.78,-120 z M 681176,107894.94 V 70833.88 l 15480,38.266 c 15617.81,38.609 15952.46,45.723 19032,404.593 11775.23,1372.211 19007.81,6133.577 21726.84,14303.261 1050.18,3155.387 1420.8,6276.712 1333.67,11232 -72.58,4127.39 -400.91,6492.34 -1267.69,9131.05 -2482.26,7556.55 -8941.65,11921 -19872.82,13427.54 -3165.96,436.34 -3817.48,459.72 -13992,502.24 l -9768,40.81 V 132434.83 144956 h -6336 -6336 z m 31680,1697.98 c 6078.26,-797.81 9638.52,-2833.65 11522.66,-6588.92 1073.03,-2138.66 1586.07,-5512.69 1354.02,-8904.63 -180.43,-2637.259 -550.5,-4200.061 -1403.6,-5927.37 -1855.77,-3757.486 -5483.62,-5886.561 -11473.08,-6733.2 -1061.31,-150.021 -2229.12,-173.557 -10104,-203.644 l -8904,-34.018 v 14316.792 14316.8 l 8904,-42.15 c 7528.68,-35.64 9089.36,-66.48 10104,-199.66 z"
       id="path216" /></g><g
     id="g253"
     transform="matrix(0.99872241,0,0,0.99872235,289115.24,53745.434)"><path
       style="fill:#fe8e0f;stroke-width:96"
       d="m -229026.77,55366.266 c -4435.37,-323.414 -8529.75,-3035.174 -10709.47,-7093.008 -552.23,-1028.054 -1163.11,-2845.766 -1355.03,-4032 -192.98,-1192.79 -190.4,-3270.586 5.47,-4423.085 246.93,-1452.816 645.46,-2531.289 2051.24,-5550.998 1208.67,-2596.282 8527.44,-18293.059 19587.54,-42009.917 7155.75,-15344.553 10887.14,-23348.059 14523.63,-31152 1906.8,-4092 3667.45,-7791.03 3912.55,-8220.065 1819.5,-3184.931 4941.22,-5482.773 8600.73,-6330.834 1310.62,-303.725 3261.08,-405.853 4580.16,-239.82 5073.92,638.659 9290.93,4040.224 10994.64,8868.632 549.37,1556.945 719.6,2609.268 717.34,4434.087 -2.21,1782.433 -179.64,2920.78 -669.29,4294.432 -301.26,845.129 214.97,-267.168 -18324.06,39481.568 -3175.48,6808.397 -8324.58,17852.506 -14591.16,31296 -3470.34,7444.8 -6517.97,13881.6 -6772.53,14304 -2604.18,4321.306 -7386.81,6749.626 -12551.78,6373.008 z"
       id="path259" /><path
       style="fill:#f40b73;stroke-width:96"
       d="m -278391.59,-27318.172 c -2869.21,-510.229 -5200.13,-1715.07 -7259.57,-3752.439 -1965.26,-1944.191 -3133.57,-4116.747 -3742.87,-6960.131 -246.78,-1151.636 -250.88,-3850.908 -7.57,-4992 614.07,-2880 1882.48,-5194.8 3919,-7152 1495.81,-1437.563 3110.91,-2409.206 5095.96,-3065.745 1368.11,-452.494 2541.26,-630.255 4159.39,-630.255 2215.4,0 3907.28,387.68 5868.15,1344.634 3809.04,1858.902 6448.84,5353.563 7290.09,9650.849 249.19,1272.974 227.57,3618.485 -45.28,4910.604 -1133.72,5368.983 -5057.66,9336.593 -10429.3,10545.361 -930.84,209.463 -3891.49,271.218 -4848,101.122 z"
       id="path257" /><path
       style="fill:#039ec6;stroke-width:96"
       d="m -273447.59,55373.293 c -2310.51,-176.755 -4560.65,-972.537 -6555,-2318.217 -952.79,-642.903 -2373.82,-2017.901 -3141.46,-3039.725 -1109.89,-1477.383 -1995.88,-3483.207 -2402.05,-5438.093 -363.7,-1750.502 -283.34,-4099.498 202.33,-5914.301 330.2,-1233.792 503.66,-1635.504 3187.51,-7381.699 1319.38,-2824.8 5531.04,-11853.6 9359.25,-20064 9077.86,-19469.3136 10357.81,-22214.303 14301.92,-30672 1822.06,-3907.2 5417.18,-11618.4 7989.16,-17136 2571.96,-5517.6 4871.49,-10356 5110.05,-10752 1862.68,-3091.993 4993.49,-5318.12 8655.85,-6154.641 1228.29,-280.553 3330.29,-343.184 4705.58,-140.209 2872.17,423.894 5473.17,1736.535 7501.54,3785.772 555.88,561.593 1210.42,1303.672 1454.57,1649.066 1008.87,1427.287 1859.78,3387.021 2250.26,5182.59 249.89,1149.066 253.32,4024.518 6.14,5181.422 -325.89,1525.572 -727.1,2476.807 -4055.91,9616.281 -3568.93,7654.484 -16417.66,35208.0774 -20249.25,43423.719 -1280.48,2745.6 -5015.66,10759.2 -8300.41,17808 -3284.75,7048.8 -6293.15,13481.568 -6685.33,14295.034 -869.45,1803.369 -1503.05,2771.731 -2534.68,3873.878 -2755.14,2943.437 -6771.06,4503.36 -10800.1,4195.123 z"
       id="path255" /></g></svg>
