<?xml version="1.0" encoding="UTF-8" standalone="no"?>
<!-- Created with Inkscape (http://www.inkscape.org/) -->

<svg
   width="340.50452mm"
   height="327.95667mm"
   viewBox="0 0 113463.68 109282.46"
   version="1.1"
   id="svg5"
   xml:space="preserve"
   sodipodi:docname="bitmap.svg"
   inkscape:export-filename="jjj.svg"
   inkscape:export-xdpi="96"
   inkscape:export-ydpi="96"
   xmlns:inkscape="http://www.inkscape.org/namespaces/inkscape"
   xmlns:sodipodi="http://sodipodi.sourceforge.net/DTD/sodipodi-0.dtd"
   xmlns="http://www.w3.org/2000/svg"
   xmlns:svg="http://www.w3.org/2000/svg"><sodipodi:namedview
     id="namedview7"
     pagecolor="#505050"
     bordercolor="#eeeeee"
     borderopacity="1"
     inkscape:showpageshadow="0"
     inkscape:pageopacity="0"
     inkscape:pagecheckerboard="0"
     inkscape:deskcolor="#505050"
     inkscape:document-units="mm"
     showgrid="false"
     showguides="false" /><defs
     id="defs2" /><g
     inkscape:label="Layer 1"
     inkscape:groupmode="layer"
     id="layer1"
     transform="translate(236281.62,16270.742)"><g
       id="g253"
       transform="translate(53300,37600)"><path
         style="fill:#fe8e0f;stroke-width:96"
         d="m -229026.77,55366.266 c -4435.37,-323.414 -8529.75,-3035.174 -10709.47,-7093.008 -552.23,-1028.054 -1163.11,-2845.766 -1355.03,-4032 -192.98,-1192.79 -190.4,-3270.586 5.47,-4423.085 246.93,-1452.816 645.46,-2531.289 2051.24,-5550.998 1208.67,-2596.282 8527.44,-18293.059 19587.54,-42009.917 7155.75,-15344.553 10887.14,-23348.059 14523.63,-31152 1906.8,-4092 3667.45,-7791.03 3912.55,-8220.065 1819.5,-3184.931 4941.22,-5482.773 8600.73,-6330.834 1310.62,-303.725 3261.08,-405.853 4580.16,-239.82 5073.92,638.659 9290.93,4040.224 10994.64,8868.632 549.37,1556.945 719.6,2609.268 717.34,4434.087 -2.21,1782.433 -179.64,2920.78 -669.29,4294.432 -301.26,845.129 214.97,-267.168 -18324.06,39481.568 -3175.48,6808.397 -8324.58,17852.506 -14591.16,31296 -3470.34,7444.8 -6517.97,13881.6 -6772.53,14304 -2604.18,4321.306 -7386.81,6749.626 -12551.78,6373.008 z"
         id="path259" /><path
         style="fill:#f40b73;stroke-width:96"
         d="m -278391.59,-27318.172 c -2869.21,-510.229 -5200.13,-1715.07 -7259.57,-3752.439 -1965.26,-1944.191 -3133.57,-4116.747 -3742.87,-6960.131 -246.78,-1151.636 -250.88,-3850.908 -7.57,-4992 614.07,-2880 1882.48,-5194.8 3919,-7152 1495.81,-1437.563 3110.91,-2409.206 5095.96,-3065.745 1368.11,-452.494 2541.26,-630.255 4159.39,-630.255 2215.4,0 3907.28,387.68 5868.15,1344.634 3809.04,1858.902 6448.84,5353.563 7290.09,9650.849 249.19,1272.974 227.57,3618.485 -45.28,4910.604 -1133.72,5368.983 -5057.66,9336.593 -10429.3,10545.361 -930.84,209.463 -3891.49,271.218 -4848,101.122 z"
         id="path257" /><path
         style="fill:#039ec6;stroke-width:96"
         d="m -273447.59,55373.293 c -2310.51,-176.755 -4560.65,-972.537 -6555,-2318.217 -952.79,-642.903 -2373.82,-2017.901 -3141.46,-3039.725 -1109.89,-1477.383 -1995.88,-3483.207 -2402.05,-5438.093 -363.7,-1750.502 -283.34,-4099.498 202.33,-5914.301 330.2,-1233.792 503.66,-1635.504 3187.51,-7381.699 1319.38,-2824.8 5531.04,-11853.6 9359.25,-20064 9077.86,-19469.3136 10357.81,-22214.303 14301.92,-30672 1822.06,-3907.2 5417.18,-11618.4 7989.16,-17136 2571.96,-5517.6 4871.49,-10356 5110.05,-10752 1862.68,-3091.993 4993.49,-5318.12 8655.85,-6154.641 1228.29,-280.553 3330.29,-343.184 4705.58,-140.209 2872.17,423.894 5473.17,1736.535 7501.54,3785.772 555.88,561.593 1210.42,1303.672 1454.57,1649.066 1008.87,1427.287 1859.78,3387.021 2250.26,5182.59 249.89,1149.066 253.32,4024.518 6.14,5181.422 -325.89,1525.572 -727.1,2476.807 -4055.91,9616.281 -3568.93,7654.484 -16417.66,35208.0774 -20249.25,43423.719 -1280.48,2745.6 -5015.66,10759.2 -8300.41,17808 -3284.75,7048.8 -6293.15,13481.568 -6685.33,14295.034 -869.45,1803.369 -1503.05,2771.731 -2534.68,3873.878 -2755.14,2943.437 -6771.06,4503.36 -10800.1,4195.123 z"
         id="path255" /></g></g></svg>
